<svg width="33" height="32" viewBox="0 0 33 32" fill="none" xmlns="http://www.w3.org/2000/svg">
<path d="M27.1663 13.9998V9.0665C27.1663 6.82629 27.1663 5.70619 26.7304 4.85054C26.3469 4.09789 25.7349 3.48597 24.9823 3.10248C24.1267 2.6665 23.0066 2.6665 20.7663 2.6665H12.233C9.9928 2.6665 8.87269 2.6665 8.01705 3.10248C7.2644 3.48597 6.65248 4.09789 6.26898 4.85054C5.83301 5.70619 5.83301 6.82629 5.83301 9.0665V22.9332C5.83301 25.1734 5.83301 26.2935 6.26898 27.1491C6.65248 27.9018 7.2644 28.5137 8.01705 28.8972C8.87269 29.3332 9.9928 29.3332 12.233 29.3332H16.4997M19.1663 14.6665H11.1663M13.833 19.9998H11.1663M21.833 9.33317H11.1663M24.4997 27.9998V19.9998M20.4997 23.9998H28.4997" stroke="currentColor" stroke-width="2" stroke-linecap="round" stroke-linejoin="round"/>
</svg>
