<svg width="16" height="16" viewBox="0 0 16 16" fill="none" xmlns="http://www.w3.org/2000/svg">
<g clip-path="url(#clip0_8135_21285)">
<path d="M10.7936 1.3335H5.20688C2.78018 1.3335 1.3335 2.78014 1.3335 5.20676V10.7867C1.3335 13.22 2.78018 14.6666 5.20688 14.6666H10.7869C13.2136 14.6666 14.6603 13.22 14.6603 10.7933V5.20676C14.667 2.78014 13.2203 1.3335 10.7936 1.3335ZM5.33354 8.66671C4.96021 8.66671 4.66687 8.36671 4.66687 8.00005C4.66687 7.63339 4.96687 7.3334 5.33354 7.3334C5.70021 7.3334 6.00022 7.63339 6.00022 8.00005C6.00022 8.36671 5.70688 8.66671 5.33354 8.66671ZM8.00024 8.66671C7.6269 8.66671 7.33357 8.36671 7.33357 8.00005C7.33357 7.63339 7.63357 7.3334 8.00024 7.3334C8.36691 7.3334 8.66692 7.63339 8.66692 8.00005C8.66692 8.36671 8.37358 8.66671 8.00024 8.66671ZM10.6669 8.66671C10.2936 8.66671 10.0003 8.36671 10.0003 8.00005C10.0003 7.63339 10.3003 7.3334 10.6669 7.3334C11.0336 7.3334 11.3336 7.63339 11.3336 8.00005C11.3336 8.36671 11.0403 8.66671 10.6669 8.66671Z" fill="#C8C8C8"/>
</g>
<defs>
<clipPath id="clip0_8135_21285">
<rect y="0.000244141" width="16.0002" height="15.9997" rx="7.99987" fill="white"/>
</clipPath>
</defs>
</svg>
