<svg width="24" height="24" viewBox="0 0 24 24" fill="none" xmlns="http://www.w3.org/2000/svg">
  <!-- Vòng tròn nền -->
  <circle cx="12" cy="12" r="12" fill="black"/>
  
  <!-- Icon apple được căn giữa và thu nhỏ lại một chút -->
  <path d="M15.9983 16.4383C15.2229 17.1771 14.3764 17.0604 13.5614 16.7105C12.699 16.3528 11.9079 16.3372 10.998 16.7105C9.85868 17.1927 9.25738 17.0527 8.57696 16.4383C4.71597 12.5266 5.28562 6.56955 9.6688 6.3518C10.7369 6.40624 11.4806 6.92728 12.1057 6.97394C13.0393 6.7873 13.9333 6.2507 14.9302 6.32069C16.1249 6.41401 17.0268 6.88062 17.6202 7.72052C15.1517 9.17478 15.7372 12.371 18 13.2654C17.549 14.4319 16.9635 15.5906 15.9904 16.4461L15.9983 16.4383ZM12.0265 6.30514C11.9079 4.57091 13.3399 3.13998 14.9856 3C15.215 5.00641 13.1342 6.49956 12.0265 6.30514Z" fill="white"/>
</svg>
