<svg width="32" height="32" viewBox="0 0 32 32" fill="none" xmlns="http://www.w3.org/2000/svg">
<path d="M16 1.99805C18.7689 1.99805 21.4757 2.81911 23.778 4.35741C26.0803 5.8957 27.8747 8.08214 28.9343 10.6402C29.9939 13.1983 30.2712 16.0132 29.731 18.7288C29.1908 21.4445 27.8574 23.939 25.8995 25.8969C23.9416 27.8547 21.447 29.1881 18.7313 29.7282C16.0155 30.2684 13.2006 29.9912 10.6424 28.9316C8.08427 27.872 5.89777 26.0776 4.35943 23.7754C2.82109 21.4732 2 18.7665 2 15.9976C1.9995 14.159 2.36128 12.3384 3.06467 10.6396C3.76806 8.9409 4.79927 7.3974 6.09939 6.09732C7.39951 4.79724 8.94306 3.76605 10.6418 3.06269C12.3406 2.35932 14.1613 1.99755 16 1.99805Z" fill="#F0B90B"/>
<path d="M12.3762 14.4918L14.4979 12.3816L14.9427 11.9329L16.0036 10.8759L19.6119 14.4918L21.7108 12.3816L16.0036 6.66309L10.2773 12.3816L12.3762 14.4918Z" fill="white"/>
<path d="M16.0063 13.8844L13.8984 15.9922L16.0063 18.1L18.1142 15.9922L16.0063 13.8844Z" fill="white"/>
<path d="M19.6119 17.5068L16.0036 21.1151L14.7336 19.8452L14.5017 19.6132L12.3762 17.5068L10.2773 19.6056L16.0036 25.3203L21.7108 19.6056L19.6119 17.5068Z" fill="white"/>
<path d="M8.77389 13.8912L6.66602 15.999L8.77389 18.1068L10.8818 15.999L8.77389 13.8912Z" fill="white"/>
<path d="M23.2221 13.8912L21.1143 15.999L23.2221 18.1068L25.33 15.999L23.2221 13.8912Z" fill="white"/>
</svg>
