<svg width="24" height="24" viewBox="0 0 24 24" fill="none" xmlns="http://www.w3.org/2000/svg">
<path fill-rule="evenodd" clip-rule="evenodd" d="M12 -0.00158691C18.6279 -0.00158691 24 5.37053 24 11.9984C24 18.6263 18.6279 23.9984 12 23.9984C5.37212 23.9984 0 18.6263 0 11.9984C0 5.37053 5.37212 -0.00158691 12 -0.00158691Z" fill="#F0B90B"/>
<path d="M6.59534 11.9984L6.60399 15.1714L9.30015 16.758V18.6157L5.02611 16.1089V11.0705L6.59534 11.9984ZM6.59534 8.82528V10.6743L5.02515 9.74548V7.89644L6.59534 6.96759L8.17322 7.89644L6.59534 8.82528ZM10.4261 7.89644L11.9963 6.96759L13.5742 7.89644L11.9963 8.82528L10.4261 7.89644Z" fill="white"/>
<path d="M7.729 14.5137V12.6561L9.2992 13.5849V15.4339L7.729 14.5137ZM10.4252 17.4234L11.9953 18.3522L13.5732 17.4234V19.2724L11.9953 20.2012L10.4252 19.2724V17.4234ZM15.8252 7.89644L17.3953 6.96759L18.9732 7.89644V9.74548L17.3953 10.6743V8.82528L15.8252 7.89644ZM17.3953 15.1714L17.404 11.9984L18.9742 11.0695V16.108L14.7002 18.6147V16.757L17.3953 15.1714Z" fill="white"/>
<path d="M16.2709 14.5139L14.7007 15.4341V13.5851L16.2709 12.6562V14.5139Z" fill="white"/>
<path d="M16.2694 9.48303L16.278 11.3407L13.5742 12.9273V16.108L12.004 17.0282L10.4338 16.108V12.9273L7.72997 11.3407V9.48303L9.30689 8.55419L11.9944 10.1484L14.6982 8.55419L16.2761 9.48303H16.2694ZM7.729 6.31092L11.9953 3.79553L16.2694 6.31092L14.6992 7.23976L11.9953 5.64553L9.2992 7.23976L7.729 6.31092Z" fill="white"/>
</svg>
