<svg width="33" height="32" viewBox="0 0 33 32" fill="none" xmlns="http://www.w3.org/2000/svg">
<path d="M16.5003 22.6667C16.5003 26.3486 19.4851 29.3333 23.167 29.3333C26.8489 29.3333 29.8337 26.3486 29.8337 22.6667C29.8337 18.9848 26.8489 16 23.167 16C19.4851 16 16.5003 18.9848 16.5003 22.6667ZM16.5003 22.6667C16.5003 21.1656 16.9964 19.7803 17.8337 18.666V6.66667M16.5003 22.6667C16.5003 23.7671 16.767 24.8053 17.2392 25.7202C16.1159 26.669 13.5215 27.3333 10.5003 27.3333C6.45024 27.3333 3.16699 26.1394 3.16699 24.6667V6.66667M17.8337 6.66667C17.8337 8.13943 14.5504 9.33333 10.5003 9.33333C6.45024 9.33333 3.16699 8.13943 3.16699 6.66667M17.8337 6.66667C17.8337 5.19391 14.5504 4 10.5003 4C6.45024 4 3.16699 5.19391 3.16699 6.66667M3.16699 18.6667C3.16699 20.1394 6.45024 21.3333 10.5003 21.3333C13.419 21.3333 15.9394 20.7133 17.1198 19.8157M17.8337 12.6667C17.8337 14.1394 14.5504 15.3333 10.5003 15.3333C6.45024 15.3333 3.16699 14.1394 3.16699 12.6667" stroke="currentColor" stroke-width="2" stroke-linecap="round" stroke-linejoin="round"/>
</svg>
