<svg width="16" height="12" viewBox="0 0 16 12" fill="none" xmlns="http://www.w3.org/2000/svg">
<path d="M14.6667 0H1.33333C0.6 0 0 0.6 0 1.33333V10.6667C0 11.4 0.6 12 1.33333 12H14.6667C15.4 12 15.9933 11.4 15.9933 10.6667L16 1.33333C16 0.6 15.4 0 14.6667 0ZM14.6667 10.6667H1.33333V1.33333H14.6667V10.6667ZM12.6733 9.99333L14 8.66667L12.9933 7.33333H11.9C11.7533 6.91333 11.6667 6.46667 11.6667 6C11.6667 5.53333 11.7533 5.08667 11.9 4.66667H12.9933L14 3.33333L12.6733 2.00667C11.8 2.66 11.1533 3.58667 10.8533 4.66667C10.7333 5.09333 10.6667 5.54 10.6667 6C10.6667 6.46 10.7333 6.90667 10.8533 7.33333C11.1533 8.40667 11.8 9.34 12.6733 9.99333ZM6 6C7.1 6 8 5.1 8 4C8 2.9 7.1 2 6 2C4.9 2 4 2.9 4 4C4 5.1 4.9 6 6 6ZM6 3.33333C6.36667 3.33333 6.66667 3.63333 6.66667 4C6.66667 4.36667 6.36667 4.66667 6 4.66667C5.63333 4.66667 5.33333 4.36667 5.33333 4C5.33333 3.63333 5.63333 3.33333 6 3.33333ZM10 9.06C10 7.39333 7.35333 6.67333 6 6.67333C4.64667 6.67333 2 7.39333 2 9.06V10H10V9.06ZM3.65333 8.66667C4.14667 8.33333 5.13333 8 6 8C6.86667 8 7.84667 8.32667 8.34667 8.66667H3.65333Z" fill="currentColor"/>
</svg>
