<svg width="265" height="264" viewBox="0 0 265 264" fill="none" xmlns="http://www.w3.org/2000/svg">
<rect x="70.6486" y="24.135" width="123.243" height="238.444" rx="20.1081" fill="white" stroke="#E1251B" stroke-width="1.2973"/>
<path d="M76.8767 45.2815C76.8767 37.042 83.5561 30.3625 91.7956 30.3625H172.747C180.987 30.3625 187.666 37.042 187.666 45.2815V241.433C187.666 249.673 180.987 256.352 172.747 256.352H91.7956C83.5561 256.352 76.8767 249.673 76.8767 241.433V45.2815Z" stroke="#E1251B" stroke-width="1.2973"/>
<path d="M99.06 30.2324L100.787 35.1987C102.239 39.3711 106.172 42.1676 110.59 42.1676H154.99C159.407 42.1676 163.341 39.3711 164.792 35.1987L166.52 30.2324" stroke="#E1251B" stroke-width="1.2973"/>
<rect x="119.817" y="34.9023" width="28.0217" height="2.07568" rx="1.03784" fill="#E1251B"/>
<circle cx="113.589" cy="35.9399" r="2.07568" fill="#E1251B"/>
<circle cx="153.026" cy="35.9402" r="1.03784" fill="#E1251B"/>
<path d="M162.046 60.9882C162.269 59.418 162.634 59.418 162.857 60.9882C163.08 62.5584 164.547 64.0255 166.117 64.2484C167.687 64.4714 167.687 64.8362 166.117 65.0591C164.547 65.2821 163.08 66.7492 162.857 68.3194C162.634 69.8896 162.269 69.8896 162.046 68.3194C161.823 66.7492 160.356 65.2821 158.786 65.0591C157.216 64.8362 157.216 64.4714 158.786 64.2484C160.356 64.0255 161.823 62.5584 162.046 60.9882Z" fill="#E1251B"/>
<path d="M23.2352 144.016C23.4581 142.445 23.823 142.445 24.0459 144.016C24.2689 145.586 25.736 147.053 27.3062 147.276C28.8763 147.499 28.8763 147.864 27.3062 148.086C25.736 148.309 24.2689 149.777 24.0459 151.347C23.823 152.917 23.4581 152.917 23.2352 151.347C23.0122 149.777 21.5451 148.309 19.9749 148.086C18.4048 147.864 18.4048 147.499 19.9749 147.276C21.5451 147.053 23.0122 145.586 23.2352 144.016Z" fill="#E1251B"/>
<path d="M167.661 219.027C167.84 217.766 168.133 217.766 168.312 219.027C168.492 220.289 169.67 221.468 170.932 221.647C172.194 221.826 172.194 222.12 170.932 222.299C169.67 222.478 168.492 223.657 168.312 224.919C168.133 226.18 167.84 226.18 167.661 224.919C167.482 223.657 166.303 222.478 165.041 222.299C163.779 222.12 163.779 221.826 165.041 221.647C166.303 221.468 167.482 220.289 167.661 219.027Z" fill="#E1251B"/>
<path d="M235.792 91.6377C232.74 91.6377 230.257 89.1546 230.257 86.1024C230.257 83.0501 232.74 80.5674 235.792 80.5674C238.844 80.5674 241.327 83.0504 241.327 86.1024C241.327 89.1543 238.844 91.6377 235.792 91.6377ZM235.792 81.8959C233.473 81.8959 231.585 83.7831 231.585 86.1024C231.585 88.4216 233.473 90.3091 235.792 90.3091C238.112 90.3091 239.999 88.422 239.999 86.1024C239.999 83.7828 238.112 81.8959 235.792 81.8959Z" fill="#E1251B"/>
<path d="M20.7434 59.8107C18.9551 59.8107 17.5 58.3558 17.5 56.5674C17.5 54.7789 18.9551 53.3242 20.7434 53.3242C22.5316 53.3242 23.9865 54.7791 23.9865 56.5674C23.9865 58.3556 22.5316 59.8107 20.7434 59.8107ZM20.7434 54.1027C19.3842 54.1027 18.2784 55.2084 18.2784 56.5674C18.2784 57.9263 19.3842 59.0323 20.7434 59.0323C22.1025 59.0323 23.2081 57.9265 23.2081 56.5674C23.2081 55.2082 22.1023 54.1027 20.7434 54.1027Z" fill="#E1251B"/>
<path d="M222.99 18.5141C223.277 16.4953 223.746 16.4953 224.032 18.5141C224.319 20.5329 226.205 22.4192 228.224 22.7059C230.243 22.9925 230.243 23.4615 228.224 23.7482C226.205 24.0349 224.319 25.9211 224.032 27.94C223.746 29.9588 223.277 29.9588 222.99 27.94C222.703 25.9211 220.817 24.0349 218.798 23.7482C216.779 23.4615 216.779 22.9925 218.798 22.7059C220.817 22.4192 222.703 20.5329 222.99 18.5141Z" fill="#E1251B"/>
<path d="M229.476 235.163C229.763 233.144 230.232 233.144 230.519 235.163C230.805 237.181 232.692 239.068 234.71 239.354C236.729 239.641 236.729 240.11 234.71 240.397C232.692 240.683 230.805 242.57 230.519 244.588C230.232 246.607 229.763 246.607 229.476 244.588C229.19 242.57 227.303 240.683 225.285 240.397C223.266 240.11 223.266 239.641 225.285 239.354C227.303 239.068 229.19 237.181 229.476 235.163Z" fill="#E1251B"/>
<path d="M150.28 120.11L149.798 120.611L150.28 120.11C149.253 119.12 148.519 118.412 148.001 117.807C147.49 117.21 147.24 116.769 147.133 116.333C146.998 115.787 146.998 115.217 147.133 114.672C147.24 114.236 147.49 113.795 148.001 113.198C148.519 112.593 149.253 111.884 150.28 110.895L149.798 110.394L150.28 110.895L150.496 110.687C150.533 110.651 150.57 110.616 150.606 110.581C151.73 109.499 152.436 108.819 152.822 107.965C153.039 107.483 153.177 106.968 153.23 106.442C153.322 105.51 153.051 104.568 152.619 103.069C152.605 103.02 152.591 102.971 152.576 102.922L152.494 102.634C152.099 101.263 151.817 100.283 151.671 99.5C151.527 98.727 151.531 98.2205 151.656 97.7894C151.813 97.2497 152.098 96.7561 152.487 96.3507C152.798 96.0267 153.234 95.77 153.976 95.5083C154.727 95.2431 155.717 94.9968 157.101 94.6533L157.392 94.5812C157.442 94.5688 157.491 94.5565 157.54 94.5444C159.055 94.1691 160.006 93.9333 160.767 93.3869C161.197 93.0783 161.573 92.7017 161.882 92.2719C162.428 91.511 162.664 90.5594 163.04 89.045C163.052 88.9962 163.064 88.9467 163.076 88.8967L163.148 88.6061C163.492 87.2217 163.738 86.2317 164.003 85.4807C164.265 84.7393 164.522 84.3027 164.846 83.9919C165.251 83.6028 165.745 83.3178 166.284 83.1612C166.716 83.0361 167.222 83.0321 167.995 83.1761C168.778 83.322 169.759 83.6036 171.129 83.9984L171.417 84.0813C171.466 84.0955 171.515 84.1096 171.564 84.1236C173.063 84.5557 174.005 84.8273 174.937 84.7345C175.464 84.6822 175.978 84.5443 176.46 84.3264C177.314 83.9406 177.994 83.2345 179.076 82.1106C179.111 82.0744 179.146 82.0377 179.182 82.0006L179.39 81.785C180.38 80.7577 181.088 80.0236 181.693 79.5058C182.29 78.9946 182.731 78.7448 183.167 78.6376C183.713 78.5034 184.283 78.5034 184.828 78.6376C185.264 78.7448 185.705 78.9946 186.302 79.5058C186.907 80.0236 187.616 80.7577 188.605 81.785L188.813 82.0006L189.314 81.5181L188.813 82.0006C188.849 82.0377 188.884 82.0744 188.919 82.1106C190.001 83.2345 190.681 83.9406 191.535 84.3264C192.017 84.5443 192.532 84.6822 193.058 84.7345C193.99 84.8273 194.932 84.5557 196.431 84.1236C196.48 84.1096 196.529 84.0955 196.578 84.0813L196.866 83.9984C198.237 83.6036 199.217 83.322 200 83.1761C200.773 83.0321 201.279 83.0361 201.711 83.1612C202.25 83.3178 202.744 83.6028 203.149 83.9919C203.473 84.3027 203.73 84.7393 203.992 85.4807C204.257 86.2317 204.503 87.2217 204.847 88.6061L204.919 88.8967C204.931 88.9468 204.943 88.9962 204.956 89.0451C205.331 90.5595 205.567 91.511 206.113 92.2719C206.422 92.7017 206.798 93.0783 207.228 93.3869C207.989 93.9333 208.941 94.1691 210.455 94.5445C210.504 94.5566 210.553 94.5688 210.603 94.5812L210.894 94.6533C212.278 94.9968 213.268 95.2431 214.019 95.5083C214.761 95.77 215.197 96.0267 215.508 96.3507C215.897 96.7561 216.182 97.2497 216.339 97.7894C216.464 98.2205 216.468 98.727 216.324 99.5C216.178 100.283 215.896 101.263 215.502 102.634L215.419 102.922L215.376 103.069C214.944 104.568 214.673 105.51 214.765 106.442C214.818 106.968 214.956 107.483 215.174 107.965C215.559 108.819 216.265 109.499 217.389 110.581L217.499 110.687L217.715 110.895C218.742 111.884 219.476 112.593 219.994 113.198C220.505 113.795 220.755 114.236 220.862 114.672C220.997 115.217 220.997 115.787 220.862 116.333C220.755 116.769 220.505 117.21 219.994 117.807C219.476 118.412 218.742 119.12 217.715 120.11L217.499 120.318C217.462 120.354 217.426 120.389 217.389 120.424C216.266 121.506 215.559 122.186 215.174 123.04C214.956 123.522 214.818 124.036 214.765 124.563C214.673 125.495 214.944 126.437 215.376 127.936L215.419 128.083L215.502 128.371C215.896 129.741 216.178 130.722 216.324 131.505C216.468 132.278 216.464 132.784 216.339 133.216C216.182 133.755 215.897 134.249 215.508 134.654C215.197 134.978 214.761 135.235 214.019 135.497C213.268 135.762 212.278 136.008 210.894 136.352L210.603 136.424C210.553 136.436 210.504 136.448 210.455 136.46C208.941 136.836 207.989 137.072 207.228 137.618C206.798 137.927 206.422 138.303 206.113 138.733C205.567 139.494 205.331 140.445 204.956 141.96C204.943 142.009 204.931 142.058 204.919 142.108L204.847 142.399C204.503 143.783 204.257 144.773 203.992 145.524C203.73 146.266 203.473 146.702 203.149 147.013C202.744 147.402 202.25 147.687 201.711 147.844C201.279 147.969 200.773 147.973 200 147.829C199.217 147.683 198.237 147.401 196.866 147.006L196.578 146.924L196.431 146.881C194.932 146.449 193.99 146.178 193.058 146.27C192.532 146.323 192.017 146.461 191.535 146.678C190.681 147.064 190.001 147.77 188.919 148.894C188.884 148.93 188.849 148.967 188.813 149.004L188.605 149.22C187.616 150.247 186.907 150.981 186.302 151.499C185.705 152.01 185.264 152.26 184.828 152.367C184.283 152.502 183.713 152.502 183.167 152.367C182.731 152.26 182.29 152.01 181.693 151.499C181.088 150.981 180.38 150.247 179.39 149.22L179.182 149.004L179.076 148.894C177.994 147.77 177.314 147.064 176.46 146.678C175.978 146.461 175.464 146.323 174.937 146.27C174.005 146.178 173.063 146.449 171.564 146.881L171.417 146.924L171.129 147.006C169.759 147.401 168.778 147.683 167.995 147.829C167.222 147.973 166.716 147.969 166.284 147.844C165.745 147.687 165.251 147.402 164.846 147.013C164.522 146.702 164.265 146.266 164.003 145.524C163.738 144.773 163.492 143.783 163.148 142.399L163.076 142.108C163.064 142.058 163.052 142.009 163.04 141.96C162.664 140.445 162.428 139.494 161.882 138.733C161.573 138.303 161.197 137.927 160.767 137.618C160.006 137.072 159.055 136.836 157.54 136.46C157.491 136.448 157.442 136.436 157.392 136.424L157.101 136.352C155.717 136.008 154.727 135.762 153.976 135.497C153.234 135.235 152.798 134.978 152.487 134.654C152.098 134.249 151.813 133.755 151.656 133.216C151.531 132.784 151.527 132.278 151.671 131.505C151.817 130.722 152.099 129.741 152.494 128.371L152.576 128.083C152.591 128.034 152.605 127.985 152.619 127.936C153.051 126.437 153.322 125.495 153.23 124.563C153.177 124.036 153.039 123.522 152.822 123.04C152.436 122.186 151.73 121.506 150.606 120.424C150.57 120.389 150.533 120.354 150.496 120.318L150.28 120.11Z" fill="white" stroke="#E1251B" stroke-width="1.39093"/>
<path d="M185.411 84.8111L185.693 84.1755L185.411 84.8111C185.687 84.9336 185.977 85.1352 186.379 85.5009C186.786 85.8705 187.27 86.3719 187.946 87.0733L188.018 87.1487C188.759 87.9181 189.224 88.4005 189.77 88.7307C190.558 89.2073 191.466 89.4504 192.387 89.4319C193.025 89.419 193.668 89.2335 194.695 88.9377L194.795 88.9088C195.731 88.6392 196.401 88.4468 196.938 88.33C197.469 88.2145 197.821 88.1851 198.122 88.2169C199.1 88.3205 199.988 88.8335 200.567 89.6288C200.745 89.8729 200.895 90.1925 201.061 90.7106C201.228 91.234 201.397 91.9099 201.631 92.8553L201.656 92.9569C201.913 93.9938 202.074 94.6438 202.382 95.2029L202.992 94.8673L202.382 95.2029C202.827 96.0098 203.491 96.674 204.298 97.1185C204.857 97.4264 205.507 97.5875 206.544 97.8446L206.646 97.8698C207.591 98.1043 208.267 98.2724 208.79 98.4398C209.308 98.6055 209.628 98.7561 209.872 98.9337C210.667 99.5125 211.18 100.401 211.284 101.379C211.316 101.679 211.286 102.032 211.171 102.563C211.054 103.1 210.862 103.769 210.592 104.705L210.563 104.806C210.267 105.832 210.082 106.476 210.069 107.114C210.05 108.035 210.294 108.943 210.77 109.731C211.1 110.277 211.583 110.742 212.352 111.483L212.428 111.555C213.129 112.231 213.63 112.715 214 113.121C214.366 113.524 214.567 113.814 214.69 114.09C215.089 114.989 215.089 116.015 214.69 116.914C214.567 117.19 214.366 117.48 214 117.882C213.63 118.289 213.129 118.773 212.428 119.448L212.352 119.521C211.583 120.262 211.1 120.727 210.77 121.273C210.294 122.061 210.05 122.969 210.069 123.89C210.082 124.528 210.267 125.171 210.563 126.198L210.592 126.298C210.862 127.234 211.054 127.904 211.171 128.441C211.286 128.972 211.316 129.324 211.284 129.625C211.18 130.603 210.667 131.491 209.872 132.07C209.628 132.248 209.308 132.398 208.79 132.564C208.267 132.731 207.591 132.899 206.646 133.134L206.544 133.159C205.507 133.416 204.857 133.577 204.298 133.885C203.491 134.33 202.827 134.994 202.382 135.801C202.074 136.36 201.913 137.01 201.656 138.047L201.631 138.148C201.397 139.094 201.228 139.77 201.061 140.293C200.895 140.811 200.745 141.131 200.567 141.375C199.988 142.17 199.1 142.683 198.122 142.787C197.821 142.819 197.469 142.789 196.938 142.674C196.401 142.557 195.731 142.365 194.795 142.095L194.695 142.066C193.668 141.77 193.025 141.585 192.387 141.572C191.466 141.553 190.558 141.796 189.77 142.273C189.224 142.603 188.759 143.086 188.018 143.855L187.946 143.93C187.27 144.632 186.786 145.133 186.379 145.503C185.977 145.869 185.687 146.07 185.411 146.193C184.512 146.592 183.486 146.592 182.587 146.193C182.311 146.07 182.021 145.869 181.618 145.503C181.212 145.133 180.728 144.632 180.052 143.93L179.98 143.855C179.239 143.086 178.774 142.603 178.228 142.273C177.44 141.796 176.532 141.553 175.611 141.572C174.973 141.585 174.33 141.77 173.303 142.066L173.203 142.095C172.267 142.365 171.597 142.557 171.06 142.674C170.529 142.789 170.176 142.819 169.876 142.787C168.898 142.683 168.01 142.17 167.431 141.375C167.253 141.131 167.103 140.811 166.937 140.293C166.769 139.77 166.601 139.094 166.367 138.148L166.342 138.047C166.085 137.01 165.923 136.36 165.616 135.801C165.171 134.994 164.507 134.33 163.7 133.885L163.364 134.494L163.7 133.885C163.141 133.577 162.491 133.416 161.454 133.159L161.352 133.134C160.407 132.899 159.731 132.731 159.208 132.564C158.69 132.398 158.37 132.248 158.126 132.07C157.331 131.491 156.818 130.603 156.714 129.625C156.682 129.324 156.712 128.972 156.827 128.441C156.944 127.904 157.136 127.234 157.406 126.298L157.435 126.198C157.731 125.171 157.916 124.528 157.929 123.89C157.948 122.969 157.704 122.061 157.228 121.273C156.898 120.727 156.415 120.262 155.646 119.521L155.57 119.448C154.869 118.773 154.368 118.289 153.998 117.882C153.632 117.48 153.431 117.19 153.308 116.914L152.673 117.196L153.308 116.914C152.909 116.015 152.909 114.989 153.308 114.09C153.431 113.814 153.632 113.524 153.998 113.121C154.368 112.715 154.869 112.231 155.57 111.555C155.596 111.531 155.621 111.507 155.646 111.483C156.415 110.742 156.898 110.277 157.228 109.731C157.704 108.943 157.948 108.035 157.929 107.114C157.916 106.476 157.731 105.832 157.435 104.806C157.425 104.773 157.416 104.739 157.406 104.705C157.136 103.769 156.944 103.1 156.827 102.563C156.712 102.032 156.682 101.679 156.714 101.379C156.818 100.401 157.331 99.5125 158.126 98.9337C158.37 98.7561 158.69 98.6055 159.208 98.4398C159.731 98.2724 160.407 98.1043 161.352 97.8698C161.387 97.8613 161.42 97.8529 161.454 97.8446C162.491 97.5875 163.141 97.4264 163.7 97.1185C164.507 96.674 165.171 96.0098 165.616 95.2029C165.923 94.6438 166.085 93.9937 166.342 92.9569C166.35 92.9234 166.358 92.8896 166.367 92.8553C166.601 91.9099 166.769 91.234 166.937 90.7106C167.103 90.1925 167.253 89.8729 167.431 89.6288C168.01 88.8335 168.898 88.3205 169.876 88.2169C170.176 88.1851 170.529 88.2145 171.06 88.33C171.597 88.4468 172.267 88.6392 173.203 88.9088C173.236 88.9185 173.27 88.9282 173.303 88.9377C174.33 89.2335 174.973 89.419 175.611 89.4319C176.532 89.4504 177.44 89.2073 178.228 88.7307C178.774 88.4005 179.239 87.9181 179.98 87.1487C180.004 87.1239 180.028 87.0988 180.052 87.0733C180.728 86.3719 181.212 85.8705 181.618 85.5009C182.021 85.1352 182.311 84.9336 182.587 84.8111C183.486 84.4117 184.512 84.4117 185.411 84.8111Z" fill="#E1251B" stroke="white" stroke-width="1.39093"/>
<rect x="168" y="118.081" width="5.58224" height="16.2815" rx="2.79112" transform="rotate(-45 168 118.081)" fill="white"/>
<rect x="195.319" y="106" width="5.5821" height="27.9105" rx="2.79105" transform="rotate(45 195.319 106)" fill="white"/>
<path d="M70.4367 223.693C80.5003 224.805 89.5599 217.543 90.6719 207.474C91.784 197.404 84.5273 188.341 74.4637 187.229C64.4001 186.118 55.3405 193.38 54.2285 203.449C53.1165 213.518 60.3732 222.582 70.4367 223.693Z" fill="white"/>
<path d="M70.4159 223.89C70.1571 223.862 69.8987 223.828 69.6403 223.788C67.189 223.413 64.8664 222.557 62.7371 221.245C60.6079 219.933 58.7991 218.243 57.361 216.222C55.9721 214.269 54.9859 212.092 54.4296 209.75C53.8733 207.408 53.775 205.019 54.1376 202.65C54.5129 200.197 55.3683 197.873 56.6799 195.743C57.9915 193.612 59.6809 191.802 61.7013 190.363C63.6527 188.973 65.829 187.986 68.1698 187.429C70.5105 186.872 72.8982 186.774 75.2655 187.136C77.7169 187.512 80.0395 188.367 82.1687 189.679C84.298 190.991 86.1068 192.681 87.5448 194.703C88.9337 196.655 89.92 198.832 90.4763 201.174C91.0325 203.516 91.1308 205.905 90.7683 208.274C90.3929 210.727 89.5376 213.051 88.226 215.181L88.062 215.08L88.226 215.181C86.9144 217.312 85.2249 219.122 83.2045 220.561C81.2531 221.951 79.0768 222.938 76.7361 223.495C74.6508 223.991 72.5283 224.123 70.4159 223.89L70.4159 223.89ZM74.4584 187.414C72.4124 187.188 70.3209 187.314 68.2588 187.804C63.5447 188.926 59.549 191.817 57.0079 195.945C51.762 204.467 54.4227 215.669 62.9391 220.917C67.0647 223.459 71.9328 224.241 76.6469 223.12C81.361 221.998 85.3567 219.107 87.8979 214.979C90.4391 210.851 91.2216 205.98 90.1014 201.264C88.9811 196.547 86.0921 192.55 81.9666 190.007C79.6457 188.577 77.0897 187.704 74.4585 187.414L74.4584 187.414Z" fill="#E1251B"/>
<path d="M70.5256 221.749C68.1472 221.487 65.8377 220.698 63.7399 219.405C60.0114 217.108 57.4005 213.495 56.388 209.232C55.3755 204.97 56.0827 200.567 58.3794 196.837C60.6761 193.106 64.2872 190.493 68.5476 189.479C72.8081 188.466 77.2078 189.173 80.9363 191.47C84.6648 193.768 87.2758 197.381 88.2882 201.643C89.3007 205.906 88.5934 210.308 86.2967 214.039C84.0001 217.77 80.389 220.383 76.1285 221.396C74.2652 221.84 72.3744 221.954 70.5256 221.749ZM74.121 189.52C68.1571 188.862 62.0576 191.597 58.7075 197.039C56.4648 200.682 55.7742 204.981 56.7628 209.143C57.7515 213.306 60.3011 216.834 63.942 219.077C67.5829 221.32 71.8792 222.011 76.0395 221.021C80.1998 220.031 83.7261 217.48 85.9687 213.837C90.5983 206.316 88.2502 196.43 80.7342 191.799C78.6571 190.519 76.3987 189.772 74.121 189.52Z" fill="#E1251B"/>
<path d="M74.121 189.52C68.1571 188.862 62.0576 191.597 58.7075 197.039C56.4648 200.682 55.7742 204.981 56.7628 209.143C57.7515 213.306 60.3011 216.834 63.942 219.077C67.5829 221.32 71.8792 222.011 76.0395 221.021C80.1998 220.031 83.7261 217.48 85.9687 213.837C90.5983 206.316 88.2502 196.43 80.7342 191.799C78.6571 190.519 76.3987 189.772 74.121 189.52Z" fill="#E1251B"/>
<path d="M76.3766 200.154C77.3217 200.744 78.1182 201.448 78.7661 202.266L77.6843 204.023L76.8794 203.527C77.0368 202.943 77.0397 202.435 76.8882 202.001C76.7364 201.567 76.419 201.19 75.9359 200.87L73.5268 204.783C74.062 205.614 74.4308 206.29 74.6333 206.811C74.8356 207.333 74.9287 207.831 74.9123 208.308C74.8957 208.784 74.7406 209.261 74.4469 209.738C73.9026 210.622 73.236 211.152 72.4473 211.328C71.6585 211.504 70.7582 211.333 69.7468 210.814L68.8152 212.328L67.9696 211.807L68.8911 210.31C68.4152 210.001 67.9368 209.628 67.4555 209.189C66.9741 208.751 66.5834 208.338 66.2832 207.951L67.3851 206.161L68.1982 206.662C67.9844 207.301 67.9648 207.852 68.1396 208.315C68.3143 208.778 68.7067 209.212 69.3168 209.618L71.9112 205.403L71.768 205.181C71.2681 204.401 70.9269 203.778 70.744 203.31C70.5611 202.842 70.4759 202.391 70.4887 201.957C70.5013 201.524 70.6396 201.093 70.9034 200.664C71.1571 200.252 71.46 199.93 71.8122 199.698C72.1642 199.466 72.5435 199.314 72.9501 199.243C73.3565 199.172 73.7784 199.176 74.216 199.254C74.6535 199.333 75.0817 199.476 75.5008 199.681L76.4574 198.127L77.3031 198.649L76.3766 200.154L76.3766 200.154ZM72.5615 206.242L70.1775 210.115C70.715 210.371 71.2151 210.427 71.6783 210.282C72.1412 210.137 72.5348 209.802 72.8586 209.275C73.1457 208.809 73.263 208.339 73.2108 207.865C73.1584 207.392 72.9419 206.85 72.5615 206.242ZM72.8815 203.937L75.0752 200.373C74.5721 200.145 74.0876 200.092 73.621 200.212C73.1544 200.332 72.7859 200.612 72.5155 201.051C72.245 201.491 72.141 201.93 72.2036 202.369C72.2662 202.807 72.4922 203.33 72.8815 203.937L72.8815 203.937Z" fill="white"/>
<path d="M53.9017 78.0336C58.1637 81.9878 58.4149 88.6461 54.4634 92.9052C50.5119 97.1644 43.8535 97.4123 39.5914 93.4581C35.3293 89.5039 35.0782 82.8456 39.0297 78.5865C42.9812 74.3273 49.6396 74.0794 53.9017 78.0336Z" fill="white" stroke="#E1251B"/>
<path d="M38.8331 77.7555L38.8331 77.7555L54.5887 93.6643L54.6591 93.7354C54.6591 93.7354 54.6591 93.7354 54.6591 93.7354C54.7717 93.6238 54.8816 93.5101 54.989 93.3944L54.989 93.3944C55.8658 92.4494 56.568 91.3673 57.0795 90.1723L56.9875 90.1329L57.0795 90.1723C57.6536 88.8308 57.9588 87.4137 57.9865 85.9609C58.0145 84.4896 57.7553 83.0444 57.216 81.664L57.2164 81.6639L57.1793 81.5712C57.1792 81.5712 57.1792 81.5711 57.1792 81.571C57.1791 81.5709 57.1791 81.5709 57.1791 81.5708L57.142 81.4782L57.1416 81.4784C56.5786 80.1074 55.7682 78.8827 54.732 77.8373C53.7087 76.8049 52.5092 75.9899 51.1674 75.4151C49.8255 74.8402 48.4082 74.5342 46.9553 74.5057C45.4509 74.4762 43.9739 74.747 42.5657 75.3105C41.1575 75.8739 39.9015 76.6966 38.8331 77.7555ZM38.8051 78.4016L38.8218 78.3835C39.894 77.2279 41.2184 76.3146 42.7262 75.7113C45.4061 74.6391 48.3432 74.6748 50.9975 75.8119C53.6518 76.949 55.7046 79.0511 56.7785 81.7315C57.8523 84.4118 57.8182 87.3489 56.6826 90.0024C55.5469 92.6559 53.446 94.7074 50.7661 95.7796C45.2344 97.993 38.9304 95.2923 36.7138 89.7595C35.64 87.0791 35.6741 84.1421 36.8097 81.4886C37.3032 80.3354 37.979 79.2962 38.8051 78.4016Z" fill="#E1251B" stroke="#E1251B" stroke-width="0.2"/>
<path d="M37.9891 89.2755C36.5978 85.8027 37.4377 81.9799 39.8277 79.4038C40.74 78.4204 41.8785 77.6187 43.2051 77.0879C48.004 75.1678 53.4733 77.5108 55.3963 82.3108C56.3281 84.6365 56.2985 87.184 55.3132 89.4863C54.3278 91.7886 52.5056 93.568 50.1803 94.4984C47.8551 95.4288 45.3076 95.3978 43.0045 94.4111C40.7014 93.4245 38.9208 91.6012 37.9891 89.2755Z" stroke="#E1251B" stroke-width="0.5"/>
<path d="M44.4234 84.7687C44.5571 84.944 44.7233 85.0901 44.9242 85.1989C44.9719 85.2247 45.0215 85.2486 45.073 85.2706C44.9071 85.2111 44.7709 85.1354 44.6591 85.0473L44.6589 85.0471C44.572 84.9787 44.4924 84.8884 44.4234 84.7687ZM48.4289 85.8086C48.4074 85.7961 48.3855 85.7839 48.3633 85.7722C48.4885 85.829 48.5962 85.895 48.6885 85.9685C48.7909 86.0501 48.8844 86.1585 48.9653 86.3018C48.8237 86.1023 48.6457 85.9351 48.4291 85.8087L48.4289 85.8086Z" fill="#E1251B" stroke="#E1251B"/>
</svg>
