<svg width="33" height="32" viewBox="0 0 33 32" fill="none" xmlns="http://www.w3.org/2000/svg">
<path d="M8.50033 7.99984L11.167 5.33317M11.167 5.33317L8.50033 2.6665M11.167 5.33317H8.50033C5.55481 5.33317 3.16699 7.72098 3.16699 10.6665M24.5003 23.9998L21.8337 26.6665M21.8337 26.6665L24.5003 29.3332M21.8337 26.6665H24.5003C27.4458 26.6665 29.8337 24.2787 29.8337 21.3332M14.0857 8.6665C14.9738 5.21605 18.106 2.6665 21.8337 2.6665C26.2519 2.6665 29.8337 6.24823 29.8337 10.6665C29.8337 14.3942 27.2842 17.5263 23.8337 18.4144M19.167 21.3332C19.167 25.7515 15.5853 29.3332 11.167 29.3332C6.74871 29.3332 3.16699 25.7515 3.16699 21.3332C3.16699 16.9149 6.74871 13.3332 11.167 13.3332C15.5853 13.3332 19.167 16.9149 19.167 21.3332Z" stroke="currentColor" stroke-width="2" stroke-linecap="round" stroke-linejoin="round"/>
</svg>
