<svg width="25" height="24" viewBox="0 0 25 24" fill="none" xmlns="http://www.w3.org/2000/svg">
<g clip-path="url(#clip0_7937_32330)">
<path d="M19.98 12.35C18.41 8.27002 12.82 8.05002 14.17 2.12002C14.27 1.68002 13.8 1.34002 13.42 1.57002C9.79 3.71002 7.18 8.00002 9.37 13.62C9.55 14.08 9.01 14.51 8.62 14.21C6.81 12.84 6.62 10.87 6.78 9.46002C6.84 8.94002 6.16 8.69002 5.87 9.12002C5.19 10.16 4.5 11.84 4.5 14.37C4.88 19.97 9.61 21.69 11.31 21.91C13.74 22.22 16.37 21.77 18.26 20.04C20.34 18.11 21.1 15.03 19.98 12.35ZM10.7 17.38C12.14 17.03 12.88 15.99 13.08 15.07C13.41 13.64 12.12 12.24 12.99 9.98002C13.32 11.85 16.26 13.02 16.26 15.06C16.34 17.59 13.6 19.76 10.7 17.38Z" fill="#E1251B"/>
<path d="M19.98 12.35C18.41 8.27002 12.82 8.05002 14.17 2.12002C14.27 1.68002 13.8 1.34002 13.42 1.57002C9.79 3.71002 7.18 8.00002 9.37 13.62C9.55 14.08 9.01 14.51 8.62 14.21C6.81 12.84 6.62 10.87 6.78 9.46002C6.84 8.94002 6.16 8.69002 5.87 9.12002C5.19 10.16 4.5 11.84 4.5 14.37C4.88 19.97 9.61 21.69 11.31 21.91C13.74 22.22 16.37 21.77 18.26 20.04C20.34 18.11 21.1 15.03 19.98 12.35ZM10.7 17.38C12.14 17.03 12.88 15.99 13.08 15.07C13.41 13.64 12.12 12.24 12.99 9.98002C13.32 11.85 16.26 13.02 16.26 15.06C16.34 17.59 13.6 19.76 10.7 17.38Z" fill="#E1251B"/>
</g>
<defs>
<clipPath id="clip0_7937_32330">
<rect width="24" height="24" fill="white" transform="translate(0.5)"/>
</clipPath>
</defs>
</svg>
