<svg width="91" height="91" viewBox="0 0 91 91" fill="none" xmlns="http://www.w3.org/2000/svg">
<path d="M2 59.3853L20.5 77.8853V78.3853L38.5 78.8853L38 67.3853L31.5 60.8853L28.5 58.3853H26.5L25 58.8853H24L13.5 48.3853H11L9 49.3853V34.3853L8 32.8853L6.5 31.3853L3.5 31.8853L2 32.8853L1.5 34.8853V56.3853L2 59.3853Z" fill="white"/>
<path d="M89 59.3853L70.5 77.8853V78.3853L52.5 78.8853L53 67.3853L59.5 60.8853L62.5 58.3853H64.5L66 58.8853H67L77.5 48.3853H80L82 49.3853V34.3853L83 32.8853L84.5 31.3853L87.5 31.8853L89 32.8853L89.5 34.8853V56.3853L89 59.3853Z" fill="white"/>
<path d="M69.5809 79.205C69.4008 79.205 69.2206 79.1386 69.0783 78.9964C68.8033 78.7214 68.8033 78.2662 69.0783 77.9912L87.2471 59.8225C88.0626 59.007 88.5178 57.9165 88.5178 56.7596V35.0633C88.5178 33.3564 87.1239 31.9624 85.417 31.9624C83.7101 31.9624 82.3161 33.3564 82.3161 35.0633V49.9226C82.3161 50.3114 81.9937 50.6338 81.6049 50.6338C81.2161 50.6338 80.8937 50.3114 80.8937 49.9226V35.0633C80.8937 32.5693 82.923 30.54 85.417 30.54C87.9109 30.54 89.9402 32.5693 89.9402 35.0633V56.7596C89.9402 58.2958 89.3428 59.7371 88.2523 60.8277L70.0835 78.9964C69.9413 79.1386 69.7611 79.205 69.5809 79.205Z" fill="#E1251B"/>
<path d="M52.3137 78.863C51.9249 78.863 51.6025 78.5406 51.6025 78.1518V69.845C51.6025 68.3088 52.2 66.8675 53.2905 65.777L60.5068 58.5607C62.043 57.0245 64.4516 56.8633 66.1679 58.096L75.3756 48.8883C77.0919 47.172 79.8893 47.172 81.6057 48.8883C83.322 50.6047 83.322 53.4021 81.6057 55.128L72.9954 63.7382C72.7204 64.0132 72.2653 64.0132 71.9903 63.7382C71.7153 63.4632 71.7153 63.008 71.9903 62.733L80.6005 54.1228C81.7669 52.9564 81.7669 51.0599 80.6005 49.903C79.4342 48.7461 77.5471 48.7366 76.3807 49.903L66.7084 59.5753C66.4334 59.8503 65.9782 59.8503 65.7032 59.5753C64.5464 58.4184 62.6688 58.4184 61.5119 59.5753L54.2956 66.7916C53.4801 67.6071 53.0249 68.6976 53.0249 69.8545V78.1613C53.0249 78.5501 52.7025 78.8725 52.3137 78.8725V78.863Z" fill="#E1251B"/>
<path d="M49.3057 78.5785V87.5396H72.7752V78.5785H49.3057Z" fill="#E1251B"/>
<path d="M72.7853 88.2512H49.3157C48.9269 88.2512 48.6045 87.9288 48.6045 87.54V78.5789C48.6045 78.1901 48.9269 77.8677 49.3157 77.8677H72.7853C73.1741 77.8677 73.4965 78.1901 73.4965 78.5789V87.54C73.4965 87.9288 73.1741 88.2512 72.7853 88.2512ZM50.0269 86.8288H72.0741V79.2901H50.0269V86.8288Z" fill="#E1251B"/>
<path d="M66.8226 82.316H51.8684C51.4796 82.316 51.1572 81.9935 51.1572 81.6048C51.1572 81.216 51.4796 80.8936 51.8684 80.8936H66.8226C67.2114 80.8936 67.5338 81.216 67.5338 81.6048C67.5338 81.9935 67.2114 82.316 66.8226 82.316Z" fill="#F2F2F2"/>
<path d="M21.5643 79.205C21.3841 79.205 21.204 79.1386 21.0618 78.9964L2.89296 60.8277C1.80246 59.7371 1.20508 58.2958 1.20508 56.7596V35.0633C1.20508 32.5693 3.23433 30.54 5.72827 30.54C8.22221 30.54 10.2515 32.5693 10.2515 35.0633V49.9226C10.2515 50.3114 9.9291 50.6338 9.54031 50.6338C9.15153 50.6338 8.82912 50.3114 8.82912 49.9226V35.0633C8.82912 33.3564 7.43515 31.9624 5.72827 31.9624C4.02139 31.9624 2.62748 33.3564 2.62748 35.0633V56.7596C2.62748 57.9165 3.08261 59.007 3.89812 59.8225L22.0669 77.9912C22.3419 78.2662 22.3419 78.7214 22.0669 78.9964C21.9247 79.1386 21.7445 79.205 21.5643 79.205Z" fill="#E1251B"/>
<path d="M38.8326 78.863C38.4438 78.863 38.1214 78.5406 38.1214 78.1518V69.845C38.1214 68.6881 37.6756 67.5977 36.8507 66.7821L29.6344 59.5658C28.4775 58.4089 26.5999 58.4089 25.443 59.5658C25.168 59.8408 24.7129 59.8408 24.4379 59.5658L14.7656 49.8935C13.5992 48.7272 11.7026 48.7272 10.5458 49.8935C9.98629 50.453 9.67338 51.2116 9.67338 52.0081C9.67338 52.8047 9.98629 53.5538 10.5458 54.1228L19.156 62.733C19.431 63.008 19.431 63.4632 19.156 63.7382C18.881 64.0132 18.4259 64.0132 18.1509 63.7382L9.5406 55.128C8.70613 54.2935 8.25098 53.184 8.25098 52.0081C8.25098 50.8323 8.70613 49.7228 9.5406 48.8883C11.257 47.172 14.0544 47.172 15.7707 48.8883L24.9784 58.096C26.6948 56.8633 29.1033 57.015 30.6395 58.5607L37.8558 65.777C38.9463 66.858 39.5438 68.3088 39.5438 69.845V78.1518C39.5438 78.5406 39.2213 78.863 38.8326 78.863Z" fill="#E1251B"/>
<path d="M18.3486 78.5784V87.5396H41.8182V78.5784H18.3486Z" fill="#E1251B"/>
<path d="M41.8282 88.2512H18.3587C17.9699 88.2512 17.6475 87.9288 17.6475 87.54V78.5789C17.6475 78.1901 17.9699 77.8677 18.3587 77.8677H41.8282C42.217 77.8677 42.5394 78.1901 42.5394 78.5789V87.54C42.5394 87.9288 42.217 88.2512 41.8282 88.2512ZM19.0699 86.8288H41.117V79.2901H19.0699V86.8288Z" fill="#E1251B"/>
<path d="M39.2679 82.316H24.3137C23.9249 82.316 23.6025 81.9935 23.6025 81.6048C23.6025 81.216 23.9249 80.8936 24.3137 80.8936H39.2679C39.6567 80.8936 39.9791 81.216 39.9791 81.6048C39.9791 81.9935 39.6567 82.316 39.2679 82.316Z" fill="#F2F2F2"/>
<circle cx="45.5" cy="32.3853" r="23" fill="#E1251B"/>
<path d="M45.5728 55.6788C32.4299 55.6788 21.7334 44.9824 21.7334 31.8394C21.7334 18.6965 32.4299 8 45.5728 8C58.7158 8 69.4122 18.6965 69.4122 31.8394C69.4122 44.9824 58.7158 55.6788 45.5728 55.6788ZM45.5728 9.4224C33.2169 9.4224 23.1558 19.474 23.1558 31.8394C23.1558 44.2048 33.2074 54.2564 45.5728 54.2564C57.9382 54.2564 67.9898 44.2048 67.9898 31.8394C67.9898 19.474 57.9382 9.4224 45.5728 9.4224Z" fill="#E1251B"/>
<path d="M26.6257 35.6417C26.2844 35.6417 25.9809 35.3952 25.924 35.0443C25.7533 33.9917 25.668 32.9107 25.668 31.8392C25.668 26.5289 27.7352 21.522 31.4998 17.7669C35.255 14.0118 40.2523 11.9351 45.5721 11.9351C45.9609 11.9351 46.2833 12.2575 46.2833 12.6463C46.2833 13.035 45.9609 13.3575 45.5721 13.3575C40.6411 13.3575 35.9946 15.2824 32.505 18.772C29.0154 22.2617 27.0904 26.8987 27.0904 31.8392C27.0904 32.8348 27.1662 33.84 27.3274 34.8167C27.3938 35.2055 27.1283 35.5658 26.7395 35.6322C26.7016 35.6322 26.6637 35.6322 26.6257 35.6322V35.6417Z" fill="white"/>
<path d="M32.0036 46.1208C31.8235 46.1208 31.6433 46.0544 31.5011 45.9122C30.2019 44.613 29.0924 43.1432 28.1916 41.5406C28.0019 41.1993 28.1252 40.7631 28.4666 40.5734C28.808 40.3838 29.2441 40.507 29.4338 40.8484C30.2588 42.3372 31.2925 43.6932 32.5062 44.907C32.7812 45.182 32.7812 45.6372 32.5062 45.9122C32.364 46.0544 32.1838 46.1208 32.0036 46.1208Z" fill="white"/>
<path d="M44.6345 45.637V42.8586C43.525 42.7448 42.5483 42.4318 41.6854 41.9387C40.8225 41.4362 40.1492 40.7344 39.6751 39.8241C39.201 38.9138 38.9733 37.7853 38.9923 36.4483L39.0208 36.3724H41.7897C41.7897 37.3586 41.9604 38.1646 42.3017 38.7715C42.6431 39.3784 43.1173 39.8241 43.7052 40.0991C44.2931 40.3741 44.9569 40.5163 45.6871 40.5163C46.5215 40.5163 47.2327 40.3836 47.8207 40.1086C48.4086 39.8336 48.8637 39.4448 49.1767 38.9422C49.4896 38.4396 49.6508 37.8328 49.6508 37.1405C49.6508 36.5621 49.5181 36.0405 49.2525 35.5664C48.987 35.1017 48.5603 34.675 47.9724 34.3052C47.3845 33.9259 46.6164 33.575 45.6681 33.2621C44.369 32.8638 43.2785 32.3802 42.3966 31.8207C41.5147 31.2613 40.8509 30.5785 40.4052 29.7725C39.9595 28.976 39.732 28.0277 39.732 26.9277C39.732 25.3251 40.1966 24.026 41.1164 23.0114C42.0362 22.0062 43.3069 21.3993 44.9095 21.1907V17.9761H47.2043V21.2097C48.8259 21.4467 50.0775 22.1389 50.9784 23.2958C51.8793 24.4527 52.3249 26.0079 52.3249 27.9613H49.4706C49.4706 26.6432 49.1672 25.5717 48.5603 24.7562C47.9534 23.9407 47.1095 23.5329 46.019 23.5329C44.8716 23.5329 44.0181 23.8269 43.4492 24.4243C42.8802 25.0217 42.5863 25.8372 42.5863 26.8708C42.5863 27.4872 42.7095 28.0277 42.9655 28.4923C43.2216 28.957 43.6388 29.3647 44.2268 29.7346C44.8147 30.1044 45.6302 30.4647 46.6543 30.8061C47.9724 31.2328 49.0629 31.7259 49.9258 32.2854C50.7888 32.8449 51.4336 33.5087 51.8603 34.2862C52.287 35.0638 52.4956 35.9931 52.4956 37.0931C52.4956 38.7621 51.9931 40.0896 50.9974 41.0758C50.0017 42.062 48.6267 42.65 46.8819 42.8396V45.618H44.6155L44.6345 45.637Z" fill="white"/>
<path d="M68.729 1.45882C68.8159 0.847059 68.958 0.847059 69.0449 1.45882C69.1318 2.07059 69.7034 2.64218 70.3151 2.72905C70.9269 2.81592 70.9269 2.95804 70.3151 3.04491C69.7034 3.13178 69.1318 3.70337 69.0449 4.31514C68.958 4.9269 68.8159 4.9269 68.729 4.31514C68.6422 3.70337 68.0706 3.13178 67.4588 3.04491C66.8471 2.95804 66.8471 2.81592 67.4588 2.72905C68.0706 2.64218 68.6422 2.07059 68.729 1.45882Z" fill="#E1251B"/>
<path d="M3.72905 17.4588C3.81591 16.8471 3.95805 16.8471 4.04491 17.4588C4.13178 18.0706 4.70337 18.6422 5.31514 18.7291C5.9269 18.8159 5.9269 18.958 5.31514 19.0449C4.70337 19.1318 4.13178 19.7034 4.04491 20.3151C3.95805 20.9269 3.81591 20.9269 3.72905 20.3151C3.64218 19.7034 3.07059 19.1318 2.45882 19.0449C1.84706 18.958 1.84706 18.8159 2.45882 18.7291C3.07059 18.6422 3.64218 18.0706 3.72905 17.4588Z" fill="#E1251B"/>
<path d="M18.3448 36.3569C18.4124 35.881 18.5229 35.881 18.5905 36.3569C18.6581 36.8327 19.1026 37.2773 19.5784 37.3448C20.0543 37.4124 20.0543 37.5229 19.5784 37.5905C19.1026 37.658 18.6581 38.1026 18.5905 38.5784C18.5229 39.0543 18.4124 39.0543 18.3448 38.5784C18.2773 38.1026 17.8327 37.658 17.3569 37.5905C16.881 37.5229 16.881 37.4124 17.3569 37.3448C17.8327 37.2773 18.2773 36.8327 18.3448 36.3569Z" fill="#E1251B"/>
<path d="M74.3448 37.3569C74.4124 36.881 74.5229 36.881 74.5905 37.3569C74.6581 37.8327 75.1026 38.2773 75.5784 38.3448C76.0543 38.4124 76.0543 38.5229 75.5784 38.5905C75.1026 38.658 74.6581 39.1026 74.5905 39.5784C74.5229 40.0543 74.4124 40.0543 74.3448 39.5784C74.2773 39.1026 73.8327 38.658 73.3569 38.5905C72.881 38.5229 72.881 38.4124 73.3569 38.3448C73.8327 38.2773 74.2773 37.8327 74.3448 37.3569Z" fill="#E1251B"/>
<path d="M17.9828 20.9656C17.4409 20.9656 17 20.5247 17 19.9828C17 19.4408 17.4409 19 17.9828 19C18.5247 19 18.9656 19.4409 18.9656 19.9828C18.9656 20.5247 18.5247 20.9656 17.9828 20.9656ZM17.9828 19.2359C17.571 19.2359 17.2359 19.571 17.2359 19.9828C17.2359 20.3946 17.571 20.7297 17.9828 20.7297C18.3947 20.7297 18.7297 20.3946 18.7297 19.9828C18.7297 19.5709 18.3946 19.2359 17.9828 19.2359Z" fill="#E1251B"/>
<path d="M14.9398 4.43417C16.2313 5.63241 16.3074 7.65007 15.11 8.94072C13.9126 10.2314 11.8949 10.3065 10.6033 9.10826C9.3118 7.91002 9.23571 5.89236 10.4331 4.60171C11.6305 3.31105 13.6482 3.23593 14.9398 4.43417Z" fill="white" stroke="#E1251B" stroke-width="0.30303"/>
<path d="M10.3737 4.35008L10.3737 4.35008C10.0611 4.65999 9.81423 5.02329 9.64025 5.4298C9.46626 5.83632 9.37378 6.26573 9.3654 6.70599C9.35672 7.16184 9.43904 7.60945 9.61003 8.03625C9.78101 8.46305 10.0305 8.84376 10.3516 9.16768C10.6617 9.48052 11.0252 9.72749 11.4318 9.90169C11.8384 10.0759 12.2679 10.1686 12.7082 10.1773C13.1641 10.1862 13.6116 10.1041 14.0384 9.93337C14.4651 9.76264 14.8457 9.51335 15.1694 9.19247C15.2035 9.15865 15.2369 9.12421 15.2694 9.08914L15.2694 9.08914C15.5351 8.80276 15.7479 8.47487 15.9029 8.11274C16.0768 7.70622 16.1693 7.27681 16.1777 6.83655C16.1862 6.39072 16.1077 5.95278 15.9442 5.53448L15.9444 5.53443L15.9332 5.50648C15.9331 5.50641 15.9331 5.50635 15.9331 5.50629C15.9329 5.50575 15.9326 5.50521 15.9324 5.50466L15.9218 5.47817L15.9217 5.47822C15.7511 5.06279 15.5055 4.69166 15.1915 4.37486C14.8814 4.06202 14.518 3.81506 14.1113 3.64085C13.7047 3.46665 13.2752 3.37392 12.8349 3.36529C12.3791 3.35635 11.9315 3.43843 11.5048 3.60917C11.078 3.7799 10.6974 4.02919 10.3737 4.35008ZM10.3652 4.54585L10.3703 4.54039C10.6952 4.19019 11.0965 3.91345 11.5534 3.73063C12.3655 3.40571 13.2555 3.41653 14.0599 3.76111C14.8642 4.10569 15.4862 4.74267 15.8117 5.55491C16.1371 6.36715 16.1267 7.25715 15.7826 8.06125C15.4385 8.86535 14.8018 9.48701 13.9897 9.81194C12.3135 10.4826 10.4032 9.66427 9.73147 7.98766C9.40606 7.17542 9.41638 6.28542 9.76052 5.48132C9.91007 5.13187 10.1148 4.81695 10.3652 4.54585Z" fill="#FF470D" stroke="#E1251B" stroke-width="0.0606061"/>
<path d="M10.1177 7.84055C9.69606 6.78819 9.95059 5.62976 10.6748 4.84912C10.9513 4.55114 11.2963 4.30819 11.6983 4.14735C13.1525 3.5655 14.8099 4.27551 15.3926 5.73005C15.6749 6.43481 15.666 7.20676 15.3674 7.90444C15.0688 8.6021 14.5166 9.14131 13.812 9.42325C13.1074 9.70518 12.3354 9.6958 11.6375 9.39681C10.9396 9.09782 10.4 8.54532 10.1177 7.84055Z" stroke="#E1251B" stroke-width="0.151515"/>
<mask id="path-26-inside-1_10627_46985" fill="white">
<path d="M12.4197 5.62138C12.6086 5.54707 12.798 5.50689 12.988 5.50084L13.1278 5.84979L12.9679 5.91377C12.8996 5.82742 12.8254 5.7718 12.7455 5.74689C12.6656 5.72203 12.5759 5.72758 12.4767 5.76354L12.788 6.54061C12.9677 6.55246 13.1066 6.57184 13.2049 6.59875C13.3031 6.62571 13.3862 6.66619 13.4541 6.72024C13.5219 6.77433 13.5749 6.84875 13.6129 6.94351C13.6832 7.11908 13.6884 7.27411 13.6286 7.40863C13.5688 7.54316 13.4461 7.65632 13.2605 7.74807L13.3809 8.04856L13.2129 8.11578L13.0938 7.81852C12.9971 7.85473 12.8905 7.88423 12.7741 7.90707C12.6577 7.92992 12.5549 7.9423 12.4657 7.94424L12.3233 7.58882L12.4848 7.52419C12.5551 7.62478 12.6336 7.68742 12.7204 7.71207C12.8071 7.73673 12.9132 7.72647 13.0388 7.6812L12.7035 6.84435L12.6554 6.84112C12.4871 6.82972 12.3588 6.81201 12.2705 6.78798C12.1822 6.76398 12.1069 6.72754 12.0449 6.67862C11.9828 6.62974 11.9347 6.56275 11.9007 6.47766C11.8679 6.39581 11.8536 6.31654 11.8579 6.23984C11.8621 6.16316 11.8811 6.09122 11.9148 6.024C11.9484 5.95681 11.9947 5.89547 12.0537 5.83999C12.1127 5.78452 12.18 5.7373 12.2556 5.6983L12.132 5.38974L12.3 5.32251L12.4197 5.62138ZM12.8967 6.84014L13.2048 7.60914C13.3007 7.55831 13.3631 7.49117 13.3921 7.40766C13.4211 7.32421 13.4148 7.23023 13.3729 7.12575C13.3358 7.03314 13.2797 6.96498 13.2047 6.92122C13.1297 6.87751 13.0271 6.85049 12.8967 6.84014ZM12.5941 6.54321L12.3106 5.83561C12.2228 5.88454 12.1623 5.94962 12.1293 6.03093C12.0963 6.11227 12.0973 6.19654 12.1322 6.28378C12.1672 6.37101 12.2201 6.43388 12.2911 6.47231C12.3621 6.51076 12.4632 6.5344 12.5941 6.54321Z"/>
</mask>
<path d="M12.4197 5.62138C12.6086 5.54707 12.798 5.50689 12.988 5.50084L13.1278 5.84979L12.9679 5.91377C12.8996 5.82742 12.8254 5.7718 12.7455 5.74689C12.6656 5.72203 12.5759 5.72758 12.4767 5.76354L12.788 6.54061C12.9677 6.55246 13.1066 6.57184 13.2049 6.59875C13.3031 6.62571 13.3862 6.66619 13.4541 6.72024C13.5219 6.77433 13.5749 6.84875 13.6129 6.94351C13.6832 7.11908 13.6884 7.27411 13.6286 7.40863C13.5688 7.54316 13.4461 7.65632 13.2605 7.74807L13.3809 8.04856L13.2129 8.11578L13.0938 7.81852C12.9971 7.85473 12.8905 7.88423 12.7741 7.90707C12.6577 7.92992 12.5549 7.9423 12.4657 7.94424L12.3233 7.58882L12.4848 7.52419C12.5551 7.62478 12.6336 7.68742 12.7204 7.71207C12.8071 7.73673 12.9132 7.72647 13.0388 7.6812L12.7035 6.84435L12.6554 6.84112C12.4871 6.82972 12.3588 6.81201 12.2705 6.78798C12.1822 6.76398 12.1069 6.72754 12.0449 6.67862C11.9828 6.62974 11.9347 6.56275 11.9007 6.47766C11.8679 6.39581 11.8536 6.31654 11.8579 6.23984C11.8621 6.16316 11.8811 6.09122 11.9148 6.024C11.9484 5.95681 11.9947 5.89547 12.0537 5.83999C12.1127 5.78452 12.18 5.7373 12.2556 5.6983L12.132 5.38974L12.3 5.32251L12.4197 5.62138ZM12.8967 6.84014L13.2048 7.60914C13.3007 7.55831 13.3631 7.49117 13.3921 7.40766C13.4211 7.32421 13.4148 7.23023 13.3729 7.12575C13.3358 7.03314 13.2797 6.96498 13.2047 6.92122C13.1297 6.87751 13.0271 6.85049 12.8967 6.84014ZM12.5941 6.54321L12.3106 5.83561C12.2228 5.88454 12.1623 5.94962 12.1293 6.03093C12.0963 6.11227 12.0973 6.19654 12.1322 6.28378C12.1672 6.37101 12.2201 6.43388 12.2911 6.47231C12.3621 6.51076 12.4632 6.5344 12.5941 6.54321Z" fill="#FF8600"/>
<path d="M12.4197 5.62138L12.1384 5.73407L12.2504 6.01363L12.5307 5.90337L12.4197 5.62138ZM12.988 5.50084L13.2693 5.38814L13.1904 5.1912L12.9784 5.19796L12.988 5.50084ZM13.1278 5.84979L13.2404 6.13113L13.5219 6.0185L13.4091 5.73709L13.1278 5.84979ZM12.9679 5.91377L12.7303 6.10181L12.8706 6.27911L13.0805 6.19511L12.9679 5.91377ZM12.7455 5.74689L12.8356 5.45758L12.8355 5.45754L12.7455 5.74689ZM12.4767 5.76354L12.3735 5.47863L12.0789 5.58537L12.1954 5.87624L12.4767 5.76354ZM12.788 6.54061L12.5067 6.65331L12.5777 6.83043L12.7681 6.84299L12.788 6.54061ZM13.2049 6.59875L13.285 6.30652L13.2849 6.30649L13.2049 6.59875ZM13.4541 6.72024L13.6429 6.48326L13.6428 6.48316L13.4541 6.72024ZM13.6129 6.94351L13.8942 6.83082L13.8942 6.83081L13.6129 6.94351ZM13.6286 7.40863L13.9055 7.53174L13.9056 7.53171L13.6286 7.40863ZM13.2605 7.74807L13.1262 7.47642L12.875 7.60061L12.9792 7.86077L13.2605 7.74807ZM13.3809 8.04856L13.4935 8.3299L13.7749 8.21727L13.6622 7.93587L13.3809 8.04856ZM13.2129 8.11578L12.9316 8.22848L13.0443 8.50966L13.3255 8.39712L13.2129 8.11578ZM13.0938 7.81852L13.3751 7.70582L13.2649 7.43087L12.9875 7.53473L13.0938 7.81852ZM12.7741 7.90707L12.7158 7.60971L12.7158 7.60971L12.7741 7.90707ZM12.4657 7.94424L12.1844 8.05694L12.2625 8.25177L12.4723 8.2472L12.4657 7.94424ZM12.3233 7.58882L12.2107 7.30747L11.9293 7.42009L12.042 7.70152L12.3233 7.58882ZM12.4848 7.52419L12.7332 7.35062L12.5955 7.15353L12.3723 7.24285L12.4848 7.52419ZM12.7204 7.71207L12.8033 7.4206L12.8032 7.42059L12.7204 7.71207ZM13.0388 7.6812L13.1416 7.96626L13.4368 7.85982L13.3201 7.5685L13.0388 7.6812ZM12.7035 6.84435L12.9848 6.73165L12.9139 6.55474L12.7238 6.54199L12.7035 6.84435ZM12.6554 6.84112L12.6349 7.14346L12.6351 7.14347L12.6554 6.84112ZM12.2705 6.78798L12.35 6.49558L12.35 6.49555L12.2705 6.78798ZM12.0449 6.67862L12.2325 6.44064L12.2323 6.44051L12.0449 6.67862ZM11.9007 6.47766L12.1819 6.36496L12.1819 6.36496L11.9007 6.47766ZM11.8579 6.23984L12.1604 6.25671L12.1604 6.25657L11.8579 6.23984ZM11.9148 6.024L12.1857 6.15977L12.1857 6.15972L11.9148 6.024ZM12.0537 5.83999L11.8462 5.61922L11.8462 5.61922L12.0537 5.83999ZM12.2556 5.6983L12.3946 5.9676L12.6394 5.8413L12.5369 5.58561L12.2556 5.6983ZM12.132 5.38974L12.0194 5.10839L11.738 5.22102L11.8507 5.50243L12.132 5.38974ZM12.3 5.32251L12.5813 5.20982L12.4686 4.92864L12.1874 5.04117L12.3 5.32251ZM12.8967 6.84014L12.9207 6.53806L12.4338 6.49938L12.6154 6.95284L12.8967 6.84014ZM13.2048 7.60914L12.9235 7.72183L13.0489 8.03482L13.3468 7.87685L13.2048 7.60914ZM13.3921 7.40766L13.1059 7.30811L13.1059 7.30815L13.3921 7.40766ZM13.3729 7.12575L13.0916 7.23845L13.0916 7.23848L13.3729 7.12575ZM13.2047 6.92122L13.3575 6.65949L13.3573 6.65942L13.2047 6.92122ZM12.5941 6.54321L12.5738 6.84556L13.0547 6.87791L12.8754 6.43051L12.5941 6.54321ZM12.3106 5.83561L12.5919 5.72291L12.4639 5.40341L12.1632 5.57086L12.3106 5.83561ZM12.1293 6.03093L11.8486 5.9169L11.8485 5.91696L12.1293 6.03093ZM12.2911 6.47231L12.4355 6.20586L12.4354 6.2058L12.2911 6.47231ZM12.5307 5.90337C12.6894 5.84091 12.8447 5.80859 12.9977 5.80371L12.9784 5.19796C12.7514 5.20519 12.5278 5.25323 12.3088 5.33939L12.5307 5.90337ZM12.7067 5.61353L12.8465 5.96248L13.4091 5.73709L13.2693 5.38814L12.7067 5.61353ZM13.0152 5.56844L12.8553 5.63243L13.0805 6.19511L13.2404 6.13113L13.0152 5.56844ZM13.2055 5.72573C13.1111 5.60642 12.9896 5.50555 12.8356 5.45758L12.6554 6.03621C12.6613 6.03805 12.688 6.04843 12.7303 6.10181L13.2055 5.72573ZM12.8355 5.45754C12.6775 5.4084 12.5185 5.4261 12.3735 5.47863L12.5799 6.04845C12.6334 6.02906 12.6536 6.03566 12.6555 6.03625L12.8355 5.45754ZM12.1954 5.87624L12.5067 6.65331L13.0693 6.42792L12.758 5.65085L12.1954 5.87624ZM12.7681 6.84299C12.9403 6.85435 13.0557 6.87208 13.1248 6.89102L13.2849 6.30649C13.1576 6.27161 12.995 6.25058 12.8079 6.23824L12.7681 6.84299ZM13.1247 6.89098C13.1902 6.90896 13.2346 6.93288 13.2653 6.95732L13.6428 6.48316C13.5377 6.39949 13.416 6.34245 13.285 6.30652L13.1247 6.89098ZM13.2652 6.95722C13.2854 6.97328 13.3097 7.00162 13.3316 7.05621L13.8942 6.83081C13.8401 6.69587 13.7585 6.57537 13.6429 6.48326L13.2652 6.95722ZM13.3316 7.05619C13.3806 7.17851 13.3695 7.24554 13.3517 7.28555L13.9056 7.53171C14.0074 7.30269 13.9858 7.05965 13.8942 6.83082L13.3316 7.05619ZM13.3518 7.28552C13.3304 7.33352 13.2738 7.40345 13.1262 7.47642L13.3948 8.01972C13.6184 7.90919 13.8073 7.7528 13.9055 7.53174L13.3518 7.28552ZM12.9792 7.86077L13.0996 8.16126L13.6622 7.93587L13.5418 7.63538L12.9792 7.86077ZM13.2683 7.76722L13.1003 7.83444L13.3255 8.39712L13.4935 8.3299L13.2683 7.76722ZM13.4942 8.00308L13.3751 7.70582L12.8125 7.93122L12.9316 8.22848L13.4942 8.00308ZM12.9875 7.53473C12.9085 7.56431 12.8183 7.5896 12.7158 7.60971L12.8325 8.20443C12.9628 8.17886 13.0856 8.14515 13.2001 8.10231L12.9875 7.53473ZM12.7158 7.60971C12.6112 7.63023 12.5264 7.63982 12.4591 7.64128L12.4723 8.2472C12.5835 8.24478 12.7042 8.22962 12.8325 8.20443L12.7158 7.60971ZM12.747 7.83155L12.6046 7.47612L12.042 7.70152L12.1844 8.05694L12.747 7.83155ZM12.4359 7.87017L12.5974 7.80554L12.3723 7.24285L12.2107 7.30747L12.4359 7.87017ZM12.2365 7.69777C12.3323 7.83494 12.4629 7.95393 12.6375 8.00355L12.8032 7.42059C12.8027 7.42044 12.7969 7.41885 12.7854 7.40972C12.7733 7.40005 12.7553 7.38215 12.7332 7.35062L12.2365 7.69777ZM12.6375 8.00354C12.8081 8.05208 12.9835 8.02325 13.1416 7.96626L12.936 7.39613C12.8429 7.42968 12.806 7.42139 12.8033 7.4206L12.6375 8.00354ZM13.3201 7.5685L12.9848 6.73165L12.4222 6.95704L12.7575 7.79389L13.3201 7.5685ZM12.7238 6.54199L12.6756 6.53877L12.6351 7.14347L12.6833 7.1467L12.7238 6.54199ZM12.6758 6.53878C12.5139 6.52781 12.4092 6.51168 12.35 6.49558L12.191 7.08039C12.3084 7.11233 12.4603 7.13163 12.6349 7.14346L12.6758 6.53878ZM12.35 6.49555C12.2947 6.48055 12.2578 6.46061 12.2325 6.44064L11.8573 6.91659C11.9561 6.99447 12.0696 7.04741 12.191 7.08041L12.35 6.49555ZM12.2323 6.44051C12.2183 6.42947 12.1995 6.40879 12.1819 6.36496L11.6194 6.59036C11.67 6.7167 11.7473 6.83002 11.8574 6.91672L12.2323 6.44051ZM12.1819 6.36496C12.1632 6.3181 12.1589 6.28303 12.1604 6.25671L11.5553 6.22297C11.5482 6.35004 11.5726 6.47353 11.6194 6.59036L12.1819 6.36496ZM12.1604 6.25657C12.1624 6.22045 12.171 6.18913 12.1857 6.15977L11.6438 5.88823C11.5912 5.99332 11.5618 6.10587 11.5553 6.22311L12.1604 6.25657ZM12.1857 6.15972C12.2022 6.12675 12.2263 6.09372 12.2613 6.06076L11.8462 5.61922C11.7632 5.69722 11.6946 5.78686 11.6438 5.88827L12.1857 6.15972ZM12.2613 6.06076C12.2988 6.02555 12.3427 5.99436 12.3946 5.9676L12.1167 5.429C12.0174 5.48025 11.9267 5.5435 11.8462 5.61922L12.2613 6.06076ZM12.5369 5.58561L12.4133 5.27704L11.8507 5.50243L11.9743 5.811L12.5369 5.58561ZM12.2446 5.67108L12.4126 5.60386L12.1874 5.04117L12.0194 5.10839L12.2446 5.67108ZM12.0187 5.43521L12.1384 5.73407L12.701 5.50869L12.5813 5.20982L12.0187 5.43521ZM12.6154 6.95284L12.9235 7.72183L13.4861 7.49644L13.178 6.72745L12.6154 6.95284ZM13.3468 7.87685C13.4941 7.79873 13.6188 7.67852 13.6783 7.50718L13.1059 7.30815C13.1057 7.30875 13.1053 7.31035 13.1016 7.31433C13.0972 7.31905 13.0862 7.32903 13.0629 7.34142L13.3468 7.87685ZM13.6783 7.50721C13.7373 7.33755 13.7156 7.16632 13.6542 7.01303L13.0916 7.23848C13.103 7.26684 13.1061 7.28528 13.1068 7.2952C13.1074 7.30416 13.1061 7.30743 13.1059 7.30811L13.6783 7.50721ZM13.6542 7.01305C13.5959 6.86757 13.4991 6.74216 13.3575 6.65949L13.052 7.18296C13.0603 7.1878 13.0757 7.19872 13.0916 7.23845L13.6542 7.01305ZM13.3573 6.65942C13.2282 6.58416 13.0755 6.55035 12.9207 6.53806L12.8727 7.14222C12.9787 7.15064 13.0313 7.17087 13.0521 7.18303L13.3573 6.65942ZM12.8754 6.43051L12.5919 5.72291L12.0293 5.94831L12.3128 6.65591L12.8754 6.43051ZM12.1632 5.57086C12.0243 5.64821 11.9113 5.76244 11.8486 5.9169L12.4101 6.14495C12.4134 6.1368 12.4212 6.12087 12.4581 6.10036L12.1632 5.57086ZM11.8485 5.91696C11.7838 6.07638 11.7891 6.24209 11.8509 6.39648L12.4135 6.17108C12.4084 6.15823 12.4083 6.15231 12.4083 6.15168C12.4083 6.1511 12.4083 6.15067 12.4084 6.15006C12.4086 6.14943 12.4089 6.14776 12.4101 6.14489L11.8485 5.91696ZM11.8509 6.39648C11.9076 6.53802 12.0037 6.66128 12.1469 6.73881L12.4354 6.2058C12.4339 6.20498 12.4324 6.20402 12.4299 6.20104C12.427 6.1976 12.4207 6.18893 12.4135 6.17108L11.8509 6.39648ZM12.1468 6.73875C12.2727 6.80695 12.4234 6.83544 12.5738 6.84556L12.6145 6.24086C12.503 6.23336 12.4516 6.21457 12.4355 6.20586L12.1468 6.73875Z" fill="#E1251B" mask="url(#path-26-inside-1_10627_46985)"/>
<path d="M77.3676 24.0688C79.2061 24.2718 80.8612 22.9452 81.0644 21.1056C81.2675 19.2661 79.9418 17.6102 78.1033 17.4072C76.2648 17.2041 74.6097 18.5308 74.4066 20.3703C74.2034 22.2099 75.5291 23.8657 77.3676 24.0688Z" fill="white"/>
<path d="M77.3639 24.1048C77.3167 24.0996 77.2695 24.0934 77.2222 24.0861C76.7744 24.0176 76.3501 23.8613 75.9611 23.6216C75.5721 23.3819 75.2417 23.0731 74.979 22.7038C74.7252 22.3472 74.545 21.9494 74.4434 21.5215C74.3418 21.0937 74.3238 20.6573 74.3901 20.2245C74.4586 19.7764 74.6149 19.3518 74.8545 18.9626C75.0941 18.5734 75.4028 18.2427 75.7719 17.9798C76.1284 17.7259 76.526 17.5455 76.9536 17.4438C77.3812 17.3421 77.8174 17.3241 78.2499 17.3903C78.6977 17.4588 79.1221 17.6151 79.511 17.8548C79.9 18.0945 80.2305 18.4033 80.4932 18.7726C80.7469 19.1292 80.9271 19.527 81.0287 19.9549C81.1304 20.3827 81.1483 20.8191 81.0821 21.2519C81.0135 21.7 80.8572 22.1246 80.6176 22.5138L80.5877 22.4953L80.6176 22.5138C80.378 22.903 80.0694 23.2337 79.7003 23.4966C79.3438 23.7505 78.9462 23.9309 78.5186 24.0326C78.1376 24.1232 77.7499 24.1474 77.3639 24.1048L77.3639 24.1048ZM78.1025 17.4409C77.7287 17.3996 77.3466 17.4227 76.9699 17.5123C76.1087 17.7172 75.3787 18.2454 74.9144 18.9995C73.9561 20.5564 74.4422 22.6029 75.998 23.5616C76.7517 24.026 77.6411 24.169 78.5023 23.9641C79.3635 23.7592 80.0935 23.231 80.5577 22.4769C81.0219 21.7227 81.1649 20.8328 80.9602 19.9712C80.7556 19.1095 80.2278 18.3792 79.4741 17.9148C79.0501 17.6535 78.5832 17.494 78.1025 17.4409L78.1025 17.4409Z" fill="#E1251B"/>
<path d="M77.3837 23.7139C76.9492 23.6659 76.5273 23.5218 76.144 23.2856C75.4629 22.8659 74.9859 22.2059 74.8009 21.4272C74.6159 20.6484 74.7451 19.8442 75.1647 19.1626C75.5843 18.481 76.244 18.0037 77.0223 17.8185C77.8007 17.6333 78.6044 17.7625 79.2856 18.1822C79.9668 18.602 80.4438 19.262 80.6287 20.0407C80.8137 20.8195 80.6845 21.6237 80.2649 22.3053C79.8453 22.9869 79.1856 23.4642 78.4073 23.6494C78.0669 23.7304 77.7214 23.7512 77.3837 23.7139ZM78.0405 17.826C76.951 17.7057 75.8367 18.2053 75.2247 19.1995C74.8149 19.8651 74.6888 20.6504 74.8694 21.4109C75.05 22.1713 75.5158 22.8158 76.1809 23.2257C76.8461 23.6355 77.631 23.7617 78.391 23.5808C79.1511 23.4 79.7953 22.9339 80.205 22.2684C81.0507 20.8944 80.6218 19.0883 79.2487 18.2422C78.8692 18.0084 78.4566 17.872 78.0405 17.826Z" fill="#E1251B"/>
<path d="M78.0405 17.826C76.951 17.7057 75.8367 18.2053 75.2247 19.1995C74.8149 19.8651 74.6888 20.6504 74.8694 21.4109C75.05 22.1713 75.5158 22.8158 76.1809 23.2257C76.8461 23.6355 77.631 23.7617 78.391 23.5808C79.1511 23.4 79.7953 22.9339 80.205 22.2684C81.0507 20.8944 80.6218 19.0883 79.2487 18.2422C78.8692 18.0084 78.4566 17.872 78.0405 17.826Z" fill="#E1251B"/>
<path d="M78.4529 19.7686C78.6256 19.8764 78.7711 20.005 78.8894 20.1545L78.6918 20.4755L78.5448 20.3849C78.5735 20.2783 78.574 20.1853 78.5464 20.1061C78.5186 20.0268 78.4606 19.9579 78.3724 19.8994L77.9323 20.6144C78.03 20.7662 78.0974 20.8897 78.1344 20.9849C78.1714 21.0802 78.1884 21.1713 78.1854 21.2583C78.1823 21.3452 78.154 21.4324 78.1004 21.5195C78.0009 21.6811 77.8791 21.7779 77.7351 21.8101C77.591 21.8422 77.4265 21.8109 77.2417 21.7162L77.0715 21.9927L76.917 21.8975L77.0854 21.624C76.9984 21.5677 76.911 21.4995 76.8231 21.4193C76.7352 21.3392 76.6638 21.2638 76.6089 21.1931L76.8102 20.8661L76.9588 20.9576C76.9197 21.0743 76.9162 21.175 76.9481 21.2596C76.98 21.3441 77.0517 21.4235 77.1631 21.4976L77.6371 20.7277L77.611 20.687C77.5196 20.5446 77.4573 20.4307 77.4239 20.3452C77.3905 20.2597 77.3749 20.1773 77.3773 20.0981C77.3795 20.0189 77.4048 19.9402 77.453 19.8619C77.4994 19.7866 77.5547 19.7277 77.619 19.6853C77.6833 19.643 77.7526 19.6153 77.8269 19.6023C77.9012 19.5893 77.9782 19.5899 78.0582 19.6043C78.1381 19.6187 78.2163 19.6447 78.2929 19.6824L78.4677 19.3985L78.6222 19.4937L78.4529 19.7686L78.4529 19.7686ZM77.7559 20.8809L77.3204 21.5884C77.4186 21.6352 77.5099 21.6454 77.5946 21.6189C77.6791 21.5925 77.751 21.5312 77.8102 21.4351C77.8626 21.3499 77.8841 21.264 77.8745 21.1774C77.865 21.0909 77.8254 20.9921 77.7559 20.8809ZM77.8144 20.4597L78.2151 19.8087C78.1232 19.7671 78.0347 19.7573 77.9495 19.7793C77.8642 19.8013 77.7969 19.8524 77.7475 19.9326C77.6981 20.0129 77.6791 20.0931 77.6905 20.1733C77.702 20.2534 77.7433 20.3489 77.8144 20.4597L77.8144 20.4597Z" fill="white"/>
<path d="M85.6774 13.3546C84.7525 13.3546 84 12.6022 84 11.6773C84 10.7523 84.7525 10 85.6774 10C86.6022 10 87.3546 10.7524 87.3546 11.6773C87.3546 12.6021 86.6022 13.3546 85.6774 13.3546ZM85.6774 10.4026C84.9745 10.4026 84.4026 10.9745 84.4026 11.6773C84.4026 12.3801 84.9745 12.952 85.6774 12.952C86.3803 12.952 86.952 12.3802 86.952 11.6773C86.952 10.9744 86.3802 10.4026 85.6774 10.4026Z" fill="#E1251B"/>
</svg>
