<svg width="16" height="16" viewBox="0 0 16 16" fill="none" xmlns="http://www.w3.org/2000/svg">
<path d="M8.00132 3.99967V14.6663M8.00132 3.99967H5.64418C5.29687 3.99967 4.96379 3.8592 4.71821 3.60915C4.47262 3.3591 4.33466 3.01996 4.33466 2.66634C4.33466 2.31272 4.47262 1.97358 4.71821 1.72353C4.96379 1.47348 5.29687 1.33301 5.64418 1.33301C7.47751 1.33301 8.00132 3.99967 8.00132 3.99967ZM8.00132 3.99967H10.3585C10.7058 3.99967 11.0389 3.8592 11.2844 3.60915C11.53 3.3591 11.668 3.01996 11.668 2.66634C11.668 2.31272 11.53 1.97358 11.2844 1.72353C11.0389 1.47348 10.7058 1.33301 10.3585 1.33301C8.52513 1.33301 8.00132 3.99967 8.00132 3.99967ZM13.3347 7.33301V12.533C13.3347 13.2797 13.3347 13.6531 13.1893 13.9383C13.0615 14.1892 12.8575 14.3932 12.6066 14.521C12.3214 14.6663 11.9481 14.6663 11.2013 14.6663L4.80132 14.6663C4.05459 14.6663 3.68122 14.6663 3.396 14.521C3.14512 14.3932 2.94114 14.1892 2.81331 13.9383C2.66799 13.6531 2.66799 13.2797 2.66799 12.533V7.33301M1.33466 5.06634L1.33466 6.26634C1.33466 6.63971 1.33466 6.82639 1.40732 6.969C1.47123 7.09444 1.57322 7.19643 1.69866 7.26034C1.84127 7.33301 2.02795 7.33301 2.40132 7.33301L13.6013 7.33301C13.9747 7.33301 14.1614 7.33301 14.304 7.26035C14.4294 7.19643 14.5314 7.09444 14.5953 6.969C14.668 6.82639 14.668 6.63971 14.668 6.26634V5.06634C14.668 4.69297 14.668 4.50629 14.5953 4.36368C14.5314 4.23824 14.4294 4.13625 14.304 4.07234C14.1614 3.99967 13.9747 3.99967 13.6013 3.99967L2.40132 3.99967C2.02795 3.99967 1.84127 3.99967 1.69866 4.07234C1.57322 4.13625 1.47123 4.23824 1.40732 4.36368C1.33466 4.50629 1.33466 4.69297 1.33466 5.06634Z" stroke="currentColor" stroke-linecap="round" stroke-linejoin="round"/>
</svg>
