<svg width="88" height="21" viewBox="0 0 88 21" fill="none" xmlns="http://www.w3.org/2000/svg">
    <g clip-path="url(#clip0_2_9)">
    <path d="M6.10352e-05 0.834259L3.28694 4.12259H15.2425L7.9356 11.428V5.76602H4.64873V19.365L23.1781 0.834259H6.10352e-05Z" fill="#E1251B"/>
    <path d="M12.7512 13.5854L18.5294 19.365H23.178L15.0755 11.2625L12.7512 13.5854Z" fill="#E1251B"/>
    <path d="M25.5025 0.834259L22.2156 4.12259H40.7449L44.0318 0.834259H25.5025Z" fill="#E1251B"/>
    <path d="M40.745 19.365L44.0318 16.0767H28.7894V5.76599H25.5025V19.365H40.745Z" fill="#E1251B"/>
    <path d="M41.06 8.45621H30.2673V11.7431H37.7731L41.06 8.45621Z" fill="#E1251B"/>
    <path d="M58.8241 0.834259H46.3561L43.0692 4.12259H57.4624L61.4301 8.09036L53.4423 16.0767H49.643V5.76602H46.3561V16.0767L43.0692 19.365H54.8041L66.0788 8.09036L58.8241 0.834259Z" fill="#E1251B"/>
    <path d="M76.5811 5.93291L76.5767 5.9271L72.6394 0.163453L69.2698 0.122803L66.3111 0.125706L73.5512 10.0938L73.5555 10.0996L66.3125 20.0734L69.2713 20.0778C70.395 20.0647 71.5187 20.0517 72.6424 20.0401L75.1482 16.5935L76.7118 14.4434L80.8174 20.0952L83.7893 20.0996C84.897 20.0865 86.0047 20.0734 87.1125 20.0604L79.8709 10.0996L76.5854 5.93291H76.5811Z" fill="black"/>
    <path d="M76.5831 5.93573L76.5767 5.92715L76.5831 5.93573Z" fill="#E1251B"/>
    <path d="M87.1081 0.138808L84.6081 0.109772L83.7849 0.0996094L80.8146 0.103965L76.5811 5.93294L79.8665 10.0996L84.3047 3.99334L87.1081 0.138808Z" fill="#E1251B"/>
    <path d="M70.7028 0.890808L75.3209 7.6562L76.1078 6.5717L72.2402 0.909682L70.7028 0.890808Z" fill="white"/>
    <path d="M75.4196 12.89L70.755 19.3098L70.9452 19.3069L72.2547 19.2924L76.2442 13.8046L75.5808 12.89H75.4196Z" fill="white"/>
    <path d="M85.6461 0.872005L84.1653 0.854584L77.4478 10.0996L84.1653 19.3447L85.6461 19.3273L79.2582 10.541L78.9373 10.0996L79.2582 9.6583L85.6461 0.872005Z" fill="white"/>
    </g>
    <defs>
    <clipPath id="clip0_2_9">
    <rect width="87.108" height="20" fill="white" transform="translate(0 0.0996094)"/>
    </clipPath>
    </defs>
    </svg>
    