<svg width="91" height="90" viewBox="0 0 91 90" fill="none" xmlns="http://www.w3.org/2000/svg">
<path d="M35.1011 29.8657C35.0456 30.1939 35.2666 30.5075 35.5924 30.5627L69.9218 36.376C70.2475 36.4312 70.5595 36.2078 70.6151 35.8797L75.4162 7.52781C75.4441 7.36306 75.3341 7.20704 75.1706 7.17934L40.5451 1.31586C40.2193 1.26069 39.9073 1.48404 39.8517 1.81219L35.1011 29.8657Z" fill="white"/>
<path d="M70.1456 36.4622L35.8828 30.6601C35.3679 30.5729 35.021 30.0806 35.1087 29.563L39.8474 1.57937C39.9351 1.06178 40.4247 0.711083 40.9396 0.79827L75.4979 6.65038C75.8498 6.70997 76.0867 7.04641 76.0268 7.39988L71.2377 35.6811C71.1501 36.1987 70.6604 36.5494 70.1456 36.4622ZM70.5538 35.5653L75.3351 7.33045L40.8231 1.48619C40.686 1.46297 40.5549 1.55639 40.5314 1.69518L35.7926 29.6788C35.7691 29.8176 35.8622 29.949 35.9993 29.9722L70.2621 35.7743C70.3992 35.7975 70.5303 35.704 70.5538 35.5653Z" fill="#E1251B" stroke="#E1251B" stroke-width="0.0940912"/>
<mask id="path-3-outside-1_13601_109377" maskUnits="userSpaceOnUse" x="37.6743" y="3.23467" width="35.8919" height="30.9779" fill="black">
<rect fill="white" x="37.6743" y="3.23467" width="35.8919" height="30.9779"/>
<path d="M38.6498 28.3921L67.7488 33.3197C68.0775 33.3753 68.3901 33.154 68.4456 32.8262L71.5856 14.2838C71.6133 14.1204 71.5707 13.955 71.4688 13.83C71.367 13.705 71.2134 13.6297 71.047 13.6233C71.0465 13.6232 70.931 13.618 70.7381 13.5853C68.8605 13.2674 67.5908 11.486 67.9077 9.6144C67.9412 9.41668 67.9781 9.29558 67.9784 9.29442C68.0277 9.13667 68.0075 8.96702 67.923 8.82972C67.8385 8.69242 67.6957 8.59763 67.5316 8.56983L47.0747 5.10567C46.9106 5.07787 46.7446 5.12032 46.6195 5.22219C46.4944 5.32406 46.4196 5.47764 46.4142 5.64349C46.4141 5.64394 46.4091 5.77035 46.3756 5.96814C46.0586 7.83976 44.2732 9.10378 42.3957 8.78584C42.1823 8.7497 42.0304 8.70166 42.0255 8.70015C41.8672 8.64887 41.6962 8.66693 41.5581 8.75046C41.4197 8.83389 41.3244 8.97605 41.2966 9.14041L38.1543 27.6967C38.0988 28.0244 38.3211 28.3364 38.6498 28.3921L38.6498 28.3921ZM70.9825 14.2233L67.8494 32.7253L38.7504 27.7976L41.8849 9.28742C41.9563 9.30815 42.1057 9.3482 42.295 9.38025C44.5013 9.75387 46.5993 8.26846 46.9717 6.06909C47.0005 5.89887 47.0118 5.77038 47.016 5.7072L67.3887 9.1571C67.3719 9.21823 67.3402 9.34326 67.3114 9.51341C66.9389 11.7129 68.4309 13.8061 70.6373 14.1797C70.8036 14.2079 70.9228 14.2191 70.9825 14.2233L70.9825 14.2233Z"/>
</mask>
<path d="M38.6498 28.3921L67.7488 33.3197C68.0775 33.3753 68.3901 33.154 68.4456 32.8262L71.5856 14.2838C71.6133 14.1204 71.5707 13.955 71.4688 13.83C71.367 13.705 71.2134 13.6297 71.047 13.6233C71.0465 13.6232 70.931 13.618 70.7381 13.5853C68.8605 13.2674 67.5908 11.486 67.9077 9.6144C67.9412 9.41668 67.9781 9.29558 67.9784 9.29442C68.0277 9.13667 68.0075 8.96702 67.923 8.82972C67.8385 8.69242 67.6957 8.59763 67.5316 8.56983L47.0747 5.10567C46.9106 5.07787 46.7446 5.12032 46.6195 5.22219C46.4944 5.32406 46.4196 5.47764 46.4142 5.64349C46.4141 5.64394 46.4091 5.77035 46.3756 5.96814C46.0586 7.83976 44.2732 9.10378 42.3957 8.78584C42.1823 8.7497 42.0304 8.70166 42.0255 8.70015C41.8672 8.64887 41.6962 8.66693 41.5581 8.75046C41.4197 8.83389 41.3244 8.97605 41.2966 9.14041L38.1543 27.6967C38.0988 28.0244 38.3211 28.3364 38.6498 28.3921L38.6498 28.3921ZM70.9825 14.2233L67.8494 32.7253L38.7504 27.7976L41.8849 9.28742C41.9563 9.30815 42.1057 9.3482 42.295 9.38025C44.5013 9.75387 46.5993 8.26846 46.9717 6.06909C47.0005 5.89887 47.0118 5.77038 47.016 5.7072L67.3887 9.1571C67.3719 9.21823 67.3402 9.34326 67.3114 9.51341C66.9389 11.7129 68.4309 13.8061 70.6373 14.1797C70.8036 14.2079 70.9228 14.2191 70.9825 14.2233L70.9825 14.2233Z" fill="#E1251B"/>
<path d="M71.4688 13.83L71.3958 13.8894L71.3958 13.8894L71.4688 13.83ZM71.047 13.6233L71.0434 13.7181L71.0313 13.7161L71.047 13.6233ZM67.9784 9.29442L67.8883 9.26729L67.8886 9.26637L67.9784 9.29442ZM46.4142 5.64349L46.5091 5.64662L46.5069 5.6592L46.4142 5.64349ZM42.0255 8.70015L41.9977 8.79002L41.9966 8.78966L42.0255 8.70015ZM41.5581 8.75046L41.6067 8.83099L41.6067 8.83103L41.5581 8.75046ZM70.9825 14.2233L70.9982 14.1305L71.091 14.1462L71.0753 14.239L70.9825 14.2233ZM67.8494 32.7253L67.9422 32.741L67.9265 32.8337L67.8337 32.818L67.8494 32.7253ZM38.7504 27.7976L38.7347 27.8904L38.6419 27.8747L38.6576 27.7819L38.7504 27.7976ZM41.8849 9.28742L41.7922 9.27171L41.8098 9.16763L41.9112 9.19706L41.8849 9.28742ZM47.016 5.7072L46.9222 5.70087L46.9292 5.59706L47.0318 5.61443L47.016 5.7072ZM67.3887 9.1571L67.4044 9.06433L67.5069 9.0817L67.4794 9.18202L67.3887 9.1571ZM70.9825 14.2233L70.9891 14.129L70.9982 14.1305L70.9825 14.2233ZM38.6655 28.2993L67.7645 33.2269L67.733 33.4125L38.634 28.4848L38.6655 28.2993ZM67.7645 33.2269C68.0422 33.2739 68.3061 33.0868 68.3528 32.8105L68.5384 32.8419C68.4742 33.2212 68.1127 33.4768 67.733 33.4125L67.7645 33.2269ZM68.3528 32.8105L71.4928 14.2681L71.6784 14.2995L68.5384 32.8419L68.3528 32.8105ZM71.4928 14.2681C71.5161 14.1306 71.4801 13.9928 71.3958 13.8894L71.5417 13.7706C71.6613 13.9172 71.7104 14.1102 71.6784 14.2995L71.4928 14.2681ZM71.3958 13.8894C71.3117 13.7861 71.1838 13.7227 71.0434 13.7173L71.0506 13.5293C71.243 13.5366 71.4223 13.6238 71.5417 13.7706L71.3958 13.8894ZM71.0313 13.7161C71.033 13.7163 71.0357 13.7167 71.0366 13.7168C71.0372 13.7169 71.0381 13.717 71.0385 13.717C71.0393 13.7171 71.0399 13.7171 71.0401 13.7171C71.0407 13.7172 71.0411 13.7172 71.0411 13.7172C71.0414 13.7172 71.0415 13.7172 71.0414 13.7172C71.0412 13.7172 71.041 13.7172 71.0404 13.7172C71.0394 13.7171 71.0379 13.717 71.0359 13.7169C71.032 13.7167 71.0263 13.7163 71.0189 13.7158C71.0041 13.7147 70.9827 13.7129 70.9552 13.7101C70.9003 13.7046 70.8211 13.6948 70.7224 13.6781L70.7538 13.4926C70.848 13.5085 70.9231 13.5177 70.9742 13.5229C70.9998 13.5255 71.0194 13.5271 71.0325 13.5281C71.039 13.5285 71.0439 13.5289 71.0471 13.529C71.0487 13.5291 71.05 13.5292 71.0508 13.5293C71.0511 13.5293 71.0516 13.5293 71.0519 13.5293C71.052 13.5293 71.0524 13.5293 71.0527 13.5294C71.0529 13.5294 71.0533 13.5294 71.0539 13.5294C71.0541 13.5295 71.0547 13.5295 71.0555 13.5296C71.0559 13.5296 71.0569 13.5297 71.0575 13.5298C71.0584 13.5299 71.061 13.5302 71.0627 13.5305L71.0313 13.7161ZM70.7224 13.6781C68.7938 13.3515 67.4893 11.5218 67.815 9.59869L68.0005 9.63011C67.6923 11.4502 68.9271 13.1832 70.7538 13.4926L70.7224 13.6781ZM67.815 9.59869C67.8321 9.49737 67.8502 9.41546 67.8641 9.35842C67.871 9.32989 67.877 9.30755 67.8812 9.29209C67.8833 9.28436 67.8851 9.27835 67.8863 9.27414C67.8869 9.27204 67.8874 9.27039 67.8877 9.2692C67.8881 9.268 67.8883 9.26722 67.8883 9.26729L68.0685 9.32154C68.0685 9.32162 68.068 9.32328 68.067 9.32663C68.066 9.33004 68.0645 9.33523 68.0626 9.3421C68.0588 9.35586 68.0534 9.37638 68.0469 9.40298C68.0339 9.45621 68.0168 9.53371 68.0005 9.63011L67.815 9.59869ZM67.8886 9.26637C67.93 9.13379 67.9127 8.99246 67.8429 8.87905L68.0031 8.78039C68.1024 8.94158 68.1253 9.13955 68.0682 9.32246L67.8886 9.26637ZM67.8429 8.87905C67.7731 8.76567 67.6543 8.68604 67.5159 8.6626L67.5473 8.47706C67.7372 8.50922 67.9039 8.61918 68.0031 8.78039L67.8429 8.87905ZM67.5159 8.6626L47.059 5.19844L47.0905 5.0129L67.5473 8.47706L67.5159 8.6626ZM47.059 5.19844C46.9206 5.17499 46.7822 5.21102 46.6789 5.29515L46.5601 5.14922C46.707 5.02961 46.9006 4.98074 47.0905 5.0129L47.059 5.19844ZM46.6789 5.29515C46.5756 5.37925 46.5128 5.507 46.5082 5.64659L46.3201 5.64039C46.3265 5.44828 46.4132 5.26886 46.5601 5.14922L46.6789 5.29515ZM46.5069 5.6592C46.5073 5.6571 46.5077 5.65397 46.5078 5.65297C46.5078 5.65237 46.5079 5.65139 46.5079 5.65101C46.508 5.65028 46.508 5.64972 46.5081 5.64952C46.5081 5.64907 46.5081 5.64872 46.5081 5.64867C46.5081 5.64849 46.5081 5.6484 46.5081 5.64853C46.5081 5.64897 46.5081 5.64882 46.5081 5.64965C46.508 5.65076 46.5079 5.65239 46.5078 5.65453C46.5076 5.65878 46.5072 5.66494 46.5067 5.67287C46.5056 5.68874 46.5039 5.71169 46.501 5.74086C46.4954 5.79919 46.4855 5.88249 46.4683 5.98385L46.2828 5.95243C46.2991 5.85601 46.3085 5.7772 46.3137 5.72276C46.3164 5.69555 46.318 5.67445 46.3189 5.66031C46.3194 5.65324 46.3197 5.6479 46.3199 5.64439C46.32 5.64263 46.3201 5.64131 46.3201 5.64042C46.3201 5.64025 46.3202 5.63934 46.3202 5.63927C46.3202 5.63914 46.3202 5.63885 46.3202 5.63854C46.3202 5.63842 46.3202 5.63802 46.3203 5.63752C46.3203 5.63731 46.3203 5.63673 46.3204 5.63599C46.3204 5.6356 46.3205 5.63462 46.3205 5.63402C46.3206 5.63301 46.3211 5.62989 46.3214 5.62778L46.5069 5.6592ZM46.4683 5.98385C46.1427 7.90698 44.3085 9.20518 42.38 8.87861L42.4114 8.69307C44.238 9.00238 45.9746 7.77254 46.2828 5.95243L46.4683 5.98385ZM42.38 8.87861C42.2702 8.86002 42.1763 8.83838 42.1091 8.82116C42.0754 8.81254 42.0484 8.805 42.0293 8.79948C42.0197 8.79672 42.0122 8.79445 42.0068 8.79281C42.0041 8.79199 42.0019 8.79133 42.0003 8.79084C41.9997 8.79064 41.9967 8.78972 41.9977 8.79001L42.0534 8.61028C42.0565 8.61125 42.2039 8.65793 42.4114 8.69307L42.38 8.87861ZM41.9966 8.78966C41.863 8.74642 41.7206 8.76218 41.6067 8.83099L41.5094 8.66994C41.6719 8.57168 41.8713 8.55131 42.0545 8.61063L41.9966 8.78966ZM41.6067 8.83103C41.4926 8.89979 41.4128 9.01778 41.3894 9.15612L41.2038 9.1247C41.2361 8.93431 41.3468 8.76799 41.5095 8.66989L41.6067 8.83103ZM41.3894 9.15612L38.2471 27.7124L38.0615 27.681L41.2038 9.1247L41.3894 9.15612ZM38.2471 27.7124C38.2003 27.9886 38.3878 28.2523 38.6655 28.2993L38.6341 28.4848C38.2544 28.4205 37.9973 28.0602 38.0615 27.681L38.2471 27.7124ZM38.6341 28.4848L38.634 28.4848L38.6655 28.2993L38.6655 28.2993L38.6341 28.4848ZM71.0753 14.239L67.9422 32.741L67.7566 32.7095L70.8898 14.2076L71.0753 14.239ZM67.8337 32.818L38.7347 27.8904L38.7661 27.7049L67.8651 32.6325L67.8337 32.818ZM38.6576 27.7819L41.7922 9.27171L41.9777 9.30313L38.8432 27.8133L38.6576 27.7819ZM41.9112 9.19706C41.9801 9.21709 42.1259 9.25619 42.3107 9.28748L42.2793 9.47302C42.0855 9.44021 41.9325 9.39921 41.8587 9.37778L41.9112 9.19706ZM42.3107 9.28748C44.4661 9.65247 46.5152 8.20124 46.8789 6.05338L47.0645 6.0848C46.6833 8.33568 44.5366 9.85527 42.2793 9.47302L42.3107 9.28748ZM46.8789 6.05338C46.9071 5.88681 46.9181 5.76151 46.9222 5.70087L47.1099 5.71353C47.1055 5.77924 47.0939 5.91092 47.0645 6.0848L46.8789 6.05338ZM47.0318 5.61443L67.4044 9.06433L67.3729 9.24987L47.0003 5.79997L47.0318 5.61443ZM67.4794 9.18202C67.4633 9.24071 67.4323 9.36263 67.4041 9.52912L67.2186 9.4977C67.248 9.3239 67.2805 9.19575 67.2979 9.13217L67.4794 9.18202ZM67.4041 9.52912C67.0404 11.6771 68.4976 13.722 70.653 14.087L70.6215 14.2725C68.3643 13.8903 66.8374 11.7487 67.2186 9.4977L67.4041 9.52912ZM70.653 14.087C70.8161 14.1146 70.9323 14.1254 70.9891 14.1294L70.9758 14.3171C70.9134 14.3127 70.7911 14.3012 70.6215 14.2725L70.653 14.087ZM70.9982 14.1305L70.9982 14.1305L70.9668 14.3161L70.9667 14.3161L70.9982 14.1305Z" fill="#E1251B" mask="url(#path-3-outside-1_13601_109377)"/>
<path d="M18.694 16.3643L52.8162 9.43786C53.1413 9.37186 53.4588 9.58387 53.5253 9.9114L59.1854 37.7956C59.2519 38.1232 59.0422 38.4422 58.7171 38.5082L24.5949 45.4346C24.2697 45.5006 23.9523 45.2886 23.8858 44.961L18.2256 17.0768C18.1591 16.7493 18.3688 16.4303 18.694 16.3643Z" fill="white"/>
<path d="M58.957 38.5078L24.9009 45.4208C24.3892 45.5246 23.8884 45.1901 23.784 44.6756L18.1379 16.8608C18.0335 16.3464 18.3642 15.843 18.8759 15.7391L52.932 8.82616C53.4437 8.72228 53.9445 9.05688 54.0489 9.57134L59.695 37.3861C59.7994 37.9006 59.4687 38.4039 58.957 38.5078ZM53.3691 9.70933C53.3411 9.57138 53.207 9.48227 53.0708 9.50993L19.0147 16.4229C18.8784 16.4506 18.7897 16.5849 18.8177 16.7228L24.4638 44.5376C24.4918 44.6755 24.6259 44.7647 24.7621 44.737L58.8182 37.824C58.9544 37.7964 59.0432 37.662 59.0152 37.5241L53.3691 9.70933Z" fill="#E1251B" stroke="#E1251B" stroke-width="0.0940912"/>
<path d="M26.7991 42.3321L26.7992 42.3321L26.6858 42.3551C26.3337 42.4266 25.9891 42.1992 25.9178 41.8479L22.1738 23.4034C22.138 23.2271 22.1786 23.0461 22.2863 22.9073L22.2863 22.9073C22.394 22.7686 22.5596 22.684 22.739 22.6741L22.7416 22.7211L22.7384 22.6741C22.7426 22.6738 22.8993 22.6642 23.1085 22.6217C24.9494 22.248 26.1439 20.4511 25.7715 18.6163C25.7518 18.5194 25.7319 18.4415 25.7169 18.3878C25.7094 18.361 25.7032 18.3403 25.6988 18.3263L25.6938 18.3105L25.6925 18.3064L26.7991 42.3321ZM26.7991 42.3321L55.6091 36.484C55.9612 36.4125 56.1899 36.0688 56.1186 35.7174L52.3774 17.2868C52.3418 17.1115 52.2345 16.9608 52.0824 16.8739L52.0824 16.8739C51.9305 16.7872 51.7462 16.7709 51.5764 16.829L51.5763 16.829L51.5753 16.8293L51.5716 16.8305L51.5571 16.835C51.5441 16.839 51.5248 16.8447 51.4996 16.8516C51.449 16.8654 51.3747 16.884 51.2799 16.9033C49.4389 17.277 47.6383 16.0879 47.2659 14.2532C47.2462 14.1562 47.2341 14.0767 47.227 14.0214C47.2198 13.9662 47.2176 13.9353 47.2176 13.9352L26.7991 42.3321ZM26.5932 41.6627L55.4244 35.8103L51.7109 17.5163C51.6456 17.5347 51.5468 17.5602 51.4184 17.5863C49.2 18.0366 47.0299 16.604 46.5809 14.3922C46.5538 14.2589 46.5384 14.1507 46.5299 14.079L26.3811 18.1689C26.4012 18.2383 26.4291 18.3439 26.4562 18.4773C26.9051 20.689 25.4654 22.8544 23.247 23.3047C23.0936 23.3359 22.9627 23.3527 22.8782 23.3614L26.5932 41.6627Z" fill="#E1251B" stroke="#E1251B" stroke-width="0.0940912"/>
<path d="M35.0355 72.0761H6.32152V36.9893C6.32152 32.9766 9.59839 29.6934 13.6034 29.6934H79.002C83.007 29.6934 86.2839 32.9766 86.2839 36.9893V79.5856C86.2839 83.5984 83.007 86.8816 79.002 86.8816H13.6034C11.4262 86.8816 9.46408 85.9117 8.12664 84.3809H35.0355C38.3057 84.3809 40.9813 81.7002 40.9813 78.4237V78.0334C40.9813 74.757 38.3057 72.0761 35.0355 72.0761ZM76.1868 41.1607C76.1868 40.7189 75.826 40.3574 75.3851 40.3574H17.4936C17.0526 40.3574 16.6918 40.7189 16.6918 41.1607V41.6051C16.6918 42.0469 17.0526 42.4084 17.4936 42.4084H75.3851C75.826 42.4084 76.1868 42.0469 76.1868 41.6051V41.1607ZM75.3851 53.2091C75.826 53.2091 76.1868 52.8476 76.1868 52.4058V51.9614C76.1868 51.5197 75.826 51.1582 75.3851 51.1582H17.4936C17.0526 51.1582 16.6918 51.5196 16.6918 51.9614V52.4058C16.6918 52.8476 17.0526 53.2091 17.4936 53.2091H75.3851Z" fill="url(#paint0_linear_13601_109377)"/>
<path d="M13.3189 87.3877H78.7805C82.9179 87.3877 86.2839 84.0139 86.2839 79.8671V37.2139C86.2839 33.0671 82.9179 29.6934 78.7805 29.6934H13.3189C9.18155 29.6934 5.81561 33.0671 5.81561 37.2139V72.5625H34.7717C37.9352 72.5625 40.5088 75.1421 40.5088 78.3127V78.7035C40.5088 81.8743 37.9351 84.4538 34.7717 84.4538H7.36423L7.67557 84.8103C9.10613 86.4483 11.163 87.3877 13.3189 87.3877ZM78.7805 30.1231C82.6814 30.1231 85.855 33.304 85.855 37.2138V79.867C85.855 83.7769 82.6814 86.9578 78.7805 86.9578H13.3189C11.4485 86.9578 9.65688 86.2073 8.33153 84.8835H34.7716C38.1715 84.8835 40.9375 82.1112 40.9375 78.7034V78.3127C40.9375 74.905 38.1715 72.1326 34.7716 72.1326H6.24436V37.2138C6.24436 33.304 9.41796 30.1231 13.3189 30.1231H78.7805ZM17.2128 53.6702H75.1602C75.7209 53.6702 76.1771 53.213 76.1771 52.651V52.2059C76.1771 51.6439 75.7209 51.1867 75.1602 51.1867H17.2128C16.6521 51.1867 16.1959 51.6439 16.1959 52.2059V52.651C16.1959 53.213 16.6521 53.6702 17.2128 53.6702ZM75.1602 51.6166C75.4844 51.6166 75.7482 51.8809 75.7482 52.206V52.6511C75.7482 52.9761 75.4844 53.2405 75.1602 53.2405H17.2128C16.8886 53.2405 16.6248 52.9762 16.6248 52.6511V52.206C16.6248 51.881 16.8885 51.6166 17.2128 51.6166H75.1602ZM17.2128 42.8551H75.1602C75.7209 42.8551 76.1771 42.3978 76.1771 41.8359V41.3908C76.1771 40.8288 75.7209 40.3715 75.1602 40.3715H17.2128C16.6521 40.3715 16.1959 40.8288 16.1959 41.3908V41.8359C16.1959 42.3978 16.6521 42.8551 17.2128 42.8551ZM75.1602 40.8014C75.4844 40.8014 75.7482 41.0658 75.7482 41.3908V41.8359C75.7482 42.1609 75.4844 42.4253 75.1602 42.4253H17.2128C16.8886 42.4253 16.6248 42.161 16.6248 41.8359V41.3908C16.6248 41.0659 16.8885 40.8014 17.2128 40.8014H75.1602Z" fill="white"/>
<path d="M13.3189 87.3877H78.7805C82.9179 87.3877 86.2839 84.0139 86.2839 79.8671V37.2139C86.2839 33.0671 82.9179 29.6934 78.7805 29.6934H13.3189C9.18155 29.6934 5.81561 33.0671 5.81561 37.2139V72.5625H34.7717C37.9352 72.5625 40.5088 75.1421 40.5088 78.3127V78.7035C40.5088 81.8743 37.9351 84.4538 34.7717 84.4538H7.36423L7.67557 84.8103C9.10613 86.4483 11.163 87.3877 13.3189 87.3877ZM78.7805 30.1231C82.6814 30.1231 85.855 33.304 85.855 37.2138V79.867C85.855 83.7769 82.6814 86.9578 78.7805 86.9578H13.3189C11.4485 86.9578 9.65688 86.2073 8.33153 84.8835H34.7716C38.1715 84.8835 40.9375 82.1112 40.9375 78.7034V78.3127C40.9375 74.905 38.1715 72.1326 34.7716 72.1326H6.24436V37.2138C6.24436 33.304 9.41796 30.1231 13.3189 30.1231H78.7805ZM17.2128 53.6702H75.1602C75.7209 53.6702 76.1771 53.213 76.1771 52.651V52.2059C76.1771 51.6439 75.7209 51.1867 75.1602 51.1867H17.2128C16.6521 51.1867 16.1959 51.6439 16.1959 52.2059V52.651C16.1959 53.213 16.6521 53.6702 17.2128 53.6702ZM75.1602 51.6166C75.4844 51.6166 75.7482 51.8809 75.7482 52.206V52.6511C75.7482 52.9761 75.4844 53.2405 75.1602 53.2405H17.2128C16.8886 53.2405 16.6248 52.9762 16.6248 52.6511V52.206C16.6248 51.881 16.8885 51.6166 17.2128 51.6166H75.1602ZM17.2128 42.8551H75.1602C75.7209 42.8551 76.1771 42.3978 76.1771 41.8359V41.3908C76.1771 40.8288 75.7209 40.3715 75.1602 40.3715H17.2128C16.6521 40.3715 16.1959 40.8288 16.1959 41.3908V41.8359C16.1959 42.3978 16.6521 42.8551 17.2128 42.8551ZM75.1602 40.8014C75.4844 40.8014 75.7482 41.0658 75.7482 41.3908V41.8359C75.7482 42.1609 75.4844 42.4253 75.1602 42.4253H17.2128C16.8886 42.4253 16.6248 42.161 16.6248 41.8359V41.3908C16.6248 41.0659 16.8885 40.8014 17.2128 40.8014H75.1602Z" stroke="white"/>
<path d="M16.9565 42.8498H75.1393C75.7022 42.8498 76.1603 42.3839 76.1603 41.8113V41.3578C76.1603 40.7852 75.7023 40.3193 75.1393 40.3193H16.9565C16.3935 40.3193 15.9355 40.7852 15.9355 41.3578V41.8113C15.9355 42.3839 16.3935 42.8498 16.9565 42.8498ZM75.1393 40.7573C75.4648 40.7573 75.7297 41.0267 75.7297 41.3579V41.8114C75.7297 42.1425 75.4648 42.4119 75.1393 42.4119H16.9565C16.6309 42.4119 16.3661 42.1426 16.3661 41.8114V41.3579C16.3661 41.0267 16.6309 40.7573 16.9565 40.7573H75.1393Z" fill="url(#paint1_linear_13601_109377)"/>
<path d="M17.2463 50.9463H75.3556C75.8 50.9463 76.1603 51.3013 76.1603 51.7391V52.1778C76.1603 52.6157 75.8 52.9707 75.3556 52.9707H17.2463C16.8018 52.9707 16.4416 52.6157 16.4416 52.1778V51.7391C16.4416 51.3013 16.8018 50.9463 17.2463 50.9463Z" fill="white"/>
<path d="M5.80677 72.1494V79.8304C5.80677 81.7042 6.49676 83.4213 7.63274 84.7351H34.8524C38.1603 84.7351 40.8668 81.9931 40.8668 78.6418V78.2427C40.8668 74.8914 38.1603 72.1494 34.8524 72.1494H5.80677Z" fill="white"/>
<path d="M33.6491 81.3143C31.972 81.3143 30.6125 79.9548 30.6125 78.2778C30.6125 76.6007 31.972 75.2412 33.6491 75.2412C35.3261 75.2412 36.6856 76.6007 36.6856 78.2778C36.6856 79.9548 35.3261 81.3143 33.6491 81.3143Z" fill="white"/>
<path d="M33.396 81.8204C35.2099 81.8204 36.6856 80.3447 36.6856 78.5308C36.6856 76.7169 35.2099 75.2412 33.396 75.2412C31.5821 75.2412 30.1064 76.7169 30.1064 78.5308C30.1064 80.3448 31.5821 81.8204 33.396 81.8204ZM33.396 75.6616C34.9781 75.6616 36.2653 76.9487 36.2653 78.5308C36.2653 80.113 34.9781 81.4 33.396 81.4C31.8139 81.4 30.5268 80.1129 30.5268 78.5308C30.5268 76.9488 31.8139 75.6616 33.396 75.6616Z" fill="url(#paint2_linear_13601_109377)"/>
<rect x="15.6968" y="39.7852" width="61.1303" height="3.5959" rx="1.79795" fill="white"/>
<rect x="15.6968" y="50.5732" width="61.1303" height="3.5959" rx="1.79795" fill="white"/>
<defs>
<linearGradient id="paint0_linear_13601_109377" x1="46.3027" y1="86.8816" x2="46.3027" y2="29.6934" gradientUnits="userSpaceOnUse">
<stop stop-color="#EA3033"/>
<stop offset="1" stop-color="#EA3231"/>
</linearGradient>
<linearGradient id="paint1_linear_13601_109377" x1="46.0479" y1="42.8498" x2="46.0479" y2="40.3193" gradientUnits="userSpaceOnUse">
<stop stop-color="#EA3033"/>
<stop offset="1" stop-color="#EA3231"/>
</linearGradient>
<linearGradient id="paint2_linear_13601_109377" x1="33.396" y1="81.8204" x2="33.396" y2="75.2412" gradientUnits="userSpaceOnUse">
<stop stop-color="#EA3033"/>
<stop offset="1" stop-color="#EA3231"/>
</linearGradient>
</defs>
</svg>
