<svg width="24" height="26" viewBox="0 0 24 26" fill="none" xmlns="http://www.w3.org/2000/svg">
<path d="M5.33331 10.3333V7.66667C5.33331 3.98477 8.31808 1 12 1C14.7337 1 17.0832 2.64546 18.1119 5M12 16.3333V19M7.73331 25H16.2666C18.5069 25 19.627 25 20.4826 24.564C21.2353 24.1805 21.8472 23.5686 22.2307 22.816C22.6666 21.9603 22.6666 20.8402 22.6666 18.6V16.7333C22.6666 14.4931 22.6666 13.373 22.2307 12.5174C21.8472 11.7647 21.2353 11.1528 20.4826 10.7693C19.627 10.3333 18.5069 10.3333 16.2666 10.3333H7.73331C5.4931 10.3333 4.373 10.3333 3.51735 10.7693C2.7647 11.1528 2.15278 11.7647 1.76929 12.5174C1.33331 13.373 1.33331 14.4931 1.33331 16.7333V18.6C1.33331 20.8402 1.33331 21.9603 1.76929 22.816C2.15278 23.5686 2.7647 24.1805 3.51735 24.564C4.373 25 5.4931 25 7.73331 25Z" stroke="currentColor" stroke-width="1.5" stroke-linecap="round" stroke-linejoin="round"/>
</svg>
