<svg width="81" height="25" viewBox="0 0 81 25" fill="none" xmlns="http://www.w3.org/2000/svg">
<g clip-path="url(#clip0_7912_54281)">
<path d="M73.9789 10.785L76.7447 8.01925C75.5875 8.72883 74.0555 8.58571 73.0536 7.58382C71.8803 6.41058 71.8803 4.50961 73.0536 3.33637C74.2268 2.16313 76.1278 2.16313 77.301 3.33637C78.3029 4.33826 78.4461 5.87032 77.7365 7.02743L80.5022 4.26165C80.2845 3.28597 79.8007 2.35665 79.0407 1.59667C76.9079 -0.536129 73.4487 -0.536129 71.3159 1.59667C69.1831 3.72946 69.1831 7.18871 71.3159 9.3215C72.0759 10.0815 73.0052 10.5653 73.9809 10.783L73.9789 10.785Z" fill="#E1251B"/>
<path d="M0.5 4.39648L4.08019 7.97668H17.1007L9.14206 15.9354V9.76678H5.56186V24.5774L25.7428 4.39648H0.5Z" fill="#E1251B"/>
<path d="M14.3872 18.2839L20.6808 24.5775H25.7426L16.9191 15.752L14.3872 18.2839Z" fill="#E1251B"/>
<path d="M28.2745 4.39648L24.6943 7.97668H44.8753L48.4555 4.39648H28.2745Z" fill="#E1251B"/>
<path d="M44.8751 24.5777L48.4553 20.9975H31.8546V9.76709H28.2744V24.5777H44.8751Z" fill="#E1251B"/>
<path d="M45.2179 12.6982H33.4634V16.2784H41.6378L45.2179 12.6982Z" fill="#E1251B"/>
<path d="M64.5648 4.39648H50.9859L47.4077 7.97668H63.0832L67.4032 12.2987L58.7047 20.9972H54.5661V9.76678H50.9859V20.9972L47.4077 24.5774H60.1863L72.4671 12.2987L64.5648 4.39648Z" fill="#E1251B"/>
</g>
<defs>
<clipPath id="clip0_7912_54281">
<rect width="80" height="24.5775" fill="white" transform="translate(0.5)"/>
</clipPath>
</defs>
</svg>
