<svg width="176" height="41" viewBox="0 0 176 41" fill="none" xmlns="http://www.w3.org/2000/svg">
<path d="M0 1.48564L6.64141 8.12706H30.7948L16.0315 22.8903V11.4503H9.39012V38.9271L46.8315 1.48564H0Z" fill="white"/>
<path d="M25.7633 27.2491L37.4362 38.9272H46.8315L30.4584 22.554L25.7633 27.2491Z" fill="white"/>
<path d="M51.5266 1.48564L44.8852 8.12706H82.3266L88.968 1.48564H51.5266Z" fill="white"/>
<path d="M82.3266 38.9271L88.968 32.2856H58.168V11.4503H51.5266V38.9271H82.3266Z" fill="white"/>
<path d="M82.9581 16.8856H61.1548V23.5271H76.3167L82.9581 16.8856Z" fill="white"/>
<path d="M118.852 1.48564H93.6631L87.0217 8.12706H116.103L124.116 16.1454L107.981 32.2856H100.304V11.4503H93.6631V32.2856L87.0217 38.9271H110.73L133.512 16.1454L118.852 1.48564Z" fill="white"/>
<path d="M154.73 11.7868L154.72 11.7765L154.73 11.7868Z" fill="#E1251B"/>
<path d="M176 0.0776439L170.948 0.0207103L169.286 0L163.281 0.0103473L154.73 11.7868L154.72 11.7765L146.763 0.134593L139.951 0.0517679L133.972 0.0569494L148.601 20.1986L148.611 20.2089L133.977 40.3609L139.956 40.3713C142.229 40.3454 144.496 40.3195 146.768 40.2936L151.831 33.3313L154.989 28.9882L163.281 40.4075L169.286 40.4179C171.522 40.392 173.764 40.3661 176 40.3402L161.366 20.2141L170.337 7.87859L176 0.0880069V0.0776439Z" fill="white"/>
<path d="M142.855 1.59953L152.183 15.2706L153.772 13.0809L145.961 1.64095L142.855 1.59953Z" fill="#E1251B"/>
<path d="M152.385 25.8461L142.959 38.8131H143.347L145.987 38.7821L154.052 27.6889L152.711 25.8461H152.385Z" fill="#E1251B"/>
<path d="M173.044 1.56325L170.052 1.52702L156.48 20.2089L170.052 38.8856L173.044 38.8494L160.139 21.0993L159.492 20.2089L160.139 19.3134L173.044 1.56325Z" fill="#E1251B"/>
</svg>
