<svg width="25" height="24" viewBox="0 0 25 24" fill="none" xmlns="http://www.w3.org/2000/svg">
<path d="M11.8333 1.52924C12.4006 1.20174 13.0994 1.20174 13.6667 1.52924L21.3596 5.97076C21.9268 6.29826 22.2763 6.90349 22.2763 7.55848V16.4415C22.2763 17.0965 21.9268 17.7017 21.3596 18.0292L13.6667 22.4708C13.0994 22.7983 12.4006 22.7983 11.8333 22.4708L4.14039 18.0292C3.57315 17.7017 3.22372 17.0965 3.22372 16.4415V7.55848C3.22372 6.90349 3.57315 6.29826 4.14039 5.97076L11.8333 1.52924Z" fill="#E1251B"/>
<path d="M6.56265 15C6.44425 15 6.35791 14.9753 6.30365 14.926C6.25431 14.8717 6.22965 14.7903 6.22965 14.6818V10.2862C6.22965 10.1777 6.25431 10.0987 6.30365 10.0494C6.35791 9.99513 6.44671 9.968 6.57005 9.968H7.02885C7.11271 9.968 7.17438 9.98033 7.21385 10.005C7.25825 10.0247 7.30511 10.0667 7.35445 10.1308L9.42645 13.0538V10.2936C9.42645 10.1851 9.45111 10.1037 9.50045 10.0494C9.55471 9.99513 9.64105 9.968 9.75945 9.968H10.3144C10.4378 9.968 10.5241 9.99513 10.5734 10.0494C10.6228 10.0987 10.6474 10.1801 10.6474 10.2936V14.6818C10.6474 14.7903 10.6228 14.8717 10.5734 14.926C10.5241 14.9753 10.4378 15 10.3144 15H9.84825C9.76931 15 9.70765 14.9901 9.66325 14.9704C9.62378 14.9457 9.57938 14.9013 9.53005 14.8372L7.45065 11.9216V14.6818C7.45065 14.7903 7.42598 14.8717 7.37665 14.926C7.32731 14.9753 7.24098 15 7.11765 15H6.56265ZM11.7369 15C11.6185 15 11.5321 14.9753 11.4779 14.926C11.4285 14.8717 11.4039 14.7903 11.4039 14.6818V10.2936C11.4039 10.1851 11.4285 10.1037 11.4779 10.0494C11.5321 9.99513 11.6185 9.968 11.7369 9.968H14.8079C14.9263 9.968 15.0077 9.99267 15.0521 10.042C15.0965 10.0864 15.1187 10.1653 15.1187 10.2788V10.5526C15.1187 10.6661 15.0965 10.7475 15.0521 10.7968C15.0077 10.8461 14.9263 10.8708 14.8079 10.8708H12.6249V12.0326H14.1493C14.2677 12.0326 14.3491 12.0573 14.3935 12.1066C14.4379 12.151 14.4601 12.2299 14.4601 12.3434V12.6172C14.4601 12.7307 14.4379 12.8121 14.3935 12.8614C14.3491 12.9107 14.2677 12.9354 14.1493 12.9354H12.6249V14.6818C12.6249 14.7903 12.6002 14.8717 12.5509 14.926C12.5015 14.9753 12.4152 15 12.2919 15H11.7369ZM17.1496 15C17.0263 15 16.9375 14.9753 16.8832 14.926C16.8339 14.8717 16.8092 14.7903 16.8092 14.6818V10.8708H15.5956C15.4772 10.8708 15.3958 10.8486 15.3514 10.8042C15.307 10.7549 15.2848 10.6735 15.2848 10.56V10.2862C15.2848 10.1727 15.307 10.0913 15.3514 10.042C15.3958 9.99267 15.4772 9.968 15.5956 9.968H19.2512C19.3696 9.968 19.451 9.99267 19.4954 10.042C19.5448 10.0913 19.5694 10.1727 19.5694 10.2862V10.56C19.5694 10.6685 19.5448 10.7475 19.4954 10.7968C19.451 10.8461 19.3696 10.8708 19.2512 10.8708H18.0376V14.6818C18.0376 14.7903 18.0105 14.8717 17.9562 14.926C17.9069 14.9753 17.8206 15 17.6972 15H17.1496Z" fill="white"/>
</svg>
