<svg width="25" height="24" viewBox="0 0 25 24" fill="none" xmlns="http://www.w3.org/2000/svg">
<path d="M11.9583 2.17876C12.2935 1.98524 12.7065 1.98524 13.0417 2.17876L20.7346 6.62028C21.0698 6.8138 21.2763 7.17144 21.2763 7.55848V16.4415C21.2763 16.8286 21.0698 17.1862 20.7346 17.3797L13.0417 21.8212C12.7065 22.0148 12.2935 22.0148 11.9583 21.8212L4.26539 17.3797C3.9302 17.1862 3.72372 16.8286 3.72372 16.4415V7.55848C3.72372 7.17144 3.9302 6.8138 4.26539 6.62028L11.9583 2.17876Z" stroke="#B78F8D" stroke-width="1.5"/>
<path d="M6.31265 15C6.19425 15 6.10791 14.9753 6.05365 14.926C6.00431 14.8717 5.97965 14.7903 5.97965 14.6818V10.2862C5.97965 10.1777 6.00431 10.0987 6.05365 10.0494C6.10791 9.99513 6.19671 9.968 6.32005 9.968H6.77885C6.86271 9.968 6.92438 9.98033 6.96385 10.005C7.00825 10.0247 7.05511 10.0667 7.10445 10.1308L9.17645 13.0538V10.2936C9.17645 10.1851 9.20111 10.1037 9.25045 10.0494C9.30471 9.99513 9.39105 9.968 9.50945 9.968H10.0644C10.1878 9.968 10.2741 9.99513 10.3234 10.0494C10.3728 10.0987 10.3974 10.1801 10.3974 10.2936V14.6818C10.3974 14.7903 10.3728 14.8717 10.3234 14.926C10.2741 14.9753 10.1878 15 10.0644 15H9.59825C9.51931 15 9.45765 14.9901 9.41325 14.9704C9.37378 14.9457 9.32938 14.9013 9.28005 14.8372L7.20065 11.9216V14.6818C7.20065 14.7903 7.17598 14.8717 7.12665 14.926C7.07731 14.9753 6.99098 15 6.86765 15H6.31265ZM11.4869 15C11.3685 15 11.2821 14.9753 11.2279 14.926C11.1785 14.8717 11.1539 14.7903 11.1539 14.6818V10.2936C11.1539 10.1851 11.1785 10.1037 11.2279 10.0494C11.2821 9.99513 11.3685 9.968 11.4869 9.968H14.5579C14.6763 9.968 14.7577 9.99267 14.8021 10.042C14.8465 10.0864 14.8687 10.1653 14.8687 10.2788V10.5526C14.8687 10.6661 14.8465 10.7475 14.8021 10.7968C14.7577 10.8461 14.6763 10.8708 14.5579 10.8708H12.3749V12.0326H13.8993C14.0177 12.0326 14.0991 12.0573 14.1435 12.1066C14.1879 12.151 14.2101 12.2299 14.2101 12.3434V12.6172C14.2101 12.7307 14.1879 12.8121 14.1435 12.8614C14.0991 12.9107 14.0177 12.9354 13.8993 12.9354H12.3749V14.6818C12.3749 14.7903 12.3502 14.8717 12.3009 14.926C12.2515 14.9753 12.1652 15 12.0419 15H11.4869ZM16.8996 15C16.7763 15 16.6875 14.9753 16.6332 14.926C16.5839 14.8717 16.5592 14.7903 16.5592 14.6818V10.8708H15.3456C15.2272 10.8708 15.1458 10.8486 15.1014 10.8042C15.057 10.7549 15.0348 10.6735 15.0348 10.56V10.2862C15.0348 10.1727 15.057 10.0913 15.1014 10.042C15.1458 9.99267 15.2272 9.968 15.3456 9.968H19.0012C19.1196 9.968 19.201 9.99267 19.2454 10.042C19.2948 10.0913 19.3194 10.1727 19.3194 10.2862V10.56C19.3194 10.6685 19.2948 10.7475 19.2454 10.7968C19.201 10.8461 19.1196 10.8708 19.0012 10.8708H17.7876V14.6818C17.7876 14.7903 17.7605 14.8717 17.7062 14.926C17.6569 14.9753 17.5706 15 17.4472 15H16.8996Z" fill="#B78F8D"/>
</svg>
