<svg width="34" height="34" viewBox="0 0 24 24" fill="none" xmlns="http://www.w3.org/2000/svg">
    <path
        d="M11.9953 0C18.6257 0 24 5.37426 24 12.0047C24 18.6352 18.6257 24.0047 12 24.0047C5.36954 24.0047 3.11002e-06 18.6305 3.11002e-06 12.0047C-0.00471944 5.37426 5.36954 0 11.9953 0Z"
        fill="#8247E5" />
    <path
        d="M15.929 9.38845C15.6409 9.22316 15.2725 9.22316 14.9467 9.38845L12.6515 10.7485L11.0931 11.6128L8.84042 12.9681C8.55235 13.1334 8.18399 13.1334 7.85813 12.9681L6.09662 11.8961C5.80855 11.7308 5.60548 11.4003 5.60548 11.0319V8.97287C5.60548 8.64229 5.77077 8.31643 6.09662 8.10864L7.85813 7.07913C8.14621 6.91384 8.51457 6.91384 8.84042 7.07913L10.6019 8.15115C10.89 8.31643 11.0931 8.64701 11.0931 9.01537V10.3755L12.6515 9.46874V8.07086C12.6515 7.74028 12.4862 7.41443 12.1604 7.20664L8.88293 5.27039C8.59485 5.1051 8.22649 5.1051 7.90064 5.27039L4.5429 7.24914C4.21705 7.41443 4.05176 7.74501 4.05176 8.07086V11.9386C4.05176 12.2692 4.21705 12.5951 4.5429 12.8029L7.86285 14.7391C8.15093 14.9044 8.51929 14.9044 8.84515 14.7391L11.0978 13.4215L12.6562 12.5148L14.9089 11.1972C15.197 11.0319 15.5653 11.0319 15.8912 11.1972L17.6527 12.2267C17.9408 12.392 18.1438 12.7226 18.1438 13.0909V15.15C18.1438 15.4805 17.9786 15.8064 17.6527 16.0142L15.9337 17.0437C15.6456 17.209 15.2773 17.209 14.9514 17.0437L13.1852 16.0142C12.8971 15.8489 12.694 15.5183 12.694 15.15V13.8324L11.1356 14.7391V16.0992C11.1356 16.4298 11.3009 16.7556 11.6267 16.9634L14.9467 18.8997C15.2348 19.065 15.6031 19.065 15.929 18.8997L19.2489 16.9634C19.537 16.7981 19.7401 16.4676 19.7401 16.0992V12.1889C19.7401 11.8583 19.5748 11.5325 19.2489 11.3247L15.929 9.38845Z"
        fill="white" />
</svg>