<svg width="16" height="16" viewBox="0 0 16 16" fill="none" xmlns="http://www.w3.org/2000/svg">
<path d="M1.33301 5.99992V4.33325C1.33301 2.67325 2.67301 1.33325 4.33301 1.33325H5.99967" stroke="white" stroke-width="1.2" stroke-linecap="round" stroke-linejoin="round"/>
<path d="M10 1.33325H11.6667C13.3267 1.33325 14.6667 2.67325 14.6667 4.33325V5.99992" stroke="white" stroke-width="1.2" stroke-linecap="round" stroke-linejoin="round"/>
<path d="M14.667 10.6667V11.6667C14.667 13.3267 13.327 14.6667 11.667 14.6667H10.667" stroke="white" stroke-width="1.2" stroke-linecap="round" stroke-linejoin="round"/>
<path d="M5.99967 14.6667H4.33301C2.67301 14.6667 1.33301 13.3267 1.33301 11.6667V10" stroke="white" stroke-width="1.2" stroke-linecap="round" stroke-linejoin="round"/>
<path d="M11.3337 6.33325V9.66659C11.3337 10.9999 10.667 11.6666 9.33366 11.6666H6.66699C5.33366 11.6666 4.66699 10.9999 4.66699 9.66659V6.33325C4.66699 4.99992 5.33366 4.33325 6.66699 4.33325H9.33366C10.667 4.33325 11.3337 4.99992 11.3337 6.33325Z" stroke="white" stroke-width="1.2" stroke-linecap="round" stroke-linejoin="round"/>
<path d="M12.6663 8H3.33301" stroke="white" stroke-width="1.2" stroke-linecap="round" stroke-linejoin="round"/>
</svg>
