<svg width="265" height="264" viewBox="0 0 265 264" fill="none" xmlns="http://www.w3.org/2000/svg">
<rect x="76.0403" y="20.1351" width="123.243" height="238.444" rx="20.1081" fill="white" stroke="#E1251B" stroke-width="1.2973"/>
<path d="M82.2683 41.2811C82.2683 33.0416 88.9477 26.3622 97.1872 26.3622H178.139C186.378 26.3622 193.058 33.0416 193.058 41.2811V237.433C193.058 245.672 186.378 252.352 178.139 252.352H97.1872C88.9477 252.352 82.2683 245.672 82.2683 237.433V41.2811Z" stroke="#E1251B" stroke-width="1.2973"/>
<path d="M104.452 26.2323L106.179 31.1986C107.63 35.371 111.564 38.1674 115.981 38.1674H160.381C164.799 38.1674 168.732 35.371 170.184 31.1986L171.911 26.2323" stroke="#E1251B" stroke-width="1.2973"/>
<rect x="125.208" y="30.9027" width="28.0217" height="2.07568" rx="1.03784" fill="#E1251B"/>
<circle cx="118.981" cy="31.9405" r="2.07568" fill="#E1251B"/>
<circle cx="158.418" cy="31.9405" r="1.03784" fill="#E1251B"/>
<path d="M157.046 56.9885C157.269 55.4183 157.634 55.4183 157.857 56.9885C158.08 58.5587 159.547 60.0258 161.117 60.2487C162.687 60.4717 162.687 60.8365 161.117 61.0595C159.547 61.2824 158.08 62.7495 157.857 64.3197C157.634 65.8899 157.269 65.8899 157.046 64.3197C156.823 62.7495 155.356 61.2824 153.786 61.0595C152.216 60.8365 152.216 60.4717 153.786 60.2487C155.356 60.0258 156.823 58.5587 157.046 56.9885Z" fill="#E1251B"/>
<path d="M18.2352 140.016C18.4581 138.445 18.823 138.445 19.0459 140.016C19.2689 141.586 20.736 143.053 22.3062 143.276C23.8763 143.499 23.8763 143.864 22.3062 144.087C20.736 144.31 19.2689 145.777 19.0459 147.347C18.823 148.917 18.4581 148.917 18.2352 147.347C18.0122 145.777 16.5451 144.31 14.9749 144.087C13.4048 143.864 13.4048 143.499 14.9749 143.276C16.5451 143.053 18.0122 141.586 18.2352 140.016Z" fill="#E1251B"/>
<path d="M162.661 215.027C162.84 213.766 163.133 213.766 163.312 215.027C163.492 216.289 164.67 217.468 165.932 217.647C167.194 217.826 167.194 218.12 165.932 218.299C164.67 218.478 163.492 219.657 163.312 220.919C163.133 222.18 162.84 222.18 162.661 220.919C162.482 219.657 161.303 218.478 160.041 218.299C158.779 218.12 158.779 217.826 160.041 217.647C161.303 217.468 162.482 216.289 162.661 215.027Z" fill="#E1251B"/>
<path d="M230.792 87.6379C227.74 87.6379 225.257 85.1549 225.257 82.1026C225.257 79.0503 227.74 76.5676 230.792 76.5676C233.844 76.5676 236.327 79.0506 236.327 82.1026C236.327 85.1546 233.844 87.6379 230.792 87.6379ZM230.792 77.8962C228.473 77.8962 226.585 79.7833 226.585 82.1026C226.585 84.4219 228.473 86.3094 230.792 86.3094C233.112 86.3094 234.999 84.4222 234.999 82.1026C234.999 79.783 233.112 77.8962 230.792 77.8962Z" fill="#E1251B"/>
<path d="M15.7434 55.8108C13.9551 55.8108 12.5 54.3559 12.5 52.5675C12.5 50.779 13.9551 49.3243 15.7434 49.3243C17.5316 49.3243 18.9865 50.7792 18.9865 52.5675C18.9865 54.3557 17.5316 55.8108 15.7434 55.8108ZM15.7434 50.1028C14.3842 50.1028 13.2784 51.2085 13.2784 52.5675C13.2784 53.9264 14.3842 55.0324 15.7434 55.0324C17.1025 55.0324 18.2081 53.9266 18.2081 52.5675C18.2081 51.2083 17.1023 50.1028 15.7434 50.1028Z" fill="#E1251B"/>
<path d="M217.99 14.5141C218.277 12.4953 218.746 12.4953 219.032 14.5141C219.319 16.5329 221.205 18.4192 223.224 18.7059C225.243 18.9925 225.243 19.4615 223.224 19.7482C221.205 20.0349 219.319 21.9211 219.032 23.94C218.746 25.9588 218.277 25.9588 217.99 23.94C217.703 21.9211 215.817 20.0349 213.798 19.7482C211.779 19.4615 211.779 18.9925 213.798 18.7059C215.817 18.4192 217.703 16.5329 217.99 14.5141Z" fill="#E1251B"/>
<path d="M224.476 231.163C224.763 229.144 225.232 229.144 225.519 231.163C225.805 233.182 227.692 235.068 229.71 235.355C231.729 235.641 231.729 236.11 229.71 236.397C227.692 236.684 225.805 238.57 225.519 240.589C225.232 242.608 224.763 242.608 224.476 240.589C224.19 238.57 222.303 236.684 220.285 236.397C218.266 236.11 218.266 235.641 220.285 235.355C222.303 235.068 224.19 233.182 224.476 231.163Z" fill="#E1251B"/>
<path d="M240.67 150.347H152.837C151.229 150.347 149.686 149.707 148.548 148.567C147.41 147.427 146.77 145.881 146.77 144.268C146.77 142.655 147.41 141.109 148.548 139.969C149.686 138.829 151.229 138.189 152.837 138.189H240.67C242.279 138.189 243.822 138.829 244.96 139.969C246.098 141.109 246.737 142.655 246.737 144.268C246.737 145.881 246.098 147.427 244.96 148.567C243.822 149.707 242.279 150.347 240.67 150.347Z" fill="white" stroke="#E1251B" stroke-width="1.2973"/>
<path d="M155.567 146.722C155.504 146.722 155.441 146.709 155.382 146.683C155.324 146.657 155.271 146.62 155.228 146.573C155.18 146.525 155.142 146.467 155.117 146.403C155.092 146.339 155.08 146.27 155.082 146.201C155.082 146.085 155.113 145.971 155.171 145.871L155.899 144.714H154.411C154.342 144.718 154.274 144.706 154.21 144.681C154.146 144.655 154.088 144.616 154.039 144.565C153.956 144.467 153.911 144.341 153.911 144.21C153.911 144.08 153.956 143.954 154.039 143.855C154.088 143.805 154.146 143.765 154.21 143.74C154.274 143.714 154.342 143.703 154.411 143.706L155.874 143.748L155.228 142.674C155.163 142.564 155.127 142.438 155.123 142.31C155.121 142.241 155.133 142.173 155.158 142.109C155.183 142.045 155.22 141.987 155.268 141.938C155.313 141.891 155.367 141.854 155.427 141.828C155.487 141.803 155.551 141.789 155.616 141.79C155.706 141.788 155.795 141.814 155.871 141.864C155.947 141.914 156.008 141.986 156.044 142.071L156.755 143.368L157.434 142.128C157.477 142.032 157.545 141.949 157.63 141.89C157.716 141.83 157.816 141.795 157.919 141.79C157.983 141.79 158.046 141.803 158.104 141.828C158.162 141.854 158.215 141.891 158.259 141.938C158.306 141.984 158.344 142.039 158.369 142.1C158.394 142.161 158.406 142.227 158.404 142.294C158.403 142.411 158.37 142.525 158.307 142.624L157.596 143.789L159.075 143.748C159.144 143.743 159.213 143.755 159.277 143.78C159.341 143.806 159.399 143.846 159.447 143.896C159.53 143.995 159.576 144.121 159.576 144.252C159.576 144.382 159.53 144.508 159.447 144.607C159.399 144.658 159.341 144.697 159.277 144.723C159.213 144.749 159.144 144.76 159.075 144.756H157.58L158.243 145.813C158.317 145.941 158.359 146.086 158.364 146.234C158.366 146.301 158.355 146.368 158.332 146.43C158.308 146.493 158.272 146.55 158.226 146.598C158.184 146.644 158.133 146.681 158.076 146.707C158.019 146.732 157.957 146.746 157.895 146.747C157.795 146.744 157.698 146.712 157.615 146.655C157.532 146.598 157.466 146.518 157.426 146.424L156.755 145.21L156.084 146.424C156.036 146.52 155.961 146.599 155.869 146.652C155.777 146.705 155.672 146.729 155.567 146.722Z" fill="#E1251B"/>
<path d="M164.286 146.747C164.214 146.747 164.143 146.733 164.077 146.708C164.01 146.682 163.951 146.645 163.901 146.598C163.847 146.55 163.804 146.492 163.776 146.428C163.748 146.365 163.734 146.296 163.736 146.228C163.736 146.112 163.771 145.998 163.837 145.898L164.661 144.746H162.976C162.898 144.749 162.82 144.738 162.748 144.712C162.675 144.687 162.609 144.648 162.555 144.597C162.461 144.499 162.409 144.373 162.409 144.243C162.409 144.113 162.461 143.988 162.555 143.889C162.609 143.839 162.675 143.8 162.748 143.774C162.82 143.749 162.898 143.738 162.976 143.741L164.634 143.782L163.855 142.671C163.782 142.561 163.741 142.436 163.736 142.308C163.734 142.24 163.748 142.171 163.776 142.108C163.804 142.044 163.847 141.986 163.901 141.938C163.952 141.891 164.014 141.853 164.081 141.828C164.149 141.802 164.222 141.789 164.295 141.79C164.398 141.788 164.498 141.814 164.585 141.864C164.671 141.914 164.739 141.985 164.78 142.07L165.586 143.362L166.356 142.127C166.404 142.031 166.481 141.949 166.578 141.889C166.675 141.83 166.788 141.795 166.905 141.79C166.977 141.79 167.048 141.803 167.115 141.828C167.181 141.854 167.24 141.891 167.29 141.938C167.344 141.983 167.386 142.038 167.414 142.099C167.443 142.16 167.457 142.226 167.455 142.292C167.454 142.409 167.415 142.523 167.345 142.621L166.539 143.782L168.215 143.741C168.293 143.737 168.371 143.748 168.444 143.774C168.516 143.799 168.582 143.839 168.636 143.889C168.73 143.988 168.782 144.113 168.782 144.243C168.782 144.373 168.73 144.499 168.636 144.597C168.582 144.648 168.516 144.688 168.444 144.713C168.371 144.739 168.293 144.75 168.215 144.746H166.521L167.272 145.8C167.356 145.927 167.404 146.071 167.409 146.22C167.412 146.286 167.399 146.353 167.372 146.415C167.346 146.477 167.305 146.534 167.253 146.582C167.205 146.628 167.147 146.665 167.082 146.691C167.018 146.716 166.948 146.729 166.878 146.73C166.764 146.729 166.653 146.697 166.559 146.64C166.465 146.583 166.391 146.503 166.347 146.409L165.586 145.199L164.826 146.409C164.781 146.506 164.706 146.589 164.611 146.648C164.515 146.708 164.402 146.742 164.286 146.747Z" fill="#E1251B"/>
<path d="M173.494 146.747C173.422 146.747 173.351 146.733 173.284 146.708C173.218 146.682 173.159 146.645 173.109 146.598C173.055 146.55 173.012 146.492 172.984 146.428C172.956 146.365 172.942 146.296 172.944 146.228C172.944 146.112 172.979 145.998 173.045 145.898L173.869 144.746H172.184C172.106 144.749 172.028 144.738 171.956 144.712C171.883 144.687 171.817 144.648 171.763 144.597C171.669 144.499 171.617 144.373 171.617 144.243C171.617 144.113 171.669 143.988 171.763 143.889C171.817 143.839 171.883 143.8 171.956 143.774C172.028 143.749 172.106 143.738 172.184 143.741L173.842 143.782L173.063 142.671C172.99 142.561 172.949 142.436 172.944 142.308C172.942 142.24 172.956 142.171 172.984 142.108C173.012 142.044 173.055 141.986 173.109 141.938C173.16 141.891 173.222 141.853 173.289 141.828C173.357 141.802 173.43 141.789 173.503 141.79C173.605 141.788 173.706 141.814 173.792 141.864C173.879 141.914 173.947 141.985 173.988 142.07L174.794 143.362L175.564 142.127C175.612 142.031 175.689 141.949 175.786 141.889C175.883 141.83 175.996 141.795 176.113 141.79C176.185 141.79 176.256 141.803 176.322 141.828C176.388 141.854 176.448 141.891 176.498 141.938C176.551 141.983 176.594 142.038 176.622 142.099C176.651 142.16 176.664 142.226 176.663 142.292C176.661 142.409 176.623 142.523 176.553 142.621L175.747 143.782L177.423 143.741C177.501 143.737 177.579 143.748 177.652 143.774C177.724 143.799 177.79 143.839 177.844 143.889C177.938 143.988 177.99 144.113 177.99 144.243C177.99 144.373 177.938 144.499 177.844 144.597C177.79 144.648 177.724 144.688 177.652 144.713C177.579 144.739 177.501 144.75 177.423 144.746H175.728L176.479 145.8C176.564 145.927 176.611 146.071 176.617 146.22C176.619 146.286 176.607 146.353 176.58 146.415C176.553 146.477 176.513 146.534 176.461 146.582C176.413 146.628 176.355 146.665 176.29 146.691C176.226 146.716 176.156 146.729 176.086 146.73C175.972 146.729 175.861 146.697 175.767 146.64C175.673 146.583 175.599 146.503 175.554 146.409L174.794 145.199L174.034 146.409C173.989 146.506 173.914 146.589 173.818 146.648C173.723 146.708 173.61 146.742 173.494 146.747Z" fill="#E1251B"/>
<path d="M182.49 146.747C182.426 146.747 182.363 146.733 182.304 146.708C182.246 146.682 182.193 146.645 182.148 146.598C182.1 146.55 182.062 146.492 182.037 146.428C182.012 146.365 182 146.296 182.002 146.228C182.002 146.112 182.033 145.998 182.091 145.898L182.824 144.746H181.326C181.257 144.749 181.188 144.738 181.123 144.712C181.059 144.687 181 144.648 180.952 144.597C180.868 144.499 180.822 144.373 180.822 144.243C180.822 144.113 180.868 143.988 180.952 143.889C181 143.839 181.059 143.8 181.123 143.774C181.188 143.749 181.257 143.738 181.326 143.741L182.8 143.782L182.108 142.671C182.042 142.561 182.006 142.436 182.002 142.308C182 142.24 182.012 142.171 182.037 142.108C182.062 142.044 182.1 141.986 182.148 141.938C182.194 141.891 182.249 141.853 182.309 141.828C182.369 141.802 182.433 141.789 182.498 141.79C182.59 141.788 182.679 141.814 182.756 141.864C182.833 141.914 182.893 141.985 182.93 142.07L183.646 143.362L184.33 142.127C184.373 142.031 184.442 141.949 184.528 141.889C184.614 141.83 184.715 141.795 184.819 141.79C184.883 141.79 184.946 141.803 185.005 141.828C185.063 141.854 185.117 141.891 185.161 141.938C185.208 141.983 185.246 142.038 185.271 142.099C185.297 142.16 185.309 142.226 185.307 142.292C185.306 142.409 185.272 142.523 185.209 142.621L184.493 143.782L185.983 143.741C186.052 143.737 186.122 143.748 186.186 143.774C186.251 143.799 186.309 143.839 186.357 143.889C186.441 143.988 186.487 144.113 186.487 144.243C186.487 144.373 186.441 144.499 186.357 144.597C186.309 144.648 186.251 144.688 186.186 144.713C186.122 144.739 186.052 144.75 185.983 144.746H184.477L185.144 145.8C185.22 145.927 185.262 146.071 185.266 146.22C185.269 146.286 185.258 146.353 185.234 146.415C185.21 146.477 185.174 146.534 185.128 146.582C185.085 146.628 185.034 146.665 184.976 146.691C184.919 146.716 184.857 146.729 184.794 146.73C184.694 146.728 184.596 146.696 184.512 146.639C184.428 146.582 184.362 146.502 184.322 146.409L183.646 145.199L182.971 146.409C182.931 146.506 182.864 146.589 182.779 146.648C182.694 146.708 182.594 146.742 182.49 146.747Z" fill="#E1251B"/>
<path d="M190.986 146.747C190.922 146.747 190.859 146.733 190.8 146.708C190.742 146.682 190.689 146.645 190.644 146.598C190.596 146.55 190.558 146.492 190.533 146.428C190.508 146.365 190.496 146.296 190.498 146.228C190.502 146.112 190.532 146 190.588 145.898L191.32 144.746H189.822C189.753 144.749 189.684 144.738 189.619 144.712C189.555 144.687 189.496 144.648 189.448 144.597C189.364 144.499 189.318 144.373 189.318 144.243C189.318 144.113 189.364 143.988 189.448 143.889C189.496 143.839 189.555 143.8 189.619 143.774C189.684 143.749 189.753 143.738 189.822 143.741L191.296 143.782L190.604 142.671C190.538 142.561 190.502 142.436 190.498 142.308C190.496 142.24 190.508 142.171 190.533 142.108C190.558 142.044 190.596 141.986 190.644 141.938C190.69 141.891 190.745 141.853 190.805 141.828C190.865 141.802 190.929 141.789 190.995 141.79C191.086 141.788 191.175 141.814 191.252 141.864C191.329 141.914 191.389 141.985 191.426 142.07L192.142 143.362L192.826 142.127C192.869 142.031 192.938 141.949 193.024 141.889C193.11 141.83 193.211 141.795 193.315 141.79C193.379 141.789 193.442 141.801 193.501 141.827C193.56 141.852 193.613 141.89 193.657 141.938C193.704 141.983 193.742 142.038 193.767 142.099C193.793 142.16 193.805 142.226 193.803 142.292C193.802 142.409 193.768 142.523 193.706 142.621L192.989 143.782L194.479 143.741C194.548 143.737 194.618 143.748 194.682 143.774C194.747 143.799 194.805 143.839 194.853 143.889C194.937 143.988 194.983 144.113 194.983 144.243C194.983 144.373 194.937 144.499 194.853 144.597C194.805 144.648 194.747 144.688 194.682 144.713C194.618 144.739 194.548 144.75 194.479 144.746H192.973L193.64 145.8C193.716 145.927 193.758 146.071 193.763 146.22C193.765 146.286 193.754 146.353 193.73 146.415C193.706 146.477 193.67 146.534 193.624 146.582C193.581 146.628 193.53 146.665 193.472 146.691C193.415 146.716 193.353 146.729 193.29 146.73C193.19 146.728 193.092 146.696 193.008 146.639C192.924 146.582 192.858 146.502 192.818 146.409L192.142 145.199L191.467 146.409C191.427 146.506 191.36 146.589 191.275 146.648C191.19 146.708 191.09 146.742 190.986 146.747Z" fill="#E1251B"/>
<path d="M199.693 146.747C199.621 146.747 199.55 146.733 199.484 146.708C199.418 146.682 199.358 146.645 199.308 146.598C199.254 146.55 199.212 146.492 199.183 146.428C199.155 146.365 199.141 146.296 199.143 146.228C199.148 146.112 199.182 146 199.244 145.898L200.069 144.746H198.392C198.313 144.75 198.234 144.739 198.159 144.713C198.085 144.688 198.018 144.648 197.962 144.597C197.868 144.499 197.816 144.373 197.816 144.243C197.816 144.113 197.868 143.988 197.962 143.889C198.018 143.838 198.085 143.799 198.159 143.773C198.234 143.748 198.313 143.737 198.392 143.741L200.041 143.782L199.263 142.671C199.189 142.561 199.148 142.436 199.143 142.308C199.141 142.24 199.155 142.171 199.183 142.108C199.212 142.044 199.254 141.986 199.308 141.938C199.36 141.891 199.421 141.853 199.489 141.828C199.556 141.802 199.629 141.789 199.702 141.79C199.805 141.788 199.905 141.814 199.992 141.864C200.078 141.914 200.146 141.985 200.188 142.07L200.994 143.362L201.763 142.127C201.811 142.031 201.888 141.949 201.985 141.889C202.082 141.83 202.195 141.795 202.312 141.79C202.385 141.789 202.456 141.801 202.522 141.827C202.589 141.852 202.648 141.89 202.697 141.938C202.751 141.983 202.793 142.038 202.822 142.099C202.85 142.16 202.864 142.226 202.862 142.292C202.861 142.409 202.823 142.523 202.752 142.621L201.946 143.782L203.622 143.741C203.7 143.737 203.778 143.748 203.851 143.774C203.924 143.799 203.989 143.839 204.043 143.889C204.138 143.988 204.189 144.113 204.189 144.243C204.189 144.373 204.138 144.499 204.043 144.597C203.989 144.648 203.924 144.688 203.851 144.713C203.778 144.739 203.7 144.75 203.622 144.746H201.928L202.679 145.8C202.764 145.927 202.811 146.071 202.816 146.22C202.819 146.286 202.806 146.353 202.78 146.415C202.753 146.477 202.712 146.534 202.66 146.582C202.612 146.628 202.554 146.665 202.49 146.691C202.425 146.716 202.355 146.729 202.285 146.73C202.172 146.728 202.061 146.696 201.967 146.639C201.873 146.582 201.799 146.502 201.754 146.409L200.994 145.199L200.233 146.409C200.188 146.506 200.113 146.589 200.018 146.648C199.922 146.708 199.809 146.742 199.693 146.747Z" fill="#E1251B"/>
<path d="M208.906 146.722C208.834 146.722 208.763 146.709 208.696 146.683C208.63 146.657 208.57 146.62 208.52 146.573C208.466 146.525 208.423 146.467 208.394 146.403C208.366 146.339 208.352 146.27 208.354 146.201C208.354 146.085 208.389 145.971 208.456 145.871L209.284 144.714H207.591C207.513 144.718 207.435 144.706 207.362 144.681C207.289 144.655 207.223 144.616 207.168 144.565C207.073 144.467 207.021 144.341 207.021 144.21C207.021 144.08 207.073 143.954 207.168 143.855C207.223 143.805 207.289 143.765 207.362 143.74C207.435 143.714 207.513 143.703 207.591 143.706L209.256 143.748L208.446 142.674C208.373 142.564 208.332 142.438 208.327 142.31C208.325 142.241 208.338 142.173 208.367 142.109C208.395 142.045 208.438 141.987 208.492 141.938C208.544 141.891 208.606 141.854 208.673 141.828C208.741 141.803 208.814 141.789 208.888 141.79C208.991 141.788 209.092 141.814 209.179 141.864C209.266 141.914 209.334 141.986 209.376 142.071L210.185 143.368L210.958 142.128C211.006 142.032 211.084 141.949 211.181 141.89C211.278 141.83 211.392 141.795 211.51 141.79C211.582 141.789 211.654 141.801 211.72 141.827C211.787 141.853 211.847 141.891 211.896 141.938C211.95 141.984 211.992 142.039 212.021 142.1C212.05 142.161 212.063 142.227 212.061 142.294C212.06 142.411 212.022 142.525 211.951 142.624L211.142 143.789L212.825 143.748C212.903 143.743 212.982 143.755 213.055 143.78C213.128 143.806 213.194 143.846 213.248 143.896C213.343 143.995 213.395 144.121 213.395 144.252C213.395 144.382 213.343 144.508 213.248 144.607C213.194 144.658 213.128 144.697 213.055 144.723C212.982 144.749 212.903 144.76 212.825 144.756H211.123L211.878 145.813C211.963 145.941 212.01 146.086 212.015 146.234C212.018 146.301 212.006 146.368 211.979 146.43C211.952 146.493 211.911 146.55 211.859 146.598C211.811 146.644 211.752 146.681 211.687 146.707C211.623 146.732 211.553 146.746 211.482 146.747C211.368 146.744 211.257 146.712 211.163 146.655C211.068 146.598 210.994 146.518 210.948 146.424L210.185 145.21L209.422 146.424C209.372 146.51 209.298 146.582 209.208 146.635C209.118 146.687 209.014 146.717 208.906 146.722Z" fill="#E1251B"/>
<path d="M217.898 146.747C217.834 146.747 217.77 146.733 217.712 146.708C217.653 146.682 217.6 146.645 217.556 146.598C217.508 146.55 217.47 146.492 217.445 146.428C217.419 146.365 217.407 146.296 217.409 146.228C217.413 146.112 217.444 146 217.499 145.898L218.231 144.746H216.742C216.672 144.751 216.603 144.74 216.538 144.715C216.473 144.689 216.415 144.649 216.367 144.598C216.278 144.501 216.229 144.375 216.229 144.243C216.229 144.112 216.278 143.985 216.367 143.889C216.415 143.838 216.473 143.798 216.538 143.772C216.603 143.746 216.672 143.736 216.742 143.741L218.207 143.782L217.515 142.671C217.45 142.561 217.413 142.436 217.409 142.309C217.407 142.241 217.418 142.174 217.442 142.111C217.466 142.048 217.502 141.991 217.549 141.943C217.595 141.894 217.651 141.856 217.712 141.83C217.773 141.803 217.839 141.79 217.906 141.79C217.997 141.788 218.086 141.814 218.163 141.864C218.24 141.914 218.3 141.985 218.337 142.07L219.054 143.362L219.737 142.127C219.781 142.031 219.849 141.949 219.935 141.889C220.021 141.83 220.122 141.795 220.226 141.79C220.29 141.788 220.354 141.8 220.413 141.826C220.472 141.851 220.525 141.89 220.568 141.938C220.616 141.983 220.653 142.038 220.679 142.099C220.704 142.16 220.716 142.226 220.714 142.292C220.713 142.409 220.679 142.523 220.617 142.621L219.9 143.782L221.39 143.741C221.459 143.737 221.529 143.748 221.593 143.774C221.658 143.799 221.716 143.839 221.765 143.889C221.848 143.988 221.894 144.114 221.894 144.243C221.894 144.373 221.848 144.499 221.765 144.598C221.716 144.648 221.658 144.688 221.593 144.713C221.529 144.739 221.459 144.75 221.39 144.746H219.884L220.552 145.8C220.627 145.927 220.669 146.071 220.674 146.22C220.676 146.284 220.665 146.349 220.643 146.41C220.62 146.471 220.586 146.526 220.542 146.574C220.498 146.621 220.446 146.659 220.387 146.686C220.329 146.713 220.266 146.728 220.202 146.73C220.101 146.728 220.003 146.696 219.919 146.639C219.835 146.582 219.77 146.502 219.729 146.409L219.054 145.199L218.378 146.409C218.338 146.506 218.271 146.589 218.186 146.648C218.101 146.708 218.001 146.742 217.898 146.747Z" fill="#E1251B"/>
<path d="M226.393 146.747C226.329 146.747 226.266 146.733 226.207 146.708C226.149 146.682 226.096 146.645 226.052 146.598C226.003 146.55 225.966 146.492 225.94 146.428C225.915 146.365 225.903 146.296 225.905 146.228C225.909 146.112 225.939 146 225.995 145.898L226.727 144.746H225.229C225.161 144.75 225.093 144.739 225.03 144.713C224.966 144.687 224.91 144.648 224.863 144.598C224.774 144.501 224.725 144.375 224.725 144.243C224.725 144.112 224.774 143.985 224.863 143.889C224.91 143.839 224.966 143.8 225.03 143.774C225.093 143.748 225.161 143.737 225.229 143.741L226.703 143.782L226.011 142.671C225.946 142.561 225.909 142.436 225.905 142.309C225.903 142.241 225.914 142.174 225.938 142.111C225.962 142.048 225.998 141.991 226.045 141.943C226.091 141.894 226.146 141.856 226.208 141.83C226.269 141.803 226.335 141.79 226.402 141.79C226.493 141.788 226.582 141.814 226.659 141.864C226.736 141.914 226.796 141.985 226.833 142.07L227.549 143.362L228.233 142.127C228.276 142.031 228.345 141.949 228.431 141.889C228.517 141.83 228.618 141.795 228.722 141.79C228.786 141.788 228.85 141.8 228.909 141.826C228.968 141.851 229.021 141.89 229.064 141.938C229.111 141.983 229.149 142.038 229.174 142.099C229.2 142.16 229.212 142.226 229.21 142.292C229.209 142.409 229.175 142.523 229.113 142.621L228.396 143.782L229.886 143.741C229.955 143.737 230.025 143.748 230.089 143.774C230.154 143.799 230.212 143.839 230.26 143.889C230.344 143.988 230.39 144.114 230.39 144.243C230.39 144.373 230.344 144.499 230.26 144.598C230.212 144.648 230.154 144.688 230.089 144.713C230.025 144.739 229.955 144.75 229.886 144.746H228.38L229.047 145.8C229.123 145.927 229.165 146.071 229.169 146.22C229.172 146.284 229.161 146.349 229.139 146.41C229.116 146.471 229.082 146.526 229.038 146.574C228.994 146.621 228.942 146.659 228.883 146.686C228.825 146.713 228.761 146.728 228.697 146.73C228.597 146.728 228.499 146.696 228.415 146.639C228.331 146.582 228.265 146.502 228.225 146.409L227.549 145.199L226.874 146.409C226.834 146.506 226.767 146.589 226.682 146.648C226.597 146.708 226.497 146.742 226.393 146.747Z" fill="#E1251B"/>
<path d="M235.1 146.747C235.028 146.747 234.957 146.733 234.891 146.708C234.825 146.682 234.765 146.645 234.716 146.598C234.661 146.55 234.619 146.492 234.591 146.428C234.562 146.365 234.549 146.296 234.551 146.228C234.555 146.112 234.59 146 234.652 145.898L235.476 144.746H233.791C233.714 144.75 233.637 144.739 233.566 144.713C233.495 144.687 233.431 144.648 233.378 144.598C233.279 144.501 233.223 144.375 233.223 144.243C233.223 144.112 233.279 143.985 233.378 143.889C233.431 143.839 233.495 143.8 233.566 143.774C233.637 143.748 233.714 143.737 233.791 143.741L235.448 143.782L234.67 142.671C234.596 142.561 234.555 142.436 234.551 142.309C234.549 142.24 234.562 142.172 234.591 142.108C234.619 142.044 234.661 141.986 234.716 141.938C234.767 141.891 234.828 141.854 234.896 141.828C234.964 141.803 235.036 141.79 235.109 141.79C235.212 141.788 235.313 141.814 235.399 141.864C235.485 141.914 235.553 141.985 235.595 142.07L236.401 143.362L237.17 142.127C237.219 142.031 237.295 141.949 237.392 141.889C237.489 141.83 237.602 141.795 237.72 141.79C237.792 141.788 237.864 141.8 237.93 141.826C237.997 141.851 238.056 141.89 238.104 141.938C238.158 141.983 238.2 142.038 238.229 142.099C238.257 142.16 238.271 142.226 238.269 142.292C238.268 142.409 238.23 142.523 238.159 142.621L237.353 143.782L239.029 143.741C239.107 143.737 239.185 143.748 239.258 143.774C239.331 143.799 239.396 143.839 239.451 143.889C239.545 143.988 239.596 144.114 239.596 144.243C239.596 144.373 239.545 144.499 239.451 144.598C239.396 144.648 239.331 144.688 239.258 144.713C239.185 144.739 239.107 144.75 239.029 144.746H237.335L238.086 145.8C238.171 145.927 238.218 146.071 238.223 146.22C238.226 146.286 238.214 146.353 238.187 146.415C238.16 146.477 238.119 146.534 238.068 146.582C238.019 146.628 237.961 146.665 237.897 146.691C237.832 146.716 237.763 146.729 237.692 146.73C237.579 146.728 237.469 146.696 237.374 146.639C237.28 146.582 237.206 146.502 237.161 146.409L236.401 145.199L235.641 146.409C235.596 146.506 235.521 146.589 235.425 146.648C235.329 146.708 235.217 146.742 235.1 146.747Z" fill="#E1251B"/>
<path d="M245.784 170.017H157.951C156.342 170.017 154.799 169.377 153.661 168.237C152.523 167.097 151.884 165.551 151.884 163.939C151.884 162.326 152.523 160.78 153.661 159.64C154.799 158.5 156.342 157.86 157.951 157.86H245.784C247.392 157.86 248.935 158.5 250.073 159.64C251.211 160.78 251.85 162.326 251.85 163.939C251.85 165.551 251.211 167.097 250.073 168.237C248.935 169.377 247.392 170.017 245.784 170.017Z" fill="white" stroke="#E1251B" stroke-width="1.2973"/>
<path d="M160.68 166.392C160.617 166.392 160.554 166.379 160.496 166.354C160.437 166.328 160.385 166.291 160.341 166.244C160.293 166.195 160.255 166.137 160.23 166.073C160.205 166.009 160.193 165.941 160.195 165.872C160.195 165.755 160.226 165.641 160.284 165.541L161.012 164.385H159.524C159.456 164.388 159.387 164.377 159.323 164.351C159.259 164.326 159.201 164.286 159.153 164.236C159.07 164.137 159.024 164.011 159.024 163.881C159.024 163.75 159.07 163.624 159.153 163.526C159.201 163.475 159.259 163.436 159.323 163.41C159.387 163.385 159.456 163.373 159.524 163.377L160.987 163.418L160.341 162.344C160.276 162.234 160.24 162.109 160.236 161.981C160.234 161.912 160.246 161.843 160.271 161.779C160.296 161.715 160.333 161.657 160.381 161.609C160.427 161.562 160.481 161.524 160.54 161.499C160.6 161.473 160.664 161.46 160.729 161.46C160.819 161.459 160.908 161.485 160.984 161.535C161.061 161.585 161.121 161.656 161.157 161.741L161.869 163.038L162.548 161.799C162.59 161.702 162.658 161.62 162.744 161.56C162.829 161.5 162.929 161.466 163.033 161.46C163.096 161.46 163.159 161.473 163.217 161.499C163.276 161.524 163.328 161.562 163.372 161.609C163.419 161.654 163.457 161.709 163.482 161.771C163.507 161.832 163.519 161.898 163.517 161.964C163.516 162.081 163.483 162.196 163.421 162.295L162.709 163.459L164.188 163.418C164.257 163.414 164.326 163.425 164.39 163.451C164.454 163.476 164.512 163.516 164.56 163.567C164.643 163.666 164.689 163.792 164.689 163.922C164.689 164.052 164.643 164.178 164.56 164.277C164.512 164.328 164.454 164.368 164.39 164.393C164.326 164.419 164.257 164.43 164.188 164.426H162.693L163.356 165.484C163.431 165.611 163.472 165.756 163.477 165.905C163.479 165.972 163.468 166.039 163.445 166.101C163.421 166.163 163.385 166.22 163.34 166.268C163.297 166.315 163.246 166.352 163.189 166.377C163.132 166.403 163.07 166.416 163.008 166.417C162.908 166.415 162.811 166.383 162.728 166.326C162.645 166.269 162.579 166.189 162.539 166.095L161.869 164.88L161.198 166.095C161.149 166.191 161.074 166.27 160.982 166.322C160.891 166.375 160.786 166.4 160.68 166.392Z" fill="#E1251B"/>
<path d="M169.399 166.417C169.327 166.417 169.256 166.404 169.19 166.378C169.124 166.353 169.064 166.316 169.014 166.269C168.96 166.221 168.918 166.163 168.889 166.099C168.861 166.035 168.847 165.967 168.85 165.898C168.849 165.782 168.884 165.669 168.95 165.569L169.775 164.416H168.089C168.011 164.42 167.934 164.408 167.861 164.383C167.788 164.357 167.723 164.318 167.668 164.268C167.574 164.169 167.522 164.044 167.522 163.914C167.522 163.784 167.574 163.658 167.668 163.56C167.723 163.51 167.788 163.471 167.861 163.445C167.934 163.419 168.011 163.408 168.089 163.412L169.747 163.453L168.969 162.341C168.895 162.232 168.854 162.107 168.85 161.979C168.847 161.91 168.861 161.842 168.889 161.778C168.918 161.715 168.96 161.657 169.014 161.608C169.066 161.561 169.127 161.524 169.195 161.498C169.262 161.473 169.335 161.46 169.408 161.46C169.511 161.459 169.612 161.485 169.698 161.534C169.784 161.584 169.852 161.656 169.894 161.74L170.7 163.033L171.469 161.798C171.517 161.702 171.594 161.619 171.691 161.56C171.788 161.5 171.901 161.466 172.019 161.46C172.09 161.46 172.162 161.473 172.228 161.499C172.294 161.524 172.354 161.562 172.403 161.608C172.457 161.654 172.499 161.709 172.528 161.77C172.556 161.831 172.57 161.896 172.568 161.962C172.567 162.079 172.529 162.194 172.458 162.292L171.652 163.453L173.328 163.412C173.406 163.407 173.484 163.419 173.557 163.444C173.63 163.47 173.695 163.509 173.75 163.56C173.844 163.658 173.895 163.784 173.895 163.914C173.895 164.044 173.844 164.169 173.75 164.268C173.695 164.319 173.63 164.358 173.557 164.384C173.484 164.409 173.406 164.42 173.328 164.416H171.634L172.385 165.47C172.47 165.597 172.517 165.742 172.522 165.89C172.525 165.957 172.512 166.023 172.486 166.086C172.459 166.148 172.418 166.205 172.367 166.252C172.318 166.299 172.26 166.336 172.196 166.361C172.131 166.387 172.061 166.4 171.991 166.401C171.877 166.399 171.767 166.368 171.672 166.311C171.578 166.254 171.504 166.174 171.46 166.079L170.7 164.869L169.939 166.079C169.894 166.176 169.82 166.259 169.724 166.319C169.628 166.379 169.516 166.413 169.399 166.417Z" fill="#E1251B"/>
<path d="M178.607 166.417C178.535 166.417 178.464 166.404 178.398 166.378C178.331 166.353 178.272 166.316 178.222 166.269C178.168 166.221 178.125 166.163 178.097 166.099C178.069 166.035 178.055 165.967 178.057 165.898C178.057 165.782 178.092 165.669 178.158 165.569L178.982 164.416H177.297C177.219 164.42 177.141 164.408 177.069 164.383C176.996 164.357 176.93 164.318 176.876 164.268C176.782 164.169 176.73 164.044 176.73 163.914C176.73 163.784 176.782 163.658 176.876 163.56C176.93 163.51 176.996 163.471 177.069 163.445C177.141 163.419 177.219 163.408 177.297 163.412L178.955 163.453L178.176 162.341C178.103 162.232 178.062 162.107 178.057 161.979C178.055 161.91 178.069 161.842 178.097 161.778C178.125 161.715 178.168 161.657 178.222 161.608C178.273 161.561 178.335 161.524 178.402 161.498C178.47 161.473 178.543 161.46 178.616 161.46C178.719 161.459 178.819 161.485 178.906 161.534C178.992 161.584 179.06 161.656 179.101 161.74L179.907 163.033L180.677 161.798C180.725 161.702 180.802 161.619 180.899 161.56C180.996 161.5 181.109 161.466 181.226 161.46C181.298 161.46 181.369 161.473 181.436 161.499C181.502 161.524 181.561 161.562 181.611 161.608C181.665 161.654 181.707 161.709 181.735 161.77C181.764 161.831 181.778 161.896 181.776 161.962C181.775 162.079 181.736 162.194 181.666 162.292L180.86 163.453L182.536 163.412C182.614 163.407 182.692 163.419 182.765 163.444C182.837 163.47 182.903 163.509 182.957 163.56C183.051 163.658 183.103 163.784 183.103 163.914C183.103 164.044 183.051 164.169 182.957 164.268C182.903 164.319 182.837 164.358 182.765 164.384C182.692 164.409 182.614 164.42 182.536 164.416H180.842L181.593 165.47C181.677 165.597 181.725 165.742 181.73 165.89C181.733 165.957 181.72 166.023 181.693 166.086C181.667 166.148 181.626 166.205 181.574 166.252C181.526 166.299 181.468 166.336 181.403 166.361C181.339 166.387 181.269 166.4 181.199 166.401C181.085 166.399 180.974 166.368 180.88 166.311C180.786 166.254 180.712 166.174 180.668 166.079L179.907 164.869L179.147 166.079C179.102 166.176 179.027 166.259 178.932 166.319C178.836 166.379 178.723 166.413 178.607 166.417Z" fill="#E1251B"/>
<path d="M187.604 166.417C187.54 166.417 187.476 166.404 187.418 166.378C187.359 166.353 187.306 166.316 187.262 166.269C187.213 166.221 187.176 166.163 187.15 166.099C187.125 166.035 187.113 165.967 187.115 165.898C187.115 165.782 187.146 165.669 187.205 165.569L187.937 164.416H186.439C186.37 164.42 186.301 164.408 186.236 164.383C186.172 164.357 186.113 164.318 186.065 164.268C185.981 164.169 185.935 164.044 185.935 163.914C185.935 163.784 185.981 163.658 186.065 163.56C186.113 163.51 186.172 163.471 186.236 163.445C186.301 163.419 186.37 163.408 186.439 163.412L187.913 163.453L187.221 162.341C187.156 162.232 187.119 162.107 187.115 161.979C187.113 161.91 187.125 161.842 187.15 161.778C187.176 161.715 187.213 161.657 187.262 161.608C187.307 161.561 187.362 161.524 187.422 161.498C187.482 161.473 187.547 161.46 187.612 161.46C187.703 161.459 187.792 161.485 187.869 161.534C187.946 161.584 188.006 161.656 188.043 161.74L188.76 163.033L189.443 161.798C189.487 161.702 189.555 161.619 189.641 161.56C189.727 161.5 189.828 161.466 189.932 161.46C189.996 161.46 190.059 161.473 190.118 161.499C190.177 161.524 190.23 161.562 190.274 161.608C190.322 161.654 190.359 161.709 190.385 161.77C190.41 161.831 190.422 161.896 190.42 161.962C190.419 162.079 190.385 162.194 190.323 162.292L189.606 163.453L191.096 163.412C191.165 163.407 191.235 163.419 191.299 163.444C191.364 163.47 191.422 163.509 191.471 163.56C191.554 163.658 191.6 163.784 191.6 163.914C191.6 164.044 191.554 164.169 191.471 164.268C191.422 164.319 191.364 164.358 191.299 164.384C191.235 164.409 191.165 164.42 191.096 164.416H189.59L190.258 165.47C190.333 165.597 190.375 165.742 190.38 165.89C190.382 165.957 190.371 166.023 190.347 166.086C190.323 166.148 190.287 166.205 190.241 166.252C190.198 166.299 190.147 166.336 190.089 166.361C190.032 166.387 189.97 166.4 189.908 166.401C189.807 166.398 189.709 166.367 189.625 166.31C189.541 166.253 189.476 166.173 189.435 166.079L188.76 164.869L188.084 166.079C188.044 166.176 187.977 166.259 187.892 166.319C187.807 166.379 187.707 166.413 187.604 166.417Z" fill="#E1251B"/>
<path d="M196.1 166.417C196.036 166.417 195.972 166.404 195.914 166.378C195.855 166.353 195.802 166.316 195.758 166.269C195.71 166.221 195.672 166.163 195.647 166.099C195.621 166.035 195.609 165.967 195.611 165.898C195.615 165.783 195.646 165.67 195.701 165.569L196.433 164.416H194.935C194.866 164.42 194.797 164.408 194.732 164.383C194.668 164.357 194.609 164.318 194.561 164.268C194.477 164.169 194.431 164.044 194.431 163.914C194.431 163.784 194.477 163.658 194.561 163.56C194.609 163.51 194.668 163.471 194.732 163.445C194.797 163.419 194.866 163.408 194.935 163.412L196.409 163.453L195.717 162.341C195.652 162.232 195.615 162.107 195.611 161.979C195.609 161.91 195.621 161.842 195.647 161.778C195.672 161.715 195.71 161.657 195.758 161.608C195.803 161.561 195.858 161.524 195.918 161.498C195.978 161.473 196.043 161.46 196.108 161.46C196.199 161.459 196.288 161.485 196.365 161.534C196.442 161.584 196.502 161.656 196.539 161.74L197.256 163.033L197.94 161.798C197.983 161.702 198.051 161.619 198.137 161.56C198.223 161.5 198.324 161.466 198.428 161.46C198.492 161.459 198.556 161.472 198.615 161.497C198.674 161.523 198.726 161.561 198.77 161.608C198.818 161.654 198.855 161.709 198.881 161.77C198.906 161.831 198.918 161.896 198.917 161.962C198.915 162.079 198.882 162.194 198.819 162.292L198.102 163.453L199.592 163.412C199.662 163.407 199.731 163.419 199.796 163.444C199.86 163.47 199.919 163.509 199.967 163.56C200.05 163.658 200.096 163.784 200.096 163.914C200.096 164.044 200.05 164.169 199.967 164.268C199.919 164.319 199.86 164.358 199.796 164.384C199.731 164.409 199.662 164.42 199.592 164.416H198.086L198.754 165.47C198.829 165.597 198.871 165.742 198.876 165.89C198.878 165.957 198.867 166.023 198.843 166.086C198.819 166.148 198.783 166.205 198.737 166.252C198.695 166.299 198.643 166.336 198.585 166.361C198.528 166.387 198.466 166.4 198.404 166.401C198.303 166.398 198.205 166.367 198.121 166.31C198.038 166.253 197.972 166.173 197.931 166.079L197.256 164.869L196.58 166.079C196.54 166.176 196.473 166.259 196.388 166.319C196.303 166.379 196.203 166.413 196.1 166.417Z" fill="#E1251B"/>
<path d="M204.806 166.417C204.734 166.417 204.663 166.404 204.597 166.378C204.531 166.353 204.471 166.316 204.422 166.269C204.367 166.221 204.325 166.163 204.296 166.099C204.268 166.035 204.255 165.967 204.257 165.898C204.261 165.783 204.295 165.67 204.357 165.569L205.182 164.416H203.506C203.426 164.42 203.347 164.409 203.273 164.384C203.198 164.358 203.131 164.319 203.075 164.268C202.981 164.169 202.929 164.044 202.929 163.914C202.929 163.784 202.981 163.658 203.075 163.56C203.131 163.509 203.198 163.47 203.273 163.444C203.347 163.418 203.426 163.407 203.506 163.412L205.154 163.453L204.376 162.341C204.302 162.232 204.261 162.107 204.257 161.979C204.255 161.91 204.268 161.842 204.296 161.778C204.325 161.715 204.367 161.657 204.422 161.608C204.473 161.561 204.534 161.524 204.602 161.498C204.669 161.473 204.742 161.46 204.815 161.46C204.918 161.459 205.019 161.485 205.105 161.534C205.191 161.584 205.259 161.656 205.301 161.74L206.107 163.033L206.876 161.798C206.925 161.702 207.001 161.619 207.098 161.56C207.195 161.5 207.308 161.466 207.426 161.46C207.498 161.459 207.569 161.472 207.636 161.497C207.702 161.523 207.761 161.561 207.81 161.608C207.864 161.654 207.906 161.709 207.935 161.77C207.963 161.831 207.977 161.896 207.975 161.962C207.974 162.079 207.936 162.194 207.865 162.292L207.059 163.453L208.735 163.412C208.813 163.407 208.891 163.419 208.964 163.444C209.037 163.47 209.103 163.509 209.157 163.56C209.251 163.658 209.303 163.784 209.303 163.914C209.303 164.044 209.251 164.169 209.157 164.268C209.103 164.319 209.037 164.358 208.964 164.384C208.891 164.409 208.813 164.42 208.735 164.416H207.041L207.792 165.47C207.877 165.597 207.924 165.742 207.929 165.89C207.932 165.957 207.92 166.023 207.893 166.086C207.866 166.148 207.826 166.205 207.774 166.252C207.725 166.299 207.667 166.336 207.603 166.361C207.538 166.387 207.469 166.4 207.398 166.401C207.285 166.398 207.175 166.367 207.08 166.31C206.986 166.253 206.912 166.173 206.867 166.079L206.107 164.869L205.347 166.079C205.301 166.176 205.227 166.259 205.131 166.319C205.035 166.379 204.923 166.413 204.806 166.417Z" fill="#E1251B"/>
<path d="M214.02 166.392C213.947 166.392 213.876 166.379 213.809 166.354C213.743 166.328 213.683 166.291 213.633 166.244C213.579 166.195 213.536 166.137 213.508 166.073C213.479 166.009 213.465 165.941 213.468 165.872C213.468 165.755 213.503 165.641 213.569 165.541L214.397 164.385H212.704C212.626 164.388 212.548 164.377 212.475 164.351C212.402 164.326 212.336 164.286 212.281 164.236C212.186 164.137 212.135 164.011 212.135 163.881C212.135 163.75 212.186 163.624 212.281 163.526C212.336 163.475 212.402 163.436 212.475 163.41C212.548 163.385 212.626 163.373 212.704 163.377L214.369 163.418L213.56 162.344C213.486 162.234 213.445 162.109 213.44 161.981C213.438 161.912 213.451 161.843 213.48 161.779C213.508 161.715 213.551 161.657 213.606 161.609C213.657 161.562 213.719 161.524 213.787 161.499C213.855 161.473 213.928 161.46 214.001 161.46C214.104 161.459 214.205 161.485 214.292 161.535C214.379 161.585 214.447 161.656 214.489 161.741L215.298 163.038L216.071 161.799C216.119 161.702 216.197 161.62 216.294 161.56C216.391 161.5 216.505 161.466 216.623 161.46C216.695 161.459 216.767 161.472 216.834 161.497C216.9 161.523 216.96 161.561 217.009 161.609C217.063 161.654 217.106 161.709 217.134 161.771C217.163 161.832 217.176 161.898 217.175 161.964C217.173 162.081 217.135 162.196 217.064 162.295L216.255 163.459L217.938 163.418C218.016 163.414 218.095 163.425 218.168 163.451C218.241 163.476 218.307 163.516 218.361 163.567C218.456 163.666 218.508 163.792 218.508 163.922C218.508 164.052 218.456 164.178 218.361 164.277C218.307 164.328 218.241 164.368 218.168 164.393C218.095 164.419 218.016 164.43 217.938 164.426H216.236L216.991 165.484C217.076 165.611 217.123 165.756 217.129 165.905C217.131 165.972 217.119 166.039 217.092 166.101C217.065 166.163 217.024 166.22 216.972 166.268C216.924 166.315 216.865 166.352 216.801 166.377C216.736 166.403 216.666 166.416 216.595 166.417C216.481 166.415 216.371 166.383 216.276 166.326C216.182 166.269 216.107 166.189 216.062 166.095L215.298 164.88L214.535 166.095C214.485 166.18 214.412 166.253 214.321 166.305C214.231 166.357 214.127 166.387 214.02 166.392Z" fill="#E1251B"/>
<path d="M223.011 166.417C222.947 166.417 222.884 166.404 222.825 166.378C222.766 166.353 222.713 166.316 222.669 166.269C222.621 166.221 222.583 166.163 222.558 166.099C222.533 166.035 222.521 165.967 222.522 165.898C222.526 165.783 222.557 165.67 222.612 165.569L223.345 164.416H221.855C221.785 164.422 221.716 164.411 221.651 164.385C221.586 164.36 221.528 164.32 221.48 164.268C221.392 164.172 221.342 164.045 221.342 163.914C221.342 163.783 221.392 163.656 221.48 163.56C221.528 163.508 221.586 163.468 221.651 163.443C221.716 163.417 221.785 163.406 221.855 163.412L223.32 163.453L222.628 162.341C222.563 162.232 222.527 162.107 222.522 161.979C222.52 161.912 222.531 161.845 222.555 161.782C222.579 161.719 222.616 161.662 222.662 161.613C222.708 161.565 222.764 161.526 222.825 161.5C222.886 161.474 222.952 161.46 223.019 161.46C223.11 161.459 223.2 161.485 223.276 161.535C223.353 161.584 223.414 161.656 223.45 161.74L224.167 163.033L224.851 161.798C224.894 161.702 224.962 161.62 225.048 161.56C225.134 161.5 225.235 161.466 225.339 161.46C225.403 161.458 225.467 161.47 225.526 161.496C225.585 161.522 225.638 161.56 225.681 161.609C225.729 161.654 225.767 161.709 225.792 161.77C225.817 161.831 225.829 161.896 225.828 161.963C225.827 162.079 225.793 162.194 225.73 162.292L225.014 163.453L226.503 163.412C226.573 163.408 226.642 163.419 226.707 163.444C226.771 163.47 226.83 163.509 226.878 163.56C226.961 163.658 227.007 163.784 227.007 163.914C227.007 164.044 226.961 164.169 226.878 164.268C226.83 164.319 226.771 164.358 226.707 164.384C226.642 164.409 226.573 164.42 226.503 164.416H224.997L225.665 165.47C225.74 165.597 225.782 165.742 225.787 165.89C225.789 165.955 225.779 166.02 225.756 166.08C225.733 166.141 225.699 166.197 225.655 166.244C225.612 166.292 225.559 166.33 225.5 166.357C225.442 166.384 225.379 166.398 225.315 166.401C225.214 166.398 225.116 166.367 225.032 166.31C224.949 166.253 224.883 166.173 224.843 166.079L224.167 164.869L223.491 166.079C223.451 166.176 223.385 166.259 223.3 166.319C223.214 166.379 223.114 166.413 223.011 166.417Z" fill="#E1251B"/>
<path d="M231.507 166.417C231.443 166.417 231.379 166.404 231.321 166.378C231.262 166.353 231.209 166.316 231.165 166.269C231.117 166.221 231.079 166.163 231.054 166.099C231.028 166.035 231.016 165.967 231.018 165.898C231.022 165.783 231.053 165.67 231.108 165.569L231.84 164.416H230.343C230.274 164.42 230.206 164.409 230.143 164.383C230.08 164.358 230.023 164.318 229.976 164.268C229.887 164.172 229.838 164.045 229.838 163.914C229.838 163.783 229.887 163.656 229.976 163.56C230.023 163.51 230.08 163.47 230.143 163.444C230.206 163.419 230.274 163.408 230.343 163.412L231.816 163.453L231.124 162.341C231.059 162.232 231.022 162.107 231.018 161.979C231.016 161.912 231.027 161.845 231.051 161.782C231.075 161.719 231.111 161.662 231.158 161.613C231.204 161.565 231.26 161.526 231.321 161.5C231.382 161.474 231.448 161.46 231.515 161.46C231.606 161.459 231.696 161.485 231.772 161.535C231.849 161.584 231.909 161.656 231.946 161.74L232.663 163.033L233.347 161.798C233.39 161.702 233.458 161.62 233.544 161.56C233.63 161.5 233.731 161.466 233.835 161.46C233.899 161.458 233.963 161.47 234.022 161.496C234.081 161.522 234.134 161.56 234.177 161.609C234.225 161.654 234.262 161.709 234.288 161.77C234.313 161.831 234.325 161.896 234.323 161.963C234.322 162.079 234.288 162.194 234.226 162.292L233.509 163.453L234.999 163.412C235.068 163.408 235.138 163.419 235.202 163.444C235.267 163.47 235.325 163.509 235.374 163.56C235.457 163.658 235.503 163.784 235.503 163.914C235.503 164.044 235.457 164.169 235.374 164.268C235.325 164.319 235.267 164.358 235.202 164.384C235.138 164.409 235.068 164.42 234.999 164.416H233.493L234.161 165.47C234.236 165.597 234.278 165.742 234.283 165.89C234.285 165.955 234.274 166.02 234.252 166.08C234.229 166.141 234.195 166.197 234.151 166.244C234.107 166.292 234.055 166.33 233.996 166.357C233.938 166.384 233.875 166.398 233.811 166.401C233.71 166.398 233.612 166.367 233.528 166.31C233.444 166.253 233.379 166.173 233.338 166.079L232.663 164.869L231.987 166.079C231.947 166.176 231.88 166.259 231.795 166.319C231.71 166.379 231.61 166.413 231.507 166.417Z" fill="#E1251B"/>
<path d="M240.214 166.417C240.142 166.417 240.07 166.404 240.004 166.378C239.938 166.353 239.878 166.316 239.829 166.269C239.775 166.221 239.732 166.163 239.704 166.099C239.675 166.035 239.662 165.967 239.664 165.898C239.668 165.783 239.703 165.67 239.765 165.569L240.589 164.416H238.904C238.827 164.42 238.751 164.409 238.679 164.383C238.608 164.358 238.544 164.318 238.492 164.268C238.392 164.172 238.336 164.045 238.336 163.914C238.336 163.783 238.392 163.656 238.492 163.56C238.544 163.51 238.608 163.47 238.679 163.444C238.751 163.419 238.827 163.408 238.904 163.412L240.562 163.453L239.783 162.341C239.71 162.232 239.669 162.107 239.664 161.979C239.662 161.91 239.675 161.842 239.704 161.778C239.732 161.715 239.775 161.657 239.829 161.609C239.88 161.561 239.941 161.524 240.009 161.499C240.077 161.473 240.149 161.46 240.223 161.46C240.325 161.459 240.426 161.485 240.512 161.535C240.599 161.584 240.667 161.656 240.708 161.74L241.514 163.033L242.283 161.798C242.332 161.702 242.409 161.62 242.506 161.56C242.602 161.5 242.716 161.466 242.833 161.46C242.905 161.458 242.977 161.47 243.043 161.496C243.11 161.522 243.169 161.56 243.217 161.609C243.271 161.654 243.314 161.709 243.342 161.77C243.37 161.831 243.384 161.896 243.382 161.963C243.381 162.079 243.343 162.194 243.272 162.292L242.466 163.453L244.143 163.412C244.22 163.408 244.298 163.419 244.371 163.444C244.444 163.47 244.51 163.509 244.564 163.56C244.658 163.658 244.71 163.784 244.71 163.914C244.71 164.044 244.658 164.169 244.564 164.268C244.51 164.319 244.444 164.358 244.371 164.384C244.298 164.409 244.22 164.42 244.143 164.416H242.448L243.199 165.47C243.284 165.597 243.331 165.742 243.337 165.89C243.339 165.957 243.327 166.023 243.3 166.086C243.273 166.148 243.233 166.205 243.181 166.252C243.133 166.299 243.075 166.336 243.01 166.361C242.945 166.387 242.876 166.4 242.805 166.401C242.692 166.398 242.582 166.367 242.488 166.31C242.394 166.253 242.32 166.173 242.274 166.079L241.514 164.869L240.754 166.079C240.709 166.176 240.634 166.259 240.538 166.319C240.443 166.379 240.33 166.413 240.214 166.417Z" fill="#E1251B"/>
<mask id="path-36-inside-1_6958_30447" fill="white">
<path fill-rule="evenodd" clip-rule="evenodd" d="M101.217 59C87.2321 59 75.8953 70.3368 75.8953 84.3214V117.09C75.8953 131.075 87.2321 142.412 101.217 142.412C115.201 142.412 126.538 131.075 126.538 117.09V84.3215C126.538 70.3368 115.201 59 101.217 59ZM101.218 65.7028C90.9353 65.7028 82.5995 74.0386 82.5995 84.3215V117.09C82.5995 127.373 90.9353 135.709 101.218 135.709C111.501 135.709 119.837 127.373 119.837 117.09V84.3215C119.837 74.0386 111.501 65.7028 101.218 65.7028Z"/>
</mask>
<path fill-rule="evenodd" clip-rule="evenodd" d="M101.217 59C87.2321 59 75.8953 70.3368 75.8953 84.3214V117.09C75.8953 131.075 87.2321 142.412 101.217 142.412C115.201 142.412 126.538 131.075 126.538 117.09V84.3215C126.538 70.3368 115.201 59 101.217 59ZM101.218 65.7028C90.9353 65.7028 82.5995 74.0386 82.5995 84.3215V117.09C82.5995 127.373 90.9353 135.709 101.218 135.709C111.501 135.709 119.837 127.373 119.837 117.09V84.3215C119.837 74.0386 111.501 65.7028 101.218 65.7028Z" fill="white"/>
<path d="M76.9511 84.3214C76.9511 70.9199 87.8152 60.0558 101.217 60.0558V57.9442C86.6489 57.9442 74.8394 69.7537 74.8394 84.3214H76.9511ZM76.9511 117.09V84.3214H74.8394V117.09H76.9511ZM101.217 141.356C87.8152 141.356 76.9511 130.492 76.9511 117.09H74.8394C74.8394 131.658 86.6489 143.468 101.217 143.468V141.356ZM125.482 117.09C125.482 130.492 114.618 141.356 101.217 141.356V143.468C115.784 143.468 127.594 131.658 127.594 117.09H125.482ZM125.482 84.3215V117.09H127.594V84.3215H125.482ZM101.217 60.0558C114.618 60.0558 125.482 70.9199 125.482 84.3215H127.594C127.594 69.7537 115.784 57.9442 101.217 57.9442V60.0558ZM83.6553 84.3215C83.6553 74.6218 91.5185 66.7586 101.218 66.7586V64.6469C90.3522 64.6469 81.5436 73.4555 81.5436 84.3215H83.6553ZM83.6553 117.09V84.3215H81.5436V117.09H83.6553ZM101.218 134.653C91.5185 134.653 83.6553 126.79 83.6553 117.09H81.5436C81.5436 127.956 90.3522 136.765 101.218 136.765V134.653ZM118.781 117.09C118.781 126.79 110.918 134.653 101.218 134.653V136.765C112.084 136.765 120.893 127.956 120.893 117.09H118.781ZM118.781 84.3215V117.09H120.893V84.3215H118.781ZM101.218 66.7586C110.918 66.7586 118.781 74.6218 118.781 84.3215H120.893C120.893 73.4555 112.084 64.6469 101.218 64.6469V66.7586Z" fill="#E1251B" mask="url(#path-36-inside-1_6958_30447)"/>
<rect x="67.4856" y="91.5521" width="73.419" height="50.3318" rx="8.97469" fill="#E1251B" stroke="#E1251B" stroke-width="1.05585"/>
<rect x="61.5279" y="91.5521" width="73.419" height="50.3318" rx="8.97469" fill="white" stroke="#E1251B" stroke-width="1.05585"/>
<path fill-rule="evenodd" clip-rule="evenodd" d="M101.387 116.459C102.807 115.495 103.74 113.867 103.74 112.022C103.74 109.063 101.341 106.664 98.3819 106.664C95.4227 106.664 93.0239 109.063 93.0239 112.022C93.0239 113.867 93.9568 115.495 95.3767 116.459L93.0239 127.517H103.74L101.387 116.459Z" fill="#E1251B"/>
<path d="M42.1467 201.446C42.1467 201.799 42.434 202.089 42.7852 202.089H79.7898C80.141 202.089 80.4283 201.799 80.4283 201.446V170.884C80.4283 170.707 80.2853 170.563 80.1091 170.563H42.7852C42.434 170.563 42.1467 170.852 42.1467 171.206V201.446Z" fill="white"/>
<path d="M80.0339 202.139H43.1011C42.5461 202.139 42.0952 201.685 42.0952 201.127V170.962C42.0952 170.404 42.5461 169.95 43.1011 169.95H80.3525C80.7318 169.95 81.0397 170.261 81.0397 170.642V201.127C81.0397 201.685 80.5889 202.139 80.0339 202.139ZM80.3025 201.127V170.692H43.1011C42.9533 170.692 42.8325 170.813 42.8325 170.962V201.127C42.8325 201.276 42.9533 201.397 43.1011 201.397H80.0339C80.1817 201.397 80.3025 201.276 80.3025 201.127Z" fill="#E1251B" stroke="#E1251B" stroke-width="0.1"/>
<mask id="path-43-outside-2_6958_30447" maskUnits="userSpaceOnUse" x="44.6106" y="172.378" width="34" height="27" fill="black">
<rect fill="white" x="44.6106" y="172.378" width="34" height="27"/>
<path d="M45.6013 199.274H76.9679C77.3223 199.274 77.6106 198.987 77.6106 198.633V178.646C77.6106 178.47 77.5366 178.304 77.4077 178.191C77.2788 178.078 77.1045 178.027 76.929 178.049C76.9285 178.049 76.8065 178.065 76.5986 178.065C74.5746 178.065 72.9281 176.423 72.9281 174.406C72.9281 174.193 72.9452 174.059 72.9453 174.058C72.969 173.884 72.9178 173.71 72.8048 173.581C72.6919 173.452 72.5255 173.378 72.3485 173.378H50.2975C50.1206 173.378 49.9542 173.452 49.8412 173.581C49.7281 173.71 49.677 173.884 49.7007 174.059C49.7007 174.059 49.7179 174.192 49.7179 174.406C49.7179 176.423 48.0713 178.065 46.0475 178.065C45.8174 178.065 45.6498 178.041 45.6444 178.04C45.4693 178.015 45.2934 178.064 45.1635 178.176C45.0333 178.288 44.9587 178.454 44.9587 178.631V198.633C44.9587 198.987 45.247 199.274 45.6013 199.274H45.6013ZM76.9679 178.69V198.633H45.6013V178.681C45.6798 178.69 45.8434 178.705 46.0474 178.705C48.4257 178.705 50.3605 176.776 50.3605 174.406C50.3605 174.222 50.3495 174.086 50.3428 174.019H72.303C72.2962 174.086 72.2852 174.222 72.2852 174.406C72.2852 176.777 74.2201 178.705 76.5984 178.705C76.7777 178.705 76.9046 178.696 76.9678 178.69H76.9679Z"/>
</mask>
<path d="M45.6013 199.274H76.9679C77.3223 199.274 77.6106 198.987 77.6106 198.633V178.646C77.6106 178.47 77.5366 178.304 77.4077 178.191C77.2788 178.078 77.1045 178.027 76.929 178.049C76.9285 178.049 76.8065 178.065 76.5986 178.065C74.5746 178.065 72.9281 176.423 72.9281 174.406C72.9281 174.193 72.9452 174.059 72.9453 174.058C72.969 173.884 72.9178 173.71 72.8048 173.581C72.6919 173.452 72.5255 173.378 72.3485 173.378H50.2975C50.1206 173.378 49.9542 173.452 49.8412 173.581C49.7281 173.71 49.677 173.884 49.7007 174.059C49.7007 174.059 49.7179 174.192 49.7179 174.406C49.7179 176.423 48.0713 178.065 46.0475 178.065C45.8174 178.065 45.6498 178.041 45.6444 178.04C45.4693 178.015 45.2934 178.064 45.1635 178.176C45.0333 178.288 44.9587 178.454 44.9587 178.631V198.633C44.9587 198.987 45.247 199.274 45.6013 199.274H45.6013ZM76.9679 178.69V198.633H45.6013V178.681C45.6798 178.69 45.8434 178.705 46.0474 178.705C48.4257 178.705 50.3605 176.776 50.3605 174.406C50.3605 174.222 50.3495 174.086 50.3428 174.019H72.303C72.2962 174.086 72.2852 174.222 72.2852 174.406C72.2852 176.777 74.2201 178.705 76.5984 178.705C76.7777 178.705 76.9046 178.696 76.9678 178.69H76.9679Z" fill="#E1251B"/>
<path d="M77.4077 178.191L77.3418 178.266L77.3418 178.266L77.4077 178.191ZM76.929 178.049L76.9421 178.149H76.929V178.049ZM72.9453 174.058L72.8461 174.045L72.8462 174.044L72.9453 174.058ZM49.7007 174.059L49.8007 174.045V174.059H49.7007ZM45.6444 178.04L45.6311 178.14L45.6299 178.139L45.6444 178.04ZM45.1635 178.176L45.2288 178.252L45.2287 178.252L45.1635 178.176ZM76.9679 178.69V178.59H77.0679V178.69H76.9679ZM76.9679 198.633H77.0679V198.733H76.9679V198.633ZM45.6013 198.633V198.733H45.5013V198.633H45.6013ZM45.6013 178.681H45.5013V178.569L45.6127 178.581L45.6013 178.681ZM50.3428 174.019L50.2433 174.029L50.2322 173.919H50.3428V174.019ZM72.303 174.019V173.919H72.4136L72.4025 174.029L72.303 174.019ZM76.9678 178.69L76.9581 178.59H76.9678V178.69ZM45.6013 199.174H76.9679V199.374H45.6013V199.174ZM76.9679 199.174C77.2673 199.174 77.5106 198.931 77.5106 198.633H77.7106C77.7106 199.042 77.3772 199.374 76.9679 199.374V199.174ZM77.5106 198.633V178.646H77.7106V198.633H77.5106ZM77.5106 178.646C77.5106 178.498 77.4484 178.36 77.3418 178.266L77.4736 178.116C77.6248 178.249 77.7106 178.442 77.7106 178.646H77.5106ZM77.3418 178.266C77.2353 178.173 77.09 178.129 76.942 178.149L76.9161 177.95C77.119 177.924 77.3223 177.983 77.4736 178.116L77.3418 178.266ZM76.929 178.149C76.9309 178.149 76.9337 178.149 76.9347 178.149C76.9353 178.149 76.9364 178.149 76.9368 178.149C76.9376 178.149 76.9382 178.149 76.9385 178.149C76.939 178.149 76.9394 178.149 76.9395 178.149C76.9398 178.149 76.9399 178.149 76.9398 178.149C76.9396 178.149 76.9394 178.149 76.9388 178.149C76.9377 178.149 76.9361 178.149 76.934 178.15C76.9298 178.15 76.9238 178.151 76.9159 178.151C76.9003 178.153 76.8775 178.155 76.8482 178.157C76.7897 178.161 76.705 178.165 76.5986 178.165V177.965C76.7001 177.965 76.7804 177.961 76.8349 177.957C76.8622 177.955 76.883 177.954 76.8969 177.952C76.9038 177.952 76.909 177.951 76.9124 177.951C76.9141 177.951 76.9154 177.95 76.9163 177.95C76.9166 177.95 76.9172 177.95 76.9175 177.95C76.9176 177.95 76.918 177.95 76.9183 177.95C76.9185 177.95 76.919 177.95 76.9196 177.95C76.9198 177.95 76.9205 177.95 76.9213 177.95C76.9217 177.95 76.9228 177.95 76.9234 177.95C76.9244 177.95 76.9272 177.949 76.929 177.949V178.149ZM76.5986 178.165C74.5197 178.165 72.8281 176.479 72.8281 174.406H73.0281C73.0281 176.368 74.6296 177.965 76.5986 177.965V178.165ZM72.8281 174.406C72.8281 174.296 72.8324 174.207 72.8369 174.145C72.8391 174.114 72.8414 174.09 72.8431 174.073C72.8439 174.064 72.8447 174.058 72.8452 174.053C72.8455 174.051 72.8457 174.049 72.8459 174.048C72.846 174.046 72.8461 174.045 72.8461 174.045L73.0446 174.07C73.0446 174.07 73.0443 174.072 73.0439 174.076C73.0435 174.08 73.0428 174.085 73.0421 174.093C73.0405 174.108 73.0385 174.13 73.0364 174.159C73.0322 174.218 73.0281 174.302 73.0281 174.406H72.8281ZM72.8462 174.044C72.8661 173.898 72.8229 173.753 72.7296 173.647L72.88 173.515C73.0126 173.666 73.0718 173.87 73.0444 174.071L72.8462 174.044ZM72.7296 173.647C72.6364 173.54 72.4978 173.478 72.3485 173.478V173.278C72.5533 173.278 72.7474 173.364 72.88 173.515L72.7296 173.647ZM72.3485 173.478H50.2975V173.278H72.3485V173.478ZM50.2975 173.478C50.1483 173.478 50.0097 173.54 49.9164 173.647L49.766 173.515C49.8987 173.363 50.0928 173.278 50.2975 173.278V173.478ZM49.9164 173.647C49.8231 173.753 49.7799 173.898 49.7998 174.045L49.6016 174.072C49.5742 173.87 49.6332 173.666 49.766 173.515L49.9164 173.647ZM49.8007 174.059C49.8007 174.056 49.8006 174.053 49.8005 174.052C49.8005 174.051 49.8004 174.05 49.8004 174.05C49.8003 174.049 49.8002 174.049 49.8002 174.048C49.8002 174.048 49.8001 174.047 49.8001 174.047C49.8001 174.047 49.8001 174.047 49.8001 174.047C49.8001 174.048 49.8001 174.048 49.8002 174.048C49.8004 174.05 49.8006 174.051 49.8008 174.054C49.8013 174.058 49.8021 174.065 49.8029 174.073C49.8046 174.09 49.8069 174.114 49.8091 174.145C49.8135 174.207 49.8179 174.296 49.8179 174.406H49.6179C49.6179 174.302 49.6137 174.218 49.6096 174.16C49.6075 174.131 49.6055 174.108 49.6039 174.093C49.6032 174.086 49.6026 174.08 49.6021 174.076C49.6019 174.074 49.6017 174.073 49.6016 174.072C49.6016 174.072 49.6015 174.071 49.6015 174.071C49.6015 174.071 49.6014 174.07 49.6014 174.07C49.6014 174.07 49.6013 174.07 49.6013 174.069C49.6013 174.069 49.6012 174.068 49.6011 174.067C49.6011 174.067 49.601 174.066 49.601 174.065C49.6009 174.064 49.6008 174.061 49.6007 174.059H49.8007ZM49.8179 174.406C49.8179 176.479 48.1263 178.165 46.0475 178.165V177.965C48.0164 177.965 49.6179 176.368 49.6179 174.406H49.8179ZM46.0475 178.165C45.9292 178.165 45.8269 178.159 45.7534 178.152C45.7166 178.149 45.6869 178.146 45.6659 178.144C45.6554 178.143 45.6471 178.142 45.6412 178.141C45.6382 178.14 45.6358 178.14 45.6341 178.14C45.6333 178.14 45.6301 178.139 45.6311 178.14L45.6577 177.941C45.6611 177.942 45.8238 177.965 46.0475 177.965V178.165ZM45.6299 178.139C45.4823 178.118 45.3358 178.16 45.2288 178.252L45.0982 178.1C45.2511 177.969 45.4564 177.912 45.6589 177.941L45.6299 178.139ZM45.2287 178.252C45.1214 178.344 45.0587 178.482 45.0587 178.631H44.8587C44.8587 178.426 44.9452 178.232 45.0982 178.1L45.2287 178.252ZM45.0587 178.631V198.633H44.8587V178.631H45.0587ZM45.0587 198.633C45.0587 198.931 45.3019 199.174 45.6013 199.174V199.374C45.1921 199.374 44.8587 199.042 44.8587 198.633H45.0587ZM45.6013 199.374H45.6013V199.174H45.6013V199.374ZM77.0679 178.69V198.633H76.8679V178.69H77.0679ZM76.9679 198.733H45.6013V198.533H76.9679V198.733ZM45.5013 198.633V178.681H45.7013V198.633H45.5013ZM45.6127 178.581C45.6885 178.59 45.8482 178.605 46.0474 178.605V178.805C45.8386 178.805 45.671 178.789 45.5898 178.78L45.6127 178.581ZM46.0474 178.605C48.3708 178.605 50.2605 176.721 50.2605 174.406H50.4605C50.4605 176.832 48.4806 178.805 46.0474 178.805V178.605ZM50.2605 174.406C50.2605 174.226 50.2497 174.093 50.2433 174.029L50.4423 174.009C50.4493 174.078 50.4605 174.218 50.4605 174.406H50.2605ZM50.3428 173.919H72.303V174.119H50.3428V173.919ZM72.4025 174.029C72.396 174.093 72.3852 174.226 72.3852 174.406H72.1852C72.1852 174.218 72.1965 174.078 72.2035 174.009L72.4025 174.029ZM72.3852 174.406C72.3852 176.721 74.2751 178.605 76.5984 178.605V178.805C74.1652 178.805 72.1852 176.832 72.1852 174.406H72.3852ZM76.5984 178.605C76.7742 178.605 76.8979 178.596 76.9581 178.59L76.9776 178.789C76.9114 178.796 76.7812 178.805 76.5984 178.805V178.605ZM76.9678 178.59H76.9679V178.79H76.9678V178.59Z" fill="#E1251B" mask="url(#path-43-outside-2_6958_30447)"/>
<path d="M32.6454 179.57H69.6501C70.0027 179.57 70.2885 179.858 70.2885 180.214V210.453C70.2885 210.808 70.0027 211.096 69.6501 211.096H32.6454C32.2928 211.096 32.007 210.808 32.007 210.453V180.214C32.007 179.858 32.2928 179.57 32.6454 179.57Z" fill="white"/>
<path d="M69.8964 211.146H32.9635C32.4086 211.146 31.9577 210.692 31.9577 210.134V179.97C31.9577 179.412 32.4086 178.957 32.9635 178.957H69.8964C70.4514 178.957 70.9022 179.412 70.9022 179.97V210.134C70.9022 210.692 70.4514 211.146 69.8964 211.146ZM70.165 179.97C70.165 179.82 70.0442 179.699 69.8964 179.699H32.9635C32.8158 179.699 32.6949 179.82 32.6949 179.97V210.134C32.6949 210.284 32.8158 210.405 32.9635 210.405H69.8964C70.0442 210.405 70.165 210.284 70.165 210.134V179.97Z" fill="#E1251B" stroke="#E1251B" stroke-width="0.1"/>
<path d="M35.5845 208.332H66.8325C67.2143 208.332 67.5252 208.022 67.5252 207.641V187.653C67.5252 187.463 67.4453 187.284 67.3053 187.161L67.3053 187.161C67.1653 187.038 66.9768 186.982 66.7877 187.007L66.7876 187.007L66.7865 187.007L66.7824 187.008L66.7663 187.009C66.752 187.011 66.7307 187.013 66.7029 187.014C66.6473 187.018 66.566 187.022 66.4631 187.022C64.4667 187.022 62.8426 185.403 62.8426 183.413C62.8426 183.308 62.8469 183.222 62.8511 183.163C62.8553 183.104 62.8596 183.072 62.8596 183.072L62.81 183.065M35.5845 208.332L62.6693 182.588M35.5845 208.332L35.5845 208.332H35.4659C35.0841 208.332 34.7732 208.022 34.7732 207.641V187.638C34.7732 187.447 34.8538 187.267 34.9953 187.145L35.0279 187.183L35.5845 208.332ZM62.81 183.065L62.8595 183.072C62.885 182.884 62.8298 182.695 62.7069 182.555C62.7069 182.555 62.7069 182.555 62.7069 182.555L62.6693 182.588M62.81 183.065C62.8336 182.891 62.7823 182.717 62.6693 182.588M62.81 183.065L62.81 183.065C62.8095 183.069 62.7926 183.202 62.7926 183.413C62.7926 185.43 64.4392 187.072 66.4631 187.072C66.6616 187.072 66.7818 187.058 66.7928 187.057C66.7933 187.057 66.7936 187.057 66.7936 187.057C66.9691 187.034 67.1434 187.086 67.2723 187.198L62.6693 182.588M35.5158 207.591H66.7825V187.751C66.7105 187.757 66.6023 187.762 66.463 187.762C64.0572 187.762 62.0998 185.811 62.0998 183.413C62.0998 183.268 62.1066 183.152 62.1128 183.076H40.262C40.2683 183.152 40.2751 183.268 40.2751 183.413C40.2751 185.811 38.3177 187.762 35.9119 187.762C35.7455 187.762 35.6056 187.752 35.5158 187.744V207.591Z" fill="#E1251B" stroke="#E1251B" stroke-width="0.1"/>
<path d="M55.5053 241.916H23.5645V202.886C23.5645 198.423 27.2096 194.771 31.6647 194.771H104.413C108.868 194.771 112.513 198.423 112.513 202.886V250.27C112.513 254.733 108.868 258.385 104.413 258.385H31.6647C29.2429 258.385 27.0602 257.307 25.5725 255.604H55.5053C59.143 255.604 62.1192 252.622 62.1192 248.977V248.543C62.1192 244.898 59.143 241.916 55.5053 241.916ZM101.281 207.527C101.281 207.035 100.88 206.633 100.389 206.633H35.992C35.5016 206.633 35.1002 207.035 35.1002 207.527V208.021C35.1002 208.512 35.5015 208.914 35.992 208.914H100.389C100.88 208.914 101.281 208.512 101.281 208.021V207.527ZM100.389 220.929C100.88 220.929 101.281 220.527 101.281 220.035V219.541C101.281 219.05 100.88 218.647 100.389 218.647H35.992C35.5016 218.647 35.1002 219.05 35.1002 219.541V220.035C35.1002 220.527 35.5015 220.929 35.992 220.929H100.389Z" fill="url(#paint0_linear_6958_30447)"/>
<path d="M31.3483 258.948H104.166C108.769 258.948 112.513 255.195 112.513 250.583V203.136C112.513 198.523 108.769 194.771 104.166 194.771H31.3483C26.7459 194.771 23.0017 198.523 23.0017 203.136V242.457H55.2118C58.7308 242.457 61.5936 245.327 61.5936 248.854V249.288C61.5936 252.815 58.7307 255.685 55.2118 255.685H24.7244L25.0707 256.081C26.662 257.903 28.9501 258.948 31.3483 258.948ZM104.166 195.249C108.506 195.249 112.036 198.787 112.036 203.136V250.583C112.036 254.932 108.506 258.47 104.166 258.47H31.3483C29.2677 258.47 27.2747 257.635 25.8004 256.163H55.2118C58.9937 256.163 62.0706 253.079 62.0706 249.288V248.854C62.0706 245.063 58.9937 241.979 55.2118 241.979H23.4787V203.136C23.4787 198.787 27.0089 195.249 31.3482 195.249H104.166ZM35.6797 221.442H100.139C100.763 221.442 101.27 220.933 101.27 220.308V219.813C101.27 219.188 100.763 218.679 100.139 218.679H35.6797C35.056 218.679 34.5486 219.188 34.5486 219.813V220.308C34.5486 220.933 35.056 221.442 35.6797 221.442ZM100.139 219.157C100.5 219.157 100.793 219.451 100.793 219.813V220.308C100.793 220.67 100.5 220.964 100.139 220.964H35.6797C35.319 220.964 35.0256 220.67 35.0256 220.308V219.813C35.0256 219.452 35.319 219.157 35.6797 219.157H100.139ZM35.6797 209.411H100.139C100.763 209.411 101.27 208.903 101.27 208.278V207.782C101.27 207.157 100.763 206.649 100.139 206.649H35.6797C35.056 206.649 34.5486 207.157 34.5486 207.782V208.278C34.5486 208.903 35.056 209.411 35.6797 209.411ZM100.139 207.127C100.5 207.127 100.793 207.421 100.793 207.783V208.278C100.793 208.639 100.5 208.933 100.139 208.933H35.6797C35.319 208.933 35.0256 208.639 35.0256 208.278V207.783C35.0256 207.421 35.319 207.127 35.6797 207.127H100.139Z" fill="white"/>
<path d="M31.3483 258.948H104.166C108.769 258.948 112.513 255.195 112.513 250.583V203.136C112.513 198.523 108.769 194.771 104.166 194.771H31.3483C26.7459 194.771 23.0017 198.523 23.0017 203.136V242.457H55.2118C58.7308 242.457 61.5936 245.327 61.5936 248.854V249.288C61.5936 252.815 58.7307 255.685 55.2118 255.685H24.7244L25.0707 256.081C26.662 257.903 28.9501 258.948 31.3483 258.948ZM104.166 195.249C108.506 195.249 112.036 198.787 112.036 203.136V250.583C112.036 254.932 108.506 258.47 104.166 258.47H31.3483C29.2677 258.47 27.2747 257.635 25.8004 256.163H55.2118C58.9937 256.163 62.0706 253.079 62.0706 249.288V248.854C62.0706 245.063 58.9937 241.979 55.2118 241.979H23.4787V203.136C23.4787 198.787 27.0089 195.249 31.3482 195.249H104.166ZM35.6797 221.442H100.139C100.763 221.442 101.27 220.933 101.27 220.308V219.813C101.27 219.188 100.763 218.679 100.139 218.679H35.6797C35.056 218.679 34.5486 219.188 34.5486 219.813V220.308C34.5486 220.933 35.056 221.442 35.6797 221.442ZM100.139 219.157C100.5 219.157 100.793 219.451 100.793 219.813V220.308C100.793 220.67 100.5 220.964 100.139 220.964H35.6797C35.319 220.964 35.0256 220.67 35.0256 220.308V219.813C35.0256 219.452 35.319 219.157 35.6797 219.157H100.139ZM35.6797 209.411H100.139C100.763 209.411 101.27 208.903 101.27 208.278V207.782C101.27 207.157 100.763 206.649 100.139 206.649H35.6797C35.056 206.649 34.5486 207.157 34.5486 207.782V208.278C34.5486 208.903 35.056 209.411 35.6797 209.411ZM100.139 207.127C100.5 207.127 100.793 207.421 100.793 207.783V208.278C100.793 208.639 100.5 208.933 100.139 208.933H35.6797C35.319 208.933 35.0256 208.639 35.0256 208.278V207.783C35.0256 207.421 35.319 207.127 35.6797 207.127H100.139Z" stroke="white"/>
<path d="M35.3953 209.407H100.116C100.743 209.407 101.252 208.889 101.252 208.252V207.748C101.252 207.111 100.743 206.593 100.116 206.593H35.3953C34.7691 206.593 34.2596 207.111 34.2596 207.748V208.252C34.2596 208.889 34.7691 209.407 35.3953 209.407ZM100.116 207.08C100.479 207.08 100.773 207.379 100.773 207.748V208.252C100.773 208.621 100.479 208.92 100.116 208.92H35.3953C35.0331 208.92 34.7385 208.621 34.7385 208.252V207.748C34.7385 207.38 35.0331 207.08 35.3953 207.08H100.116Z" fill="url(#paint1_linear_6958_30447)"/>
<path d="M35.7177 218.415H100.357C100.851 218.415 101.252 218.81 101.252 219.297V219.785C101.252 220.272 100.851 220.667 100.357 220.667H35.7177C35.2233 220.667 34.8225 220.272 34.8225 219.785V219.297C34.8225 218.81 35.2233 218.415 35.7177 218.415Z" fill="white"/>
<path d="M22.9995 242V250.544C22.9995 252.629 23.767 254.539 25.0307 256H55.3092C58.9889 256 61.9995 252.95 61.9995 249.222V248.778C61.9995 245.05 58.9889 242 55.3092 242H22.9995Z" fill="white"/>
<path d="M53.9621 252.193C52.0966 252.193 50.5843 250.68 50.5843 248.815C50.5843 246.949 52.0966 245.437 53.9621 245.437C55.8276 245.437 57.3399 246.949 57.3399 248.815C57.3399 250.68 55.8276 252.193 53.9621 252.193Z" fill="white"/>
<path d="M53.6806 252.756C55.6984 252.756 57.3399 251.114 57.3399 249.096C57.3399 247.079 55.6984 245.437 53.6806 245.437C51.6629 245.437 50.0214 247.079 50.0214 249.096C50.0214 251.114 51.6629 252.756 53.6806 252.756ZM53.6806 245.905C55.4406 245.905 56.8723 247.336 56.8723 249.096C56.8723 250.856 55.4406 252.288 53.6806 252.288C51.9207 252.288 50.489 250.856 50.489 249.096C50.489 247.337 51.9207 245.905 53.6806 245.905Z" fill="url(#paint2_linear_6958_30447)"/>
<rect x="33.9995" y="206" width="68" height="4" rx="2" fill="white"/>
<rect x="33.9995" y="218" width="68" height="4" rx="2" fill="white"/>
<defs>
<linearGradient id="paint0_linear_6958_30447" x1="68.0387" y1="258.385" x2="68.0387" y2="194.771" gradientUnits="userSpaceOnUse">
<stop stop-color="#EA3033"/>
<stop offset="1" stop-color="#EA3231"/>
</linearGradient>
<linearGradient id="paint1_linear_6958_30447" x1="67.7559" y1="209.407" x2="67.7559" y2="206.593" gradientUnits="userSpaceOnUse">
<stop stop-color="#EA3033"/>
<stop offset="1" stop-color="#EA3231"/>
</linearGradient>
<linearGradient id="paint2_linear_6958_30447" x1="53.6806" y1="252.756" x2="53.6806" y2="245.437" gradientUnits="userSpaceOnUse">
<stop stop-color="#EA3033"/>
<stop offset="1" stop-color="#EA3231"/>
</linearGradient>
</defs>
</svg>
