<svg width="25" height="24" viewBox="0 0 25 24" fill="none" xmlns="http://www.w3.org/2000/svg">
    <path
        d="M12.625 15C14.2819 15 15.625 13.6569 15.625 12C15.625 10.3431 14.2819 9 12.625 9C10.9681 9 9.625 10.3431 9.625 12C9.625 13.6569 10.9681 15 12.625 15Z"
        stroke="currentColor" stroke-width="1.5" stroke-miterlimit="10" stroke-linecap="round" stroke-linejoin="round" />
    <path
        d="M2.625 12.88V11.12C2.625 10.08 3.475 9.22 4.525 9.22C6.335 9.22 7.075 7.94 6.165 6.37C5.645 5.47 5.955 4.3 6.865 3.78L8.595 2.79C9.385 2.32 10.405 2.6 10.875 3.39L10.985 3.58C11.885 5.15 13.365 5.15 14.275 3.58L14.385 3.39C14.855 2.6 15.875 2.32 16.665 2.79L18.395 3.78C19.305 4.3 19.615 5.47 19.095 6.37C18.185 7.94 18.925 9.22 20.735 9.22C21.775 9.22 22.635 10.07 22.635 11.12V12.88C22.635 13.92 21.785 14.78 20.735 14.78C18.925 14.78 18.185 16.06 19.095 17.63C19.615 18.54 19.305 19.7 18.395 20.22L16.665 21.21C15.875 21.68 14.855 21.4 14.385 20.61L14.275 20.42C13.375 18.85 11.895 18.85 10.985 20.42L10.875 20.61C10.405 21.4 9.385 21.68 8.595 21.21L6.865 20.22C5.955 19.7 5.645 18.53 6.165 17.63C7.075 16.06 6.335 14.78 4.525 14.78C3.475 14.78 2.625 13.92 2.625 12.88Z"
        stroke="currentColor" stroke-width="1.5" stroke-miterlimit="10" stroke-linecap="round" stroke-linejoin="round" />
</svg>