<svg width="16" height="16" viewBox="0 0 16 16" fill="none" xmlns="http://www.w3.org/2000/svg">
<path d="M7.53467 14.4101C7.68227 14.4962 7.75606 14.5393 7.86021 14.5616C7.94104 14.579 8.05896 14.579 8.13979 14.5616C8.24394 14.5393 8.31773 14.4962 8.46533 14.4101C9.76403 13.6525 13.3333 11.2725 13.3333 8.00021V5.46687C13.3333 4.75094 13.3333 4.39298 13.223 4.13888C13.1108 3.88061 12.9991 3.74322 12.769 3.58081C12.5427 3.42103 12.0991 3.32876 11.2118 3.14422C10.2339 2.94083 9.48285 2.57357 8.79625 2.04242C8.46701 1.78772 8.30238 1.66037 8.17356 1.62563C8.03763 1.58898 7.96237 1.58898 7.82644 1.62563C7.69762 1.66037 7.53299 1.78772 7.20375 2.04242C6.51715 2.57357 5.76613 2.94083 4.7882 3.14422C3.90092 3.32876 3.45727 3.42103 3.23096 3.58081C3.00095 3.74322 2.88919 3.88061 2.77703 4.13888C2.66667 4.39298 2.66667 4.75094 2.66667 5.46687V8.00021C2.66667 11.2725 6.23597 13.6525 7.53467 14.4101Z" stroke="currentColor" stroke-width="1.5" stroke-linecap="round" stroke-linejoin="round"/>
</svg>
