<svg width="265" height="264" viewBox="0 0 265 264" fill="none" xmlns="http://www.w3.org/2000/svg">
<rect x="76.0403" y="20.135" width="123.243" height="238.444" rx="20.1081" fill="white" stroke="#E1251B" stroke-width="1.2973"/>
<path d="M82.2688 41.281C82.2688 33.0415 88.9482 26.362 97.1877 26.362H178.139C186.379 26.362 193.058 33.0415 193.058 41.281V237.433C193.058 245.672 186.379 252.351 178.139 252.351H97.1877C88.9482 252.351 82.2688 245.672 82.2688 237.433V41.281Z" stroke="#E1251B" stroke-width="1.2973"/>
<path d="M104.451 26.2324L106.179 31.1987C107.63 35.3711 111.563 38.1676 115.981 38.1676H160.381C164.799 38.1676 168.732 35.3711 170.183 31.1987L171.911 26.2324" stroke="#E1251B" stroke-width="1.2973"/>
<rect x="125.208" y="30.9028" width="28.0217" height="2.07568" rx="1.03784" fill="#E1251B"/>
<circle cx="118.981" cy="31.9404" r="2.07568" fill="#E1251B"/>
<circle cx="158.418" cy="31.9407" r="1.03784" fill="#E1251B"/>
<path d="M157.046 56.9887C157.269 55.4185 157.634 55.4185 157.857 56.9887C158.08 58.5589 159.547 60.026 161.117 60.2489C162.687 60.4719 162.687 60.8367 161.117 61.0596C159.547 61.2826 158.08 62.7497 157.857 64.3199C157.634 65.8901 157.269 65.8901 157.046 64.3199C156.823 62.7497 155.356 61.2826 153.786 61.0596C152.216 60.8367 152.216 60.4719 153.786 60.2489C155.356 60.026 156.823 58.5589 157.046 56.9887Z" fill="#E1251B"/>
<path d="M18.2348 140.016C18.4577 138.445 18.8225 138.445 19.0455 140.016C19.2684 141.586 20.7355 143.053 22.3057 143.276C23.8759 143.499 23.8759 143.864 22.3057 144.086C20.7355 144.309 19.2684 145.777 19.0455 147.347C18.8225 148.917 18.4577 148.917 18.2348 147.347C18.0118 145.777 16.5447 144.309 14.9745 144.086C13.4043 143.864 13.4043 143.499 14.9745 143.276C16.5447 143.053 18.0118 141.586 18.2348 140.016Z" fill="#E1251B"/>
<path d="M162.661 215.027C162.84 213.766 163.133 213.766 163.312 215.027C163.492 216.289 164.67 217.468 165.932 217.647C167.194 217.826 167.194 218.12 165.932 218.299C164.67 218.478 163.492 219.657 163.312 220.919C163.133 222.18 162.84 222.18 162.661 220.919C162.482 219.657 161.303 218.478 160.041 218.299C158.779 218.12 158.779 217.826 160.041 217.647C161.303 217.468 162.482 216.289 162.661 215.027Z" fill="#E1251B"/>
<path d="M230.792 87.6382C227.74 87.6382 225.257 85.1551 225.257 82.1028C225.257 79.0506 227.74 76.5679 230.792 76.5679C233.844 76.5679 236.327 79.0509 236.327 82.1028C236.327 85.1548 233.844 87.6382 230.792 87.6382ZM230.792 77.8964C228.473 77.8964 226.585 79.7836 226.585 82.1028C226.585 84.4221 228.473 86.3096 230.792 86.3096C233.112 86.3096 234.999 84.4225 234.999 82.1028C234.999 79.7832 233.111 77.8964 230.792 77.8964Z" fill="#E1251B"/>
<path d="M15.7434 55.8107C13.9551 55.8107 12.5 54.3558 12.5 52.5674C12.5 50.7789 13.9551 49.3242 15.7434 49.3242C17.5316 49.3242 18.9865 50.7791 18.9865 52.5674C18.9865 54.3556 17.5316 55.8107 15.7434 55.8107ZM15.7434 50.1027C14.3842 50.1027 13.2784 51.2084 13.2784 52.5674C13.2784 53.9263 14.3842 55.0323 15.7434 55.0323C17.1025 55.0323 18.2081 53.9265 18.2081 52.5674C18.2081 51.2082 17.1023 50.1027 15.7434 50.1027Z" fill="#E1251B"/>
<path d="M217.99 14.5141C218.277 12.4953 218.746 12.4953 219.032 14.5141C219.319 16.5329 221.205 18.4192 223.224 18.7059C225.243 18.9925 225.243 19.4615 223.224 19.7482C221.205 20.0349 219.319 21.9211 219.032 23.94C218.746 25.9588 218.277 25.9588 217.99 23.94C217.703 21.9211 215.817 20.0349 213.798 19.7482C211.779 19.4615 211.779 18.9925 213.798 18.7059C215.817 18.4192 217.703 16.5329 217.99 14.5141Z" fill="#E1251B"/>
<path d="M224.476 231.163C224.763 229.144 225.232 229.144 225.519 231.163C225.805 233.182 227.692 235.068 229.71 235.355C231.729 235.641 231.729 236.11 229.71 236.397C227.692 236.684 225.805 238.57 225.519 240.589C225.232 242.608 224.763 242.608 224.476 240.589C224.19 238.57 222.303 236.684 220.285 236.397C218.266 236.11 218.266 235.641 220.285 235.355C222.303 235.068 224.19 233.182 224.476 231.163Z" fill="#E1251B"/>
<mask id="path-14-inside-1_9571_91931" fill="white">
<path fill-rule="evenodd" clip-rule="evenodd" d="M101.217 59C87.2323 59 75.8955 70.3368 75.8955 84.3214V117.09C75.8955 131.075 87.2323 142.412 101.217 142.412C115.202 142.412 126.538 131.075 126.538 117.09V84.3215C126.538 70.3368 115.202 59 101.217 59ZM101.218 65.7028C90.9356 65.7028 82.5997 74.0386 82.5997 84.3215V117.09C82.5997 127.373 90.9356 135.709 101.218 135.709C111.501 135.709 119.837 127.373 119.837 117.09V84.3215C119.837 74.0386 111.501 65.7028 101.218 65.7028Z"/>
</mask>
<path fill-rule="evenodd" clip-rule="evenodd" d="M101.217 59C87.2323 59 75.8955 70.3368 75.8955 84.3214V117.09C75.8955 131.075 87.2323 142.412 101.217 142.412C115.202 142.412 126.538 131.075 126.538 117.09V84.3215C126.538 70.3368 115.202 59 101.217 59ZM101.218 65.7028C90.9356 65.7028 82.5997 74.0386 82.5997 84.3215V117.09C82.5997 127.373 90.9356 135.709 101.218 135.709C111.501 135.709 119.837 127.373 119.837 117.09V84.3215C119.837 74.0386 111.501 65.7028 101.218 65.7028Z" fill="white"/>
<path d="M76.9514 84.3214C76.9514 70.9199 87.8154 60.0558 101.217 60.0558V57.9442C86.6492 57.9442 74.8397 69.7537 74.8397 84.3214H76.9514ZM76.9514 117.09V84.3214H74.8397V117.09H76.9514ZM101.217 141.356C87.8154 141.356 76.9514 130.492 76.9514 117.09H74.8397C74.8397 131.658 86.6492 143.468 101.217 143.468V141.356ZM125.483 117.09C125.483 130.492 114.618 141.356 101.217 141.356V143.468C115.785 143.468 127.594 131.658 127.594 117.09H125.483ZM125.483 84.3215V117.09H127.594V84.3215H125.483ZM101.217 60.0558C114.618 60.0558 125.483 70.9199 125.483 84.3215H127.594C127.594 69.7537 115.785 57.9442 101.217 57.9442V60.0558ZM83.6555 84.3215C83.6555 74.6218 91.5187 66.7586 101.218 66.7586V64.6469C90.3525 64.6469 81.5439 73.4555 81.5439 84.3215H83.6555ZM83.6555 117.09V84.3215H81.5439V117.09H83.6555ZM101.218 134.653C91.5187 134.653 83.6555 126.79 83.6555 117.09H81.5439C81.5439 127.956 90.3525 136.765 101.218 136.765V134.653ZM118.781 117.09C118.781 126.79 110.918 134.653 101.218 134.653V136.765C112.084 136.765 120.893 127.956 120.893 117.09H118.781ZM118.781 84.3215V117.09H120.893V84.3215H118.781ZM101.218 66.7586C110.918 66.7586 118.781 74.6218 118.781 84.3215H120.893C120.893 73.4555 112.084 64.6469 101.218 64.6469V66.7586Z" fill="#E1251B" mask="url(#path-14-inside-1_9571_91931)"/>
<rect x="67.4859" y="91.5518" width="73.419" height="50.3318" rx="8.97469" fill="#E1251B" stroke="#E1251B" stroke-width="1.05585"/>
<rect x="61.5279" y="91.5518" width="73.419" height="50.3318" rx="8.97469" fill="white" stroke="#E1251B" stroke-width="1.05585"/>
<path fill-rule="evenodd" clip-rule="evenodd" d="M101.387 116.459C102.807 115.495 103.74 113.868 103.74 112.022C103.74 109.063 101.341 106.664 98.3815 106.664C95.4223 106.664 93.0234 109.063 93.0234 112.022C93.0234 113.867 93.9564 115.495 95.3763 116.459L93.0234 127.517H103.74L101.387 116.459Z" fill="#E1251B"/>
<path d="M42.1462 201.446C42.1462 201.8 42.4335 202.089 42.7846 202.089H79.7893C80.1404 202.089 80.4277 201.8 80.4277 201.446V170.885C80.4277 170.707 80.2848 170.563 80.1085 170.563H42.7846C42.4335 170.563 42.1462 170.852 42.1462 171.206V201.446Z" fill="white"/>
<path d="M80.0334 202.139H43.1006C42.5456 202.139 42.0947 201.685 42.0947 201.127V170.962C42.0947 170.404 42.5456 169.95 43.1006 169.95H80.352C80.7313 169.95 81.0393 170.261 81.0393 170.642V201.127C81.0393 201.685 80.5884 202.139 80.0334 202.139ZM80.302 201.127V170.692H43.1006C42.9528 170.692 42.832 170.813 42.832 170.962V201.127C42.832 201.276 42.9528 201.397 43.1006 201.397H80.0334C80.1812 201.397 80.302 201.276 80.302 201.127Z" fill="#E1251B" stroke="#E1251B" stroke-width="0.1"/>
<mask id="path-21-outside-2_9571_91931" maskUnits="userSpaceOnUse" x="44.6104" y="172.378" width="34" height="27" fill="black">
<rect fill="white" x="44.6104" y="172.378" width="34" height="27"/>
<path d="M45.601 199.274H76.9677C77.322 199.274 77.6104 198.987 77.6104 198.634V178.646C77.6104 178.47 77.5364 178.304 77.4074 178.191C77.2786 178.078 77.1043 178.027 76.9288 178.05C76.9282 178.05 76.8063 178.065 76.5983 178.065C74.5744 178.065 72.9278 176.423 72.9278 174.406C72.9278 174.193 72.9449 174.059 72.9451 174.058C72.9687 173.884 72.9175 173.71 72.8046 173.581C72.6916 173.452 72.5253 173.378 72.3483 173.378H50.2973C50.1203 173.378 49.954 173.452 49.8409 173.581C49.7279 173.71 49.6768 173.884 49.7005 174.059C49.7005 174.059 49.7177 174.193 49.7177 174.406C49.7177 176.423 48.0711 178.065 46.0473 178.065C45.8172 178.065 45.6495 178.041 45.6442 178.04C45.4691 178.015 45.2932 178.064 45.1632 178.176C45.0331 178.288 44.9584 178.454 44.9584 178.631V198.634C44.9584 198.987 45.2468 199.274 45.6011 199.274H45.601ZM76.9677 178.69V198.634H45.601V178.681C45.6795 178.69 45.8431 178.705 46.0472 178.705C48.4254 178.705 50.3603 176.777 50.3603 174.406C50.3603 174.222 50.3493 174.086 50.3425 174.019H72.3027C72.296 174.086 72.285 174.222 72.285 174.406C72.285 176.777 74.2199 178.705 76.5981 178.705C76.7775 178.705 76.9044 178.696 76.9676 178.69H76.9677Z"/>
</mask>
<path d="M45.601 199.274H76.9677C77.322 199.274 77.6104 198.987 77.6104 198.634V178.646C77.6104 178.47 77.5364 178.304 77.4074 178.191C77.2786 178.078 77.1043 178.027 76.9288 178.05C76.9282 178.05 76.8063 178.065 76.5983 178.065C74.5744 178.065 72.9278 176.423 72.9278 174.406C72.9278 174.193 72.9449 174.059 72.9451 174.058C72.9687 173.884 72.9175 173.71 72.8046 173.581C72.6916 173.452 72.5253 173.378 72.3483 173.378H50.2973C50.1203 173.378 49.954 173.452 49.8409 173.581C49.7279 173.71 49.6768 173.884 49.7005 174.059C49.7005 174.059 49.7177 174.193 49.7177 174.406C49.7177 176.423 48.0711 178.065 46.0473 178.065C45.8172 178.065 45.6495 178.041 45.6442 178.04C45.4691 178.015 45.2932 178.064 45.1632 178.176C45.0331 178.288 44.9584 178.454 44.9584 178.631V198.634C44.9584 198.987 45.2468 199.274 45.6011 199.274H45.601ZM76.9677 178.69V198.634H45.601V178.681C45.6795 178.69 45.8431 178.705 46.0472 178.705C48.4254 178.705 50.3603 176.777 50.3603 174.406C50.3603 174.222 50.3493 174.086 50.3425 174.019H72.3027C72.296 174.086 72.285 174.222 72.285 174.406C72.285 176.777 74.2199 178.705 76.5981 178.705C76.7775 178.705 76.9044 178.696 76.9676 178.69H76.9677Z" fill="#E1251B"/>
<path d="M77.4074 178.191L77.3415 178.267L77.3415 178.267L77.4074 178.191ZM76.9288 178.05L76.9418 178.15H76.9288V178.05ZM72.9451 174.058L72.8459 174.045L72.846 174.044L72.9451 174.058ZM49.7005 174.059L49.8005 174.045V174.059H49.7005ZM45.6442 178.04L45.6309 178.14L45.6297 178.139L45.6442 178.04ZM45.1632 178.176L45.2285 178.252L45.2284 178.252L45.1632 178.176ZM76.9677 178.69V178.59H77.0677V178.69H76.9677ZM76.9677 198.634H77.0677V198.734H76.9677V198.634ZM45.601 198.634V198.734H45.501V198.634H45.601ZM45.601 178.681H45.501V178.569L45.6125 178.581L45.601 178.681ZM50.3425 174.019L50.243 174.029L50.2319 173.919H50.3425V174.019ZM72.3027 174.019V173.919H72.4133L72.4022 174.029L72.3027 174.019ZM76.9676 178.69L76.9578 178.59H76.9676V178.69ZM45.601 199.174H76.9677V199.374H45.601V199.174ZM76.9677 199.174C77.2671 199.174 77.5104 198.931 77.5104 198.634H77.7104C77.7104 199.042 77.377 199.374 76.9677 199.374V199.174ZM77.5104 198.634V178.646H77.7104V198.634H77.5104ZM77.5104 178.646C77.5104 178.498 77.4481 178.36 77.3415 178.267L77.4733 178.116C77.6246 178.249 77.7104 178.442 77.7104 178.646H77.5104ZM77.3415 178.267C77.2351 178.173 77.0897 178.129 76.9417 178.149L76.9159 177.95C77.1188 177.924 77.3221 177.984 77.4733 178.116L77.3415 178.267ZM76.9288 178.15C76.9306 178.15 76.9335 178.149 76.9345 178.149C76.9351 178.149 76.9361 178.149 76.9365 178.149C76.9373 178.149 76.938 178.149 76.9382 178.149C76.9388 178.149 76.9392 178.149 76.9393 178.149C76.9395 178.149 76.9397 178.149 76.9396 178.149C76.9393 178.149 76.9391 178.149 76.9385 178.149C76.9375 178.149 76.9359 178.149 76.9338 178.15C76.9296 178.15 76.9235 178.151 76.9157 178.151C76.9 178.153 76.8773 178.155 76.848 178.157C76.7894 178.161 76.7047 178.165 76.5983 178.165V177.965C76.6999 177.965 76.7802 177.961 76.8347 177.957C76.862 177.955 76.8828 177.954 76.8967 177.952C76.9036 177.952 76.9088 177.951 76.9122 177.951C76.9139 177.951 76.9152 177.95 76.916 177.95C76.9164 177.95 76.9169 177.95 76.9172 177.95C76.9174 177.95 76.9177 177.95 76.9181 177.95C76.9182 177.95 76.9187 177.95 76.9193 177.95C76.9196 177.95 76.9202 177.95 76.9211 177.95C76.9215 177.95 76.9225 177.95 76.9231 177.95C76.9241 177.95 76.927 177.95 76.9288 177.95V178.15ZM76.5983 178.165C74.5195 178.165 72.8278 176.479 72.8278 174.406H73.0278C73.0278 176.368 74.6293 177.965 76.5983 177.965V178.165ZM72.8278 174.406C72.8278 174.297 72.8322 174.208 72.8366 174.145C72.8389 174.114 72.8411 174.09 72.8428 174.073C72.8437 174.064 72.8444 174.058 72.845 174.053C72.8452 174.051 72.8455 174.049 72.8456 174.048C72.8458 174.046 72.8459 174.045 72.8459 174.045L73.0443 174.07C73.0443 174.07 73.0441 174.072 73.0436 174.076C73.0432 174.08 73.0426 174.085 73.0418 174.093C73.0403 174.108 73.0382 174.131 73.0361 174.16C73.032 174.218 73.0278 174.302 73.0278 174.406H72.8278ZM72.846 174.044C72.8659 173.898 72.8227 173.753 72.7294 173.647L72.8798 173.515C73.0124 173.666 73.0716 173.87 73.0442 174.071L72.846 174.044ZM72.7294 173.647C72.6361 173.54 72.4975 173.478 72.3483 173.478V173.278C72.553 173.278 72.7472 173.364 72.8798 173.515L72.7294 173.647ZM72.3483 173.478H50.2973V173.278H72.3483V173.478ZM50.2973 173.478C50.148 173.478 50.0095 173.54 49.9161 173.647L49.7657 173.515C49.8984 173.363 50.0926 173.278 50.2973 173.278V173.478ZM49.9161 173.647C49.8228 173.753 49.7796 173.898 49.7996 174.045L49.6014 174.072C49.574 173.87 49.633 173.666 49.7657 173.515L49.9161 173.647ZM49.8005 174.059C49.8005 174.056 49.8003 174.053 49.8003 174.052C49.8002 174.051 49.8001 174.05 49.8001 174.05C49.8 174.049 49.8 174.049 49.8 174.048C49.7999 174.048 49.7999 174.048 49.7999 174.047C49.7998 174.047 49.7998 174.047 49.7998 174.047C49.7999 174.048 49.7999 174.048 49.8 174.049C49.8001 174.05 49.8003 174.051 49.8006 174.054C49.8011 174.058 49.8018 174.065 49.8027 174.073C49.8044 174.09 49.8066 174.114 49.8088 174.145C49.8133 174.207 49.8177 174.297 49.8177 174.406H49.6177C49.6177 174.302 49.6135 174.218 49.6093 174.16C49.6073 174.131 49.6052 174.108 49.6037 174.093C49.6029 174.086 49.6023 174.08 49.6019 174.076C49.6017 174.075 49.6015 174.073 49.6014 174.072C49.6014 174.072 49.6013 174.071 49.6012 174.071C49.6012 174.071 49.6012 174.071 49.6012 174.07C49.6011 174.07 49.6011 174.07 49.601 174.069C49.601 174.069 49.601 174.068 49.6009 174.068C49.6008 174.067 49.6008 174.066 49.6007 174.065C49.6007 174.064 49.6005 174.061 49.6005 174.059H49.8005ZM49.8177 174.406C49.8177 176.479 48.126 178.165 46.0473 178.165V177.965C48.0162 177.965 49.6177 176.368 49.6177 174.406H49.8177ZM46.0473 178.165C45.9289 178.165 45.8267 178.159 45.7532 178.152C45.7164 178.149 45.6867 178.146 45.6657 178.144C45.6552 178.143 45.6469 178.142 45.6409 178.141C45.6379 178.141 45.6356 178.14 45.6338 178.14C45.6331 178.14 45.6298 178.139 45.6309 178.14L45.6574 177.941C45.6609 177.942 45.8236 177.965 46.0473 177.965V178.165ZM45.6297 178.139C45.4821 178.118 45.3356 178.16 45.2285 178.252L45.0979 178.1C45.2508 177.969 45.4562 177.912 45.6586 177.942L45.6297 178.139ZM45.2284 178.252C45.1212 178.344 45.0584 178.482 45.0584 178.631H44.8584C44.8584 178.426 44.945 178.232 45.098 178.1L45.2284 178.252ZM45.0584 178.631V198.634H44.8584V178.631H45.0584ZM45.0584 198.634C45.0584 198.931 45.3017 199.174 45.6011 199.174V199.374C45.1918 199.374 44.8584 199.042 44.8584 198.634H45.0584ZM45.6011 199.374H45.601V199.174H45.6011V199.374ZM77.0677 178.69V198.634H76.8677V178.69H77.0677ZM76.9677 198.734H45.601V198.534H76.9677V198.734ZM45.501 198.634V178.681H45.701V198.634H45.501ZM45.6125 178.581C45.6883 178.59 45.848 178.605 46.0472 178.605V178.805C45.8383 178.805 45.6707 178.79 45.5896 178.78L45.6125 178.581ZM46.0472 178.605C48.3705 178.605 50.2603 176.721 50.2603 174.406H50.4603C50.4603 176.832 48.4804 178.805 46.0472 178.805V178.605ZM50.2603 174.406C50.2603 174.226 50.2495 174.093 50.243 174.029L50.442 174.009C50.449 174.078 50.4603 174.218 50.4603 174.406H50.2603ZM50.3425 173.919H72.3027V174.119H50.3425V173.919ZM72.4022 174.029C72.3958 174.093 72.385 174.226 72.385 174.406H72.185C72.185 174.218 72.1962 174.078 72.2032 174.009L72.4022 174.029ZM72.385 174.406C72.385 176.721 74.2748 178.605 76.5981 178.605V178.805C74.165 178.805 72.185 176.832 72.185 174.406H72.385ZM76.5981 178.605C76.774 178.605 76.8976 178.596 76.9579 178.59L76.9773 178.789C76.9111 178.796 76.7809 178.805 76.5981 178.805V178.605ZM76.9676 178.59H76.9677V178.79H76.9676V178.59Z" fill="#E1251B" mask="url(#path-21-outside-2_9571_91931)"/>
<path d="M32.645 179.57H69.6496C70.0022 179.57 70.2881 179.858 70.2881 180.213V210.453C70.2881 210.808 70.0022 211.096 69.6496 211.096H32.645C32.2924 211.096 32.0065 210.808 32.0065 210.453V180.213C32.0065 179.858 32.2924 179.57 32.645 179.57Z" fill="white"/>
<path d="M69.8957 211.146H32.9629C32.4079 211.146 31.9571 210.692 31.9571 210.134V179.97C31.9571 179.412 32.4079 178.957 32.9629 178.957H69.8957C70.4507 178.957 70.9016 179.412 70.9016 179.97V210.134C70.9016 210.692 70.4507 211.146 69.8957 211.146ZM70.1643 179.97C70.1643 179.82 70.0435 179.699 69.8957 179.699H32.9629C32.8151 179.699 32.6943 179.82 32.6943 179.97V210.134C32.6943 210.284 32.8151 210.405 32.9629 210.405H69.8957C70.0435 210.405 70.1643 210.284 70.1643 210.134V179.97Z" fill="#E1251B" stroke="#E1251B" stroke-width="0.1"/>
<path d="M35.5839 208.332H66.8319C67.2138 208.332 67.5246 208.022 67.5246 207.641V187.653C67.5246 187.463 67.4448 187.284 67.3047 187.161L67.3047 187.161C67.1648 187.038 66.9763 186.982 66.7871 187.007L66.787 187.007L66.7859 187.007L66.7819 187.008L66.7657 187.009C66.7514 187.011 66.7301 187.013 66.7023 187.014C66.6468 187.018 66.5654 187.022 66.4626 187.022C64.4661 187.022 62.8421 185.403 62.8421 183.413C62.8421 183.308 62.8463 183.222 62.8506 183.163C62.8548 183.104 62.859 183.072 62.859 183.072L62.8094 183.065M35.5839 208.332L62.6688 182.588M35.5839 208.332L35.584 208.332H35.4654C35.0835 208.332 34.7727 208.022 34.7727 207.641V187.638C34.7727 187.447 34.8533 187.267 34.9948 187.145L35.0274 187.183L35.5839 208.332ZM62.8094 183.065L62.859 183.072C62.8845 182.884 62.8292 182.695 62.7063 182.555C62.7063 182.555 62.7063 182.555 62.7063 182.555L62.6688 182.588M62.8094 183.065C62.833 182.891 62.7818 182.717 62.6688 182.588M62.8094 183.065L62.8094 183.065C62.809 183.069 62.7921 183.202 62.7921 183.413C62.7921 185.43 64.4387 187.072 66.4626 187.072C66.6611 187.072 66.7812 187.058 66.7922 187.057C66.7928 187.057 66.793 187.057 66.7931 187.057C66.9686 187.034 67.1428 187.086 67.2718 187.198L62.6688 182.588M35.5153 207.591H66.7819V187.751C66.71 187.757 66.6018 187.762 66.4624 187.762C64.0567 187.762 62.0992 185.811 62.0992 183.413C62.0992 183.268 62.106 183.152 62.1123 183.076H40.2615C40.2678 183.152 40.2745 183.268 40.2745 183.413C40.2745 185.811 38.3171 187.762 35.9114 187.762C35.745 187.762 35.6051 187.752 35.5153 187.744V207.591Z" fill="#E1251B" stroke="#E1251B" stroke-width="0.1"/>
<path d="M55.5052 241.916H23.5644V202.886C23.5644 198.423 27.2095 194.771 31.6646 194.771H104.412C108.868 194.771 112.513 198.423 112.513 202.886V250.27C112.513 254.733 108.868 258.385 104.412 258.385H31.6646C29.2427 258.385 27.0601 257.307 25.5724 255.604H55.5052C59.1428 255.604 62.1191 252.622 62.1191 248.977V248.543C62.1191 244.898 59.1428 241.916 55.5052 241.916ZM101.281 207.527C101.281 207.035 100.88 206.633 100.389 206.633H35.9919C35.5014 206.633 35.1001 207.035 35.1001 207.527V208.021C35.1001 208.512 35.5014 208.914 35.9919 208.914H100.389C100.88 208.914 101.281 208.512 101.281 208.021V207.527ZM100.389 220.929C100.88 220.929 101.281 220.527 101.281 220.035V219.541C101.281 219.05 100.88 218.647 100.389 218.647H35.9919C35.5014 218.647 35.1001 219.05 35.1001 219.541V220.035C35.1001 220.527 35.5014 220.929 35.9919 220.929H100.389Z" fill="url(#paint0_linear_9571_91931)"/>
<path d="M31.3482 258.948H104.166C108.768 258.948 112.513 255.195 112.513 250.583V203.136C112.513 198.523 108.768 194.771 104.166 194.771H31.3482C26.7458 194.771 23.0016 198.523 23.0016 203.136V242.457H55.2117C58.7307 242.457 61.5935 245.327 61.5935 248.854V249.288C61.5935 252.815 58.7306 255.685 55.2117 255.685H24.7243L25.0706 256.081C26.6619 257.903 28.95 258.948 31.3482 258.948ZM104.166 195.249C108.505 195.249 112.036 198.787 112.036 203.136V250.583C112.036 254.932 108.505 258.47 104.166 258.47H31.3482C29.2676 258.47 27.2746 257.635 25.8003 256.163H55.2117C58.9936 256.163 62.0704 253.079 62.0704 249.288V248.854C62.0704 245.063 58.9936 241.979 55.2117 241.979H23.4786V203.136C23.4786 198.787 27.0088 195.249 31.3481 195.249H104.166ZM35.6796 221.442H100.139C100.763 221.442 101.27 220.933 101.27 220.308V219.813C101.27 219.188 100.763 218.679 100.139 218.679H35.6796C35.0559 218.679 34.5485 219.188 34.5485 219.813V220.308C34.5485 220.933 35.0559 221.442 35.6796 221.442ZM100.139 219.157C100.5 219.157 100.793 219.451 100.793 219.813V220.308C100.793 220.67 100.5 220.964 100.139 220.964H35.6796C35.3189 220.964 35.0255 220.67 35.0255 220.308V219.813C35.0255 219.452 35.3188 219.157 35.6796 219.157H100.139ZM35.6796 209.411H100.139C100.763 209.411 101.27 208.903 101.27 208.278V207.782C101.27 207.157 100.763 206.649 100.139 206.649H35.6796C35.0559 206.649 34.5485 207.157 34.5485 207.782V208.278C34.5485 208.903 35.0559 209.411 35.6796 209.411ZM100.139 207.127C100.5 207.127 100.793 207.421 100.793 207.783V208.278C100.793 208.639 100.5 208.933 100.139 208.933H35.6796C35.3189 208.933 35.0255 208.639 35.0255 208.278V207.783C35.0255 207.421 35.3188 207.127 35.6796 207.127H100.139Z" fill="white"/>
<path d="M31.3482 258.948H104.166C108.768 258.948 112.513 255.195 112.513 250.583V203.136C112.513 198.523 108.768 194.771 104.166 194.771H31.3482C26.7458 194.771 23.0016 198.523 23.0016 203.136V242.457H55.2117C58.7307 242.457 61.5935 245.327 61.5935 248.854V249.288C61.5935 252.815 58.7306 255.685 55.2117 255.685H24.7243L25.0706 256.081C26.6619 257.903 28.95 258.948 31.3482 258.948ZM104.166 195.249C108.505 195.249 112.036 198.787 112.036 203.136V250.583C112.036 254.932 108.505 258.47 104.166 258.47H31.3482C29.2676 258.47 27.2746 257.635 25.8003 256.163H55.2117C58.9936 256.163 62.0704 253.079 62.0704 249.288V248.854C62.0704 245.063 58.9936 241.979 55.2117 241.979H23.4786V203.136C23.4786 198.787 27.0088 195.249 31.3481 195.249H104.166ZM35.6796 221.442H100.139C100.763 221.442 101.27 220.933 101.27 220.308V219.813C101.27 219.188 100.763 218.679 100.139 218.679H35.6796C35.0559 218.679 34.5485 219.188 34.5485 219.813V220.308C34.5485 220.933 35.0559 221.442 35.6796 221.442ZM100.139 219.157C100.5 219.157 100.793 219.451 100.793 219.813V220.308C100.793 220.67 100.5 220.964 100.139 220.964H35.6796C35.3189 220.964 35.0255 220.67 35.0255 220.308V219.813C35.0255 219.452 35.3188 219.157 35.6796 219.157H100.139ZM35.6796 209.411H100.139C100.763 209.411 101.27 208.903 101.27 208.278V207.782C101.27 207.157 100.763 206.649 100.139 206.649H35.6796C35.0559 206.649 34.5485 207.157 34.5485 207.782V208.278C34.5485 208.903 35.0559 209.411 35.6796 209.411ZM100.139 207.127C100.5 207.127 100.793 207.421 100.793 207.783V208.278C100.793 208.639 100.5 208.933 100.139 208.933H35.6796C35.3189 208.933 35.0255 208.639 35.0255 208.278V207.783C35.0255 207.421 35.3188 207.127 35.6796 207.127H100.139Z" stroke="white"/>
<path d="M35.395 209.408H100.116C100.742 209.408 101.252 208.889 101.252 208.252V207.748C101.252 207.111 100.743 206.593 100.116 206.593H35.395C34.7688 206.593 34.2592 207.111 34.2592 207.748V208.252C34.2592 208.889 34.7688 209.408 35.395 209.408ZM100.116 207.08C100.478 207.08 100.773 207.38 100.773 207.748V208.252C100.773 208.621 100.478 208.921 100.116 208.921H35.395C35.0328 208.921 34.7382 208.621 34.7382 208.252V207.748C34.7382 207.38 35.0328 207.08 35.395 207.08H100.116Z" fill="url(#paint1_linear_9571_91931)"/>
<path d="M35.7174 218.415H100.357C100.851 218.415 101.252 218.81 101.252 219.297V219.785C101.252 220.272 100.851 220.667 100.357 220.667H35.7174C35.223 220.667 34.8222 220.272 34.8222 219.785V219.297C34.8222 218.81 35.223 218.415 35.7174 218.415Z" fill="white"/>
<path d="M22.999 242V250.544C22.999 252.629 23.7665 254.539 25.0302 256H55.3087C58.9884 256 61.999 252.95 61.999 249.222V248.778C61.999 245.05 58.9884 242 55.3087 242H22.999Z" fill="white"/>
<path d="M53.9621 252.193C52.0966 252.193 50.5843 250.68 50.5843 248.815C50.5843 246.949 52.0966 245.437 53.9621 245.437C55.8276 245.437 57.3398 246.949 57.3398 248.815C57.3398 250.68 55.8276 252.193 53.9621 252.193Z" fill="white"/>
<path d="M53.6806 252.756C55.6983 252.756 57.3398 251.114 57.3398 249.096C57.3398 247.079 55.6983 245.437 53.6806 245.437C51.6629 245.437 50.0213 247.078 50.0213 249.096C50.0213 251.114 51.6629 252.756 53.6806 252.756ZM53.6806 245.905C55.4405 245.905 56.8723 247.336 56.8723 249.096C56.8723 250.856 55.4405 252.288 53.6806 252.288C51.9207 252.288 50.4889 250.856 50.4889 249.096C50.4889 247.336 51.9207 245.905 53.6806 245.905Z" fill="url(#paint2_linear_9571_91931)"/>
<rect x="33.999" y="206" width="68" height="4" rx="2" fill="white"/>
<rect x="33.999" y="218" width="68" height="4" rx="2" fill="white"/>
<path d="M165.785 161.11L165.302 161.611L165.785 161.11C164.758 160.12 164.024 159.412 163.506 158.807C162.995 158.21 162.745 157.769 162.638 157.333C162.503 156.787 162.503 156.217 162.638 155.672C162.745 155.236 162.995 154.795 163.506 154.198C164.024 153.593 164.758 152.884 165.785 151.895L165.302 151.394L165.785 151.895L166.001 151.687C166.038 151.651 166.074 151.616 166.111 151.581C167.234 150.499 167.941 149.819 168.326 148.965C168.544 148.483 168.682 147.968 168.735 147.442C168.827 146.51 168.556 145.568 168.124 144.069C168.11 144.02 168.096 143.971 168.081 143.922L167.998 143.634C167.604 142.263 167.322 141.283 167.176 140.5C167.032 139.727 167.036 139.221 167.161 138.789C167.318 138.25 167.603 137.756 167.992 137.351C168.303 137.027 168.739 136.77 169.481 136.508C170.232 136.243 171.222 135.997 172.606 135.653L172.897 135.581C172.947 135.569 172.996 135.557 173.045 135.544C174.559 135.169 175.511 134.933 176.272 134.387C176.702 134.078 177.078 133.702 177.387 133.272C177.933 132.511 178.169 131.559 178.544 130.045C178.557 129.996 178.569 129.947 178.581 129.897L178.653 129.606C178.997 128.222 179.243 127.232 179.508 126.481C179.77 125.739 180.027 125.303 180.351 124.992C180.756 124.603 181.25 124.318 181.789 124.161C182.221 124.036 182.727 124.032 183.5 124.176C184.283 124.322 185.263 124.604 186.634 124.998L186.922 125.081C186.971 125.096 187.02 125.11 187.069 125.124C188.568 125.556 189.51 125.827 190.442 125.735C190.968 125.682 191.483 125.544 191.965 125.326C192.819 124.941 193.499 124.234 194.581 123.111C194.616 123.074 194.651 123.038 194.687 123.001L194.895 122.785C195.884 121.758 196.593 121.024 197.198 120.506C197.795 119.995 198.236 119.745 198.672 119.638C199.217 119.503 199.787 119.503 200.333 119.638C200.769 119.745 201.21 119.995 201.807 120.506C202.412 121.024 203.12 121.758 204.11 122.785L204.318 123.001L204.819 122.518L204.318 123.001C204.354 123.038 204.389 123.074 204.424 123.111C205.506 124.234 206.186 124.941 207.04 125.326C207.522 125.544 208.036 125.682 208.563 125.735C209.495 125.827 210.437 125.556 211.936 125.124C211.985 125.11 212.034 125.096 212.083 125.081L212.371 124.998C213.741 124.604 214.722 124.322 215.505 124.176C216.278 124.032 216.784 124.036 217.216 124.161C217.755 124.318 218.249 124.603 218.654 124.992C218.978 125.303 219.235 125.739 219.497 126.481C219.762 127.232 220.008 128.222 220.352 129.606L220.424 129.897C220.436 129.947 220.448 129.996 220.46 130.045C220.836 131.559 221.072 132.511 221.618 133.272C221.927 133.702 222.303 134.078 222.733 134.387C223.494 134.933 224.445 135.169 225.96 135.544C226.009 135.557 226.058 135.569 226.108 135.581L226.399 135.653C227.783 135.997 228.773 136.243 229.524 136.508C230.266 136.77 230.702 137.027 231.013 137.351C231.402 137.756 231.687 138.25 231.844 138.789C231.969 139.221 231.973 139.727 231.829 140.5C231.683 141.283 231.401 142.263 231.006 143.634L230.924 143.922L230.881 144.069C230.449 145.568 230.178 146.51 230.27 147.442C230.323 147.968 230.461 148.483 230.678 148.965C231.064 149.819 231.77 150.499 232.894 151.581L233.004 151.687L233.22 151.895C234.247 152.884 234.981 153.593 235.499 154.198C236.01 154.795 236.26 155.236 236.367 155.672C236.502 156.217 236.502 156.787 236.367 157.333C236.26 157.769 236.01 158.21 235.499 158.807C234.981 159.412 234.247 160.12 233.22 161.11L233.004 161.318C232.967 161.354 232.931 161.389 232.894 161.424C231.77 162.506 231.064 163.186 230.678 164.04C230.461 164.522 230.323 165.036 230.27 165.563C230.178 166.495 230.449 167.437 230.881 168.936L230.924 169.083L231.006 169.371C231.401 170.741 231.683 171.722 231.829 172.505C231.973 173.278 231.969 173.784 231.844 174.216C231.687 174.755 231.402 175.249 231.013 175.654C230.702 175.978 230.266 176.235 229.524 176.497C228.773 176.762 227.783 177.008 226.399 177.352L226.108 177.424C226.058 177.436 226.009 177.448 225.96 177.46C224.445 177.836 223.494 178.072 222.733 178.618C222.303 178.927 221.927 179.303 221.618 179.733C221.072 180.494 220.836 181.445 220.46 182.96C220.448 183.009 220.436 183.058 220.424 183.108L220.352 183.399C220.008 184.783 219.762 185.773 219.497 186.524C219.235 187.266 218.978 187.702 218.654 188.013C218.249 188.402 217.755 188.687 217.216 188.844C216.784 188.969 216.278 188.973 215.505 188.829C214.722 188.683 213.741 188.401 212.371 188.006L212.083 187.924L211.936 187.881C210.437 187.449 209.495 187.178 208.563 187.27C208.036 187.323 207.522 187.461 207.04 187.678C206.186 188.064 205.506 188.77 204.424 189.894C204.389 189.93 204.354 189.967 204.318 190.004L204.11 190.22C203.12 191.247 202.412 191.981 201.807 192.499C201.21 193.01 200.769 193.26 200.333 193.367C199.787 193.502 199.217 193.502 198.672 193.367C198.236 193.26 197.795 193.01 197.198 192.499C196.593 191.981 195.884 191.247 194.895 190.22L194.687 190.004L194.581 189.894C193.499 188.77 192.819 188.064 191.965 187.678C191.483 187.461 190.968 187.323 190.442 187.27C189.51 187.178 188.568 187.449 187.069 187.881L186.922 187.924L186.634 188.006C185.263 188.401 184.283 188.683 183.5 188.829C182.727 188.973 182.221 188.969 181.789 188.844C181.25 188.687 180.756 188.402 180.351 188.013C180.027 187.702 179.77 187.266 179.508 186.524C179.243 185.773 178.997 184.783 178.653 183.399L178.581 183.108C178.569 183.058 178.557 183.009 178.544 182.96C178.169 181.445 177.933 180.494 177.387 179.733C177.078 179.303 176.702 178.927 176.272 178.618C175.511 178.072 174.559 177.836 173.045 177.46C172.996 177.448 172.947 177.436 172.897 177.424L172.606 177.352C171.222 177.008 170.232 176.762 169.481 176.497C168.739 176.235 168.303 175.978 167.992 175.654C167.603 175.249 167.318 174.755 167.161 174.216C167.036 173.784 167.032 173.278 167.176 172.505C167.322 171.722 167.604 170.741 167.998 169.371L168.081 169.083C168.096 169.034 168.11 168.985 168.124 168.936C168.556 167.437 168.827 166.495 168.735 165.563C168.682 165.036 168.544 164.522 168.326 164.04C167.941 163.186 167.234 162.506 166.111 161.424C166.074 161.389 166.038 161.354 166.001 161.318L165.785 161.11Z" fill="white" stroke="#E1251B" stroke-width="1.39093"/>
<path d="M200.916 125.812L201.198 125.176L200.916 125.812C201.192 125.934 201.482 126.136 201.884 126.501C202.291 126.871 202.775 127.372 203.45 128.074L203.523 128.149C204.264 128.919 204.729 129.401 205.275 129.731C206.063 130.208 206.971 130.451 207.892 130.432C208.53 130.419 209.173 130.234 210.2 129.938L210.3 129.909C211.236 129.64 211.906 129.447 212.443 129.331C212.974 129.215 213.326 129.186 213.627 129.217C214.605 129.321 215.493 129.834 216.072 130.629C216.25 130.873 216.4 131.193 216.566 131.711C216.733 132.234 216.901 132.91 217.136 133.856L217.161 133.957C217.418 134.994 217.579 135.644 217.887 136.203L218.496 135.868L217.887 136.203C218.332 137.01 218.996 137.675 219.803 138.119C220.362 138.427 221.012 138.588 222.049 138.845L222.15 138.87C223.096 139.105 223.772 139.273 224.295 139.44C224.813 139.606 225.133 139.757 225.377 139.934C226.172 140.513 226.685 141.402 226.789 142.38C226.821 142.68 226.791 143.032 226.676 143.563C226.559 144.101 226.367 144.77 226.097 145.706L226.068 145.806C225.772 146.833 225.587 147.477 225.574 148.115C225.555 149.036 225.798 149.943 226.275 150.731C226.605 151.278 227.088 151.742 227.857 152.483L227.932 152.556C228.634 153.232 229.135 153.715 229.505 154.122C229.871 154.524 230.072 154.815 230.195 155.09C230.594 155.989 230.594 157.015 230.195 157.914C230.072 158.19 229.871 158.48 229.505 158.883C229.135 159.29 228.634 159.773 227.932 160.449L227.857 160.522C227.088 161.263 226.605 161.727 226.275 162.273C225.798 163.062 225.555 163.969 225.574 164.89C225.587 165.528 225.772 166.172 226.068 167.198L226.097 167.299C226.367 168.235 226.559 168.904 226.676 169.441C226.791 169.973 226.821 170.325 226.789 170.625C226.685 171.603 226.172 172.492 225.377 173.071C225.133 173.248 224.813 173.399 224.295 173.564C223.772 173.732 223.096 173.9 222.15 174.134L222.049 174.16C221.012 174.417 220.362 174.578 219.803 174.886C218.996 175.33 218.332 175.994 217.887 176.801C217.579 177.36 217.418 178.011 217.161 179.047L217.136 179.149C216.901 180.094 216.733 180.77 216.566 181.294C216.4 181.812 216.25 182.131 216.072 182.375C215.493 183.171 214.605 183.684 213.627 183.787C213.326 183.819 212.974 183.79 212.443 183.674C211.906 183.558 211.236 183.365 210.3 183.096L210.2 183.067C209.173 182.771 208.53 182.585 207.892 182.572C206.971 182.554 206.063 182.797 205.275 183.274C204.729 183.604 204.264 184.086 203.523 184.856L203.45 184.931C202.775 185.632 202.291 186.134 201.884 186.503C201.482 186.869 201.192 187.071 200.916 187.193C200.017 187.593 198.991 187.593 198.092 187.193C197.816 187.071 197.526 186.869 197.123 186.503C196.717 186.134 196.233 185.632 195.557 184.931L195.485 184.856C194.744 184.086 194.279 183.604 193.733 183.274C192.945 182.797 192.037 182.554 191.116 182.572C190.478 182.585 189.834 182.771 188.808 183.067L188.707 183.096C187.771 183.365 187.102 183.558 186.565 183.674C186.033 183.79 185.681 183.819 185.381 183.787C184.403 183.684 183.514 183.171 182.936 182.375C182.758 182.131 182.607 181.812 182.442 181.294C182.274 180.77 182.106 180.094 181.872 179.149L181.847 179.047C181.589 178.011 181.428 177.36 181.12 176.801C180.676 175.994 180.012 175.33 179.205 174.886L178.869 175.495L179.205 174.886C178.646 174.578 177.996 174.417 176.959 174.16L176.857 174.134C175.912 173.9 175.236 173.732 174.713 173.564C174.194 173.399 173.875 173.248 173.631 173.071C172.835 172.492 172.322 171.603 172.219 170.625C172.187 170.325 172.216 169.973 172.332 169.441C172.449 168.904 172.641 168.235 172.911 167.299L172.94 167.198C173.235 166.172 173.421 165.528 173.434 164.89C173.452 163.969 173.209 163.062 172.733 162.273C172.402 161.727 171.92 161.263 171.151 160.522L171.075 160.449C170.374 159.773 169.872 159.29 169.503 158.883C169.137 158.48 168.936 158.19 168.813 157.914L168.177 158.197L168.813 157.914C168.414 157.015 168.414 155.989 168.813 155.09C168.936 154.815 169.137 154.524 169.503 154.122C169.872 153.715 170.374 153.232 171.075 152.556C171.101 152.531 171.126 152.507 171.151 152.483C171.92 151.742 172.402 151.278 172.733 150.731C173.209 149.943 173.452 149.036 173.434 148.115C173.421 147.477 173.235 146.833 172.94 145.806C172.93 145.773 172.92 145.74 172.911 145.706C172.641 144.77 172.449 144.101 172.332 143.563C172.216 143.032 172.187 142.68 172.219 142.38C172.322 141.402 172.835 140.513 173.631 139.934C173.875 139.757 174.194 139.606 174.713 139.44C175.236 139.273 175.912 139.105 176.857 138.87C176.892 138.862 176.925 138.853 176.959 138.845C177.996 138.588 178.646 138.427 179.205 138.119C180.012 137.675 180.676 137.01 181.12 136.203C181.428 135.644 181.589 134.994 181.847 133.957C181.855 133.924 181.863 133.89 181.872 133.856C182.106 132.91 182.274 132.234 182.442 131.711C182.607 131.193 182.758 130.873 182.936 130.629C183.514 129.834 184.403 129.321 185.381 129.217C185.681 129.186 186.033 129.215 186.565 129.331C187.102 129.447 187.771 129.64 188.707 129.909C188.741 129.919 188.775 129.929 188.808 129.938C189.834 130.234 190.478 130.419 191.116 130.432C192.037 130.451 192.945 130.208 193.733 129.731C194.279 129.401 194.744 128.919 195.485 128.149C195.509 128.124 195.533 128.099 195.557 128.074C196.233 127.372 196.717 126.871 197.123 126.501C197.526 126.136 197.816 125.934 198.092 125.812C198.991 125.412 200.017 125.412 200.916 125.812Z" fill="#E1251B" stroke="white" stroke-width="1.39093"/>
<path d="M195.014 168.333L188.32 161.653" stroke="white" stroke-width="3" stroke-miterlimit="10" stroke-linecap="round" stroke-linejoin="round"/>
<path d="M195.014 145.667V168.333" stroke="white" stroke-width="3" stroke-miterlimit="10" stroke-linecap="round" stroke-linejoin="round"/>
<path d="M202.986 145.667L209.68 152.347" stroke="white" stroke-width="3" stroke-miterlimit="10" stroke-linecap="round" stroke-linejoin="round"/>
<path d="M202.986 168.333V145.667" stroke="white" stroke-width="3" stroke-miterlimit="10" stroke-linecap="round" stroke-linejoin="round"/>
<defs>
<linearGradient id="paint0_linear_9571_91931" x1="68.0385" y1="258.385" x2="68.0385" y2="194.771" gradientUnits="userSpaceOnUse">
<stop stop-color="#EA3033"/>
<stop offset="1" stop-color="#EA3231"/>
</linearGradient>
<linearGradient id="paint1_linear_9571_91931" x1="67.7556" y1="209.408" x2="67.7556" y2="206.593" gradientUnits="userSpaceOnUse">
<stop stop-color="#EA3033"/>
<stop offset="1" stop-color="#EA3231"/>
</linearGradient>
<linearGradient id="paint2_linear_9571_91931" x1="53.6806" y1="252.756" x2="53.6806" y2="245.437" gradientUnits="userSpaceOnUse">
<stop stop-color="#EA3033"/>
<stop offset="1" stop-color="#EA3231"/>
</linearGradient>
</defs>
</svg>
