<svg width="25" height="24" viewBox="0 0 25 24" fill="none" xmlns="http://www.w3.org/2000/svg">
<path d="M12.5 24C19.1274 24 24.5 18.6274 24.5 12C24.5 5.37258 19.1274 0 12.5 0C5.87258 0 0.5 5.37258 0.5 12C0.5 18.6274 5.87258 24 12.5 24Z" fill="url(#paint0_linear_11392_113710)"/>
<path d="M5.49406 11.8959L13.575 8.56642C14.3727 8.2196 17.0779 7.10977 17.0779 7.10977C17.0779 7.10977 18.3264 6.62422 18.2224 7.80341C18.1877 8.28896 17.9102 9.98838 17.6328 11.8265L16.7657 17.2716C16.7657 17.2716 16.6964 18.0693 16.1068 18.208C15.5172 18.3468 14.5461 17.7225 14.3727 17.5838C14.2339 17.4797 11.7715 15.919 10.8698 15.156C10.627 14.9479 10.3496 14.5317 10.9045 14.0462C12.153 12.9017 13.6444 11.4797 14.5461 10.578C14.9623 10.1618 15.3785 9.1907 13.6444 10.3699L8.75418 13.6647C8.75418 13.6647 8.19927 14.0115 7.1588 13.6994C6.11834 13.3872 4.90447 12.971 4.90447 12.971C4.90447 12.971 4.0721 12.4508 5.49406 11.8959Z" fill="white"/>
<defs>
<linearGradient id="paint0_linear_11392_113710" x1="16.5009" y1="4.00093" x2="10.5009" y2="18" gradientUnits="userSpaceOnUse">
<stop stop-color="#37AEE2"/>
<stop offset="1" stop-color="#1E96C8"/>
</linearGradient>
</defs>
</svg>
