<svg width="32" height="32" viewBox="0 0 32 32" fill="none" xmlns="http://www.w3.org/2000/svg">
<path d="M15.9997 11.9999V17.3333M15.9997 22.6666H16.013M14.1535 5.18891L3.18694 24.1311C2.57866 25.1817 2.27453 25.707 2.31948 26.1382C2.35868 26.5143 2.55571 26.856 2.86152 27.0783C3.21213 27.3333 3.81915 27.3333 5.03318 27.3333H26.9662C28.1802 27.3333 28.7873 27.3333 29.1379 27.0783C29.4437 26.856 29.6407 26.5143 29.6799 26.1382C29.7249 25.707 29.4207 25.1817 28.8124 24.1311L17.8459 5.1889C17.2398 4.14202 16.9368 3.61858 16.5414 3.44277C16.1966 3.28942 15.8028 3.28942 15.458 3.44277C15.0626 3.61858 14.7595 4.14202 14.1535 5.18891Z" stroke="white" stroke-width="1.5" stroke-linecap="round" stroke-linejoin="round"/>
</svg>
