<svg width="21" height="20" viewBox="0 0 21 20" fill="none" xmlns="http://www.w3.org/2000/svg">
<path d="M7.1665 4.79199C6.82484 4.79199 6.5415 4.50866 6.5415 4.16699V1.66699C6.5415 1.32533 6.82484 1.04199 7.1665 1.04199C7.50817 1.04199 7.7915 1.32533 7.7915 1.66699V4.16699C7.7915 4.50866 7.50817 4.79199 7.1665 4.79199Z" fill="currentColor"/>
<path d="M13.8335 4.79199C13.4918 4.79199 13.2085 4.50866 13.2085 4.16699V1.66699C13.2085 1.32533 13.4918 1.04199 13.8335 1.04199C14.1752 1.04199 14.4585 1.32533 14.4585 1.66699V4.16699C14.4585 4.50866 14.1752 4.79199 13.8335 4.79199Z" fill="currentColor"/>
<path d="M7.58333 12.0834C7.475 12.0834 7.36666 12.0584 7.26666 12.0168C7.15833 11.9751 7.07501 11.9167 6.99167 11.8417C6.84167 11.6834 6.75 11.4667 6.75 11.2501C6.75 11.0334 6.84167 10.8167 6.99167 10.6584C7.07501 10.5834 7.16666 10.5251 7.26666 10.4834C7.46666 10.4001 7.7 10.4001 7.9 10.4834C8 10.5251 8.09166 10.5834 8.17499 10.6584C8.20833 10.7001 8.24999 10.7417 8.27499 10.7834C8.30832 10.8334 8.33334 10.8834 8.35001 10.9334C8.37501 10.9834 8.39168 11.0334 8.40001 11.0834C8.40834 11.1417 8.41667 11.2001 8.41667 11.2501C8.41667 11.4667 8.32499 11.6834 8.17499 11.8417C8.09166 11.9167 8 11.9751 7.9 12.0168C7.8 12.0584 7.69167 12.0834 7.58333 12.0834Z" fill="currentColor"/>
<path d="M10.4998 12.083C10.3915 12.083 10.2832 12.058 10.1832 12.0163C10.0748 11.9747 9.99151 11.9163 9.90818 11.8413C9.75818 11.683 9.6665 11.4663 9.6665 11.2497C9.6665 11.1997 9.67483 11.1413 9.68316 11.083C9.69149 11.033 9.70816 10.983 9.73316 10.933C9.74983 10.883 9.77485 10.833 9.80818 10.783C9.84152 10.7413 9.87484 10.6997 9.90818 10.658C10.2165 10.3497 10.7748 10.3497 11.0915 10.658C11.1248 10.6997 11.1582 10.7413 11.1915 10.783C11.2248 10.833 11.2498 10.883 11.2665 10.933C11.2915 10.983 11.3082 11.033 11.3165 11.083C11.3248 11.1413 11.3332 11.1997 11.3332 11.2497C11.3332 11.4663 11.2415 11.683 11.0915 11.8413C10.9332 11.9913 10.7248 12.083 10.4998 12.083Z" fill="currentColor"/>
<path d="M7.58333 15.0004C7.475 15.0004 7.36666 14.9754 7.26666 14.9337C7.16666 14.8921 7.07501 14.8337 6.99167 14.7587C6.84167 14.6004 6.75 14.3837 6.75 14.1671C6.75 14.1171 6.75832 14.0587 6.76666 14.0087C6.77499 13.9504 6.79166 13.9004 6.81666 13.8504C6.83332 13.8004 6.85834 13.7504 6.89168 13.7004C6.91668 13.6587 6.95834 13.6171 6.99167 13.5754C7.07501 13.5004 7.16666 13.4421 7.26666 13.4004C7.46666 13.3171 7.7 13.3171 7.9 13.4004C8 13.4421 8.09166 13.5004 8.17499 13.5754C8.20833 13.6171 8.24999 13.6587 8.27499 13.7004C8.30832 13.7504 8.33334 13.8004 8.35001 13.8504C8.37501 13.9004 8.39168 13.9504 8.40001 14.0087C8.40834 14.0587 8.41667 14.1171 8.41667 14.1671C8.41667 14.3837 8.32499 14.6004 8.17499 14.7587C8.09166 14.8337 8 14.8921 7.9 14.9337C7.8 14.9754 7.69167 15.0004 7.58333 15.0004Z" fill="currentColor"/>
<path d="M17.5832 8.20019H3.4165C3.07484 8.20019 2.7915 7.91686 2.7915 7.5752C2.7915 7.23353 3.07484 6.9502 3.4165 6.9502H17.5832C17.9248 6.9502 18.2082 7.23353 18.2082 7.5752C18.2082 7.91686 17.9248 8.20019 17.5832 8.20019Z" fill="currentColor"/>
<path d="M10.5 18.9587H7.16667C4.125 18.9587 2.375 17.2087 2.375 14.167V7.08366C2.375 4.04199 4.125 2.29199 7.16667 2.29199H13.8333C16.875 2.29199 18.625 4.04199 18.625 7.08366V10.0003C18.625 10.342 18.3417 10.6253 18 10.6253C17.6583 10.6253 17.375 10.342 17.375 10.0003V7.08366C17.375 4.70033 16.2167 3.54199 13.8333 3.54199H7.16667C4.78333 3.54199 3.625 4.70033 3.625 7.08366V14.167C3.625 16.5503 4.78333 17.7087 7.16667 17.7087H10.5C10.8417 17.7087 11.125 17.992 11.125 18.3337C11.125 18.6753 10.8417 18.9587 10.5 18.9587Z" fill="currentColor"/>
<path d="M17.4995 14.9586C17.1578 14.9586 16.8745 14.6753 16.8745 14.3336V13.667C16.8745 12.7337 16.6662 12.292 15.4995 12.292C14.3328 12.292 14.1245 12.7337 14.1245 13.667V14.3336C14.1245 14.6753 13.8412 14.9586 13.4995 14.9586C13.1578 14.9586 12.8745 14.6753 12.8745 14.3336V13.667C12.8745 11.9253 13.7578 11.042 15.4995 11.042C17.2412 11.042 18.1245 11.9253 18.1245 13.667V14.3336C18.1245 14.6753 17.8412 14.9586 17.4995 14.9586Z" fill="currentColor"/>
<path d="M17.1665 18.958H13.8332C12.1665 18.958 11.5415 18.333 11.5415 16.6664V15.9997C11.5415 14.333 12.1665 13.708 13.8332 13.708H17.1665C18.8332 13.708 19.4582 14.333 19.4582 15.9997V16.6664C19.4582 18.333 18.8332 18.958 17.1665 18.958ZM13.8332 14.958C12.8415 14.958 12.7915 15.008 12.7915 15.9997V16.6664C12.7915 17.6497 12.8498 17.708 13.8332 17.708H17.1665C18.1498 17.708 18.2082 17.6497 18.2082 16.6664V15.9997C18.2082 15.008 18.1582 14.958 17.1665 14.958H13.8332Z" fill="currentColor"/>
</svg>
