<svg width="33" height="32" viewBox="0 0 33 32" fill="none" xmlns="http://www.w3.org/2000/svg">
<path d="M17.8337 9.33333L16.3463 6.35856C15.9182 5.5024 15.7041 5.07431 15.3848 4.76155C15.1024 4.48497 14.7621 4.27463 14.3884 4.14575C13.9659 4 13.4873 4 12.53 4H7.43366C5.94019 4 5.19345 4 4.62302 4.29065C4.12125 4.54631 3.7133 4.95426 3.45764 5.45603C3.16699 6.02646 3.16699 6.77319 3.16699 8.26667V9.33333M3.16699 9.33333H23.4337C25.6739 9.33333 26.794 9.33333 27.6496 9.76931C28.4023 10.1528 29.0142 10.7647 29.3977 11.5174C29.8337 12.373 29.8337 13.4931 29.8337 15.7333V21.6C29.8337 23.8402 29.8337 24.9603 29.3977 25.816C29.0142 26.5686 28.4023 27.1805 27.6496 27.564C26.794 28 25.6739 28 23.4337 28H9.56699C7.32678 28 6.20668 28 5.35103 27.564C4.59838 27.1805 3.98646 26.5686 3.60297 25.816C3.16699 24.9603 3.16699 23.8402 3.16699 21.6V9.33333Z" stroke="#A6A9B0" stroke-width="2" stroke-linecap="round" stroke-linejoin="round"/>
</svg>
