<svg width="265" height="264" viewBox="0 0 265 264" fill="none" xmlns="http://www.w3.org/2000/svg">
<rect x="81.0403" y="24.1351" width="123.243" height="238.444" rx="20.1081" fill="white" stroke="#E1251B" stroke-width="1.2973"/>
<path d="M87.2683 45.2811C87.2683 37.0416 93.9477 30.3622 102.187 30.3622H183.139C191.378 30.3622 198.058 37.0416 198.058 45.2811V241.433C198.058 249.672 191.378 256.352 183.139 256.352H102.187C93.9477 256.352 87.2683 249.672 87.2683 241.433V45.2811Z" stroke="#E1251B" stroke-width="1.2973"/>
<path d="M109.452 30.2323L111.179 35.1986C112.63 39.371 116.564 42.1674 120.981 42.1674H165.381C169.799 42.1674 173.733 39.371 175.184 35.1986L176.911 30.2323" stroke="#E1251B" stroke-width="1.2973"/>
<rect x="130.208" y="34.9027" width="28.0217" height="2.07568" rx="1.03784" fill="#E1251B"/>
<circle cx="123.981" cy="35.9405" r="2.07568" fill="#E1251B"/>
<circle cx="163.418" cy="35.9405" r="1.03784" fill="#E1251B"/>
<path d="M162.046 60.9885C162.269 59.4183 162.634 59.4183 162.857 60.9885C163.08 62.5587 164.547 64.0258 166.117 64.2487C167.687 64.4717 167.687 64.8365 166.117 65.0595C164.547 65.2824 163.08 66.7495 162.857 68.3197C162.634 69.8899 162.269 69.8899 162.046 68.3197C161.823 66.7495 160.356 65.2824 158.786 65.0595C157.216 64.8365 157.216 64.4717 158.786 64.2487C160.356 64.0258 161.823 62.5587 162.046 60.9885Z" fill="#E1251B"/>
<path d="M23.2352 144.016C23.4582 142.445 23.823 142.445 24.046 144.016C24.2689 145.586 25.736 147.053 27.3062 147.276C28.8764 147.499 28.8764 147.864 27.3062 148.087C25.736 148.31 24.2689 149.777 24.046 151.347C23.823 152.917 23.4582 152.917 23.2352 151.347C23.0123 149.777 21.5452 148.31 19.975 148.087C18.4048 147.864 18.4048 147.499 19.975 147.276C21.5452 147.053 23.0123 145.586 23.2352 144.016Z" fill="#E1251B"/>
<path d="M167.661 219.028C167.84 217.766 168.133 217.766 168.312 219.028C168.492 220.289 169.67 221.468 170.932 221.647C172.194 221.827 172.194 222.12 170.932 222.299C169.67 222.478 168.492 223.657 168.312 224.919C168.133 226.181 167.84 226.181 167.661 224.919C167.482 223.657 166.303 222.478 165.041 222.299C163.779 222.12 163.779 221.827 165.041 221.647C166.303 221.468 167.482 220.289 167.661 219.028Z" fill="#E1251B"/>
<path d="M235.792 91.6379C232.74 91.6379 230.257 89.1549 230.257 86.1026C230.257 83.0503 232.74 80.5676 235.792 80.5676C238.844 80.5676 241.327 83.0506 241.327 86.1026C241.327 89.1546 238.844 91.6379 235.792 91.6379ZM235.792 81.8962C233.473 81.8962 231.585 83.7833 231.585 86.1026C231.585 88.4219 233.473 90.3094 235.792 90.3094C238.112 90.3094 239.999 88.4222 239.999 86.1026C239.999 83.783 238.111 81.8962 235.792 81.8962Z" fill="#E1251B"/>
<path d="M20.7434 59.8108C18.9551 59.8108 17.5 58.3559 17.5 56.5675C17.5 54.779 18.9551 53.3243 20.7434 53.3243C22.5316 53.3243 23.9865 54.7792 23.9865 56.5675C23.9865 58.3557 22.5316 59.8108 20.7434 59.8108ZM20.7434 54.1028C19.3842 54.1028 18.2784 55.2085 18.2784 56.5675C18.2784 57.9264 19.3842 59.0324 20.7434 59.0324C22.1025 59.0324 23.2081 57.9266 23.2081 56.5675C23.2081 55.2083 22.1023 54.1028 20.7434 54.1028Z" fill="#E1251B"/>
<path d="M222.99 18.5141C223.277 16.4953 223.746 16.4953 224.032 18.5141C224.319 20.5329 226.205 22.4192 228.224 22.7059C230.243 22.9925 230.243 23.4615 228.224 23.7482C226.205 24.0349 224.319 25.9211 224.032 27.94C223.746 29.9588 223.277 29.9588 222.99 27.94C222.703 25.9211 220.817 24.0349 218.798 23.7482C216.779 23.4615 216.779 22.9925 218.798 22.7059C220.817 22.4192 222.703 20.5329 222.99 18.5141Z" fill="#E1251B"/>
<path d="M229.476 235.163C229.763 233.144 230.232 233.144 230.519 235.163C230.805 237.182 232.692 239.068 234.71 239.355C236.729 239.641 236.729 240.11 234.71 240.397C232.692 240.684 230.805 242.57 230.519 244.589C230.232 246.608 229.763 246.608 229.476 244.589C229.19 242.57 227.303 240.684 225.285 240.397C223.266 240.11 223.266 239.641 225.285 239.355C227.303 239.068 229.19 237.182 229.476 235.163Z" fill="#E1251B"/>
<path d="M47.1467 205.446C47.1467 205.799 47.434 206.089 47.7851 206.089H84.7898C85.1409 206.089 85.4282 205.799 85.4282 205.446V174.884C85.4282 174.707 85.2853 174.563 85.109 174.563H47.7851C47.434 174.563 47.1467 174.852 47.1467 175.206V205.446Z" fill="white"/>
<path d="M85.0339 206.139H48.1011C47.5461 206.139 47.0952 205.685 47.0952 205.127V174.962C47.0952 174.404 47.5461 173.95 48.1011 173.95H85.3525C85.7318 173.95 86.0397 174.261 86.0397 174.642V205.127C86.0397 205.685 85.5889 206.139 85.0339 206.139ZM85.3025 205.127V174.692H48.1011C47.9533 174.692 47.8325 174.813 47.8325 174.962V205.127C47.8325 205.276 47.9533 205.397 48.1011 205.397H85.0339C85.1817 205.397 85.3025 205.276 85.3025 205.127Z" fill="#E1251B" stroke="#E1251B" stroke-width="0.1"/>
<mask id="path-16-outside-1_5808_27258" maskUnits="userSpaceOnUse" x="49.6104" y="176.378" width="34" height="27" fill="black">
<rect fill="white" x="49.6104" y="176.378" width="34" height="27"/>
<path d="M50.601 203.274H81.9677C82.322 203.274 82.6104 202.987 82.6104 202.633V182.646C82.6104 182.47 82.5364 182.304 82.4074 182.191C82.2786 182.078 82.1043 182.027 81.9288 182.049C81.9282 182.049 81.8063 182.065 81.5983 182.065C79.5744 182.065 77.9278 180.423 77.9278 178.406C77.9278 178.193 77.9449 178.059 77.9451 178.058C77.9687 177.884 77.9175 177.71 77.8046 177.581C77.6916 177.452 77.5253 177.378 77.3483 177.378H55.2973C55.1203 177.378 54.954 177.452 54.8409 177.581C54.7279 177.71 54.6768 177.884 54.7005 178.059C54.7005 178.059 54.7177 178.192 54.7177 178.406C54.7177 180.423 53.0711 182.065 51.0473 182.065C50.8172 182.065 50.6495 182.041 50.6442 182.04C50.4691 182.015 50.2932 182.064 50.1632 182.176C50.0331 182.288 49.9584 182.454 49.9584 182.631V202.633C49.9584 202.987 50.2468 203.274 50.6011 203.274H50.601ZM81.9677 182.69V202.633H50.601V182.681C50.6795 182.69 50.8431 182.705 51.0472 182.705C53.4254 182.705 55.3603 180.776 55.3603 178.406C55.3603 178.222 55.3493 178.086 55.3425 178.019H77.3027C77.296 178.086 77.285 178.222 77.285 178.406C77.285 180.777 79.2199 182.705 81.5981 182.705C81.7775 182.705 81.9044 182.696 81.9676 182.69H81.9677Z"/>
</mask>
<path d="M50.601 203.274H81.9677C82.322 203.274 82.6104 202.987 82.6104 202.633V182.646C82.6104 182.47 82.5364 182.304 82.4074 182.191C82.2786 182.078 82.1043 182.027 81.9288 182.049C81.9282 182.049 81.8063 182.065 81.5983 182.065C79.5744 182.065 77.9278 180.423 77.9278 178.406C77.9278 178.193 77.9449 178.059 77.9451 178.058C77.9687 177.884 77.9175 177.71 77.8046 177.581C77.6916 177.452 77.5253 177.378 77.3483 177.378H55.2973C55.1203 177.378 54.954 177.452 54.8409 177.581C54.7279 177.71 54.6768 177.884 54.7005 178.059C54.7005 178.059 54.7177 178.192 54.7177 178.406C54.7177 180.423 53.0711 182.065 51.0473 182.065C50.8172 182.065 50.6495 182.041 50.6442 182.04C50.4691 182.015 50.2932 182.064 50.1632 182.176C50.0331 182.288 49.9584 182.454 49.9584 182.631V202.633C49.9584 202.987 50.2468 203.274 50.6011 203.274H50.601ZM81.9677 182.69V202.633H50.601V182.681C50.6795 182.69 50.8431 182.705 51.0472 182.705C53.4254 182.705 55.3603 180.776 55.3603 178.406C55.3603 178.222 55.3493 178.086 55.3425 178.019H77.3027C77.296 178.086 77.285 178.222 77.285 178.406C77.285 180.777 79.2199 182.705 81.5981 182.705C81.7775 182.705 81.9044 182.696 81.9676 182.69H81.9677Z" fill="#E1251B"/>
<path d="M82.4074 182.191L82.3415 182.266L82.3415 182.266L82.4074 182.191ZM81.9288 182.049L81.9418 182.149H81.9288V182.049ZM77.9451 178.058L77.8459 178.045L77.846 178.044L77.9451 178.058ZM54.7005 178.059L54.8005 178.045V178.059H54.7005ZM50.6442 182.04L50.6309 182.14L50.6297 182.139L50.6442 182.04ZM50.1632 182.176L50.2285 182.252L50.2284 182.252L50.1632 182.176ZM81.9677 182.69V182.59H82.0677V182.69H81.9677ZM81.9677 202.633H82.0677V202.733H81.9677V202.633ZM50.601 202.633V202.733H50.501V202.633H50.601ZM50.601 182.681H50.501V182.569L50.6125 182.581L50.601 182.681ZM55.3425 178.019L55.243 178.029L55.2319 177.919H55.3425V178.019ZM77.3027 178.019V177.919H77.4133L77.4022 178.029L77.3027 178.019ZM81.9676 182.69L81.9578 182.59H81.9676V182.69ZM50.601 203.174H81.9677V203.374H50.601V203.174ZM81.9677 203.174C82.2671 203.174 82.5104 202.931 82.5104 202.633H82.7104C82.7104 203.042 82.377 203.374 81.9677 203.374V203.174ZM82.5104 202.633V182.646H82.7104V202.633H82.5104ZM82.5104 182.646C82.5104 182.498 82.4481 182.36 82.3415 182.266L82.4733 182.116C82.6246 182.249 82.7104 182.442 82.7104 182.646H82.5104ZM82.3415 182.266C82.2351 182.173 82.0897 182.129 81.9417 182.149L81.9159 181.95C82.1188 181.924 82.3221 181.983 82.4733 182.116L82.3415 182.266ZM81.9288 182.149C81.9306 182.149 81.9335 182.149 81.9345 182.149C81.9351 182.149 81.9361 182.149 81.9365 182.149C81.9373 182.149 81.938 182.149 81.9382 182.149C81.9388 182.149 81.9392 182.149 81.9393 182.149C81.9395 182.149 81.9397 182.149 81.9396 182.149C81.9393 182.149 81.9391 182.149 81.9385 182.149C81.9375 182.149 81.9359 182.149 81.9338 182.15C81.9296 182.15 81.9235 182.151 81.9157 182.151C81.9 182.153 81.8773 182.155 81.848 182.157C81.7894 182.161 81.7047 182.165 81.5983 182.165V181.965C81.6999 181.965 81.7802 181.961 81.8347 181.957C81.862 181.955 81.8828 181.954 81.8967 181.952C81.9036 181.952 81.9088 181.951 81.9122 181.951C81.9139 181.951 81.9152 181.95 81.916 181.95C81.9164 181.95 81.9169 181.95 81.9172 181.95C81.9174 181.95 81.9177 181.95 81.9181 181.95C81.9182 181.95 81.9187 181.95 81.9193 181.95C81.9196 181.95 81.9202 181.95 81.9211 181.95C81.9215 181.95 81.9225 181.95 81.9231 181.95C81.9241 181.95 81.927 181.949 81.9288 181.949V182.149ZM81.5983 182.165C79.5195 182.165 77.8278 180.479 77.8278 178.406H78.0278C78.0278 180.368 79.6293 181.965 81.5983 181.965V182.165ZM77.8278 178.406C77.8278 178.296 77.8322 178.207 77.8366 178.145C77.8389 178.114 77.8411 178.09 77.8428 178.073C77.8437 178.064 77.8444 178.058 77.845 178.053C77.8452 178.051 77.8455 178.049 77.8456 178.048C77.8458 178.046 77.8459 178.045 77.8459 178.045L78.0443 178.07C78.0443 178.07 78.0441 178.072 78.0436 178.076C78.0432 178.08 78.0426 178.085 78.0418 178.093C78.0403 178.108 78.0382 178.13 78.0361 178.159C78.032 178.218 78.0278 178.302 78.0278 178.406H77.8278ZM77.846 178.044C77.8659 177.898 77.8227 177.753 77.7294 177.647L77.8798 177.515C78.0124 177.666 78.0716 177.87 78.0442 178.071L77.846 178.044ZM77.7294 177.647C77.6361 177.54 77.4975 177.478 77.3483 177.478V177.278C77.553 177.278 77.7472 177.364 77.8798 177.515L77.7294 177.647ZM77.3483 177.478H55.2973V177.278H77.3483V177.478ZM55.2973 177.478C55.148 177.478 55.0095 177.54 54.9161 177.647L54.7657 177.515C54.8984 177.363 55.0926 177.278 55.2973 177.278V177.478ZM54.9161 177.647C54.8228 177.753 54.7796 177.898 54.7996 178.045L54.6014 178.072C54.574 177.87 54.633 177.666 54.7657 177.515L54.9161 177.647ZM54.8005 178.059C54.8005 178.056 54.8003 178.053 54.8003 178.052C54.8002 178.051 54.8001 178.05 54.8001 178.05C54.8 178.049 54.8 178.049 54.8 178.048C54.7999 178.048 54.7999 178.047 54.7999 178.047C54.7998 178.047 54.7998 178.047 54.7998 178.047C54.7999 178.048 54.7999 178.048 54.8 178.048C54.8001 178.05 54.8003 178.051 54.8006 178.054C54.8011 178.058 54.8018 178.065 54.8027 178.073C54.8044 178.09 54.8066 178.114 54.8088 178.145C54.8133 178.207 54.8177 178.296 54.8177 178.406H54.6177C54.6177 178.302 54.6135 178.218 54.6093 178.16C54.6073 178.131 54.6052 178.108 54.6037 178.093C54.6029 178.086 54.6023 178.08 54.6019 178.076C54.6017 178.074 54.6015 178.073 54.6014 178.072C54.6014 178.072 54.6013 178.071 54.6012 178.071C54.6012 178.071 54.6012 178.07 54.6012 178.07C54.6011 178.07 54.6011 178.07 54.601 178.069C54.601 178.069 54.601 178.068 54.6009 178.067C54.6008 178.067 54.6008 178.066 54.6007 178.065C54.6007 178.064 54.6005 178.061 54.6005 178.059H54.8005ZM54.8177 178.406C54.8177 180.479 53.126 182.165 51.0473 182.165V181.965C53.0162 181.965 54.6177 180.368 54.6177 178.406H54.8177ZM51.0473 182.165C50.9289 182.165 50.8267 182.159 50.7532 182.152C50.7164 182.149 50.6867 182.146 50.6657 182.144C50.6552 182.143 50.6469 182.142 50.6409 182.141C50.6379 182.14 50.6356 182.14 50.6338 182.14C50.6331 182.14 50.6298 182.139 50.6309 182.14L50.6574 181.941C50.6609 181.942 50.8236 181.965 51.0473 181.965V182.165ZM50.6297 182.139C50.4821 182.118 50.3356 182.16 50.2285 182.252L50.0979 182.1C50.2508 181.969 50.4562 181.912 50.6586 181.941L50.6297 182.139ZM50.2284 182.252C50.1212 182.344 50.0584 182.482 50.0584 182.631H49.8584C49.8584 182.426 49.945 182.232 50.098 182.1L50.2284 182.252ZM50.0584 182.631V202.633H49.8584V182.631H50.0584ZM50.0584 202.633C50.0584 202.931 50.3017 203.174 50.6011 203.174V203.374C50.1918 203.374 49.8584 203.042 49.8584 202.633H50.0584ZM50.6011 203.374H50.601V203.174H50.6011V203.374ZM82.0677 182.69V202.633H81.8677V182.69H82.0677ZM81.9677 202.733H50.601V202.533H81.9677V202.733ZM50.501 202.633V182.681H50.701V202.633H50.501ZM50.6125 182.581C50.6883 182.59 50.848 182.605 51.0472 182.605V182.805C50.8383 182.805 50.6707 182.789 50.5896 182.78L50.6125 182.581ZM51.0472 182.605C53.3705 182.605 55.2603 180.721 55.2603 178.406H55.4603C55.4603 180.832 53.4804 182.805 51.0472 182.805V182.605ZM55.2603 178.406C55.2603 178.226 55.2495 178.093 55.243 178.029L55.442 178.009C55.449 178.078 55.4603 178.218 55.4603 178.406H55.2603ZM55.3425 177.919H77.3027V178.119H55.3425V177.919ZM77.4022 178.029C77.3958 178.093 77.385 178.226 77.385 178.406H77.185C77.185 178.218 77.1962 178.078 77.2032 178.009L77.4022 178.029ZM77.385 178.406C77.385 180.721 79.2748 182.605 81.5981 182.605V182.805C79.165 182.805 77.185 180.832 77.185 178.406H77.385ZM81.5981 182.605C81.774 182.605 81.8976 182.596 81.9579 182.59L81.9773 182.789C81.9111 182.796 81.7809 182.805 81.5981 182.805V182.605ZM81.9676 182.59H81.9677V182.79H81.9676V182.59Z" fill="#E1251B" mask="url(#path-16-outside-1_5808_27258)"/>
<path d="M37.645 183.57H74.6496C75.0022 183.57 75.2881 183.858 75.2881 184.214V214.453C75.2881 214.808 75.0022 215.096 74.6496 215.096H37.645C37.2924 215.096 37.0065 214.808 37.0065 214.453V184.214C37.0065 183.858 37.2924 183.57 37.645 183.57Z" fill="white"/>
<path d="M74.8962 215.146H37.9634C37.4084 215.146 36.9575 214.692 36.9575 214.134V183.97C36.9575 183.412 37.4084 182.957 37.9634 182.957H74.8962C75.4512 182.957 75.9021 183.412 75.9021 183.97V214.134C75.9021 214.692 75.4512 215.146 74.8962 215.146ZM75.1648 183.97C75.1648 183.82 75.044 183.699 74.8962 183.699H37.9634C37.8156 183.699 37.6948 183.82 37.6948 183.97V214.134C37.6948 214.284 37.8156 214.405 37.9634 214.405H74.8962C75.044 214.405 75.1648 214.284 75.1648 214.134V183.97Z" fill="#E1251B" stroke="#E1251B" stroke-width="0.1"/>
<path d="M40.5844 212.332H71.8324C72.2143 212.332 72.5251 212.022 72.5251 211.641V191.653C72.5251 191.463 72.4452 191.284 72.3052 191.161L72.3052 191.161C72.1653 191.038 71.9768 190.982 71.7876 191.007L71.7875 191.007L71.7864 191.007L71.7824 191.008L71.7662 191.009C71.7519 191.011 71.7306 191.013 71.7028 191.014C71.6473 191.018 71.5659 191.022 71.4631 191.022C69.4666 191.022 67.8426 189.403 67.8426 187.413C67.8426 187.308 67.8468 187.222 67.851 187.163C67.8553 187.104 67.8595 187.072 67.8595 187.072L67.8099 187.065M40.5844 212.332L67.6692 186.588M40.5844 212.332L40.5845 212.332H40.4659C40.084 212.332 39.7732 212.022 39.7732 211.641V191.638C39.7732 191.447 39.8537 191.267 39.9952 191.145L40.0279 191.183L40.5844 212.332ZM67.8099 187.065L67.8595 187.072C67.8849 186.884 67.8297 186.695 67.7068 186.555C67.7068 186.555 67.7068 186.555 67.7068 186.555L67.6692 186.588M67.8099 187.065C67.8335 186.891 67.7823 186.717 67.6692 186.588M67.8099 187.065L67.8099 187.065C67.8094 187.069 67.7926 187.202 67.7926 187.413C67.7926 189.43 69.4392 191.072 71.4631 191.072C71.6616 191.072 71.7817 191.058 71.7927 191.057C71.7933 191.057 71.7935 191.057 71.7936 191.057C71.9691 191.034 72.1433 191.086 72.2723 191.198L67.6692 186.588M40.5158 211.591H71.7824V191.751C71.7105 191.757 71.6023 191.762 71.4629 191.762C69.0572 191.762 67.0997 189.811 67.0997 187.413C67.0997 187.268 67.1065 187.152 67.1128 187.076H45.262C45.2683 187.152 45.275 187.268 45.275 187.413C45.275 189.811 43.3176 191.762 40.9119 191.762C40.7454 191.762 40.6056 191.752 40.5158 191.744V211.591Z" fill="#E1251B" stroke="#E1251B" stroke-width="0.1"/>
<path d="M60.5052 246.916H28.5644V207.886C28.5644 203.423 32.2095 199.771 36.6646 199.771H109.412C113.868 199.771 117.513 203.423 117.513 207.886V255.27C117.513 259.733 113.868 263.385 109.412 263.385H36.6646C34.2427 263.385 32.0601 262.307 30.5724 260.604H60.5052C64.1428 260.604 67.1191 257.622 67.1191 253.977V253.543C67.1191 249.898 64.1428 246.916 60.5052 246.916ZM106.281 212.527C106.281 212.035 105.88 211.633 105.389 211.633H40.9919C40.5014 211.633 40.1001 212.035 40.1001 212.527V213.021C40.1001 213.512 40.5014 213.914 40.9919 213.914H105.389C105.88 213.914 106.281 213.512 106.281 213.021V212.527ZM105.389 225.929C105.88 225.929 106.281 225.527 106.281 225.035V224.541C106.281 224.05 105.88 223.647 105.389 223.647H40.9919C40.5014 223.647 40.1001 224.05 40.1001 224.541V225.035C40.1001 225.527 40.5014 225.929 40.9919 225.929H105.389Z" fill="#E1251B"/>
<path d="M40.395 213.407H105.116C105.742 213.407 106.252 212.889 106.252 212.252V211.748C106.252 211.111 105.743 210.593 105.116 210.593H40.395C39.7688 210.593 39.2592 211.111 39.2592 211.748V212.252C39.2592 212.889 39.7688 213.407 40.395 213.407ZM105.116 211.08C105.478 211.08 105.773 211.379 105.773 211.748V212.252C105.773 212.621 105.478 212.92 105.116 212.92H40.395C40.0328 212.92 39.7382 212.621 39.7382 212.252V211.748C39.7382 211.38 40.0328 211.08 40.395 211.08H105.116Z" fill="#E1251B"/>
<path d="M40.7174 222.415H105.357C105.851 222.415 106.252 222.81 106.252 223.297V223.785C106.252 224.272 105.851 224.667 105.357 224.667H40.7174C40.223 224.667 39.8222 224.272 39.8222 223.785V223.297C39.8222 222.81 40.223 222.415 40.7174 222.415Z" fill="white"/>
<path d="M27.9995 246V254.544C27.9995 256.629 28.767 258.539 30.0307 260H60.3092C63.9889 260 66.9995 256.95 66.9995 253.222V252.778C66.9995 249.05 63.9889 246 60.3092 246H27.9995Z" fill="white"/>
<path d="M58.9621 256.193C57.0966 256.193 55.5843 254.68 55.5843 252.815C55.5843 250.949 57.0966 249.437 58.9621 249.437C60.8276 249.437 62.3398 250.949 62.3398 252.815C62.3398 254.68 60.8276 256.193 58.9621 256.193Z" fill="white"/>
<path d="M58.6806 256.756C60.6983 256.756 62.3398 255.114 62.3398 253.096C62.3398 251.079 60.6983 249.437 58.6806 249.437C56.6629 249.437 55.0213 251.079 55.0213 253.096C55.0213 255.114 56.6629 256.756 58.6806 256.756ZM58.6806 249.905C60.4405 249.905 61.8723 251.336 61.8723 253.096C61.8723 254.856 60.4405 256.288 58.6806 256.288C56.9207 256.288 55.4889 254.856 55.4889 253.096C55.4889 251.337 56.9207 249.905 58.6806 249.905Z" fill="#E1251B"/>
<rect x="38.9995" y="210" width="68" height="4" rx="2" fill="white"/>
<rect x="38.9995" y="222" width="68" height="4" rx="2" fill="white"/>
<path d="M150.28 136.11L149.798 136.611L150.28 136.11C149.253 135.12 148.519 134.412 148.001 133.807C147.49 133.21 147.24 132.769 147.133 132.333C146.998 131.787 146.998 131.217 147.133 130.672C147.24 130.236 147.49 129.795 148.001 129.198C148.519 128.593 149.253 127.884 150.28 126.895L149.798 126.394L150.28 126.895L150.496 126.687C150.533 126.651 150.57 126.616 150.606 126.581C151.73 125.499 152.436 124.819 152.822 123.965C153.039 123.483 153.177 122.968 153.23 122.442C153.322 121.51 153.051 120.568 152.619 119.069C152.605 119.02 152.591 118.971 152.576 118.922L152.494 118.634C152.099 117.263 151.817 116.283 151.671 115.5C151.527 114.727 151.531 114.221 151.656 113.789C151.813 113.25 152.098 112.756 152.487 112.351C152.798 112.027 153.234 111.77 153.976 111.508C154.727 111.243 155.717 110.997 157.101 110.653L157.392 110.581C157.442 110.569 157.491 110.557 157.54 110.544C159.055 110.169 160.006 109.933 160.767 109.387C161.197 109.078 161.573 108.702 161.882 108.272C162.428 107.511 162.664 106.559 163.04 105.045C163.052 104.996 163.064 104.947 163.076 104.897L163.148 104.606C163.492 103.222 163.738 102.232 164.003 101.481C164.265 100.739 164.522 100.303 164.846 99.9919C165.251 99.6028 165.745 99.3178 166.284 99.1612C166.716 99.0361 167.222 99.0321 167.995 99.1761C168.778 99.322 169.759 99.6036 171.129 99.9984L171.417 100.081C171.466 100.096 171.515 100.11 171.564 100.124C173.063 100.556 174.005 100.827 174.937 100.735C175.464 100.682 175.978 100.544 176.46 100.326C177.314 99.9406 177.994 99.2345 179.076 98.1106C179.111 98.0744 179.146 98.0377 179.182 98.0006L179.39 97.785C180.38 96.7577 181.088 96.0236 181.693 95.5058C182.29 94.9946 182.731 94.7448 183.167 94.6376C183.713 94.5034 184.283 94.5034 184.828 94.6376C185.264 94.7448 185.705 94.9946 186.302 95.5058C186.907 96.0236 187.616 96.7577 188.605 97.785L188.813 98.0006L189.314 97.5181L188.813 98.0006C188.849 98.0377 188.884 98.0744 188.919 98.1106C190.001 99.2345 190.681 99.9406 191.535 100.326C192.017 100.544 192.532 100.682 193.058 100.735C193.99 100.827 194.932 100.556 196.431 100.124C196.48 100.11 196.529 100.096 196.578 100.081L196.866 99.9984C198.237 99.6036 199.217 99.322 200 99.1761C200.773 99.0321 201.279 99.0361 201.711 99.1612C202.25 99.3178 202.744 99.6028 203.149 99.9919C203.473 100.303 203.73 100.739 203.992 101.481C204.257 102.232 204.503 103.222 204.847 104.606L204.919 104.897C204.931 104.947 204.943 104.996 204.956 105.045C205.331 106.559 205.567 107.511 206.113 108.272C206.422 108.702 206.798 109.078 207.228 109.387C207.989 109.933 208.941 110.169 210.455 110.544C210.504 110.557 210.553 110.569 210.603 110.581L210.894 110.653C212.278 110.997 213.268 111.243 214.019 111.508C214.761 111.77 215.197 112.027 215.508 112.351C215.897 112.756 216.182 113.25 216.339 113.789C216.464 114.221 216.468 114.727 216.324 115.5C216.178 116.283 215.896 117.263 215.502 118.634L215.419 118.922L215.376 119.069C214.944 120.568 214.673 121.51 214.765 122.442C214.818 122.968 214.956 123.483 215.174 123.965C215.559 124.819 216.265 125.499 217.389 126.581L217.499 126.687L217.715 126.895C218.742 127.884 219.476 128.593 219.994 129.198C220.505 129.795 220.755 130.236 220.862 130.672C220.997 131.217 220.997 131.787 220.862 132.333C220.755 132.769 220.505 133.21 219.994 133.807C219.476 134.412 218.742 135.12 217.715 136.11L217.499 136.318C217.462 136.354 217.426 136.389 217.389 136.424C216.266 137.506 215.559 138.186 215.174 139.04C214.956 139.522 214.818 140.036 214.765 140.563C214.673 141.495 214.944 142.437 215.376 143.936L215.419 144.083L215.502 144.371C215.896 145.741 216.178 146.722 216.324 147.505C216.468 148.278 216.464 148.784 216.339 149.216C216.182 149.755 215.897 150.249 215.508 150.654C215.197 150.978 214.761 151.235 214.019 151.497C213.268 151.762 212.278 152.008 210.894 152.352L210.603 152.424C210.553 152.436 210.504 152.448 210.455 152.46C208.941 152.836 207.989 153.072 207.228 153.618C206.798 153.927 206.422 154.303 206.113 154.733C205.567 155.494 205.331 156.445 204.956 157.96C204.943 158.009 204.931 158.058 204.919 158.108L204.847 158.399C204.503 159.783 204.257 160.773 203.992 161.524C203.73 162.266 203.473 162.702 203.149 163.013C202.744 163.402 202.25 163.687 201.711 163.844C201.279 163.969 200.773 163.973 200 163.829C199.217 163.683 198.237 163.401 196.866 163.006L196.578 162.924L196.431 162.881C194.932 162.449 193.99 162.178 193.058 162.27C192.532 162.323 192.017 162.461 191.535 162.678C190.681 163.064 190.001 163.77 188.919 164.894C188.884 164.93 188.849 164.967 188.813 165.004L188.605 165.22C187.616 166.247 186.907 166.981 186.302 167.499C185.705 168.01 185.264 168.26 184.828 168.367C184.283 168.502 183.713 168.502 183.167 168.367C182.731 168.26 182.29 168.01 181.693 167.499C181.088 166.981 180.38 166.247 179.39 165.22L179.182 165.004L179.076 164.894C177.994 163.77 177.314 163.064 176.46 162.678C175.978 162.461 175.464 162.323 174.937 162.27C174.005 162.178 173.063 162.449 171.564 162.881L171.417 162.924L171.129 163.006C169.759 163.401 168.778 163.683 167.995 163.829C167.222 163.973 166.716 163.969 166.284 163.844C165.745 163.687 165.251 163.402 164.846 163.013C164.522 162.702 164.265 162.266 164.003 161.524C163.738 160.773 163.492 159.783 163.148 158.399L163.076 158.108C163.064 158.058 163.052 158.009 163.04 157.96C162.664 156.445 162.428 155.494 161.882 154.733C161.573 154.303 161.197 153.927 160.767 153.618C160.006 153.072 159.055 152.836 157.54 152.46C157.491 152.448 157.442 152.436 157.392 152.424L157.101 152.352C155.717 152.008 154.727 151.762 153.976 151.497C153.234 151.235 152.798 150.978 152.487 150.654C152.098 150.249 151.813 149.755 151.656 149.216C151.531 148.784 151.527 148.278 151.671 147.505C151.817 146.722 152.099 145.741 152.494 144.371L152.576 144.083C152.591 144.034 152.605 143.985 152.619 143.936C153.051 142.437 153.322 141.495 153.23 140.563C153.177 140.036 153.039 139.522 152.822 139.04C152.436 138.186 151.73 137.506 150.606 136.424C150.57 136.389 150.533 136.354 150.496 136.318L150.28 136.11Z" fill="white" stroke="#E1251B" stroke-width="1.39093"/>
<path d="M185.411 100.811L185.693 100.176L185.411 100.811C185.687 100.934 185.977 101.136 186.379 101.501C186.786 101.871 187.27 102.372 187.946 103.074L188.018 103.149C188.759 103.919 189.224 104.401 189.77 104.731C190.558 105.208 191.466 105.451 192.387 105.432C193.025 105.419 193.668 105.234 194.695 104.938L194.795 104.909C195.731 104.64 196.401 104.447 196.938 104.33C197.469 104.215 197.821 104.186 198.122 104.217C199.1 104.321 199.988 104.834 200.567 105.629C200.745 105.873 200.895 106.193 201.061 106.711C201.228 107.234 201.397 107.91 201.631 108.856L201.656 108.957C201.913 109.994 202.074 110.644 202.382 111.203L202.992 110.868L202.382 111.203C202.827 112.01 203.491 112.674 204.298 113.119C204.857 113.427 205.507 113.588 206.544 113.845L206.646 113.87C207.591 114.105 208.267 114.273 208.79 114.44C209.308 114.606 209.628 114.757 209.872 114.934C210.667 115.513 211.18 116.401 211.284 117.38C211.316 117.68 211.286 118.032 211.171 118.563C211.054 119.1 210.862 119.77 210.592 120.706L210.563 120.806C210.267 121.833 210.082 122.476 210.069 123.115C210.05 124.036 210.294 124.943 210.77 125.731C211.1 126.277 211.583 126.742 212.352 127.483L212.428 127.556C213.129 128.232 213.63 128.715 214 129.122C214.366 129.524 214.567 129.815 214.69 130.09C215.089 130.989 215.089 132.015 214.69 132.914C214.567 133.19 214.366 133.48 214 133.883C213.63 134.29 213.129 134.773 212.428 135.449L212.352 135.521C211.583 136.263 211.1 136.727 210.77 137.273C210.294 138.062 210.05 138.969 210.069 139.89C210.082 140.528 210.267 141.172 210.563 142.198L210.592 142.299C210.862 143.235 211.054 143.904 211.171 144.441C211.286 144.973 211.316 145.325 211.284 145.625C211.18 146.603 210.667 147.492 209.872 148.07C209.628 148.248 209.308 148.399 208.79 148.564C208.267 148.732 207.591 148.9 206.646 149.134L206.544 149.16C205.507 149.417 204.857 149.578 204.298 149.886C203.491 150.33 202.827 150.994 202.382 151.801C202.074 152.36 201.913 153.01 201.656 154.047L201.631 154.149C201.397 155.094 201.228 155.77 201.061 156.294C200.895 156.812 200.745 157.131 200.567 157.375C199.988 158.171 199.1 158.684 198.122 158.787C197.821 158.819 197.469 158.79 196.938 158.674C196.401 158.557 195.731 158.365 194.795 158.095L194.695 158.066C193.668 157.771 193.025 157.585 192.387 157.572C191.466 157.554 190.558 157.797 189.77 158.274C189.224 158.604 188.759 159.086 188.018 159.855L187.946 159.931C187.27 160.632 186.786 161.134 186.379 161.503C185.977 161.869 185.687 162.071 185.411 162.193C184.512 162.593 183.486 162.593 182.587 162.193C182.311 162.071 182.021 161.869 181.618 161.503C181.212 161.134 180.728 160.632 180.052 159.931L179.98 159.855C179.239 159.086 178.774 158.604 178.228 158.274C177.44 157.797 176.532 157.554 175.611 157.572C174.973 157.585 174.33 157.771 173.303 158.066L173.203 158.095C172.267 158.365 171.597 158.557 171.06 158.674C170.529 158.79 170.176 158.819 169.876 158.787C168.898 158.684 168.01 158.171 167.431 157.375C167.253 157.131 167.103 156.812 166.937 156.294C166.769 155.77 166.601 155.094 166.367 154.149L166.342 154.047C166.085 153.01 165.923 152.36 165.616 151.801C165.171 150.994 164.507 150.33 163.7 149.886L163.364 150.495L163.7 149.886C163.141 149.578 162.491 149.417 161.454 149.16L161.352 149.134C160.407 148.9 159.731 148.732 159.208 148.564C158.69 148.399 158.37 148.248 158.126 148.07C157.331 147.492 156.818 146.603 156.714 145.625C156.682 145.325 156.712 144.973 156.827 144.441C156.944 143.904 157.136 143.235 157.406 142.299L157.435 142.198C157.731 141.172 157.916 140.528 157.929 139.89C157.948 138.969 157.704 138.062 157.228 137.273C156.898 136.727 156.415 136.263 155.646 135.521L155.57 135.449C154.869 134.773 154.368 134.29 153.998 133.883C153.632 133.48 153.431 133.19 153.308 132.914L152.673 133.197L153.308 132.914C152.909 132.015 152.909 130.989 153.308 130.09C153.431 129.815 153.632 129.524 153.998 129.122C154.368 128.715 154.869 128.232 155.57 127.556C155.596 127.531 155.621 127.507 155.646 127.483C156.415 126.742 156.898 126.277 157.228 125.731C157.704 124.943 157.948 124.036 157.929 123.115C157.916 122.476 157.731 121.833 157.435 120.806C157.425 120.773 157.416 120.74 157.406 120.706C157.136 119.77 156.944 119.1 156.827 118.563C156.712 118.032 156.682 117.68 156.714 117.38C156.818 116.401 157.331 115.513 158.126 114.934C158.37 114.757 158.69 114.606 159.208 114.44C159.731 114.273 160.407 114.105 161.352 113.87C161.387 113.862 161.42 113.853 161.454 113.845C162.491 113.588 163.141 113.427 163.7 113.119C164.507 112.674 165.171 112.01 165.616 111.203C165.923 110.644 166.085 109.994 166.342 108.957C166.35 108.924 166.358 108.89 166.367 108.856C166.601 107.91 166.769 107.234 166.937 106.711C167.103 106.193 167.253 105.873 167.431 105.629C168.01 104.834 168.898 104.321 169.876 104.217C170.176 104.186 170.529 104.215 171.06 104.33C171.597 104.447 172.267 104.64 173.203 104.909C173.236 104.919 173.27 104.929 173.303 104.938C174.33 105.234 174.973 105.419 175.611 105.432C176.532 105.451 177.44 105.208 178.228 104.731C178.774 104.401 179.239 103.919 179.98 103.149C180.004 103.124 180.028 103.099 180.052 103.074C180.728 102.372 181.212 101.871 181.618 101.501C182.021 101.136 182.311 100.934 182.587 100.811C183.486 100.412 184.512 100.412 185.411 100.811Z" fill="#E1251B" stroke="white" stroke-width="1.39093"/>
<rect x="168" y="134.081" width="5.58224" height="16.2815" rx="2.79112" transform="rotate(-45 168 134.081)" fill="white"/>
<rect x="195.319" y="122" width="5.5821" height="27.9105" rx="2.79105" transform="rotate(45 195.319 122)" fill="white"/>
<path d="M232.615 194.328C238.682 194.998 244.144 190.62 244.814 184.549C245.485 178.479 241.11 173.014 235.043 172.344C228.976 171.674 223.514 176.052 222.844 182.123C222.173 188.193 226.548 193.657 232.615 194.328Z" fill="white"/>
<path d="M232.603 194.446C232.447 194.429 232.291 194.408 232.135 194.384C230.657 194.158 229.257 193.642 227.973 192.851C226.69 192.06 225.599 191.041 224.732 189.823C223.895 188.646 223.3 187.333 222.965 185.921C222.63 184.509 222.57 183.069 222.789 181.641C223.015 180.162 223.531 178.761 224.322 177.477C225.112 176.192 226.131 175.101 227.349 174.233C228.525 173.395 229.837 172.8 231.249 172.465C232.66 172.129 234.099 172.07 235.526 172.288C237.004 172.514 238.404 173.03 239.688 173.821C240.972 174.612 242.062 175.631 242.929 176.849C243.767 178.026 244.361 179.339 244.697 180.751C245.032 182.163 245.091 183.603 244.873 185.031C244.646 186.51 244.131 187.911 243.34 189.196L243.241 189.135L243.34 189.196C242.549 190.48 241.531 191.571 240.313 192.439C239.136 193.277 237.824 193.872 236.413 194.208C235.156 194.507 233.876 194.586 232.603 194.446L232.603 194.446ZM235.04 172.455C233.806 172.319 232.545 172.395 231.302 172.691C228.46 173.367 226.051 175.11 224.519 177.599C221.357 182.736 222.961 189.49 228.095 192.653C230.582 194.186 233.517 194.658 236.359 193.981C239.201 193.305 241.61 191.562 243.142 189.074C244.674 186.585 245.146 183.648 244.47 180.805C243.795 177.961 242.053 175.551 239.566 174.019C238.167 173.157 236.626 172.63 235.04 172.455L235.04 172.455Z" fill="#E1251B"/>
<path d="M232.669 193.156C231.235 192.997 229.843 192.522 228.578 191.742C226.33 190.357 224.756 188.179 224.146 185.609C223.535 183.04 223.962 180.386 225.346 178.136C226.731 175.887 228.908 174.312 231.476 173.701C234.045 173.09 236.697 173.516 238.945 174.901C241.193 176.286 242.767 178.464 243.377 181.034C243.988 183.604 243.561 186.258 242.177 188.507C240.792 190.756 238.615 192.332 236.047 192.943C234.923 193.21 233.783 193.279 232.669 193.156ZM234.836 173.726C231.241 173.328 227.564 174.977 225.544 178.258C224.192 180.455 223.776 183.046 224.372 185.556C224.968 188.065 226.505 190.192 228.7 191.544C230.895 192.897 233.485 193.313 235.993 192.717C238.501 192.12 240.627 190.582 241.979 188.385C244.77 183.851 243.354 177.891 238.823 175.099C237.571 174.327 236.21 173.877 234.836 173.726Z" fill="#E1251B"/>
<path d="M234.836 173.726C231.241 173.328 227.564 174.977 225.544 178.258C224.192 180.455 223.776 183.046 224.372 185.556C224.968 188.065 226.505 190.192 228.7 191.544C230.895 192.897 233.485 193.313 235.993 192.717C238.501 192.12 240.627 190.582 241.979 188.385C244.77 183.851 243.354 177.891 238.823 175.099C237.571 174.327 236.21 173.877 234.836 173.726Z" fill="#E1251B"/>
<path d="M236.196 180.136C236.766 180.492 237.246 180.916 237.637 181.409L236.984 182.469L236.499 182.17C236.594 181.818 236.596 181.511 236.504 181.25C236.413 180.988 236.222 180.761 235.93 180.568L234.478 182.927C234.801 183.428 235.023 183.836 235.145 184.15C235.267 184.464 235.323 184.765 235.313 185.052C235.303 185.339 235.21 185.626 235.033 185.914C234.704 186.447 234.303 186.767 233.827 186.873C233.352 186.979 232.809 186.876 232.199 186.563L231.637 187.475L231.128 187.161L231.683 186.259C231.396 186.073 231.108 185.848 230.818 185.583C230.527 185.319 230.292 185.07 230.111 184.837L230.775 183.758L231.265 184.06C231.137 184.445 231.125 184.777 231.23 185.056C231.336 185.335 231.572 185.597 231.94 185.842L233.504 183.301L233.418 183.167C233.116 182.697 232.911 182.321 232.8 182.039C232.69 181.757 232.639 181.485 232.646 181.223C232.654 180.962 232.737 180.702 232.896 180.444C233.049 180.195 233.232 180.001 233.444 179.861C233.657 179.721 233.885 179.63 234.13 179.587C234.375 179.544 234.63 179.546 234.893 179.594C235.157 179.642 235.415 179.727 235.668 179.851L236.245 178.915L236.755 179.229L236.196 180.136L236.196 180.136ZM233.896 183.807L232.459 186.141C232.783 186.296 233.084 186.33 233.364 186.242C233.643 186.155 233.88 185.953 234.075 185.635C234.248 185.354 234.319 185.071 234.287 184.785C234.256 184.5 234.125 184.173 233.896 183.807ZM234.089 182.417L235.411 180.268C235.108 180.131 234.816 180.099 234.535 180.171C234.253 180.244 234.031 180.412 233.868 180.677C233.705 180.942 233.642 181.207 233.68 181.471C233.718 181.736 233.854 182.051 234.089 182.417L234.089 182.417Z" fill="white"/>
<path d="M67.4017 94.0335C71.6637 97.9877 71.9149 104.646 67.9634 108.905C64.0119 113.164 57.3535 113.412 53.0914 109.458C48.8293 105.504 48.5782 98.8455 52.5297 94.5863C56.4812 90.3272 63.1396 90.0793 67.4017 94.0335Z" fill="white" stroke="#E1251B"/>
<path d="M52.3331 93.7559L52.3331 93.7559C51.3016 94.7786 50.487 95.9775 49.9128 97.319C49.3387 98.6605 49.0335 100.078 49.0058 101.53C48.9772 103.035 49.2488 104.512 49.8131 105.92C50.3773 107.329 51.2008 108.585 52.2603 109.654C53.2836 110.686 54.483 111.501 55.8249 112.076C57.1668 112.651 58.584 112.957 60.037 112.986C61.5414 113.015 63.0184 112.744 64.4266 112.181C65.8348 111.617 67.0907 110.795 68.1591 109.736C68.2717 109.624 68.3816 109.511 68.489 109.395L68.489 109.395C69.3658 108.45 70.068 107.368 70.5795 106.173C71.1536 104.831 71.4588 103.414 71.4865 101.961C71.5145 100.49 71.2552 99.0448 70.716 97.6644L70.7164 97.6642L70.6794 97.572C70.6793 97.5718 70.6792 97.5716 70.6792 97.5714C70.6791 97.5712 70.6791 97.5711 70.679 97.571L70.642 97.4786L70.6416 97.4787C70.0786 96.1078 69.2682 94.8831 68.232 93.8376C67.2087 92.8053 66.0092 91.9903 64.6674 91.4154C63.3255 90.8406 61.9082 90.5345 60.4553 90.5061C58.9509 90.4766 57.4739 90.7474 56.0657 91.3109C54.6575 91.8743 53.4015 92.6969 52.3331 93.7559ZM50.3097 97.489C50.8032 96.3358 51.479 95.2965 52.3051 94.4019L52.3218 94.3839C53.394 93.2282 54.7184 92.315 56.2262 91.7117C58.9061 90.6395 61.8432 90.6752 64.4975 91.8123C67.1518 92.9494 69.2046 95.0514 70.2785 97.7318C71.3523 100.412 71.3182 103.349 70.1826 106.003C69.0469 108.656 66.946 110.708 64.2661 111.78C58.7344 113.993 52.4304 111.293 50.2138 105.76C49.14 103.079 49.1741 100.142 50.3097 97.489Z" fill="#E1251B" stroke="#E1251B" stroke-width="0.2"/>
<path d="M68.8132 105.486L69.0262 105.578L68.8132 105.486C67.8278 107.789 66.0056 109.568 63.6803 110.498C61.3551 111.429 58.8076 111.398 56.5045 110.411C54.2014 109.425 52.4208 107.601 51.4891 105.276C50.0978 101.803 50.9377 97.98 53.3277 95.4039C54.24 94.4205 55.3785 93.6188 56.7051 93.088C61.504 91.1679 66.9733 93.511 68.8963 98.311C69.8281 100.637 69.7985 103.184 68.8132 105.486Z" stroke="#E1251B" stroke-width="0.5"/>
<path d="M62.6455 102.75C62.6231 102.67 62.5947 102.587 62.5598 102.5L62.6455 102.75ZM62.6455 102.75L62.2325 102.915L62.6455 102.75M62.6455 102.75L62.6455 102.75M62.6455 102.75C62.7495 103.119 62.7244 103.409 62.6191 103.646L62.6455 102.75ZM57.9234 100.769C58.0571 100.944 58.2232 101.09 58.4241 101.199L58.4242 101.199C58.4719 101.225 58.5215 101.249 58.573 101.271C58.4071 101.211 58.2709 101.136 58.1591 101.047L58.1589 101.047C58.072 100.979 57.9924 100.888 57.9234 100.769Z" fill="#E1251B" stroke="#E1251B"/>
</svg>
