<svg width="17" height="16" viewBox="0 0 17 16" fill="none" xmlns="http://www.w3.org/2000/svg">
<g clip-path="url(#clip0_7388_17867)">
<path d="M11.2931 1.33344H5.70639C3.27969 1.33344 1.83301 2.78008 1.83301 5.2067V10.7866C1.83301 13.2199 3.27969 14.6665 5.70639 14.6665H11.2865C13.7132 14.6665 15.1598 13.2199 15.1598 10.7933V5.2067C15.1665 2.78008 13.7198 1.33344 11.2931 1.33344ZM7.79975 11.6733C7.60641 11.8666 7.23974 12.0533 6.97307 12.0933L5.33305 12.3266C5.27305 12.3333 5.21305 12.3399 5.15305 12.3399C4.87971 12.3399 4.62637 12.2466 4.44637 12.0666C4.22637 11.8466 4.13304 11.5266 4.18637 11.1733L4.41971 9.5333C4.45971 9.25997 4.63971 8.89997 4.83971 8.70665L7.81308 5.73336C7.86641 5.87336 7.91975 6.01336 7.99308 6.17335C8.05975 6.31335 8.13308 6.46002 8.21308 6.59335C8.27975 6.70668 8.35309 6.81334 8.41309 6.89334C8.48642 7.00667 8.57309 7.11334 8.62642 7.17334C8.65976 7.22 8.68642 7.25334 8.69976 7.26667C8.86643 7.46667 9.05976 7.65333 9.22643 7.79333C9.2731 7.83999 9.29976 7.86666 9.3131 7.87333C9.4131 7.95332 9.5131 8.03332 9.59977 8.09332C9.70643 8.17332 9.8131 8.24665 9.92644 8.30665C10.0598 8.38665 10.2064 8.45998 10.3531 8.53331C10.5064 8.59998 10.6464 8.65998 10.7864 8.70665L7.79975 11.6733ZM12.0798 7.39333L11.4665 8.01332C11.4265 8.05332 11.3731 8.07332 11.3198 8.07332C11.2998 8.07332 11.2731 8.07332 11.2598 8.06666C9.90644 7.68 8.82642 6.60001 8.43975 5.2467C8.41975 5.17337 8.43975 5.09337 8.49309 5.04671L9.11309 4.42672C10.1264 3.4134 11.0931 3.4334 12.0865 4.42672C12.5931 4.93337 12.8398 5.42003 12.8398 5.92669C12.8331 6.40668 12.5865 6.88668 12.0798 7.39333Z" fill="#C8C8C8"/>
</g>
<defs>
<clipPath id="clip0_7388_17867">
<rect x="0.5" y="0.00012207" width="16.0002" height="15.9997" rx="7.99987" fill="white"/>
</clipPath>
</defs>
</svg>
