<svg width="33" height="32" viewBox="0 0 33 32" fill="none" xmlns="http://www.w3.org/2000/svg">
<path d="M8.49984 8.00002L11.1665 5.33335M11.1665 5.33335L8.49984 2.66669M11.1665 5.33335H8.49984C5.55432 5.33335 3.1665 7.72117 3.1665 10.6667M24.4998 24L21.8332 26.6667M21.8332 26.6667L24.4998 29.3334M21.8332 26.6667H24.4998C27.4454 26.6667 29.8332 24.2789 29.8332 21.3334M14.0852 8.66669C14.9733 5.21623 18.1055 2.66669 21.8332 2.66669C26.2515 2.66669 29.8332 6.24841 29.8332 10.6667C29.8332 14.3943 27.2837 17.5265 23.8333 18.4146M19.1665 21.3334C19.1665 25.7516 15.5848 29.3334 11.1665 29.3334C6.74823 29.3334 3.1665 25.7516 3.1665 21.3334C3.1665 16.9151 6.74823 13.3334 11.1665 13.3334C15.5848 13.3334 19.1665 16.9151 19.1665 21.3334Z" stroke="currentColor" stroke-width="2" stroke-linecap="round" stroke-linejoin="round"/>
</svg>
