<svg width="25" height="24" viewBox="0 0 25 24" fill="none" xmlns="http://www.w3.org/2000/svg">
<g clip-path="url(#clip0_7937_2102)">
<path d="M19.28 12.6194L19.2839 12.6293L19.288 12.6392C20.2804 15.014 19.6114 17.7615 17.7517 19.4885C16.0768 21.0203 13.6973 21.4584 11.4053 21.1661C10.674 21.0712 9.20087 20.6329 7.87939 19.5725C6.58597 18.5347 5.43014 16.898 5.25002 14.3445C5.25331 12.652 5.58331 11.3881 5.98938 10.4709C6.03591 11.8764 6.51367 13.5551 8.16504 14.8063C8.67606 15.1976 9.28961 15.0922 9.67393 14.7883C10.0547 14.4873 10.2956 13.9286 10.0688 13.3477C9.03832 10.7032 9.15221 8.425 9.90703 6.57308C10.5957 4.88354 11.8376 3.5019 13.3277 2.51237C13.1011 3.85538 13.2158 4.96416 13.5889 5.91933C14.0082 6.99243 14.725 7.79577 15.4732 8.48162C15.8137 8.79373 16.1731 9.09228 16.5187 9.37934C16.5513 9.40649 16.5839 9.43353 16.6163 9.46047C16.9972 9.77719 17.3617 10.0836 17.7036 10.4082C18.3836 11.0536 18.9426 11.7424 19.28 12.6194ZM6.77988 9.45999L6.78 9.46L6.77988 9.45999ZM10.5229 16.6512L9.06232 17.0062L10.2242 17.9598C11.8697 19.3102 13.606 19.4503 14.9544 18.7209C16.2518 18.019 17.0541 16.5766 17.01 15.0478C17.0042 13.6778 16.0151 12.6667 15.2808 11.9276C15.2233 11.8698 15.1668 11.8132 15.1113 11.7576C14.7746 11.4204 14.4752 11.1206 14.2269 10.8087C13.9423 10.4511 13.7803 10.1428 13.7286 9.84966L13.2596 7.19203L12.2901 9.71056C11.7812 11.0325 11.9118 12.1125 12.0989 12.9922C12.1381 13.1768 12.1753 13.3353 12.2096 13.4812C12.2621 13.7049 12.3076 13.899 12.3429 14.1119C12.3956 14.4299 12.401 14.677 12.3492 14.9014L12.3491 14.9013L12.3471 14.9107C12.2021 15.5776 11.6576 16.3754 10.5229 16.6512Z" stroke="#B78F8D" stroke-width="1.5"/>
</g>
<defs>
<clipPath id="clip0_7937_2102">
<rect width="24" height="24" fill="white" transform="translate(0.5)"/>
</clipPath>
</defs>
</svg>
