<svg width="24" height="24" viewBox="0 0 24 24" fill="none" xmlns="http://www.w3.org/2000/svg">
<g clip-path="url(#clip0_12497_197897)">
<path d="M23.5022 19.951H16.115C15.9739 19.951 15.8594 19.8365 15.8594 19.6953V18.5125C15.8594 18.3713 15.9738 18.2568 16.115 18.2568H23.5022C23.6434 18.2568 23.7579 18.3713 23.7579 18.5125V19.6953C23.7579 19.8365 23.6435 19.951 23.5022 19.951Z" fill="url(#paint0_linear_12497_197897)"/>
<path d="M22.5619 19.951H17.0501C16.9276 19.951 16.8281 19.8516 16.8281 19.7289V18.4789C16.8281 18.3562 16.9275 18.2568 17.0501 18.2568H22.5619C22.6845 18.2568 22.7839 18.3562 22.7839 18.4789V19.7289C22.7839 19.8515 22.6845 19.951 22.5619 19.951Z" fill="url(#paint1_linear_12497_197897)"/>
<path d="M20.7545 19.951H18.8565C18.7826 19.951 18.7227 19.891 18.7227 19.8171V18.3907C18.7227 18.3168 18.7826 18.2568 18.8565 18.2568H20.7545C20.8284 18.2568 20.8884 18.3168 20.8884 18.3907V19.8171C20.8884 19.891 20.8284 19.951 20.7545 19.951Z" fill="url(#paint2_linear_12497_197897)"/>
<path d="M16.3338 18.4629C16.1926 18.4629 16.0781 18.5773 16.0781 18.7186V19.9013C16.0781 19.9178 16.0798 19.9338 16.0828 19.9493C16.092 19.9503 16.1014 19.9509 16.1109 19.9509H23.498C23.6392 19.9509 23.7537 19.8364 23.7537 19.6952V18.5124C23.7537 18.496 23.752 18.48 23.749 18.4645C23.7398 18.4635 23.7305 18.4629 23.7209 18.4629H16.3338Z" fill="url(#paint3_linear_12497_197897)"/>
<path d="M23.5022 18.2566H16.115C15.9739 18.2566 15.8594 18.1422 15.8594 18.0009V16.8182C15.8594 16.6769 15.9738 16.5625 16.115 16.5625H23.5022C23.6434 16.5625 23.7579 16.6769 23.7579 16.8182V18.0009C23.7579 18.1421 23.6435 18.2566 23.5022 18.2566Z" fill="url(#paint4_linear_12497_197897)"/>
<path d="M22.5619 18.2566H17.0501C16.9276 18.2566 16.8281 18.1572 16.8281 18.0346V16.7845C16.8281 16.6619 16.9275 16.5625 17.0501 16.5625H22.5619C22.6845 16.5625 22.7839 16.6619 22.7839 16.7845V18.0346C22.7839 18.1572 22.6845 18.2566 22.5619 18.2566Z" fill="url(#paint5_linear_12497_197897)"/>
<path d="M20.7545 18.2566H18.8565C18.7826 18.2566 18.7227 18.1967 18.7227 18.1227V16.6964C18.7227 16.6225 18.7826 16.5625 18.8565 16.5625H20.7545C20.8284 16.5625 20.8884 16.6225 20.8884 16.6964V18.1227C20.8884 18.1967 20.8284 18.2566 20.7545 18.2566Z" fill="url(#paint6_linear_12497_197897)"/>
<path d="M16.3338 16.7695C16.1926 16.7695 16.0781 16.884 16.0781 17.0252V18.208C16.0781 18.2244 16.0798 18.2404 16.0828 18.2559C16.092 18.257 16.1014 18.2575 16.1109 18.2575H23.498C23.6392 18.2575 23.7537 18.1431 23.7537 18.0019V16.8191C23.7537 16.8027 23.752 16.7867 23.749 16.7711C23.7398 16.7701 23.7305 16.7695 23.7209 16.7695H16.3338Z" fill="url(#paint7_linear_12497_197897)"/>
<path d="M23.5022 16.5633H16.115C15.9739 16.5633 15.8594 16.4488 15.8594 16.3076V15.1248C15.8594 14.9836 15.9738 14.8691 16.115 14.8691H23.5022C23.6434 14.8691 23.7579 14.9836 23.7579 15.1248V16.3076C23.7579 16.4488 23.6435 16.5633 23.5022 16.5633Z" fill="url(#paint8_linear_12497_197897)"/>
<path d="M22.5619 16.5633H17.0501C16.9276 16.5633 16.8281 16.4639 16.8281 16.3412V15.0912C16.8281 14.9686 16.9275 14.8691 17.0501 14.8691H22.5619C22.6845 14.8691 22.7839 14.9685 22.7839 15.0912V16.3412C22.7839 16.4639 22.6845 16.5633 22.5619 16.5633Z" fill="url(#paint9_linear_12497_197897)"/>
<path d="M20.7545 16.5633H18.8565C18.7826 16.5633 18.7227 16.5033 18.7227 16.4294V15.003C18.7227 14.9291 18.7826 14.8691 18.8565 14.8691H20.7545C20.8284 14.8691 20.8884 14.9291 20.8884 15.003V16.4294C20.8884 16.5033 20.8284 16.5633 20.7545 16.5633Z" fill="url(#paint10_linear_12497_197897)"/>
<path d="M16.3338 15.0742C16.1926 15.0742 16.0781 15.1887 16.0781 15.3299V16.5127C16.0781 16.5291 16.0798 16.5451 16.0828 16.5606C16.092 16.5616 16.1014 16.5622 16.1109 16.5622H23.498C23.6392 16.5622 23.7537 16.4478 23.7537 16.3065V15.1238C23.7537 15.1073 23.752 15.0913 23.749 15.0758C23.7398 15.0748 23.7305 15.0742 23.7209 15.0742H16.3338Z" fill="url(#paint11_linear_12497_197897)"/>
<path d="M23.5022 14.8689H16.115C15.9739 14.8689 15.8594 14.7545 15.8594 14.6133V13.4305C15.8594 13.2893 15.9738 13.1748 16.115 13.1748H23.5022C23.6434 13.1748 23.7579 13.2893 23.7579 13.4305V14.6133C23.7579 14.7545 23.6435 14.8689 23.5022 14.8689Z" fill="url(#paint12_linear_12497_197897)"/>
<path d="M22.5619 14.8689H17.0501C16.9276 14.8689 16.8281 14.7695 16.8281 14.6469V13.3968C16.8281 13.2742 16.9275 13.1748 17.0501 13.1748H22.5619C22.6845 13.1748 22.7839 13.2742 22.7839 13.3968V14.6469C22.7839 14.7695 22.6845 14.8689 22.5619 14.8689Z" fill="url(#paint13_linear_12497_197897)"/>
<path d="M20.7545 14.8689H18.8565C18.7826 14.8689 18.7227 14.809 18.7227 14.735V13.3087C18.7227 13.2348 18.7826 13.1748 18.8565 13.1748H20.7545C20.8284 13.1748 20.8884 13.2348 20.8884 13.3087V14.735C20.8884 14.809 20.8284 14.8689 20.7545 14.8689Z" fill="url(#paint14_linear_12497_197897)"/>
<path d="M16.3338 13.3809C16.1926 13.3809 16.0781 13.4953 16.0781 13.6365V14.8193C16.0781 14.8357 16.0798 14.8517 16.0828 14.8673C16.092 14.8683 16.1014 14.8689 16.1109 14.8689H23.498C23.6392 14.8689 23.7537 14.7544 23.7537 14.6132V13.4304C23.7537 13.414 23.752 13.398 23.749 13.3825C23.7398 13.3814 23.7305 13.3809 23.7209 13.3809H16.3338Z" fill="url(#paint15_linear_12497_197897)"/>
<path d="M23.5022 13.1746H16.115C15.9739 13.1746 15.8594 13.0601 15.8594 12.9189V11.7361C15.8594 11.5949 15.9738 11.4805 16.115 11.4805H23.5022C23.6434 11.4805 23.7579 11.5949 23.7579 11.7361V12.9189C23.7579 13.0601 23.6435 13.1746 23.5022 13.1746Z" fill="url(#paint16_linear_12497_197897)"/>
<path d="M22.5619 13.1746H17.0501C16.9276 13.1746 16.8281 13.0752 16.8281 12.9526V11.7025C16.8281 11.5799 16.9275 11.4805 17.0501 11.4805H22.5619C22.6845 11.4805 22.7839 11.5799 22.7839 11.7025V12.9526C22.7839 13.0752 22.6845 13.1746 22.5619 13.1746Z" fill="url(#paint17_linear_12497_197897)"/>
<path d="M20.7545 13.1746H18.8565C18.7826 13.1746 18.7227 13.1146 18.7227 13.0407V11.6144C18.7227 11.5404 18.7826 11.4805 18.8565 11.4805H20.7545C20.8284 11.4805 20.8884 11.5404 20.8884 11.6144V13.0407C20.8884 13.1147 20.8284 13.1746 20.7545 13.1746Z" fill="url(#paint18_linear_12497_197897)"/>
<path d="M16.3338 11.6865C16.1926 11.6865 16.0781 11.801 16.0781 11.9422V13.125C16.0781 13.1414 16.0798 13.1574 16.0828 13.1729C16.092 13.1739 16.1014 13.1745 16.1109 13.1745H23.498C23.6392 13.1745 23.7537 13.0601 23.7537 12.9189V11.7361C23.7537 11.7197 23.752 11.7037 23.749 11.6881C23.7398 11.6871 23.7305 11.6865 23.7209 11.6865H16.3338Z" fill="url(#paint19_linear_12497_197897)"/>
<path d="M23.5022 11.4812H16.115C15.9739 11.4812 15.8594 11.3668 15.8594 11.2256V10.0428C15.8594 9.90156 15.9738 9.78711 16.115 9.78711H23.5022C23.6434 9.78711 23.7579 9.90156 23.7579 10.0428V11.2256C23.7579 11.3668 23.6435 11.4812 23.5022 11.4812Z" fill="url(#paint20_linear_12497_197897)"/>
<path d="M22.5619 11.4812H17.0501C16.9276 11.4812 16.8281 11.3818 16.8281 11.2592V10.0091C16.8281 9.88654 16.9275 9.78711 17.0501 9.78711H22.5619C22.6845 9.78711 22.7839 9.8865 22.7839 10.0091V11.2592C22.7839 11.3818 22.6845 11.4812 22.5619 11.4812Z" fill="url(#paint21_linear_12497_197897)"/>
<path d="M20.7545 11.4812H18.8565C18.7826 11.4812 18.7227 11.4213 18.7227 11.3473V9.92099C18.7227 9.84706 18.7826 9.78711 18.8565 9.78711H20.7545C20.8284 9.78711 20.8884 9.84706 20.8884 9.92099V11.3473C20.8884 11.4213 20.8284 11.4812 20.7545 11.4812Z" fill="url(#paint22_linear_12497_197897)"/>
<path d="M16.3338 9.99219C16.1926 9.99219 16.0781 10.1066 16.0781 10.2479V11.4306C16.0781 11.4471 16.0798 11.463 16.0828 11.4786C16.092 11.4796 16.1014 11.4802 16.1109 11.4802H23.498C23.6392 11.4802 23.7537 11.3657 23.7537 11.2245V10.0417C23.7537 10.0253 23.752 10.0094 23.749 9.99379C23.7398 9.9928 23.7305 9.99219 23.7209 9.99219H16.3338Z" fill="url(#paint23_linear_12497_197897)"/>
<path d="M23.5022 9.78591H16.115C15.9739 9.78591 15.8594 9.67147 15.8594 9.53024V8.34747C15.8594 8.20624 15.9738 8.0918 16.115 8.0918H23.5022C23.6434 8.0918 23.7579 8.20624 23.7579 8.34747V9.53024C23.7579 9.67142 23.6435 9.78591 23.5022 9.78591Z" fill="url(#paint24_linear_12497_197897)"/>
<path d="M22.5619 9.78596H17.0501C16.9276 9.78596 16.8281 9.68657 16.8281 9.56394V8.31382C16.8281 8.19123 16.9275 8.0918 17.0501 8.0918H22.5619C22.6845 8.0918 22.7839 8.19118 22.7839 8.31382V9.56389C22.7839 9.68653 22.6845 9.78596 22.5619 9.78596Z" fill="url(#paint25_linear_12497_197897)"/>
<path d="M20.7545 9.78591H18.8565C18.7826 9.78591 18.7227 9.72596 18.7227 9.65203V8.22568C18.7227 8.15175 18.7826 8.0918 18.8565 8.0918H20.7545C20.8284 8.0918 20.8884 8.15175 20.8884 8.22568V9.65203C20.8884 9.72596 20.8284 9.78591 20.7545 9.78591Z" fill="url(#paint26_linear_12497_197897)"/>
<path d="M16.3338 8.29883C16.1926 8.29883 16.0781 8.41328 16.0781 8.5545V9.73728C16.0781 9.7537 16.0798 9.7697 16.0828 9.78523C16.092 9.78622 16.1014 9.78683 16.1109 9.78683H23.498C23.6392 9.78683 23.7537 9.67238 23.7537 9.53116V8.34838C23.7537 8.33196 23.752 8.31596 23.749 8.30043C23.7398 8.29944 23.7305 8.29883 23.7209 8.29883H16.3338Z" fill="url(#paint27_linear_12497_197897)"/>
<path d="M23.5022 8.09256H16.115C15.9739 8.09256 15.8594 7.97811 15.8594 7.83688V6.65411C15.8594 6.51288 15.9738 6.39844 16.115 6.39844H23.5022C23.6434 6.39844 23.7579 6.51288 23.7579 6.65411V7.83688C23.7579 7.97806 23.6435 8.09256 23.5022 8.09256Z" fill="url(#paint28_linear_12497_197897)"/>
<path d="M22.5619 8.09256H17.0501C16.9276 8.09256 16.8281 7.99317 16.8281 7.87053V6.62046C16.8281 6.49787 16.9275 6.39844 17.0501 6.39844H22.5619C22.6845 6.39844 22.7839 6.49783 22.7839 6.62046V7.87053C22.7839 7.99317 22.6845 8.09256 22.5619 8.09256Z" fill="url(#paint29_linear_12497_197897)"/>
<path d="M20.7545 8.09256H18.8565C18.7826 8.09256 18.7227 8.0326 18.7227 7.95867V6.53232C18.7227 6.45839 18.7826 6.39844 18.8565 6.39844H20.7545C20.8284 6.39844 20.8884 6.45839 20.8884 6.53232V7.95867C20.8884 8.0326 20.8284 8.09256 20.7545 8.09256Z" fill="url(#paint30_linear_12497_197897)"/>
<path d="M16.3338 6.60449C16.1926 6.60449 16.0781 6.71894 16.0781 6.86016V8.04294C16.0781 8.05936 16.0798 8.07532 16.0828 8.09089C16.092 8.09188 16.1014 8.09249 16.1109 8.09249H23.498C23.6392 8.09249 23.7537 7.97805 23.7537 7.83682V6.65404C23.7537 6.63762 23.752 6.62162 23.749 6.60609C23.7398 6.6051 23.7305 6.60449 23.7209 6.60449H16.3338Z" fill="url(#paint31_linear_12497_197897)"/>
<path d="M19.657 12.5957L18.9781 9.03555C18.4718 6.38002 16.1498 4.45898 13.4464 4.45898H10.8994C8.19605 4.45898 5.87412 6.38002 5.36777 9.03555L4.98287 11.054C4.61299 12.9938 4.02174 14.8915 3.13751 16.6572C2.87897 17.1734 2.7432 17.7618 2.76866 18.3842C2.84221 20.1849 4.42701 21.7343 6.22889 21.7696C6.24212 21.7698 6.25529 21.77 6.26847 21.7701C7.08598 21.7772 7.87308 22.0958 8.4464 22.6786C9.08715 23.33 9.97845 23.734 10.9645 23.734C12.1611 23.734 13.2185 23.1391 13.8578 22.229C14.0636 21.936 14.4011 21.7695 14.7592 21.7702H14.7654C14.9192 21.7702 15.0704 21.7588 15.2181 21.7369C15.4967 21.6956 15.7785 21.7668 16.0085 21.9294C16.6304 22.3693 17.4006 22.6136 18.2297 22.5716C20.004 22.4818 21.4513 21.0615 21.5719 19.289C21.6153 18.6513 21.4891 18.0468 21.2342 17.5159C20.4858 15.9576 19.9808 14.2938 19.657 12.5957Z" fill="#DE3730"/>
<path d="M6.2997 21.7713C8.25151 21.7713 9.83377 20.189 9.83377 18.2372C9.83377 16.2854 8.25151 14.7031 6.2997 14.7031C4.34788 14.7031 2.76562 16.2854 2.76562 18.2372C2.76562 20.189 4.34788 21.7713 6.2997 21.7713Z" fill="url(#paint32_linear_12497_197897)"/>
<path d="M10.9638 23.7342C12.9156 23.7342 14.4978 22.1519 14.4978 20.2001C14.4978 18.2483 12.9156 16.666 10.9638 16.666C9.01194 16.666 7.42969 18.2483 7.42969 20.2001C7.42969 22.1519 9.01194 23.7342 10.9638 23.7342Z" fill="url(#paint33_linear_12497_197897)"/>
<path d="M18.0458 22.5769C19.9976 22.5769 21.5799 20.9947 21.5799 19.0429C21.5799 17.091 19.9976 15.5088 18.0458 15.5088C16.094 15.5088 14.5117 17.091 14.5117 19.0429C14.5117 20.9947 16.094 22.5769 18.0458 22.5769Z" fill="url(#paint34_linear_12497_197897)"/>
<path d="M21.5706 19.2897C21.614 18.6519 21.4878 18.0475 21.2329 17.5165C20.4845 15.9582 19.9795 14.2944 19.6557 12.5963L18.9769 9.03616C18.7931 8.07258 18.3694 7.20656 17.7762 6.49305C16.7942 5.68002 15.5373 5.19922 14.1848 5.19922H11.6378C8.93441 5.19922 6.61244 7.12025 6.10608 9.77578L5.72119 11.7943C5.35131 13.734 4.76006 15.6317 3.87582 17.3974C3.61728 17.9136 3.48152 18.5019 3.50693 19.1243C3.53587 19.8328 3.79945 20.5019 4.21742 21.0556C4.79262 21.4888 5.49192 21.7557 6.22759 21.7701C6.24081 21.7704 6.25399 21.7706 6.26717 21.7707C7.08467 21.7778 7.87183 22.0963 8.44514 22.6792C9.0859 23.3306 9.97719 23.7346 10.9632 23.7346C12.1599 23.7346 13.2173 23.1396 13.8565 22.2296C14.0623 21.9366 14.3998 21.7701 14.7579 21.7708H14.7641C14.9179 21.7708 15.0691 21.7594 15.2168 21.7375C15.4954 21.6962 15.7772 21.7673 16.0072 21.9299C16.6292 22.3699 17.3994 22.6141 18.2284 22.5722C20.0027 22.4825 21.4501 21.0621 21.5706 19.2897Z" fill="url(#paint35_linear_12497_197897)"/>
<path d="M14.2251 8.6199C13.9692 8.54074 13.7261 8.48375 13.4959 8.4486C13.3848 8.43161 13.2726 8.41787 13.1595 8.40705C13.1586 8.40653 13.1577 8.40601 13.1568 8.4055L12.6387 7.86893C12.5364 7.80215 12.4255 7.76855 12.3061 7.76855C12.1696 7.76855 12.0545 7.80037 11.9607 7.86352C11.8668 7.92686 11.82 8.00206 11.82 8.08879V8.42098C11.078 8.52531 10.466 8.79938 9.98429 9.24291C9.50231 9.68644 9.26151 10.2951 9.26151 11.0691C9.26151 11.3847 9.3169 11.6726 9.42777 11.9326C9.53854 12.1928 9.6665 12.4059 9.81163 12.5722L11.8201 14.5825V15.7768C11.4874 15.7172 11.1249 15.5487 10.7327 15.2715C10.3403 14.9944 10.0631 14.8557 9.90113 14.8557C9.67087 14.8557 9.46824 14.9752 9.29346 15.2139C9.11859 15.4528 9.03125 15.6917 9.03125 15.9303C9.03125 16.2414 9.18386 16.5287 9.48857 16.7925L14.4969 21.8008C14.5816 21.781 14.6692 21.7708 14.7581 21.771H14.7643C14.9182 21.771 15.0693 21.7596 15.217 21.7376C15.4956 21.6964 15.7775 21.7675 16.0074 21.9301C16.6294 22.3701 17.3996 22.6143 18.2287 22.5723C20.003 22.4825 21.4503 21.0622 21.5709 19.2897C21.6143 18.652 21.4881 18.0475 21.2331 17.5166C20.7123 16.4321 20.3097 15.2964 20.0036 14.1336L14.8455 8.97571C14.6876 8.81759 14.4809 8.69905 14.2251 8.6199Z" fill="url(#paint36_linear_12497_197897)"/>
<path d="M15.1526 13.8452C15.0457 13.5723 14.9179 13.3462 14.7688 13.1671C14.6194 12.988 14.4211 12.8175 14.1738 12.6554C13.9264 12.4935 13.7048 12.3698 13.5086 12.2845C13.3124 12.1993 13.0737 12.1012 12.7923 11.9902V10.1224C13.0993 10.148 13.3955 10.2334 13.6814 10.3783C13.967 10.5234 14.1695 10.5958 14.289 10.5958C14.5363 10.5958 14.7304 10.4744 14.8711 10.2318C15.0118 9.98912 15.0822 9.75486 15.0822 9.5294C15.0822 9.31853 15.0032 9.13406 14.8455 8.97571C14.6876 8.81759 14.4809 8.6991 14.2251 8.6199C13.9692 8.54074 13.7261 8.48375 13.4959 8.4486C13.2656 8.4134 13.0309 8.39143 12.7923 8.38263V8.08738C12.7923 8.0086 12.7411 7.93585 12.6387 7.86888C12.5364 7.80211 12.4255 7.76855 12.3061 7.76855C12.1696 7.76855 12.0545 7.80037 11.9607 7.86352C11.8668 7.92686 11.82 8.00206 11.82 8.08879V8.42098C11.078 8.52531 10.466 8.79938 9.98429 9.24291C9.50231 9.68644 9.26151 10.2951 9.26151 11.0691C9.26151 11.3847 9.31685 11.6726 9.42777 11.9326C9.53854 12.1928 9.6665 12.4059 9.81163 12.5722C9.95652 12.7385 10.1612 12.9006 10.4256 13.0583C10.6899 13.2163 10.9118 13.3334 11.0909 13.4101C11.27 13.4869 11.513 13.585 11.8201 13.7044V15.7768C11.4874 15.7172 11.1249 15.5487 10.7327 15.2715C10.3403 14.9944 10.0631 14.8557 9.90113 14.8557C9.67087 14.8557 9.46824 14.9752 9.29346 15.2139C9.11859 15.4528 9.03125 15.6917 9.03125 15.9303C9.03125 16.3483 9.30631 16.7235 9.85638 17.0561C10.4065 17.3887 11.0609 17.5678 11.8201 17.5934V17.9132C11.8201 18.007 11.8669 18.0879 11.9608 18.1563C12.0545 18.2244 12.1696 18.2586 12.3062 18.2586C12.4255 18.2586 12.5365 18.2222 12.6388 18.1499C12.7412 18.0773 12.7923 17.9983 12.7923 17.9132V17.5422C13.5599 17.4143 14.1717 17.1117 14.628 16.6339C15.0842 16.1564 15.3125 15.5295 15.3125 14.7534C15.3124 14.4208 15.2591 14.1182 15.1526 13.8452ZM11.948 11.6831C11.4021 11.4529 11.1292 11.1842 11.1292 10.8772C11.1292 10.5106 11.402 10.2718 11.948 10.1608V11.6831ZM12.6643 15.764V14.0498C13.1844 14.2973 13.4447 14.5999 13.4447 14.9581C13.4447 15.376 13.1844 15.6447 12.6643 15.764Z" fill="url(#paint37_linear_12497_197897)"/>
<path d="M13.9099 4.45961H10.4383L8.8589 1.43185C8.62572 0.984882 8.89193 0.439847 9.38779 0.348929L10.4221 0.159282C11.5805 -0.0530941 12.7677 -0.0530941 13.9261 0.159282L14.9604 0.348929C15.4562 0.439847 15.7224 0.984835 15.4893 1.43185L13.9099 4.45961Z" fill="#DE3730"/>
<path d="M12.7473 4.45961H11.5928L11.0675 1.43185C10.9899 0.984882 11.0785 0.439847 11.2434 0.348929L11.5874 0.159282C11.9726 -0.0530941 12.3675 -0.0530941 12.7528 0.159282L13.0968 0.348929C13.2617 0.439847 13.3502 0.984835 13.2727 1.43185L12.7473 4.45961Z" fill="url(#paint38_linear_12497_197897)"/>
<path d="M15.4346 0.653482C15.5023 0.749765 15.4682 0.883929 15.3633 0.937153C14.8707 1.18765 14.2882 1.18765 13.7957 0.937153L13.3603 0.716071C12.8678 0.465577 12.2853 0.465577 11.7928 0.716071L11.3579 0.937153C10.8653 1.18765 10.2829 1.18765 9.79032 0.937153L9.33483 0.705482C9.17526 0.624306 9.205 0.382941 9.38095 0.349906C9.38246 0.349624 9.38392 0.349341 9.38542 0.349059L10.4197 0.159035C11.5778 -0.0530118 12.7654 -0.0530118 13.9235 0.159035L14.9578 0.349059C15.1621 0.386282 15.3271 0.500541 15.4346 0.653482Z" fill="url(#paint39_linear_12497_197897)"/>
<path d="M12.1738 4.79899C11.4212 4.79899 10.709 4.75038 10.1252 4.66055C9.933 4.63095 9.80406 4.4477 9.84283 4.25711C9.87888 4.07989 10.0473 3.96191 10.226 3.9893C10.7743 4.07335 11.4639 4.1204 12.1738 4.1204C12.8835 4.1204 13.5732 4.07335 14.1215 3.9893C14.3002 3.96191 14.4686 4.07984 14.5047 4.25711C14.5434 4.4477 14.4145 4.63099 14.2223 4.66055C13.6385 4.75038 12.9263 4.79899 12.1738 4.79899Z" fill="url(#paint40_linear_12497_197897)"/>
<path d="M8.13594 14.0321C8.10898 13.9197 8.00893 13.8359 7.88837 13.8359H6.95063H5.14375H4.28032C3.97048 14.8036 3.59317 15.7486 3.13754 16.6584C2.879 17.1746 2.74324 17.7629 2.76865 18.3853C2.8422 20.1861 4.42705 21.7355 6.22893 21.7708C6.24216 21.771 6.25533 21.7712 6.26851 21.7713C7.08601 21.7784 7.87317 22.097 8.44648 22.6798C9.08724 23.3312 9.97853 23.7352 10.9646 23.7352C12.1612 23.7352 13.2186 23.1403 13.8579 22.2302C14.0637 21.9372 14.4012 21.7707 14.7592 21.7714H14.7654C14.9193 21.7714 15.0704 21.76 15.2182 21.7381C15.4967 21.6968 15.7786 21.7679 16.0086 21.9306C16.035 21.9493 16.062 21.9671 16.0889 21.985L8.13594 14.0321Z" fill="url(#paint41_linear_12497_197897)"/>
<path d="M7.88506 23.9998H0.497858C0.356682 23.9998 0.242188 23.8853 0.242188 23.7441V22.5613C0.242188 22.4201 0.356635 22.3057 0.497858 22.3057H7.88506C8.02624 22.3057 8.14073 22.4201 8.14073 22.5613V23.7441C8.14073 23.8853 8.02624 23.9998 7.88506 23.9998Z" fill="url(#paint42_linear_12497_197897)"/>
<path d="M6.95249 23.9998H1.44077C1.31814 23.9998 1.21875 23.9004 1.21875 23.7778V22.5277C1.21875 22.4051 1.31814 22.3057 1.44077 22.3057H6.95249C7.07508 22.3057 7.17451 22.4051 7.17451 22.5277V23.7778C7.17451 23.9004 7.07513 23.9998 6.95249 23.9998Z" fill="url(#paint43_linear_12497_197897)"/>
<path d="M5.14123 23.9998H3.24326C3.16933 23.9998 3.10938 23.9398 3.10938 23.8659V22.4395C3.10938 22.3656 3.16933 22.3057 3.24326 22.3057H5.14123C5.21516 22.3057 5.27512 22.3656 5.27512 22.4395V23.8659C5.27512 23.9398 5.21516 23.9998 5.14123 23.9998Z" fill="url(#paint44_linear_12497_197897)"/>
<path d="M0.724421 22.5117C0.583197 22.5117 0.46875 22.6262 0.46875 22.7674V23.9502C0.46875 23.9666 0.470444 23.9826 0.473409 23.9981C0.482632 23.9991 0.491997 23.9997 0.501503 23.9997H7.8887C8.02993 23.9997 8.14437 23.8853 8.14437 23.744V22.5613C8.14437 22.5448 8.14268 22.5288 8.13972 22.5133C8.13049 22.5123 8.12113 22.5117 8.11162 22.5117H0.724421Z" fill="url(#paint45_linear_12497_197897)"/>
<path d="M7.88506 22.3054H0.497858C0.356682 22.3054 0.242188 22.191 0.242188 22.0498V20.867C0.242188 20.7258 0.356635 20.6113 0.497858 20.6113H7.88506C8.02624 20.6113 8.14073 20.7258 8.14073 20.867V22.0498C8.14073 22.191 8.02624 22.3054 7.88506 22.3054Z" fill="url(#paint46_linear_12497_197897)"/>
<path d="M6.95249 22.3055H1.44077C1.31814 22.3055 1.21875 22.2061 1.21875 22.0835V20.8334C1.21875 20.7108 1.31814 20.6113 1.44077 20.6113H6.95249C7.07508 20.6113 7.17451 20.7107 7.17451 20.8334V22.0835C7.17451 22.2061 7.07513 22.3055 6.95249 22.3055Z" fill="url(#paint47_linear_12497_197897)"/>
<path d="M5.14123 22.3054H3.24326C3.16933 22.3054 3.10938 22.2455 3.10938 22.1716V20.7452C3.10938 20.6713 3.16933 20.6113 3.24326 20.6113H5.14123C5.21516 20.6113 5.27512 20.6713 5.27512 20.7452V22.1716C5.27512 22.2455 5.21516 22.3054 5.14123 22.3054Z" fill="url(#paint48_linear_12497_197897)"/>
<path d="M0.724421 20.8184C0.583197 20.8184 0.46875 20.9328 0.46875 21.074V22.2568C0.46875 22.2732 0.470444 22.2892 0.473409 22.3048C0.482632 22.3058 0.491997 22.3064 0.501503 22.3064H7.8887C8.02993 22.3064 8.14437 22.1919 8.14437 22.0507V20.8679C8.14437 20.8515 8.14268 20.8355 8.13972 20.82C8.13049 20.8189 8.12113 20.8184 8.11162 20.8184H0.724421Z" fill="url(#paint49_linear_12497_197897)"/>
<path d="M7.88506 20.6121H0.497858C0.356682 20.6121 0.242188 20.4976 0.242188 20.3564V19.1736C0.242188 19.0325 0.356635 18.918 0.497858 18.918H7.88506C8.02624 18.918 8.14073 19.0324 8.14073 19.1736V20.3564C8.14073 20.4976 8.02624 20.6121 7.88506 20.6121Z" fill="url(#paint50_linear_12497_197897)"/>
<path d="M6.95249 20.6121H1.44077C1.31814 20.6121 1.21875 20.5127 1.21875 20.3901V19.14C1.21875 19.0174 1.31814 18.918 1.44077 18.918H6.95249C7.07508 18.918 7.17451 19.0174 7.17451 19.14V20.3901C7.17451 20.5127 7.07513 20.6121 6.95249 20.6121Z" fill="url(#paint51_linear_12497_197897)"/>
<path d="M5.14123 20.6121H3.24326C3.16933 20.6121 3.10938 20.5521 3.10938 20.4782V19.0519C3.10938 18.9779 3.16933 18.918 3.24326 18.918H5.14123C5.21516 18.918 5.27512 18.9779 5.27512 19.0519V20.4782C5.27512 20.5522 5.21516 20.6121 5.14123 20.6121Z" fill="url(#paint52_linear_12497_197897)"/>
<path d="M0.724421 19.124C0.583197 19.124 0.46875 19.2385 0.46875 19.3797V20.5625C0.46875 20.5789 0.470444 20.5949 0.473409 20.6104C0.482632 20.6114 0.491997 20.612 0.501503 20.612H7.8887C8.02993 20.612 8.14437 20.4976 8.14437 20.3564V19.1736C8.14437 19.1572 8.14268 19.1412 8.13972 19.1256C8.13049 19.1246 8.12113 19.124 8.11162 19.124H0.724421Z" fill="url(#paint53_linear_12497_197897)"/>
<path d="M7.88506 18.9178H0.497858C0.356682 18.9178 0.242188 18.8033 0.242188 18.6621V17.4793C0.242188 17.3381 0.356635 17.2236 0.497858 17.2236H7.88506C8.02624 17.2236 8.14073 17.3381 8.14073 17.4793V18.6621C8.14073 18.8033 8.02624 18.9178 7.88506 18.9178Z" fill="url(#paint54_linear_12497_197897)"/>
<path d="M6.95249 18.9178H1.44077C1.31814 18.9178 1.21875 18.8184 1.21875 18.6958V17.4457C1.21875 17.3231 1.31814 17.2236 1.44077 17.2236H6.95249C7.07508 17.2236 7.17451 17.323 7.17451 17.4457V18.6958C7.17451 18.8184 7.07513 18.9178 6.95249 18.9178Z" fill="url(#paint55_linear_12497_197897)"/>
<path d="M5.14123 18.9178H3.24326C3.16933 18.9178 3.10938 18.8578 3.10938 18.7839V17.3575C3.10938 17.2836 3.16933 17.2236 3.24326 17.2236H5.14123C5.21516 17.2236 5.27512 17.2836 5.27512 17.3575V18.7839C5.27512 18.8578 5.21516 18.9178 5.14123 18.9178Z" fill="url(#paint56_linear_12497_197897)"/>
<path d="M0.724421 17.4297C0.583197 17.4297 0.46875 17.5441 0.46875 17.6854V18.8681C0.46875 18.8846 0.470444 18.9005 0.473409 18.9161C0.482632 18.9171 0.491997 18.9177 0.501503 18.9177H7.8887C8.02993 18.9177 8.14437 18.8032 8.14437 18.662V17.4792C8.14437 17.4628 8.14268 17.4469 8.13972 17.4313C8.13049 17.4303 8.12113 17.4297 8.11162 17.4297H0.724421Z" fill="url(#paint57_linear_12497_197897)"/>
<path d="M7.88506 17.2234H0.497858C0.356682 17.2234 0.242188 17.109 0.242188 16.9677V15.785C0.242188 15.6438 0.356635 15.5293 0.497858 15.5293H7.88506C8.02624 15.5293 8.14073 15.6437 8.14073 15.785V16.9677C8.14073 17.1089 8.02624 17.2234 7.88506 17.2234Z" fill="url(#paint58_linear_12497_197897)"/>
<path d="M6.95249 17.2234H1.44077C1.31814 17.2234 1.21875 17.124 1.21875 17.0014V15.7513C1.21875 15.6287 1.31814 15.5293 1.44077 15.5293H6.95249C7.07508 15.5293 7.17451 15.6287 7.17451 15.7513V17.0014C7.17451 17.124 7.07513 17.2234 6.95249 17.2234Z" fill="url(#paint59_linear_12497_197897)"/>
<path d="M5.14123 17.2234H3.24326C3.16933 17.2234 3.10938 17.1635 3.10938 17.0895V15.6632C3.10938 15.5892 3.16933 15.5293 3.24326 15.5293H5.14123C5.21516 15.5293 5.27512 15.5892 5.27512 15.6632V17.0895C5.27512 17.1635 5.21516 17.2234 5.14123 17.2234Z" fill="url(#paint60_linear_12497_197897)"/>
<path d="M0.724421 15.7354C0.583197 15.7354 0.46875 15.8498 0.46875 15.991V17.1738C0.46875 17.1902 0.470444 17.2062 0.473409 17.2218C0.482632 17.2227 0.491997 17.2234 0.501503 17.2234H7.8887C8.02993 17.2234 8.14437 17.1089 8.14437 16.9677V15.7849C8.14437 15.7685 8.14268 15.7525 8.13972 15.737C8.13049 15.736 8.12113 15.7354 8.11162 15.7354H0.724421Z" fill="url(#paint61_linear_12497_197897)"/>
<path d="M7.88506 15.5301H0.497858C0.356682 15.5301 0.242188 15.4156 0.242188 15.2744V14.0916C0.242188 13.9504 0.356635 13.8359 0.497858 13.8359H7.88506C8.02624 13.8359 8.14073 13.9504 8.14073 14.0916V15.2744C8.14073 15.4156 8.02624 15.5301 7.88506 15.5301Z" fill="url(#paint62_linear_12497_197897)"/>
<path d="M6.95249 15.5301H1.44077C1.31814 15.5301 1.21875 15.4307 1.21875 15.3081V14.058C1.21875 13.9354 1.31814 13.8359 1.44077 13.8359H6.95249C7.07508 13.8359 7.17451 13.9353 7.17451 14.058V15.3081C7.17451 15.4307 7.07513 15.5301 6.95249 15.5301Z" fill="url(#paint63_linear_12497_197897)"/>
<path d="M5.14123 15.5301H3.24326C3.16933 15.5301 3.10938 15.4701 3.10938 15.3962V13.9698C3.10938 13.8959 3.16933 13.8359 3.24326 13.8359H5.14123C5.21516 13.8359 5.27512 13.8959 5.27512 13.9698V15.3962C5.27512 15.4701 5.21516 15.5301 5.14123 15.5301Z" fill="url(#paint64_linear_12497_197897)"/>
<path d="M0.724421 14.041C0.583197 14.041 0.46875 14.1555 0.46875 14.2967V15.4795C0.46875 15.4959 0.470444 15.5118 0.473409 15.5274C0.482632 15.5284 0.491997 15.529 0.501503 15.529H7.8887C8.02993 15.529 8.14437 15.4146 8.14437 15.2733V14.0906C8.14437 14.0741 8.14268 14.0582 8.13972 14.0426C8.13049 14.0416 8.12113 14.041 8.11162 14.041H0.724421Z" fill="url(#paint65_linear_12497_197897)"/>
<path d="M21.7366 23.9998H14.3494C14.2082 23.9998 14.0938 23.8853 14.0938 23.7441V22.5613C14.0938 22.4201 14.2082 22.3057 14.3494 22.3057H21.7366C21.8778 22.3057 21.9923 22.4201 21.9923 22.5613V23.7441C21.9923 23.8853 21.8778 23.9998 21.7366 23.9998Z" fill="url(#paint66_linear_12497_197897)"/>
<path d="M20.8041 23.9998H15.2923C15.1697 23.9998 15.0703 23.9004 15.0703 23.7778V22.5277C15.0703 22.4051 15.1697 22.3057 15.2923 22.3057H20.8041C20.9266 22.3057 21.0261 22.4051 21.0261 22.5277V23.7778C21.0261 23.9004 20.9266 23.9998 20.8041 23.9998Z" fill="url(#paint67_linear_12497_197897)"/>
<path d="M18.9928 23.9998H17.0948C17.0209 23.9998 16.9609 23.9398 16.9609 23.8659V22.4395C16.9609 22.3656 17.0209 22.3057 17.0948 22.3057H18.9928C19.0667 22.3057 19.1267 22.3656 19.1267 22.4395V23.8659C19.1267 23.9398 19.0667 23.9998 18.9928 23.9998Z" fill="url(#paint68_linear_12497_197897)"/>
<path d="M14.576 22.5117C14.4348 22.5117 14.3203 22.6262 14.3203 22.7674V23.9502C14.3203 23.9666 14.322 23.9826 14.325 23.9981C14.3342 23.9991 14.3436 23.9997 14.3531 23.9997H21.7403C21.8814 23.9997 21.9959 23.8853 21.9959 23.744V22.5613C21.9959 22.5448 21.9942 22.5288 21.9913 22.5133C21.9821 22.5123 21.9727 22.5117 21.9632 22.5117H14.576Z" fill="url(#paint69_linear_12497_197897)"/>
<path d="M21.7366 22.3054H14.3494C14.2082 22.3054 14.0938 22.191 14.0938 22.0498V20.867C14.0938 20.7258 14.2082 20.6113 14.3494 20.6113H21.7366C21.8778 20.6113 21.9923 20.7258 21.9923 20.867V22.0498C21.9923 22.191 21.8778 22.3054 21.7366 22.3054Z" fill="url(#paint70_linear_12497_197897)"/>
<path d="M20.8041 22.3055H15.2923C15.1697 22.3055 15.0703 22.2061 15.0703 22.0835V20.8334C15.0703 20.7108 15.1697 20.6113 15.2923 20.6113H20.8041C20.9266 20.6113 21.0261 20.7107 21.0261 20.8334V22.0835C21.0261 22.2061 20.9266 22.3055 20.8041 22.3055Z" fill="url(#paint71_linear_12497_197897)"/>
<path d="M18.9928 22.3054H17.0948C17.0209 22.3054 16.9609 22.2455 16.9609 22.1716V20.7452C16.9609 20.6713 17.0209 20.6113 17.0948 20.6113H18.9928C19.0667 20.6113 19.1267 20.6713 19.1267 20.7452V22.1716C19.1267 22.2455 19.0667 22.3054 18.9928 22.3054Z" fill="url(#paint72_linear_12497_197897)"/>
<path d="M14.576 20.8184C14.4348 20.8184 14.3203 20.9328 14.3203 21.074V22.2568C14.3203 22.2732 14.322 22.2892 14.325 22.3048C14.3342 22.3058 14.3436 22.3064 14.3531 22.3064H21.7403C21.8814 22.3064 21.9959 22.1919 21.9959 22.0507V20.8679C21.9959 20.8515 21.9942 20.8355 21.9913 20.82C21.9821 20.8189 21.9727 20.8184 21.9632 20.8184H14.576Z" fill="url(#paint73_linear_12497_197897)"/>
<path d="M4.38089 9.86694C3.67435 10.3274 3.07152 10.9338 2.61501 11.6433C2.51232 11.8029 2.27543 11.8024 2.17336 11.6425C1.71943 10.9314 1.11882 10.3228 0.41397 9.85974C0.257499 9.75697 0.257922 9.52332 0.41477 9.42111C1.12131 8.96069 1.72413 8.35424 2.18065 7.64478C2.28329 7.48525 2.52023 7.48567 2.6223 7.64558C3.07623 8.35669 3.67684 8.96534 4.38173 9.42836C4.53816 9.53109 4.53773 9.76478 4.38089 9.86694Z" fill="url(#paint74_linear_12497_197897)"/>
<path d="M7.19276 3.45864C6.69313 3.78424 6.26683 4.21309 5.94401 4.71483C5.87139 4.82763 5.70386 4.82735 5.63168 4.71426C5.31069 4.21139 4.88593 3.78099 4.38749 3.45356C4.27685 3.3809 4.27713 3.21563 4.38805 3.14335C4.88768 2.81775 5.31398 2.3889 5.63681 1.88716C5.70942 1.77436 5.87695 1.77464 5.94913 1.88772C6.27012 2.39059 6.69488 2.82099 7.19332 3.14843C7.30396 3.22113 7.30368 3.38636 7.19276 3.45864Z" fill="url(#paint75_linear_12497_197897)"/>
<path d="M20.7631 4.61684C20.2634 4.94244 19.8371 5.37129 19.5143 5.87303C19.4417 5.98583 19.2742 5.98555 19.202 5.87247C18.881 5.3696 18.4562 4.9392 17.9578 4.61176C17.8472 4.5391 17.8474 4.37383 17.9584 4.30155C18.458 3.97595 18.8843 3.5471 19.2071 3.04536C19.2797 2.93256 19.4473 2.93284 19.5194 3.04593C19.8405 3.5488 20.2652 3.9792 20.7636 4.30663C20.8743 4.37934 20.874 4.54456 20.7631 4.61684Z" fill="url(#paint76_linear_12497_197897)"/>
</g>
<defs>
<linearGradient id="paint0_linear_12497_197897" x1="19.8086" y1="18.2918" x2="19.8086" y2="20.4882" gradientUnits="userSpaceOnUse">
<stop stop-color="#E4F2FF"/>
<stop offset="1" stop-color="#B2CBFF"/>
</linearGradient>
<linearGradient id="paint1_linear_12497_197897" x1="19.806" y1="18.3236" x2="19.806" y2="22.0176" gradientUnits="userSpaceOnUse">
<stop stop-color="#3F3CED" stop-opacity="0"/>
<stop offset="0.2796" stop-color="#3C3DE4" stop-opacity="0.28"/>
<stop offset="0.7305" stop-color="#3541CC" stop-opacity="0.731"/>
<stop offset="1" stop-color="#2F43BB"/>
</linearGradient>
<linearGradient id="paint2_linear_12497_197897" x1="19.8055" y1="18.3236" x2="19.8055" y2="22.0176" gradientUnits="userSpaceOnUse">
<stop stop-color="#3F3CED" stop-opacity="0"/>
<stop offset="0.2796" stop-color="#3C3DE4" stop-opacity="0.28"/>
<stop offset="0.7305" stop-color="#3541CC" stop-opacity="0.731"/>
<stop offset="1" stop-color="#2F43BB"/>
</linearGradient>
<linearGradient id="paint3_linear_12497_197897" x1="19.7953" y1="18.9153" x2="18.9195" y2="16.7973" gradientUnits="userSpaceOnUse">
<stop stop-color="white" stop-opacity="0"/>
<stop offset="1" stop-color="white"/>
</linearGradient>
<linearGradient id="paint4_linear_12497_197897" x1="19.8086" y1="16.5974" x2="19.8086" y2="18.7939" gradientUnits="userSpaceOnUse">
<stop stop-color="#E4F2FF"/>
<stop offset="1" stop-color="#B2CBFF"/>
</linearGradient>
<linearGradient id="paint5_linear_12497_197897" x1="19.806" y1="16.6293" x2="19.806" y2="20.3233" gradientUnits="userSpaceOnUse">
<stop stop-color="#3F3CED" stop-opacity="0"/>
<stop offset="0.2796" stop-color="#3C3DE4" stop-opacity="0.28"/>
<stop offset="0.7305" stop-color="#3541CC" stop-opacity="0.731"/>
<stop offset="1" stop-color="#2F43BB"/>
</linearGradient>
<linearGradient id="paint6_linear_12497_197897" x1="19.8055" y1="16.6293" x2="19.8055" y2="20.3233" gradientUnits="userSpaceOnUse">
<stop stop-color="#3F3CED" stop-opacity="0"/>
<stop offset="0.2796" stop-color="#3C3DE4" stop-opacity="0.28"/>
<stop offset="0.7305" stop-color="#3541CC" stop-opacity="0.731"/>
<stop offset="1" stop-color="#2F43BB"/>
</linearGradient>
<linearGradient id="paint7_linear_12497_197897" x1="19.7953" y1="17.222" x2="18.9195" y2="15.104" gradientUnits="userSpaceOnUse">
<stop stop-color="white" stop-opacity="0"/>
<stop offset="1" stop-color="white"/>
</linearGradient>
<linearGradient id="paint8_linear_12497_197897" x1="19.8086" y1="14.9041" x2="19.8086" y2="17.1005" gradientUnits="userSpaceOnUse">
<stop stop-color="#E4F2FF"/>
<stop offset="1" stop-color="#B2CBFF"/>
</linearGradient>
<linearGradient id="paint9_linear_12497_197897" x1="19.806" y1="14.9359" x2="19.806" y2="18.6299" gradientUnits="userSpaceOnUse">
<stop stop-color="#3F3CED" stop-opacity="0"/>
<stop offset="0.2796" stop-color="#3C3DE4" stop-opacity="0.28"/>
<stop offset="0.7305" stop-color="#3541CC" stop-opacity="0.731"/>
<stop offset="1" stop-color="#2F43BB"/>
</linearGradient>
<linearGradient id="paint10_linear_12497_197897" x1="19.8055" y1="14.9359" x2="19.8055" y2="18.6299" gradientUnits="userSpaceOnUse">
<stop stop-color="#3F3CED" stop-opacity="0"/>
<stop offset="0.2796" stop-color="#3C3DE4" stop-opacity="0.28"/>
<stop offset="0.7305" stop-color="#3541CC" stop-opacity="0.731"/>
<stop offset="1" stop-color="#2F43BB"/>
</linearGradient>
<linearGradient id="paint11_linear_12497_197897" x1="19.7953" y1="15.5266" x2="18.9195" y2="13.4087" gradientUnits="userSpaceOnUse">
<stop stop-color="white" stop-opacity="0"/>
<stop offset="1" stop-color="white"/>
</linearGradient>
<linearGradient id="paint12_linear_12497_197897" x1="19.8086" y1="13.2097" x2="19.8086" y2="15.4062" gradientUnits="userSpaceOnUse">
<stop stop-color="#E4F2FF"/>
<stop offset="1" stop-color="#B2CBFF"/>
</linearGradient>
<linearGradient id="paint13_linear_12497_197897" x1="19.806" y1="13.2416" x2="19.806" y2="16.9356" gradientUnits="userSpaceOnUse">
<stop stop-color="#3F3CED" stop-opacity="0"/>
<stop offset="0.2796" stop-color="#3C3DE4" stop-opacity="0.28"/>
<stop offset="0.7305" stop-color="#3541CC" stop-opacity="0.731"/>
<stop offset="1" stop-color="#2F43BB"/>
</linearGradient>
<linearGradient id="paint14_linear_12497_197897" x1="19.8055" y1="13.2416" x2="19.8055" y2="16.9356" gradientUnits="userSpaceOnUse">
<stop stop-color="#3F3CED" stop-opacity="0"/>
<stop offset="0.2796" stop-color="#3C3DE4" stop-opacity="0.28"/>
<stop offset="0.7305" stop-color="#3541CC" stop-opacity="0.731"/>
<stop offset="1" stop-color="#2F43BB"/>
</linearGradient>
<linearGradient id="paint15_linear_12497_197897" x1="19.7953" y1="13.8333" x2="18.9195" y2="11.7154" gradientUnits="userSpaceOnUse">
<stop stop-color="white" stop-opacity="0"/>
<stop offset="1" stop-color="white"/>
</linearGradient>
<linearGradient id="paint16_linear_12497_197897" x1="19.8086" y1="11.5154" x2="19.8086" y2="13.7119" gradientUnits="userSpaceOnUse">
<stop stop-color="#E4F2FF"/>
<stop offset="1" stop-color="#B2CBFF"/>
</linearGradient>
<linearGradient id="paint17_linear_12497_197897" x1="19.806" y1="11.5472" x2="19.806" y2="15.2412" gradientUnits="userSpaceOnUse">
<stop stop-color="#3F3CED" stop-opacity="0"/>
<stop offset="0.2796" stop-color="#3C3DE4" stop-opacity="0.28"/>
<stop offset="0.7305" stop-color="#3541CC" stop-opacity="0.731"/>
<stop offset="1" stop-color="#2F43BB"/>
</linearGradient>
<linearGradient id="paint18_linear_12497_197897" x1="19.8055" y1="11.5472" x2="19.8055" y2="15.2412" gradientUnits="userSpaceOnUse">
<stop stop-color="#3F3CED" stop-opacity="0"/>
<stop offset="0.2796" stop-color="#3C3DE4" stop-opacity="0.28"/>
<stop offset="0.7305" stop-color="#3541CC" stop-opacity="0.731"/>
<stop offset="1" stop-color="#2F43BB"/>
</linearGradient>
<linearGradient id="paint19_linear_12497_197897" x1="19.7953" y1="12.1389" x2="18.9195" y2="10.021" gradientUnits="userSpaceOnUse">
<stop stop-color="white" stop-opacity="0"/>
<stop offset="1" stop-color="white"/>
</linearGradient>
<linearGradient id="paint20_linear_12497_197897" x1="19.8086" y1="9.82203" x2="19.8086" y2="12.0185" gradientUnits="userSpaceOnUse">
<stop stop-color="#E4F2FF"/>
<stop offset="1" stop-color="#B2CBFF"/>
</linearGradient>
<linearGradient id="paint21_linear_12497_197897" x1="19.806" y1="9.85389" x2="19.806" y2="13.5479" gradientUnits="userSpaceOnUse">
<stop stop-color="#3F3CED" stop-opacity="0"/>
<stop offset="0.2796" stop-color="#3C3DE4" stop-opacity="0.28"/>
<stop offset="0.7305" stop-color="#3541CC" stop-opacity="0.731"/>
<stop offset="1" stop-color="#2F43BB"/>
</linearGradient>
<linearGradient id="paint22_linear_12497_197897" x1="19.8055" y1="9.85389" x2="19.8055" y2="13.5479" gradientUnits="userSpaceOnUse">
<stop stop-color="#3F3CED" stop-opacity="0"/>
<stop offset="0.2796" stop-color="#3C3DE4" stop-opacity="0.28"/>
<stop offset="0.7305" stop-color="#3541CC" stop-opacity="0.731"/>
<stop offset="1" stop-color="#2F43BB"/>
</linearGradient>
<linearGradient id="paint23_linear_12497_197897" x1="19.7953" y1="10.4446" x2="18.9195" y2="8.32668" gradientUnits="userSpaceOnUse">
<stop stop-color="white" stop-opacity="0"/>
<stop offset="1" stop-color="white"/>
</linearGradient>
<linearGradient id="paint24_linear_12497_197897" x1="19.8086" y1="8.12671" x2="19.8086" y2="10.3232" gradientUnits="userSpaceOnUse">
<stop stop-color="#E4F2FF"/>
<stop offset="1" stop-color="#B2CBFF"/>
</linearGradient>
<linearGradient id="paint25_linear_12497_197897" x1="19.806" y1="8.15857" x2="19.806" y2="11.8526" gradientUnits="userSpaceOnUse">
<stop stop-color="#3F3CED" stop-opacity="0"/>
<stop offset="0.2796" stop-color="#3C3DE4" stop-opacity="0.28"/>
<stop offset="0.7305" stop-color="#3541CC" stop-opacity="0.731"/>
<stop offset="1" stop-color="#2F43BB"/>
</linearGradient>
<linearGradient id="paint26_linear_12497_197897" x1="19.8055" y1="8.15853" x2="19.8055" y2="11.8526" gradientUnits="userSpaceOnUse">
<stop stop-color="#3F3CED" stop-opacity="0"/>
<stop offset="0.2796" stop-color="#3C3DE4" stop-opacity="0.28"/>
<stop offset="0.7305" stop-color="#3541CC" stop-opacity="0.731"/>
<stop offset="1" stop-color="#2F43BB"/>
</linearGradient>
<linearGradient id="paint27_linear_12497_197897" x1="19.7953" y1="8.7513" x2="18.9195" y2="6.63332" gradientUnits="userSpaceOnUse">
<stop stop-color="white" stop-opacity="0"/>
<stop offset="1" stop-color="white"/>
</linearGradient>
<linearGradient id="paint28_linear_12497_197897" x1="19.8086" y1="6.43336" x2="19.8086" y2="8.62983" gradientUnits="userSpaceOnUse">
<stop stop-color="#E4F2FF"/>
<stop offset="1" stop-color="#B2CBFF"/>
</linearGradient>
<linearGradient id="paint29_linear_12497_197897" x1="19.806" y1="6.46521" x2="19.806" y2="10.1592" gradientUnits="userSpaceOnUse">
<stop stop-color="#3F3CED" stop-opacity="0"/>
<stop offset="0.2796" stop-color="#3C3DE4" stop-opacity="0.28"/>
<stop offset="0.7305" stop-color="#3541CC" stop-opacity="0.731"/>
<stop offset="1" stop-color="#2F43BB"/>
</linearGradient>
<linearGradient id="paint30_linear_12497_197897" x1="19.8055" y1="6.46521" x2="19.8055" y2="10.1592" gradientUnits="userSpaceOnUse">
<stop stop-color="#3F3CED" stop-opacity="0"/>
<stop offset="0.2796" stop-color="#3C3DE4" stop-opacity="0.28"/>
<stop offset="0.7305" stop-color="#3541CC" stop-opacity="0.731"/>
<stop offset="1" stop-color="#2F43BB"/>
</linearGradient>
<linearGradient id="paint31_linear_12497_197897" x1="19.7953" y1="7.05692" x2="18.9195" y2="4.93894" gradientUnits="userSpaceOnUse">
<stop stop-color="white" stop-opacity="0"/>
<stop offset="1" stop-color="white"/>
</linearGradient>
<linearGradient id="paint32_linear_12497_197897" x1="6.3364" y1="17.093" x2="5.82751" y2="32.9543" gradientUnits="userSpaceOnUse">
<stop stop-color="#005A01" stop-opacity="0"/>
<stop offset="1" stop-color="#005A01"/>
</linearGradient>
<linearGradient id="paint33_linear_12497_197897" x1="10.9682" y1="20.2171" x2="13.2303" y2="28.8504" gradientUnits="userSpaceOnUse">
<stop stop-color="#5A0000" stop-opacity="0"/>
<stop offset="1" stop-color="#5A0000"/>
</linearGradient>
<linearGradient id="paint34_linear_12497_197897" x1="17.9673" y1="20.048" x2="17.138" y2="30.6794" gradientUnits="userSpaceOnUse">
<stop stop-color="#005A01" stop-opacity="0"/>
<stop offset="1" stop-color="#005A01"/>
</linearGradient>
<linearGradient id="paint35_linear_12497_197897" x1="11.0681" y1="13.8399" x2="0.436765" y2="-5.16074" gradientUnits="userSpaceOnUse">
<stop stop-color="#F27F7F" stop-opacity="0"/>
<stop offset="1" stop-color="#F582FF"/>
</linearGradient>
<linearGradient id="paint36_linear_12497_197897" x1="18.4842" y1="17.5194" x2="5.01233" y2="9.89665" gradientUnits="userSpaceOnUse">
<stop stop-color="#5A0000" stop-opacity="0"/>
<stop offset="1" stop-color="#5A0000"/>
</linearGradient>
<linearGradient id="paint37_linear_12497_197897" x1="10.628" y1="11.5553" x2="18.0073" y2="17.9167" gradientUnits="userSpaceOnUse">
<stop stop-color="#FFC738"/>
<stop offset="0.1876" stop-color="#FDBF3C"/>
<stop offset="0.4837" stop-color="#F7A848"/>
<stop offset="0.8493" stop-color="#ED835B"/>
<stop offset="1" stop-color="#E97264"/>
</linearGradient>
<linearGradient id="paint38_linear_12497_197897" x1="12.1359" y1="2.06192" x2="15.4911" y2="7.26446" gradientUnits="userSpaceOnUse">
<stop stop-color="#5A0000" stop-opacity="0"/>
<stop offset="1" stop-color="#5A0000"/>
</linearGradient>
<linearGradient id="paint39_linear_12497_197897" x1="12.3018" y1="0.175459" x2="12.4715" y2="1.84365" gradientUnits="userSpaceOnUse">
<stop stop-color="#5A0000" stop-opacity="0"/>
<stop offset="1" stop-color="#5A0000"/>
</linearGradient>
<linearGradient id="paint40_linear_12497_197897" x1="12.1737" y1="4.1253" x2="12.1737" y2="4.92502" gradientUnits="userSpaceOnUse">
<stop stop-color="#FFC738"/>
<stop offset="0.1876" stop-color="#FDBF3C"/>
<stop offset="0.4837" stop-color="#F7A848"/>
<stop offset="0.8493" stop-color="#ED835B"/>
<stop offset="1" stop-color="#E97264"/>
</linearGradient>
<linearGradient id="paint41_linear_12497_197897" x1="11.5525" y1="18.9685" x2="6.57618" y2="18.5538" gradientUnits="userSpaceOnUse">
<stop stop-color="#5A0000" stop-opacity="0"/>
<stop offset="1" stop-color="#5A0000"/>
</linearGradient>
<linearGradient id="paint42_linear_12497_197897" x1="4.19146" y1="22.3406" x2="4.19146" y2="24.5371" gradientUnits="userSpaceOnUse">
<stop stop-color="#FFD945"/>
<stop offset="0.3043" stop-color="#FFCD3E"/>
<stop offset="0.8558" stop-color="#FFAD2B"/>
<stop offset="1" stop-color="#FFA325"/>
</linearGradient>
<linearGradient id="paint43_linear_12497_197897" x1="4.19663" y1="22.3724" x2="4.19663" y2="26.0664" gradientUnits="userSpaceOnUse">
<stop stop-color="#E87264" stop-opacity="0"/>
<stop offset="1" stop-color="#FF7044"/>
</linearGradient>
<linearGradient id="paint44_linear_12497_197897" x1="4.19225" y1="22.3724" x2="4.19225" y2="26.0664" gradientUnits="userSpaceOnUse">
<stop stop-color="#E87264" stop-opacity="0"/>
<stop offset="1" stop-color="#FF7044"/>
</linearGradient>
<linearGradient id="paint45_linear_12497_197897" x1="4.18597" y1="22.9641" x2="3.31016" y2="20.8462" gradientUnits="userSpaceOnUse">
<stop stop-color="#FFD945" stop-opacity="0"/>
<stop offset="1" stop-color="#FBED21"/>
</linearGradient>
<linearGradient id="paint46_linear_12497_197897" x1="4.19146" y1="20.6462" x2="4.19146" y2="22.8427" gradientUnits="userSpaceOnUse">
<stop stop-color="#FFD945"/>
<stop offset="0.3043" stop-color="#FFCD3E"/>
<stop offset="0.8558" stop-color="#FFAD2B"/>
<stop offset="1" stop-color="#FFA325"/>
</linearGradient>
<linearGradient id="paint47_linear_12497_197897" x1="4.19663" y1="20.6782" x2="4.19663" y2="24.3721" gradientUnits="userSpaceOnUse">
<stop stop-color="#E87264" stop-opacity="0"/>
<stop offset="1" stop-color="#FF7044"/>
</linearGradient>
<linearGradient id="paint48_linear_12497_197897" x1="4.19225" y1="20.6781" x2="4.19225" y2="24.3721" gradientUnits="userSpaceOnUse">
<stop stop-color="#E87264" stop-opacity="0"/>
<stop offset="1" stop-color="#FF7044"/>
</linearGradient>
<linearGradient id="paint49_linear_12497_197897" x1="4.18597" y1="21.2708" x2="3.31016" y2="19.1529" gradientUnits="userSpaceOnUse">
<stop stop-color="#FFD945" stop-opacity="0"/>
<stop offset="1" stop-color="#FBED21"/>
</linearGradient>
<linearGradient id="paint50_linear_12497_197897" x1="4.19146" y1="18.9529" x2="4.19146" y2="21.1494" gradientUnits="userSpaceOnUse">
<stop stop-color="#FFD945"/>
<stop offset="0.3043" stop-color="#FFCD3E"/>
<stop offset="0.8558" stop-color="#FFAD2B"/>
<stop offset="1" stop-color="#FFA325"/>
</linearGradient>
<linearGradient id="paint51_linear_12497_197897" x1="4.19663" y1="18.9847" x2="4.19663" y2="22.6787" gradientUnits="userSpaceOnUse">
<stop stop-color="#E87264" stop-opacity="0"/>
<stop offset="1" stop-color="#FF7044"/>
</linearGradient>
<linearGradient id="paint52_linear_12497_197897" x1="4.19225" y1="18.9847" x2="4.19225" y2="22.6787" gradientUnits="userSpaceOnUse">
<stop stop-color="#E87264" stop-opacity="0"/>
<stop offset="1" stop-color="#FF7044"/>
</linearGradient>
<linearGradient id="paint53_linear_12497_197897" x1="4.18597" y1="19.5764" x2="3.31016" y2="17.4585" gradientUnits="userSpaceOnUse">
<stop stop-color="#FFD945" stop-opacity="0"/>
<stop offset="1" stop-color="#FBED21"/>
</linearGradient>
<linearGradient id="paint54_linear_12497_197897" x1="4.19146" y1="17.2586" x2="4.19146" y2="19.4551" gradientUnits="userSpaceOnUse">
<stop stop-color="#FFD945"/>
<stop offset="0.3043" stop-color="#FFCD3E"/>
<stop offset="0.8558" stop-color="#FFAD2B"/>
<stop offset="1" stop-color="#FFA325"/>
</linearGradient>
<linearGradient id="paint55_linear_12497_197897" x1="4.19663" y1="17.2905" x2="4.19663" y2="20.9845" gradientUnits="userSpaceOnUse">
<stop stop-color="#E87264" stop-opacity="0"/>
<stop offset="1" stop-color="#FF7044"/>
</linearGradient>
<linearGradient id="paint56_linear_12497_197897" x1="4.19225" y1="17.2904" x2="4.19225" y2="20.9844" gradientUnits="userSpaceOnUse">
<stop stop-color="#E87264" stop-opacity="0"/>
<stop offset="1" stop-color="#FF7044"/>
</linearGradient>
<linearGradient id="paint57_linear_12497_197897" x1="4.18597" y1="17.8821" x2="3.31016" y2="15.7642" gradientUnits="userSpaceOnUse">
<stop stop-color="#FFD945" stop-opacity="0"/>
<stop offset="1" stop-color="#FBED21"/>
</linearGradient>
<linearGradient id="paint58_linear_12497_197897" x1="4.19146" y1="15.5642" x2="4.19146" y2="17.7607" gradientUnits="userSpaceOnUse">
<stop stop-color="#FFD945"/>
<stop offset="0.3043" stop-color="#FFCD3E"/>
<stop offset="0.8558" stop-color="#FFAD2B"/>
<stop offset="1" stop-color="#FFA325"/>
</linearGradient>
<linearGradient id="paint59_linear_12497_197897" x1="4.19663" y1="15.596" x2="4.19663" y2="19.2901" gradientUnits="userSpaceOnUse">
<stop stop-color="#E87264" stop-opacity="0"/>
<stop offset="1" stop-color="#FF7044"/>
</linearGradient>
<linearGradient id="paint60_linear_12497_197897" x1="4.19225" y1="15.596" x2="4.19225" y2="19.2901" gradientUnits="userSpaceOnUse">
<stop stop-color="#E87264" stop-opacity="0"/>
<stop offset="1" stop-color="#FF7044"/>
</linearGradient>
<linearGradient id="paint61_linear_12497_197897" x1="4.18597" y1="16.1878" x2="3.31016" y2="14.0698" gradientUnits="userSpaceOnUse">
<stop stop-color="#FFD945" stop-opacity="0"/>
<stop offset="1" stop-color="#FBED21"/>
</linearGradient>
<linearGradient id="paint62_linear_12497_197897" x1="4.19146" y1="13.8709" x2="4.19146" y2="16.0673" gradientUnits="userSpaceOnUse">
<stop stop-color="#FFD945"/>
<stop offset="0.3043" stop-color="#FFCD3E"/>
<stop offset="0.8558" stop-color="#FFAD2B"/>
<stop offset="1" stop-color="#FFA325"/>
</linearGradient>
<linearGradient id="paint63_linear_12497_197897" x1="4.19663" y1="13.9027" x2="4.19663" y2="17.5967" gradientUnits="userSpaceOnUse">
<stop stop-color="#E87264" stop-opacity="0"/>
<stop offset="1" stop-color="#FF7044"/>
</linearGradient>
<linearGradient id="paint64_linear_12497_197897" x1="4.19225" y1="13.9027" x2="4.19225" y2="17.5967" gradientUnits="userSpaceOnUse">
<stop stop-color="#E87264" stop-opacity="0"/>
<stop offset="1" stop-color="#FF7044"/>
</linearGradient>
<linearGradient id="paint65_linear_12497_197897" x1="4.18597" y1="14.4934" x2="3.31016" y2="12.3755" gradientUnits="userSpaceOnUse">
<stop stop-color="#FFD945" stop-opacity="0"/>
<stop offset="1" stop-color="#FBED21"/>
</linearGradient>
<linearGradient id="paint66_linear_12497_197897" x1="18.043" y1="22.3406" x2="18.043" y2="24.5371" gradientUnits="userSpaceOnUse">
<stop stop-color="#FFD945"/>
<stop offset="0.3043" stop-color="#FFCD3E"/>
<stop offset="0.8558" stop-color="#FFAD2B"/>
<stop offset="1" stop-color="#FFA325"/>
</linearGradient>
<linearGradient id="paint67_linear_12497_197897" x1="18.0482" y1="22.3724" x2="18.0482" y2="26.0664" gradientUnits="userSpaceOnUse">
<stop stop-color="#E87264" stop-opacity="0"/>
<stop offset="1" stop-color="#FF7044"/>
</linearGradient>
<linearGradient id="paint68_linear_12497_197897" x1="18.0438" y1="22.3724" x2="18.0438" y2="26.0664" gradientUnits="userSpaceOnUse">
<stop stop-color="#E87264" stop-opacity="0"/>
<stop offset="1" stop-color="#FF7044"/>
</linearGradient>
<linearGradient id="paint69_linear_12497_197897" x1="18.0375" y1="22.9641" x2="17.1617" y2="20.8462" gradientUnits="userSpaceOnUse">
<stop stop-color="#FFD945" stop-opacity="0"/>
<stop offset="1" stop-color="#FBED21"/>
</linearGradient>
<linearGradient id="paint70_linear_12497_197897" x1="18.043" y1="20.6462" x2="18.043" y2="22.8427" gradientUnits="userSpaceOnUse">
<stop stop-color="#FFD945"/>
<stop offset="0.3043" stop-color="#FFCD3E"/>
<stop offset="0.8558" stop-color="#FFAD2B"/>
<stop offset="1" stop-color="#FFA325"/>
</linearGradient>
<linearGradient id="paint71_linear_12497_197897" x1="18.0482" y1="20.6782" x2="18.0482" y2="24.3721" gradientUnits="userSpaceOnUse">
<stop stop-color="#E87264" stop-opacity="0"/>
<stop offset="1" stop-color="#FF7044"/>
</linearGradient>
<linearGradient id="paint72_linear_12497_197897" x1="18.0438" y1="20.6781" x2="18.0438" y2="24.3721" gradientUnits="userSpaceOnUse">
<stop stop-color="#E87264" stop-opacity="0"/>
<stop offset="1" stop-color="#FF7044"/>
</linearGradient>
<linearGradient id="paint73_linear_12497_197897" x1="18.0375" y1="21.2708" x2="17.1617" y2="19.1529" gradientUnits="userSpaceOnUse">
<stop stop-color="#FFD945" stop-opacity="0"/>
<stop offset="1" stop-color="#FBED21"/>
</linearGradient>
<linearGradient id="paint74_linear_12497_197897" x1="1.71109" y1="8.72756" x2="3.93404" y2="11.7039" gradientUnits="userSpaceOnUse">
<stop stop-color="#FFD945"/>
<stop offset="0.3043" stop-color="#FFCD3E"/>
<stop offset="0.8558" stop-color="#FFAD2B"/>
<stop offset="1" stop-color="#FFA325"/>
</linearGradient>
<linearGradient id="paint75_linear_12497_197897" x1="5.30548" y1="2.65372" x2="6.87746" y2="4.75848" gradientUnits="userSpaceOnUse">
<stop stop-color="#FFD945"/>
<stop offset="0.3043" stop-color="#FFCD3E"/>
<stop offset="0.8558" stop-color="#FFAD2B"/>
<stop offset="1" stop-color="#FFA325"/>
</linearGradient>
<linearGradient id="paint76_linear_12497_197897" x1="18.8755" y1="3.81465" x2="20.4476" y2="5.9194" gradientUnits="userSpaceOnUse">
<stop stop-color="#FFD945"/>
<stop offset="0.3043" stop-color="#FFCD3E"/>
<stop offset="0.8558" stop-color="#FFAD2B"/>
<stop offset="1" stop-color="#FFA325"/>
</linearGradient>
<clipPath id="clip0_12497_197897">
<rect width="24" height="24" fill="white"/>
</clipPath>
</defs>
</svg>
