<svg width="33" height="32" viewBox="0 0 33 32" fill="none" xmlns="http://www.w3.org/2000/svg">
<path d="M17.8333 9.33333L16.3459 6.35856C15.9178 5.5024 15.7038 5.07431 15.3845 4.76155C15.1021 4.48497 14.7617 4.27463 14.3881 4.14575C13.9655 4 13.4869 4 12.5297 4H7.43329C5.93982 4 5.19308 4 4.62265 4.29065C4.12089 4.54631 3.71294 4.95426 3.45728 5.45603C3.16663 6.02646 3.16663 6.77319 3.16663 8.26667V9.33333M3.16663 9.33333H23.4333C25.6735 9.33333 26.7936 9.33333 27.6493 9.76931C28.4019 10.1528 29.0138 10.7647 29.3973 11.5174C29.8333 12.373 29.8333 13.4931 29.8333 15.7333V21.6C29.8333 23.8402 29.8333 24.9603 29.3973 25.816C29.0138 26.5686 28.4019 27.1805 27.6493 27.564C26.7936 28 25.6735 28 23.4333 28H9.56663C7.32642 28 6.20631 28 5.35066 27.564C4.59802 27.1805 3.98609 26.5686 3.6026 25.816C3.16663 24.9603 3.16663 23.8402 3.16663 21.6V9.33333ZM21.1666 23.3333L19.1666 21.3333M20.5 18C20.5 20.5773 18.4106 22.6667 15.8333 22.6667C13.256 22.6667 11.1666 20.5773 11.1666 18C11.1666 15.4227 13.256 13.3333 15.8333 13.3333C18.4106 13.3333 20.5 15.4227 20.5 18Z" stroke="#6C6F73" stroke-width="2" stroke-linecap="round" stroke-linejoin="round"/>
</svg>
