<svg width="21" height="20" viewBox="0 0 21 20" fill="none" xmlns="http://www.w3.org/2000/svg">
<path opacity="0.4" d="M17.1417 8.3335V15.0002C17.1417 17.5002 16.3083 18.3335 13.8083 18.3335H7.14168C4.64168 18.3335 3.80835 17.5002 3.80835 15.0002V8.3335H17.1417Z" fill="#E1251B"/>
<path d="M18.4167 5.83317V6.6665C18.4167 7.58317 17.975 8.33317 16.75 8.33317H4.25004C2.97504 8.33317 2.58337 7.58317 2.58337 6.6665V5.83317C2.58337 4.9165 2.97504 4.1665 4.25004 4.1665H16.75C17.975 4.1665 18.4167 4.9165 18.4167 5.83317Z" fill="#E1251B"/>
<path opacity="0.4" d="M10.2 4.16686H5.59998C5.31665 3.85853 5.32498 3.38353 5.62498 3.08353L6.80832 1.9002C7.11665 1.59186 7.62498 1.59186 7.93332 1.9002L10.2 4.16686Z" fill="#E1251B"/>
<path opacity="0.4" d="M15.3916 4.16686H10.7916L13.0583 1.9002C13.3666 1.59186 13.875 1.59186 14.1833 1.9002L15.3666 3.08353C15.6666 3.38353 15.675 3.85853 15.3916 4.16686Z" fill="#E1251B"/>
<path opacity="0.6" d="M7.94995 8.3335V12.6168C7.94995 13.2835 8.68328 13.6752 9.24162 13.3168L10.025 12.8002C10.3083 12.6168 10.6666 12.6168 10.9416 12.8002L11.6833 13.3002C12.2333 13.6668 12.975 13.2752 12.975 12.6085V8.3335H7.94995Z" fill="#E1251B"/>
</svg>
