<svg width="20" height="20" viewBox="0 0 20 20" fill="none" xmlns="http://www.w3.org/2000/svg">
<path d="M1.66666 7.49984V5.4165C1.66666 3.3415 3.34166 1.6665 5.41666 1.6665H7.49999" stroke="#1C1C1C" stroke-width="1.2" stroke-linecap="round" stroke-linejoin="round"/>
<path d="M12.5 1.6665H14.5833C16.6583 1.6665 18.3333 3.3415 18.3333 5.4165V7.49984" stroke="#1C1C1C" stroke-width="1.2" stroke-linecap="round" stroke-linejoin="round"/>
<path d="M18.3333 13.3335V14.5835C18.3333 16.6585 16.6583 18.3335 14.5833 18.3335H13.3333" stroke="#1C1C1C" stroke-width="1.2" stroke-linecap="round" stroke-linejoin="round"/>
<path d="M7.49999 18.3333H5.41666C3.34166 18.3333 1.66666 16.6583 1.66666 14.5833V12.5" stroke="#1C1C1C" stroke-width="1.2" stroke-linecap="round" stroke-linejoin="round"/>
<path d="M8.75 5.83301V7.49967C8.75 8.33301 8.33333 8.74967 7.5 8.74967H5.83333C4.99999 8.74967 4.58333 8.33301 4.58333 7.49967V5.83301C4.58333 4.99967 4.99999 4.58301 5.83333 4.58301H7.5C8.33333 4.58301 8.75 4.99967 8.75 5.83301Z" stroke="#1C1C1C" stroke-width="1.2" stroke-linecap="round" stroke-linejoin="round"/>
<path d="M15.4167 5.83301V7.49967C15.4167 8.33301 15 8.74967 14.1667 8.74967H12.5C11.6667 8.74967 11.25 8.33301 11.25 7.49967V5.83301C11.25 4.99967 11.6667 4.58301 12.5 4.58301H14.1667C15 4.58301 15.4167 4.99967 15.4167 5.83301Z" stroke="#1C1C1C" stroke-width="1.2" stroke-linecap="round" stroke-linejoin="round"/>
<path d="M8.75 12.5V14.1667C8.75 15 8.33333 15.4167 7.5 15.4167H5.83333C4.99999 15.4167 4.58333 15 4.58333 14.1667V12.5C4.58333 11.6667 4.99999 11.25 5.83333 11.25H7.5C8.33333 11.25 8.75 11.6667 8.75 12.5Z" stroke="#1C1C1C" stroke-width="1.2" stroke-linecap="round" stroke-linejoin="round"/>
<path d="M15.4167 12.5V14.1667C15.4167 15 15 15.4167 14.1667 15.4167H12.5C11.6667 15.4167 11.25 15 11.25 14.1667V12.5C11.25 11.6667 11.6667 11.25 12.5 11.25H14.1667C15 11.25 15.4167 11.6667 15.4167 12.5Z" stroke="#1C1C1C" stroke-width="1.2" stroke-linecap="round" stroke-linejoin="round"/>
</svg>
