<svg width="32" height="32" viewBox="0 0 32 32" fill="none" xmlns="http://www.w3.org/2000/svg">
<path d="M16 32C24.8366 32 32 24.8366 32 16C32 7.16344 24.8366 0 16 0C7.16344 0 0 7.16344 0 16C0 24.8366 7.16344 32 16 32Z" fill="url(#paint0_linear_5907_8352)"/>
<path d="M8.42175 20.6323C8.5593 20.4959 8.74516 20.4194 8.93886 20.4194H26.8552C26.9282 20.4183 26.9998 20.4391 27.0608 20.4792C27.1218 20.5192 27.1694 20.5766 27.1975 20.644C27.2255 20.7113 27.2328 20.7855 27.2182 20.8571C27.2037 20.9286 27.1681 20.9941 27.1159 21.0451L23.5787 24.5823C23.4406 24.721 23.253 24.7991 23.0573 24.7996H5.14093C5.06801 24.7994 4.99677 24.7777 4.93619 24.7371C4.87562 24.6965 4.82841 24.6389 4.80053 24.5715C4.77265 24.5041 4.76533 24.43 4.77951 24.3584C4.79369 24.2869 4.82873 24.2212 4.8802 24.1695L8.42175 20.6323Z" fill="white"/>
<path d="M8.42175 7.41768C8.56008 7.28246 8.74544 7.20614 8.93886 7.20475H26.8552C26.9282 7.20369 26.9998 7.22452 27.0608 7.26456C27.1218 7.30459 27.1694 7.36199 27.1975 7.42934C27.2255 7.4967 27.2328 7.57092 27.2182 7.64242C27.2037 7.71393 27.1681 7.77944 27.1159 7.8305L23.5787 11.3677C23.4406 11.5064 23.253 11.5845 23.0573 11.585H5.14093C5.06801 11.5848 4.99677 11.563 4.93619 11.5224C4.87562 11.4818 4.82841 11.4242 4.80053 11.3568C4.77265 11.2895 4.76533 11.2153 4.77951 11.1438C4.79369 11.0723 4.82873 11.0065 4.8802 10.9549L8.42175 7.41768Z" fill="white"/>
<path d="M23.5787 13.9837C23.4406 13.845 23.253 13.7669 23.0573 13.7664H5.14093C5.06801 13.7666 4.99677 13.7883 4.93619 13.8289C4.87562 13.8695 4.82841 13.9271 4.80053 13.9945C4.77265 14.0619 4.76533 14.136 4.77951 14.2076C4.79369 14.2791 4.82873 14.3448 4.8802 14.3965L8.42175 17.9337C8.5593 18.0701 8.74516 18.1466 8.93886 18.1466H26.8552C26.9282 18.1477 26.9998 18.1268 27.0608 18.0868C27.1218 18.0468 27.1694 17.9894 27.1975 17.922C27.2255 17.8547 27.2328 17.7804 27.2182 17.7089C27.2037 17.6374 27.1681 17.5719 27.1159 17.5209L23.5787 13.9837Z" fill="white"/>
<defs>
<linearGradient id="paint0_linear_5907_8352" x1="30.0228" y1="1.69907" x2="4.01086" y2="28.2238" gradientUnits="userSpaceOnUse">
<stop stop-color="#00FFA3"/>
<stop offset="1" stop-color="#DC1FFF"/>
</linearGradient>
</defs>
</svg>
