<svg width="265" height="264" viewBox="0 0 265 264" fill="none" xmlns="http://www.w3.org/2000/svg">
<rect x="81.0403" y="24.135" width="123.243" height="238.444" rx="20.1081" fill="white" stroke="#E1251B" stroke-width="1.2973"/>
<path d="M87.2683 45.281C87.2683 37.0415 93.9477 30.362 102.187 30.362H183.139C191.378 30.362 198.058 37.0415 198.058 45.281V241.433C198.058 249.672 191.378 256.351 183.139 256.351H102.187C93.9477 256.351 87.2683 249.672 87.2683 241.433V45.281Z" stroke="#E1251B" stroke-width="1.2973"/>
<path d="M109.452 30.2324L111.179 35.1987C112.63 39.3711 116.564 42.1676 120.981 42.1676H165.381C169.799 42.1676 173.733 39.3711 175.184 35.1987L176.911 30.2324" stroke="#E1251B" stroke-width="1.2973"/>
<rect x="130.208" y="34.9028" width="28.0217" height="2.07568" rx="1.03784" fill="#E1251B"/>
<circle cx="123.981" cy="35.9404" r="2.07568" fill="#E1251B"/>
<circle cx="163.418" cy="35.9407" r="1.03784" fill="#E1251B"/>
<path d="M162.046 60.9887C162.269 59.4185 162.634 59.4185 162.857 60.9887C163.08 62.5589 164.547 64.026 166.117 64.2489C167.687 64.4719 167.687 64.8367 166.117 65.0596C164.547 65.2826 163.08 66.7497 162.857 68.3199C162.634 69.8901 162.269 69.8901 162.046 68.3199C161.823 66.7497 160.356 65.2826 158.786 65.0596C157.216 64.8367 157.216 64.4719 158.786 64.2489C160.356 64.026 161.823 62.5589 162.046 60.9887Z" fill="#E1251B"/>
<path d="M23.2352 144.016C23.4582 142.445 23.823 142.445 24.046 144.016C24.2689 145.586 25.736 147.053 27.3062 147.276C28.8764 147.499 28.8764 147.864 27.3062 148.086C25.736 148.309 24.2689 149.777 24.046 151.347C23.823 152.917 23.4582 152.917 23.2352 151.347C23.0123 149.777 21.5452 148.309 19.975 148.086C18.4048 147.864 18.4048 147.499 19.975 147.276C21.5452 147.053 23.0123 145.586 23.2352 144.016Z" fill="#E1251B"/>
<path d="M167.661 219.027C167.84 217.766 168.133 217.766 168.312 219.027C168.492 220.289 169.67 221.468 170.932 221.647C172.194 221.826 172.194 222.12 170.932 222.299C169.67 222.478 168.492 223.657 168.312 224.919C168.133 226.18 167.84 226.18 167.661 224.919C167.482 223.657 166.303 222.478 165.041 222.299C163.779 222.12 163.779 221.826 165.041 221.647C166.303 221.468 167.482 220.289 167.661 219.027Z" fill="#E1251B"/>
<path d="M235.792 91.6382C232.74 91.6382 230.257 89.1551 230.257 86.1028C230.257 83.0506 232.74 80.5679 235.792 80.5679C238.844 80.5679 241.327 83.0509 241.327 86.1028C241.327 89.1548 238.844 91.6382 235.792 91.6382ZM235.792 81.8964C233.473 81.8964 231.586 83.7836 231.586 86.1028C231.586 88.4221 233.473 90.3096 235.792 90.3096C238.112 90.3096 239.999 88.4225 239.999 86.1028C239.999 83.7832 238.112 81.8964 235.792 81.8964Z" fill="#E1251B"/>
<path d="M20.7434 59.8107C18.9551 59.8107 17.5 58.3558 17.5 56.5674C17.5 54.7789 18.9551 53.3242 20.7434 53.3242C22.5316 53.3242 23.9865 54.7791 23.9865 56.5674C23.9865 58.3556 22.5316 59.8107 20.7434 59.8107ZM20.7434 54.1027C19.3842 54.1027 18.2784 55.2084 18.2784 56.5674C18.2784 57.9263 19.3842 59.0323 20.7434 59.0323C22.1025 59.0323 23.2081 57.9265 23.2081 56.5674C23.2081 55.2082 22.1023 54.1027 20.7434 54.1027Z" fill="#E1251B"/>
<path d="M222.99 18.5141C223.276 16.4953 223.745 16.4953 224.032 18.5141C224.319 20.5329 226.205 22.4192 228.224 22.7059C230.243 22.9925 230.243 23.4615 228.224 23.7482C226.205 24.0349 224.319 25.9211 224.032 27.94C223.745 29.9588 223.276 29.9588 222.99 27.94C222.703 25.9211 220.817 24.0349 218.798 23.7482C216.779 23.4615 216.779 22.9925 218.798 22.7059C220.817 22.4192 222.703 20.5329 222.99 18.5141Z" fill="#E1251B"/>
<path d="M229.476 235.163C229.763 233.144 230.232 233.144 230.519 235.163C230.805 237.182 232.692 239.068 234.71 239.355C236.729 239.641 236.729 240.11 234.71 240.397C232.692 240.684 230.805 242.57 230.519 244.589C230.232 246.608 229.763 246.608 229.476 244.589C229.19 242.57 227.303 240.684 225.285 240.397C223.266 240.11 223.266 239.641 225.285 239.355C227.303 239.068 229.19 237.182 229.476 235.163Z" fill="#E1251B"/>
<path d="M150.28 136.11L149.798 136.611L150.28 136.11C149.253 135.12 148.519 134.412 148.001 133.807C147.49 133.21 147.24 132.769 147.133 132.333C146.998 131.787 146.998 131.217 147.133 130.672C147.24 130.236 147.49 129.795 148.001 129.198C148.519 128.593 149.253 127.884 150.28 126.895L149.798 126.394L150.28 126.895L150.496 126.687C150.533 126.651 150.57 126.616 150.606 126.581C151.73 125.499 152.436 124.819 152.822 123.965C153.039 123.483 153.177 122.968 153.23 122.442C153.322 121.51 153.051 120.568 152.619 119.069C152.605 119.02 152.591 118.971 152.576 118.922L152.494 118.634C152.099 117.263 151.817 116.283 151.671 115.5C151.527 114.727 151.531 114.221 151.656 113.789C151.813 113.25 152.098 112.756 152.487 112.351C152.798 112.027 153.234 111.77 153.976 111.508C154.727 111.243 155.717 110.997 157.101 110.653L157.392 110.581C157.442 110.569 157.491 110.557 157.54 110.544C159.055 110.169 160.006 109.933 160.767 109.387C161.197 109.078 161.573 108.702 161.882 108.272C162.428 107.511 162.664 106.559 163.04 105.045C163.052 104.996 163.064 104.947 163.076 104.897L163.148 104.606C163.492 103.222 163.738 102.232 164.003 101.481C164.265 100.739 164.522 100.303 164.846 99.9919C165.251 99.6028 165.745 99.3178 166.284 99.1612C166.716 99.0361 167.222 99.0321 167.995 99.1761C168.778 99.322 169.759 99.6036 171.129 99.9984L171.417 100.081C171.466 100.096 171.515 100.11 171.564 100.124C173.063 100.556 174.005 100.827 174.937 100.735C175.464 100.682 175.978 100.544 176.46 100.326C177.314 99.9406 177.994 99.2345 179.076 98.1106C179.111 98.0744 179.146 98.0377 179.182 98.0006L179.39 97.785C180.38 96.7577 181.088 96.0236 181.693 95.5058C182.29 94.9946 182.731 94.7448 183.167 94.6376C183.713 94.5034 184.283 94.5034 184.828 94.6376C185.264 94.7448 185.705 94.9946 186.302 95.5058C186.907 96.0236 187.616 96.7577 188.605 97.785L188.813 98.0006L189.314 97.5181L188.813 98.0006C188.849 98.0377 188.884 98.0744 188.919 98.1106C190.001 99.2345 190.681 99.9406 191.535 100.326C192.017 100.544 192.532 100.682 193.058 100.735C193.99 100.827 194.932 100.556 196.431 100.124C196.48 100.11 196.529 100.096 196.578 100.081L196.866 99.9984C198.237 99.6036 199.217 99.322 200 99.1761C200.773 99.0321 201.279 99.0361 201.711 99.1612C202.25 99.3178 202.744 99.6028 203.149 99.9919C203.473 100.303 203.73 100.739 203.992 101.481C204.257 102.232 204.503 103.222 204.847 104.606L204.919 104.897C204.931 104.947 204.943 104.996 204.956 105.045C205.331 106.559 205.567 107.511 206.113 108.272C206.422 108.702 206.798 109.078 207.228 109.387C207.989 109.933 208.941 110.169 210.455 110.544C210.504 110.557 210.553 110.569 210.603 110.581L210.894 110.653C212.278 110.997 213.268 111.243 214.019 111.508C214.761 111.77 215.197 112.027 215.508 112.351C215.897 112.756 216.182 113.25 216.339 113.789C216.464 114.221 216.468 114.727 216.324 115.5C216.178 116.283 215.896 117.263 215.502 118.634L215.419 118.922L215.376 119.069C214.944 120.568 214.673 121.51 214.765 122.442C214.818 122.968 214.956 123.483 215.174 123.965C215.559 124.819 216.265 125.499 217.389 126.581L217.499 126.687L217.715 126.895C218.742 127.884 219.476 128.593 219.994 129.198C220.505 129.795 220.755 130.236 220.862 130.672C220.997 131.217 220.997 131.787 220.862 132.333C220.755 132.769 220.505 133.21 219.994 133.807C219.476 134.412 218.742 135.12 217.715 136.11L217.499 136.318C217.462 136.354 217.426 136.389 217.389 136.424C216.266 137.506 215.559 138.186 215.174 139.04C214.956 139.522 214.818 140.036 214.765 140.563C214.673 141.495 214.944 142.437 215.376 143.936L215.419 144.083L215.502 144.371C215.896 145.741 216.178 146.722 216.324 147.505C216.468 148.278 216.464 148.784 216.339 149.216C216.182 149.755 215.897 150.249 215.508 150.654C215.197 150.978 214.761 151.235 214.019 151.497C213.268 151.762 212.278 152.008 210.894 152.352L210.603 152.424C210.553 152.436 210.504 152.448 210.455 152.46C208.941 152.836 207.989 153.072 207.228 153.618C206.798 153.927 206.422 154.303 206.113 154.733C205.567 155.494 205.331 156.445 204.956 157.96C204.943 158.009 204.931 158.058 204.919 158.108L204.847 158.399C204.503 159.783 204.257 160.773 203.992 161.524C203.73 162.266 203.473 162.702 203.149 163.013C202.744 163.402 202.25 163.687 201.711 163.844C201.279 163.969 200.773 163.973 200 163.829C199.217 163.683 198.237 163.401 196.866 163.006L196.578 162.924L196.431 162.881C194.932 162.449 193.99 162.178 193.058 162.27C192.532 162.323 192.017 162.461 191.535 162.678C190.681 163.064 190.001 163.77 188.919 164.894C188.884 164.93 188.849 164.967 188.813 165.004L188.605 165.22C187.616 166.247 186.907 166.981 186.302 167.499C185.705 168.01 185.264 168.26 184.828 168.367C184.283 168.502 183.713 168.502 183.167 168.367C182.731 168.26 182.29 168.01 181.693 167.499C181.088 166.981 180.38 166.247 179.39 165.22L179.182 165.004L179.076 164.894C177.994 163.77 177.314 163.064 176.46 162.678C175.978 162.461 175.464 162.323 174.937 162.27C174.005 162.178 173.063 162.449 171.564 162.881L171.417 162.924L171.129 163.006C169.759 163.401 168.778 163.683 167.995 163.829C167.222 163.973 166.716 163.969 166.284 163.844C165.745 163.687 165.251 163.402 164.846 163.013C164.522 162.702 164.265 162.266 164.003 161.524C163.738 160.773 163.492 159.783 163.148 158.399L163.076 158.108C163.064 158.058 163.052 158.009 163.04 157.96C162.664 156.445 162.428 155.494 161.882 154.733C161.573 154.303 161.197 153.927 160.767 153.618C160.006 153.072 159.055 152.836 157.54 152.46C157.491 152.448 157.442 152.436 157.392 152.424L157.101 152.352C155.717 152.008 154.727 151.762 153.976 151.497C153.234 151.235 152.798 150.978 152.487 150.654C152.098 150.249 151.813 149.755 151.656 149.216C151.531 148.784 151.527 148.278 151.671 147.505C151.817 146.722 152.099 145.741 152.494 144.371L152.576 144.083C152.591 144.034 152.605 143.985 152.619 143.936C153.051 142.437 153.322 141.495 153.23 140.563C153.177 140.036 153.039 139.522 152.822 139.04C152.436 138.186 151.73 137.506 150.606 136.424C150.57 136.389 150.533 136.354 150.496 136.318L150.28 136.11Z" fill="white" stroke="#E1251B" stroke-width="1.39093"/>
<path d="M185.411 100.812L185.693 100.176L185.411 100.812C185.687 100.934 185.977 101.136 186.379 101.501C186.786 101.871 187.27 102.372 187.946 103.074L188.018 103.149C188.759 103.919 189.224 104.401 189.77 104.731C190.558 105.208 191.466 105.451 192.387 105.432C193.025 105.419 193.668 105.234 194.695 104.938L194.795 104.909C195.731 104.64 196.401 104.447 196.938 104.331C197.469 104.215 197.821 104.186 198.122 104.217C199.1 104.321 199.988 104.834 200.567 105.629C200.745 105.873 200.895 106.193 201.061 106.711C201.228 107.234 201.397 107.91 201.631 108.856L201.656 108.957C201.913 109.994 202.074 110.644 202.382 111.203L202.992 110.868L202.382 111.203C202.827 112.01 203.491 112.675 204.298 113.119C204.857 113.427 205.507 113.588 206.544 113.845L206.646 113.87C207.591 114.105 208.267 114.273 208.79 114.44C209.308 114.606 209.628 114.757 209.872 114.934C210.667 115.513 211.18 116.402 211.284 117.38C211.316 117.68 211.286 118.032 211.171 118.563C211.054 119.101 210.862 119.77 210.592 120.706L210.563 120.806C210.267 121.833 210.082 122.477 210.069 123.115C210.05 124.036 210.294 124.943 210.77 125.731C211.1 126.278 211.583 126.742 212.352 127.483L212.428 127.556C213.129 128.232 213.63 128.715 214 129.122C214.366 129.524 214.567 129.815 214.69 130.09C215.089 130.989 215.089 132.015 214.69 132.914C214.567 133.19 214.366 133.48 214 133.883C213.63 134.29 213.129 134.773 212.428 135.449L212.352 135.522C211.583 136.263 211.1 136.727 210.77 137.273C210.294 138.062 210.05 138.969 210.069 139.89C210.082 140.528 210.267 141.172 210.563 142.198L210.592 142.299C210.862 143.235 211.054 143.904 211.171 144.441C211.286 144.973 211.316 145.325 211.284 145.625C211.18 146.603 210.667 147.492 209.872 148.071C209.628 148.248 209.308 148.399 208.79 148.564C208.267 148.732 207.591 148.9 206.646 149.134L206.544 149.16C205.507 149.417 204.857 149.578 204.298 149.886C203.491 150.33 202.827 150.994 202.382 151.801C202.074 152.36 201.913 153.011 201.656 154.047L201.631 154.149C201.397 155.094 201.228 155.77 201.061 156.294C200.895 156.812 200.745 157.131 200.567 157.375C199.988 158.171 199.1 158.684 198.122 158.787C197.821 158.819 197.469 158.79 196.938 158.674C196.401 158.558 195.731 158.365 194.795 158.096L194.695 158.067C193.668 157.771 193.025 157.585 192.387 157.572C191.466 157.554 190.558 157.797 189.77 158.274C189.224 158.604 188.759 159.086 188.018 159.856L187.946 159.931C187.27 160.632 186.786 161.134 186.379 161.503C185.977 161.869 185.687 162.071 185.411 162.193C184.512 162.593 183.486 162.593 182.587 162.193C182.311 162.071 182.021 161.869 181.618 161.503C181.212 161.134 180.728 160.632 180.052 159.931L179.98 159.856C179.239 159.086 178.774 158.604 178.228 158.274C177.44 157.797 176.532 157.554 175.611 157.572C174.973 157.585 174.33 157.771 173.303 158.067L173.203 158.096C172.267 158.365 171.597 158.558 171.06 158.674C170.529 158.79 170.176 158.819 169.876 158.787C168.898 158.684 168.01 158.171 167.431 157.375C167.253 157.131 167.103 156.812 166.937 156.294C166.769 155.77 166.601 155.094 166.367 154.149L166.342 154.047C166.085 153.011 165.923 152.36 165.616 151.801C165.171 150.994 164.507 150.33 163.7 149.886L163.364 150.495L163.7 149.886C163.141 149.578 162.491 149.417 161.454 149.16L161.352 149.134C160.407 148.9 159.731 148.732 159.208 148.564C158.69 148.399 158.37 148.248 158.126 148.071C157.331 147.492 156.818 146.603 156.714 145.625C156.682 145.325 156.712 144.973 156.827 144.441C156.944 143.904 157.136 143.235 157.406 142.299L157.435 142.198C157.731 141.172 157.916 140.528 157.929 139.89C157.948 138.969 157.704 138.062 157.228 137.273C156.898 136.727 156.415 136.263 155.646 135.522L155.57 135.449C154.869 134.773 154.368 134.29 153.998 133.883C153.632 133.48 153.431 133.19 153.308 132.914L152.673 133.197L153.308 132.914C152.909 132.015 152.909 130.989 153.308 130.09C153.431 129.815 153.632 129.524 153.998 129.122C154.368 128.715 154.869 128.232 155.57 127.556C155.596 127.531 155.621 127.507 155.646 127.483C156.415 126.742 156.898 126.278 157.228 125.731C157.704 124.943 157.948 124.036 157.929 123.115C157.916 122.477 157.731 121.833 157.435 120.806C157.425 120.773 157.416 120.74 157.406 120.706C157.136 119.77 156.944 119.101 156.827 118.563C156.712 118.032 156.682 117.68 156.714 117.38C156.818 116.402 157.331 115.513 158.126 114.934C158.37 114.757 158.69 114.606 159.208 114.44C159.731 114.273 160.407 114.105 161.352 113.87C161.387 113.862 161.42 113.853 161.454 113.845C162.491 113.588 163.141 113.427 163.7 113.119C164.507 112.675 165.171 112.01 165.616 111.203C165.923 110.644 166.085 109.994 166.342 108.957C166.35 108.924 166.358 108.89 166.367 108.856C166.601 107.91 166.769 107.234 166.937 106.711C167.103 106.193 167.253 105.873 167.431 105.629C168.01 104.834 168.898 104.321 169.876 104.217C170.176 104.186 170.529 104.215 171.06 104.331C171.597 104.447 172.267 104.64 173.203 104.909C173.236 104.919 173.27 104.929 173.303 104.938C174.33 105.234 174.973 105.419 175.611 105.432C176.532 105.451 177.44 105.208 178.228 104.731C178.774 104.401 179.239 103.919 179.98 103.149C180.004 103.124 180.028 103.099 180.052 103.074C180.728 102.372 181.212 101.871 181.618 101.501C182.021 101.136 182.311 100.934 182.587 100.812C183.486 100.412 184.512 100.412 185.411 100.812Z" fill="#E1251B" stroke="white" stroke-width="1.39093"/>
<rect x="168" y="134.081" width="5.58224" height="16.2815" rx="2.79112" transform="rotate(-45 168 134.081)" fill="white"/>
<rect x="195.319" y="122" width="5.5821" height="27.9105" rx="2.79105" transform="rotate(45 195.319 122)" fill="white"/>
<path d="M232.615 194.327C238.682 194.997 244.144 190.619 244.814 184.549C245.485 178.478 241.11 173.014 235.043 172.344C228.976 171.674 223.514 176.052 222.843 182.122C222.173 188.193 226.548 193.657 232.615 194.327Z" fill="white"/>
<path d="M232.602 194.446C232.446 194.429 232.291 194.408 232.135 194.384C230.657 194.158 229.257 193.642 227.973 192.851C226.689 192.06 225.599 191.041 224.732 189.823C223.895 188.646 223.3 187.333 222.965 185.921C222.629 184.509 222.57 183.069 222.789 181.641C223.015 180.162 223.531 178.761 224.321 177.477C225.112 176.192 226.131 175.101 227.349 174.233C228.525 173.395 229.837 172.8 231.248 172.465C232.659 172.129 234.099 172.07 235.526 172.288C237.004 172.514 238.404 173.03 239.688 173.821C240.972 174.612 242.062 175.631 242.929 176.849C243.766 178.026 244.361 179.339 244.696 180.751C245.032 182.163 245.091 183.603 244.872 185.031C244.646 186.51 244.13 187.911 243.34 189.196L243.241 189.135L243.34 189.196C242.549 190.48 241.53 191.571 240.312 192.439C239.136 193.277 237.824 193.872 236.413 194.208C235.155 194.507 233.876 194.586 232.602 194.446L232.602 194.446ZM235.04 172.455C233.806 172.319 232.545 172.395 231.302 172.691C228.46 173.367 226.051 175.11 224.519 177.599C221.356 182.736 222.961 189.49 228.095 192.653C230.582 194.186 233.517 194.658 236.359 193.981C239.201 193.305 241.61 191.562 243.142 189.074C244.674 186.585 245.146 183.648 244.47 180.805C243.795 177.961 242.053 175.551 239.566 174.019C238.167 173.157 236.626 172.63 235.04 172.455L235.04 172.455Z" fill="#E1251B"/>
<path d="M232.669 193.155C231.235 192.997 229.842 192.521 228.578 191.742C226.33 190.357 224.756 188.179 224.145 185.609C223.535 183.039 223.961 180.385 225.346 178.136C226.731 175.887 228.908 174.312 231.476 173.701C234.045 173.09 236.697 173.516 238.945 174.901C241.193 176.286 242.767 178.464 243.377 181.034C243.988 183.604 243.561 186.258 242.177 188.507C240.792 190.756 238.615 192.331 236.046 192.942C234.923 193.21 233.783 193.278 232.669 193.155ZM234.836 173.725C231.241 173.328 227.563 174.977 225.544 178.258C224.192 180.454 223.775 183.046 224.371 185.555C224.967 188.065 226.504 190.192 228.699 191.544C230.894 192.897 233.485 193.313 235.993 192.716C238.501 192.12 240.627 190.581 241.979 188.385C244.77 183.851 243.354 177.891 238.823 175.099C237.571 174.327 236.209 173.877 234.836 173.725Z" fill="#E1251B"/>
<path d="M234.836 173.725C231.241 173.328 227.563 174.977 225.544 178.258C224.192 180.454 223.775 183.046 224.371 185.555C224.967 188.065 226.504 190.192 228.699 191.544C230.894 192.897 233.485 193.313 235.993 192.716C238.501 192.12 240.627 190.581 241.979 188.385C244.77 183.851 243.354 177.891 238.823 175.099C237.571 174.327 236.209 173.877 234.836 173.725Z" fill="#E1251B"/>
<path d="M236.196 180.136C236.766 180.492 237.246 180.916 237.637 181.41L236.984 182.469L236.499 182.17C236.594 181.818 236.596 181.511 236.504 181.25C236.413 180.988 236.222 180.761 235.93 180.568L234.478 182.927C234.801 183.428 235.023 183.836 235.145 184.15C235.267 184.464 235.323 184.765 235.313 185.052C235.303 185.339 235.21 185.627 235.033 185.914C234.704 186.447 234.303 186.767 233.827 186.873C233.352 186.979 232.809 186.876 232.199 186.563L231.637 187.476L231.128 187.162L231.683 186.259C231.396 186.073 231.108 185.848 230.818 185.584C230.527 185.319 230.292 185.07 230.111 184.837L230.775 183.758L231.265 184.06C231.137 184.445 231.125 184.777 231.23 185.056C231.336 185.336 231.572 185.597 231.94 185.842L233.504 183.301L233.418 183.167C233.116 182.697 232.911 182.321 232.8 182.039C232.69 181.757 232.639 181.485 232.646 181.224C232.654 180.962 232.737 180.702 232.896 180.444C233.049 180.196 233.232 180.001 233.444 179.861C233.657 179.722 233.885 179.63 234.13 179.587C234.375 179.544 234.63 179.547 234.893 179.594C235.157 179.642 235.415 179.728 235.668 179.852L236.245 178.915L236.755 179.229L236.196 180.136L236.196 180.136ZM233.896 183.807L232.459 186.142C232.783 186.296 233.084 186.33 233.364 186.242C233.643 186.155 233.88 185.953 234.075 185.636C234.248 185.354 234.319 185.071 234.287 184.785C234.256 184.5 234.125 184.174 233.896 183.807ZM234.089 182.417L235.411 180.268C235.108 180.131 234.816 180.099 234.535 180.171C234.253 180.244 234.031 180.413 233.868 180.678C233.705 180.942 233.642 181.207 233.68 181.472C233.718 181.736 233.854 182.051 234.089 182.417L234.089 182.417Z" fill="white"/>
<path d="M67.4017 94.0336C71.6637 97.9878 71.9149 104.646 67.9634 108.905C64.0119 113.164 57.3535 113.412 53.0914 109.458C48.8293 105.504 48.5782 98.8456 52.5297 94.5865C56.4812 90.3273 63.1396 90.0794 67.4017 94.0336Z" fill="white" stroke="#E1251B"/>
<path d="M52.3331 93.756L52.3331 93.756L68.0887 109.665L68.1591 109.736C68.1591 109.736 68.1591 109.736 68.1591 109.736C68.2717 109.624 68.3816 109.511 68.489 109.395L68.489 109.395C69.3658 108.45 70.068 107.368 70.5795 106.173L70.4875 106.133L70.5795 106.173C71.1536 104.831 71.4588 103.414 71.4865 101.961C71.5145 100.49 71.2553 99.0449 70.716 97.6645L70.7164 97.6644L70.6793 97.5717C70.6792 97.5716 70.6792 97.5716 70.6792 97.5715C70.6791 97.5714 70.6791 97.5713 70.6791 97.5713L70.642 97.4787L70.6416 97.4789C70.0786 96.1079 69.2682 94.8832 68.232 93.8378C67.2087 92.8054 66.0092 91.9904 64.6674 91.4156C63.3255 90.8407 61.9082 90.5347 60.4553 90.5062C58.9509 90.4767 57.4739 90.7475 56.0657 91.311C54.6575 91.8744 53.4015 92.6971 52.3331 93.756ZM52.3051 94.4021L52.3218 94.384C53.394 93.2284 54.7184 92.3151 56.2262 91.7118C58.9061 90.6396 61.8432 90.6753 64.4975 91.8124C67.1518 92.9495 69.2046 95.0515 70.2785 97.7319C71.3523 100.412 71.3182 103.349 70.1826 106.003C69.0469 108.656 66.946 110.708 64.2661 111.78C58.7344 113.993 52.4304 111.293 50.2138 105.76C49.14 103.08 49.1741 100.143 50.3097 97.4891C50.8032 96.3359 51.479 95.2967 52.3051 94.4021Z" fill="#E1251B" stroke="#E1251B" stroke-width="0.2"/>
<path d="M51.4891 105.276C50.0978 101.803 50.9377 97.9804 53.3277 95.4042C54.24 94.4209 55.3785 93.6192 56.7051 93.0884C61.504 91.1683 66.9733 93.5113 68.8963 98.3113C69.8281 100.637 69.7985 103.184 68.8132 105.487C67.8278 107.789 66.0056 109.568 63.6803 110.499C61.3551 111.429 58.8076 111.398 56.5045 110.412C54.2014 109.425 52.4208 107.602 51.4891 105.276Z" stroke="#E1251B" stroke-width="0.5"/>
<path d="M57.9234 100.769C58.0571 100.944 58.2233 101.091 58.4242 101.199C58.4719 101.225 58.5215 101.249 58.573 101.271C58.4071 101.212 58.2709 101.136 58.1591 101.048L58.1589 101.048C58.072 100.979 57.9924 100.889 57.9234 100.769ZM61.9289 101.809C61.9074 101.797 61.8855 101.784 61.8633 101.773C61.9885 101.83 62.0962 101.896 62.1885 101.969C62.2909 102.051 62.3844 102.159 62.4653 102.302C62.3237 102.103 62.1457 101.936 61.9291 101.809L61.9289 101.809Z" fill="#E1251B" stroke="#E1251B"/>
<path d="M108.5 206.5L96 196H35.5L22.5 206.5L66 230.5L104.5 262L108.5 206.5Z" fill="white"/>
<path d="M64.9167 227.943C65.1004 227.759 65.4676 227.759 65.6512 227.759C65.8349 227.759 66.2021 227.759 66.3858 227.943L73.4372 233.636L93.3059 217.843V171.385H82.9125C82.3616 171.385 81.7923 170.834 81.7923 170.283V160H42.2201C39.6125 160 37.5742 162.02 37.5742 164.591V217.476L57.8286 233.636L64.88 227.943H64.9167ZM44.497 168.08C44.497 167.529 45.0479 166.978 45.6172 166.978H59.5547C60.1056 166.978 60.6749 167.529 60.6749 168.08V181.852C60.6749 182.403 60.124 182.954 59.5547 182.954H45.6172C45.0663 182.954 44.497 182.403 44.497 181.852V168.08ZM45.5988 189.748H61.9419C62.4928 189.748 63.062 190.299 63.062 190.85C63.062 191.401 62.5112 191.952 61.9419 191.952H45.5988C45.048 191.952 44.4787 191.401 44.4787 190.85C44.4787 190.299 45.0296 189.748 45.5988 189.748ZM45.5988 196.726H75.8794C76.4303 196.726 76.9996 197.277 76.9996 197.828C76.9996 198.379 76.4487 198.929 75.8794 198.929H45.5988C45.048 198.929 44.4787 198.379 44.4787 197.828C44.4787 197.277 45.0296 196.726 45.5988 196.726ZM44.497 204.806C44.497 204.255 45.0479 203.704 45.6172 203.704H82.7656C83.3165 203.704 83.8857 204.255 83.8857 204.806C83.8857 205.357 83.3348 205.907 82.7656 205.907H45.6172C45.0663 205.907 44.497 205.357 44.497 204.806ZM53.7704 211.6C53.7704 211.049 54.3213 210.498 54.8905 210.498H71.2336C71.7845 210.498 72.3537 211.049 72.3537 211.6C72.3537 212.151 71.8028 212.702 71.2336 212.702H54.8905C54.3396 212.702 53.7704 212.151 53.7704 211.6Z" fill="white" stroke="#E1251B" stroke-width="1.3" stroke-linejoin="round"/>
<path d="M26.6461 208.664L29.9882 211.234L35.3685 215.458V196.177L26.8298 203.155C25.8932 203.889 25.526 204.807 25.526 205.909C25.1587 207.011 25.7096 207.929 26.6461 208.664Z" fill="#E1251B"/>
<path d="M105.976 205.908C105.976 204.806 105.425 203.705 104.672 203.154L95.5645 195.809V216.008L104.672 208.663C105.609 207.928 105.976 207.01 105.976 205.908Z" fill="#E1251B"/>
<path d="M35.5704 218.946L28.317 213.07C27.1968 212.151 25.7094 211.968 24.424 212.702C23.1203 213.253 22.3857 214.539 22.3857 216.008V254.386C22.3857 256.039 23.6895 257.141 24.9933 257.692C26.4807 258.426 28.1517 258.426 29.2719 257.692C29.6391 256.59 30.2084 255.672 31.1265 254.937L55.8248 235.105L35.5704 218.946Z" fill="#E1251B"/>
<path d="M84.0488 161.652V169.181H91.6695L84.0488 161.652Z" fill="white" stroke="#E1251B" stroke-width="1.3" stroke-linejoin="round"/>
<path d="M106.71 212.701C105.406 212.15 103.918 212.334 102.817 213.068L95.0123 219.312L75.1436 235.104L99.8418 254.936C100.576 255.487 101.146 256.222 101.513 256.956C101.513 256.956 101.696 256.956 101.696 257.14C103.184 258.241 105.039 258.058 106.526 257.507C108.013 256.772 108.748 255.671 108.748 254.385V215.823C108.931 214.537 108.013 213.252 106.71 212.701Z" fill="#E1251B"/>
<path d="M98.5382 256.773L72.7199 236.023L65.6685 230.33L58.4335 236.023L32.6151 256.773C31.1277 258.058 30.944 259.711 31.4949 260.813C31.8622 261.914 32.9823 263.2 35.0206 263.2H96.3163C98.171 263.2 99.4747 261.914 99.842 260.813C100.209 259.711 100.209 257.875 98.5382 256.773Z" fill="white"/>
<path d="M98.5382 256.773L72.7199 236.023L65.6685 230.33L58.4335 236.023L32.6151 256.773C31.1277 258.058 30.944 259.711 31.4949 260.813C31.8622 261.914 32.9823 263.2 35.0206 263.2H96.3163C98.171 263.2 99.4747 261.914 99.842 260.813C100.209 259.711 100.209 257.875 98.5382 256.773ZM50.2435 257.599C50.2435 258.867 49.2159 259.894 47.9482 259.894H47.8931C46.6254 259.894 45.5977 258.867 45.5977 257.599C45.5977 256.331 46.6254 255.304 47.8931 255.304H47.9482C49.2159 255.304 50.2435 256.331 50.2435 257.599ZM57.3133 257.599C57.3133 258.867 56.2856 259.894 55.0179 259.894H54.9628C53.6951 259.894 52.6675 258.867 52.6675 257.599C52.6675 256.331 53.6951 255.304 54.9628 255.304H55.0179C56.2856 255.304 57.3133 256.331 57.3133 257.599ZM64.1811 257.599C64.1811 258.867 63.1534 259.894 61.8857 259.894H61.8306C60.5629 259.894 59.5352 258.867 59.5352 257.599C59.5352 256.331 60.5629 255.304 61.8306 255.304H61.8857C63.1534 255.304 64.1811 256.331 64.1811 257.599ZM71.2325 257.599C71.2325 258.867 70.2048 259.894 68.9371 259.894H68.882C67.6143 259.894 66.5866 258.867 66.5866 257.599C66.5866 256.331 67.6143 255.304 68.882 255.304H68.9371C70.2048 255.304 71.2325 256.331 71.2325 257.599ZM78.1002 257.599C78.1002 258.867 77.0725 259.894 75.8048 259.894H75.7497C74.482 259.894 73.4544 258.867 73.4544 257.599C73.4544 256.331 74.482 255.304 75.7497 255.304H75.8048C77.0725 255.304 78.1002 256.331 78.1002 257.599ZM85.17 257.599C85.17 258.867 84.1423 259.894 82.8746 259.894H82.8195C81.5518 259.894 80.5241 258.867 80.5241 257.599C80.5241 256.331 81.5518 255.304 82.8195 255.304H82.8746C84.1423 255.304 85.17 256.331 85.17 257.599Z" fill="#E1251B"/>
</svg>
