<svg width="48" height="55" viewBox="0 0 48 55" fill="none" xmlns="http://www.w3.org/2000/svg">
<path d="M43.5 28.8124V13.8499C43.5 9.43946 43.5 7.23426 42.6417 5.5497C41.8867 4.06793 40.6819 2.8632 39.2002 2.1082C37.5156 1.24988 35.3104 1.24988 30.9 1.24988H14.1C9.68959 1.24988 7.48438 1.24988 5.79982 2.1082C4.31805 2.8632 3.11333 4.06793 2.35832 5.5497C1.5 7.23426 1.5 9.43946 1.5 13.8499V41.1499C1.5 45.5603 1.5 47.7655 2.35832 49.4501C3.11333 50.9318 4.31805 52.1365 5.79982 52.8916C7.48438 53.7499 9.68959 53.7499 14.1 53.7499H22.5M27.75 24.8749H12M17.25 35.3749H12M33 14.3749H12M29.0625 45.8749L34.3125 51.1249L46.125 39.3124" stroke="currentColor" stroke-width="2" stroke-linecap="round" stroke-linejoin="round"/>
</svg>
