<svg width="14" height="14" viewBox="0 0 14 14" fill="none" xmlns="http://www.w3.org/2000/svg">
<path d="M12.577 6.26488L11.7895 5.34322C11.6437 5.16822 11.5212 4.84155 11.5212 4.60822V3.61655C11.5212 2.99822 11.0137 2.49072 10.3953 2.49072H9.40367C9.17034 2.49072 8.83784 2.36822 8.66284 2.22238L7.74117 1.43488C7.33867 1.09072 6.67951 1.09072 6.27701 1.43488L5.34367 2.22238C5.16867 2.36822 4.84201 2.49072 4.60867 2.49072H3.59951C2.98117 2.49072 2.47367 2.99822 2.47367 3.61655V4.60822C2.47367 4.83572 2.35701 5.16238 2.21117 5.33738L1.42367 6.26488C1.08534 6.67322 1.08534 7.32655 1.42367 7.72322L2.21117 8.65072C2.35701 8.81988 2.47367 9.15238 2.47367 9.37988V10.3774C2.47367 10.9957 2.98117 11.5032 3.59951 11.5032H4.61451C4.84201 11.5032 5.17451 11.6257 5.34951 11.7715L6.27117 12.559C6.67367 12.9032 7.33284 12.9032 7.73534 12.559L8.65701 11.7715C8.83201 11.6257 9.15867 11.5032 9.39201 11.5032H10.3837C11.002 11.5032 11.5095 10.9957 11.5095 10.3774V9.38572C11.5095 9.15238 11.632 8.82572 11.7778 8.65072L12.5653 7.72905C12.9212 7.33238 12.9212 6.67322 12.577 6.26488ZM6.56284 4.74238C6.56284 4.50322 6.76117 4.30488 7.00034 4.30488C7.23951 4.30488 7.43784 4.50322 7.43784 4.74238V7.55988C7.43784 7.79905 7.23951 7.99738 7.00034 7.99738C6.76117 7.99738 6.56284 7.79905 6.56284 7.55988V4.74238ZM7.00034 9.84072C6.67951 9.84072 6.41701 9.57822 6.41701 9.25738C6.41701 8.93655 6.67367 8.67405 7.00034 8.67405C7.32117 8.67405 7.58367 8.93655 7.58367 9.25738C7.58367 9.57822 7.32701 9.84072 7.00034 9.84072Z" fill="white"/>
</svg>
