<svg width="91" height="90" viewBox="0 0 91 90" fill="none" xmlns="http://www.w3.org/2000/svg">
<path d="M20.3903 32.0603C20.3903 32.414 20.6776 32.7034 21.0288 32.7034H58.0334C58.3846 32.7034 58.6719 32.414 58.6719 32.0603V1.49903C58.6719 1.32144 58.5289 1.17746 58.3526 1.17746H21.0288C20.6776 1.17746 20.3903 1.46687 20.3903 1.82059V32.0603Z" fill="white"/>
<path d="M58.2776 32.7535H21.3447C20.7897 32.7535 20.3389 32.2991 20.3389 31.7412V1.57686C20.3389 1.01894 20.7897 0.564563 21.3447 0.564563H58.5962C58.9755 0.564563 59.2834 0.875073 59.2834 1.25609V31.7412C59.2834 32.2991 58.8326 32.7535 58.2776 32.7535ZM58.5462 31.7412V1.30609H21.3447C21.1969 1.30609 21.0761 1.42725 21.0761 1.57686V31.7412C21.0761 31.8908 21.1969 32.012 21.3447 32.012H58.2776C58.4254 32.012 58.5462 31.8908 58.5462 31.7412Z" fill="#E1251B" stroke="#E1251B" stroke-width="0.1"/>
<mask id="path-3-outside-1_7390_76717" maskUnits="userSpaceOnUse" x="22.8545" y="2.99243" width="34" height="27" fill="black">
<rect fill="white" x="22.8545" y="2.99243" width="34" height="27"/>
<path d="M23.8452 29.8888H55.2118C55.5662 29.8888 55.8545 29.6013 55.8545 29.248V9.26065C55.8545 9.08445 55.7805 8.91873 55.6516 8.8058C55.5227 8.69287 55.3484 8.64121 55.1729 8.66404C55.1724 8.66404 55.0504 8.67909 54.8425 8.67909C52.8185 8.67909 51.172 7.03774 51.172 5.02027C51.172 4.80714 51.1891 4.6737 51.1892 4.67242C51.2129 4.49838 51.1617 4.32418 51.0487 4.19531C50.9358 4.06644 50.7694 3.99243 50.5924 3.99243H28.5414C28.3645 3.99243 28.1981 4.06636 28.0851 4.19531C27.972 4.32426 27.9209 4.49846 27.9446 4.67323C27.9446 4.67371 27.9618 4.80706 27.9618 5.02027C27.9618 7.03774 26.3152 8.67909 24.2914 8.67909C24.0613 8.67909 23.8937 8.65571 23.8883 8.65498C23.7132 8.62935 23.5373 8.67861 23.4074 8.79067C23.2772 8.90264 23.2026 9.06851 23.2026 9.24567V29.248C23.2026 29.6013 23.4909 29.8888 23.8452 29.8888H23.8452ZM55.2118 9.30422V29.248H23.8452V9.29533C23.9236 9.30438 24.0873 9.31984 24.2913 9.31984C26.6696 9.31984 28.6044 7.39103 28.6044 5.02027C28.6044 4.83678 28.5934 4.70014 28.5867 4.63318H50.5469C50.5401 4.70022 50.5291 4.83686 50.5291 5.02027C50.5291 7.39111 52.464 9.31984 54.8423 9.31984C55.0216 9.31984 55.1485 9.31039 55.2117 9.30422H55.2118Z"/>
</mask>
<path d="M23.8452 29.8888H55.2118C55.5662 29.8888 55.8545 29.6013 55.8545 29.248V9.26065C55.8545 9.08445 55.7805 8.91873 55.6516 8.8058C55.5227 8.69287 55.3484 8.64121 55.1729 8.66404C55.1724 8.66404 55.0504 8.67909 54.8425 8.67909C52.8185 8.67909 51.172 7.03774 51.172 5.02027C51.172 4.80714 51.1891 4.6737 51.1892 4.67242C51.2129 4.49838 51.1617 4.32418 51.0487 4.19531C50.9358 4.06644 50.7694 3.99243 50.5924 3.99243H28.5414C28.3645 3.99243 28.1981 4.06636 28.0851 4.19531C27.972 4.32426 27.9209 4.49846 27.9446 4.67323C27.9446 4.67371 27.9618 4.80706 27.9618 5.02027C27.9618 7.03774 26.3152 8.67909 24.2914 8.67909C24.0613 8.67909 23.8937 8.65571 23.8883 8.65498C23.7132 8.62935 23.5373 8.67861 23.4074 8.79067C23.2772 8.90264 23.2026 9.06851 23.2026 9.24567V29.248C23.2026 29.6013 23.4909 29.8888 23.8452 29.8888H23.8452ZM55.2118 9.30422V29.248H23.8452V9.29533C23.9236 9.30438 24.0873 9.31984 24.2913 9.31984C26.6696 9.31984 28.6044 7.39103 28.6044 5.02027C28.6044 4.83678 28.5934 4.70014 28.5867 4.63318H50.5469C50.5401 4.70022 50.5291 4.83686 50.5291 5.02027C50.5291 7.39111 52.464 9.31984 54.8423 9.31984C55.0216 9.31984 55.1485 9.31039 55.2117 9.30422H55.2118Z" fill="#E1251B"/>
<path d="M55.6516 8.8058L55.5857 8.88102L55.5857 8.881L55.6516 8.8058ZM55.1729 8.66404L55.186 8.76404H55.1729V8.66404ZM51.1892 4.67242L51.09 4.65998L51.0901 4.65898L51.1892 4.67242ZM27.9446 4.67323L28.0446 4.65966V4.67323H27.9446ZM23.8883 8.65498L23.875 8.75411L23.8738 8.75393L23.8883 8.65498ZM23.4074 8.79067L23.4726 8.86641L23.4726 8.86647L23.4074 8.79067ZM55.2118 9.30422V9.20422H55.3118V9.30422H55.2118ZM55.2118 29.248H55.3118V29.348H55.2118V29.248ZM23.8452 29.248V29.348H23.7452V29.248H23.8452ZM23.8452 9.29533H23.7452V9.18314L23.8566 9.19599L23.8452 9.29533ZM28.5867 4.63318L28.4872 4.64321L28.4761 4.53318H28.5867V4.63318ZM50.5469 4.63318V4.53318H50.6575L50.6464 4.64319L50.5469 4.63318ZM55.2117 9.30422L55.202 9.20422H55.2117V9.30422ZM23.8452 29.7888H55.2118V29.9888H23.8452V29.7888ZM55.2118 29.7888C55.5112 29.7888 55.7545 29.5458 55.7545 29.248H55.9545C55.9545 29.6568 55.6211 29.9888 55.2118 29.9888V29.7888ZM55.7545 29.248V9.26065H55.9545V29.248H55.7545ZM55.7545 9.26065C55.7545 9.11238 55.6923 8.97439 55.5857 8.88102L55.7175 8.73058C55.8687 8.86307 55.9545 9.05652 55.9545 9.26065H55.7545ZM55.5857 8.881C55.4792 8.78769 55.3338 8.74395 55.1858 8.7632L55.16 8.56487C55.3629 8.53848 55.5662 8.59804 55.7175 8.7306L55.5857 8.881ZM55.1729 8.76404C55.1748 8.76402 55.1776 8.76393 55.1786 8.76388C55.1792 8.76384 55.1803 8.76377 55.1807 8.76374C55.1815 8.76368 55.1821 8.76362 55.1824 8.76359C55.1829 8.76354 55.1833 8.76349 55.1834 8.76349C55.1837 8.76346 55.1838 8.76344 55.1837 8.76346C55.1835 8.76348 55.1833 8.7635 55.1827 8.76357C55.1816 8.76369 55.18 8.76387 55.1779 8.7641C55.1737 8.76456 55.1677 8.76519 55.1598 8.76594C55.1442 8.76743 55.1214 8.7694 55.0921 8.77135C55.0336 8.77524 54.9489 8.77909 54.8425 8.77909V8.57909C54.944 8.57909 55.0243 8.57542 55.0788 8.57179C55.1061 8.56997 55.1269 8.56817 55.1408 8.56684C55.1477 8.56618 55.1529 8.56564 55.1563 8.56527C55.158 8.56508 55.1593 8.56494 55.1602 8.56484C55.1605 8.5648 55.1611 8.56474 55.1614 8.56471C55.1615 8.56469 55.1619 8.56465 55.1622 8.56461C55.1624 8.5646 55.1629 8.56455 55.1635 8.56449C55.1637 8.56446 55.1644 8.5644 55.1652 8.56434C55.1656 8.56431 55.1667 8.56424 55.1673 8.5642C55.1683 8.56415 55.1711 8.56405 55.1729 8.56404V8.76404ZM54.8425 8.77909C52.7636 8.77909 51.072 7.09327 51.072 5.02027H51.272C51.272 6.98221 52.8735 8.57909 54.8425 8.57909V8.77909ZM51.072 5.02027C51.072 4.91105 51.0763 4.82202 51.0808 4.75978C51.083 4.72865 51.0853 4.70419 51.087 4.68724C51.0878 4.67876 51.0886 4.67215 51.0891 4.66753C51.0894 4.66521 51.0896 4.6634 51.0898 4.66209C51.0899 4.66077 51.09 4.65991 51.09 4.65998L51.2885 4.68486C51.2884 4.68495 51.2882 4.68678 51.2878 4.69046C51.2874 4.69421 51.2867 4.69991 51.286 4.70745C51.2844 4.72254 51.2824 4.745 51.2803 4.77403C51.2761 4.83211 51.272 4.91636 51.272 5.02027H51.072ZM51.0901 4.65898C51.11 4.51269 51.0668 4.36766 50.9735 4.26122L51.1239 4.1294C51.2565 4.2807 51.3157 4.48407 51.2883 4.68587L51.0901 4.65898ZM50.9735 4.26122C50.8803 4.1548 50.7416 4.09243 50.5924 4.09243V3.89243C50.7971 3.89243 50.9913 3.97808 51.1239 4.1294L50.9735 4.26122ZM50.5924 4.09243H28.5414V3.89243H50.5924V4.09243ZM28.5414 4.09243C28.3922 4.09243 28.2536 4.15473 28.1603 4.26123L28.0099 4.12939C28.1426 3.97799 28.3367 3.89243 28.5414 3.89243V4.09243ZM28.1603 4.26123C28.067 4.36768 28.0238 4.51269 28.0437 4.65979L27.8455 4.68666C27.8181 4.48423 27.8771 4.28084 28.0099 4.12939L28.1603 4.26123ZM28.0446 4.67323C28.0446 4.67096 28.0445 4.66762 28.0444 4.66654C28.0444 4.66591 28.0443 4.66487 28.0443 4.66446C28.0442 4.66369 28.0441 4.66309 28.0441 4.66289C28.0441 4.6624 28.044 4.66203 28.044 4.66198C28.044 4.6618 28.044 4.66169 28.044 4.66183C28.044 4.6623 28.044 4.66214 28.0441 4.66302C28.0443 4.66419 28.0445 4.66592 28.0447 4.66817C28.0452 4.67267 28.046 4.67918 28.0468 4.68759C28.0485 4.70441 28.0508 4.72877 28.053 4.75984C28.0574 4.82196 28.0618 4.911 28.0618 5.02027H27.8618C27.8618 4.91633 27.8576 4.83208 27.8535 4.77411C27.8514 4.74513 27.8493 4.72274 27.8478 4.70775C27.8471 4.70026 27.8464 4.6946 27.846 4.69089C27.8458 4.68903 27.8456 4.68764 27.8455 4.6867C27.8455 4.68652 27.8454 4.68556 27.8454 4.68548C27.8454 4.68535 27.8453 4.68504 27.8453 4.68471C27.8453 4.68458 27.8452 4.68416 27.8452 4.68364C27.8452 4.68341 27.8451 4.68279 27.845 4.68201C27.845 4.6816 27.8449 4.68055 27.8449 4.67992C27.8448 4.67884 27.8447 4.67549 27.8446 4.67323H28.0446ZM28.0618 5.02027C28.0618 7.09327 26.3702 8.77909 24.2914 8.77909V8.57909C26.2603 8.57909 27.8618 6.98221 27.8618 5.02027H28.0618ZM24.2914 8.77909C24.1731 8.77909 24.0708 8.77308 23.9973 8.76697C23.9605 8.7639 23.9308 8.76081 23.9098 8.75841C23.8993 8.75721 23.891 8.75618 23.8851 8.75542C23.8821 8.75504 23.8797 8.75473 23.8779 8.75449C23.8772 8.7544 23.874 8.75396 23.875 8.7541L23.9016 8.55587C23.905 8.55633 24.0677 8.57909 24.2914 8.57909V8.77909ZM23.8738 8.75393C23.7262 8.73232 23.5797 8.77411 23.4726 8.86641L23.3421 8.71492C23.495 8.58312 23.7003 8.52639 23.9028 8.55604L23.8738 8.75393ZM23.4726 8.86647C23.3653 8.95875 23.3026 9.09656 23.3026 9.24567H23.1026C23.1026 9.04046 23.1891 8.84652 23.3421 8.71486L23.4726 8.86647ZM23.3026 9.24567V29.248H23.1026V9.24567H23.3026ZM23.3026 29.248C23.3026 29.5458 23.5458 29.7888 23.8452 29.7888V29.9888C23.4359 29.9888 23.1026 29.6568 23.1026 29.248H23.3026ZM23.8452 29.9888H23.8452V29.7888H23.8452V29.9888ZM55.3118 9.30422V29.248H55.1118V9.30422H55.3118ZM55.2118 29.348H23.8452V29.148H55.2118V29.348ZM23.7452 29.248V9.29533H23.9452V29.248H23.7452ZM23.8566 9.19599C23.9324 9.20473 24.0921 9.21984 24.2913 9.21984V9.41984C24.0825 9.41984 23.9149 9.40403 23.8337 9.39467L23.8566 9.19599ZM24.2913 9.21984C26.6147 9.21984 28.5044 7.33551 28.5044 5.02027H28.7044C28.7044 7.44656 26.7245 9.41984 24.2913 9.41984V9.21984ZM28.5044 5.02027C28.5044 4.84071 28.4936 4.70747 28.4872 4.64321L28.6862 4.62315C28.6932 4.6928 28.7044 4.83284 28.7044 5.02027H28.5044ZM28.5867 4.53318H50.5469V4.73318H28.5867V4.53318ZM50.6464 4.64319C50.6399 4.70755 50.6291 4.8408 50.6291 5.02027H50.4291C50.4291 4.83292 50.4404 4.69288 50.4474 4.62316L50.6464 4.64319ZM50.6291 5.02027C50.6291 7.33559 52.519 9.21984 54.8423 9.21984V9.41984C52.4091 9.41984 50.4291 7.44664 50.4291 5.02027H50.6291ZM54.8423 9.21984C55.0181 9.21984 55.1418 9.21057 55.202 9.20469L55.2214 9.40375C55.1552 9.41021 55.0251 9.41984 54.8423 9.41984V9.21984ZM55.2117 9.20422H55.2118V9.40422H55.2117V9.20422Z" fill="#E1251B" mask="url(#path-3-outside-1_7390_76717)"/>
<path d="M10.8891 10.1849H47.8938C48.2464 10.1849 48.5322 10.4728 48.5322 10.828V41.0678C48.5322 41.4229 48.2464 41.7109 47.8938 41.7109H10.8891C10.5365 41.7109 10.2507 41.4229 10.2507 41.0678V10.828C10.2507 10.4728 10.5365 10.1849 10.8891 10.1849Z" fill="white"/>
<path d="M48.1399 41.7609H11.207C10.652 41.7609 10.2012 41.3065 10.2012 40.7486V10.5842C10.2012 10.0263 10.652 9.57195 11.207 9.57195H48.1399C48.6949 9.57195 49.1457 10.0263 49.1457 10.5842V40.7486C49.1457 41.3065 48.6949 41.7609 48.1399 41.7609ZM48.4085 10.5842C48.4085 10.4346 48.2877 10.3135 48.1399 10.3135H11.207C11.0592 10.3135 10.9384 10.4346 10.9384 10.5842V40.7486C10.9384 40.8982 11.0592 41.0194 11.207 41.0194H48.1399C48.2877 41.0194 48.4085 40.8982 48.4085 40.7486V10.5842Z" fill="#E1251B" stroke="#E1251B" stroke-width="0.1"/>
<path d="M13.8281 38.946H45.0761C45.4579 38.946 45.7688 38.6363 45.7688 38.2553V18.2678C45.7688 18.0777 45.6889 17.8981 45.5489 17.7754L45.5488 17.7754C45.4089 17.6529 45.2204 17.597 45.0313 17.6216L45.0312 17.6216L45.0301 17.6218L45.026 17.6222L45.0099 17.6238C44.9956 17.6252 44.9743 17.6271 44.9465 17.6289C44.8909 17.6326 44.8095 17.6363 44.7067 17.6363C42.7103 17.6363 41.0862 16.0172 41.0862 14.0275C41.0862 13.9223 41.0905 13.8369 41.0947 13.7778C41.0989 13.7188 41.1032 13.6861 41.1032 13.6861L41.0536 13.6799M13.8281 38.946L40.9129 13.2025M13.8281 38.946L13.8281 38.9461H13.7095C13.3277 38.9461 13.0168 38.6364 13.0168 38.2554V18.2529C13.0168 18.0616 13.0974 17.8817 13.2389 17.7599L13.2715 17.7978L13.8281 38.946ZM41.0536 13.6799L41.1031 13.6866C41.1286 13.4983 41.0734 13.3096 40.9505 13.1695C40.9505 13.1695 40.9505 13.1695 40.9505 13.1695L40.9129 13.2025M41.0536 13.6799C41.0772 13.5055 41.0259 13.3313 40.9129 13.2025M41.0536 13.6799L41.0535 13.6799C41.0531 13.6835 41.0362 13.8163 41.0362 14.0275C41.0362 16.045 42.6828 17.6863 44.7067 17.6863C44.9052 17.6863 45.0253 17.6726 45.0364 17.6714C45.0369 17.6713 45.0372 17.6713 45.0372 17.6713C45.2127 17.6483 45.387 17.7002 45.5159 17.813L40.9129 13.2025M13.7594 38.2053H45.0261V18.3659C44.9541 18.3713 44.8459 18.377 44.7066 18.377C42.3008 18.377 40.3434 16.426 40.3434 14.0274C40.3434 13.8828 40.3502 13.7668 40.3564 13.6904H18.5056C18.5119 13.7669 18.5187 13.8828 18.5187 14.0274C18.5187 16.4259 16.5612 18.377 14.1555 18.377C13.9891 18.377 13.8492 18.3668 13.7594 18.3581V38.2053Z" fill="#E1251B" stroke="#E1251B" stroke-width="0.1"/>
<path d="M33.7493 72.5307H1.80853V33.501C1.80853 29.0373 5.45364 25.3851 9.90874 25.3851H82.6566C87.1117 25.3851 90.7568 29.0373 90.7568 33.501V80.8841C90.7568 85.3479 87.1117 89 82.6566 89H9.90874C7.48688 89 5.30424 87.9212 3.81651 86.2183H33.7493C37.387 86.2183 40.3632 83.2363 40.3632 79.5916V79.1575C40.3632 75.5128 37.387 72.5307 33.7493 72.5307ZM79.5251 38.1411C79.5251 37.6497 79.1237 37.2476 78.6333 37.2476H14.236C13.7456 37.2476 13.3442 37.6497 13.3442 38.1411V38.6355C13.3442 39.1269 13.7455 39.529 14.236 39.529H78.6333C79.1237 39.529 79.5251 39.1269 79.5251 38.6355V38.1411ZM78.6333 51.5435C79.1237 51.5435 79.5251 51.1414 79.5251 50.6499V50.1556C79.5251 49.6642 79.1237 49.2621 78.6333 49.2621H14.236C13.7456 49.2621 13.3442 49.6641 13.3442 50.1556V50.6499C13.3442 51.1414 13.7455 51.5435 14.236 51.5435H78.6333Z" fill="url(#paint0_linear_7390_76717)"/>
<path d="M13.6392 40.022H78.3603C78.9866 40.022 79.4961 39.5038 79.4961 38.8668V38.3624C79.4961 37.7255 78.9866 37.2072 78.3603 37.2072H13.6392C13.0129 37.2072 12.5034 37.7255 12.5034 38.3624V38.8668C12.5034 39.5038 13.0129 40.022 13.6392 40.022ZM78.3603 37.6944C78.7225 37.6944 79.0171 37.994 79.0171 38.3625V38.8669C79.0171 39.2353 78.7225 39.535 78.3603 39.535H13.6392C13.277 39.535 12.9823 39.2354 12.9823 38.8669V38.3625C12.9823 37.9941 13.2769 37.6944 13.6392 37.6944H78.3603Z" fill="url(#paint1_linear_7390_76717)"/>
<path d="M13.9615 49.0295H78.6009C79.0953 49.0295 79.4961 49.4243 79.4961 49.9114V50.3994C79.4961 50.8865 79.0953 51.2813 78.6009 51.2813H13.9615C13.4671 51.2813 13.0663 50.8865 13.0663 50.3994V49.9114C13.0663 49.4243 13.4671 49.0295 13.9615 49.0295Z" fill="white"/>
<path d="M1.24316 72.6146V81.1587C1.24316 83.2431 2.01068 85.1532 3.27433 86.6146H33.5529C37.2325 86.6146 40.2432 83.5645 40.2432 79.8366V79.3926C40.2432 75.6647 37.2325 72.6146 33.5529 72.6146H1.24316Z" fill="white"/>
<path d="M32.2062 82.8073C30.3407 82.8073 28.8284 81.295 28.8284 79.4295C28.8284 77.564 30.3407 76.0518 32.2062 76.0518C34.0717 76.0518 35.584 77.564 35.584 79.4295C35.584 81.295 34.0717 82.8073 32.2062 82.8073Z" fill="white"/>
<path d="M31.9247 83.3703C33.9424 83.3703 35.584 81.7288 35.584 79.7111C35.584 77.6933 33.9424 76.0518 31.9247 76.0518C29.907 76.0518 28.2655 77.6932 28.2655 79.7111C28.2655 81.7289 29.907 83.3703 31.9247 83.3703ZM31.9247 76.5194C33.6846 76.5194 35.1164 77.9511 35.1164 79.7111C35.1164 81.471 33.6846 82.9027 31.9247 82.9027C30.1648 82.9027 28.733 81.4709 28.733 79.7111C28.733 77.9512 30.1648 76.5194 31.9247 76.5194Z" fill="url(#paint2_linear_7390_76717)"/>
<rect x="12.2432" y="36.6146" width="68" height="4" rx="2" fill="white"/>
<rect x="12.2432" y="48.6146" width="68" height="4" rx="2" fill="white"/>
<defs>
<linearGradient id="paint0_linear_7390_76717" x1="46.2827" y1="89" x2="46.2827" y2="25.3851" gradientUnits="userSpaceOnUse">
<stop stop-color="#EA3033"/>
<stop offset="1" stop-color="#EA3231"/>
</linearGradient>
<linearGradient id="paint1_linear_7390_76717" x1="45.9997" y1="40.022" x2="45.9997" y2="37.2072" gradientUnits="userSpaceOnUse">
<stop stop-color="#EA3033"/>
<stop offset="1" stop-color="#EA3231"/>
</linearGradient>
<linearGradient id="paint2_linear_7390_76717" x1="31.9247" y1="83.3703" x2="31.9247" y2="76.0518" gradientUnits="userSpaceOnUse">
<stop stop-color="#EA3033"/>
<stop offset="1" stop-color="#EA3231"/>
</linearGradient>
</defs>
</svg>
