<svg width="16" height="16" viewBox="0 0 16 16" fill="none" xmlns="http://www.w3.org/2000/svg">
<g clip-path="url(#clip0_8067_6138)">
<path d="M7.86667 7.26667C6.35333 6.87333 5.86667 6.46667 5.86667 5.83333C5.86667 5.10667 6.54 4.6 7.66667 4.6C8.85333 4.6 9.29333 5.16667 9.33333 6H10.8067C10.76 4.85333 10.06 3.8 8.66667 3.46V2H6.66667V3.44C5.37333 3.72 4.33333 4.56 4.33333 5.84667C4.33333 7.38667 5.60667 8.15333 7.46667 8.6C9.13333 9 9.46667 9.58667 9.46667 10.2067C9.46667 10.6667 9.14 11.4 7.66667 11.4C6.29333 11.4 5.75333 10.7867 5.68 10H4.21333C4.29333 11.46 5.38667 12.28 6.66667 12.5533V14H8.66667V12.5667C9.96667 12.32 11 11.5667 11 10.2C11 8.30667 9.38 7.66 7.86667 7.26667Z" fill="currentColor"/>
</g>
<defs>
<clipPath id="clip0_8067_6138">
<rect width="16" height="16" fill="white"/>
</clipPath>
</defs>
</svg>
