<svg width="81" height="84" viewBox="0 0 81 84" fill="none" xmlns="http://www.w3.org/2000/svg">
<mask id="path-1-inside-1_6202_33036" fill="white">
<path fill-rule="evenodd" clip-rule="evenodd" d="M40.5004 0.588196C26.5157 0.588196 15.179 11.925 15.179 25.9096V58.6786C15.179 72.6632 26.5157 84 40.5004 84C54.4851 84 65.8218 72.6632 65.8218 58.6786V25.9096C65.8218 11.925 54.4851 0.588196 40.5004 0.588196ZM40.5019 7.29096C30.219 7.29096 21.8832 15.6268 21.8832 25.9097V58.6786C21.8832 68.9614 30.219 77.2973 40.5019 77.2973C50.7847 77.2973 59.1206 68.9614 59.1206 58.6786V25.9097C59.1206 15.6268 50.7847 7.29096 40.5019 7.29096Z"/>
</mask>
<path fill-rule="evenodd" clip-rule="evenodd" d="M40.5004 0.588196C26.5157 0.588196 15.179 11.925 15.179 25.9096V58.6786C15.179 72.6632 26.5157 84 40.5004 84C54.4851 84 65.8218 72.6632 65.8218 58.6786V25.9096C65.8218 11.925 54.4851 0.588196 40.5004 0.588196ZM40.5019 7.29096C30.219 7.29096 21.8832 15.6268 21.8832 25.9097V58.6786C21.8832 68.9614 30.219 77.2973 40.5019 77.2973C50.7847 77.2973 59.1206 68.9614 59.1206 58.6786V25.9097C59.1206 15.6268 50.7847 7.29096 40.5019 7.29096Z" fill="white"/>
<path d="M16.2348 25.9096C16.2348 12.5081 27.0989 1.64404 40.5004 1.64404V-0.46765C25.9326 -0.46765 14.1231 11.3419 14.1231 25.9096H16.2348ZM16.2348 58.6786V25.9096H14.1231V58.6786H16.2348ZM40.5004 82.9442C27.0989 82.9442 16.2348 72.0801 16.2348 58.6786H14.1231C14.1231 73.2463 25.9326 85.0559 40.5004 85.0559V82.9442ZM64.766 58.6786C64.766 72.0801 53.9019 82.9442 40.5004 82.9442V85.0559C55.0682 85.0559 66.8777 73.2464 66.8777 58.6786H64.766ZM64.766 25.9096V58.6786H66.8777V25.9096H64.766ZM40.5004 1.64404C53.9019 1.64404 64.766 12.5081 64.766 25.9096H66.8777C66.8777 11.3419 55.0682 -0.46765 40.5004 -0.46765V1.64404ZM22.939 25.9097C22.939 16.21 30.8022 8.3468 40.5019 8.3468V6.23511C29.6359 6.23511 20.8273 15.0437 20.8273 25.9097H22.939ZM22.939 58.6786V25.9097H20.8273V58.6786H22.939ZM40.5019 76.2414C30.8022 76.2414 22.939 68.3783 22.939 58.6786H20.8273C20.8273 69.5445 29.6359 78.3531 40.5019 78.3531V76.2414ZM58.0647 58.6786C58.0647 68.3783 50.2016 76.2414 40.5019 76.2414V78.3531C51.3678 78.3531 60.1764 69.5445 60.1764 58.6786H58.0647ZM58.0647 25.9097V58.6786H60.1764V25.9097H58.0647ZM40.5019 8.3468C50.2016 8.3468 58.0647 16.21 58.0647 25.9097H60.1764C60.1764 15.0437 51.3678 6.23511 40.5019 6.23511V8.3468Z" fill="#E1251B" mask="url(#path-1-inside-1_6202_33036)"/>
<rect x="6.76938" y="33.1403" width="73.419" height="50.3318" rx="8.97469" fill="#E1251B" stroke="#E1251B" stroke-width="1.05585"/>
<rect x="0.811614" y="33.1403" width="73.419" height="50.3318" rx="8.97469" fill="white" stroke="#E1251B" stroke-width="1.05585"/>
<path fill-rule="evenodd" clip-rule="evenodd" d="M40.6709 58.0468C42.0908 57.0831 43.0237 55.4556 43.0237 53.6102C43.0237 50.651 40.6248 48.2521 37.6657 48.2521C34.7065 48.2521 32.3076 50.651 32.3076 53.6102C32.3076 55.4556 33.2405 57.0831 34.6605 58.0468L32.3076 69.1052H43.0237L40.6709 58.0468Z" fill="#E1251B"/>
</svg>
