<svg width="32" height="32" viewBox="0 0 32 32" fill="none" xmlns="http://www.w3.org/2000/svg">
<path d="M31.5229 19.8743C30.7567 22.9444 29.0974 25.7185 26.7548 27.8456C24.4121 29.9727 21.4914 31.3574 18.3618 31.8246C15.2322 32.2918 12.0344 31.8205 9.17267 30.4703C6.31094 29.1201 3.91381 26.9517 2.28439 24.2392C0.654974 21.5266 -0.133564 18.3918 0.018488 15.2311C0.17054 12.0705 1.25635 9.02585 3.13863 6.48226C5.02091 3.93867 7.61512 2.01035 10.5932 0.941109C13.5714 -0.12813 16.7997 -0.290264 19.8699 0.475207C21.9092 0.983052 23.8285 1.8878 25.5179 3.13775C27.2074 4.3877 28.634 5.95834 29.7162 7.75991C30.7984 9.56148 31.515 11.5587 31.825 13.6373C32.135 15.716 32.0324 17.8353 31.5229 19.8743Z" fill="#F7931A"/>
<path d="M23.0561 13.7237C23.3734 11.5938 21.7522 10.4463 19.5355 9.68565L20.257 6.79948L18.5184 6.36481L17.8186 9.17275L16.3929 8.85544L17.0971 6.03012L15.3585 5.59546L14.6413 8.48163C14.2588 8.3947 13.885 8.30776 13.5199 8.21648L11.0989 7.6123L10.6338 9.4857C10.6338 9.4857 11.9377 9.78562 11.9073 9.80301C12.1506 9.83141 12.3728 9.9546 12.5258 10.1458C12.6787 10.3371 12.7501 10.5809 12.7245 10.8245L11.903 14.1236L10.7555 18.7267C10.7326 18.8089 10.6934 18.8856 10.6402 18.9524C10.587 19.0191 10.5209 19.0744 10.4458 19.115C10.3708 19.1555 10.2883 19.1806 10.2033 19.1885C10.1184 19.1965 10.0327 19.1872 9.95138 19.1613C9.95138 19.1874 8.6735 18.844 8.6735 18.844L7.8042 20.8565L10.0905 21.4259C10.5251 21.5303 10.9293 21.6433 11.3379 21.7476L10.612 24.6642L12.3507 25.0989L13.0722 22.2127C13.5503 22.3431 14.0154 22.4604 14.4674 22.5734L13.7502 25.4466L15.4888 25.8812L16.2191 22.969C19.2095 23.5341 21.4653 23.308 22.4085 20.6001C23.1735 18.4267 22.3737 17.1619 20.7959 16.3404C21.9434 16.0752 22.8084 15.3189 23.0387 13.7628L23.0561 13.7237ZM19.0443 19.3482C18.501 21.5216 14.8325 20.3523 13.6416 20.0524L14.6022 16.1882C15.7931 16.4838 19.6093 17.0576 19.0443 19.3482ZM19.5876 13.6976C19.0921 15.684 16.0365 14.6756 15.0455 14.4278L15.9148 10.9201C16.9102 11.1592 20.1048 11.6199 19.5876 13.6889V13.6976Z" fill="white"/>
</svg>
