<svg width="32" height="32" viewBox="0 0 32 32" fill="none" xmlns="http://www.w3.org/2000/svg">
<path d="M17.1868 7.83997H6.8134C4.5334 7.83997 2.66675 9.70661 2.66675 11.9866V27.1333C2.66675 29.0666 4.05341 29.8933 5.74674 28.9466L10.9867 26.0266C11.5467 25.7199 12.4534 25.7199 13.0001 26.0266L18.2401 28.9466C19.9334 29.8933 21.3201 29.0666 21.3201 27.1333V11.9866C21.3334 9.70661 19.4668 7.83997 17.1868 7.83997Z" stroke="#E1251B" stroke-width="1.5" stroke-linecap="round" stroke-linejoin="round"/>
<path d="M21.3334 11.9866V27.1333C21.3334 29.0666 19.9468 29.8799 18.2534 28.9466L13.0134 26.0266C12.4534 25.7199 11.5467 25.7199 10.9867 26.0266L5.74674 28.9466C4.05341 29.8799 2.66675 29.0666 2.66675 27.1333V11.9866C2.66675 9.70661 4.5334 7.83997 6.8134 7.83997H17.1868C19.4668 7.83997 21.3334 9.70661 21.3334 11.9866Z" stroke="#E1251B" stroke-width="1.5" stroke-linecap="round" stroke-linejoin="round"/>
<path d="M29.3334 6.81327V21.96C29.3334 23.8933 27.9468 24.7066 26.2534 23.7733L21.3334 21.0266V11.9866C21.3334 9.70661 19.4668 7.83997 17.1868 7.83997H10.6667V6.81327C10.6667 4.53327 12.5334 2.66663 14.8134 2.66663H25.1868C27.4668 2.66663 29.3334 4.53327 29.3334 6.81327Z" stroke="#E1251B" stroke-width="1.5" stroke-linecap="round" stroke-linejoin="round"/>
</svg>
