<svg width="21" height="20" viewBox="0 0 21 20" fill="none" xmlns="http://www.w3.org/2000/svg">
<path opacity="0.4" d="M15.5 17.0831H14.6667V16.8748C14.6667 15.9581 13.9167 15.2081 13 15.2081H11.125V13.2998C10.9167 13.3248 10.7083 13.3331 10.5 13.3331C10.2917 13.3331 10.0833 13.3248 9.875 13.2998V15.2081H8C7.08333 15.2081 6.33333 15.9581 6.33333 16.8748V17.0831H5.5C5.15833 17.0831 4.875 17.3665 4.875 17.7081C4.875 18.0498 5.15833 18.3331 5.5 18.3331H15.5C15.8417 18.3331 16.125 18.0498 16.125 17.7081C16.125 17.3665 15.8417 17.0831 15.5 17.0831Z" fill="#E1251B"/>
<path opacity="0.4" d="M5.10002 9.69984C4.55002 9.4915 4.06669 9.14984 3.68336 8.7665C2.90836 7.90817 2.40002 6.88317 2.40002 5.68317C2.40002 4.48317 3.34169 3.5415 4.54169 3.5415H5.00836C4.79169 3.98317 4.66669 4.47484 4.66669 4.99984V7.49984C4.66669 8.28317 4.81669 9.02484 5.10002 9.69984Z" fill="#E1251B"/>
<path opacity="0.4" d="M18.6 5.68317C18.6 6.88317 18.0916 7.90817 17.3166 8.7665C16.9333 9.14984 16.45 9.4915 15.9 9.69984C16.1833 9.02484 16.3333 8.28317 16.3333 7.49984V4.99984C16.3333 4.47484 16.2083 3.98317 15.9916 3.5415H16.4583C17.6583 3.5415 18.6 4.48317 18.6 5.68317Z" fill="#E1251B"/>
<path d="M13 1.6665H8.00002C6.15835 1.6665 4.66669 3.15817 4.66669 4.99984V7.49984C4.66669 10.7248 7.27502 13.3332 10.5 13.3332C13.725 13.3332 16.3334 10.7248 16.3334 7.49984V4.99984C16.3334 3.15817 14.8417 1.6665 13 1.6665ZM12.8667 7.0415L12.35 7.67484C12.2667 7.7665 12.2084 7.94984 12.2167 8.07484L12.2667 8.8915C12.3 9.3915 11.9417 9.64984 11.475 9.4665L10.7167 9.1665C10.6 9.12484 10.4 9.12484 10.2834 9.1665L9.52502 9.4665C9.05835 9.64984 8.70002 9.3915 8.73335 8.8915L8.78335 8.07484C8.79169 7.94984 8.73335 7.7665 8.65002 7.67484L8.13335 7.0415C7.80835 6.65817 7.95002 6.23317 8.43335 6.10817L9.22502 5.90817C9.35002 5.87484 9.50002 5.75817 9.56669 5.64984L10.0084 4.9665C10.2834 4.5415 10.7167 4.5415 10.9917 4.9665L11.4334 5.64984C11.5 5.75817 11.65 5.87484 11.775 5.90817L12.5667 6.10817C13.05 6.23317 13.1917 6.65817 12.8667 7.0415Z" fill="#E1251B"/>
<path opacity="0.4" d="M12.8667 7.0417L12.35 7.67503C12.2667 7.7667 12.2083 7.95003 12.2167 8.07503L12.2667 8.8917C12.3 9.3917 11.9417 9.65003 11.475 9.4667L10.7167 9.1667C10.6 9.12503 10.4 9.12503 10.2833 9.1667L9.52499 9.4667C9.05833 9.65003 8.69999 9.3917 8.73333 8.8917L8.78333 8.07503C8.79166 7.95003 8.73333 7.7667 8.64999 7.67503L8.13333 7.0417C7.80833 6.65837 7.94999 6.23337 8.43333 6.10837L9.22499 5.90837C9.34999 5.87503 9.49999 5.75837 9.56666 5.65003L10.0083 4.9667C10.2833 4.5417 10.7167 4.5417 10.9917 4.9667L11.4333 5.65003C11.5 5.75837 11.65 5.87503 11.775 5.90837L12.5667 6.10837C13.05 6.23337 13.1917 6.65837 12.8667 7.0417Z" fill="#E1251B"/>
</svg>
