<svg width="24" height="24" viewBox="0 0 32 33" fill="none" xmlns="http://www.w3.org/2000/svg">
<path d="M24.3997 8.20119C23.8797 7.68119 23.0397 7.68119 22.5197 8.20119L15.9997 14.7079L9.47972 8.18785C8.95972 7.66785 8.11972 7.66785 7.59972 8.18785C7.07972 8.70785 7.07972 9.54785 7.59972 10.0679L14.1197 16.5879L7.59972 23.1079C7.07972 23.6279 7.07972 24.4679 7.59972 24.9879C8.11972 25.5079 8.95972 25.5079 9.47972 24.9879L15.9997 18.4679L22.5197 24.9879C23.0397 25.5079 23.8797 25.5079 24.3997 24.9879C24.9197 24.4679 24.9197 23.6279 24.3997 23.1079L17.8797 16.5879L24.3997 10.0679C24.9064 9.56119 24.9064 8.70785 24.3997 8.20119Z" fill="currentColor"/>
</svg>
