<svg width="29" height="26" viewBox="0 0 29 26" fill="none" xmlns="http://www.w3.org/2000/svg">
<path d="M15.8334 3.66667C15.8334 5.13943 12.5502 6.33333 8.50008 6.33333C4.44999 6.33333 1.16675 5.13943 1.16675 3.66667M15.8334 3.66667C15.8334 2.19391 12.5502 1 8.50008 1C4.44999 1 1.16675 2.19391 1.16675 3.66667M15.8334 3.66667V5.66667M1.16675 3.66667V19.6667C1.16675 21.1394 4.44999 22.3333 8.50008 22.3333M8.50008 11.6667C8.27535 11.6667 8.05299 11.663 7.83341 11.6558C4.09575 11.5333 1.16675 10.391 1.16675 9M8.50008 17C4.44999 17 1.16675 15.8061 1.16675 14.3333M27.8334 12.3333C27.8334 13.8061 24.5502 15 20.5001 15C16.45 15 13.1667 13.8061 13.1667 12.3333M27.8334 12.3333C27.8334 10.8606 24.5502 9.66667 20.5001 9.66667C16.45 9.66667 13.1667 10.8606 13.1667 12.3333M27.8334 12.3333V22.3333C27.8334 23.8061 24.5502 25 20.5001 25C16.45 25 13.1667 23.8061 13.1667 22.3333V12.3333M27.8334 17.3333C27.8334 18.8061 24.5502 20 20.5001 20C16.45 20 13.1667 18.8061 13.1667 17.3333" stroke="currentColor" stroke-width="2" stroke-linecap="round" stroke-linejoin="round"/>
</svg>
