<svg width="265" height="264" viewBox="0 0 265 264" fill="none" xmlns="http://www.w3.org/2000/svg">
<rect x="81.0403" y="24.1352" width="123.243" height="238.444" rx="20.1081" fill="white" stroke="#E1251B" stroke-width="1.2973"/>
<path d="M87.2683 45.2812C87.2683 37.0417 93.9477 30.3622 102.187 30.3622H183.139C191.378 30.3622 198.058 37.0416 198.058 45.2811V241.433C198.058 249.672 191.378 256.352 183.139 256.352H102.187C93.9477 256.352 87.2683 249.672 87.2683 241.433V45.2812Z" stroke="#E1251B" stroke-width="1.2973"/>
<path d="M109.452 30.2324L111.179 35.1986C112.63 39.3711 116.564 42.1675 120.981 42.1675H165.381C169.799 42.1675 173.733 39.3711 175.184 35.1986L176.911 30.2324" stroke="#E1251B" stroke-width="1.2973"/>
<rect x="130.208" y="34.9028" width="28.0217" height="2.07568" rx="1.03784" fill="#E1251B"/>
<circle cx="123.981" cy="35.9405" r="2.07568" fill="#E1251B"/>
<circle cx="163.418" cy="35.9406" r="1.03784" fill="#E1251B"/>
<path d="M113.438 78.1776C113.661 76.6075 114.026 76.6075 114.249 78.1776C114.472 79.7478 115.939 81.2149 117.509 81.4379C119.079 81.6609 119.079 82.0256 117.509 82.2486C115.939 82.4716 114.472 83.9387 114.249 85.5089C114.026 87.079 113.661 87.079 113.438 85.5089C113.215 83.9387 111.748 82.4716 110.178 82.2486C108.607 82.0256 108.607 81.6609 110.178 81.4379C111.748 81.2149 113.215 79.7478 113.438 78.1776Z" fill="#E1251B"/>
<path d="M23.2352 144.016C23.4582 142.445 23.823 142.445 24.046 144.016C24.2689 145.586 25.736 147.053 27.3062 147.276C28.8764 147.499 28.8764 147.864 27.3062 148.087C25.736 148.31 24.2689 149.777 24.046 151.347C23.823 152.917 23.4582 152.917 23.2352 151.347C23.0123 149.777 21.5452 148.31 19.975 148.087C18.4048 147.864 18.4048 147.499 19.975 147.276C21.5452 147.053 23.0123 145.586 23.2352 144.016Z" fill="#E1251B"/>
<path d="M167.661 219.028C167.84 217.766 168.133 217.766 168.312 219.028C168.492 220.289 169.67 221.468 170.932 221.647C172.194 221.827 172.194 222.12 170.932 222.299C169.67 222.478 168.492 223.657 168.312 224.919C168.133 226.181 167.84 226.181 167.661 224.919C167.482 223.657 166.303 222.478 165.041 222.299C163.779 222.12 163.779 221.827 165.041 221.647C166.303 221.468 167.482 220.289 167.661 219.028Z" fill="#E1251B"/>
<path d="M243.535 68.0703C240.483 68.0703 238 65.5873 238 62.535C238 59.4827 240.483 57 243.535 57C246.587 57 249.07 59.483 249.07 62.535C249.07 65.5869 246.587 68.0703 243.535 68.0703ZM243.535 58.3285C241.216 58.3285 239.329 60.2157 239.329 62.535C239.329 64.8543 241.216 66.7418 243.535 66.7418C245.855 66.7418 247.742 64.8546 247.742 62.535C247.742 60.2154 245.855 58.3285 243.535 58.3285Z" fill="#E1251B"/>
<path d="M27.2438 67.4865C25.4556 67.4865 24.0005 66.0316 24.0005 64.2432C24.0005 62.4547 25.4556 61 27.2438 61C29.0321 61 30.487 62.4549 30.487 64.2432C30.487 66.0314 29.0321 67.4865 27.2438 67.4865ZM27.2438 61.7784C25.8847 61.7784 24.7789 62.8842 24.7789 64.2432C24.7789 65.6021 25.8847 66.7081 27.2438 66.7081C28.603 66.7081 29.7085 65.6023 29.7085 64.2432C29.7085 62.884 28.6028 61.7784 27.2438 61.7784Z" fill="#E1251B"/>
<path d="M222.99 18.5141C223.277 16.4953 223.746 16.4953 224.032 18.5141C224.319 20.5329 226.205 22.4192 228.224 22.7059C230.243 22.9925 230.243 23.4615 228.224 23.7482C226.205 24.0349 224.319 25.9211 224.032 27.94C223.746 29.9588 223.277 29.9588 222.99 27.94C222.703 25.9211 220.817 24.0349 218.798 23.7482C216.779 23.4615 216.779 22.9925 218.798 22.7059C220.817 22.4192 222.703 20.5329 222.99 18.5141Z" fill="#E1251B"/>
<path d="M229.476 235.163C229.763 233.144 230.232 233.144 230.519 235.163C230.805 237.182 232.692 239.068 234.71 239.355C236.729 239.641 236.729 240.11 234.71 240.397C232.692 240.684 230.805 242.57 230.519 244.589C230.232 246.608 229.763 246.608 229.476 244.589C229.19 242.57 227.303 240.684 225.285 240.397C223.266 240.11 223.266 239.641 225.285 239.355C227.303 239.068 229.19 237.182 229.476 235.163Z" fill="#E1251B"/>
<path d="M232.615 194.328C238.682 194.998 244.144 190.62 244.814 184.549C245.485 178.479 241.11 173.014 235.043 172.344C228.976 171.674 223.514 176.052 222.844 182.123C222.173 188.193 226.548 193.657 232.615 194.328Z" fill="white"/>
<path d="M232.603 194.446C232.447 194.429 232.291 194.408 232.135 194.384C230.657 194.158 229.257 193.642 227.973 192.851C226.69 192.06 225.599 191.041 224.732 189.823C223.895 188.646 223.3 187.333 222.965 185.921C222.63 184.509 222.57 183.069 222.789 181.641C223.015 180.162 223.531 178.761 224.322 177.477C225.112 176.192 226.131 175.101 227.349 174.233C228.525 173.395 229.837 172.8 231.249 172.465C232.66 172.129 234.099 172.07 235.526 172.288C237.004 172.514 238.404 173.03 239.688 173.821C240.972 174.612 242.062 175.631 242.929 176.849C243.767 178.026 244.361 179.339 244.697 180.751C245.032 182.163 245.091 183.603 244.873 185.031C244.646 186.51 244.131 187.911 243.34 189.196L243.241 189.135L243.34 189.196C242.549 190.48 241.531 191.571 240.313 192.439C239.136 193.277 237.824 193.872 236.413 194.208C235.156 194.507 233.876 194.586 232.603 194.446L232.603 194.446ZM235.04 172.455C233.806 172.319 232.545 172.395 231.302 172.691C228.46 173.367 226.051 175.11 224.519 177.599C221.357 182.736 222.961 189.49 228.095 192.653C230.582 194.186 233.517 194.658 236.359 193.981C239.201 193.305 241.61 191.562 243.142 189.074C244.674 186.585 245.146 183.648 244.47 180.805C243.795 177.961 242.053 175.551 239.566 174.019C238.167 173.157 236.626 172.63 235.04 172.455L235.04 172.455Z" fill="#E1251B"/>
<path d="M232.669 193.156C231.235 192.997 229.843 192.522 228.578 191.742C226.33 190.357 224.756 188.179 224.146 185.609C223.535 183.04 223.962 180.386 225.346 178.136C226.731 175.887 228.908 174.312 231.476 173.701C234.045 173.09 236.697 173.516 238.945 174.901C241.193 176.286 242.767 178.464 243.377 181.034C243.988 183.604 243.561 186.258 242.177 188.507C240.792 190.756 238.615 192.332 236.047 192.943C234.923 193.21 233.783 193.279 232.669 193.156ZM234.836 173.726C231.241 173.328 227.564 174.977 225.544 178.258C224.192 180.455 223.776 183.046 224.372 185.556C224.968 188.065 226.505 190.192 228.7 191.544C230.895 192.897 233.485 193.313 235.993 192.717C238.501 192.12 240.627 190.582 241.979 188.385C244.77 183.851 243.354 177.891 238.823 175.099C237.571 174.327 236.21 173.877 234.836 173.726Z" fill="#E1251B"/>
<path d="M234.836 173.726C231.241 173.328 227.564 174.977 225.544 178.258C224.192 180.455 223.776 183.046 224.372 185.556C224.968 188.065 226.505 190.192 228.7 191.544C230.895 192.897 233.485 193.313 235.993 192.717C238.501 192.12 240.627 190.582 241.979 188.385C244.77 183.851 243.354 177.891 238.823 175.099C237.571 174.327 236.21 173.877 234.836 173.726Z" fill="#E1251B"/>
<path d="M236.196 180.136C236.766 180.492 237.246 180.916 237.637 181.409L236.984 182.469L236.499 182.17C236.594 181.818 236.596 181.511 236.504 181.25C236.413 180.988 236.222 180.761 235.93 180.568L234.478 182.927C234.801 183.428 235.023 183.836 235.145 184.15C235.267 184.464 235.323 184.765 235.313 185.052C235.303 185.339 235.21 185.626 235.033 185.914C234.704 186.447 234.303 186.767 233.827 186.873C233.352 186.979 232.809 186.876 232.199 186.563L231.637 187.475L231.128 187.161L231.683 186.259C231.396 186.073 231.108 185.848 230.818 185.583C230.527 185.319 230.292 185.07 230.111 184.837L230.775 183.758L231.265 184.06C231.137 184.445 231.125 184.777 231.23 185.056C231.336 185.335 231.572 185.597 231.94 185.842L233.504 183.301L233.418 183.167C233.116 182.697 232.911 182.321 232.8 182.039C232.69 181.757 232.639 181.485 232.646 181.223C232.654 180.962 232.737 180.702 232.896 180.444C233.049 180.195 233.232 180.001 233.444 179.861C233.657 179.721 233.885 179.63 234.13 179.587C234.375 179.544 234.63 179.546 234.893 179.594C235.157 179.642 235.415 179.727 235.668 179.851L236.245 178.915L236.755 179.229L236.196 180.136L236.196 180.136ZM233.896 183.807L232.459 186.141C232.783 186.296 233.084 186.33 233.364 186.242C233.643 186.155 233.88 185.953 234.075 185.635C234.248 185.354 234.319 185.071 234.287 184.785C234.256 184.5 234.125 184.173 233.896 183.807ZM234.089 182.417L235.411 180.268C235.108 180.131 234.816 180.099 234.535 180.171C234.253 180.244 234.031 180.412 233.868 180.677C233.705 180.942 233.642 181.207 233.68 181.471C233.718 181.736 233.854 182.051 234.089 182.417L234.089 182.417Z" fill="white"/>
<path d="M57.9017 23.0335C62.1637 26.9877 62.4149 33.6459 58.4634 37.9051C54.5119 42.1643 47.8535 42.4122 43.5914 38.458C39.3293 34.5038 39.0782 27.8455 43.0297 23.5863C46.9812 19.3272 53.6396 19.0793 57.9017 23.0335Z" fill="white" stroke="#E1251B"/>
<path d="M42.8331 22.7559L42.8331 22.7559L58.5887 38.6647L58.6591 38.7357C58.6591 38.7357 58.6591 38.7357 58.6591 38.7357C58.7717 38.6241 58.8816 38.5105 58.989 38.3948L58.989 38.3948C59.8658 37.4497 60.568 36.3677 61.0795 35.1726L60.9875 35.1333L61.0795 35.1726C61.6536 33.8311 61.9588 32.4141 61.9865 30.9612C62.0145 29.49 61.7553 28.0448 61.216 26.6644L61.2164 26.6642L61.1793 26.5716C61.1792 26.5715 61.1792 26.5714 61.1792 26.5714C61.1791 26.5713 61.1791 26.5712 61.1791 26.5711L61.142 26.4786L61.1416 26.4787C60.5786 25.1078 59.7682 23.8831 58.732 22.8376C57.7087 21.8053 56.5092 20.9903 55.1674 20.4154C53.8255 19.8406 52.4082 19.5345 50.9553 19.5061C49.4509 19.4766 47.9739 19.7474 46.5657 20.3109C45.1575 20.8743 43.9015 21.6969 42.8331 22.7559ZM42.8051 23.4019L42.8218 23.3839C43.894 22.2282 45.2184 21.315 46.7262 20.7117C49.4061 19.6395 52.3432 19.6752 54.9975 20.8123C57.6518 21.9494 59.7046 24.0514 60.7785 26.7318C61.8523 29.4122 61.8182 32.3492 60.6826 35.0027C59.5469 37.6563 57.446 39.7077 54.7661 40.78C49.2344 42.9933 42.9304 40.2927 40.7138 34.7599C39.64 32.0795 39.6741 29.1425 40.8097 26.489C41.3032 25.3358 41.979 24.2965 42.8051 23.4019Z" fill="#E1251B" stroke="#E1251B" stroke-width="0.2"/>
<path d="M41.9891 34.2756C40.5978 30.8028 41.4377 26.98 43.8277 24.4039C44.74 23.4205 45.8785 22.6188 47.2051 22.088C52.004 20.1679 57.4733 22.511 59.3963 27.311C60.3281 29.6367 60.2985 32.1841 59.3132 34.4864C58.3278 36.7887 56.5056 38.5681 54.1803 39.4985C51.8551 40.4289 49.3076 40.3979 47.0045 39.4113C44.7014 38.4246 42.9208 36.6013 41.9891 34.2756Z" stroke="#E1251B" stroke-width="0.5"/>
<path d="M48.4234 29.7688C48.5571 29.9441 48.7233 30.0902 48.9242 30.199C48.9719 30.2248 49.0215 30.2487 49.073 30.2708C48.9071 30.2112 48.7709 30.1355 48.6591 30.0474L48.6589 30.0472C48.572 29.9788 48.4924 29.8885 48.4234 29.7688ZM52.4289 30.8087C52.4074 30.7962 52.3855 30.784 52.3633 30.7723C52.4885 30.8292 52.5962 30.8951 52.6885 30.9686C52.7909 31.0503 52.8844 31.1587 52.9653 31.3019C52.8237 31.1024 52.6457 30.9353 52.4291 30.8088L52.4289 30.8087Z" fill="#E1251B" stroke="#E1251B"/>
<circle cx="81.5675" cy="206.219" r="33.3251" fill="white" stroke="#E1251B" stroke-width="5.63242"/>
<path d="M81.4748 261.786H80.8805C76.9507 261.786 73.0661 261.373 69.3009 260.545L71.1196 252.526L71.4273 251.17L70.0745 250.846C64.9627 249.621 60.1562 247.537 55.7622 244.641L54.605 243.878L53.8241 245.023L49.1728 251.844C41.2919 246.245 35.0813 239.036 31.1321 230.934L38.5066 227.358L39.7482 226.755L39.1712 225.502C36.922 220.616 35.5568 215.539 35.0967 210.386L34.9728 208.999L33.5839 209.108L25.4227 209.749C24.8083 200.101 26.5605 190.731 30.4903 182.554L37.8635 186.106L39.1103 186.706L39.7324 185.47C42.1113 180.743 45.2289 176.52 49.0156 172.893L50.02 171.931L49.0706 170.915L43.4458 164.894C46.3959 162.103 50.0196 159.545 54.8246 156.888L55.8951 156.349C57.7625 155.411 59.5831 154.497 61.5105 153.861L61.5172 153.859C61.9275 153.721 62.3336 153.572 62.7214 153.43C62.7551 153.418 62.7886 153.406 62.822 153.393L62.8242 153.393C63.5603 153.122 64.2779 152.863 64.9933 152.658L67.8651 151.931L69.6772 159.954L69.9866 161.324L71.3572 161.018C74.3871 160.342 77.6144 159.997 80.9628 159.997C82.9833 159.997 85.0137 160.127 87.0069 160.379L88.3753 160.552L88.5767 159.187L89.778 151.046C93.7622 151.609 98.1376 152.872 103.132 154.928C103.63 155.167 104.091 155.385 104.553 155.602C106.326 156.441 108.057 157.26 109.687 158.315L109.722 158.337L109.757 158.358C111.634 159.423 113.448 160.768 115.142 162.058L110.025 168.486L109.161 169.57L110.233 170.451C114.346 173.829 117.785 177.807 120.478 182.286L121.194 183.478L122.395 182.776L129.488 178.632L130.049 179.548L131.237 182.008L131.237 182.009L131.247 182.028C131.65 182.863 132.055 183.699 132.423 184.543C132.627 185.118 132.83 185.665 133.028 186.194C133.066 186.296 133.104 186.398 133.142 186.5L133.144 186.504C133.775 188.181 134.386 189.82 134.776 191.529L134.786 191.573L134.799 191.615C136.164 196.238 136.546 201.055 136.701 205.327H128.497H127.109L127.089 206.715C127.016 212.014 126.039 217.188 124.188 222.113L123.697 223.418L124.997 223.921L132.685 226.899C132.553 227.273 132.436 227.597 132.3 227.906L131.041 230.514C131.041 230.515 131.04 230.516 131.04 230.517C130.654 231.305 130.267 232.091 129.853 232.844C129.583 233.294 129.331 233.722 129.083 234.144L129.082 234.146C128.073 235.86 127.089 237.528 125.903 239.025L125.881 239.053L125.86 239.082C123.389 242.545 120.257 245.857 116.296 249.168L111.176 242.76L110.313 241.68L109.217 242.523C104.991 245.774 100.339 248.243 95.3772 249.874L94.0549 250.308L94.474 251.635L96.9602 259.509C91.8339 260.971 86.6195 261.731 81.4748 261.786ZM80.2287 169.929C75.1859 170.036 70.3919 171.173 66.0487 173.136L64.7935 171.782L64.7226 173.768C52.8422 179.729 44.6502 191.994 44.5638 206.148L44.5464 206.201L44.5631 206.427C44.5916 226.504 60.9325 242.828 81.0167 242.828C101.118 242.828 117.47 226.476 117.47 206.374C117.47 186.299 101.162 169.964 81.0978 169.921C80.829 169.894 80.5308 169.902 80.2287 169.929Z" fill="#E1251B" stroke="white" stroke-width="2.81621"/>
<mask id="path-24-inside-1_7539_92178" fill="white">
<path d="M80.8805 263.194C76.5972 263.194 72.3614 262.716 68.2648 261.753C67.9071 261.668 67.6823 261.31 67.7646 260.952L69.7464 252.215C64.4753 250.952 59.5177 248.802 54.9874 245.817L49.9158 253.253C49.8145 253.402 49.6594 253.503 49.4821 253.535C49.308 253.567 49.1243 253.529 48.9787 253.427C40.4057 247.491 33.6847 239.694 29.5438 230.877C29.3887 230.545 29.528 230.149 29.8573 229.988L37.8921 226.091C35.5779 221.063 34.1691 215.83 33.6942 210.512L24.792 211.211C24.6179 211.218 24.4374 211.167 24.3044 211.053C24.1683 210.939 24.086 210.771 24.0702 210.594C23.2787 200.191 25.1719 190.051 29.5502 181.272C29.7148 180.943 30.1105 180.807 30.4429 180.968L38.4746 184.837C40.9249 179.968 44.1382 175.615 48.0416 171.876L41.9221 165.326C41.6752 165.06 41.6815 164.646 41.9411 164.389C45.1038 161.283 48.9882 158.504 54.1675 155.642L55.2628 155.091C57.1148 154.16 59.027 153.198 61.0689 152.524C61.4931 152.381 61.9142 152.226 62.3384 152.071C63.0792 151.799 63.8485 151.52 64.6273 151.299L68.2521 150.38C68.4263 150.336 68.613 150.365 68.7682 150.46C68.9233 150.555 69.0309 150.707 69.0721 150.884L71.0507 159.644C74.188 158.944 77.5184 158.589 80.9628 158.589C83.0428 158.589 85.1322 158.722 87.1837 158.982L88.4911 150.121C88.5449 149.76 88.871 149.513 89.2351 149.554C93.5786 150.083 98.3146 151.419 103.706 153.641C104.213 153.885 104.681 154.107 105.153 154.328C106.913 155.161 108.73 156.019 110.452 157.133C112.649 158.38 114.745 159.982 116.594 161.394C116.736 161.505 116.831 161.667 116.854 161.844C116.876 162.024 116.825 162.205 116.714 162.344L111.127 169.363C115.362 172.842 118.908 176.942 121.685 181.56L129.4 177.052C129.716 176.869 130.118 176.97 130.311 177.28L131.286 178.873L132.505 181.396C132.917 182.247 133.344 183.131 133.734 184.027C133.977 184.717 134.221 185.363 134.462 186.008C135.089 187.674 135.734 189.399 136.149 191.216C137.65 196.297 137.995 201.565 138.134 206.045C138.14 206.225 138.071 206.402 137.944 206.532C137.818 206.662 137.643 206.735 137.463 206.735H128.497C128.421 212.196 127.415 217.53 125.506 222.608L133.86 225.844C134.202 225.977 134.373 226.357 134.25 226.698L134.072 227.199C133.917 227.639 133.765 228.076 133.579 228.497L132.306 231.134C131.916 231.928 131.511 232.751 131.074 233.546C130.802 233.999 130.549 234.429 130.296 234.86C129.295 236.56 128.263 238.314 127.006 239.9C124.331 243.648 120.925 247.2 116.613 250.733C116.474 250.847 116.296 250.904 116.116 250.882C115.939 250.863 115.774 250.774 115.663 250.632L110.076 243.639C105.726 246.985 100.933 249.53 95.8168 251.211L98.5299 259.803C98.5837 259.974 98.5679 260.161 98.4824 260.319C98.3969 260.478 98.2545 260.595 98.0803 260.649C92.3977 262.345 86.5948 263.197 80.8774 263.197L80.8805 263.194ZM69.2209 260.595C78.1643 262.57 87.7567 262.209 97.0451 259.55L94.3384 250.974C94.2846 250.803 94.3004 250.619 94.3827 250.461C94.465 250.303 94.6075 250.186 94.7784 250.132C100.189 248.438 105.235 245.76 109.775 242.17C110.066 241.939 110.484 241.989 110.715 242.277L116.29 249.255C120.26 245.94 123.423 242.61 125.939 239.086C127.158 237.548 128.168 235.832 129.146 234.173C129.403 233.739 129.659 233.302 129.919 232.872C130.327 232.128 130.707 231.355 131.106 230.535L132.363 227.93C132.515 227.591 132.645 227.224 132.774 226.857L124.404 223.612C124.236 223.548 124.103 223.419 124.03 223.257C123.958 223.093 123.954 222.909 124.021 222.741C126.11 217.426 127.168 211.813 127.168 206.057C127.168 205.687 127.469 205.386 127.839 205.386H136.776C136.627 201.147 136.25 196.262 134.857 191.545C134.452 189.776 133.822 188.095 133.211 186.471C132.964 185.815 132.721 185.16 132.489 184.505C132.129 183.675 131.708 182.808 131.302 181.969L130.115 179.503L129.517 178.531L121.792 183.045C121.637 183.134 121.457 183.159 121.283 183.115C121.112 183.071 120.963 182.957 120.874 182.805C118.025 177.901 114.289 173.586 109.778 169.98C109.49 169.749 109.442 169.328 109.67 169.037L115.245 162.034C113.51 160.714 111.712 159.378 109.765 158.27C108.087 157.184 106.387 156.383 104.589 155.531C104.118 155.31 103.643 155.085 103.168 154.854C98.1911 152.805 93.778 151.523 89.729 150.96L88.4215 159.821C88.3677 160.185 88.0194 160.435 87.6649 160.388C85.4646 160.077 83.2137 159.919 80.9723 159.919C77.3887 159.919 73.9379 160.312 70.712 161.09C70.5378 161.135 70.3542 161.103 70.2023 161.008C70.0503 160.913 69.9427 160.761 69.9015 160.587L67.9261 151.843L64.9882 152.587C64.2759 152.793 63.5636 153.049 62.8101 153.325C62.3796 153.483 61.9459 153.641 61.509 153.787C59.5557 154.433 57.6878 155.373 55.8802 156.281L54.8038 156.82C50.0139 159.466 46.3543 162.043 43.3658 164.883L49.4884 171.439C49.6087 171.569 49.6752 171.743 49.6689 171.921C49.6625 172.098 49.5866 172.266 49.4568 172.389C45.2937 176.267 41.9095 180.851 39.399 186.015C39.2375 186.347 38.8355 186.486 38.5062 186.325L30.4778 182.456C26.5078 190.694 24.7508 200.122 25.3808 209.815L34.2767 209.116C34.454 209.106 34.6313 209.16 34.7643 209.274C34.9004 209.391 34.9827 209.556 34.9954 209.733C35.4101 215.33 36.8948 220.842 39.4022 226.11C39.5605 226.442 39.4212 226.841 39.0888 227.002L31.0603 230.896C35.0302 239.067 41.2826 246.314 49.2067 251.93L54.2688 244.503C54.4777 244.199 54.8924 244.117 55.1995 244.326C59.9229 247.536 65.1401 249.799 70.7088 251.05C70.8829 251.088 71.0349 251.195 71.1299 251.347C71.2248 251.496 71.2565 251.68 71.2185 251.854L69.2399 260.592L69.2209 260.595Z"/>
</mask>
<path d="M80.8805 263.194C76.5972 263.194 72.3614 262.716 68.2648 261.753C67.9071 261.668 67.6823 261.31 67.7646 260.952L69.7464 252.215C64.4753 250.952 59.5177 248.802 54.9874 245.817L49.9158 253.253C49.8145 253.402 49.6594 253.503 49.4821 253.535C49.308 253.567 49.1243 253.529 48.9787 253.427C40.4057 247.491 33.6847 239.694 29.5438 230.877C29.3887 230.545 29.528 230.149 29.8573 229.988L37.8921 226.091C35.5779 221.063 34.1691 215.83 33.6942 210.512L24.792 211.211C24.6179 211.218 24.4374 211.167 24.3044 211.053C24.1683 210.939 24.086 210.771 24.0702 210.594C23.2787 200.191 25.1719 190.051 29.5502 181.272C29.7148 180.943 30.1105 180.807 30.4429 180.968L38.4746 184.837C40.9249 179.968 44.1382 175.615 48.0416 171.876L41.9221 165.326C41.6752 165.06 41.6815 164.646 41.9411 164.389C45.1038 161.283 48.9882 158.504 54.1675 155.642L55.2628 155.091C57.1148 154.16 59.027 153.198 61.0689 152.524C61.4931 152.381 61.9142 152.226 62.3384 152.071C63.0792 151.799 63.8485 151.52 64.6273 151.299L68.2521 150.38C68.4263 150.336 68.613 150.365 68.7682 150.46C68.9233 150.555 69.0309 150.707 69.0721 150.884L71.0507 159.644C74.188 158.944 77.5184 158.589 80.9628 158.589C83.0428 158.589 85.1322 158.722 87.1837 158.982L88.4911 150.121C88.5449 149.76 88.871 149.513 89.2351 149.554C93.5786 150.083 98.3146 151.419 103.706 153.641C104.213 153.885 104.681 154.107 105.153 154.328C106.913 155.161 108.73 156.019 110.452 157.133C112.649 158.38 114.745 159.982 116.594 161.394C116.736 161.505 116.831 161.667 116.854 161.844C116.876 162.024 116.825 162.205 116.714 162.344L111.127 169.363C115.362 172.842 118.908 176.942 121.685 181.56L129.4 177.052C129.716 176.869 130.118 176.97 130.311 177.28L131.286 178.873L132.505 181.396C132.917 182.247 133.344 183.131 133.734 184.027C133.977 184.717 134.221 185.363 134.462 186.008C135.089 187.674 135.734 189.399 136.149 191.216C137.65 196.297 137.995 201.565 138.134 206.045C138.14 206.225 138.071 206.402 137.944 206.532C137.818 206.662 137.643 206.735 137.463 206.735H128.497C128.421 212.196 127.415 217.53 125.506 222.608L133.86 225.844C134.202 225.977 134.373 226.357 134.25 226.698L134.072 227.199C133.917 227.639 133.765 228.076 133.579 228.497L132.306 231.134C131.916 231.928 131.511 232.751 131.074 233.546C130.802 233.999 130.549 234.429 130.296 234.86C129.295 236.56 128.263 238.314 127.006 239.9C124.331 243.648 120.925 247.2 116.613 250.733C116.474 250.847 116.296 250.904 116.116 250.882C115.939 250.863 115.774 250.774 115.663 250.632L110.076 243.639C105.726 246.985 100.933 249.53 95.8168 251.211L98.5299 259.803C98.5837 259.974 98.5679 260.161 98.4824 260.319C98.3969 260.478 98.2545 260.595 98.0803 260.649C92.3977 262.345 86.5948 263.197 80.8774 263.197L80.8805 263.194ZM69.2209 260.595C78.1643 262.57 87.7567 262.209 97.0451 259.55L94.3384 250.974C94.2846 250.803 94.3004 250.619 94.3827 250.461C94.465 250.303 94.6075 250.186 94.7784 250.132C100.189 248.438 105.235 245.76 109.775 242.17C110.066 241.939 110.484 241.989 110.715 242.277L116.29 249.255C120.26 245.94 123.423 242.61 125.939 239.086C127.158 237.548 128.168 235.832 129.146 234.173C129.403 233.739 129.659 233.302 129.919 232.872C130.327 232.128 130.707 231.355 131.106 230.535L132.363 227.93C132.515 227.591 132.645 227.224 132.774 226.857L124.404 223.612C124.236 223.548 124.103 223.419 124.03 223.257C123.958 223.093 123.954 222.909 124.021 222.741C126.11 217.426 127.168 211.813 127.168 206.057C127.168 205.687 127.469 205.386 127.839 205.386H136.776C136.627 201.147 136.25 196.262 134.857 191.545C134.452 189.776 133.822 188.095 133.211 186.471C132.964 185.815 132.721 185.16 132.489 184.505C132.129 183.675 131.708 182.808 131.302 181.969L130.115 179.503L129.517 178.531L121.792 183.045C121.637 183.134 121.457 183.159 121.283 183.115C121.112 183.071 120.963 182.957 120.874 182.805C118.025 177.901 114.289 173.586 109.778 169.98C109.49 169.749 109.442 169.328 109.67 169.037L115.245 162.034C113.51 160.714 111.712 159.378 109.765 158.27C108.087 157.184 106.387 156.383 104.589 155.531C104.118 155.31 103.643 155.085 103.168 154.854C98.1911 152.805 93.778 151.523 89.729 150.96L88.4215 159.821C88.3677 160.185 88.0194 160.435 87.6649 160.388C85.4646 160.077 83.2137 159.919 80.9723 159.919C77.3887 159.919 73.9379 160.312 70.712 161.09C70.5378 161.135 70.3542 161.103 70.2023 161.008C70.0503 160.913 69.9427 160.761 69.9015 160.587L67.9261 151.843L64.9882 152.587C64.2759 152.793 63.5636 153.049 62.8101 153.325C62.3796 153.483 61.9459 153.641 61.509 153.787C59.5557 154.433 57.6878 155.373 55.8802 156.281L54.8038 156.82C50.0139 159.466 46.3543 162.043 43.3658 164.883L49.4884 171.439C49.6087 171.569 49.6752 171.743 49.6689 171.921C49.6625 172.098 49.5866 172.266 49.4568 172.389C45.2937 176.267 41.9095 180.851 39.399 186.015C39.2375 186.347 38.8355 186.486 38.5062 186.325L30.4778 182.456C26.5078 190.694 24.7508 200.122 25.3808 209.815L34.2767 209.116C34.454 209.106 34.6313 209.16 34.7643 209.274C34.9004 209.391 34.9827 209.556 34.9954 209.733C35.4101 215.33 36.8948 220.842 39.4022 226.11C39.5605 226.442 39.4212 226.841 39.0888 227.002L31.0603 230.896C35.0302 239.067 41.2826 246.314 49.2067 251.93L54.2688 244.503C54.4777 244.199 54.8924 244.117 55.1995 244.326C59.9229 247.536 65.1401 249.799 70.7088 251.05C70.8829 251.088 71.0349 251.195 71.1299 251.347C71.2248 251.496 71.2565 251.68 71.2185 251.854L69.2399 260.592L69.2209 260.595Z" fill="#E1251B" stroke="white" stroke-width="0.375495" mask="url(#path-24-inside-1_7539_92178)"/>
<mask id="mask0_7539_92178" style="mask-type:luminance" maskUnits="userSpaceOnUse" x="6" y="64" width="107" height="173">
<path d="M112.077 203.662C111.138 225.932 98.2151 236.727 79.9554 236.727C64.2016 235.319 55.4169 226.498 51.5287 212.563H6V64H81.7884L79.2214 175.71C95.1799 174.771 109.261 184.628 112.077 203.662Z" fill="white"/>
</mask>
<g mask="url(#mask0_7539_92178)">
<path d="M50.972 136.099L45.0171 128.125L66.057 114.116L56.0721 96.1153L60.3111 93.5098L75.5418 117.75L50.972 136.099Z" fill="white"/>
<path d="M40.4447 136.844L45.2188 128.109L22.4155 117.203L29.7665 97.977L25.2046 95.9921L13.5386 122.138L40.4447 136.844Z" fill="white"/>
<path d="M50.9725 136.771C50.9408 136.771 50.9091 136.771 50.8775 136.764C50.7002 136.739 50.5419 136.644 50.4374 136.502L44.4826 128.527C44.3718 128.378 44.3274 128.191 44.3591 128.011C44.3908 127.83 44.4952 127.669 44.6472 127.568L65.1743 113.904L55.4869 96.4415C55.3128 96.1281 55.4173 95.7323 55.7212 95.5456L59.9602 92.9401C60.2736 92.747 60.6852 92.842 60.8783 93.1554L76.109 117.396C76.2957 117.694 76.2229 118.08 75.9443 118.289L51.3745 136.638C51.2574 136.723 51.1181 136.771 50.9725 136.771ZM45.9768 128.289L51.1086 135.159L74.6463 117.583L60.0963 94.428L56.9717 96.3497L66.6464 113.79C66.8173 114.097 66.7223 114.48 66.4311 114.673L45.9768 128.289Z" fill="#E1251B"/>
<path d="M40.4451 137.515C40.3343 137.515 40.2235 137.486 40.1222 137.432L13.2129 122.724C12.9058 122.556 12.7791 122.183 12.9216 121.863L24.5876 95.7196C24.7364 95.384 25.1289 95.2321 25.4677 95.3777L30.0296 97.3627C30.3589 97.5051 30.5171 97.8818 30.3905 98.2174L23.2611 116.867L45.5072 127.507C45.6718 127.587 45.7985 127.732 45.8555 127.906C45.9124 128.08 45.8935 128.274 45.8048 128.435L41.0308 137.169C40.9453 137.325 40.8028 137.442 40.6319 137.492C40.5717 137.511 40.5053 137.521 40.4419 137.521L40.4451 137.515ZM14.4032 121.844L40.1792 135.932L44.2916 128.407L22.1246 117.807C21.808 117.655 21.6624 117.288 21.789 116.962L28.9121 98.3314L25.5468 96.8688L14.4032 121.841V121.844Z" fill="#E1251B"/>
<path d="M51.2223 161.718L55.5581 161.411L53.2811 129.251L48.9453 129.558L51.2223 161.718Z" fill="#E1251B"/>
<path d="M39.4591 162.548L43.7949 162.241L41.5179 130.081L37.1821 130.388L39.4591 162.548Z" fill="#E1251B"/>
<path d="M40.2745 121.008C46.7359 118.156 54.2864 121.072 57.1451 127.543C59.9975 134.004 57.0723 141.561 50.6109 144.413C44.1495 147.265 36.5958 144.34 33.7403 137.879C30.8816 131.408 33.8131 123.861 40.2745 121.008ZM53.9476 128.951C51.8708 124.25 46.3877 122.126 41.6865 124.203C36.9852 126.279 34.861 131.763 36.9378 136.464C39.0114 141.155 44.4977 143.289 49.1989 141.212C53.9001 139.136 56.0181 133.643 53.9476 128.951Z" fill="#E1251B"/>
<path d="M41.6858 124.206C46.387 122.129 51.8702 124.253 53.9469 128.955C56.0205 133.646 53.8995 139.139 49.1982 141.216C44.497 143.293 39.0107 141.159 36.9371 136.467C34.8603 131.766 36.9846 126.283 41.6858 124.206ZM49.9169 130.734C48.8278 128.264 45.9343 127.144 43.465 128.236C40.9956 129.325 39.8749 132.219 40.9671 134.688C42.0562 137.157 44.9434 138.268 47.4127 137.176C49.8821 136.087 51.0059 133.203 49.9137 130.734H49.9169Z" fill="white"/>
<path d="M43.4649 128.233C45.9342 127.144 48.8246 128.261 49.9168 130.731C51.0058 133.2 49.8851 136.081 47.4158 137.173C44.9465 138.262 42.0592 137.154 40.9702 134.685C39.8812 132.215 40.9987 129.325 43.468 128.233H43.4649Z" fill="#E1251B"/>
<path d="M62.5609 195.693C63.5103 195.626 64.2041 194.769 64.0718 193.826L59.2238 159.289C59.1038 158.434 58.3423 157.818 57.4811 157.879L37.0686 159.323C36.2073 159.383 35.5401 160.101 35.5417 160.964L35.6047 195.84C35.6065 196.792 36.4141 197.543 37.3635 197.476L62.5609 195.693Z" fill="white" stroke="#E1251B" stroke-width="1.4081" stroke-linejoin="round"/>
<path d="M118.843 204.896C116.887 199.384 113.961 194.138 109.957 189.849C106.281 185.914 101.428 182.798 95.9954 182.14C89.2522 181.32 82.9079 183.986 76.7821 186.433C70.9633 188.757 64.0429 191.261 57.8411 188.87C57.113 188.589 56.2772 188.738 55.891 189.488C55.5617 190.121 55.7738 191.156 56.5083 191.438C62.1308 193.603 68.1363 192.581 73.6859 190.684C79.5427 188.684 85.1968 185.546 91.4493 184.958C96.9103 184.442 101.915 186.414 105.98 190.007C109.988 193.55 112.961 198.213 115.047 203.107C117.735 209.404 119.093 216.391 117.684 223.175C117.304 225.002 120.128 225.641 120.508 223.815C121.822 217.499 120.989 210.936 118.846 204.896H118.843Z" fill="#E1251B"/>
<path d="M102.096 238.725C99.6332 241.616 96.2236 243.224 92.6937 243.506C89.1797 243.784 85.5517 242.727 82.6708 240.267L40.9518 204.684C35.1806 199.761 34.4873 191.029 39.4101 185.258C41.8667 182.377 45.2826 180.76 48.7967 180.481C52.3266 180.202 55.9546 181.26 58.8355 183.716L100.554 219.3C106.316 224.217 107.013 232.964 102.096 238.725Z" fill="white"/>
<path d="M91.5753 244.221C88.1435 244.221 84.8638 243.021 82.2361 240.78L40.5172 205.196C37.5888 202.698 35.8096 199.2 35.5025 195.344C35.1955 191.488 36.4016 187.753 38.8994 184.824C41.3941 181.899 44.8923 180.117 48.7451 179.813C52.6105 179.512 56.3462 180.712 59.2714 183.206L100.99 218.79C103.916 221.285 105.692 224.783 105.999 228.642C106.306 232.501 105.1 236.237 102.608 239.162C100.113 242.087 96.6121 243.87 92.7498 244.177C92.3572 244.208 91.9678 244.224 91.5784 244.224L91.5753 244.221ZM49.9196 181.108C49.565 181.108 49.2073 181.12 48.8496 181.152C45.3545 181.43 42.1824 183.042 39.9188 185.698C37.6553 188.354 36.5599 191.741 36.8385 195.24C37.1171 198.738 38.7317 201.913 41.3846 204.177L83.1036 239.76C85.7565 242.024 89.1471 243.122 92.639 242.838C96.1467 242.559 99.322 240.944 101.586 238.291C106.277 232.792 105.619 224.501 100.12 219.809L58.4008 184.226C56.017 182.193 53.0411 181.104 49.9196 181.104V181.108Z" fill="#E1251B"/>
<path d="M49.8311 185.379C54.0416 186.338 56.6851 190.523 55.7258 194.743C54.7666 198.954 50.5751 201.594 46.3614 200.638C42.1509 199.679 39.5106 195.487 40.4667 191.273C41.4259 187.056 45.6174 184.423 49.8311 185.379ZM53.6396 194.268C54.3361 191.204 52.4207 188.161 49.3562 187.465C46.2917 186.768 43.2494 188.684 42.5529 191.748C41.8565 194.806 43.7718 197.855 46.8363 198.552C49.9008 199.248 52.9463 197.326 53.6396 194.268Z" fill="#E1251B"/>
<path d="M49.356 187.465C52.4205 188.161 54.3358 191.203 53.6393 194.268C52.9428 197.326 49.9005 199.248 46.836 198.551C43.7715 197.855 41.8562 194.806 42.5526 191.748C43.2491 188.683 46.2915 186.768 49.356 187.465ZM51.0117 193.669C51.3789 192.061 50.369 190.456 48.7576 190.089C47.1494 189.722 45.5443 190.732 45.1771 192.343C44.8099 193.951 45.8229 195.55 47.4311 195.917C49.0394 196.284 50.6444 195.281 51.0085 193.669H51.0117Z" fill="white"/>
<path d="M48.7576 190.089C50.3658 190.457 51.3757 192.062 51.0116 193.67C50.6444 195.278 49.0425 196.285 47.4343 195.918C45.826 195.55 44.813 193.952 45.1802 192.343C45.5475 190.735 47.1525 189.725 48.7607 190.089H48.7576Z" fill="#E1251B"/>
<path d="M87.4405 212.908C87.2854 212.908 87.1303 212.855 87.0036 212.747L63.0575 192.191C62.7757 191.951 62.7441 191.526 62.9847 191.245C63.2253 190.963 63.6495 190.931 63.9312 191.172L87.8774 211.727C88.1592 211.968 88.1908 212.392 87.9502 212.674C87.8172 212.829 87.6305 212.908 87.4405 212.908Z" fill="#E1251B"/>
<path d="M84.0121 241.011C83.1668 241.011 82.6666 240.944 82.5748 240.932C82.2076 240.878 81.9543 240.539 82.005 240.175C82.0588 239.808 82.3912 239.555 82.7616 239.605C82.8724 239.618 93.9844 241.008 106.432 228.142C106.692 227.876 107.116 227.87 107.382 228.126C107.648 228.382 107.654 228.807 107.398 229.076C96.9539 239.874 87.5261 241.014 84.0121 241.014V241.011Z" fill="#E1251B"/>
</g>
<path d="M160.785 114.11L160.302 114.611L160.785 114.11C159.758 113.12 159.024 112.412 158.506 111.807C157.995 111.21 157.745 110.769 157.638 110.333C157.503 109.787 157.503 109.217 157.638 108.672C157.745 108.236 157.995 107.795 158.506 107.198C159.024 106.593 159.758 105.884 160.785 104.895L160.302 104.394L160.785 104.895L161.001 104.687C161.038 104.651 161.074 104.616 161.111 104.581C162.234 103.499 162.941 102.819 163.326 101.965C163.544 101.483 163.682 100.968 163.735 100.442C163.827 99.5098 163.556 98.5678 163.124 97.0687C163.11 97.0203 163.096 96.9714 163.081 96.9218L162.998 96.6341C162.604 95.2634 162.322 94.2829 162.176 93.5C162.032 92.727 162.036 92.2205 162.161 91.7894C162.318 91.2497 162.603 90.7561 162.992 90.3507C163.303 90.0267 163.739 89.77 164.481 89.5083C165.232 89.2431 166.222 88.9968 167.606 88.6533L167.897 88.5812C167.947 88.5688 167.996 88.5565 168.045 88.5444C169.559 88.1691 170.511 87.9333 171.272 87.3869C171.702 87.0783 172.078 86.7017 172.387 86.2719C172.933 85.511 173.169 84.5594 173.544 83.045C173.557 82.9962 173.569 82.9467 173.581 82.8967L173.653 82.6061C173.997 81.2217 174.243 80.2317 174.508 79.4807C174.77 78.7393 175.027 78.3027 175.351 77.9919C175.756 77.6028 176.25 77.3178 176.789 77.1612C177.221 77.0361 177.727 77.0321 178.5 77.1761C179.283 77.322 180.263 77.6036 181.634 77.9984L181.922 78.0813C181.971 78.0955 182.02 78.1096 182.069 78.1236C183.568 78.5557 184.51 78.8273 185.442 78.7345C185.968 78.6822 186.483 78.5443 186.965 78.3264C187.819 77.9406 188.499 77.2345 189.581 76.1106C189.616 76.0744 189.651 76.0377 189.687 76.0006L189.895 75.785C190.884 74.7577 191.593 74.0236 192.198 73.5058C192.795 72.9946 193.236 72.7448 193.672 72.6376C194.217 72.5034 194.787 72.5034 195.333 72.6376C195.769 72.7448 196.21 72.9946 196.807 73.5058C197.412 74.0236 198.12 74.7577 199.11 75.785L199.318 76.0006L199.819 75.5181L199.318 76.0006C199.354 76.0377 199.389 76.0744 199.424 76.1106C200.506 77.2345 201.186 77.9406 202.04 78.3264C202.522 78.5443 203.036 78.6822 203.563 78.7345C204.495 78.8273 205.437 78.5557 206.936 78.1236C206.985 78.1096 207.034 78.0955 207.083 78.0813L207.371 77.9984C208.741 77.6036 209.722 77.322 210.505 77.1761C211.278 77.0321 211.784 77.0361 212.216 77.1612C212.755 77.3178 213.249 77.6028 213.654 77.9919C213.978 78.3027 214.235 78.7393 214.497 79.4807C214.762 80.2317 215.008 81.2217 215.352 82.6061L215.424 82.8967C215.436 82.9468 215.448 82.9962 215.46 83.0451C215.836 84.5595 216.072 85.511 216.618 86.2719C216.927 86.7017 217.303 87.0783 217.733 87.3869C218.494 87.9333 219.445 88.1691 220.96 88.5445C221.009 88.5566 221.058 88.5688 221.108 88.5812L221.399 88.6533C222.783 88.9968 223.773 89.2431 224.524 89.5083C225.266 89.77 225.702 90.0267 226.013 90.3507C226.402 90.7561 226.687 91.2497 226.844 91.7894C226.969 92.2205 226.973 92.727 226.829 93.5C226.683 94.2829 226.401 95.2634 226.006 96.6341L225.924 96.9218L225.881 97.0686C225.449 98.5678 225.178 99.5098 225.27 100.442C225.323 100.968 225.461 101.483 225.678 101.965C226.064 102.819 226.77 103.499 227.894 104.581L228.004 104.687L228.22 104.895C229.247 105.884 229.981 106.593 230.499 107.198C231.01 107.795 231.26 108.236 231.367 108.672C231.502 109.217 231.502 109.787 231.367 110.333C231.26 110.769 231.01 111.21 230.499 111.807C229.981 112.412 229.247 113.12 228.22 114.11L228.004 114.318C227.967 114.354 227.931 114.389 227.894 114.424C226.77 115.506 226.064 116.186 225.678 117.04C225.461 117.522 225.323 118.036 225.27 118.563C225.178 119.495 225.449 120.437 225.881 121.936L225.924 122.083L226.006 122.371C226.401 123.741 226.683 124.722 226.829 125.505C226.973 126.278 226.969 126.784 226.844 127.216C226.687 127.755 226.402 128.249 226.013 128.654C225.702 128.978 225.266 129.235 224.524 129.497C223.773 129.762 222.783 130.008 221.399 130.352L221.108 130.424C221.058 130.436 221.009 130.448 220.96 130.46C219.445 130.836 218.494 131.072 217.733 131.618C217.303 131.927 216.927 132.303 216.618 132.733C216.072 133.494 215.836 134.445 215.46 135.96C215.448 136.009 215.436 136.058 215.424 136.108L215.352 136.399C215.008 137.783 214.762 138.773 214.497 139.524C214.235 140.266 213.978 140.702 213.654 141.013C213.249 141.402 212.755 141.687 212.216 141.844C211.784 141.969 211.278 141.973 210.505 141.829C209.722 141.683 208.741 141.401 207.371 141.006L207.083 140.924L206.936 140.881C205.437 140.449 204.495 140.178 203.563 140.27C203.036 140.323 202.522 140.461 202.04 140.678C201.186 141.064 200.506 141.77 199.424 142.894C199.389 142.93 199.354 142.967 199.318 143.004L199.11 143.22C198.12 144.247 197.412 144.981 196.807 145.499C196.21 146.01 195.769 146.26 195.333 146.367C194.787 146.502 194.217 146.502 193.672 146.367C193.236 146.26 192.795 146.01 192.198 145.499C191.593 144.981 190.884 144.247 189.895 143.22L189.687 143.004L189.581 142.894C188.499 141.77 187.819 141.064 186.965 140.678C186.483 140.461 185.968 140.323 185.442 140.27C184.51 140.178 183.568 140.449 182.069 140.881L181.922 140.924L181.634 141.006C180.263 141.401 179.283 141.683 178.5 141.829C177.727 141.973 177.221 141.969 176.789 141.844C176.25 141.687 175.756 141.402 175.351 141.013C175.027 140.702 174.77 140.266 174.508 139.524C174.243 138.773 173.997 137.783 173.653 136.399L173.581 136.108C173.569 136.058 173.557 136.009 173.544 135.96C173.169 134.445 172.933 133.494 172.387 132.733C172.078 132.303 171.702 131.927 171.272 131.618C170.511 131.072 169.559 130.836 168.045 130.46C167.996 130.448 167.947 130.436 167.897 130.424L167.606 130.352C166.222 130.008 165.232 129.762 164.481 129.497C163.739 129.235 163.303 128.978 162.992 128.654C162.603 128.249 162.318 127.755 162.161 127.216C162.036 126.784 162.032 126.278 162.176 125.505C162.322 124.722 162.604 123.741 162.998 122.371L163.081 122.083C163.096 122.034 163.11 121.985 163.124 121.936C163.556 120.437 163.827 119.495 163.735 118.563C163.682 118.036 163.544 117.522 163.326 117.04C162.941 116.186 162.234 115.506 161.111 114.424C161.074 114.389 161.038 114.354 161.001 114.318L160.785 114.11Z" fill="white" stroke="#E1251B" stroke-width="1.39093"/>
<path d="M195.916 78.8115L196.198 78.1759L195.916 78.8115C196.192 78.9341 196.482 79.1356 196.884 79.5014C197.291 79.8709 197.775 80.3723 198.45 81.0738L198.523 81.1491C199.264 81.9186 199.729 82.401 200.275 82.7311C201.063 83.2077 201.971 83.4509 202.892 83.4323C203.53 83.4194 204.173 83.234 205.2 82.9381L205.3 82.9092C206.236 82.6396 206.906 82.4472 207.443 82.3305C207.974 82.215 208.326 82.1855 208.627 82.2173C209.605 82.3209 210.493 82.8339 211.072 83.6292C211.25 83.8733 211.4 84.193 211.566 84.711C211.733 85.2344 211.901 85.9104 212.136 86.8557L212.161 86.9573C212.418 87.9942 212.579 88.6443 212.887 89.2033L213.496 88.8678L212.887 89.2033C213.332 90.0102 213.996 90.6745 214.803 91.1189C215.362 91.4268 216.012 91.588 217.049 91.845L217.15 91.8702C218.096 92.1047 218.772 92.2728 219.295 92.4403C219.813 92.606 220.133 92.7566 220.377 92.9342C221.172 93.5129 221.685 94.4015 221.789 95.3796C221.821 95.6798 221.791 96.0319 221.676 96.5634C221.559 97.1004 221.367 97.7699 221.097 98.7059L221.068 98.8064C220.772 99.8329 220.587 100.476 220.574 101.115C220.555 102.036 220.798 102.943 221.275 103.731C221.605 104.277 222.088 104.742 222.857 105.483L222.932 105.556C223.634 106.232 224.135 106.715 224.505 107.122C224.871 107.524 225.072 107.815 225.195 108.09C225.594 108.989 225.594 110.015 225.195 110.914C225.072 111.19 224.871 111.48 224.505 111.883C224.135 112.29 223.634 112.773 222.932 113.449L222.857 113.521C222.088 114.263 221.605 114.727 221.275 115.273C220.798 116.062 220.555 116.969 220.574 117.89C220.587 118.528 220.772 119.172 221.068 120.198L221.097 120.299C221.367 121.235 221.559 121.904 221.676 122.441C221.791 122.973 221.821 123.325 221.789 123.625C221.685 124.603 221.172 125.492 220.377 126.07C220.133 126.248 219.813 126.399 219.295 126.564C218.772 126.732 218.096 126.9 217.15 127.134L217.049 127.16C216.012 127.417 215.362 127.578 214.803 127.886C213.996 128.33 213.332 128.994 212.887 129.801C212.579 130.36 212.418 131.01 212.161 132.047L212.136 132.149C211.901 133.094 211.733 133.77 211.566 134.294C211.4 134.812 211.25 135.131 211.072 135.375C210.493 136.171 209.605 136.684 208.627 136.787C208.326 136.819 207.974 136.79 207.443 136.674C206.906 136.557 206.236 136.365 205.3 136.095L205.2 136.066C204.173 135.771 203.53 135.585 202.892 135.572C201.971 135.554 201.063 135.797 200.275 136.274C199.729 136.604 199.264 137.086 198.523 137.855L198.45 137.931C197.775 138.632 197.291 139.134 196.884 139.503C196.482 139.869 196.192 140.071 195.916 140.193C195.017 140.593 193.991 140.593 193.092 140.193C192.816 140.071 192.526 139.869 192.123 139.503C191.717 139.134 191.233 138.632 190.557 137.931L190.485 137.855C189.744 137.086 189.279 136.604 188.733 136.274C187.945 135.797 187.037 135.554 186.116 135.572C185.478 135.585 184.834 135.771 183.808 136.066L183.707 136.095C182.771 136.365 182.102 136.557 181.565 136.674C181.033 136.79 180.681 136.819 180.381 136.787C179.403 136.684 178.514 136.171 177.936 135.375C177.758 135.131 177.607 134.812 177.442 134.294C177.274 133.77 177.106 133.094 176.872 132.149L176.847 132.047C176.589 131.01 176.428 130.36 176.12 129.801C175.676 128.994 175.012 128.33 174.205 127.886L173.869 128.495L174.205 127.886C173.646 127.578 172.996 127.417 171.959 127.16L171.857 127.134C170.912 126.9 170.236 126.732 169.713 126.564C169.194 126.399 168.875 126.248 168.631 126.07C167.835 125.492 167.322 124.603 167.219 123.625C167.187 123.325 167.216 122.973 167.332 122.441C167.449 121.904 167.641 121.235 167.911 120.299L167.94 120.198C168.235 119.172 168.421 118.528 168.434 117.89C168.452 116.969 168.209 116.062 167.733 115.273C167.402 114.727 166.92 114.263 166.151 113.521L166.075 113.449C165.374 112.773 164.872 112.29 164.503 111.883C164.137 111.48 163.936 111.19 163.813 110.914L163.177 111.197L163.813 110.914C163.414 110.015 163.414 108.989 163.813 108.09C163.936 107.815 164.137 107.524 164.503 107.122C164.872 106.715 165.374 106.232 166.075 105.556C166.101 105.531 166.126 105.507 166.151 105.483C166.92 104.742 167.402 104.277 167.733 103.731C168.209 102.943 168.452 102.036 168.434 101.115C168.421 100.476 168.235 99.8329 167.94 98.8064C167.93 98.7733 167.92 98.7398 167.911 98.7059C167.641 97.7699 167.449 97.1004 167.332 96.5634C167.216 96.0319 167.187 95.6798 167.219 95.3796C167.322 94.4015 167.835 93.5129 168.631 92.9342C168.875 92.7566 169.194 92.606 169.713 92.4403C170.236 92.2728 170.912 92.1047 171.857 91.8702C171.892 91.8617 171.925 91.8533 171.959 91.845C172.996 91.588 173.646 91.4268 174.205 91.1189C175.012 90.6745 175.676 90.0102 176.12 89.2033C176.428 88.6443 176.589 87.9942 176.847 86.9573C176.855 86.9239 176.863 86.89 176.872 86.8557C177.106 85.9104 177.274 85.2344 177.442 84.711C177.607 84.193 177.758 83.8733 177.936 83.6292C178.514 82.8339 179.403 82.3209 180.381 82.2173C180.681 82.1855 181.033 82.215 181.565 82.3305C182.102 82.4472 182.771 82.6396 183.707 82.9092C183.741 82.919 183.775 82.9286 183.808 82.9381C184.834 83.234 185.478 83.4194 186.116 83.4323C187.037 83.4509 187.945 83.2077 188.733 82.7311C189.279 82.401 189.744 81.9185 190.485 81.1491C190.509 81.1243 190.533 81.0992 190.557 81.0738C191.233 80.3723 191.717 79.8709 192.123 79.5014C192.526 79.1356 192.816 78.9341 193.092 78.8115C193.991 78.4121 195.017 78.4121 195.916 78.8115Z" fill="#E1251B" stroke="white" stroke-width="1.39093"/>
<path d="M209 102L194.533 116.28L189.022 108.12L178 119" stroke="white" stroke-width="4" stroke-linecap="round" stroke-linejoin="round"/>
<path d="M202 102H209V109" stroke="white" stroke-width="4" stroke-linecap="round" stroke-linejoin="round"/>
</svg>
