<svg width="32" height="32" viewBox="0 0 32 32" fill="none" xmlns="http://www.w3.org/2000/svg">
<path d="M17.8182 11.9554V13.5917H12.9091C12.0411 13.5917 11.2087 13.9365 10.5949 14.5503C9.98117 15.164 9.63636 15.9965 9.63636 16.8645V20.1372C9.63636 21.0052 9.98117 21.8376 10.5949 22.4513C11.2087 23.0651 12.0411 23.4099 12.9091 23.4099H21.0909C21.9589 23.4099 22.7913 23.0651 23.4051 22.4513C24.0188 21.8376 24.3636 21.0052 24.3636 20.1372V16.8645C24.3636 16.29 24.2124 15.7256 23.9252 15.2281C23.6379 14.7306 23.2248 14.3175 22.7273 14.0303V12.2335C24.6336 12.9077 26 14.7257 26 16.8628V20.1355C26 21.4375 25.4828 22.6862 24.5622 23.6068C23.6415 24.5274 22.3929 25.0446 21.0909 25.0446H12.9091C11.6071 25.0446 10.3585 24.5274 9.43784 23.6068C8.51721 22.6862 8 21.4375 8 20.1355V16.8645C8 15.5625 8.51721 14.3138 9.43784 13.3932C10.3585 12.4726 11.6071 11.9554 12.9091 11.9554H17.8182Z" fill="currentColor"/>
<path d="M10.1818 17.0455V15.4091H15.0909C15.9589 15.4091 16.7913 15.0643 17.4051 14.4505C18.0188 13.8368 18.3636 13.0043 18.3636 12.1364V8.86364C18.3636 7.99565 18.0188 7.16322 17.4051 6.54947C16.7913 5.93571 15.9589 5.59091 15.0909 5.59091H6.90909C6.04111 5.59091 5.20868 5.93571 4.59492 6.54947C3.98117 7.16322 3.63636 7.99565 3.63636 8.86364V12.1364C3.63638 12.7108 3.78761 13.2752 4.07485 13.7727C4.36209 14.2702 4.77522 14.6833 5.27273 14.9705V16.7673C4.31533 16.4285 3.48651 15.8013 2.90039 14.9719C2.31428 14.1426 1.99971 13.1519 2 12.1364V8.86364C2 7.56166 2.51721 6.31302 3.43784 5.39238C4.35847 4.47175 5.60712 3.95454 6.90909 3.95454H15.0909C16.3929 3.95454 17.6415 4.47175 18.5622 5.39238C19.4828 6.31302 20 7.56166 20 8.86364V12.1364C20 13.4383 19.4828 14.687 18.5622 15.6076C17.6415 16.5282 16.3929 17.0455 15.0909 17.0455H10.1818Z" fill="currentColor"/>
</svg>
