<svg width="21" height="20" viewBox="0 0 21 20" fill="none" xmlns="http://www.w3.org/2000/svg">
<path d="M13.8333 10.75V14.25C13.8333 17.1667 12.6666 18.3334 9.74996 18.3334H6.24996C3.33329 18.3334 2.16663 17.1667 2.16663 14.25V10.75C2.16663 7.83335 3.33329 6.66669 6.24996 6.66669H9.74996C12.6666 6.66669 13.8333 7.83335 13.8333 10.75Z" fill="currentColor"/>
<path d="M14.75 1.66669H11.25C8.64814 1.66669 7.44544 2.60176 7.21572 4.86724C7.17358 5.28279 7.51629 5.62502 7.93398 5.62502H9.75005C13.25 5.62502 14.875 7.25002 14.875 10.75V12.5661C14.875 12.9838 15.2173 13.3265 15.6328 13.2843C17.8983 13.0546 18.8334 11.8519 18.8334 9.25002V5.75002C18.8334 2.83335 17.6667 1.66669 14.75 1.66669Z" fill="currentColor"/>
</svg>
