<svg width="21" height="20" viewBox="0 0 21 20" fill="none" xmlns="http://www.w3.org/2000/svg">
<path d="M13.8337 10.75V14.25C13.8337 17.1667 12.667 18.3333 9.75033 18.3333H6.25033C3.33366 18.3333 2.16699 17.1667 2.16699 14.25V10.75C2.16699 7.83332 3.33366 6.66666 6.25033 6.66666H9.75033C12.667 6.66666 13.8337 7.83332 13.8337 10.75Z" stroke="currentColor" stroke-width="1.5" stroke-linecap="round" stroke-linejoin="round"/>
<path d="M18.8337 5.74999V9.24999C18.8337 12.1667 17.667 13.3333 14.7503 13.3333H13.8337V10.75C13.8337 7.83332 12.667 6.66666 9.75033 6.66666H7.16699V5.74999C7.16699 2.83332 8.33366 1.66666 11.2503 1.66666H14.7503C17.667 1.66666 18.8337 2.83332 18.8337 5.74999Z" stroke="currentColor" stroke-width="1.5" stroke-linecap="round" stroke-linejoin="round"/>
</svg>
