<svg width="101" height="100" viewBox="0 0 101 100" fill="none" xmlns="http://www.w3.org/2000/svg">
<rect x="29.1207" y="7.62656" width="46.6831" height="90.3195" rx="7.61672" fill="white" stroke="#E1251B" stroke-width="0.491401"/>
<path d="M31.4801 15.6361C31.4801 12.515 34.0102 9.98496 37.1312 9.98496H67.7946C70.9156 9.98496 73.4457 12.515 73.4457 15.6361V89.9359C73.4457 93.0569 70.9156 95.587 67.7946 95.587H37.1312C34.0102 95.587 31.4801 93.0569 31.4801 89.9359V15.6361Z" stroke="#E1251B" stroke-width="0.491401"/>
<path d="M39.8828 9.93652L40.5371 11.8177C41.0869 13.3982 42.5768 14.4574 44.2501 14.4574H61.0683C62.7417 14.4574 64.2316 13.3982 64.7813 11.8177L65.4357 9.93652" stroke="#E1251B" stroke-width="0.491401"/>
<rect x="47.7461" y="11.7051" width="10.6143" height="0.786242" rx="0.393121" fill="#E1251B"/>
<circle cx="45.3878" cy="12.0987" r="0.786242" fill="#E1251B"/>
<circle cx="60.3267" cy="12.0982" r="0.393121" fill="#E1251B"/>
<path d="M59.7982 21.5857C59.8827 20.991 60.0208 20.991 60.1053 21.5857C60.1898 22.1805 60.7455 22.7362 61.3402 22.8207C61.935 22.9051 61.935 23.0433 61.3402 23.1278C60.7455 23.2122 60.1898 23.7679 60.1053 24.3627C60.0208 24.9575 59.8827 24.9575 59.7982 24.3627C59.7138 23.7679 59.158 23.2122 58.5633 23.1278C57.9685 23.0433 57.9685 22.9051 58.5633 22.8207C59.158 22.7362 59.7138 22.1805 59.7982 21.5857Z" fill="#E1251B"/>
<path d="M7.22008 53.0359C7.30453 52.4412 7.44272 52.4412 7.52717 53.0359C7.61163 53.6307 8.16734 54.1864 8.76211 54.2709C9.35688 54.3553 9.35688 54.4935 8.76211 54.578C8.16734 54.6624 7.61163 55.2181 7.52717 55.8129C7.44272 56.4077 7.30453 56.4077 7.22008 55.8129C7.13563 55.2181 6.57991 54.6624 5.98514 54.578C5.39037 54.4935 5.39037 54.3553 5.98514 54.2709C6.57991 54.1864 7.13563 53.6307 7.22008 53.0359Z" fill="#E1251B"/>
<path d="M61.925 81.4503C61.9929 80.9723 62.1039 80.9723 62.1718 81.4503C62.2397 81.9282 62.6862 82.3748 63.1642 82.4426C63.6421 82.5105 63.6421 82.6215 63.1642 82.6894C62.6862 82.7572 62.2397 83.2038 62.1718 83.6817C62.1039 84.1597 61.9929 84.1597 61.925 83.6817C61.8572 83.2038 61.4106 82.7572 60.9327 82.6894C60.4547 82.6215 60.4547 82.5105 60.9327 82.4426C61.4106 82.3748 61.8572 81.9282 61.925 81.4503Z" fill="#E1251B"/>
<path d="M87.7334 33.1962C86.5774 33.1962 85.6367 32.2557 85.6367 31.0995C85.6367 29.9433 86.5774 29.0029 87.7334 29.0029C88.8895 29.0029 89.83 29.9435 89.83 31.0995C89.83 32.2556 88.8895 33.1962 87.7334 33.1962ZM87.7334 29.5062C86.8548 29.5062 86.1399 30.221 86.1399 31.0995C86.1399 31.978 86.8548 32.693 87.7334 32.693C88.6121 32.693 89.3268 31.9782 89.3268 31.0995C89.3268 30.2209 88.6119 29.5062 87.7334 29.5062Z" fill="#E1251B"/>
<path d="M6.27542 21.1396C5.59805 21.1396 5.04688 20.5885 5.04688 19.9111C5.04688 19.2336 5.59805 18.6826 6.27542 18.6826C6.95279 18.6826 7.50388 19.2337 7.50388 19.9111C7.50388 20.5885 6.95279 21.1396 6.27542 21.1396ZM6.27542 18.9775C5.76059 18.9775 5.34174 19.3963 5.34174 19.9111C5.34174 20.4258 5.76059 20.8448 6.27542 20.8448C6.79025 20.8448 7.20902 20.4259 7.20902 19.9111C7.20902 19.3963 6.79017 18.9775 6.27542 18.9775Z" fill="#E1251B"/>
<path d="M82.884 5.49736C82.9925 4.73265 83.1702 4.73265 83.2788 5.49736C83.3874 6.26206 84.1019 6.97656 84.8666 7.08514C85.6313 7.19372 85.6313 7.37138 84.8666 7.47996C84.1019 7.58855 83.3874 8.30305 83.2788 9.06775C83.1702 9.83245 82.9925 9.83245 82.884 9.06775C82.7754 8.30305 82.0609 7.58855 81.2962 7.47996C80.5315 7.37138 80.5315 7.19372 81.2962 7.08514C82.0609 6.97656 82.7754 6.26206 82.884 5.49736Z" fill="#E1251B"/>
<path d="M85.341 87.5608C85.4496 86.7961 85.6272 86.7961 85.7358 87.5608C85.8444 88.3255 86.5589 89.04 87.3236 89.1486C88.0883 89.2572 88.0883 89.4349 87.3236 89.5434C86.5589 89.652 85.8444 90.3665 85.7358 91.1312C85.6272 91.8959 85.4496 91.8959 85.341 91.1312C85.2324 90.3665 84.5179 89.652 83.7532 89.5434C82.9885 89.4349 82.9885 89.2572 83.7532 89.1486C84.5179 89.04 85.2324 88.3255 85.341 87.5608Z" fill="#E1251B"/>
<mask id="path-14-inside-1_12519_222902" fill="white">
<path fill-rule="evenodd" clip-rule="evenodd" d="M38.654 22.3506C33.3567 22.3506 29.0625 26.6448 29.0625 31.942V44.3545C29.0625 49.6517 33.3567 53.946 38.654 53.946C43.9512 53.946 48.2454 49.6517 48.2454 44.3545V31.942C48.2454 26.6448 43.9512 22.3506 38.654 22.3506ZM38.6541 24.8896C34.7591 24.8896 31.6016 28.0472 31.6016 31.9422V44.3547C31.6016 48.2497 34.7591 51.4072 38.6541 51.4072C42.5491 51.4072 45.7066 48.2497 45.7066 44.3547V31.9422C45.7066 28.0472 42.5491 24.8896 38.6541 24.8896Z"/>
</mask>
<path fill-rule="evenodd" clip-rule="evenodd" d="M38.654 22.3506C33.3567 22.3506 29.0625 26.6448 29.0625 31.942V44.3545C29.0625 49.6517 33.3567 53.946 38.654 53.946C43.9512 53.946 48.2454 49.6517 48.2454 44.3545V31.942C48.2454 26.6448 43.9512 22.3506 38.654 22.3506ZM38.6541 24.8896C34.7591 24.8896 31.6016 28.0472 31.6016 31.9422V44.3547C31.6016 48.2497 34.7591 51.4072 38.6541 51.4072C42.5491 51.4072 45.7066 48.2497 45.7066 44.3547V31.9422C45.7066 28.0472 42.5491 24.8896 38.6541 24.8896Z" fill="white"/>
<path d="M29.4624 31.942C29.4624 26.8657 33.5776 22.7505 38.654 22.7505V21.9506C33.1359 21.9506 28.6626 26.4239 28.6626 31.942H29.4624ZM29.4624 44.3545V31.942H28.6626V44.3545H29.4624ZM38.654 53.546C33.5776 53.546 29.4624 49.4308 29.4624 44.3545H28.6626C28.6626 49.8726 33.1359 54.3459 38.654 54.3459V53.546ZM47.8455 44.3545C47.8455 49.4308 43.7303 53.546 38.654 53.546V54.3459C44.1721 54.3459 48.6454 49.8726 48.6454 44.3545H47.8455ZM47.8455 31.942V44.3545H48.6454V31.942H47.8455ZM38.654 22.7505C43.7303 22.7505 47.8455 26.8657 47.8455 31.942H48.6454C48.6454 26.4239 44.1721 21.9506 38.654 21.9506V22.7505ZM32.0015 31.9422C32.0015 28.2681 34.98 25.2896 38.6541 25.2896V24.4897C34.5382 24.4897 31.2016 27.8263 31.2016 31.9422H32.0015ZM32.0015 44.3547V31.9422H31.2016V44.3547H32.0015ZM38.6541 51.0073C34.98 51.0073 32.0015 48.0288 32.0015 44.3547H31.2016C31.2016 48.4706 34.5382 51.8071 38.6541 51.8071V51.0073ZM45.3067 44.3547C45.3067 48.0288 42.3282 51.0073 38.6541 51.0073V51.8071C42.77 51.8071 46.1066 48.4706 46.1066 44.3547H45.3067ZM45.3067 31.9422V44.3547H46.1066V31.9422H45.3067ZM38.6541 25.2896C42.3282 25.2896 45.3067 28.2681 45.3067 31.9422H46.1066C46.1066 27.8263 42.77 24.4897 38.6541 24.4897V25.2896Z" fill="#E1251B" mask="url(#path-14-inside-1_12519_222902)"/>
<rect x="25.8797" y="34.6795" width="27.8102" height="19.0651" rx="3.3995" fill="#E1251B" stroke="#E1251B" stroke-width="0.399942"/>
<rect x="23.6218" y="34.6795" width="27.8102" height="19.0651" rx="3.3995" fill="white" stroke="#E1251B" stroke-width="0.399942"/>
<path fill-rule="evenodd" clip-rule="evenodd" d="M38.7188 44.1153C39.2566 43.7503 39.6099 43.1338 39.6099 42.4348C39.6099 41.3139 38.7012 40.4053 37.5803 40.4053C36.4594 40.4053 35.5508 41.3139 35.5508 42.4348C35.5508 43.1338 35.9041 43.7503 36.4419 44.1153L35.5508 48.3037H39.6099L38.7188 44.1153Z" fill="#E1251B"/>
<path d="M16.2846 76.3055C16.2846 76.4395 16.3934 76.5491 16.5264 76.5491H30.5433C30.6763 76.5491 30.7852 76.4395 30.7852 76.3055V64.7292C30.7852 64.662 30.731 64.6074 30.6642 64.6074H16.5264C16.3934 64.6074 16.2846 64.717 16.2846 64.851V76.3055Z" fill="white"/>
<path d="M30.6379 76.5684H16.6482C16.438 76.5684 16.2672 76.3963 16.2672 76.1849V64.759C16.2672 64.5477 16.438 64.3756 16.6482 64.3756H30.7586C30.9023 64.3756 31.0189 64.4932 31.0189 64.6375V76.1849C31.0189 76.3963 30.8482 76.5684 30.6379 76.5684ZM30.7397 76.1849V64.6565H16.6482C16.5922 64.6565 16.5465 64.7024 16.5465 64.759V76.1849C16.5465 76.2416 16.5922 76.2875 16.6482 76.2875H30.6379C30.6939 76.2875 30.7397 76.2416 30.7397 76.1849Z" fill="#E1251B" stroke="#E1251B" stroke-width="0.0378788"/>
<mask id="path-21-outside-2_12519_222902" maskUnits="userSpaceOnUse" x="16.7188" y="64.6729" width="14" height="11" fill="black">
<rect fill="white" x="16.7188" y="64.6729" width="14" height="11"/>
<path d="M17.594 75.4821H29.4753C29.6095 75.4821 29.7188 75.3732 29.7188 75.2394V67.6684C29.7188 67.6016 29.6907 67.5389 29.6419 67.4961C29.5931 67.4533 29.527 67.4338 29.4606 67.4424C29.4604 67.4424 29.4142 67.4481 29.3354 67.4481C28.5688 67.4481 27.9451 66.8264 27.9451 66.0622C27.9451 65.9815 27.9515 65.9309 27.9516 65.9304C27.9606 65.8645 27.9412 65.7985 27.8984 65.7497C27.8556 65.7009 27.7926 65.6729 27.7255 65.6729H19.3729C19.3059 65.6729 19.2428 65.7009 19.2 65.7497C19.1572 65.7985 19.1379 65.8645 19.1468 65.9307C19.1468 65.9309 19.1533 65.9814 19.1533 66.0622C19.1533 66.8264 18.5296 67.4481 17.763 67.4481C17.6759 67.4481 17.6124 67.4392 17.6103 67.439C17.544 67.4293 17.4774 67.4479 17.4282 67.4904C17.3789 67.5328 17.3506 67.5956 17.3506 67.6627V75.2394C17.3506 75.3732 17.4598 75.4821 17.594 75.4821H17.594ZM29.4753 67.6849V75.2394H17.594V67.6815C17.6237 67.685 17.6857 67.6908 17.763 67.6908C18.6639 67.6908 19.3967 66.9602 19.3967 66.0622C19.3967 65.9927 19.3926 65.9409 19.39 65.9156H27.7083C27.7057 65.941 27.7016 65.9927 27.7016 66.0622C27.7016 66.9602 28.4345 67.6908 29.3353 67.6908C29.4033 67.6908 29.4513 67.6872 29.4753 67.6849H29.4753Z"/>
</mask>
<path d="M17.594 75.4821H29.4753C29.6095 75.4821 29.7188 75.3732 29.7188 75.2394V67.6684C29.7188 67.6016 29.6907 67.5389 29.6419 67.4961C29.5931 67.4533 29.527 67.4338 29.4606 67.4424C29.4604 67.4424 29.4142 67.4481 29.3354 67.4481C28.5688 67.4481 27.9451 66.8264 27.9451 66.0622C27.9451 65.9815 27.9515 65.9309 27.9516 65.9304C27.9606 65.8645 27.9412 65.7985 27.8984 65.7497C27.8556 65.7009 27.7926 65.6729 27.7255 65.6729H19.3729C19.3059 65.6729 19.2428 65.7009 19.2 65.7497C19.1572 65.7985 19.1379 65.8645 19.1468 65.9307C19.1468 65.9309 19.1533 65.9814 19.1533 66.0622C19.1533 66.8264 18.5296 67.4481 17.763 67.4481C17.6759 67.4481 17.6124 67.4392 17.6103 67.439C17.544 67.4293 17.4774 67.4479 17.4282 67.4904C17.3789 67.5328 17.3506 67.5956 17.3506 67.6627V75.2394C17.3506 75.3732 17.4598 75.4821 17.594 75.4821H17.594ZM29.4753 67.6849V75.2394H17.594V67.6815C17.6237 67.685 17.6857 67.6908 17.763 67.6908C18.6639 67.6908 19.3967 66.9602 19.3967 66.0622C19.3967 65.9927 19.3926 65.9409 19.39 65.9156H27.7083C27.7057 65.941 27.7016 65.9927 27.7016 66.0622C27.7016 66.9602 28.4345 67.6908 29.3353 67.6908C29.4033 67.6908 29.4513 67.6872 29.4753 67.6849H29.4753Z" fill="#E1251B"/>
<path d="M29.6419 67.4961L29.6169 67.5246L29.6169 67.5246L29.6419 67.4961ZM29.4606 67.4424L29.4655 67.4803H29.4606V67.4424ZM27.9516 65.9304L27.914 65.9257L27.9141 65.9253L27.9516 65.9304ZM19.1468 65.9307L19.1847 65.9256V65.9307H19.1468ZM17.6103 67.439L17.6053 67.4765L17.6049 67.4764L17.6103 67.439ZM17.4282 67.4904L17.4529 67.5191L17.4529 67.5191L17.4282 67.4904ZM29.4753 67.6849V67.647H29.5132V67.6849H29.4753ZM29.4753 75.2394H29.5132V75.2772H29.4753V75.2394ZM17.594 75.2394V75.2772H17.5561V75.2394H17.594ZM17.594 67.6815H17.5561V67.639L17.5983 67.6439L17.594 67.6815ZM19.39 65.9156L19.3523 65.9194L19.3481 65.8777H19.39V65.9156ZM27.7083 65.9156V65.8777H27.7502L27.746 65.9194L27.7083 65.9156ZM29.4753 67.6849L29.4716 67.647H29.4753V67.6849ZM17.594 75.4442H29.4753V75.52H17.594V75.4442ZM29.4753 75.4442C29.5887 75.4442 29.6809 75.3522 29.6809 75.2394H29.7566C29.7566 75.3942 29.6304 75.52 29.4753 75.52V75.4442ZM29.6809 75.2394V67.6684H29.7566V75.2394H29.6809ZM29.6809 67.6684C29.6809 67.6122 29.6573 67.56 29.6169 67.5246L29.6668 67.4676C29.7241 67.5178 29.7566 67.5911 29.7566 67.6684H29.6809ZM29.6169 67.5246C29.5766 67.4892 29.5215 67.4727 29.4655 67.48L29.4557 67.4048C29.5326 67.3948 29.6096 67.4174 29.6669 67.4676L29.6169 67.5246ZM29.4606 67.4803C29.4613 67.4803 29.4624 67.4802 29.4627 67.4802C29.463 67.4802 29.4634 67.4802 29.4635 67.4802C29.4638 67.4801 29.4641 67.4801 29.4642 67.4801C29.4644 67.4801 29.4645 67.4801 29.4646 67.4801C29.4646 67.4801 29.4647 67.4801 29.4647 67.4801C29.4646 67.4801 29.4645 67.4801 29.4643 67.4801C29.4639 67.4801 29.4633 67.4802 29.4625 67.4803C29.4609 67.4805 29.4586 67.4807 29.4556 67.481C29.4497 67.4816 29.4411 67.4823 29.43 67.483C29.4078 67.4845 29.3757 67.486 29.3354 67.486V67.4102C29.3739 67.4102 29.4043 67.4088 29.4249 67.4075C29.4353 67.4068 29.4432 67.4061 29.4484 67.4056C29.451 67.4053 29.453 67.4051 29.4543 67.405C29.4549 67.4049 29.4554 67.4049 29.4558 67.4048C29.4559 67.4048 29.4561 67.4048 29.4562 67.4048C29.4563 67.4048 29.4564 67.4048 29.4565 67.4047C29.4566 67.4047 29.4568 67.4047 29.457 67.4047C29.4571 67.4047 29.4573 67.4047 29.4577 67.4046C29.4578 67.4046 29.4582 67.4046 29.4584 67.4046C29.4588 67.4046 29.4599 67.4045 29.4606 67.4045V67.4803ZM29.3354 67.486C28.548 67.486 27.9072 66.8474 27.9072 66.0622H27.9829C27.9829 66.8053 28.5896 67.4102 29.3354 67.4102V67.486ZM27.9072 66.0622C27.9072 66.0208 27.9088 65.9871 27.9105 65.9635C27.9114 65.9517 27.9122 65.9425 27.9129 65.936C27.9132 65.9328 27.9135 65.9303 27.9137 65.9286C27.9138 65.9277 27.9139 65.927 27.9139 65.9265C27.914 65.926 27.914 65.9257 27.914 65.9257L27.9892 65.9351C27.9892 65.9352 27.9891 65.9359 27.9889 65.9373C27.9888 65.9387 27.9885 65.9408 27.9882 65.9437C27.9877 65.9494 27.9869 65.9579 27.9861 65.9689C27.9845 65.9909 27.9829 66.0228 27.9829 66.0622H27.9072ZM27.9141 65.9253C27.9216 65.8699 27.9052 65.815 27.8699 65.7747L27.9269 65.7247C27.9771 65.782 27.9995 65.8591 27.9891 65.9355L27.9141 65.9253ZM27.8699 65.7747C27.8346 65.7344 27.7821 65.7107 27.7255 65.7107V65.635C27.8031 65.635 27.8766 65.6674 27.9269 65.7247L27.8699 65.7747ZM27.7255 65.7107H19.3729V65.635H27.7255V65.7107ZM19.3729 65.7107C19.3164 65.7107 19.2639 65.7343 19.2285 65.7747L19.1715 65.7247C19.2218 65.6674 19.2954 65.635 19.3729 65.635V65.7107ZM19.2285 65.7747C19.1932 65.815 19.1768 65.8699 19.1844 65.9256L19.1093 65.9358C19.0989 65.8591 19.1213 65.7821 19.1715 65.7247L19.2285 65.7747ZM19.1847 65.9307C19.1847 65.9299 19.1847 65.9286 19.1846 65.9282C19.1846 65.928 19.1846 65.9276 19.1846 65.9274C19.1845 65.9271 19.1845 65.9269 19.1845 65.9268C19.1845 65.9266 19.1845 65.9265 19.1845 65.9265C19.1845 65.9264 19.1845 65.9264 19.1845 65.9264C19.1845 65.9266 19.1845 65.9265 19.1845 65.9269C19.1846 65.9273 19.1847 65.928 19.1847 65.9288C19.1849 65.9305 19.1852 65.933 19.1855 65.9362C19.1862 65.9425 19.187 65.9518 19.1879 65.9635C19.1896 65.9871 19.1912 66.0208 19.1912 66.0622H19.1155C19.1155 66.0228 19.1139 65.9909 19.1123 65.9689C19.1115 65.958 19.1107 65.9495 19.1102 65.9438C19.1099 65.941 19.1096 65.9388 19.1095 65.9374C19.1094 65.9367 19.1093 65.9362 19.1093 65.9358C19.1093 65.9358 19.1092 65.9354 19.1092 65.9354C19.1092 65.9353 19.1092 65.9352 19.1092 65.9351C19.1092 65.935 19.1092 65.9349 19.1092 65.9347C19.1092 65.9346 19.1091 65.9344 19.1091 65.9341C19.1091 65.9339 19.1091 65.9335 19.109 65.9333C19.109 65.9329 19.109 65.9316 19.109 65.9307H19.1847ZM19.1912 66.0622C19.1912 66.8474 18.5504 67.486 17.763 67.486V67.4102C18.5088 67.4102 19.1155 66.8053 19.1155 66.0622H19.1912ZM17.763 67.486C17.7182 67.486 17.6795 67.4837 17.6516 67.4814C17.6377 67.4802 17.6265 67.4791 17.6185 67.4781C17.6145 67.4777 17.6114 67.4773 17.6091 67.477C17.608 67.4769 17.6071 67.4768 17.6064 67.4767C17.6062 67.4766 17.6049 67.4765 17.6053 67.4765L17.6154 67.4014C17.6167 67.4016 17.6783 67.4102 17.763 67.4102V67.486ZM17.6049 67.4764C17.5489 67.4683 17.4935 67.4841 17.4529 67.5191L17.4034 67.4617C17.4613 67.4117 17.5391 67.3903 17.6158 67.4015L17.6049 67.4764ZM17.4529 67.5191C17.4122 67.554 17.3885 67.6062 17.3885 67.6627H17.3127C17.3127 67.585 17.3455 67.5115 17.4035 67.4617L17.4529 67.5191ZM17.3885 67.6627V75.2394H17.3127V67.6627H17.3885ZM17.3885 75.2394C17.3885 75.3522 17.4806 75.4442 17.594 75.4442V75.52C17.439 75.52 17.3127 75.3942 17.3127 75.2394H17.3885ZM17.594 75.52H17.594V75.4442H17.594V75.52ZM29.5132 67.6849V75.2394H29.4374V67.6849H29.5132ZM29.4753 75.2772H17.594V75.2015H29.4753V75.2772ZM17.5561 75.2394V67.6815H17.6319V75.2394H17.5561ZM17.5983 67.6439C17.6271 67.6472 17.6875 67.6529 17.763 67.6529V67.7287C17.6839 67.7287 17.6204 67.7227 17.5897 67.7192L17.5983 67.6439ZM17.763 67.6529C18.6431 67.6529 19.3589 66.9392 19.3589 66.0622H19.4346C19.4346 66.9812 18.6847 67.7287 17.763 67.7287V67.6529ZM19.3589 66.0622C19.3589 65.9942 19.3548 65.9437 19.3523 65.9194L19.4277 65.9118C19.4304 65.9381 19.4346 65.9912 19.4346 66.0622H19.3589ZM19.39 65.8777H27.7083V65.9534H19.39V65.8777ZM27.746 65.9194C27.7435 65.9437 27.7394 65.9942 27.7394 66.0622H27.6637C27.6637 65.9912 27.6679 65.9382 27.6706 65.9118L27.746 65.9194ZM27.7394 66.0622C27.7394 66.9392 28.4553 67.6529 29.3353 67.6529V67.7287C28.4137 67.7287 27.6637 66.9813 27.6637 66.0622H27.7394ZM29.3353 67.6529C29.4019 67.6529 29.4488 67.6494 29.4716 67.6472L29.479 67.7226C29.4539 67.725 29.4046 67.7287 29.3353 67.7287V67.6529ZM29.4753 67.647H29.4753V67.7228H29.4753V67.647Z" fill="#E1251B" mask="url(#path-21-outside-2_12519_222902)"/>
<path d="M12.6827 68.0195H26.6996C26.8331 68.0195 26.9414 68.1286 26.9414 68.2631V79.7176C26.9414 79.8521 26.8331 79.9612 26.6996 79.9612H12.6827C12.5491 79.9612 12.4408 79.8521 12.4408 79.7176V68.2631C12.4408 68.1286 12.5491 68.0195 12.6827 68.0195Z" fill="white"/>
<path d="M26.7942 79.9805H12.8045C12.5943 79.9805 12.4235 79.8084 12.4235 79.597V68.1711C12.4235 67.9598 12.5943 67.7877 12.8045 67.7877H26.7942C27.0044 67.7877 27.1752 67.9598 27.1752 68.1711V79.597C27.1752 79.8084 27.0044 79.9805 26.7942 79.9805ZM26.8959 68.1711C26.8959 68.1145 26.8502 68.0686 26.7942 68.0686H12.8045C12.7485 68.0686 12.7027 68.1145 12.7027 68.1711V79.597C12.7027 79.6537 12.7485 79.6996 12.8045 79.6996H26.7942C26.8502 79.6996 26.8959 79.6537 26.8959 79.597V68.1711Z" fill="#E1251B" stroke="#E1251B" stroke-width="0.0378788"/>
<path d="M13.7705 70.852L13.773 70.8332L13.7731 70.8333C13.7769 70.8338 13.8388 70.8422 13.9232 70.8422C14.6794 70.8422 15.2946 70.2289 15.2946 69.4752C15.2946 69.4354 15.2929 69.4031 15.2913 69.3807C15.2905 69.3695 15.2897 69.3609 15.2891 69.355L15.2884 69.3483L15.2882 69.3466L15.2882 69.3463L15.2882 69.3461L15.2882 69.346C15.2786 69.2746 15.2995 69.2032 15.346 69.1502L15.346 69.1502C15.3925 69.0972 15.4607 69.067 15.533 69.067H23.8857C23.958 69.067 24.0262 69.0972 24.0727 69.1502C24.1193 69.2033 24.1402 69.2748 24.1306 69.3461L24.1118 69.3435L24.1306 69.3459C24.1306 69.3459 24.129 69.3583 24.1274 69.3807C24.1258 69.403 24.1242 69.4354 24.1242 69.4752C24.1242 70.2289 24.7393 70.8422 25.4956 70.8422C25.5345 70.8422 25.5653 70.8408 25.5864 70.8394C25.5969 70.8387 25.605 70.838 25.6104 70.8375L25.6165 70.8369L25.618 70.8367L25.6185 70.8366L25.6185 70.8366C25.6901 70.8273 25.7615 70.8485 25.8145 70.8949L25.8146 70.8949C25.8676 70.9413 25.8978 71.0094 25.8978 71.0814V78.6524C25.8978 78.7968 25.7801 78.9141 25.6355 78.9141H13.7999L13.7999 78.9141H13.7542C13.6096 78.9141 13.4918 78.7968 13.4918 78.6524V71.0758C13.4918 71.0033 13.5223 70.9352 13.5759 70.889L13.5883 70.9034L13.5759 70.889C13.6295 70.8429 13.7016 70.8228 13.7732 70.8333L13.7705 70.852ZM13.7705 70.852L13.7706 70.852C13.7748 70.8526 13.8376 70.8611 13.9232 70.8611C14.6898 70.8611 15.3135 70.2394 15.3135 69.4752C15.3135 69.3992 15.3077 69.35 15.307 69.3443C15.307 69.344 15.307 69.3438 15.307 69.3438M13.7705 70.852L15.307 69.3438M15.307 69.3438C15.298 69.2775 15.3174 69.2115 15.3602 69.1627L15.307 69.3438ZM13.7731 78.6335H25.6165V71.1186C25.5893 71.1206 25.5483 71.1228 25.4955 71.1228C24.5842 71.1228 23.8428 70.3838 23.8428 69.4752C23.8428 69.4204 23.8453 69.3765 23.8477 69.3475H15.5709C15.5733 69.3765 15.5758 69.4204 15.5758 69.4752C15.5758 70.3837 14.8344 71.1228 13.9231 71.1228C13.8601 71.1228 13.8071 71.1189 13.7731 71.1156V78.6335Z" fill="#E1251B" stroke="#E1251B" stroke-width="0.0378788"/>
<path d="M21.3437 91.6365H9.24496V76.8525C9.24496 75.1617 10.6257 73.7783 12.3132 73.7783H39.8692C41.5568 73.7783 42.9375 75.1617 42.9375 76.8525V94.8007C42.9375 96.4915 41.5568 97.8749 39.8692 97.8749H12.3132C11.3958 97.8749 10.5691 97.4662 10.0056 96.8212H21.3437C22.7216 96.8212 23.849 95.6916 23.849 94.3111V94.1467C23.849 92.7661 22.7216 91.6365 21.3437 91.6365ZM38.683 78.6101C38.683 78.424 38.531 78.2717 38.3452 78.2717H13.9524C13.7666 78.2717 13.6145 78.424 13.6145 78.6101V78.7974C13.6145 78.9835 13.7665 79.1358 13.9524 79.1358H38.3452C38.531 79.1358 38.683 78.9836 38.683 78.7974V78.6101ZM38.3452 83.6868C38.531 83.6868 38.683 83.5345 38.683 83.3483V83.1611C38.683 82.9749 38.531 82.8226 38.3452 82.8226H13.9524C13.7666 82.8226 13.6145 82.9749 13.6145 83.1611V83.3483C13.6145 83.5345 13.7665 83.6868 13.9524 83.6868H38.3452Z" fill="url(#paint0_linear_12519_222902)"/>
<path d="M12.1934 98.0881H39.7759C41.5192 98.0881 42.9375 96.6666 42.9375 94.9193V76.9471C42.9375 75.1998 41.5192 73.7783 39.7759 73.7783H12.1934C10.45 73.7783 9.03179 75.1999 9.03179 76.9471V91.8414H21.2326C22.5655 91.8414 23.6499 92.9284 23.6499 94.2643V94.429C23.6499 95.765 22.5655 96.8519 21.2326 96.8519H9.68431L9.81549 97.0021C10.4183 97.6923 11.2849 98.0881 12.1934 98.0881ZM39.7759 73.9594C41.4196 73.9594 42.7568 75.2997 42.7568 76.9471V94.9192C42.7568 96.5667 41.4196 97.907 39.7759 97.907H12.1934C11.4053 97.907 10.6503 97.5908 10.0919 97.033H21.2326C22.6651 97.033 23.8306 95.8648 23.8306 94.429V94.2643C23.8306 92.8285 22.6651 91.6603 21.2326 91.6603H9.21245V76.9471C9.21245 75.2997 10.5497 73.9594 12.1933 73.9594H39.7759ZM13.8341 83.8811H38.2505C38.4867 83.8811 38.6789 83.6884 38.6789 83.4516V83.2641C38.6789 83.0273 38.4868 82.8346 38.2505 82.8346H13.8341C13.5978 82.8346 13.4056 83.0273 13.4056 83.2641V83.4516C13.4056 83.6884 13.5978 83.8811 13.8341 83.8811ZM38.2505 83.0158C38.3871 83.0158 38.4983 83.1272 38.4983 83.2641V83.4517C38.4983 83.5886 38.3871 83.7 38.2505 83.7H13.8341C13.6974 83.7 13.5863 83.5886 13.5863 83.4517V83.2641C13.5863 83.1272 13.6974 83.0158 13.8341 83.0158H38.2505ZM13.8341 79.3241H38.2505C38.4867 79.3241 38.6789 79.1314 38.6789 78.8946V78.7071C38.6789 78.4703 38.4868 78.2776 38.2505 78.2776H13.8341C13.5978 78.2776 13.4056 78.4703 13.4056 78.7071V78.8946C13.4056 79.1314 13.5978 79.3241 13.8341 79.3241ZM38.2505 78.4588C38.3871 78.4588 38.4983 78.5702 38.4983 78.7071V78.8946C38.4983 79.0316 38.3871 79.143 38.2505 79.143H13.8341C13.6974 79.143 13.5863 79.0316 13.5863 78.8946V78.7071C13.5863 78.5702 13.6974 78.4588 13.8341 78.4588H38.2505Z" fill="white"/>
<path d="M12.1934 98.0881H39.7759C41.5192 98.0881 42.9375 96.6666 42.9375 94.9193V76.9471C42.9375 75.1998 41.5192 73.7783 39.7759 73.7783H12.1934C10.45 73.7783 9.03179 75.1999 9.03179 76.9471V91.8414H21.2326C22.5655 91.8414 23.6499 92.9284 23.6499 94.2643V94.429C23.6499 95.765 22.5655 96.8519 21.2326 96.8519H9.68431L9.81549 97.0021C10.4183 97.6923 11.2849 98.0881 12.1934 98.0881ZM39.7759 73.9594C41.4196 73.9594 42.7568 75.2997 42.7568 76.9471V94.9192C42.7568 96.5667 41.4196 97.907 39.7759 97.907H12.1934C11.4053 97.907 10.6503 97.5908 10.0919 97.033H21.2326C22.6651 97.033 23.8306 95.8648 23.8306 94.429V94.2643C23.8306 92.8285 22.6651 91.6603 21.2326 91.6603H9.21245V76.9471C9.21245 75.2997 10.5497 73.9594 12.1933 73.9594H39.7759ZM13.8341 83.8811H38.2505C38.4867 83.8811 38.6789 83.6884 38.6789 83.4516V83.2641C38.6789 83.0273 38.4868 82.8346 38.2505 82.8346H13.8341C13.5978 82.8346 13.4056 83.0273 13.4056 83.2641V83.4516C13.4056 83.6884 13.5978 83.8811 13.8341 83.8811ZM38.2505 83.0158C38.3871 83.0158 38.4983 83.1272 38.4983 83.2641V83.4517C38.4983 83.5886 38.3871 83.7 38.2505 83.7H13.8341C13.6974 83.7 13.5863 83.5886 13.5863 83.4517V83.2641C13.5863 83.1272 13.6974 83.0158 13.8341 83.0158H38.2505ZM13.8341 79.3241H38.2505C38.4867 79.3241 38.6789 79.1314 38.6789 78.8946V78.7071C38.6789 78.4703 38.4868 78.2776 38.2505 78.2776H13.8341C13.5978 78.2776 13.4056 78.4703 13.4056 78.7071V78.8946C13.4056 79.1314 13.5978 79.3241 13.8341 79.3241ZM38.2505 78.4588C38.3871 78.4588 38.4983 78.5702 38.4983 78.7071V78.8946C38.4983 79.0316 38.3871 79.143 38.2505 79.143H13.8341C13.6974 79.143 13.5863 79.0316 13.5863 78.8946V78.7071C13.5863 78.5702 13.6974 78.4588 13.8341 78.4588H38.2505Z" stroke="white"/>
<path d="M13.7261 79.3221H38.2417C38.4789 79.3221 38.6719 79.1258 38.6719 78.8845V78.6934C38.6719 78.4522 38.4789 78.2559 38.2417 78.2559H13.7261C13.4889 78.2559 13.2959 78.4522 13.2959 78.6934V78.8845C13.2959 79.1258 13.4889 79.3221 13.7261 79.3221ZM38.2417 78.4404C38.3788 78.4404 38.4905 78.5539 38.4905 78.6935V78.8845C38.4905 79.0241 38.3788 79.1376 38.2417 79.1376H13.7261C13.5889 79.1376 13.4773 79.0241 13.4773 78.8845V78.6935C13.4773 78.5539 13.5889 78.4404 13.7261 78.4404H38.2417Z" fill="url(#paint1_linear_12519_222902)"/>
<path d="M13.8482 82.7334H38.3328C38.5201 82.7334 38.6719 82.883 38.6719 83.0675V83.2523C38.6719 83.4368 38.5201 83.5864 38.3328 83.5864H13.8482C13.6609 83.5864 13.5091 83.4368 13.5091 83.2523V83.0675C13.5091 82.883 13.6609 82.7334 13.8482 82.7334Z" fill="white"/>
<path d="M9.02805 91.668V94.9044C9.02805 95.6939 9.31878 96.4174 9.79744 96.971H21.2666C22.6604 96.971 23.8008 95.8157 23.8008 94.4036V94.2354C23.8008 92.8233 22.6604 91.668 21.2666 91.668H9.02805Z" fill="white"/>
<path d="M20.7596 95.5287C20.053 95.5287 19.4801 94.9558 19.4801 94.2492C19.4801 93.5426 20.053 92.9697 20.7596 92.9697C21.4662 92.9697 22.0391 93.5426 22.0391 94.2492C22.0391 94.9558 21.4662 95.5287 20.7596 95.5287Z" fill="white"/>
<path d="M20.653 95.7419C21.4173 95.7419 22.0391 95.1201 22.0391 94.3558C22.0391 93.5915 21.4173 92.9697 20.653 92.9697C19.8887 92.9697 19.2669 93.5915 19.2669 94.3558C19.2669 95.1202 19.8887 95.7419 20.653 95.7419ZM20.653 93.1468C21.3196 93.1468 21.8619 93.6892 21.8619 94.3558C21.8619 95.0225 21.3196 95.5648 20.653 95.5648C19.9863 95.5648 19.444 95.0224 19.444 94.3558C19.444 93.6892 19.9863 93.1468 20.653 93.1468Z" fill="url(#paint2_linear_12519_222902)"/>
<rect x="13.1953" y="78.0303" width="25.7576" height="1.51515" rx="0.757576" fill="white"/>
<rect x="13.1953" y="82.5762" width="25.7576" height="1.51515" rx="0.757576" fill="white"/>
<path d="M67.5078 68.0818L67.2938 68.2355L67.5078 68.0818C67.3909 67.919 67.2483 67.7764 67.0855 67.6595L66.9318 67.8735L67.0855 67.6595C66.7973 67.4525 66.4368 67.3632 65.8632 67.221C65.8447 67.2164 65.8259 67.2118 65.807 67.2071L65.6969 67.1798C65.1725 67.0497 64.7975 66.9564 64.5131 66.8559C64.2322 66.7568 64.0668 66.6595 63.9491 66.5368C63.8017 66.3833 63.6938 66.1963 63.6345 65.9919C63.5871 65.8286 63.5855 65.6367 63.6401 65.3439C63.6954 65.0474 63.802 64.676 63.9516 64.1568L63.983 64.0478C63.9884 64.029 63.9937 64.0105 63.999 63.9922C64.1627 63.4243 64.2655 63.0675 64.2304 62.7144C64.2106 62.5149 64.1584 62.3201 64.0758 62.1374C63.9297 61.8141 63.6622 61.5565 63.2365 61.1466C63.2228 61.1333 63.2089 61.12 63.1948 61.1064L63.1132 61.0277C62.724 60.6529 62.446 60.3845 62.2498 60.1553C62.0562 59.9291 61.9616 59.7621 61.921 59.597C61.8701 59.3903 61.8701 59.1744 61.921 58.9677C61.9616 58.8026 62.0562 58.6357 62.2498 58.4094C62.446 58.1802 62.724 57.9119 63.1132 57.537L63.1948 57.4583C63.2089 57.4448 63.2228 57.4314 63.2365 57.4182C63.6622 57.0082 63.9297 56.7507 64.0758 56.4273C64.1584 56.2447 64.2106 56.0498 64.2304 55.8504C64.2655 55.4973 64.1627 55.1405 63.999 54.5726C63.9937 54.5543 63.9884 54.5358 63.983 54.517L63.9516 54.408C63.802 53.8888 63.6954 53.5174 63.6401 53.2208C63.5855 52.9281 63.5871 52.7362 63.6345 52.5729C63.6938 52.3685 63.8017 52.1815 63.9491 52.0279C64.0668 51.9052 64.2322 51.808 64.5131 51.7088C64.7975 51.6084 65.1725 51.5151 65.6969 51.385L65.807 51.3577C65.826 51.353 65.8447 51.3483 65.8632 51.3437C66.4368 51.2016 66.7973 51.1122 67.0855 50.9053C67.2483 50.7884 67.3909 50.6457 67.5078 50.4829C67.7148 50.1947 67.8041 49.8343 67.9463 49.2606C67.9509 49.2421 67.9555 49.2234 67.9602 49.2045L67.9875 49.0944C68.1176 48.57 68.2109 48.195 68.3114 47.9105C68.4105 47.6297 68.5078 47.4643 68.6305 47.3466C68.784 47.1992 68.971 47.0912 69.1754 47.0319C69.3387 46.9845 69.5306 46.983 69.8234 47.0376C70.1199 47.0928 70.4914 47.1995 71.0106 47.349L71.1195 47.3804C71.1383 47.3858 71.1568 47.3912 71.1751 47.3964C71.743 47.5601 72.0998 47.663 72.4529 47.6279C72.6524 47.608 72.8472 47.5558 73.0299 47.4733C73.3532 47.3272 73.6108 47.0597 74.0207 46.634C74.034 46.6202 74.0473 46.6064 74.0609 46.5923L74.1396 46.5106C74.5144 46.1215 74.7828 45.8434 75.012 45.6473C75.2382 45.4536 75.4052 45.359 75.5703 45.3184C75.777 45.2676 75.9929 45.2676 76.1996 45.3184C76.3647 45.359 76.5316 45.4536 76.7579 45.6473C76.9871 45.8434 77.2554 46.1215 77.6303 46.5106L77.709 46.5923C77.7225 46.6063 77.7359 46.6202 77.7491 46.634C78.159 47.0597 78.4166 47.3272 78.74 47.4733C78.9226 47.5558 79.1175 47.608 79.3169 47.6279C79.67 47.663 80.0268 47.5601 80.5947 47.3964C80.613 47.3912 80.6315 47.3858 80.6503 47.3804L80.7593 47.349C81.2785 47.1995 81.6499 47.0928 81.9465 47.0376C82.2392 46.983 82.4311 46.9845 82.5944 47.0319C82.7988 47.0912 82.9858 47.1992 83.1394 47.3466C83.2621 47.4643 83.3593 47.6297 83.4585 47.9105C83.5589 48.195 83.6522 48.57 83.7823 49.0944L83.8096 49.2045C83.8143 49.2234 83.819 49.2421 83.8236 49.2606C83.9657 49.8343 84.0551 50.1947 84.262 50.4829L84.476 50.3293L84.262 50.4829C84.3789 50.6457 84.5216 50.7884 84.6844 50.9053L84.838 50.6913L84.6844 50.9053C84.9726 51.1122 85.333 51.2016 85.9067 51.3437L85.9628 51.3577L86.0729 51.385C86.5973 51.5151 86.9723 51.6084 87.2568 51.7088C87.5376 51.808 87.703 51.9052 87.8207 52.0279C87.9681 52.1815 88.0761 52.3685 88.1354 52.5729C88.1828 52.7362 88.1843 52.9281 88.1297 53.2208C88.0745 53.5174 87.9678 53.8888 87.8183 54.408L87.7869 54.517C87.7815 54.5358 87.7761 54.5543 87.7709 54.5726C87.6072 55.1405 87.5043 55.4973 87.5394 55.8504C87.5593 56.0498 87.6115 56.2447 87.694 56.4273L87.9341 56.3188L87.694 56.4273C87.8401 56.7507 88.1076 57.0082 88.5333 57.4182L88.575 57.4583L88.6567 57.537C89.0458 57.9119 89.3239 58.1802 89.52 58.4094C89.7137 58.6357 89.8083 58.8026 89.8489 58.9677C89.8997 59.1744 89.8997 59.3903 89.8489 59.597C89.8083 59.7621 89.7137 59.9291 89.52 60.1553C89.3239 60.3845 89.0458 60.6529 88.6567 61.0277L88.575 61.1064L88.5333 61.1466C88.1076 61.5565 87.8401 61.8141 87.694 62.1374C87.6115 62.3201 87.5593 62.5149 87.5394 62.7144C87.5043 63.0675 87.6072 63.4243 87.7709 63.9922L87.7869 64.0478L87.8183 64.1567C87.9678 64.676 88.0745 65.0474 88.1297 65.3439C88.1843 65.6367 88.1828 65.8286 88.1354 65.9919C88.0761 66.1963 87.9681 66.3833 87.8207 66.5368C87.703 66.6595 87.5376 66.7568 87.2568 66.8559C86.9723 66.9564 86.5973 67.0497 86.0729 67.1798L85.9628 67.2071C85.9439 67.2118 85.9252 67.2164 85.9067 67.221C85.333 67.3632 84.9726 67.4525 84.6844 67.6595L84.838 67.8735L84.6844 67.6595C84.5216 67.7764 84.3789 67.919 84.262 68.0818L84.476 68.2355L84.262 68.0818C84.0551 68.3701 83.9657 68.7305 83.8236 69.3042L83.8096 69.3603L83.7823 69.4704C83.6522 69.9948 83.5589 70.3698 83.4585 70.6542C83.3593 70.9351 83.2621 71.1005 83.1394 71.2182C82.9858 71.3656 82.7988 71.4735 82.5944 71.5328C82.4311 71.5802 82.2392 71.5818 81.9465 71.5272C81.6499 71.4719 81.2785 71.3653 80.7593 71.2157L80.6503 71.1843L80.5947 71.1683C80.0268 71.0046 79.67 70.9018 79.3169 70.9369C79.1175 70.9567 78.9226 71.0089 78.74 71.0915C78.4166 71.2376 78.1591 71.5051 77.7491 71.9308L77.709 71.9725L77.6303 72.0542C77.2554 72.4433 76.9871 72.7213 76.7579 72.9175C76.5316 73.1111 76.3647 73.2057 76.1996 73.2463C75.9929 73.2972 75.777 73.2972 75.5703 73.2463C75.4052 73.2057 75.2382 73.1111 75.012 72.9175C74.7828 72.7213 74.5144 72.4433 74.1396 72.0542L74.0609 71.9725L74.0207 71.9308C73.6108 71.5051 73.3532 71.2376 73.0299 71.0915L72.9214 71.3315L73.0299 71.0915C72.8472 71.0089 72.6524 70.9567 72.4529 70.9369C72.0998 70.9018 71.743 71.0046 71.1752 71.1683L71.1195 71.1843L71.0106 71.2157C70.4913 71.3653 70.1199 71.4719 69.8234 71.5272C69.5306 71.5818 69.3387 71.5802 69.1754 71.5328C68.971 71.4735 68.784 71.3656 68.6305 71.2182C68.5078 71.1005 68.4105 70.9351 68.3114 70.6542C68.2109 70.3698 68.1176 69.9948 67.9875 69.4704L67.9602 69.3603L67.9463 69.3041C67.8041 68.7305 67.7148 68.3701 67.5078 68.0818Z" fill="white" stroke="#E1251B" stroke-width="0.526867"/>
<path d="M74.3884 48.5134C74.6444 48.2477 74.8276 48.0578 74.9816 47.9178C75.1341 47.7792 75.244 47.7029 75.3485 47.6564C75.689 47.5052 76.0776 47.5052 76.4181 47.6564C76.5226 47.7029 76.6326 47.7792 76.785 47.9178C76.9391 48.0578 77.1222 48.2477 77.3782 48.5134L77.4057 48.5419C77.6864 48.8334 77.8624 49.0161 78.0693 49.1412C78.3679 49.3217 78.7116 49.4138 79.0605 49.4068C79.3022 49.4019 79.546 49.3316 79.9348 49.2196L79.9729 49.2086C80.3274 49.1065 80.581 49.0336 80.7844 48.9894C80.9857 48.9456 81.1191 48.9345 81.2328 48.9465C81.6033 48.9858 81.9399 49.1801 82.1591 49.4813L82.3721 49.3263L82.1591 49.4813C82.2264 49.5738 82.2835 49.6949 82.3462 49.8911C82.4096 50.0894 82.4733 50.3454 82.5622 50.7035L82.5717 50.742C82.6691 51.1347 82.7301 51.381 82.8467 51.5927C83.0151 51.8984 83.2667 52.15 83.5724 52.3183C83.7841 52.435 84.0303 52.496 84.4231 52.5934L84.4616 52.6029C84.8197 52.6918 85.0757 52.7554 85.274 52.8189C85.4702 52.8816 85.5913 52.9387 85.6837 53.0059C85.985 53.2252 86.1793 53.5617 86.2185 53.9323C86.2306 54.046 86.2194 54.1793 86.1757 54.3807C86.1315 54.5841 86.0586 54.8377 85.9565 55.1922L85.9455 55.2303C85.8335 55.6191 85.7632 55.8629 85.7583 56.1046C85.7513 56.4535 85.8434 56.7972 86.0239 57.0958C86.149 57.3027 86.3317 57.4786 86.6232 57.7593L86.6517 57.7868C86.9174 58.0428 87.1073 58.226 87.2473 58.38C87.3859 58.5325 87.4622 58.6425 87.5086 58.747C87.6599 59.0874 87.6599 59.4761 87.5086 59.8166C87.4622 59.9211 87.3859 60.031 87.2473 60.1835C87.1073 60.3375 86.9174 60.5207 86.6517 60.7767L86.6232 60.8042C86.3317 61.0849 86.149 61.2609 86.0239 61.4677C85.8434 61.7664 85.7513 62.1101 85.7583 62.4589C85.7632 62.7006 85.8335 62.9444 85.9455 63.3332L85.9565 63.3713C86.0586 63.7259 86.1315 63.9794 86.1757 64.1829C86.2194 64.3842 86.2306 64.5176 86.2185 64.6313C86.1793 65.0018 85.985 65.3383 85.6837 65.5576C85.5913 65.6249 85.4702 65.6819 85.274 65.7447C85.0757 65.8081 84.8197 65.8717 84.4616 65.9606L84.4231 65.9701C84.0304 66.0675 83.7841 66.1285 83.5724 66.2452C83.2667 66.4135 83.0151 66.6651 82.8467 66.9708C82.7301 67.1825 82.6691 67.4288 82.5717 67.8216L82.5622 67.86C82.4733 68.2181 82.4096 68.4741 82.3462 68.6724C82.2835 68.8686 82.2264 68.9897 82.1591 69.0822C81.9399 69.3834 81.6033 69.5777 81.2328 69.617C81.1191 69.629 80.9857 69.6179 80.7844 69.5741C80.581 69.5299 80.3274 69.457 79.9729 69.3549L79.9348 69.3439C79.546 69.2319 79.3022 69.1616 79.0605 69.1568C78.7116 69.1497 78.3679 69.2418 78.0693 69.4224C77.8624 69.5474 77.6864 69.7302 77.4057 70.0216L77.3782 70.0502C77.1222 70.3159 76.9391 70.5058 76.785 70.6458C76.6326 70.7843 76.5226 70.8607 76.4181 70.9071C76.0776 71.0584 75.689 71.0584 75.3485 70.9071C75.244 70.8607 75.1341 70.7843 74.9816 70.6458C74.8276 70.5058 74.6444 70.3159 74.3884 70.0502L74.3609 70.0216C74.0802 69.7302 73.9042 69.5474 73.6973 69.4224C73.3987 69.2418 73.055 69.1497 72.7061 69.1568C72.4644 69.1616 72.2207 69.2319 71.8318 69.344L71.7938 69.3549C71.4392 69.457 71.1856 69.5299 70.9822 69.5741C70.7809 69.6179 70.6475 69.629 70.5338 69.617C70.1633 69.5777 69.8267 69.3834 69.6075 69.0822C69.5402 68.9897 69.4832 68.8686 69.4204 68.6724C69.357 68.4741 69.2933 68.2181 69.2045 67.86L69.195 67.8215C69.0976 67.4288 69.0365 67.1825 68.9199 66.9708C68.7516 66.6651 68.4999 66.4135 68.1943 66.2452C67.9825 66.1286 67.7363 66.0675 67.3435 65.9701L67.3051 65.9606C66.947 65.8717 66.6909 65.8081 66.4927 65.7447C66.2964 65.6819 66.1754 65.6249 66.0829 65.5576L65.9279 65.7706L66.0829 65.5576C65.7816 65.3383 65.5873 65.0018 65.5481 64.6313C65.5361 64.5176 65.5472 64.3842 65.591 64.1829C65.6352 63.9794 65.7081 63.7259 65.8102 63.3713L65.8211 63.3332C65.9332 62.9444 66.0034 62.7006 66.0083 62.4589C66.0153 62.1101 65.9233 61.7664 65.7427 61.4677C65.6177 61.2609 65.4349 61.0849 65.1435 60.8042L65.1149 60.7767C64.8492 60.5207 64.6593 60.3375 64.5193 60.1835C64.3808 60.031 64.3044 59.9211 64.258 59.8166C64.1067 59.4761 64.1067 59.0874 64.258 58.747C64.3044 58.6425 64.3808 58.5325 64.5193 58.38C64.6593 58.226 64.8492 58.0428 65.1149 57.7868C65.1246 57.7776 65.1341 57.7684 65.1435 57.7594C65.4349 57.4787 65.6177 57.3027 65.7427 57.0958C65.9233 56.7972 66.0153 56.4535 66.0083 56.1046C66.0034 55.8629 65.9332 55.6191 65.8211 55.2303C65.8175 55.2177 65.8139 55.205 65.8102 55.1922C65.7081 54.8377 65.6352 54.5841 65.591 54.3807C65.5472 54.1793 65.5361 54.046 65.5481 53.9323C65.5873 53.5617 65.7816 53.2252 66.0829 53.0059C66.1754 52.9387 66.2964 52.8816 66.4927 52.8189C66.6909 52.7554 66.947 52.6918 67.3051 52.6029C67.3181 52.5997 67.3309 52.5965 67.3435 52.5934C67.7363 52.496 67.9825 52.435 68.1943 52.3183C68.4999 52.15 68.7516 51.8984 68.9199 51.5927C69.0365 51.381 69.0976 51.1347 69.195 50.742C69.1981 50.7293 69.2013 50.7165 69.2045 50.7035C69.2933 50.3454 69.357 50.0894 69.4204 49.8911C69.4832 49.6949 69.5402 49.5738 69.6075 49.4813C69.8267 49.1801 70.1633 48.9858 70.5338 48.9465C70.6475 48.9345 70.7809 48.9456 70.9822 48.9894C71.1856 49.0336 71.4392 49.1065 71.7938 49.2086C71.8066 49.2123 71.8193 49.216 71.8318 49.2196C72.2207 49.3316 72.4644 49.4019 72.7061 49.4068C73.055 49.4138 73.3987 49.3217 73.6973 49.1412C73.9042 49.0161 74.0802 48.8334 74.3609 48.5419C74.37 48.5325 74.3791 48.523 74.3884 48.5134Z" fill="#E1251B" stroke="white" stroke-width="0.526867"/>
<path d="M74.1872 63.7637L71.6519 61.2334" stroke="white" stroke-width="1.13636" stroke-miterlimit="10" stroke-linecap="round" stroke-linejoin="round"/>
<path d="M74.1865 55.1777V63.7636" stroke="white" stroke-width="1.13636" stroke-miterlimit="10" stroke-linecap="round" stroke-linejoin="round"/>
<path d="M77.208 55.1777L79.7434 57.708" stroke="white" stroke-width="1.13636" stroke-miterlimit="10" stroke-linecap="round" stroke-linejoin="round"/>
<path d="M77.208 63.7636V55.1777" stroke="white" stroke-width="1.13636" stroke-miterlimit="10" stroke-linecap="round" stroke-linejoin="round"/>
<defs>
<linearGradient id="paint0_linear_12519_222902" x1="26.0912" y1="97.8749" x2="26.0912" y2="73.7783" gradientUnits="userSpaceOnUse">
<stop stop-color="#EA3033"/>
<stop offset="1" stop-color="#EA3231"/>
</linearGradient>
<linearGradient id="paint1_linear_12519_222902" x1="25.9839" y1="79.3221" x2="25.9839" y2="78.2559" gradientUnits="userSpaceOnUse">
<stop stop-color="#EA3033"/>
<stop offset="1" stop-color="#EA3231"/>
</linearGradient>
<linearGradient id="paint2_linear_12519_222902" x1="20.653" y1="95.7419" x2="20.653" y2="92.9697" gradientUnits="userSpaceOnUse">
<stop stop-color="#EA3033"/>
<stop offset="1" stop-color="#EA3231"/>
</linearGradient>
</defs>
</svg>
