<svg width="97" height="108" viewBox="0 0 97 108" fill="none" xmlns="http://www.w3.org/2000/svg">
<g clip-path="url(#clip0_11395_114935)">
<path d="M36.7027 66.5186H36.521V66.5335H36.7027V66.5186Z" fill="black"/>
<path d="M78.4263 69.604C78.4263 64.7883 76.5829 62.4586 73.4133 60.6264C70.8161 59.1235 69.2206 56.3448 69.2206 53.3426V49.581C69.2206 47.2718 63.9981 45.4004 57.556 45.4004C51.114 45.4004 45.8915 47.2718 45.8915 49.581V49.5829C45.8952 49.6661 45.8915 51.372 45.8896 53.351C45.8868 56.3495 44.2903 59.1244 41.695 60.6264C38.5272 62.4595 36.6109 64.9978 36.6109 69.4412C36.6109 73.8846 36.5585 100.031 36.6661 100.171C36.9251 101.41 37.9062 102.336 38.9032 103.043C41.232 104.62 43.9835 105.431 46.7051 106.047C50.347 106.831 54.0871 107.142 57.8113 107.131C62.8225 107.081 67.9084 106.54 72.6418 104.831C74.7339 104.019 77.4761 102.784 78.3356 100.568C78.4413 100.265 78.4983 99.9457 78.4993 99.6258C78.4993 99.6258 78.4263 74.4206 78.4263 69.6049H78.4273L78.4263 69.604Z" fill="url(#paint0_radial_11395_114935)"/>
<path d="M78.4263 69.604C78.4263 64.7883 76.5829 62.4586 73.4133 60.6264C70.8161 59.1235 69.2206 56.3448 69.2206 53.3426V49.581C69.2206 47.2718 63.9981 45.4004 57.556 45.4004C51.114 45.4004 45.8915 47.2718 45.8915 49.581V49.5829C45.8952 49.6661 45.8915 51.372 45.8896 53.351C45.8868 56.3495 44.2903 59.1244 41.695 60.6264C38.5272 62.4595 36.6109 64.9978 36.6109 69.4412C36.6109 73.8846 36.5585 100.031 36.6661 100.171C36.9251 101.41 37.9062 102.336 38.9032 103.043C41.232 104.62 43.9835 105.431 46.7051 106.047C50.347 106.831 54.0871 107.142 57.8113 107.131C62.8225 107.081 67.9084 106.54 72.6418 104.831C74.7339 104.019 77.4761 102.784 78.3356 100.568C78.4413 100.265 78.4983 99.9457 78.4993 99.6258C78.4993 99.6258 78.4263 74.4206 78.4263 69.6049H78.4273L78.4263 69.604Z" fill="url(#paint1_linear_11395_114935)"/>
<path d="M57.626 107.223C53.7138 107.223 50.0335 106.857 46.6853 106.137C44.1769 105.569 41.2851 104.768 38.8516 103.12C37.5188 102.174 36.7968 101.245 36.577 100.191H36.5836C36.5284 99.8342 36.491 96.6936 36.5162 73.5656C36.5181 71.6895 36.52 70.2276 36.52 69.442C36.52 65.3437 38.1024 62.6006 41.6499 60.5486C44.2059 59.07 45.7959 56.3119 45.7987 53.3518L45.8005 51.7301C45.8024 50.5648 45.8033 49.6445 45.8005 49.5874C45.8005 48.423 47.0351 47.3428 49.2778 46.5385C51.4907 45.7454 54.4311 45.3086 57.5568 45.3086C60.6824 45.3086 63.6228 45.7454 65.8357 46.5385C68.0775 47.3418 69.313 48.4221 69.313 49.5809V53.3425C69.313 56.3063 70.902 59.0672 73.4599 60.5468C75.2088 61.5578 76.3929 62.6389 77.1869 63.9492C78.0829 65.427 78.5178 67.276 78.5178 69.6038V69.644C78.5178 74.4999 78.5889 99.3741 78.5898 99.6256C78.5889 99.952 78.5318 100.278 78.4215 100.597C77.5825 102.762 75.0461 103.995 72.6752 104.916C68.5367 106.41 63.6762 107.164 57.8121 107.223C57.7504 107.223 57.6877 107.223 57.6269 107.223H57.626ZM36.751 100.133L36.7547 100.152C36.9651 101.159 37.6638 102.053 38.9554 102.969C41.3627 104.599 44.234 105.395 46.7246 105.958C50.113 106.688 53.8447 107.054 57.8102 107.039C63.6528 106.981 68.4937 106.23 72.6107 104.745C74.9423 103.839 77.4385 102.63 78.2503 100.534C78.3532 100.237 78.4065 99.9305 78.4074 99.6247C78.4074 99.3731 78.3345 74.3643 78.3345 69.6048V69.5645C78.3307 67.2891 77.9033 65.4831 77.0307 64.0437C76.2526 62.7615 75.0891 61.6999 73.3682 60.7048C70.7542 59.1925 69.1297 56.3708 69.1297 53.3425V49.5809C69.1297 47.3259 63.938 45.491 57.5558 45.491C51.1736 45.491 45.982 47.3259 45.982 49.5809C45.9848 49.637 45.9839 50.3562 45.982 51.7301L45.9801 53.3518C45.9773 56.3765 44.3528 59.1944 41.7396 60.7067C38.2549 62.7222 36.7014 65.4167 36.7014 69.442C36.7014 70.2267 36.6995 71.6895 36.6977 73.5656C36.6883 81.9867 36.6687 99.4395 36.75 100.133L36.751 100.133Z" fill="black"/>
<path d="M57.5502 99.8937C62.5141 99.8937 66.5381 98.4516 66.5381 96.6727C66.5381 94.8938 62.5141 93.4517 57.5502 93.4517C52.5864 93.4517 48.5624 94.8938 48.5624 96.6727C48.5624 98.4516 52.5864 99.8937 57.5502 99.8937Z" fill="url(#paint2_linear_11395_114935)"/>
<path d="M57.5504 99.9768C55.1402 99.9768 52.8731 99.6401 51.1672 99.0284C49.4342 98.4074 48.4802 97.5713 48.4802 96.6735C48.4802 95.7756 49.4342 94.9395 51.1672 94.3185C52.8731 93.7068 55.1402 93.3701 57.5504 93.3701C59.9605 93.3701 62.2276 93.7068 63.9335 94.3185C65.6666 94.9395 66.6205 95.7756 66.6205 96.6735C66.6205 97.5713 65.6666 98.4074 63.9335 99.0284C62.2276 99.6401 59.9605 99.9768 57.5504 99.9768ZM57.5504 93.5347C52.6393 93.5347 48.6448 94.9432 48.6448 96.6735C48.6448 98.4037 52.6403 99.8122 57.5504 99.8122C62.4605 99.8122 66.4559 98.4037 66.4559 96.6735C66.4559 94.9432 62.4605 93.5347 57.5504 93.5347Z" fill="black"/>
<path d="M57.6606 102.188C59.8107 102.166 61.9936 101.934 64.0259 101.201C64.9238 100.852 66.1003 100.323 66.4688 99.3716C66.5137 99.2425 66.538 99.105 66.539 98.9675V96.6733C66.4585 98.4962 62.8896 99.3332 61.4175 99.582C58.059 100.167 52.4465 100.05 49.5472 98.1417C49.5472 98.1417 49.5453 98.1408 49.5453 98.1398C49.058 97.7966 48.5661 97.3065 48.5614 96.6733C48.5698 96.8043 48.538 99.1405 48.5857 99.2013C48.697 99.7335 49.1179 100.131 49.5453 100.435C50.5451 101.112 51.7245 101.46 52.8935 101.725C54.4564 102.061 56.0613 102.195 57.6596 102.189L57.6606 102.188Z" fill="url(#paint3_linear_11395_114935)"/>
<mask id="mask0_11395_114935" style="mask-type:luminance" maskUnits="userSpaceOnUse" x="48" y="96" width="19" height="7">
<path d="M57.6606 102.187C59.8107 102.166 61.9936 101.934 64.0259 101.2C64.9238 100.852 66.1003 100.322 66.4688 99.3711C66.5137 99.242 66.538 99.1045 66.539 98.967V96.6729C66.4585 98.4957 62.8896 99.3327 61.4175 99.5815C58.059 100.166 52.4465 100.049 49.5472 98.1412C49.5472 98.1412 49.5453 98.1403 49.5453 98.1393C49.058 97.7961 48.5661 97.306 48.5614 96.6729C48.5698 96.8038 48.538 99.1401 48.5857 99.2008C48.697 99.733 49.1179 100.131 49.5453 100.434C50.5451 101.112 51.7245 101.46 52.8935 101.724C54.4564 102.061 56.0613 102.195 57.6596 102.189L57.6606 102.187Z" fill="white"/>
</mask>
<g mask="url(#mask0_11395_114935)">
<path d="M56.7557 96.2065H51.6763V104.079H56.7557V96.2065Z" fill="white"/>
<path d="M67.4406 95.9585H62.3612V103.831H67.4406V95.9585Z" fill="white"/>
<path d="M50.3359 94.8779H45.2565V102.75H50.3359V94.8779Z" fill="white"/>
</g>
<path d="M57.5746 102.272C55.8949 102.272 54.3152 102.114 52.8768 101.805C51.7956 101.56 50.5499 101.214 49.4996 100.503C48.9179 100.09 48.6027 99.6819 48.5054 99.2189C48.482 99.1301 48.4727 98.8111 48.4792 97.2633C48.4801 97.0229 48.4811 96.8087 48.4801 96.719C48.4801 96.704 48.4792 96.689 48.4792 96.6741L48.6438 96.6685C48.6438 96.6769 48.6438 96.6918 48.6448 96.7133C48.6644 97.1875 48.9833 97.6439 49.5922 98.0732L49.6137 98.0882C52.3484 99.8652 57.7205 100.143 61.4036 99.5023C62.2331 99.362 66.3735 98.567 66.4568 96.6713L66.6214 96.675V98.9692C66.6204 99.116 66.5952 99.261 66.5466 99.4003C66.1799 100.347 65.081 100.881 64.055 101.279C62.2911 101.915 60.2261 102.24 57.742 102.271V102.273H57.6597C57.6307 102.273 57.6027 102.273 57.5737 102.273L57.5746 102.272ZM48.6607 99.1637L48.6625 99.1665L48.6663 99.1852C48.7542 99.6052 49.0488 99.9812 49.5931 100.368C50.6191 101.063 51.8471 101.404 52.9123 101.644C54.3386 101.952 55.907 102.107 57.5746 102.107C57.5868 102.107 57.598 102.107 57.6092 102.107H57.6588C60.1597 102.082 62.2331 101.76 63.997 101.124C64.9875 100.74 66.049 100.226 66.3913 99.3424C66.4324 99.2226 66.4549 99.0964 66.4558 98.9673V97.2988C65.6908 98.8242 62.4922 99.4845 61.4307 99.6641C58.4584 100.181 52.5916 100.244 49.5015 98.2107L49.464 98.1836C49.0759 97.9058 48.8019 97.6121 48.6429 97.3082C48.6401 97.932 48.6354 99.015 48.6597 99.1637H48.6607Z" fill="black"/>
<path d="M54.0844 97.9655C53.6439 97.7317 53.3773 97.394 53.2847 96.9507H51.9763V96.4681H53.2726C53.3119 96.1782 53.4166 95.9032 53.5887 95.6451C53.7599 95.386 53.9778 95.1812 54.2424 95.0278L55.4228 95.2925C55.1889 95.4375 54.9925 95.6142 54.8335 95.8219C54.6745 96.0295 54.5745 96.2446 54.5361 96.4681H56.8724C57.0052 96.1894 57.1511 95.9575 57.3101 95.7714C57.4691 95.5852 57.7029 95.4291 58.0106 95.3037C58.3183 95.1784 58.7251 95.1148 59.2311 95.1148C59.8615 95.1148 60.3993 95.2298 60.8435 95.4618C61.2878 95.6937 61.5524 96.0286 61.6375 96.4672H62.9581V96.9498H61.6619C61.6385 97.1696 61.5646 97.3837 61.4402 97.5932C61.3158 97.8027 61.1521 97.9861 60.9501 98.1422L59.7698 97.9019C60.1131 97.6045 60.3226 97.2865 60.4002 96.9498H58.0415C57.9096 97.2322 57.7646 97.4661 57.6094 97.6522C57.4541 97.8383 57.2222 97.9954 56.9145 98.1226C56.6068 98.2498 56.1999 98.3143 55.694 98.3143C55.0636 98.3143 54.5277 98.1984 54.0881 97.9645H54.0863L54.0844 97.9655ZM58.6812 96.0276C58.5259 96.1296 58.3931 96.2764 58.2846 96.4691H60.3637C60.302 96.2699 60.1776 96.1202 59.9896 96.022C59.8035 95.9238 59.5725 95.8742 59.3013 95.8742C59.045 95.8742 58.8383 95.9257 58.6831 96.0267H58.6821L58.6812 96.0276ZM54.9205 97.4118C55.1001 97.5119 55.3217 97.5624 55.5864 97.5624C55.8511 97.5624 56.0634 97.5091 56.2233 97.4043C56.3823 97.2977 56.517 97.1481 56.6264 96.9507H54.5595C54.6212 97.1584 54.7419 97.3127 54.9214 97.4118H54.9205Z" fill="#171717"/>
<path d="M63.5479 92.0138C68.5117 92.0138 72.5357 90.5717 72.5357 88.7928C72.5357 87.0139 68.5117 85.5718 63.5479 85.5718C58.584 85.5718 54.5601 87.0139 54.5601 88.7928C54.5601 90.5717 58.584 92.0138 63.5479 92.0138Z" fill="url(#paint4_linear_11395_114935)"/>
<path d="M63.5489 92.0954C61.1387 92.0954 58.8717 91.7587 57.1658 91.1471C55.4327 90.5261 54.4788 89.6899 54.4788 88.7921C54.4788 87.8943 55.4327 87.0581 57.1658 86.4371C58.8717 85.8255 61.1387 85.4888 63.5489 85.4888C65.9591 85.4888 68.2261 85.8255 69.932 86.4371C71.6651 87.0581 72.6191 87.8943 72.6191 88.7921C72.6191 89.6899 71.6651 90.5261 69.932 91.1471C68.2261 91.7587 65.9591 92.0954 63.5489 92.0954ZM63.5489 85.6524C58.6379 85.6524 54.6434 87.0609 54.6434 88.7912C54.6434 90.5214 58.6388 91.9299 63.5489 91.9299C68.459 91.9299 72.4544 90.5214 72.4544 88.7912C72.4544 87.0609 68.459 85.6524 63.5489 85.6524Z" fill="black"/>
<path d="M63.6575 94.3068C65.8077 94.2853 67.9906 94.0533 70.0229 93.3201C70.9207 92.9712 72.0973 92.4419 72.4658 91.4907C72.5107 91.3616 72.535 91.2242 72.5359 91.0867V88.7925C72.4555 90.6153 68.8865 91.4524 67.4144 91.7011C64.0559 92.2857 58.4434 92.1688 55.5441 90.2608C55.5441 90.2608 55.5423 90.2599 55.5423 90.259C55.055 89.9157 54.563 89.4257 54.5584 88.7925C54.5668 88.9234 54.535 91.2597 54.5827 91.3205C54.694 91.8527 55.1148 92.2501 55.5423 92.5532C56.542 93.2303 57.7214 93.5782 58.8905 93.8429C60.4533 94.1796 62.0582 94.3133 63.6566 94.3077L63.6575 94.3068Z" fill="url(#paint5_linear_11395_114935)"/>
<mask id="mask1_11395_114935" style="mask-type:luminance" maskUnits="userSpaceOnUse" x="54" y="88" width="19" height="7">
<path d="M63.6575 94.3073C65.8077 94.2857 67.9906 94.0538 70.0229 93.3206C70.9207 92.9717 72.0973 92.4424 72.4658 91.4912C72.5107 91.3621 72.535 91.2246 72.5359 91.0872V88.793C72.4555 90.6158 68.8865 91.4528 67.4144 91.7016C64.0559 92.2862 58.4434 92.1693 55.5441 90.2613C55.5441 90.2613 55.5423 90.2604 55.5423 90.2595C55.055 89.9162 54.563 89.4261 54.5584 88.793C54.5668 88.9239 54.535 91.2602 54.5827 91.321C54.694 91.8531 55.1148 92.2506 55.5423 92.5536C56.542 93.2308 57.7214 93.5787 58.8905 93.8434C60.4533 94.1801 62.0582 94.3138 63.6566 94.3082L63.6575 94.3073Z" fill="white"/>
</mask>
<g mask="url(#mask1_11395_114935)">
<path d="M62.7527 88.3237H57.6733V96.1958H62.7527V88.3237Z" fill="white"/>
<path d="M73.4393 88.0757H68.3599V95.9478H73.4393V88.0757Z" fill="white"/>
<path d="M56.3334 86.9971H51.254V94.8692H56.3334V86.9971Z" fill="white"/>
</g>
<path d="M63.5734 94.3892C61.8937 94.3892 60.3131 94.2321 58.8738 93.9225C57.7926 93.6775 56.5459 93.3314 55.4965 92.6206C54.9148 92.2073 54.5996 91.7995 54.5024 91.3365C54.479 91.2477 54.4687 90.9297 54.4762 89.38C54.4771 89.1396 54.478 88.9254 54.4771 88.8357C54.4771 88.8207 54.4762 88.8057 54.4762 88.7908L54.6408 88.7852C54.6408 88.7936 54.6408 88.8085 54.6417 88.83C54.6613 89.3042 54.9803 89.7606 55.5891 90.1899L55.6013 90.1983C58.3248 91.9809 63.71 92.2606 67.3996 91.6181C68.2292 91.4778 72.3695 90.6837 72.4528 88.787L72.6174 88.7908V91.085C72.6165 91.2318 72.5912 91.3768 72.5426 91.5161C72.1759 92.4617 71.078 92.9966 70.051 93.395C68.2871 94.031 66.2221 94.3556 63.738 94.3864V94.3883H63.6557C63.6277 94.3883 63.5996 94.3883 63.5716 94.3883L63.5734 94.3892ZM54.6585 91.2814L54.6604 91.2842L54.6642 91.3029C54.7521 91.7228 55.0467 92.0988 55.591 92.486C56.617 93.1799 57.844 93.5204 58.9102 93.7617C60.3365 94.0694 61.9059 94.2246 63.5744 94.2246C63.5856 94.2246 63.5968 94.2246 63.608 94.2246H63.6576C66.1585 94.1994 68.232 93.8776 69.9959 93.2417C70.9863 92.8563 72.0478 92.3438 72.3901 91.46C72.4313 91.3403 72.4537 91.214 72.4547 91.085V89.4165C71.6896 90.9419 68.491 91.6022 67.4295 91.7817C64.4591 92.2989 58.596 92.3616 55.5049 90.3311L55.4638 90.3106V90.3012C55.0757 90.0234 54.8016 89.7307 54.6426 89.4258C54.6398 90.0496 54.6352 91.1327 54.6595 91.2814H54.6585Z" fill="black"/>
<path d="M60.0818 90.0856C59.6413 89.8518 59.3748 89.5142 59.2822 89.0708H57.9738V88.5882H59.27C59.3093 88.2983 59.4141 88.0233 59.5861 87.7652C59.7573 87.5062 59.9752 87.3013 60.2399 87.1479L61.4202 87.4126C61.1864 87.5576 60.99 87.7344 60.831 87.942C60.672 88.1496 60.5719 88.3647 60.5336 88.5882H62.8698C63.0017 88.3095 63.1485 88.0776 63.3075 87.8915C63.4665 87.7054 63.7003 87.5492 64.008 87.4239C64.3157 87.2985 64.7226 87.2349 65.2286 87.2349C65.8589 87.2349 66.3967 87.35 66.8409 87.5819C67.2852 87.8139 67.5499 88.1487 67.635 88.5873H68.9556V89.0699H67.6593C67.6359 89.2897 67.562 89.5039 67.4376 89.7134C67.3133 89.9229 67.1496 90.1062 66.9476 90.2624L65.7673 90.022C66.1105 89.7246 66.32 89.4066 66.3976 89.0699H64.0389C63.907 89.3524 63.7621 89.5862 63.6068 89.7723C63.4516 89.9584 63.2196 90.1155 62.9119 90.2427C62.6042 90.3699 62.1974 90.4345 61.6914 90.4345C61.061 90.4345 60.5251 90.3185 60.0856 90.0847H60.0837L60.0818 90.0856ZM64.6786 88.1477C64.5234 88.2497 64.3906 88.3965 64.2811 88.5892H66.3602C66.2985 88.39 66.1741 88.2403 65.9861 88.1421C65.8 88.0439 65.569 87.9944 65.2978 87.9944C65.0415 87.9944 64.8348 88.0458 64.6796 88.1468H64.6786V88.1477ZM60.9179 89.5319C61.0975 89.632 61.3192 89.6825 61.5839 89.6825C61.8485 89.6825 62.0608 89.6292 62.2208 89.5244C62.3798 89.4178 62.5144 89.2682 62.6239 89.0708H60.5569C60.6187 89.2785 60.7393 89.4328 60.9189 89.5319H60.9179Z" fill="black"/>
<path d="M74.6644 96.6469C74.9807 94.8963 71.2771 92.7619 66.3924 91.8794C61.5076 90.997 57.2913 91.7008 56.9751 93.4514C56.6588 95.202 60.3624 97.3364 65.2471 98.2189C70.1319 99.1013 74.3482 98.3975 74.6644 96.6469Z" fill="url(#paint6_linear_11395_114935)"/>
<path d="M69.283 98.6834C68.0204 98.6834 66.6409 98.5553 65.2324 98.3C62.8605 97.8716 60.6898 97.1375 59.1195 96.2321C57.5249 95.3128 56.7346 94.3205 56.8936 93.4366C57.0535 92.5528 58.1412 91.9 59.9566 91.597C61.7438 91.2986 64.0352 91.3697 66.407 91.799C68.7789 92.2273 70.9496 92.9615 72.5199 93.8669C74.1145 94.7862 74.9048 95.7785 74.7458 96.6623C74.5859 97.5462 73.4982 98.199 71.6828 98.502C70.9571 98.6236 70.1471 98.6834 69.2839 98.6834H69.283ZM57.0554 93.4656C56.7477 95.1687 60.4289 97.2646 65.2614 98.1382C70.0938 99.0108 74.2754 98.3355 74.5831 96.6324C74.8908 94.9293 71.2096 92.8334 66.3771 91.9599C61.5446 91.0873 57.3631 91.7625 57.0554 93.4656Z" fill="black"/>
<path d="M64.9473 100.489C67.0666 100.85 69.256 101.009 71.3866 100.65C72.3321 100.467 73.5844 100.153 74.1166 99.2837C74.1839 99.164 74.2316 99.034 74.2578 98.8984L74.6656 96.6406C74.2625 98.4204 70.6019 98.6094 69.1092 98.5925C65.7002 98.5701 60.198 97.4581 57.6841 95.0657C57.6841 95.0657 57.6831 95.0647 57.6822 95.0638C57.2641 94.6401 56.8657 94.0706 56.9751 93.4458C56.9602 93.5758 56.5141 95.87 56.5487 95.9383C56.5636 96.4816 56.9078 96.9465 57.2744 97.3215C58.1377 98.1651 59.2375 98.7169 60.3402 99.1855C61.8189 99.7943 63.3742 100.211 64.9482 100.49H64.9464L64.9473 100.489Z" fill="url(#paint7_linear_11395_114935)"/>
<mask id="mask2_11395_114935" style="mask-type:luminance" maskUnits="userSpaceOnUse" x="56" y="93" width="19" height="8">
<path d="M64.9473 100.492C67.0666 100.853 69.256 101.012 71.3866 100.653C72.3321 100.47 73.5844 100.156 74.1166 99.2866C74.1839 99.1669 74.2316 99.0369 74.2578 98.9013L74.6656 96.6436C74.2625 98.4234 70.6019 98.6123 69.1092 98.5955C65.7002 98.573 60.198 97.461 57.6841 95.0686C57.6841 95.0686 57.6831 95.0677 57.6822 95.0667C57.2641 94.6431 56.8657 94.0735 56.9751 93.4487C56.9602 93.5787 56.5141 95.8729 56.5487 95.9412C56.5636 96.4846 56.9078 96.9494 57.2744 97.3244C58.1377 98.168 59.2375 98.7199 60.3402 99.1884C61.8189 99.7973 63.3742 100.214 64.9482 100.493H64.9464L64.9473 100.492Z" fill="white"/>
</mask>
<g mask="url(#mask2_11395_114935)">
<path d="M60.1215 93.5355L58.722 101.282L63.7205 102.185L65.12 94.4385L60.1215 93.5355Z" fill="white"/>
<path d="M70.6807 95.1884L69.2812 102.935L74.2797 103.838L75.6792 96.0913L70.6807 95.1884Z" fill="white"/>
<path d="M54.0393 91.0873L52.6399 98.834L57.6384 99.737L59.0378 91.9903L54.0393 91.0873Z" fill="white"/>
</g>
<path d="M68.8576 100.934C67.6548 100.934 66.3548 100.813 64.9332 100.571C63.2526 100.273 61.6972 99.8321 60.3102 99.2616C59.2899 98.8285 58.1255 98.2664 57.2183 97.3808C56.7188 96.8701 56.4804 96.4137 56.4673 95.9404C56.4598 95.8488 56.5075 95.5345 56.7871 94.0269C56.832 93.7856 56.8713 93.5705 56.8872 93.4789C56.8891 93.463 56.8919 93.4471 56.8947 93.4312L57.0574 93.4545C57.0565 93.463 57.0537 93.4789 57.0499 93.5022C56.9863 93.9708 57.2183 94.4758 57.7411 95.0061C60.0998 97.2498 65.3588 98.4862 69.1101 98.5105C69.9518 98.5208 74.1661 98.4741 74.586 96.6223L74.7469 96.655L74.3391 98.9127C74.3111 99.0577 74.2606 99.1952 74.1886 99.3233C73.6583 100.189 72.4826 100.52 71.4024 100.73C70.6028 100.865 69.7573 100.933 68.8576 100.933V100.934ZM64.9632 100.409C67.4294 100.829 69.5263 100.881 71.3725 100.569C72.4153 100.367 73.5507 100.05 74.0464 99.241C74.1081 99.1306 74.153 99.01 74.1773 98.8837L74.4738 97.2414C73.4497 98.6069 70.1847 98.6864 69.1082 98.6751C66.092 98.6555 60.3065 97.6744 57.627 95.1258C57.2763 94.7704 57.0481 94.4225 56.9424 94.0858C56.8301 94.6909 56.6319 95.7637 56.6291 95.9152L56.6309 95.918V95.9367C56.6431 96.3651 56.8666 96.7878 57.3343 97.2648C58.2199 98.1299 59.3675 98.6836 60.3738 99.11C61.7496 99.6759 63.2947 100.114 64.9641 100.409H64.9632Z" fill="black"/>
<path d="M62.1789 95.7008C61.787 95.3931 61.585 95.0134 61.571 94.5607L60.2841 94.3278L60.3692 93.8537L61.6458 94.0847C61.7356 93.806 61.8871 93.5544 62.1022 93.3309C62.3164 93.1064 62.567 92.9427 62.8551 92.8398L63.969 93.3103C63.7136 93.4113 63.4892 93.5497 63.2947 93.7265C63.1001 93.9032 62.9645 94.0978 62.8869 94.3101L65.1857 94.7253C65.3653 94.4747 65.5505 94.2717 65.7404 94.1174C65.9311 93.9622 66.1883 93.8509 66.5129 93.7817C66.8374 93.7124 67.2499 93.7237 67.7474 93.8135C68.3684 93.9257 68.8763 94.1352 69.2719 94.441C69.6675 94.7478 69.8686 95.1247 69.8742 95.5717L71.1733 95.8065L71.0882 96.2807L69.8115 96.0497C69.7498 96.261 69.6385 96.4593 69.4786 96.6445C69.3177 96.8287 69.1251 96.9802 68.8978 97.099L67.7802 96.652C68.1702 96.4191 68.4339 96.145 68.5705 95.8271L66.2482 95.4081C66.0677 95.6625 65.8844 95.8673 65.6973 96.0225C65.5112 96.1778 65.255 96.2909 64.9295 96.362C64.604 96.4322 64.1925 96.4228 63.694 96.333C63.073 96.2208 62.567 96.0113 62.1761 95.7036L62.178 95.7017L62.1789 95.7008ZM67.0469 94.6112C66.8758 94.6832 66.7186 94.8048 66.5774 94.9741L68.6238 95.3445C68.5976 95.1368 68.5012 94.9676 68.3348 94.8385C68.1683 94.7094 67.9504 94.6196 67.6829 94.5719C67.4304 94.5261 67.2181 94.5401 67.046 94.6122L67.0469 94.6112ZM63.0992 95.3061C63.2572 95.4361 63.4667 95.525 63.7277 95.5717C63.9886 95.6185 64.2056 95.6045 64.3824 95.5287C64.5582 95.453 64.7172 95.3286 64.8593 95.1546L62.8252 94.788C62.8495 95.0031 62.9402 95.1761 63.1001 95.3061H63.0992Z" fill="#171717"/>
<path d="M49.9926 89.9723C54.8072 88.7639 58.359 86.3855 57.9259 84.6601C57.4929 82.9347 53.2389 82.5156 48.4243 83.7241C43.6098 84.9325 40.058 87.3108 40.4911 89.0362C40.9241 90.7616 45.1781 91.1807 49.9926 89.9723Z" fill="url(#paint8_linear_11395_114935)"/>
<path d="M44.8645 90.7449C44.4194 90.7449 43.9929 90.7253 43.5907 90.686C41.7585 90.5055 40.6297 89.9266 40.4108 89.0559C40.192 88.1851 40.914 87.1414 42.4431 86.1173C43.9489 85.1091 46.0663 84.2299 48.4036 83.6435C50.7408 83.0571 53.0219 82.8317 54.826 83.0094C56.6582 83.1899 57.787 83.7688 58.0059 84.6396C58.2247 85.5103 57.5027 86.554 55.9735 87.5781C54.4678 88.5864 52.3503 89.4655 50.0131 90.0519C48.1969 90.5074 46.4152 90.7449 44.8645 90.7449ZM48.4447 83.8034C46.1253 84.3861 44.0265 85.2559 42.5357 86.2548C41.0683 87.2377 40.3706 88.2179 40.5708 89.0166C40.7709 89.8153 41.8493 90.3503 43.6066 90.5233C45.392 90.6991 47.6525 90.4756 49.972 89.8929C52.2914 89.3102 54.3901 88.4405 55.881 87.4416C57.3484 86.4586 58.0461 85.4785 57.8459 84.6798C57.4241 83.001 53.2061 82.6082 48.4438 83.8034H48.4447Z" fill="black"/>
<path d="M50.6581 92.1712C52.7381 91.6269 54.7994 90.8703 56.5914 89.6647C57.377 89.1073 58.3899 88.3077 58.5152 87.2948C58.5274 87.1582 58.5171 87.0189 58.4853 86.8861L57.9269 84.6602C58.2926 86.4474 55.0351 88.1281 53.6677 88.7276C50.5524 90.1118 45.0811 91.3641 41.8031 90.2203H41.8002C41.2447 90.007 40.6471 89.6507 40.489 89.0372C40.5292 89.1625 41.0679 91.4361 41.1278 91.4838C41.3654 91.9729 41.8695 92.2554 42.3586 92.4462C43.4921 92.8596 44.7229 92.9091 45.9201 92.8811C47.5184 92.8268 49.1074 92.565 50.6562 92.1722H50.6581V92.1712Z" fill="url(#paint9_linear_11395_114935)"/>
<mask id="mask3_11395_114935" style="mask-type:luminance" maskUnits="userSpaceOnUse" x="40" y="84" width="19" height="9">
<path d="M50.6581 92.1712C52.7381 91.6269 54.7994 90.8703 56.5914 89.6647C57.377 89.1073 58.3899 88.3077 58.5152 87.2948C58.5274 87.1582 58.5171 87.0189 58.4853 86.8861L57.9269 84.6602C58.2926 86.4474 55.0351 88.1281 53.6677 88.7276C50.5524 90.1118 45.0811 91.3641 41.8031 90.2203H41.8002C41.2447 90.007 40.6471 89.6507 40.489 89.0372C40.5292 89.1625 41.0679 91.4361 41.1278 91.4838C41.3654 91.9729 41.8695 92.2554 42.3586 92.4462C43.4921 92.8596 44.7229 92.9091 45.9201 92.8811C47.5184 92.8268 49.1074 92.565 50.6562 92.1722H50.6581V92.1712Z" fill="white"/>
</mask>
<g mask="url(#mask3_11395_114935)">
<path d="M48.3244 86.5877L43.3978 87.8242L45.3143 95.4595L50.2408 94.2229L48.3244 86.5877Z" fill="white"/>
<path d="M58.6293 83.7444L53.7028 84.981L55.6192 92.6162L60.5458 91.3796L58.6293 83.7444Z" fill="white"/>
<path d="M41.7748 86.8626L36.8483 88.0991L38.7647 95.7344L43.6913 94.4978L41.7748 86.8626Z" fill="white"/>
</g>
<path d="M45.3992 92.9695C44.419 92.9695 43.3388 92.89 42.3315 92.5225C41.6666 92.2634 41.2616 91.9445 41.0549 91.5189C41.01 91.4376 40.924 91.1308 40.5574 89.6428C40.4984 89.4034 40.4461 89.1901 40.4227 89.1013C40.418 89.0863 40.4143 89.0714 40.4105 89.0564L40.5686 89.0106C40.5714 89.019 40.5751 89.0339 40.5807 89.0555C40.7154 89.5072 41.1325 89.8719 41.8209 90.1385L41.8321 90.1413C44.9063 91.214 50.2083 90.174 53.636 88.6514C54.4067 88.3138 58.2281 86.5349 57.8475 84.6756L58.0074 84.6392L58.5658 86.8651C58.6004 87.0082 58.6107 87.155 58.5976 87.3009C58.4732 88.3072 57.5379 89.0938 56.6391 89.7307C55.0698 90.7866 53.1244 91.6087 50.689 92.2475L50.6769 92.2512C49.0158 92.6721 47.4165 92.9115 45.9229 92.962C45.7527 92.9658 45.5769 92.9686 45.3992 92.9686V92.9695ZM41.1915 91.4282L41.1943 91.4301L41.2027 91.4469C41.3907 91.8332 41.7676 92.1268 42.3895 92.3691C43.5539 92.7928 44.8268 92.8236 45.9192 92.7984C47.3978 92.7479 48.9822 92.5112 50.6282 92.0941L50.6385 92.0913C53.0599 91.4572 54.9931 90.6417 56.5465 89.596C57.4145 88.9806 58.3189 88.224 58.4348 87.2841C58.4461 87.1578 58.4367 87.0297 58.4068 86.9044L58.0009 85.2854C57.6296 86.9511 54.6882 88.3699 53.7024 88.802C50.95 90.0253 45.286 91.5124 41.791 90.3022H41.79L41.7732 90.2965C41.3102 90.1188 40.9605 89.8963 40.7257 89.6325C40.8725 90.2301 41.1335 91.2889 41.1933 91.4282H41.1915Z" fill="black"/>
<path d="M46.1634 88.9454C45.6799 88.8257 45.3395 88.5639 45.1412 88.1561L43.872 88.475L43.7551 88.0074L45.0121 87.6913C44.9794 87.4004 45.014 87.1086 45.1178 86.8159C45.2207 86.5231 45.3825 86.2706 45.6023 86.0583L46.8116 86.0284C46.6198 86.2257 46.473 86.4446 46.3682 86.6849C46.2644 86.9253 46.2195 87.1582 46.2373 87.3845L48.5034 86.8159C48.5633 86.5138 48.6484 86.2528 48.7588 86.034C48.8682 85.8142 49.0562 85.6066 49.3246 85.4102C49.5921 85.2138 49.9709 85.0538 50.4628 84.9313C51.0745 84.7779 51.6235 84.7592 52.1107 84.8752C52.598 84.9912 52.9356 85.2521 53.1264 85.6571L54.4068 85.3353L54.5237 85.803L53.2667 86.1191C53.2976 86.3379 53.2779 86.5643 53.2087 86.7981C53.1386 87.0319 53.0254 87.2489 52.8664 87.4509L51.6637 87.5042C51.9237 87.132 52.0499 86.7719 52.0434 86.4268L49.7548 87.001C49.695 87.3069 49.6127 87.5697 49.507 87.7876C49.4004 88.0064 49.2142 88.215 48.9477 88.4133C48.6802 88.6115 48.3014 88.7724 47.8104 88.8959C47.1988 89.0493 46.6507 89.0661 46.1672 88.9482L46.1653 88.9464L46.1634 88.9454ZM50.1495 85.947C50.0232 86.0835 49.9306 86.2584 49.8717 86.4717L51.8881 85.9657C51.7787 85.7871 51.6216 85.673 51.4168 85.6225C51.211 85.5729 50.9763 85.5813 50.7125 85.6477C50.4628 85.7094 50.2758 85.8104 50.1495 85.9461V85.947ZM46.8387 88.2057C47.036 88.259 47.2642 88.2533 47.5214 88.1888C47.7786 88.1233 47.9703 88.0214 48.1003 87.8802C48.2294 87.739 48.3229 87.5594 48.3809 87.3424L46.3757 87.8456C46.487 88.0317 46.6413 88.1514 46.8387 88.2057Z" fill="#171717"/>
<path d="M50.1344 95.2289C54.8279 93.6128 58.1631 90.9392 57.5839 89.2572C57.0048 87.5752 52.7305 87.5217 48.0371 89.1378C43.3437 90.7539 40.0084 93.4275 40.5876 95.1095C41.1668 96.7915 45.441 96.845 50.1344 95.2289Z" fill="url(#paint10_linear_11395_114935)"/>
<path d="M43.9583 96.4884C43.9106 96.4884 43.8648 96.4884 43.818 96.4884C41.9774 96.465 40.8027 95.9852 40.5109 95.136C40.2191 94.2868 40.8486 93.186 42.2851 92.0347C43.6992 90.9011 45.7334 89.8443 48.0117 89.0596C50.29 88.2749 52.5421 87.855 54.3556 87.8784C56.1962 87.9017 57.3709 88.3815 57.6627 89.2308C57.9554 90.08 57.325 91.1808 55.8885 92.3321C54.4744 93.4656 52.4402 94.5224 50.1619 95.3071C47.9416 96.0712 45.7456 96.4893 43.9583 96.4893V96.4884ZM48.0641 89.2149C43.4205 90.8132 40.1022 93.446 40.6653 95.0827C40.9337 95.8608 42.0532 96.3013 43.819 96.3238C45.6137 96.3443 47.8462 95.93 50.1076 95.1509C52.3691 94.3728 54.3855 93.3253 55.7847 92.203C57.1623 91.0985 57.774 90.0613 57.5055 89.2831C56.9425 87.6464 52.7058 87.6165 48.0632 89.2149H48.0641Z" fill="black"/>
<path d="M50.9809 97.3613C53.0067 96.6412 54.9951 95.7115 56.6785 94.3563C57.4136 93.7334 58.3536 92.8506 58.3929 91.8311C58.3929 91.6936 58.3714 91.5562 58.3274 91.4262L57.5801 89.2563C58.0973 91.0062 54.9951 92.959 53.6848 93.6736C50.6994 95.3187 45.3544 97.0349 41.9922 96.1763H41.9894C41.417 96.0108 40.7922 95.7068 40.5818 95.1092C40.6323 95.2308 41.3637 97.4502 41.4273 97.4922C41.706 97.9599 42.2335 98.1984 42.7357 98.3452C43.901 98.6604 45.1309 98.6052 46.3215 98.4743C47.9095 98.2835 49.4705 97.8879 50.9791 97.3622V97.3604L50.9809 97.3613Z" fill="url(#paint11_linear_11395_114935)"/>
<mask id="mask4_11395_114935" style="mask-type:luminance" maskUnits="userSpaceOnUse" x="40" y="89" width="19" height="10">
<path d="M50.9809 97.3613C53.0067 96.6412 54.9951 95.7115 56.6785 94.3563C57.4136 93.7334 58.3536 92.8506 58.3929 91.8311C58.3929 91.6936 58.3714 91.5562 58.3274 91.4262L57.5801 89.2563C58.0973 91.0062 54.9951 92.959 53.6848 93.6736C50.6994 95.3187 45.3544 97.0349 41.9922 96.1763H41.9894C41.417 96.0108 40.7922 95.7068 40.5818 95.1092C40.6323 95.2308 41.3637 97.4502 41.4273 97.4922C41.706 97.9599 42.2335 98.1984 42.7357 98.3452C43.901 98.6604 45.1309 98.6052 46.3215 98.4743C47.9095 98.2835 49.4705 97.8879 50.9791 97.3622V97.3604L50.9809 97.3613Z" fill="white"/>
</mask>
<g mask="url(#mask4_11395_114935)">
<path d="M48.181 92.005L43.3783 93.6587L45.9412 101.102L50.7439 99.4482L48.181 92.005Z" fill="white"/>
<path d="M58.2046 88.2911L53.402 89.9448L55.9649 97.388L60.7675 95.7343L58.2046 88.2911Z" fill="white"/>
<path d="M41.6775 92.84L36.8749 94.4937L39.4378 101.937L44.2404 100.283L41.6775 92.84Z" fill="white"/>
</g>
<path d="M44.68 98.6612C44.0319 98.6612 43.3641 98.6014 42.7151 98.4255C42.0314 98.2245 41.6002 97.942 41.358 97.5352C41.3075 97.4585 41.1943 97.1601 40.6986 95.6974C40.6201 95.4664 40.5509 95.2625 40.5209 95.1783C40.5153 95.1652 40.5107 95.1512 40.506 95.1381L40.6594 95.0792C40.6622 95.0867 40.6678 95.1007 40.6743 95.1194C40.8473 95.5599 41.2944 95.8882 42.0052 96.0958L42.0146 96.0977C45.1673 96.9039 50.3617 95.414 53.6473 93.6033C54.3862 93.2002 58.0412 91.0996 57.5034 89.2815L57.6596 89.2319L58.4068 91.4017C58.4527 91.5383 58.476 91.6832 58.476 91.8338C58.4377 92.8458 57.5726 93.71 56.7327 94.4217C55.2616 95.6048 53.4004 96.5887 51.0407 97.4304V97.4323L51.008 97.4435C49.3938 98.0056 47.8216 98.3806 46.3326 98.5593C45.8145 98.6163 45.2552 98.6631 44.68 98.6631V98.6612ZM41.4861 97.4332L41.4889 97.4351L41.4983 97.451C41.7181 97.8204 42.1193 98.0795 42.759 98.2675C43.9552 98.5911 45.2272 98.5125 46.313 98.3937C47.7804 98.2179 49.332 97.8485 50.9257 97.2957L50.9538 97.2845C53.3106 96.4475 55.1662 95.4692 56.627 94.2936C57.4388 93.6061 58.275 92.7747 58.3105 91.8292C58.3105 91.7001 58.2899 91.5729 58.2497 91.4532L57.7063 89.8745C57.4791 91.5645 54.6705 93.232 53.7249 93.7474C51.0847 95.2017 45.5648 97.1685 41.9828 96.2595L41.9669 96.2567C41.4908 96.1192 41.1233 95.9275 40.8661 95.6843C41.0662 96.2735 41.4151 97.3014 41.4852 97.4342L41.4861 97.4332Z" fill="black"/>
<path d="M46.2262 94.5345C45.7343 94.4569 45.3723 94.225 45.1395 93.8359L43.9021 94.2624L43.745 93.806L44.9711 93.3842C44.9141 93.0971 44.9244 92.8034 45.001 92.5032C45.0787 92.202 45.218 91.9364 45.4182 91.7063L46.62 91.5726C46.447 91.7858 46.317 92.0168 46.2347 92.2656C46.1514 92.5144 46.1271 92.7501 46.1636 92.9745L48.3727 92.2132C48.4063 91.9065 48.4699 91.6399 48.5597 91.4127C48.6495 91.1854 48.8206 90.9619 49.0704 90.743C49.3201 90.5242 49.6848 90.3334 50.1627 90.1678C50.7594 89.9621 51.3047 89.8975 51.8004 89.9714C52.2961 90.0453 52.6543 90.2763 52.8787 90.6635L54.1273 90.2333L54.2844 90.6897L53.0583 91.1115C53.1079 91.3266 53.1079 91.5539 53.0583 91.7924C53.0087 92.0309 52.9143 92.2572 52.774 92.4723L51.5797 92.6285C51.806 92.2357 51.9023 91.8663 51.8668 91.523L49.6362 92.2909C49.6035 92.6004 49.5427 92.8698 49.4566 93.0961C49.3696 93.3225 49.2022 93.546 48.9525 93.7667C48.7028 93.9874 48.339 94.1801 47.8611 94.3456C47.2644 94.5514 46.7201 94.615 46.229 94.5383H46.2272L46.2262 94.5345ZM49.942 91.2069C49.8279 91.3547 49.7503 91.5361 49.7101 91.7531L51.676 91.076C51.5516 90.9076 51.3851 90.8075 51.1766 90.7748C50.968 90.743 50.7342 90.772 50.477 90.8599C50.2348 90.9432 50.0561 91.0582 49.942 91.206V91.2069ZM46.836 93.7396C47.0371 93.7761 47.2644 93.7508 47.515 93.6648C47.7657 93.5787 47.949 93.459 48.065 93.3075C48.1809 93.155 48.2595 92.9689 48.2988 92.7482L46.3441 93.4207C46.4703 93.5974 46.6349 93.7031 46.836 93.7396Z" fill="#171717"/>
<path opacity="0.5" d="M42.9947 100.477C42.8956 100.348 42.9433 76.1664 42.9433 72.0578C42.9433 67.9492 44.7156 65.6017 47.6449 63.9061C50.0457 62.5172 51.5215 59.9499 51.5243 57.1769C51.5262 55.3466 51.5299 53.7678 51.5262 53.6921C51.5262 51.556 56.3568 49.8248 62.3135 49.8248C64.4599 49.8248 66.4604 50.0492 68.1401 50.4374C66.8392 48.8259 62.6922 47.6484 57.7765 47.6484C51.818 47.6484 46.9892 49.3796 46.9892 51.5139C46.993 51.5915 46.9892 53.1693 46.9874 54.9996C46.9846 57.7736 45.5087 60.3399 43.1079 61.7288C40.1777 63.4244 38.4064 65.771 38.4064 69.8805C38.4064 73.99 38.3587 98.1711 38.4578 98.3002C38.6972 99.4459 39.6044 100.303 40.5257 100.957C41.8444 101.85 43.3081 102.476 44.8222 102.96C43.9871 102.33 43.2117 101.525 42.9938 100.478L42.9947 100.477Z" fill="#FFE6E6"/>
<path opacity="0.5" d="M51.9257 49.8247C50.6005 49.8247 49.3313 49.9108 48.1594 50.0669C48.0238 50.1876 47.9032 50.3101 47.8003 50.4373C49.2584 50.1015 50.9549 49.8883 52.7796 49.8369C52.4981 49.8284 52.2128 49.8247 51.9257 49.8247Z" fill="url(#paint12_radial_11395_114935)"/>
<path d="M56.5074 90.0833C54.7958 86.6808 56.0294 82.329 59.5077 80.625C58.8923 80.9458 57.9 81.3685 57.3584 81.7857C56.0734 82.7013 55.1475 84.0892 54.7565 85.6155C53.248 91.4254 59.2252 96.6815 64.6235 94.0544L65.8384 93.4549C62.4332 95.1355 58.2554 93.6251 56.5064 90.0833H56.5074Z" fill="url(#paint13_linear_11395_114935)"/>
<mask id="mask5_11395_114935" style="mask-type:luminance" maskUnits="userSpaceOnUse" x="54" y="80" width="12" height="15">
<path d="M56.5074 90.0833C54.7958 86.6808 56.0294 82.329 59.5077 80.625C58.8923 80.9458 57.9 81.3685 57.3584 81.7857C56.0734 82.7013 55.1475 84.0892 54.7565 85.6155C53.248 91.4254 59.2252 96.6815 64.6235 94.0544L65.8384 93.4549C62.4332 95.1355 58.2554 93.6251 56.5064 90.0833H56.5074Z" fill="white"/>
</mask>
<g mask="url(#mask5_11395_114935)">
<path d="M62.1823 88.0288L55.1227 91.5117L57.37 96.0669L64.4297 92.5839L62.1823 88.0288Z" fill="white"/>
<path d="M57.7773 83.2314L50.7177 86.7144L52.965 91.2695L60.0246 87.7866L57.7773 83.2314Z" fill="white"/>
</g>
<path d="M61.6467 94.8374C60.0802 94.8374 58.5314 94.2809 57.2033 93.1932C54.9147 91.3199 53.9477 88.4094 54.6781 85.5961C55.0765 84.0408 56.0361 82.6285 57.3118 81.7204C57.7083 81.4146 58.3396 81.1087 58.897 80.8375C59.0345 80.7711 59.1673 80.7066 59.2899 80.6458C59.3506 80.614 59.4114 80.5831 59.4732 80.5522L59.5471 80.6991C59.4891 80.729 59.4283 80.7599 59.3656 80.7917C57.8748 81.5801 56.7553 82.911 56.1998 84.5598C55.5937 86.3602 55.7331 88.3598 56.5823 90.047C58.3078 93.5421 62.4426 95.0385 65.8011 93.3831L65.8039 93.3812L65.8769 93.529C65.8769 93.529 65.875 93.5299 65.8741 93.5308L64.662 94.1285C63.6865 94.6036 62.6633 94.8374 61.6476 94.8374H61.6467ZM58.19 81.3734C57.8935 81.5296 57.6167 81.6914 57.4091 81.8513C56.1624 82.7389 55.2262 84.1184 54.8371 85.6363C54.1226 88.3869 55.069 91.2338 57.3071 93.066C59.4105 94.7878 62.0788 95.147 64.4684 94.0377C61.3521 94.7832 57.9646 93.2213 56.4336 90.12C55.5657 88.3935 55.4226 86.3481 56.0426 84.5065C56.4654 83.2505 57.208 82.1749 58.1891 81.3734H58.19Z" fill="black"/>
<path d="M59.5087 80.6252C62.9139 78.9445 67.0917 80.455 68.8407 83.9977C70.5877 87.5396 69.2447 91.7744 65.8394 93.4551C62.4342 95.1357 58.2564 93.6253 56.5074 90.0835C54.7594 86.5407 56.1025 82.3068 59.5077 80.6252H59.5087Z" fill="url(#paint14_linear_11395_114935)"/>
<mask id="mask6_11395_114935" style="mask-type:luminance" maskUnits="userSpaceOnUse" x="55" y="79" width="15" height="16">
<path d="M59.5087 80.6237C62.9139 78.9431 67.0917 80.4535 68.8407 83.9963C70.5877 87.5381 69.2447 91.7729 65.8394 93.4536C62.4342 95.1343 58.2564 93.6238 56.5074 90.082C54.7594 86.5392 56.1025 82.3053 59.5077 80.6237H59.5087Z" fill="white"/>
</mask>
<g mask="url(#mask6_11395_114935)">
<path d="M66.8596 78.4749L60.5452 97.0874L67.9078 99.5852L74.2223 80.9727L66.8596 78.4749Z" fill="white"/>
</g>
<path d="M62.9018 94.2217C60.2775 94.2217 57.7102 92.7056 56.4335 90.1196C54.6678 86.5423 56.0314 82.2494 59.4713 80.551L59.49 80.5426C62.928 78.8591 67.1516 80.3892 68.9146 83.9609C70.6794 87.5383 69.3167 91.8302 65.8759 93.5286C64.9229 93.9991 63.9081 94.2217 62.9027 94.2217H62.9018ZM59.5264 80.7072C56.1801 82.371 54.8576 86.5563 56.5804 90.0467C58.3059 93.5427 62.4426 95.0381 65.802 93.3809C69.1615 91.7236 70.4914 87.5299 68.7668 84.0339C67.0412 80.5379 62.9046 79.0415 59.5451 80.6987L59.5274 80.7072H59.5264Z" fill="black"/>
<path d="M66.0199 88.8583C65.8366 89.44 65.4054 89.9488 64.7283 90.3884L65.3072 91.5612L64.5253 91.9475L63.952 90.785C63.4638 90.9823 62.9728 91.1076 62.4771 91.1609C61.9814 91.2142 61.5512 91.1843 61.1855 91.0683L61.0929 89.7982C61.4315 89.8918 61.8047 89.9264 62.2124 89.9039C62.6202 89.8806 63.014 89.7973 63.3937 89.6533L62.3602 87.5583C61.8496 87.6621 61.4091 87.7173 61.0359 87.7238C60.6627 87.7295 60.3073 87.6443 59.9669 87.4695C59.6274 87.2936 59.3449 86.9794 59.1214 86.5248C58.8427 85.959 58.7922 85.3848 58.9708 84.8012C59.1495 84.2176 59.5759 83.7125 60.2512 83.2842L59.6667 82.1001L60.4485 81.7139L61.0219 82.8764C61.3875 82.7221 61.7691 82.6164 62.1647 82.5593C62.5594 82.5032 62.9298 82.5032 63.274 82.5593L63.4049 83.8107C62.7699 83.7415 62.1619 83.8079 61.5802 84.0071L62.624 86.1227C63.1402 86.0151 63.5845 85.9571 63.9558 85.9469C64.3271 85.9375 64.6834 86.0198 65.0266 86.1938C65.3699 86.3687 65.6533 86.682 65.8768 87.1356C66.1555 87.7014 66.2032 88.2747 66.0199 88.8555V88.8583ZM60.8423 86.2882C61.077 86.3462 61.3735 86.3471 61.7336 86.291L60.8133 84.4261C60.5168 84.6412 60.3298 84.8732 60.254 85.1191C60.1783 85.3651 60.1998 85.6102 60.3204 85.8552C60.4336 86.0862 60.6085 86.2302 60.8423 86.2882ZM64.7535 88.5516C64.8368 88.3112 64.8199 88.0727 64.7021 87.8351C64.5852 87.5976 64.4056 87.4498 64.1625 87.3909C63.9202 87.3329 63.6163 87.3329 63.2487 87.3918L64.1643 89.2455C64.4739 89.0229 64.6694 88.7919 64.7526 88.5516H64.7535Z" fill="#171717"/>
<path d="M52.0904 68.7605C50.3788 65.358 51.6124 61.0063 55.0907 59.3022C54.4753 59.623 53.483 60.0458 52.9414 60.4629C51.6564 61.3785 50.7305 62.7664 50.3396 64.2928C48.831 70.1026 54.8082 75.3588 60.2065 72.7316L61.4214 72.1321C58.0162 73.8128 53.8384 72.3023 52.0894 68.7605H52.0904Z" fill="url(#paint15_linear_11395_114935)"/>
<mask id="mask7_11395_114935" style="mask-type:luminance" maskUnits="userSpaceOnUse" x="50" y="59" width="12" height="15">
<path d="M52.0904 68.7605C50.3788 65.358 51.6124 61.0063 55.0907 59.3022C54.4753 59.623 53.483 60.0458 52.9414 60.4629C51.6564 61.3785 50.7305 62.7664 50.3396 64.2928C48.831 70.1026 54.8082 75.3588 60.2065 72.7316L61.4214 72.1321C58.0162 73.8128 53.8384 72.3023 52.0894 68.7605H52.0904Z" fill="white"/>
</mask>
<g mask="url(#mask7_11395_114935)">
<path d="M57.7652 66.707L50.7056 70.1899L52.9529 74.7451L60.0126 71.2622L57.7652 66.707Z" fill="white"/>
<path d="M53.3593 61.9086L46.2997 65.3916L48.547 69.9468L55.6067 66.4638L53.3593 61.9086Z" fill="white"/>
</g>
<path d="M57.2296 73.5137C55.663 73.5137 54.1142 72.9572 52.7862 71.8695C50.4976 69.9962 49.5305 67.0856 50.261 64.2724C50.6594 62.717 51.619 61.3048 52.8947 60.3967C53.2912 60.0908 53.9225 59.785 54.4799 59.5138C54.6174 59.4474 54.7502 59.3828 54.8727 59.322C54.9335 59.2902 54.9943 59.2594 55.056 59.2285L55.1299 59.3754C55.072 59.4053 55.0112 59.4361 54.9485 59.4679C53.4577 60.2564 52.3382 61.5872 51.7826 63.2361C51.1766 65.0365 51.316 67.0361 52.1652 68.7233C53.4128 71.2522 55.9221 72.7337 58.4856 72.7337C59.4677 72.7337 60.4562 72.5167 61.3868 72.0575L61.4598 72.2052C61.4598 72.2052 61.4579 72.2062 61.457 72.2071L60.2449 72.8057C59.2694 73.2808 58.2462 73.5146 57.2305 73.5146L57.2296 73.5137ZM53.7719 60.0506C53.4755 60.2068 53.1986 60.3686 52.991 60.5285C51.7443 61.4161 50.8081 62.7956 50.419 64.3135C49.7045 67.0641 50.651 69.911 52.8891 71.7432C54.9934 73.465 57.6607 73.8242 60.0513 72.715C56.935 73.4604 53.5475 71.8985 52.0165 68.7972C51.1485 67.0707 51.0054 65.0253 51.6255 63.1837C52.0483 61.9277 52.7909 60.8521 53.7719 60.0506Z" fill="black"/>
<path d="M55.0924 59.3034C58.4977 57.6227 62.6755 59.1332 64.4244 62.676C66.1715 66.2178 64.8285 70.4526 61.4232 72.1333C58.0179 73.814 53.8401 72.3035 52.0912 68.7617C50.3432 65.2189 51.6862 60.985 55.0915 59.3034H55.0924Z" fill="url(#paint16_linear_11395_114935)"/>
<mask id="mask8_11395_114935" style="mask-type:luminance" maskUnits="userSpaceOnUse" x="51" y="58" width="15" height="15">
<path d="M55.0924 59.3034C58.4977 57.6227 62.6755 59.1332 64.4244 62.676C66.1715 66.2178 64.8285 70.4526 61.4232 72.1333C58.0179 73.814 53.8401 72.3035 52.0912 68.7617C50.3432 65.2189 51.6862 60.985 55.0915 59.3034H55.0924Z" fill="white"/>
</mask>
<g mask="url(#mask8_11395_114935)">
<path d="M62.4451 57.1536L56.1306 75.7661L63.4933 78.264L69.8077 59.6514L62.4451 57.1536Z" fill="white"/>
</g>
<path d="M58.4857 72.8989C55.8613 72.8989 53.2931 71.3829 52.0174 68.7969C50.2516 65.2195 51.6152 60.9267 55.0551 59.2282L55.0738 59.2198C58.5118 57.5363 62.7355 59.0664 64.4984 62.6382C66.2633 66.2155 64.9006 70.5074 61.4598 72.2059C60.5068 72.6763 59.492 72.8989 58.4866 72.8989H58.4857ZM55.1103 59.3853C51.7639 61.0492 50.4415 65.2345 52.1642 68.7248C53.8898 72.2208 58.0264 73.7163 61.3859 72.059C64.7453 70.4018 66.0753 66.2081 64.3497 62.7121C62.6242 59.2161 58.4875 57.7197 55.1281 59.3769L55.1103 59.3853Z" fill="black"/>
<path d="M61.6037 67.5365C61.4204 68.1183 60.9893 68.627 60.3122 69.0666L60.8911 70.2394L60.1092 70.6257L59.5359 69.4632C59.0477 69.6605 58.5567 69.7858 58.061 69.8391C57.5653 69.8925 57.1341 69.8625 56.7694 69.7466L56.6768 68.4765C57.0154 68.57 57.3885 68.6046 57.7963 68.5822C58.2041 68.5588 58.5969 68.4755 58.9775 68.3315L57.9441 66.2365C57.4334 66.3403 56.9929 66.3955 56.6198 66.4021C56.2466 66.4086 55.8912 66.3226 55.5508 66.1477C55.2113 65.9718 54.9288 65.6576 54.7053 65.2031C54.4266 64.6372 54.3761 64.063 54.5547 63.4794C54.7333 62.8958 55.1598 62.3907 55.8351 61.9624L55.2505 60.7784L56.0324 60.3921L56.6057 61.5546C56.9714 61.4003 57.353 61.2946 57.7486 61.2376C58.1433 61.1815 58.5137 61.1815 58.8578 61.2376L58.9888 62.4889C58.3537 62.4197 57.7458 62.4861 57.1641 62.6853L58.2078 64.8009C58.7241 64.6933 59.1683 64.6354 59.5396 64.6251C59.9109 64.6157 60.2673 64.698 60.6105 64.872C60.9537 65.0469 61.2371 65.3602 61.4607 65.8138C61.7394 66.3796 61.7871 66.9529 61.6037 67.5337V67.5365ZM56.4262 64.9655C56.6609 65.0235 56.9574 65.0244 57.3175 64.9683L56.3972 63.1034C56.1007 63.3185 55.9136 63.5505 55.8379 63.7964C55.7621 64.0424 55.7836 64.2874 55.9043 64.5325C56.0174 64.7635 56.1923 64.9075 56.4262 64.9655ZM60.3374 67.2298C60.4206 66.9894 60.4038 66.7509 60.286 66.5134C60.1691 66.2758 59.9895 66.128 59.7463 66.0691C59.5041 66.0111 59.2001 66.0111 58.8326 66.0701L59.7482 67.9237C60.0578 67.7011 60.2532 67.4701 60.3365 67.2298H60.3374Z" fill="#171717"/>
<path d="M53.0835 88.1099C56.8601 87.6226 59.7744 84.165 59.2385 80.3267C59.318 81.015 59.5228 82.0747 59.4807 82.7583C59.4424 84.3361 58.8101 85.8802 57.7654 87.0587C53.7971 91.5619 46.0943 89.5539 45.2489 83.6094L45.0656 82.2673C45.5809 86.0299 49.1713 88.6458 53.0854 88.1099H53.0845H53.0835Z" fill="url(#paint17_linear_11395_114935)"/>
<mask id="mask9_11395_114935" style="mask-type:luminance" maskUnits="userSpaceOnUse" x="45" y="80" width="15" height="10">
<path d="M53.0835 88.1099C56.8601 87.6226 59.7744 84.165 59.2385 80.3267C59.318 81.015 59.5228 82.0747 59.4807 82.7583C59.4424 84.3361 58.8101 85.8802 57.7654 87.0587C53.7971 91.5619 46.0943 89.5539 45.2489 83.6094L45.0656 82.2673C45.5809 86.0299 49.1713 88.6458 53.0854 88.1099H53.0845H53.0835Z" fill="white"/>
</mask>
<g mask="url(#mask9_11395_114935)">
<path d="M51.6071 82.2588L46.5746 82.9473L47.6416 90.7467L52.6741 90.0582L51.6071 82.2588Z" fill="white"/>
<path d="M58.048 83.2217L53.0155 83.9102L54.0825 91.7096L59.115 91.0211L58.048 83.2217Z" fill="white"/>
</g>
<path d="M52.326 89.6016C51.5956 89.6016 50.853 89.495 50.1188 89.2752C47.4075 88.4643 45.5566 86.3506 45.1676 83.6206L44.9843 82.2776L45.147 82.2551C45.6548 85.9662 49.2107 88.555 53.0733 88.0275C54.9457 87.7853 56.6806 86.7818 57.8328 85.2713C58.8897 83.8871 59.3648 82.2112 59.1815 80.5333C59.1721 80.465 59.1637 80.3986 59.1572 80.335L59.3199 80.3145C59.3293 80.3809 59.3377 80.4473 59.3452 80.5137C59.3629 80.6502 59.3844 80.7961 59.4059 80.9476C59.4948 81.5612 59.5949 82.257 59.5631 82.762C59.5257 84.323 58.8925 85.9101 57.8272 87.111C56.4038 88.7262 54.4135 89.5997 52.326 89.5997V89.6016ZM45.3499 83.7272C45.768 86.3291 47.56 88.339 50.1656 89.118C52.9368 89.9467 55.8258 89.1368 57.7038 87.0044C58.7438 85.8316 59.362 84.2828 59.3985 82.7564C59.4144 82.4927 59.3938 82.1719 59.3573 81.8371C59.2432 83.0997 58.7681 84.3192 57.9628 85.3733C56.7844 86.9174 55.0112 87.9443 53.0958 88.1921C52.7516 88.2389 52.4093 88.2623 52.0726 88.2623C49.048 88.2623 46.3638 86.4273 45.3499 83.7281V83.7272Z" fill="black"/>
<path d="M59.2394 80.3263C58.7241 76.5637 55.1337 73.9478 51.2187 74.4837C47.3046 75.0187 44.5493 78.5044 45.0647 82.2669C45.58 86.0295 49.1704 88.6454 53.0845 88.1095C56.9995 87.5745 59.7548 84.0888 59.2394 80.3263Z" fill="url(#paint18_linear_11395_114935)"/>
<mask id="mask10_11395_114935" style="mask-type:luminance" maskUnits="userSpaceOnUse" x="45" y="74" width="15" height="15">
<path d="M59.2394 80.3263C58.7241 76.5637 55.1337 73.9478 51.2187 74.4837C47.3046 75.0187 44.5493 78.5044 45.0647 82.2669C45.58 86.0295 49.1704 88.6454 53.0845 88.1095C56.9995 87.5745 59.7548 84.0888 59.2394 80.3263Z" fill="white"/>
</mask>
<g mask="url(#mask10_11395_114935)">
<path d="M50.7126 68.3296L38.8268 83.9829L45.0188 88.6846L56.9046 73.0313L50.7126 68.3296Z" fill="white"/>
</g>
<path d="M52.0725 88.2602C48.5335 88.2602 45.4593 85.7471 44.9842 82.2773C44.7316 80.4349 45.2404 78.6018 46.417 77.1138C47.5926 75.6267 49.2938 74.6643 51.2083 74.4025C55.1616 73.8619 58.8007 76.5143 59.3217 80.3161C59.5742 82.1586 59.0654 83.9926 57.8889 85.4797C56.7132 86.9667 55.0111 87.93 53.0966 88.191C52.7524 88.2377 52.4101 88.2611 52.0734 88.2611L52.0725 88.2602ZM52.2315 74.496C51.9013 74.496 51.5674 74.5184 51.2307 74.5643C49.3593 74.8205 47.6955 75.7614 46.546 77.2148C45.3975 78.6672 44.9009 80.4564 45.1469 82.254C45.6547 85.9651 49.2106 88.5548 53.0741 88.0264C54.9465 87.7701 56.6104 86.8292 57.7598 85.3759C58.9083 83.9234 59.4049 82.1342 59.1589 80.3367C58.695 76.9492 55.691 74.496 52.2324 74.496H52.2315Z" fill="black"/>
<path d="M52.7168 85.3783C52.1323 85.5513 51.4683 85.4802 50.7266 85.165L50.0794 86.3023L49.3218 85.8702L49.9634 84.7432C49.5267 84.4495 49.1469 84.1129 48.8252 83.7313C48.5035 83.3506 48.2874 82.9774 48.179 82.6108L49.1787 81.8224C49.291 82.1554 49.4705 82.4836 49.7184 82.8091C49.9662 83.1336 50.2562 83.4133 50.5872 83.6471L51.7442 81.6176C51.3719 81.2538 51.0792 80.9189 50.866 80.6131C50.6527 80.3073 50.5227 79.9659 50.4778 79.5853C50.4329 79.2056 50.5358 78.7959 50.7865 78.3563C51.0979 77.8083 51.5468 77.4454 52.1295 77.2668C52.7131 77.0881 53.3706 77.1583 54.1038 77.4772L54.7576 76.3306L55.5151 76.7627L54.8735 77.8896C55.2074 78.1066 55.5067 78.3629 55.7761 78.6594C56.0435 78.9549 56.2512 79.2617 56.398 79.5778L55.4347 80.3868C55.1363 79.8219 54.7407 79.3552 54.2497 78.9848L53.0816 81.0349C53.4594 81.4025 53.7559 81.7373 53.9719 82.0394C54.1871 82.3415 54.3189 82.6828 54.3666 83.0654C54.4143 83.446 54.3133 83.8575 54.0627 84.2971C53.7512 84.8452 53.3014 85.2052 52.7168 85.3792V85.3783ZM51.9471 79.6498C52.0303 79.8761 52.1959 80.123 52.4437 80.3896L53.4735 78.5827C53.1283 78.4573 52.8328 78.4321 52.5859 78.5078C52.339 78.5817 52.1491 78.7389 52.0135 78.9755C51.8863 79.199 51.8639 79.4235 51.9471 79.6498ZM52.2614 84.1587C52.5073 84.0923 52.6953 83.9445 52.8272 83.7144C52.9581 83.4853 52.9806 83.2524 52.8927 83.0186C52.8057 82.7848 52.6345 82.5332 52.3801 82.2629L51.357 84.0595C51.7142 84.1924 52.0154 84.2251 52.2614 84.1587Z" fill="#171717"/>
<path d="M57.5538 51.4315C64.6514 51.4315 70.4052 49.3693 70.4052 46.8254C70.4052 44.2815 64.6514 42.2192 57.5538 42.2192C50.4562 42.2192 44.7024 44.2815 44.7024 46.8254C44.7024 49.3693 50.4562 51.4315 57.5538 51.4315Z" fill="url(#paint19_radial_11395_114935)"/>
<path d="M57.554 51.5306C54.1103 51.5306 50.8706 51.0499 48.4324 50.1754C45.9624 49.2897 44.6016 48.1001 44.6016 46.8244C44.6016 45.5487 45.9624 44.3581 48.4324 43.4734C50.8706 42.5998 54.1094 42.1182 57.554 42.1182C60.9985 42.1182 64.2373 42.5989 66.6755 43.4734C69.1456 44.359 70.5064 45.5487 70.5064 46.8244C70.5064 48.1001 69.1456 49.2907 66.6755 50.1754C64.2373 51.049 60.9985 51.5306 57.554 51.5306ZM57.554 42.3192C50.5227 42.3192 44.8026 44.3403 44.8026 46.8244C44.8026 49.3084 50.5227 51.3295 57.554 51.3295C64.5852 51.3295 70.3053 49.3084 70.3053 46.8244C70.3053 44.3403 64.5852 42.3192 57.554 42.3192Z" fill="black"/>
<path d="M57.554 50.1344C63.4383 50.1344 68.2085 48.6525 68.2085 46.8245C68.2085 44.9965 63.4383 43.5146 57.554 43.5146C51.6697 43.5146 46.8995 44.9965 46.8995 46.8245C46.8995 48.6525 51.6697 50.1344 57.554 50.1344Z" fill="url(#paint20_radial_11395_114935)"/>
<path d="M57.554 50.2106C54.7005 50.2106 52.0173 49.8655 49.9971 49.238C47.9498 48.602 46.8219 47.7444 46.8219 46.8241C46.8219 45.9038 47.9498 45.0461 49.9971 44.4102C52.0163 43.7826 54.7005 43.4375 57.554 43.4375C60.4075 43.4375 63.0907 43.7826 65.1109 44.4102C67.1582 45.0461 68.2861 45.9038 68.2861 46.8241C68.2861 47.7444 67.1582 48.602 65.1109 49.238C63.0917 49.8655 60.4075 50.2106 57.554 50.2106ZM57.554 43.5918C51.7217 43.5918 46.9772 45.0415 46.9772 46.8241C46.9772 48.6067 51.7217 50.0563 57.554 50.0563C63.3863 50.0563 68.1308 48.6067 68.1308 46.8241C68.1308 45.0415 63.3863 43.5918 57.554 43.5918Z" fill="black"/>
<path d="M57.7122 57.6565C60.7873 57.6256 63.9083 57.2936 66.8132 56.2461C68.0963 55.7467 69.7798 54.99 70.3073 53.6292C70.3718 53.4441 70.4064 53.2486 70.4074 53.0522V46.8271C70.2933 49.4337 65.1905 50.6299 63.0852 50.9853C58.2827 51.8205 50.2591 51.653 46.1131 48.9258C46.1121 48.9258 46.1112 48.9249 46.1103 48.924C45.4135 48.4339 44.7093 47.7334 44.7036 46.8262C44.7158 47.0132 44.6718 53.3 44.7373 53.3861C44.8963 54.1474 45.4986 54.7141 46.1103 55.1481C47.5393 56.1152 49.2275 56.6137 50.8988 56.9915C53.1341 57.4732 55.4283 57.663 57.7131 57.6565H57.7122Z" fill="url(#paint21_radial_11395_114935)"/>
<path d="M57.5943 57.7567C55.1935 57.7567 52.9349 57.5323 50.8773 57.0899C49.3332 56.7411 47.5543 56.2472 46.0542 55.2315C45.2265 54.6442 44.7775 54.0643 44.6401 53.4069H44.6429C44.6092 53.2507 44.5942 52.5286 44.6045 48.3312C44.6064 47.6587 44.6073 47.0667 44.6055 46.8862C44.6055 46.8666 44.6045 46.8469 44.6045 46.8273L44.8047 46.8198C44.8047 46.8282 44.8056 46.8479 44.8056 46.8778C44.8318 47.5634 45.2901 48.2236 46.1683 48.8419C50.0608 51.4017 57.7805 51.8057 63.0684 50.8863C64.2562 50.6852 70.1876 49.5452 70.3073 46.8217L70.5075 46.8264V53.0515C70.5065 53.2563 70.471 53.462 70.4018 53.6622C69.8808 55.0071 68.3133 55.7703 66.8497 56.3398C64.3273 57.2489 61.4981 57.6997 57.9591 57.7539L57.9628 57.7577H57.7131C57.6738 57.7577 57.6336 57.7586 57.5943 57.7586V57.7567ZM44.8299 53.3414L44.8346 53.3648C44.9618 53.9699 45.3845 54.5105 46.1673 55.066C47.6385 56.0621 49.3949 56.5484 50.9194 56.8935C52.9611 57.3331 55.2066 57.5557 57.5925 57.5557C57.6046 57.5557 57.6168 57.5557 57.6289 57.5557H57.7094C61.34 57.5183 64.2216 57.0712 66.7776 56.15C68.1992 55.5972 69.72 54.8602 70.2119 53.5911C70.2727 53.4153 70.3045 53.232 70.3054 53.0496V47.6429C69.2785 49.8641 64.6312 50.8237 63.1011 51.0827C57.7879 52.0068 50.0253 51.5981 46.0822 49.0252H46.0691L46.0439 48.9999C45.4444 48.5772 45.0301 48.1301 44.8037 47.6644C44.8037 47.8542 44.8037 48.0759 44.8019 48.3303C44.7981 49.9885 44.7906 53.0496 44.828 53.3414H44.8299Z" fill="black"/>
<path d="M81.6156 36.3355C76.5811 33.4147 71.1707 35.143 71.1707 35.143L78.9399 44.3413C78.9399 44.3413 82.9867 41.1333 88.2971 45.1278C88.2971 45.1278 86.9345 39.42 81.6156 36.3345V36.3355Z" fill="black"/>
<path d="M95.9879 60.8198L84.9397 48.9636C84.9397 48.9636 89.7787 42.0913 81.5204 36.3301C93.9238 43.3436 97.9697 52.1491 95.987 60.8198H95.9879Z" fill="url(#paint22_radial_11395_114935)"/>
<mask id="mask11_11395_114935" style="mask-type:luminance" maskUnits="userSpaceOnUse" x="81" y="36" width="16" height="25">
<path d="M95.9879 60.8208L84.9397 48.9645C84.9397 48.9645 89.7787 42.0923 81.5204 36.3311C93.9238 43.3446 97.9697 52.15 95.987 60.8208H95.9879Z" fill="white"/>
</mask>
<g mask="url(#mask11_11395_114935)">
<path d="M82.0907 35.3994C83.9799 36.965 85.3688 38.6569 86.217 40.4292C86.897 41.848 87.2337 43.322 87.2196 44.8081C87.1963 47.1753 86.2741 48.8288 86.146 49.0477L95.5612 59.2083C95.8006 58.7042 96.2187 57.3228 96.2299 55.3541C96.2383 53.8596 96.0223 52.25 95.5874 50.5693C95.0431 48.4687 94.1536 46.2512 92.9425 43.9795L93.008 43.9449C94.2219 46.2241 95.1142 48.4482 95.6603 50.5553C96.0971 52.2425 96.3132 53.8586 96.3038 55.3607C96.2907 57.4089 95.8399 58.8267 95.6033 59.2906L95.579 59.3383L95.5425 59.299L86.0524 49.057L86.0674 49.0327C86.0777 49.0159 87.1214 47.3146 87.1448 44.8034C87.1588 43.3285 86.8231 41.8667 86.1488 40.4592C85.3042 38.6971 83.9228 37.0146 82.043 35.4565L82.0907 35.3994Z" fill="black"/>
<path d="M95.0347 50.7131C96.3786 49.9949 96.4508 47.5093 95.1961 45.1613C93.9414 42.8134 91.8347 41.4922 90.4908 42.2104C89.1469 42.9285 89.0747 45.4141 90.3294 47.7621C91.5842 50.11 93.6908 51.4312 95.0347 50.7131Z" fill="url(#paint23_radial_11395_114935)"/>
<path d="M93.2866 42.7764C94.0302 43.346 94.7082 44.1709 95.2292 45.1445C95.839 46.2855 96.1579 47.4948 96.127 48.5497C96.0962 49.6122 95.7146 50.3922 95.0524 50.7457C93.6926 51.4724 91.5592 50.1415 90.2966 47.7791C89.6868 46.6381 89.3679 45.4288 89.3988 44.3738C89.4296 43.3113 89.8112 42.5313 90.4734 42.1778C91.1356 41.8243 91.996 41.9403 92.8966 42.5052C93.0285 42.5875 93.1585 42.6782 93.2866 42.7764ZM95.0178 50.6803C95.6557 50.3398 96.0232 49.5823 96.0531 48.5479C96.0831 47.506 95.7679 46.3098 95.1637 45.1791C94.5595 44.0493 93.7412 43.1215 92.8574 42.5678C91.9801 42.0179 91.1468 41.9028 90.5089 42.2433C89.8711 42.5837 89.5035 43.3413 89.4736 44.3757C89.4437 45.4176 89.7589 46.6137 90.363 47.7445C91.606 50.0705 93.6944 51.3873 95.0178 50.6803Z" fill="black"/>
</g>
<path d="M86.7998 39.7461C90.076 42.2573 92.5488 44.9985 94.1818 47.9352C96.4339 51.9859 97.0539 56.3236 96.0242 60.8278L96.0083 60.8961L95.9606 60.8446L84.8918 48.9659L84.9096 48.9416C84.9283 48.9145 86.7867 46.2256 86.1937 42.8568C85.7644 40.4195 84.1848 38.2338 81.4996 36.3595L81.5389 36.2969C83.474 37.3911 85.2285 38.5424 86.7988 39.7452L86.7998 39.7461ZM95.9672 60.7427C96.9707 56.2815 96.3487 51.9849 94.1163 47.9717C91.7894 43.7864 87.749 39.9986 82.1019 36.7065C82.1235 36.7234 82.145 36.7393 82.1665 36.7561C84.4906 38.5378 85.8682 40.5832 86.2667 42.8456C86.8334 46.0703 85.1743 48.6769 84.9863 48.9593L95.9662 60.7427H95.9672Z" fill="black"/>
<path d="M25.2933 57.7245C29.8714 54.1312 35.4698 55.0889 35.4698 55.0889L29.0577 65.2795C29.0577 65.2795 24.603 62.6664 19.9015 67.3623C19.9015 67.3623 20.4561 61.5207 25.2933 57.7245Z" fill="black"/>
<path d="M14.4714 83.9714L23.7603 70.6916C23.7603 70.6916 18.0104 64.5601 25.3868 57.7056C14.0814 66.3782 11.3008 75.6616 14.4723 83.9714H14.4714Z" fill="url(#paint24_radial_11395_114935)"/>
<mask id="mask12_11395_114935" style="mask-type:luminance" maskUnits="userSpaceOnUse" x="13" y="57" width="13" height="27">
<path d="M14.4714 83.9714L23.7603 70.6916C23.7603 70.6916 18.0104 64.5601 25.3868 57.7056C14.0814 66.3782 11.3008 75.6616 14.4723 83.9714H14.4714Z" fill="white"/>
</mask>
<g mask="url(#mask12_11395_114935)">
<path d="M24.6919 56.8613C23.0393 58.6748 21.9002 60.5434 21.3063 62.4168C20.8312 63.9169 20.7021 65.4227 20.9238 66.8929C21.2764 69.2339 22.4202 70.7424 22.5773 70.9417L14.6697 82.3144C14.362 81.8486 13.756 80.5383 13.4707 78.5902C13.2537 77.1116 13.2444 75.487 13.4408 73.7633C13.6867 71.6076 14.2591 69.2881 15.142 66.8695L15.0719 66.8443C14.1871 69.2703 13.6129 71.5973 13.3669 73.7605C13.1695 75.4917 13.1798 77.1228 13.3987 78.6089C13.6961 80.6356 14.3405 81.9768 14.6398 82.4033L14.6706 82.4472L14.7015 82.4033L22.6727 70.9398L22.654 70.9183C22.6409 70.9033 21.3708 69.3639 20.9977 66.8798C20.7788 65.4218 20.9069 63.9272 21.3793 62.4383C21.9703 60.5762 23.1039 58.7169 24.7481 56.9128L24.6929 56.8623L24.6919 56.8613Z" fill="black"/>
<path d="M18.2557 70.2472C19.171 67.7474 18.7531 65.2961 17.3222 64.7722C15.8914 64.2483 13.9894 65.8501 13.0741 68.35C12.1588 70.8499 12.5767 73.3012 14.0076 73.8251C15.4384 74.349 17.3404 72.7471 18.2557 70.2472Z" fill="url(#paint25_radial_11395_114935)"/>
<path d="M14.6323 65.7257C13.9757 66.3934 13.4183 67.3044 13.0386 68.3407C12.5934 69.5556 12.4466 70.7976 12.6234 71.8385C12.802 72.886 13.2883 73.6052 13.9935 73.8634C15.4413 74.3937 17.3679 72.7785 18.2892 70.2636C18.7343 69.0487 18.8812 67.8066 18.7044 66.7657C18.5258 65.7182 18.0394 64.999 17.3343 64.7408C16.6291 64.4827 15.7929 64.7175 14.9802 65.4021C14.8614 65.5022 14.7455 65.6097 14.6314 65.7257H14.6323ZM14.0197 73.7942C13.3407 73.5454 12.8712 72.8467 12.6972 71.8264C12.5223 70.7985 12.6682 69.5696 13.1088 68.3668C13.5493 67.1641 14.2311 66.1316 15.0288 65.4601C15.821 64.7932 16.63 64.5631 17.309 64.8119C17.988 65.0607 18.4575 65.7593 18.6315 66.7797C18.8064 67.8076 18.6605 69.0365 18.2199 70.2392C17.3127 72.7158 15.4291 74.3104 14.0197 73.7951V73.7942Z" fill="black"/>
</g>
<path d="M20.6346 61.8221C17.7399 64.7654 15.673 67.8237 14.4647 70.9596C12.798 75.2852 12.7887 79.6669 14.4357 83.9831L14.4609 84.0485L14.5011 83.9906L23.807 70.6856L23.7864 70.6631C23.7639 70.6388 21.5493 68.2352 21.6671 64.8168C21.7522 62.343 23.012 59.9591 25.4109 57.7294L25.3632 57.6724C23.5993 59.0257 22.0216 60.4099 20.6346 61.8202V61.8221ZM14.4815 83.8914C12.8663 79.6135 12.8841 75.2721 14.5348 70.9867C16.2566 66.518 19.7292 62.2046 24.8629 58.1587C24.8432 58.1783 24.8245 58.197 24.8058 58.2167C22.7529 60.3042 21.6727 62.5217 21.5941 64.8177C21.4819 68.0902 23.488 70.4405 23.7134 70.694L14.4824 83.8924L14.4815 83.8914Z" fill="black"/>
<path d="M83.3262 6.85425C83.5956 6.85425 83.8144 6.6354 83.8144 6.36605V3.99797C83.8144 3.72862 83.5956 3.50977 83.3262 3.50977C83.0569 3.50977 82.838 3.72862 82.838 3.99797V6.36605C82.838 6.6354 83.0569 6.85425 83.3262 6.85425Z" fill="white"/>
<path d="M81.6914 7.50792C81.8822 7.31713 81.8822 7.00849 81.6914 6.8177L80.0173 5.14358C79.8265 4.95279 79.5178 4.95279 79.3271 5.14358C79.1363 5.33438 79.1363 5.64301 79.3271 5.8338L81.0012 7.50792C81.192 7.69871 81.5006 7.69871 81.6914 7.50792Z" fill="white"/>
<path d="M80.9963 9.12492C80.9963 8.85557 80.7775 8.63672 80.5081 8.63672H78.1401C77.8707 8.63672 77.6519 8.85557 77.6519 9.12492C77.6519 9.39428 77.8707 9.61313 78.1401 9.61313H80.5081C80.7775 9.61313 80.9963 9.39428 80.9963 9.12492Z" fill="white"/>
<path d="M81.6482 10.7593C81.4574 10.5685 81.1488 10.5685 80.958 10.7593L79.2838 12.4334C79.093 12.6242 79.093 12.9328 79.2838 13.1236C79.4746 13.3144 79.7833 13.3144 79.9741 13.1236L81.6482 11.4495C81.839 11.2587 81.839 10.9501 81.6482 10.7593Z" fill="white"/>
<path d="M83.2653 11.4551C82.9959 11.4551 82.7771 11.6739 82.7771 11.9433V14.3114C82.7771 14.5807 82.9959 14.7996 83.2653 14.7996C83.5347 14.7996 83.7535 14.5807 83.7535 14.3114V11.9433C83.7535 11.6739 83.5347 11.4551 83.2653 11.4551Z" fill="white"/>
<path d="M84.9003 10.8023C84.7095 10.9931 84.7095 11.3017 84.9003 11.4925L86.5744 13.1666C86.7652 13.3574 87.0738 13.3574 87.2646 13.1666C87.4554 12.9758 87.4554 12.6672 87.2646 12.4764L85.5905 10.8023C85.3997 10.6115 85.0911 10.6115 84.9003 10.8023Z" fill="white"/>
<path d="M85.595 9.18352C85.595 9.45287 85.8138 9.67172 86.0832 9.67172H88.4513C88.7206 9.67172 88.9395 9.45287 88.9395 9.18352C88.9395 8.91416 88.7206 8.69531 88.4513 8.69531H86.0832C85.8138 8.69531 85.595 8.91416 85.595 9.18352Z" fill="white"/>
<path d="M84.943 7.54942C85.1338 7.74022 85.4425 7.74022 85.6332 7.54942L87.3074 5.87531C87.4982 5.68452 87.4982 5.37588 87.3074 5.18509C87.1166 4.99429 86.8079 4.99429 86.6171 5.18509L84.943 6.8592C84.7522 7.04999 84.7522 7.35863 84.943 7.54942Z" fill="white"/>
<path d="M20.7832 85.9446C21.0526 85.9446 21.2715 85.7257 21.2715 85.4564V83.0883C21.2715 82.819 21.0526 82.6001 20.7832 82.6001C20.5139 82.6001 20.295 82.819 20.295 83.0883V85.4564C20.295 85.7257 20.5139 85.9446 20.7832 85.9446Z" fill="white"/>
<path d="M19.1485 86.5973C19.3393 86.4065 19.3393 86.0978 19.1485 85.9071L17.4744 84.2329C17.2836 84.0421 16.975 84.0421 16.7842 84.2329C16.5934 84.4237 16.5934 84.7324 16.7842 84.9232L18.4583 86.5973C18.6491 86.7881 18.9578 86.7881 19.1485 86.5973Z" fill="white"/>
<path d="M18.4537 88.2128C18.4537 87.9435 18.2349 87.7246 17.9655 87.7246H15.5975C15.3281 87.7246 15.1093 87.9435 15.1093 88.2128C15.1093 88.4822 15.3281 88.701 15.5975 88.701H17.9655C18.2349 88.701 18.4537 88.4822 18.4537 88.2128Z" fill="white"/>
<path d="M19.1056 89.8491C18.9148 89.6584 18.6061 89.6584 18.4154 89.8491L16.7412 91.5233C16.5504 91.7141 16.5504 92.0227 16.7412 92.2135C16.932 92.4043 17.2407 92.4043 17.4315 92.2135L19.1056 90.5394C19.2964 90.3486 19.2964 90.0399 19.1056 89.8491Z" fill="white"/>
<path d="M20.7236 90.5444C20.4542 90.5444 20.2354 90.7633 20.2354 91.0326V93.4007C20.2354 93.6701 20.4542 93.8889 20.7236 93.8889C20.9929 93.8889 21.2118 93.6701 21.2118 93.4007V91.0326C21.2118 90.7633 20.9929 90.5444 20.7236 90.5444Z" fill="white"/>
<path d="M22.3583 89.8907C22.1675 90.0814 22.1675 90.3901 22.3583 90.5809L24.0324 92.255C24.2232 92.4458 24.5318 92.4458 24.7226 92.255C24.9134 92.0642 24.9134 91.7556 24.7226 91.5648L23.0485 89.8907C22.8577 89.6999 22.5491 89.6999 22.3583 89.8907Z" fill="white"/>
<path d="M23.0532 88.2734C23.0532 88.5427 23.2721 88.7616 23.5414 88.7616H25.9095C26.1789 88.7616 26.3977 88.5427 26.3977 88.2734C26.3977 88.004 26.1789 87.7852 25.9095 87.7852H23.5414C23.2721 87.7852 23.0532 88.004 23.0532 88.2734Z" fill="white"/>
<path d="M22.4005 86.6398C22.5913 86.8305 22.9 86.8305 23.0908 86.6398L24.7649 84.9656C24.9557 84.7748 24.9557 84.4662 24.7649 84.2754C24.5741 84.0846 24.2654 84.0846 24.0747 84.2754L22.4005 85.9495C22.2097 86.1403 22.2097 86.449 22.4005 86.6398Z" fill="white"/>
<path d="M88.2406 69.7686C88.4304 69.7686 88.5838 69.6153 88.5838 69.4254V67.7588C88.5838 67.5689 88.4304 67.4155 88.2406 67.4155C88.0507 67.4155 87.8973 67.5689 87.8973 67.7588V69.4254C87.8973 69.6153 88.0507 69.7686 88.2406 69.7686Z" fill="white"/>
<path d="M87.0894 70.228C87.2232 70.0943 87.2232 69.8763 87.0894 69.7426L85.911 68.5642C85.7773 68.4304 85.5594 68.4304 85.4256 68.5642C85.2919 68.6979 85.2919 68.9158 85.4256 69.0496L86.604 70.228C86.7378 70.3617 86.9557 70.3617 87.0894 70.228Z" fill="white"/>
<path d="M86.6013 71.3657C86.6013 71.1758 86.4479 71.0225 86.258 71.0225H84.5914C84.4015 71.0225 84.2482 71.1758 84.2482 71.3657C84.2482 71.5556 84.4015 71.7089 84.5914 71.7089H86.258C86.4479 71.7089 86.6013 71.5556 86.6013 71.3657Z" fill="white"/>
<path d="M87.0595 72.5163C86.9258 72.3826 86.7079 72.3826 86.5741 72.5163L85.3957 73.6948C85.262 73.8285 85.262 74.0464 85.3957 74.1802C85.5295 74.3139 85.7474 74.3139 85.8811 74.1802L87.0595 73.0017C87.1933 72.868 87.1933 72.6501 87.0595 72.5163Z" fill="white"/>
<path d="M88.1976 73.0063C88.0078 73.0063 87.8544 73.1597 87.8544 73.3496V75.0162C87.8544 75.2061 88.0078 75.3595 88.1976 75.3595C88.3875 75.3595 88.5409 75.2061 88.5409 75.0162V73.3496C88.5409 73.1597 88.3875 73.0063 88.1976 73.0063Z" fill="white"/>
<path d="M89.3491 72.5461C89.2153 72.6798 89.2153 72.8978 89.3491 73.0315L90.5275 74.2099C90.6613 74.3437 90.8792 74.3437 91.0129 74.2099C91.1467 74.0762 91.1467 73.8583 91.0129 73.7245L89.8345 72.5461C89.7007 72.4124 89.4828 72.4124 89.3491 72.5461Z" fill="white"/>
<path d="M92.1902 71.4067C92.1902 71.5966 92.0359 71.75 91.8469 71.75H90.1803C89.9905 71.75 89.8371 71.5956 89.8371 71.4067C89.8371 71.2169 89.9914 71.0635 90.1803 71.0635H91.8469C92.0368 71.0635 92.1902 71.2178 92.1902 71.4067Z" fill="white"/>
<path d="M89.379 70.2573C89.5127 70.391 89.7307 70.391 89.8644 70.2573L91.0428 69.0789C91.1766 68.9451 91.1766 68.7272 91.0428 68.5935C90.9091 68.4597 90.6912 68.4597 90.5574 68.5935L89.379 69.7719C89.2453 69.9056 89.2453 70.1236 89.379 70.2573Z" fill="white"/>
</g>
<defs>
<radialGradient id="paint0_radial_11395_114935" cx="0" cy="0" r="1" gradientUnits="userSpaceOnUse" gradientTransform="translate(79.5384 111.881) scale(66.8243 66.8243)">
<stop offset="0.1" stop-color="white"/>
<stop offset="0.25" stop-color="white"/>
<stop offset="0.39" stop-color="white"/>
<stop offset="0.53" stop-color="white"/>
<stop offset="0.66" stop-color="white"/>
<stop offset="0.79" stop-color="white"/>
<stop offset="0.91" stop-color="#FEFEFE"/>
<stop offset="0.92" stop-color="white"/>
</radialGradient>
<linearGradient id="paint1_linear_11395_114935" x1="38.124" y1="91.736" x2="112.038" y2="70.21" gradientUnits="userSpaceOnUse">
<stop stop-color="#FF7C7C"/>
<stop offset="0.14" stop-color="#FF8E8E"/>
<stop offset="0.52" stop-color="#FFD2D2"/>
<stop offset="0.78" stop-color="#FFEDED"/>
<stop offset="0.92" stop-color="white"/>
</linearGradient>
<linearGradient id="paint2_linear_11395_114935" x1="53.1854" y1="103.614" x2="67.8839" y2="80.2393" gradientUnits="userSpaceOnUse">
<stop offset="0.1" stop-color="white"/>
<stop offset="0.14" stop-color="white"/>
<stop offset="0.52" stop-color="white"/>
<stop offset="0.78" stop-color="#FFFFFD"/>
<stop offset="0.92" stop-color="white"/>
</linearGradient>
<linearGradient id="paint3_linear_11395_114935" x1="49.9783" y1="99.2631" x2="69.1035" y2="99.5306" gradientUnits="userSpaceOnUse">
<stop offset="0.22" stop-color="white"/>
<stop offset="0.25" stop-color="white"/>
<stop offset="0.57" stop-color="white"/>
<stop offset="0.8" stop-color="#FFFFFD"/>
<stop offset="0.92" stop-color="white"/>
</linearGradient>
<linearGradient id="paint4_linear_11395_114935" x1="59.183" y1="95.7352" x2="73.8816" y2="72.3594" gradientUnits="userSpaceOnUse">
<stop offset="0.1" stop-color="white"/>
<stop offset="0.14" stop-color="white"/>
<stop offset="0.52" stop-color="white"/>
<stop offset="0.78" stop-color="#FFFFFD"/>
<stop offset="0.92" stop-color="white"/>
</linearGradient>
<linearGradient id="paint5_linear_11395_114935" x1="55.9762" y1="91.3831" x2="75.1023" y2="91.6506" gradientUnits="userSpaceOnUse">
<stop offset="0.22" stop-color="white"/>
<stop offset="0.25" stop-color="white"/>
<stop offset="0.57" stop-color="white"/>
<stop offset="0.8" stop-color="#FFFFFD"/>
<stop offset="0.92" stop-color="white"/>
</linearGradient>
<linearGradient id="paint6_linear_11395_114935" x1="60.3018" y1="101.104" x2="78.9218" y2="80.7137" gradientUnits="userSpaceOnUse">
<stop offset="0.1" stop-color="white"/>
<stop offset="0.14" stop-color="white"/>
<stop offset="0.52" stop-color="white"/>
<stop offset="0.78" stop-color="#FFFFFD"/>
<stop offset="0.92" stop-color="white"/>
</linearGradient>
<linearGradient id="paint7_linear_11395_114935" x1="57.9355" y1="96.2485" x2="76.7075" y2="99.9114" gradientUnits="userSpaceOnUse">
<stop offset="0.22" stop-color="white"/>
<stop offset="0.25" stop-color="white"/>
<stop offset="0.57" stop-color="white"/>
<stop offset="0.8" stop-color="#FFFFFD"/>
<stop offset="0.92" stop-color="white"/>
</linearGradient>
<linearGradient id="paint8_linear_11395_114935" x1="46.6583" y1="94.6518" x2="55.2241" y2="68.398" gradientUnits="userSpaceOnUse">
<stop offset="0.1" stop-color="white"/>
<stop offset="0.14" stop-color="white"/>
<stop offset="0.52" stop-color="white"/>
<stop offset="0.78" stop-color="#FFFFFD"/>
<stop offset="0.92" stop-color="white"/>
</linearGradient>
<linearGradient id="paint9_linear_11395_114935" x1="42.4956" y1="91.2079" x2="61.1113" y2="86.8112" gradientUnits="userSpaceOnUse">
<stop offset="0.22" stop-color="white"/>
<stop offset="0.25" stop-color="white"/>
<stop offset="0.57" stop-color="white"/>
<stop offset="0.8" stop-color="#FFFFFD"/>
<stop offset="0.92" stop-color="white"/>
</linearGradient>
<linearGradient id="paint10_linear_11395_114935" x1="47.2204" y1="100.161" x2="53.5071" y2="73.2747" gradientUnits="userSpaceOnUse">
<stop offset="0.1" stop-color="white"/>
<stop offset="0.14" stop-color="white"/>
<stop offset="0.52" stop-color="white"/>
<stop offset="0.78" stop-color="#FFFFFD"/>
<stop offset="0.92" stop-color="white"/>
</linearGradient>
<linearGradient id="paint11_linear_11395_114935" x1="42.7501" y1="97.0966" x2="60.9206" y2="91.1239" gradientUnits="userSpaceOnUse">
<stop offset="0.22" stop-color="white"/>
<stop offset="0.25" stop-color="white"/>
<stop offset="0.57" stop-color="white"/>
<stop offset="0.8" stop-color="#FFFFFD"/>
<stop offset="0.92" stop-color="white"/>
</linearGradient>
<radialGradient id="paint12_radial_11395_114935" cx="0" cy="0" r="1" gradientUnits="userSpaceOnUse" gradientTransform="translate(59.0823 50.7338) scale(10.8808 10.8808)">
<stop offset="0.1" stop-color="white"/>
<stop offset="0.25" stop-color="white"/>
<stop offset="0.39" stop-color="white"/>
<stop offset="0.53" stop-color="white"/>
<stop offset="0.66" stop-color="white"/>
<stop offset="0.79" stop-color="white"/>
<stop offset="0.91" stop-color="#FEFEFE"/>
<stop offset="0.92" stop-color="white"/>
</radialGradient>
<linearGradient id="paint13_linear_11395_114935" x1="55.2693" y1="90.6756" x2="62.6519" y2="87.0333" gradientUnits="userSpaceOnUse">
<stop offset="0.1" stop-color="white"/>
<stop offset="0.14" stop-color="white"/>
<stop offset="0.52" stop-color="white"/>
<stop offset="0.78" stop-color="#FFFFFD"/>
<stop offset="0.92" stop-color="white"/>
</linearGradient>
<linearGradient id="paint14_linear_11395_114935" x1="56.4839" y1="90.0766" x2="68.8175" y2="83.9917" gradientUnits="userSpaceOnUse">
<stop offset="0.1" stop-color="white"/>
<stop offset="0.14" stop-color="white"/>
<stop offset="0.52" stop-color="white"/>
<stop offset="0.78" stop-color="#FFFFFD"/>
<stop offset="0.92" stop-color="white"/>
</linearGradient>
<linearGradient id="paint15_linear_11395_114935" x1="50.852" y1="69.3528" x2="58.2346" y2="65.7105" gradientUnits="userSpaceOnUse">
<stop offset="0.1" stop-color="white"/>
<stop offset="0.14" stop-color="white"/>
<stop offset="0.52" stop-color="white"/>
<stop offset="0.78" stop-color="#FFFFFD"/>
<stop offset="0.92" stop-color="white"/>
</linearGradient>
<linearGradient id="paint16_linear_11395_114935" x1="52.0668" y1="68.7547" x2="64.4012" y2="62.6693" gradientUnits="userSpaceOnUse">
<stop offset="0.1" stop-color="white"/>
<stop offset="0.14" stop-color="white"/>
<stop offset="0.52" stop-color="white"/>
<stop offset="0.78" stop-color="#FFFFFD"/>
<stop offset="0.92" stop-color="white"/>
</linearGradient>
<linearGradient id="paint17_linear_11395_114935" x1="53.2417" y1="89.4789" x2="52.1259" y2="81.3227" gradientUnits="userSpaceOnUse">
<stop offset="0.1" stop-color="white"/>
<stop offset="0.14" stop-color="white"/>
<stop offset="0.52" stop-color="white"/>
<stop offset="0.78" stop-color="#FFFFFD"/>
<stop offset="0.92" stop-color="white"/>
</linearGradient>
<linearGradient id="paint18_linear_11395_114935" x1="53.058" y1="88.1348" x2="51.1941" y2="74.5097" gradientUnits="userSpaceOnUse">
<stop offset="0.1" stop-color="white"/>
<stop offset="0.14" stop-color="white"/>
<stop offset="0.52" stop-color="white"/>
<stop offset="0.78" stop-color="#FFFFFD"/>
<stop offset="0.92" stop-color="white"/>
</linearGradient>
<radialGradient id="paint19_radial_11395_114935" cx="0" cy="0" r="1" gradientUnits="userSpaceOnUse" gradientTransform="translate(52.8504 43.2059) scale(46.8396 46.8397)">
<stop offset="0.1" stop-color="white"/>
<stop offset="0.25" stop-color="white"/>
<stop offset="0.39" stop-color="white"/>
<stop offset="0.53" stop-color="white"/>
<stop offset="0.66" stop-color="white"/>
<stop offset="0.79" stop-color="white"/>
<stop offset="0.91" stop-color="#FEFEFE"/>
<stop offset="0.92" stop-color="white"/>
</radialGradient>
<radialGradient id="paint20_radial_11395_114935" cx="0" cy="0" r="1" gradientUnits="userSpaceOnUse" gradientTransform="translate(57.3912 48.1501) rotate(90) scale(6.90811 7.9827)">
<stop offset="0.1" stop-color="white"/>
<stop offset="0.25" stop-color="white"/>
<stop offset="0.39" stop-color="white"/>
<stop offset="0.53" stop-color="white"/>
<stop offset="0.66" stop-color="white"/>
<stop offset="0.79" stop-color="white"/>
<stop offset="0.91" stop-color="#FEFEFE"/>
<stop offset="0.92" stop-color="white"/>
</radialGradient>
<radialGradient id="paint21_radial_11395_114935" cx="0" cy="0" r="1" gradientUnits="userSpaceOnUse" gradientTransform="translate(57.5532 52.2423) rotate(90) scale(9.86231 9.86231)">
<stop offset="0.1" stop-color="white"/>
<stop offset="0.25" stop-color="white"/>
<stop offset="0.39" stop-color="white"/>
<stop offset="0.53" stop-color="white"/>
<stop offset="0.66" stop-color="white"/>
<stop offset="0.79" stop-color="white"/>
<stop offset="0.91" stop-color="#FEFEFE"/>
<stop offset="0.92" stop-color="white"/>
</radialGradient>
<radialGradient id="paint22_radial_11395_114935" cx="0" cy="0" r="1" gradientUnits="userSpaceOnUse" gradientTransform="translate(86.0246 50.0878) rotate(-33.4) scale(11.6225 24.291)">
<stop offset="0.1" stop-color="white"/>
<stop offset="0.21" stop-color="white"/>
<stop offset="0.38" stop-color="white"/>
<stop offset="0.58" stop-color="white"/>
<stop offset="0.8" stop-color="white"/>
<stop offset="0.92" stop-color="white"/>
</radialGradient>
<radialGradient id="paint23_radial_11395_114935" cx="0" cy="0" r="1" gradientUnits="userSpaceOnUse" gradientTransform="translate(77.2793 41.3124) rotate(-142.53) scale(23.793 23.793)">
<stop offset="0.1" stop-color="white"/>
<stop offset="0.21" stop-color="white"/>
<stop offset="0.38" stop-color="white"/>
<stop offset="0.58" stop-color="white"/>
<stop offset="0.8" stop-color="white"/>
<stop offset="0.92" stop-color="white"/>
</radialGradient>
<radialGradient id="paint24_radial_11395_114935" cx="0" cy="0" r="1" gradientUnits="userSpaceOnUse" gradientTransform="translate(22.8798 71.8809) rotate(-154.6) scale(11.6225 24.291)">
<stop offset="0.1" stop-color="white"/>
<stop offset="0.21" stop-color="white"/>
<stop offset="0.38" stop-color="white"/>
<stop offset="0.58" stop-color="white"/>
<stop offset="0.8" stop-color="white"/>
<stop offset="0.92" stop-color="white"/>
</radialGradient>
<radialGradient id="paint25_radial_11395_114935" cx="0" cy="0" r="1" gradientUnits="userSpaceOnUse" gradientTransform="translate(30.3086 62.0508) rotate(-45.48) scale(23.793 23.793)">
<stop offset="0.1" stop-color="white"/>
<stop offset="0.21" stop-color="white"/>
<stop offset="0.38" stop-color="white"/>
<stop offset="0.58" stop-color="white"/>
<stop offset="0.8" stop-color="white"/>
<stop offset="0.92" stop-color="white"/>
</radialGradient>
<clipPath id="clip0_11395_114935">
<rect width="96.5066" height="107.224" fill="white"/>
</clipPath>
</defs>
</svg>
