<svg width="265" height="264" viewBox="0 0 265 264" fill="none" xmlns="http://www.w3.org/2000/svg">
<rect x="70.6486" y="24.135" width="123.243" height="238.444" rx="20.1081" fill="white" stroke="#E1251B" stroke-width="1.2973"/>
<path d="M76.8767 45.2815C76.8767 37.042 83.5561 30.3625 91.7956 30.3625H172.747C180.987 30.3625 187.666 37.042 187.666 45.2815V241.433C187.666 249.673 180.987 256.352 172.747 256.352H91.7956C83.5561 256.352 76.8767 249.673 76.8767 241.433V45.2815Z" stroke="#E1251B" stroke-width="1.2973"/>
<path d="M99.06 30.2324L100.787 35.1987C102.239 39.3711 106.172 42.1676 110.59 42.1676H154.99C159.407 42.1676 163.341 39.3711 164.792 35.1987L166.52 30.2324" stroke="#E1251B" stroke-width="1.2973"/>
<rect x="119.817" y="34.9023" width="28.0217" height="2.07568" rx="1.03784" fill="#E1251B"/>
<circle cx="113.589" cy="35.9399" r="2.07568" fill="#E1251B"/>
<circle cx="153.026" cy="35.9402" r="1.03784" fill="#E1251B"/>
<path d="M162.046 60.9882C162.269 59.418 162.634 59.418 162.857 60.9882C163.08 62.5584 164.547 64.0255 166.117 64.2484C167.687 64.4714 167.687 64.8362 166.117 65.0591C164.547 65.2821 163.08 66.7492 162.857 68.3194C162.634 69.8896 162.269 69.8896 162.046 68.3194C161.823 66.7492 160.356 65.2821 158.786 65.0591C157.216 64.8362 157.216 64.4714 158.786 64.2484C160.356 64.0255 161.823 62.5584 162.046 60.9882Z" fill="#E1251B"/>
<path d="M23.2352 144.016C23.4581 142.445 23.823 142.445 24.0459 144.016C24.2689 145.586 25.736 147.053 27.3062 147.276C28.8763 147.499 28.8763 147.864 27.3062 148.086C25.736 148.309 24.2689 149.777 24.0459 151.347C23.823 152.917 23.4581 152.917 23.2352 151.347C23.0122 149.777 21.5451 148.309 19.9749 148.086C18.4048 147.864 18.4048 147.499 19.9749 147.276C21.5451 147.053 23.0122 145.586 23.2352 144.016Z" fill="#E1251B"/>
<path d="M167.661 219.027C167.84 217.766 168.133 217.766 168.312 219.027C168.492 220.289 169.67 221.468 170.932 221.647C172.194 221.826 172.194 222.12 170.932 222.299C169.67 222.478 168.492 223.657 168.312 224.919C168.133 226.18 167.84 226.18 167.661 224.919C167.482 223.657 166.303 222.478 165.041 222.299C163.779 222.12 163.779 221.826 165.041 221.647C166.303 221.468 167.482 220.289 167.661 219.027Z" fill="#E1251B"/>
<path d="M250.535 137.07C247.483 137.07 245 134.587 245 131.535C245 128.483 247.483 126 250.535 126C253.587 126 256.07 128.483 256.07 131.535C256.07 134.587 253.587 137.07 250.535 137.07ZM250.535 127.329C248.216 127.329 246.329 129.216 246.329 131.535C246.329 133.854 248.216 135.742 250.535 135.742C252.855 135.742 254.742 133.855 254.742 131.535C254.742 129.215 252.855 127.329 250.535 127.329Z" fill="#E1251B"/>
<path d="M20.7434 59.8107C18.9551 59.8107 17.5 58.3558 17.5 56.5674C17.5 54.7789 18.9551 53.3242 20.7434 53.3242C22.5316 53.3242 23.9865 54.7791 23.9865 56.5674C23.9865 58.3556 22.5316 59.8107 20.7434 59.8107ZM20.7434 54.1027C19.3842 54.1027 18.2784 55.2084 18.2784 56.5674C18.2784 57.9263 19.3842 59.0323 20.7434 59.0323C22.1025 59.0323 23.2081 57.9265 23.2081 56.5674C23.2081 55.2082 22.1023 54.1027 20.7434 54.1027Z" fill="#E1251B"/>
<path d="M222.99 18.5141C223.277 16.4953 223.746 16.4953 224.032 18.5141C224.319 20.5329 226.205 22.4192 228.224 22.7059C230.243 22.9925 230.243 23.4615 228.224 23.7482C226.205 24.0349 224.319 25.9211 224.032 27.94C223.746 29.9588 223.277 29.9588 222.99 27.94C222.703 25.9211 220.817 24.0349 218.798 23.7482C216.779 23.4615 216.779 22.9925 218.798 22.7059C220.817 22.4192 222.703 20.5329 222.99 18.5141Z" fill="#E1251B"/>
<path d="M229.476 235.163C229.763 233.144 230.232 233.144 230.519 235.163C230.805 237.181 232.692 239.068 234.71 239.354C236.729 239.641 236.729 240.11 234.71 240.397C232.692 240.683 230.805 242.57 230.519 244.588C230.232 246.607 229.763 246.607 229.476 244.588C229.19 242.57 227.303 240.683 225.285 240.397C223.266 240.11 223.266 239.641 225.285 239.354C227.303 239.068 229.19 237.181 229.476 235.163Z" fill="#E1251B"/>
<path d="M70.4367 223.693C80.5003 224.805 89.5599 217.543 90.6719 207.474C91.784 197.404 84.5273 188.341 74.4637 187.229C64.4001 186.118 55.3405 193.38 54.2285 203.449C53.1165 213.518 60.3732 222.582 70.4367 223.693Z" fill="white"/>
<path d="M70.4159 223.89C70.1571 223.862 69.8987 223.828 69.6403 223.788C67.189 223.413 64.8664 222.557 62.7371 221.245C60.6079 219.933 58.7991 218.243 57.361 216.222C55.9721 214.269 54.9859 212.092 54.4296 209.75C53.8733 207.408 53.775 205.019 54.1376 202.65C54.5129 200.197 55.3683 197.873 56.6799 195.743C57.9915 193.612 59.6809 191.802 61.7013 190.363C63.6527 188.973 65.829 187.986 68.1698 187.429C70.5105 186.872 72.8982 186.774 75.2655 187.136C77.7169 187.512 80.0395 188.367 82.1687 189.679C84.298 190.991 86.1068 192.681 87.5448 194.703C88.9337 196.655 89.92 198.832 90.4763 201.174C91.0325 203.516 91.1308 205.905 90.7683 208.274C90.3929 210.727 89.5376 213.051 88.226 215.181L88.062 215.08L88.226 215.181C86.9144 217.312 85.2249 219.122 83.2045 220.561C81.2531 221.951 79.0768 222.938 76.7361 223.495C74.6508 223.991 72.5283 224.123 70.4159 223.89L70.4159 223.89ZM74.4584 187.414C72.4124 187.188 70.3209 187.314 68.2588 187.804C63.5447 188.926 59.549 191.817 57.0079 195.945C51.762 204.467 54.4227 215.669 62.9391 220.917C67.0647 223.459 71.9328 224.241 76.6469 223.12C81.361 221.998 85.3567 219.107 87.8979 214.979C90.4391 210.851 91.2216 205.98 90.1014 201.264C88.9811 196.547 86.0921 192.55 81.9666 190.007C79.6457 188.577 77.0897 187.704 74.4585 187.414L74.4584 187.414Z" fill="#E1251B"/>
<path d="M70.5256 221.749C68.1472 221.487 65.8377 220.698 63.7399 219.405C60.0114 217.108 57.4005 213.495 56.388 209.232C55.3755 204.97 56.0827 200.567 58.3794 196.837C60.6761 193.106 64.2872 190.493 68.5476 189.479C72.8081 188.466 77.2078 189.173 80.9363 191.47C84.6648 193.768 87.2758 197.381 88.2882 201.643C89.3007 205.906 88.5934 210.308 86.2967 214.039C84.0001 217.77 80.389 220.383 76.1285 221.396C74.2652 221.84 72.3744 221.954 70.5256 221.749ZM74.121 189.52C68.1571 188.862 62.0576 191.597 58.7075 197.039C56.4648 200.682 55.7742 204.981 56.7628 209.143C57.7515 213.306 60.3011 216.834 63.942 219.077C67.5829 221.32 71.8792 222.011 76.0395 221.021C80.1998 220.031 83.7261 217.48 85.9687 213.837C90.5983 206.316 88.2502 196.43 80.7342 191.799C78.6571 190.519 76.3987 189.772 74.121 189.52Z" fill="#E1251B"/>
<path d="M74.121 189.52C68.1571 188.862 62.0576 191.597 58.7075 197.039C56.4648 200.682 55.7742 204.981 56.7628 209.143C57.7515 213.306 60.3011 216.834 63.942 219.077C67.5829 221.32 71.8792 222.011 76.0395 221.021C80.1998 220.031 83.7261 217.48 85.9687 213.837C90.5983 206.316 88.2502 196.43 80.7342 191.799C78.6571 190.519 76.3987 189.772 74.121 189.52Z" fill="#E1251B"/>
<path d="M76.3765 200.154C77.3217 200.744 78.1182 201.448 78.7661 202.266L77.6843 204.023L76.8794 203.527C77.0368 202.943 77.0397 202.435 76.8881 202.001C76.7364 201.567 76.419 201.19 75.9358 200.87L73.5268 204.783C74.0619 205.614 74.4307 206.29 74.6333 206.811C74.8356 207.333 74.9287 207.831 74.9123 208.308C74.8957 208.784 74.7406 209.261 74.4468 209.738C73.9025 210.622 73.236 211.152 72.4473 211.328C71.6585 211.504 70.7582 211.333 69.7467 210.814L68.8152 212.328L67.9695 211.807L68.8911 210.31C68.4152 210.001 67.9368 209.628 67.4554 209.189C66.974 208.751 66.5834 208.338 66.2832 207.951L67.385 206.161L68.1981 206.662C67.9844 207.301 67.9648 207.852 68.1396 208.315C68.3143 208.778 68.7066 209.212 69.3168 209.618L71.9111 205.403L71.768 205.181C71.2681 204.401 70.9268 203.778 70.744 203.31C70.5611 202.842 70.4759 202.391 70.4887 201.957C70.5013 201.524 70.6396 201.093 70.9034 200.664C71.1571 200.252 71.46 199.93 71.8122 199.698C72.1642 199.466 72.5435 199.314 72.9501 199.243C73.3565 199.172 73.7784 199.176 74.216 199.254C74.6534 199.333 75.0817 199.476 75.5008 199.681L76.4574 198.127L77.3031 198.649L76.3765 200.154L76.3765 200.154ZM72.5614 206.242L70.1774 210.115C70.7149 210.371 71.2151 210.427 71.6782 210.282C72.1412 210.137 72.5347 209.802 72.8586 209.275C73.1457 208.809 73.263 208.339 73.2108 207.865C73.1584 207.392 72.9419 206.85 72.5614 206.242ZM72.8815 203.937L75.0751 200.373C74.5721 200.145 74.0875 200.092 73.621 200.212C73.1544 200.332 72.7859 200.612 72.5154 201.051C72.245 201.491 72.141 201.93 72.2036 202.369C72.2661 202.807 72.4921 203.33 72.8814 203.937L72.8815 203.937Z" fill="white"/>
<path d="M206.399 105.81C212.661 102.533 215.079 94.7961 211.799 88.5307C208.519 82.2652 200.784 79.8434 194.522 83.1214C188.26 86.3993 185.843 94.1358 189.123 100.401C192.402 106.667 200.137 109.088 206.399 105.81Z" fill="white"/>
<path d="M206.464 105.933C206.303 106.017 206.14 106.098 205.975 106.176C204.409 106.914 202.73 107.323 200.986 107.393C199.241 107.463 197.535 107.189 195.914 106.578C194.349 105.989 192.929 105.112 191.694 103.972C190.46 102.833 189.472 101.488 188.759 99.9741C188.02 98.4072 187.61 96.7279 187.539 94.9827C187.469 93.2376 187.742 91.5309 188.351 89.91C188.94 88.3446 189.816 86.9247 190.955 85.6901C192.093 84.4554 193.438 83.4681 194.95 82.7552C196.516 82.0173 198.195 81.6077 199.939 81.5379C201.684 81.4681 203.39 81.7421 205.011 82.3525C206.576 82.942 207.996 83.8188 209.231 84.9585C210.466 86.0982 211.453 87.4435 212.167 88.9568C212.905 90.5237 213.315 92.2031 213.386 93.9482L213.251 93.9536L213.386 93.9482C213.456 95.6934 213.183 97.4001 212.574 99.0209C211.985 100.586 211.109 102.006 209.971 103.241C208.956 104.341 207.778 105.245 206.464 105.933L206.464 105.933ZM194.591 83.2303C193.318 83.8967 192.156 84.7849 191.152 85.8727C188.859 88.3592 187.671 91.5908 187.808 94.9721C188.091 101.952 193.997 107.404 200.975 107.124C204.355 106.989 207.479 105.545 209.773 103.058C212.066 100.572 213.254 97.3403 213.117 93.959C212.98 90.5778 211.535 87.4516 209.048 85.1563C206.562 82.8611 203.33 81.6716 199.95 81.8068C198.049 81.8829 196.228 82.3733 194.591 83.2303L194.591 83.2303Z" fill="#E1251B"/>
<path d="M205.693 104.65C204.213 105.425 202.568 105.868 200.849 105.937C197.794 106.059 194.874 104.984 192.627 102.91C190.379 100.835 189.073 98.0098 188.95 94.954C188.826 91.8981 189.899 88.9775 191.972 86.7302C194.045 84.4829 196.869 83.1779 199.923 83.0557C202.978 82.9334 205.898 84.0085 208.146 86.0828C210.393 88.1572 211.699 90.9825 211.823 94.0384C211.947 97.0943 210.873 100.015 208.801 102.262C207.894 103.245 206.843 104.048 205.693 104.65ZM195.216 84.5821C191.505 86.5247 189.038 90.4856 189.219 94.9432C189.339 97.9272 190.614 100.686 192.809 102.712C195.004 104.737 197.855 105.787 200.838 105.668C203.821 105.548 206.579 104.274 208.603 102.08C210.627 99.8851 211.675 97.0332 211.554 94.0492C211.305 87.8891 206.092 83.0781 199.934 83.3245C198.232 83.3927 196.633 83.8402 195.216 84.5821Z" fill="#E1251B"/>
<path d="M195.216 84.5821C191.505 86.5247 189.038 90.4856 189.219 94.9432C189.339 97.9272 190.614 100.686 192.809 102.712C195.004 104.737 197.855 105.787 200.838 105.668C203.821 105.548 206.579 104.274 208.603 102.08C210.627 99.8851 211.675 97.0332 211.554 94.0492C211.305 87.8891 206.092 83.0781 199.934 83.3245C198.232 83.3927 196.633 83.8402 195.216 84.5821Z" fill="#E1251B"/>
<path d="M200.666 89.8611C201.444 89.8345 202.179 89.9319 202.873 90.1533L202.932 91.5927L202.272 91.6191C202.136 91.2197 201.939 90.9239 201.682 90.7316C201.425 90.5394 201.095 90.4448 200.69 90.4476L200.82 93.653C201.453 93.9258 201.931 94.1737 202.251 94.3967C202.571 94.6198 202.82 94.8724 202.996 95.1545C203.172 95.4368 203.268 95.7734 203.283 96.1643C203.313 96.8885 203.133 97.4552 202.745 97.8646C202.357 98.2739 201.769 98.5256 200.981 98.6194L201.031 99.8589L200.338 99.8866L200.288 98.6604C199.893 98.6674 199.47 98.6376 199.02 98.571C198.57 98.5045 198.183 98.4176 197.859 98.3105L197.799 96.8444L198.465 96.8177C198.591 97.271 198.794 97.5978 199.076 97.7979C199.357 97.9979 199.754 98.0967 200.265 98.094L200.126 94.642L199.956 94.5687C199.363 94.3121 198.922 94.0839 198.634 93.884C198.345 93.6843 198.12 93.4563 197.959 93.2002C197.797 92.9442 197.709 92.6406 197.695 92.2897C197.681 91.952 197.731 91.6474 197.845 91.3758C197.958 91.1043 198.119 90.8687 198.327 90.669C198.534 90.4694 198.78 90.3072 199.064 90.1823C199.348 90.0575 199.652 89.973 199.975 89.9289L199.923 88.6561L200.616 88.6284L200.666 89.8612L200.666 89.8611ZM200.829 94.8741L200.957 98.0462C201.369 97.9854 201.68 97.8227 201.892 97.5583C202.104 97.294 202.201 96.9463 202.183 96.5154C202.168 96.1333 202.053 95.8153 201.838 95.5613C201.623 95.3074 201.287 95.0784 200.829 94.8741ZM200.116 93.4142L199.998 90.4953C199.618 90.5596 199.316 90.7173 199.093 90.9687C198.87 91.2203 198.765 91.5259 198.78 91.8858C198.794 92.2456 198.905 92.5405 199.112 92.7702C199.32 93 199.654 93.2147 200.116 93.4142L200.116 93.4142Z" fill="white"/>
<path d="M53.9017 78.0336C58.1637 81.9878 58.4149 88.6461 54.4634 92.9052C50.5119 97.1644 43.8535 97.4123 39.5914 93.4581C35.3293 89.5039 35.0782 82.8456 39.0297 78.5865C42.9812 74.3273 49.6396 74.0794 53.9017 78.0336Z" fill="white" stroke="#E1251B"/>
<path d="M38.8331 77.7555L38.8331 77.7555L54.5887 93.6643L54.6591 93.7354C54.6591 93.7354 54.6591 93.7354 54.6591 93.7354C54.7717 93.6238 54.8816 93.5101 54.989 93.3944L54.989 93.3944C55.8658 92.4494 56.568 91.3673 57.0795 90.1723L56.9875 90.1329L57.0795 90.1723C57.6536 88.8308 57.9588 87.4137 57.9865 85.9609C58.0145 84.4896 57.7553 83.0444 57.216 81.664L57.2164 81.6639L57.1793 81.5712C57.1792 81.5712 57.1792 81.5711 57.1792 81.571C57.1791 81.5709 57.1791 81.5709 57.1791 81.5708L57.142 81.4782L57.1416 81.4784C56.5786 80.1074 55.7682 78.8827 54.732 77.8373C53.7087 76.8049 52.5092 75.9899 51.1674 75.4151C49.8255 74.8402 48.4082 74.5342 46.9553 74.5057C45.4509 74.4762 43.9739 74.747 42.5657 75.3105C41.1575 75.8739 39.9015 76.6966 38.8331 77.7555ZM38.8051 78.4016L38.8218 78.3835C39.894 77.2279 41.2184 76.3146 42.7262 75.7113C45.4061 74.6391 48.3432 74.6748 50.9975 75.8119C53.6518 76.949 55.7046 79.0511 56.7785 81.7315C57.8523 84.4118 57.8182 87.3489 56.6826 90.0024C55.5469 92.6559 53.446 94.7074 50.7661 95.7796C45.2344 97.993 38.9304 95.2923 36.7138 89.7595C35.64 87.0791 35.6741 84.1421 36.8097 81.4886C37.3032 80.3354 37.979 79.2962 38.8051 78.4016Z" fill="#E1251B" stroke="#E1251B" stroke-width="0.2"/>
<path d="M37.9891 89.2755C36.5978 85.8027 37.4377 81.9799 39.8277 79.4038C40.74 78.4204 41.8785 77.6187 43.2051 77.0879C48.004 75.1678 53.4733 77.5108 55.3963 82.3108C56.3281 84.6365 56.2985 87.184 55.3132 89.4863C54.3278 91.7886 52.5056 93.568 50.1803 94.4984C47.8551 95.4288 45.3076 95.3978 43.0045 94.4111C40.7014 93.4245 38.9208 91.6012 37.9891 89.2755Z" stroke="#E1251B" stroke-width="0.5"/>
<path d="M44.4234 84.7687C44.5571 84.944 44.7233 85.0901 44.9242 85.1989C44.9719 85.2247 45.0215 85.2486 45.073 85.2706C44.9071 85.2111 44.7709 85.1354 44.6591 85.0473L44.6589 85.0471C44.572 84.9787 44.4924 84.8884 44.4234 84.7687ZM48.4289 85.8086C48.4074 85.7961 48.3855 85.7839 48.3633 85.7722C48.4885 85.829 48.5962 85.895 48.6885 85.9685C48.7909 86.0501 48.8844 86.1585 48.9653 86.3018C48.8237 86.1023 48.6457 85.9351 48.4291 85.8087L48.4289 85.8086Z" fill="#E1251B" stroke="#E1251B"/>
<g clip-path="url(#clip0_15838_143154)">
<path d="M134.96 127.087C140.687 127.6 145.986 130.334 149.722 134.704C153.458 139.074 155.335 144.734 154.951 150.471C154.566 156.208 151.951 161.566 147.665 165.399C143.379 169.232 137.763 171.234 132.019 170.978C126.275 170.722 120.86 168.227 116.932 164.027C113.005 159.828 110.877 154.258 111.005 148.509C111.134 142.761 113.507 137.291 117.618 133.271C121.729 129.251 127.25 127 133 127" stroke="#FFDEDA" stroke-width="4" stroke-linecap="round" stroke-linejoin="round"/>
<path d="M133 127C136.408 127 139.769 127.792 142.818 129.312C145.868 130.833 148.522 133.042 150.573 135.764C152.623 138.486 154.013 141.647 154.633 144.997C155.253 148.348 155.086 151.797 154.145 155.073C153.205 158.348 151.516 161.36 149.212 163.871C146.909 166.383 144.054 168.324 140.871 169.544C137.689 170.763 134.267 171.226 130.876 170.897C127.484 170.568 124.215 169.456 121.326 167.647" stroke="#E1251B" stroke-width="4" stroke-linecap="round" stroke-linejoin="round"/>
</g>
<defs>
<clipPath id="clip0_15838_143154">
<rect width="48" height="48" fill="white" transform="translate(109 125)"/>
</clipPath>
</defs>
</svg>
