<svg width="20" height="20" viewBox="0 0 20 20" fill="none" xmlns="http://www.w3.org/2000/svg">
<path d="M14.7835 18.958H10.2169C9.87519 18.958 9.59185 18.6747 9.59185 18.333C9.59185 17.9913 9.87519 17.708 10.2169 17.708H14.7835C16.1669 17.708 17.2919 16.583 17.2919 15.1997V14.833H16.3335C15.0752 14.833 14.0085 13.8997 13.9085 12.6997C13.8419 12.008 14.0919 11.333 14.5919 10.8413C15.0169 10.408 15.6002 10.1664 16.2252 10.1664H17.2835V9.59135C17.2835 8.20802 16.1585 7.08301 14.7752 7.08301H5.20852C3.82519 7.08301 2.7002 8.20802 2.7002 9.59135V11.033C2.7002 11.3747 2.41686 11.658 2.0752 11.658C1.73353 11.658 1.4502 11.3747 1.4502 11.033V9.59135C1.4502 7.51635 3.13352 5.83301 5.20852 5.83301H14.7752C16.8502 5.83301 18.5335 7.51635 18.5335 9.59135V10.7914C18.5335 11.133 18.2502 11.4164 17.9085 11.4164H16.2252C15.9335 11.4164 15.6669 11.5247 15.4752 11.7247C15.2335 11.958 15.1169 12.2747 15.1502 12.5913C15.2002 13.1413 15.7252 13.583 16.3252 13.583H17.9085C18.2502 13.583 18.5335 13.8663 18.5335 14.208V15.1997C18.5419 17.2747 16.8585 18.958 14.7835 18.958Z" fill="currentColor"/>
<path d="M2.0835 10.967C1.74183 10.967 1.4585 10.6837 1.4585 10.342V6.53371C1.4585 5.29204 2.24183 4.167 3.40016 3.72533L10.0168 1.22533C10.7002 0.966997 11.4585 1.0587 12.0502 1.47537C12.6502 1.89204 13.0002 2.56703 13.0002 3.29203V6.45869C13.0002 6.80035 12.7168 7.08369 12.3752 7.08369C12.0335 7.08369 11.7502 6.80035 11.7502 6.45869V3.29203C11.7502 2.97536 11.6002 2.68369 11.3335 2.50035C11.0668 2.31702 10.7502 2.27535 10.4502 2.39202L3.8335 4.89202C3.1585 5.15035 2.70017 5.80871 2.70017 6.53371V10.342C2.7085 10.692 2.42516 10.967 2.0835 10.967Z" fill="currentColor"/>
<path d="M16.3331 14.8336C15.0747 14.8336 14.0081 13.9003 13.9081 12.7003C13.8414 12.0086 14.0914 11.3337 14.5914 10.842C15.0164 10.4087 15.5997 10.167 16.2247 10.167H17.9581C18.7831 10.192 19.4164 10.842 19.4164 11.642V13.3587C19.4164 14.1587 18.7831 14.8086 17.9831 14.8336H16.3331ZM17.9414 11.417H16.2331C15.9414 11.417 15.6747 11.5253 15.4831 11.7253C15.2414 11.9587 15.1247 12.2753 15.1581 12.592C15.2081 13.142 15.7331 13.5836 16.3331 13.5836H17.9664C18.0747 13.5836 18.1747 13.4837 18.1747 13.3587V11.642C18.1747 11.517 18.0747 11.4253 17.9414 11.417Z" fill="currentColor"/>
<path d="M11.6668 10.625H5.8335C5.49183 10.625 5.2085 10.3417 5.2085 10C5.2085 9.65833 5.49183 9.375 5.8335 9.375H11.6668C12.0085 9.375 12.2918 9.65833 12.2918 10C12.2918 10.3417 12.0085 10.625 11.6668 10.625Z" fill="currentColor"/>
<path d="M6.79149 15.7916C6.44983 15.7916 6.16649 15.5083 6.16649 15.1666V14.5C6.16649 13.5667 5.95817 13.125 4.7915 13.125C3.62483 13.125 3.4165 13.5667 3.4165 14.5V15.1666C3.4165 15.5083 3.13317 15.7916 2.7915 15.7916C2.44984 15.7916 2.1665 15.5083 2.1665 15.1666V14.5C2.1665 12.7584 3.04983 11.875 4.7915 11.875C6.53316 11.875 7.41649 12.7584 7.41649 14.5V15.1666C7.41649 15.5083 7.13316 15.7916 6.79149 15.7916Z" fill="currentColor"/>
<path d="M6.4585 19.792H3.12516C1.4585 19.792 0.833496 19.167 0.833496 17.5004V16.8337C0.833496 15.167 1.4585 14.542 3.12516 14.542H6.4585C8.12516 14.542 8.75016 15.167 8.75016 16.8337V17.5004C8.75016 19.167 8.12516 19.792 6.4585 19.792ZM3.12516 15.792C2.1335 15.792 2.0835 15.842 2.0835 16.8337V17.5004C2.0835 18.4837 2.14183 18.542 3.12516 18.542H6.4585C7.44183 18.542 7.50016 18.4837 7.50016 17.5004V16.8337C7.50016 15.842 7.45016 15.792 6.4585 15.792H3.12516Z" fill="currentColor"/>
</svg>
