<svg width="33" height="32" viewBox="0 0 33 32" fill="none" xmlns="http://www.w3.org/2000/svg">
<path d="M13.1667 10.6667L19.8333 17.3333M19.8333 10.6667L13.1667 17.3333M9.83333 24V27.114C9.83333 27.8245 9.83333 28.1797 9.97897 28.3622C10.1056 28.5208 10.2977 28.6131 10.5007 28.6129C10.7342 28.6127 11.0116 28.3908 11.5663 27.9469L14.747 25.4024C15.3967 24.8826 15.7216 24.6228 16.0833 24.4379C16.4043 24.274 16.7459 24.1541 17.099 24.0817C17.4969 24 17.9129 24 18.745 24H22.1C24.3402 24 25.4603 24 26.316 23.564C27.0686 23.1805 27.6805 22.5686 28.064 21.816C28.5 20.9603 28.5 19.8402 28.5 17.6V10.4C28.5 8.15979 28.5 7.03968 28.064 6.18404C27.6805 5.43139 27.0686 4.81947 26.316 4.43597C25.4603 4 24.3402 4 22.1 4H10.9C8.65979 4 7.53969 4 6.68404 4.43597C5.93139 4.81947 5.31947 5.43139 4.93597 6.18404C4.5 7.03968 4.5 8.15979 4.5 10.4V18.6667C4.5 19.9066 4.5 20.5266 4.6363 21.0353C5.00617 22.4156 6.08436 23.4938 7.46472 23.8637C7.97339 24 8.59337 24 9.83333 24Z" stroke="#6C6F73" stroke-width="2" stroke-linecap="round" stroke-linejoin="round"/>
</svg>
