<svg width="25" height="24" viewBox="0 0 25 24" fill="none" xmlns="http://www.w3.org/2000/svg">
    <path d="M17.1567 20.9458L14.3066 13.4319L21.8206 16.282L18.4886 17.6139L17.1567 20.9458Z" stroke="currentColor"
        stroke-width="1.5" stroke-linecap="round" stroke-linejoin="round" />
    <path
        d="M4.49307 15.2806L6.21045 14.2892C6.30347 14.2355 6.41264 14.2168 6.51821 14.2366L9.89726 14.869C10.175 14.921 10.4313 14.7072 10.43 14.4247L10.4169 11.464C10.4165 11.3836 10.4377 11.3045 10.4783 11.235L12.1836 8.31559C12.2723 8.16365 12.2644 7.97392 12.1632 7.82994L9.29203 3.74312M19.1752 5.57315C14.2252 7.95004 16.925 11.1 17.8252 11.55C19.5146 12.3946 21.8639 12.45 21.8639 12.45C21.8712 12.3009 21.875 12.1509 21.875 12C21.875 7.02944 17.8456 3 12.875 3C7.90444 3 3.875 7.02944 3.875 12C3.875 16.9706 7.90444 21 12.875 21C13.0259 21 13.1759 20.9963 13.325 20.9889"
        stroke="currentColor" stroke-width="1.5" stroke-linecap="round" stroke-linejoin="round" />
</svg>