<svg width="20" height="20" viewBox="0 0 20 20" fill="none" xmlns="http://www.w3.org/2000/svg">
<g clip-path="url(#clip0_9946_154420)">
<path d="M15.533 10.5615L15.5369 10.5714L15.541 10.5813C16.3468 12.5094 15.8044 14.7436 14.2914 16.149C12.9315 17.3924 10.9903 17.7555 9.10335 17.5149C8.51372 17.4383 7.30846 17.0809 6.22739 16.2134C5.17437 15.3684 4.23145 14.0367 4.08304 11.9499C4.08565 10.8458 4.25706 9.96606 4.49327 9.27617C4.63182 10.3455 5.1058 11.5248 6.31138 12.4384C6.7899 12.8047 7.3647 12.7047 7.72214 12.4221C8.07601 12.1423 8.30195 11.6207 8.09016 11.0781C7.24216 8.90199 7.33855 7.03669 7.95462 5.52519C8.48114 4.2334 9.40462 3.15891 10.5233 2.36023C10.3922 3.37162 10.4975 4.22823 10.7907 4.9787C11.1501 5.89875 11.7634 6.58361 12.3929 7.1606C12.679 7.42287 12.9808 7.67359 13.2684 7.91248C13.2957 7.93519 13.3229 7.95779 13.35 7.98028C13.6675 8.24428 13.9684 8.49723 14.25 8.76457C14.8093 9.29553 15.261 9.85449 15.533 10.5615ZM8.32254 13.755L6.862 14.11L8.02388 15.0635C9.42773 16.2157 10.929 16.347 12.1044 15.7111C13.229 15.1028 13.9204 13.8562 13.883 12.5382C13.8771 11.3383 13.0108 10.461 12.4057 9.85203C12.3573 9.80334 12.3099 9.75587 12.2635 9.70942C11.9826 9.42805 11.7388 9.18378 11.5366 8.92982C11.3056 8.63964 11.1846 8.40199 11.1466 8.18677L10.6776 5.52914L9.70808 8.04767C9.2717 9.18124 9.38485 10.1088 9.54316 10.8533C9.57718 11.0133 9.60865 11.1472 9.63724 11.2689C9.68013 11.4515 9.71656 11.6065 9.74545 11.7808C9.78801 12.0375 9.79024 12.2253 9.75221 12.3901L9.75215 12.3901L9.75012 12.3995C9.63849 12.913 9.2173 13.5375 8.32254 13.755Z" fill="#E1251B" stroke="#E1251B" stroke-width="1.5"/>
<path d="M15.7664 10.4717L15.7689 10.4783L15.7717 10.4849C16.62 12.5147 16.0473 14.8598 14.4608 16.3328C13.0292 17.6423 11.0044 18.0094 9.07128 17.7628C8.44202 17.6812 7.19218 17.3081 6.07093 16.4084C4.96825 15.5236 3.98478 14.1275 3.83302 11.9584C3.83572 10.2002 4.25664 8.98365 4.7058 8.18324C4.63536 9.41698 4.90882 11.0623 6.46303 12.2396C6.83621 12.5255 7.284 12.4498 7.56708 12.226C7.84779 12.004 8.02342 11.5945 7.85722 11.1689C6.98772 8.93758 7.08114 7.00586 7.72311 5.43083C8.34542 3.90403 9.49812 2.67706 10.8655 1.83288C10.6124 3.06309 10.6968 4.05133 11.0235 4.88773C11.3628 5.75617 11.9443 6.41023 12.5618 6.97631C12.8432 7.23423 13.1403 7.48108 13.4287 7.72063C13.4558 7.74317 13.4829 7.76564 13.5098 7.78805C13.8272 8.05192 14.1338 8.30961 14.4221 8.58326C14.996 9.12807 15.476 9.71703 15.7664 10.4717ZM8.38158 13.9979L7.40789 14.2346L8.18248 14.8703C9.52115 15.9689 10.9137 16.0711 11.9855 15.4913C13.0234 14.9298 13.669 13.7724 13.633 12.5424C13.6291 11.4589 12.8472 10.6511 12.2283 10.0282C12.1809 9.98052 12.1341 9.93364 12.088 9.88744C11.8077 9.60684 11.5526 9.35139 11.341 9.08552C11.0975 8.7797 10.9486 8.50356 10.9004 8.23022L10.5877 6.45846L9.94139 8.13748C9.52964 9.20708 9.63423 10.0796 9.78769 10.8013C9.8191 10.949 9.84961 11.0792 9.87804 11.2005C9.92264 11.3907 9.96215 11.5593 9.99208 11.7399C10.0374 12.0132 10.0441 12.2372 9.99581 12.4463L9.99577 12.4463L9.99442 12.4526C9.86444 13.0505 9.37809 13.7557 8.38158 13.9979Z" stroke="#E1251B"/>
</g>
<defs>
<clipPath id="clip0_9946_154420">
<rect width="18" height="18" fill="white"/>
</clipPath>
</defs>
</svg>
