<svg width="25" height="24" viewBox="0 0 25 24" fill="none" xmlns="http://www.w3.org/2000/svg">
<path d="M12.5016 4.63946C14.2211 4.61301 15.8839 5.25344 17.1413 6.42636L20.5278 3.11557C18.3551 1.08011 15.4789 -0.0360171 12.5016 0.000886817C10.2771 0.000372912 8.09625 0.618559 6.20302 1.78631C4.30978 2.95406 2.77879 4.62534 1.78125 6.61324L5.66163 9.62526C6.13611 8.18288 7.05148 6.92579 8.27867 6.03127C9.50586 5.13675 10.9829 4.64993 12.5016 4.63946Z" fill="#EA4335"/>
<path d="M24.02 12.267C24.0341 11.4422 23.9489 10.6188 23.7662 9.81445H12.5V14.2673H19.1138C18.9884 15.048 18.7063 15.7952 18.2845 16.4641C17.8628 17.133 17.31 17.7097 16.6596 18.1595L20.4465 21.0919C21.6267 19.9527 22.5549 18.5787 23.171 17.0586C23.7871 15.5386 24.0775 13.9062 24.0235 12.267H24.02Z" fill="#4285F4"/>
<path d="M5.67424 14.3711C5.41188 13.6074 5.27662 12.8058 5.27386 11.9982C5.27864 11.192 5.40905 10.3914 5.6604 9.62529L1.78001 6.61328C0.938388 8.28383 0.5 10.1283 0.5 11.9988C0.5 13.8693 0.938388 15.7138 1.78001 17.3843L5.67424 14.3711Z" fill="#FBBC05"/>
<path d="M12.5015 23.9955C15.4245 24.0781 18.2681 23.0382 20.448 21.0896L16.6611 18.1572C15.4332 18.9801 13.9791 19.3995 12.5015 19.3569C10.9841 19.3479 9.50805 18.8614 8.28278 17.9665C7.05751 17.0715 6.14521 15.8136 5.67531 14.3711L1.79492 17.3843C2.78977 19.3713 4.31825 21.0422 6.20921 22.2098C8.10016 23.3775 10.2789 23.9958 12.5015 23.9955Z" fill="#34A853"/>
</svg>
