<svg width="22" height="22" viewBox="0 0 22 22" fill="none" xmlns="http://www.w3.org/2000/svg">
<path opacity="0.4" d="M19.0941 7.34268L13.0899 2.53935C11.9166 1.60435 10.0832 1.59518 8.91905 2.53018L2.91488 7.34268C2.05322 8.03018 1.53072 9.40518 1.71405 10.4868L2.86905 17.3985C3.13488 18.9477 4.57405 20.1668 6.14155 20.1668H15.8582C17.4074 20.1668 18.8741 18.9202 19.1399 17.3893L20.2949 10.4777C20.4599 9.40518 19.9374 8.03018 19.0941 7.34268Z" fill="white"/>
<path d="M11 17.1875C10.6242 17.1875 10.3125 16.8758 10.3125 16.5V13.75C10.3125 13.3742 10.6242 13.0625 11 13.0625C11.3758 13.0625 11.6875 13.3742 11.6875 13.75V16.5C11.6875 16.8758 11.3758 17.1875 11 17.1875Z" fill="white"/>
<path d="M11 17.1875C10.6242 17.1875 10.3125 16.8758 10.3125 16.5V13.75C10.3125 13.3742 10.6242 13.0625 11 13.0625C11.3758 13.0625 11.6875 13.3742 11.6875 13.75V16.5C11.6875 16.8758 11.3758 17.1875 11 17.1875Z" fill="white"/>
</svg>
