<svg width="25" height="24" viewBox="0 0 25 24" fill="currentColor" xmlns="http://www.w3.org/2000/svg">
    <path
        d="M21.205 8.01L14.655 2.77C13.375 1.75 11.375 1.74 10.105 2.76L3.55496 8.01C2.61496 8.76 2.04496 10.26 2.24496 11.44L3.50496 18.98C3.79496 20.67 5.36496 22 7.07496 22H17.675C19.365 22 20.965 20.64 21.255 18.97L22.515 11.43C22.695 10.26 22.125 8.76 21.205 8.01ZM13.125 18C13.125 18.41 12.785 18.75 12.375 18.75C11.965 18.75 11.625 18.41 11.625 18V15C11.625 14.59 11.965 14.25 12.375 14.25C12.785 14.25 13.125 14.59 13.125 15V18Z"
        fill="currentColor" />
</svg>