<svg width="16" height="16" viewBox="0 0 16 16" fill="none" xmlns="http://www.w3.org/2000/svg">
<g clip-path="url(#clip0_8067_6126)">
<path d="M7.99333 1.3335C4.31333 1.3335 1.33333 4.32016 1.33333 8.00016C1.33333 11.6802 4.31333 14.6668 7.99333 14.6668C11.68 14.6668 14.6667 11.6802 14.6667 8.00016C14.6667 4.32016 11.68 1.3335 7.99333 1.3335ZM12.6133 5.3335H10.6467C10.4333 4.50016 10.1267 3.70016 9.72667 2.96016C10.9533 3.38016 11.9733 4.2335 12.6133 5.3335ZM8 2.6935C8.55333 3.4935 8.98667 4.38016 9.27333 5.3335H6.72667C7.01333 4.38016 7.44667 3.4935 8 2.6935ZM2.84 9.3335C2.73333 8.90683 2.66667 8.46016 2.66667 8.00016C2.66667 7.54016 2.73333 7.0935 2.84 6.66683H5.09333C5.04 7.10683 5 7.54683 5 8.00016C5 8.4535 5.04 8.8935 5.09333 9.3335H2.84ZM3.38667 10.6668H5.35333C5.56667 11.5002 5.87333 12.3002 6.27333 13.0402C5.04667 12.6202 4.02667 11.7735 3.38667 10.6668ZM5.35333 5.3335H3.38667C4.02667 4.22683 5.04667 3.38016 6.27333 2.96016C5.87333 3.70016 5.56667 4.50016 5.35333 5.3335ZM8 13.3068C7.44667 12.5068 7.01333 11.6202 6.72667 10.6668H9.27333C8.98667 11.6202 8.55333 12.5068 8 13.3068ZM9.56 9.3335H6.44C6.38 8.8935 6.33333 8.4535 6.33333 8.00016C6.33333 7.54683 6.38 7.10016 6.44 6.66683H9.56C9.62 7.10016 9.66667 7.54683 9.66667 8.00016C9.66667 8.4535 9.62 8.8935 9.56 9.3335ZM9.72667 13.0402C10.1267 12.3002 10.4333 11.5002 10.6467 10.6668H12.6133C11.9733 11.7668 10.9533 12.6202 9.72667 13.0402ZM10.9067 9.3335C10.96 8.8935 11 8.4535 11 8.00016C11 7.54683 10.96 7.10683 10.9067 6.66683H13.16C13.2667 7.0935 13.3333 7.54016 13.3333 8.00016C13.3333 8.46016 13.2667 8.90683 13.16 9.3335H10.9067Z" fill="currentColor"/>
</g>
<defs>
<clipPath id="clip0_8067_6126">
<rect width="16" height="16" fill="white"/>
</clipPath>
</defs>
</svg>
