<svg width="91" height="91" viewBox="0 0 91 91" fill="none" xmlns="http://www.w3.org/2000/svg">
<path d="M2 59.3848L20.5 77.8848V78.3848L38.5 78.8848L38 67.3848L31.5 60.8848L28.5 58.3848H26.5L25 58.8848H24L13.5 48.3848H11L9 49.3848V34.3848L8 32.8848L6.5 31.3848L3.5 31.8848L2 32.8848L1.5 34.8848V56.3848L2 59.3848Z" fill="white"/>
<path d="M89 59.3848L70.5 77.8848V78.3848L52.5 78.8848L53 67.3848L59.5 60.8848L62.5 58.3848H64.5L66 58.8848H67L77.5 48.3848H80L82 49.3848V34.3848L83 32.8848L84.5 31.3848L87.5 31.8848L89 32.8848L89.5 34.8848V56.3848L89 59.3848Z" fill="white"/>
<path d="M69.5809 79.205C69.4008 79.205 69.2206 79.1386 69.0783 78.9964C68.8033 78.7214 68.8033 78.2662 69.0783 77.9912L87.2471 59.8225C88.0626 59.007 88.5178 57.9165 88.5178 56.7596V35.0633C88.5178 33.3564 87.1239 31.9624 85.417 31.9624C83.7101 31.9624 82.3161 33.3564 82.3161 35.0633V49.9226C82.3161 50.3114 81.9937 50.6338 81.6049 50.6338C81.2161 50.6338 80.8937 50.3114 80.8937 49.9226V35.0633C80.8937 32.5693 82.923 30.54 85.417 30.54C87.9109 30.54 89.9402 32.5693 89.9402 35.0633V56.7596C89.9402 58.2958 89.3428 59.7371 88.2523 60.8277L70.0835 78.9964C69.9413 79.1386 69.7611 79.205 69.5809 79.205Z" fill="#E1251B"/>
<path d="M52.3137 78.8635C51.9249 78.8635 51.6025 78.5411 51.6025 78.1523V69.8455C51.6025 68.3093 52.2 66.868 53.2905 65.7775L60.5068 58.5612C62.043 57.025 64.4516 56.8638 66.1679 58.0965L75.3756 48.8888C77.0919 47.1725 79.8893 47.1725 81.6057 48.8888C83.322 50.6052 83.322 53.4026 81.6057 55.1284L72.9954 63.7387C72.7204 64.0137 72.2653 64.0137 71.9903 63.7387C71.7153 63.4637 71.7153 63.0085 71.9903 62.7335L80.6005 54.1233C81.7669 52.9569 81.7669 51.0604 80.6005 49.9035C79.4342 48.7466 77.5471 48.7371 76.3807 49.9035L66.7084 59.5758C66.4334 59.8508 65.9782 59.8508 65.7032 59.5758C64.5464 58.4189 62.6688 58.4189 61.5119 59.5758L54.2956 66.7921C53.4801 67.6076 53.0249 68.6981 53.0249 69.855V78.1618C53.0249 78.5506 52.7025 78.873 52.3137 78.873V78.8635Z" fill="#E1251B"/>
<path d="M49.3057 78.579V87.54H72.7752V78.579H49.3057Z" fill="#E1251B"/>
<path d="M72.7853 88.2517H49.3157C48.9269 88.2517 48.6045 87.9292 48.6045 87.5405V78.5794C48.6045 78.1906 48.9269 77.8682 49.3157 77.8682H72.7853C73.1741 77.8682 73.4965 78.1906 73.4965 78.5794V87.5405C73.4965 87.9292 73.1741 88.2517 72.7853 88.2517ZM50.0269 86.8293H72.0741V79.2906H50.0269V86.8293Z" fill="#E1251B"/>
<path d="M66.8226 82.316H51.8684C51.4796 82.316 51.1572 81.9935 51.1572 81.6048C51.1572 81.216 51.4796 80.8936 51.8684 80.8936H66.8226C67.2114 80.8936 67.5338 81.216 67.5338 81.6048C67.5338 81.9935 67.2114 82.316 66.8226 82.316Z" fill="#F2F2F2"/>
<path d="M21.5643 79.205C21.3841 79.205 21.204 79.1386 21.0618 78.9964L2.89296 60.8277C1.80246 59.7371 1.20508 58.2958 1.20508 56.7596V35.0633C1.20508 32.5693 3.23433 30.54 5.72827 30.54C8.22221 30.54 10.2515 32.5693 10.2515 35.0633V49.9226C10.2515 50.3114 9.9291 50.6338 9.54031 50.6338C9.15153 50.6338 8.82912 50.3114 8.82912 49.9226V35.0633C8.82912 33.3564 7.43515 31.9624 5.72827 31.9624C4.02139 31.9624 2.62748 33.3564 2.62748 35.0633V56.7596C2.62748 57.9165 3.08261 59.007 3.89812 59.8225L22.0669 77.9912C22.3419 78.2662 22.3419 78.7214 22.0669 78.9964C21.9247 79.1386 21.7445 79.205 21.5643 79.205Z" fill="#E1251B"/>
<path d="M38.8326 78.8635C38.4438 78.8635 38.1214 78.5411 38.1214 78.1523V69.8455C38.1214 68.6886 37.6756 67.5981 36.8507 66.7826L29.6344 59.5663C28.4775 58.4094 26.5999 58.4094 25.443 59.5663C25.168 59.8413 24.7129 59.8413 24.4379 59.5663L14.7656 49.894C13.5992 48.7277 11.7026 48.7277 10.5458 49.894C9.98629 50.4535 9.67338 51.2121 9.67338 52.0086C9.67338 52.8052 9.98629 53.5543 10.5458 54.1233L19.156 62.7335C19.431 63.0085 19.431 63.4637 19.156 63.7387C18.881 64.0137 18.4259 64.0137 18.1509 63.7387L9.5406 55.1284C8.70613 54.294 8.25098 53.1845 8.25098 52.0086C8.25098 50.8328 8.70613 49.7233 9.5406 48.8888C11.257 47.1725 14.0544 47.1725 15.7707 48.8888L24.9784 58.0965C26.6948 56.8638 29.1033 57.0155 30.6395 58.5612L37.8558 65.7775C38.9463 66.8585 39.5438 68.3093 39.5438 69.8455V78.1523C39.5438 78.5411 39.2213 78.8635 38.8326 78.8635Z" fill="#E1251B"/>
<path d="M18.3486 78.5779V87.5391H41.8182V78.5779H18.3486Z" fill="#E1251B"/>
<path d="M41.8282 88.2507H18.3587C17.9699 88.2507 17.6475 87.9283 17.6475 87.5395V78.5784C17.6475 78.1896 17.9699 77.8672 18.3587 77.8672H41.8282C42.217 77.8672 42.5394 78.1896 42.5394 78.5784V87.5395C42.5394 87.9283 42.217 88.2507 41.8282 88.2507ZM19.0699 86.8283H41.117V79.2896H19.0699V86.8283Z" fill="#E1251B"/>
<path d="M39.2679 82.316H24.3137C23.9249 82.316 23.6025 81.9935 23.6025 81.6048C23.6025 81.216 23.9249 80.8936 24.3137 80.8936H39.2679C39.6567 80.8936 39.9791 81.216 39.9791 81.6048C39.9791 81.9935 39.6567 82.316 39.2679 82.316Z" fill="#F2F2F2"/>
<circle cx="45.5" cy="32.3848" r="23" fill="#E1251B"/>
<path d="M45.5728 55.6788C32.4299 55.6788 21.7334 44.9824 21.7334 31.8394C21.7334 18.6965 32.4299 8 45.5728 8C58.7158 8 69.4122 18.6965 69.4122 31.8394C69.4122 44.9824 58.7158 55.6788 45.5728 55.6788ZM45.5728 9.4224C33.2169 9.4224 23.1558 19.474 23.1558 31.8394C23.1558 44.2048 33.2074 54.2564 45.5728 54.2564C57.9382 54.2564 67.9898 44.2048 67.9898 31.8394C67.9898 19.474 57.9382 9.4224 45.5728 9.4224Z" fill="#E1251B"/>
<path d="M26.6257 35.6422C26.2844 35.6422 25.9809 35.3956 25.924 35.0448C25.7533 33.9922 25.668 32.9112 25.668 31.8396C25.668 26.5294 27.7352 21.5225 31.4998 17.7674C35.255 14.0122 40.2523 11.9355 45.5721 11.9355C45.9609 11.9355 46.2833 12.258 46.2833 12.6467C46.2833 13.0355 45.9609 13.3579 45.5721 13.3579C40.6411 13.3579 35.9946 15.2829 32.505 18.7725C29.0154 22.2622 27.0904 26.8992 27.0904 31.8396C27.0904 32.8353 27.1662 33.8405 27.3274 34.8172C27.3938 35.206 27.1283 35.5663 26.7395 35.6327C26.7016 35.6327 26.6637 35.6327 26.6257 35.6327V35.6422Z" fill="white"/>
<path d="M32.0036 46.1208C31.8235 46.1208 31.6433 46.0544 31.5011 45.9122C30.2019 44.613 29.0924 43.1432 28.1916 41.5406C28.0019 41.1993 28.1252 40.7631 28.4666 40.5734C28.808 40.3838 29.2441 40.507 29.4338 40.8484C30.2588 42.3372 31.2925 43.6932 32.5062 44.907C32.7812 45.182 32.7812 45.6372 32.5062 45.9122C32.364 46.0544 32.1838 46.1208 32.0036 46.1208Z" fill="white"/>
<path d="M44.6345 45.6365V42.8581C43.525 42.7443 42.5483 42.4314 41.6854 41.9383C40.8225 41.4357 40.1492 40.7339 39.6751 39.8236C39.201 38.9133 38.9733 37.7848 38.9923 36.4478L39.0208 36.3719H41.7897C41.7897 37.3581 41.9604 38.1642 42.3017 38.771C42.6431 39.3779 43.1173 39.8236 43.7052 40.0986C44.2931 40.3736 44.9569 40.5159 45.6871 40.5159C46.5215 40.5159 47.2327 40.3831 47.8207 40.1081C48.4086 39.8331 48.8637 39.4443 49.1767 38.9417C49.4896 38.4391 49.6508 37.8323 49.6508 37.14C49.6508 36.5616 49.5181 36.04 49.2525 35.5659C48.987 35.1013 48.5603 34.6745 47.9724 34.3047C47.3845 33.9254 46.6164 33.5746 45.6681 33.2616C44.369 32.8634 43.2785 32.3797 42.3966 31.8202C41.5147 31.2608 40.8509 30.578 40.4052 29.772C39.9595 28.9755 39.732 28.0272 39.732 26.9272C39.732 25.3246 40.1966 24.0255 41.1164 23.0109C42.0362 22.0057 43.3069 21.3988 44.9095 21.1902V17.9756H47.2043V21.2092C48.8259 21.4462 50.0775 22.1385 50.9784 23.2953C51.8793 24.4522 52.3249 26.0074 52.3249 27.9608H49.4706C49.4706 26.6427 49.1672 25.5712 48.5603 24.7557C47.9534 23.9402 47.1095 23.5324 46.019 23.5324C44.8716 23.5324 44.0181 23.8264 43.4492 24.4238C42.8802 25.0212 42.5863 25.8367 42.5863 26.8703C42.5863 27.4867 42.7095 28.0272 42.9655 28.4919C43.2216 28.9565 43.6388 29.3643 44.2268 29.7341C44.8147 30.1039 45.6302 30.4642 46.6543 30.8056C47.9724 31.2323 49.0629 31.7254 49.9258 32.2849C50.7888 32.8444 51.4336 33.5082 51.8603 34.2857C52.287 35.0633 52.4956 35.9926 52.4956 37.0926C52.4956 38.7616 51.9931 40.0891 50.9974 41.0753C50.0017 42.0615 48.6267 42.6495 46.8819 42.8391V45.6175H44.6155L44.6345 45.6365Z" fill="white"/>
<path d="M68.729 1.45882C68.8159 0.847059 68.958 0.847059 69.0449 1.45882C69.1318 2.07059 69.7034 2.64218 70.3151 2.72905C70.9269 2.81592 70.9269 2.95804 70.3151 3.04491C69.7034 3.13178 69.1318 3.70337 69.0449 4.31514C68.958 4.9269 68.8159 4.9269 68.729 4.31514C68.6422 3.70337 68.0706 3.13178 67.4588 3.04491C66.8471 2.95804 66.8471 2.81592 67.4588 2.72905C68.0706 2.64218 68.6422 2.07059 68.729 1.45882Z" fill="#E1251B"/>
<path d="M3.72905 17.4588C3.81591 16.8471 3.95805 16.8471 4.04491 17.4588C4.13178 18.0706 4.70337 18.6422 5.31514 18.7291C5.9269 18.8159 5.9269 18.958 5.31514 19.0449C4.70337 19.1318 4.13178 19.7034 4.04491 20.3151C3.95805 20.9269 3.81591 20.9269 3.72905 20.3151C3.64218 19.7034 3.07059 19.1318 2.45882 19.0449C1.84706 18.958 1.84706 18.8159 2.45882 18.7291C3.07059 18.6422 3.64218 18.0706 3.72905 17.4588Z" fill="#E1251B"/>
<path d="M18.3448 36.3569C18.4124 35.881 18.5229 35.881 18.5905 36.3569C18.6581 36.8327 19.1026 37.2773 19.5784 37.3448C20.0543 37.4124 20.0543 37.5229 19.5784 37.5905C19.1026 37.658 18.6581 38.1026 18.5905 38.5784C18.5229 39.0543 18.4124 39.0543 18.3448 38.5784C18.2773 38.1026 17.8327 37.658 17.3569 37.5905C16.881 37.5229 16.881 37.4124 17.3569 37.3448C17.8327 37.2773 18.2773 36.8327 18.3448 36.3569Z" fill="#E1251B"/>
<path d="M74.3448 37.3569C74.4124 36.881 74.5229 36.881 74.5905 37.3569C74.6581 37.8327 75.1026 38.2773 75.5784 38.3448C76.0543 38.4124 76.0543 38.5229 75.5784 38.5905C75.1026 38.658 74.6581 39.1026 74.5905 39.5784C74.5229 40.0543 74.4124 40.0543 74.3448 39.5784C74.2773 39.1026 73.8327 38.658 73.3569 38.5905C72.881 38.5229 72.881 38.4124 73.3569 38.3448C73.8327 38.2773 74.2773 37.8327 74.3448 37.3569Z" fill="#E1251B"/>
<path d="M17.9828 20.9656C17.4409 20.9656 17 20.5247 17 19.9828C17 19.4408 17.4409 19 17.9828 19C18.5247 19 18.9656 19.4409 18.9656 19.9828C18.9656 20.5247 18.5247 20.9656 17.9828 20.9656ZM17.9828 19.2359C17.571 19.2359 17.2359 19.571 17.2359 19.9828C17.2359 20.3946 17.571 20.7297 17.9828 20.7297C18.3947 20.7297 18.7297 20.3946 18.7297 19.9828C18.7297 19.5709 18.3946 19.2359 17.9828 19.2359Z" fill="#E1251B"/>
<path d="M14.9398 4.43368C16.2313 5.63192 16.3074 7.64958 15.11 8.94024C13.9126 10.2309 11.8949 10.306 10.6033 9.10777C9.3118 7.90953 9.23571 5.89187 10.4331 4.60122C11.6305 3.31057 13.6482 3.23544 14.9398 4.43368Z" fill="white" stroke="#E1251B" stroke-width="0.30303"/>
<path d="M10.3737 4.34959L10.3737 4.34959C10.0611 4.6595 9.81423 5.0228 9.64025 5.42932C9.46626 5.83583 9.37378 6.26524 9.3654 6.7055C9.35672 7.16136 9.43904 7.60896 9.61003 8.03577C9.78101 8.46257 10.0305 8.84328 10.3516 9.16719C10.6617 9.48003 11.0252 9.727 11.4318 9.9012C11.8384 10.0754 12.2679 10.1681 12.7082 10.1768C13.1641 10.1857 13.6116 10.1036 14.0384 9.93288C14.4651 9.76215 14.8457 9.51286 15.1694 9.19198C15.2035 9.15816 15.2369 9.12373 15.2694 9.08865L15.2694 9.08865C15.5351 8.80227 15.7479 8.47438 15.9029 8.11225C16.0768 7.70573 16.1693 7.27632 16.1777 6.83606C16.1862 6.39023 16.1077 5.9523 15.9442 5.53399L15.9444 5.53395L15.9332 5.50599C15.9331 5.50593 15.9331 5.50586 15.9331 5.5058C15.9329 5.50526 15.9326 5.50472 15.9324 5.50418L15.9218 5.47769L15.9217 5.47773C15.7511 5.0623 15.5055 4.69117 15.1915 4.37437C14.8814 4.06154 14.518 3.81457 14.1113 3.64037C13.7047 3.46616 13.2752 3.37343 12.8349 3.3648C12.3791 3.35586 11.9315 3.43794 11.5048 3.60868C11.078 3.77941 10.6974 4.0287 10.3737 4.34959ZM10.3652 4.54536L10.3703 4.5399C10.6952 4.1897 11.0965 3.91296 11.5534 3.73014C12.3655 3.40522 13.2555 3.41604 14.0599 3.76062C14.8642 4.1052 15.4862 4.74218 15.8117 5.55442C16.1371 6.36666 16.1267 7.25667 15.7826 8.06076C15.4385 8.86486 14.8018 9.48652 13.9897 9.81145C12.3135 10.4822 10.4032 9.66378 9.73147 7.98717C9.40606 7.17493 9.41638 6.28493 9.76052 5.48084C9.91007 5.13139 10.1148 4.81646 10.3652 4.54536Z" fill="#FF470D" stroke="#E1251B" stroke-width="0.0606061"/>
<path d="M10.1177 7.84055C9.69606 6.78819 9.95059 5.62976 10.6748 4.84912C10.9513 4.55114 11.2963 4.30819 11.6983 4.14735C13.1525 3.5655 14.8099 4.27551 15.3926 5.73005C15.6749 6.43481 15.666 7.20676 15.3674 7.90444C15.0688 8.6021 14.5166 9.14131 13.812 9.42325C13.1074 9.70518 12.3354 9.6958 11.6375 9.39681C10.9396 9.09782 10.4 8.54532 10.1177 7.84055Z" stroke="#E1251B" stroke-width="0.151515"/>
<mask id="path-26-inside-1_9571_91159" fill="white">
<path d="M12.4197 5.62089C12.6086 5.54658 12.798 5.5064 12.988 5.50035L13.1278 5.8493L12.9679 5.91328C12.8996 5.82693 12.8254 5.77131 12.7455 5.74641C12.6656 5.72154 12.5759 5.72709 12.4767 5.76305L12.788 6.54013C12.9677 6.55197 13.1066 6.57135 13.2049 6.59826C13.3031 6.62522 13.3862 6.6657 13.4541 6.71975C13.5219 6.77384 13.5749 6.84826 13.6129 6.94302C13.6832 7.11859 13.6884 7.27362 13.6286 7.40814C13.5688 7.54267 13.4461 7.65583 13.2605 7.74758L13.3809 8.04807L13.2129 8.11529L13.0938 7.81803C12.9971 7.85424 12.8905 7.88374 12.7741 7.90658C12.6577 7.92943 12.5549 7.94181 12.4657 7.94375L12.3233 7.58833L12.4848 7.5237C12.5551 7.6243 12.6336 7.68693 12.7204 7.71158C12.8071 7.73625 12.9132 7.72598 13.0388 7.68071L12.7035 6.84386L12.6554 6.84063C12.4871 6.82923 12.3588 6.81152 12.2705 6.78749C12.1822 6.76349 12.1069 6.72705 12.0449 6.67813C11.9828 6.62926 11.9347 6.56226 11.9007 6.47717C11.8679 6.39532 11.8536 6.31605 11.8579 6.23935C11.8621 6.16267 11.8811 6.09074 11.9148 6.02351C11.9484 5.95632 11.9947 5.89498 12.0537 5.8395C12.1127 5.78403 12.18 5.73681 12.2556 5.69781L12.132 5.38925L12.3 5.32203L12.4197 5.62089ZM12.8967 6.83965L13.2048 7.60865C13.3007 7.55782 13.3631 7.49068 13.3921 7.40718C13.4211 7.32372 13.4148 7.22974 13.3729 7.12527C13.3358 7.03265 13.2797 6.96449 13.2047 6.92074C13.1297 6.87703 13.0271 6.85001 12.8967 6.83965ZM12.5941 6.54272L12.3106 5.83512C12.2228 5.88405 12.1623 5.94913 12.1293 6.03044C12.0963 6.11178 12.0973 6.19605 12.1322 6.28329C12.1672 6.37053 12.2201 6.43339 12.2911 6.47182C12.3621 6.51027 12.4632 6.53391 12.5941 6.54272Z"/>
</mask>
<path d="M12.4197 5.62089C12.6086 5.54658 12.798 5.5064 12.988 5.50035L13.1278 5.8493L12.9679 5.91328C12.8996 5.82693 12.8254 5.77131 12.7455 5.74641C12.6656 5.72154 12.5759 5.72709 12.4767 5.76305L12.788 6.54013C12.9677 6.55197 13.1066 6.57135 13.2049 6.59826C13.3031 6.62522 13.3862 6.6657 13.4541 6.71975C13.5219 6.77384 13.5749 6.84826 13.6129 6.94302C13.6832 7.11859 13.6884 7.27362 13.6286 7.40814C13.5688 7.54267 13.4461 7.65583 13.2605 7.74758L13.3809 8.04807L13.2129 8.11529L13.0938 7.81803C12.9971 7.85424 12.8905 7.88374 12.7741 7.90658C12.6577 7.92943 12.5549 7.94181 12.4657 7.94375L12.3233 7.58833L12.4848 7.5237C12.5551 7.6243 12.6336 7.68693 12.7204 7.71158C12.8071 7.73625 12.9132 7.72598 13.0388 7.68071L12.7035 6.84386L12.6554 6.84063C12.4871 6.82923 12.3588 6.81152 12.2705 6.78749C12.1822 6.76349 12.1069 6.72705 12.0449 6.67813C11.9828 6.62926 11.9347 6.56226 11.9007 6.47717C11.8679 6.39532 11.8536 6.31605 11.8579 6.23935C11.8621 6.16267 11.8811 6.09074 11.9148 6.02351C11.9484 5.95632 11.9947 5.89498 12.0537 5.8395C12.1127 5.78403 12.18 5.73681 12.2556 5.69781L12.132 5.38925L12.3 5.32203L12.4197 5.62089ZM12.8967 6.83965L13.2048 7.60865C13.3007 7.55782 13.3631 7.49068 13.3921 7.40718C13.4211 7.32372 13.4148 7.22974 13.3729 7.12527C13.3358 7.03265 13.2797 6.96449 13.2047 6.92074C13.1297 6.87703 13.0271 6.85001 12.8967 6.83965ZM12.5941 6.54272L12.3106 5.83512C12.2228 5.88405 12.1623 5.94913 12.1293 6.03044C12.0963 6.11178 12.0973 6.19605 12.1322 6.28329C12.1672 6.37053 12.2201 6.43339 12.2911 6.47182C12.3621 6.51027 12.4632 6.53391 12.5941 6.54272Z" fill="#FF8600"/>
<path d="M12.4197 5.62089L12.1384 5.73358L12.2504 6.01314L12.5307 5.90288L12.4197 5.62089ZM12.988 5.50035L13.2693 5.38765L13.1904 5.19072L12.9784 5.19747L12.988 5.50035ZM13.1278 5.8493L13.2404 6.13064L13.5219 6.01801L13.4091 5.7366L13.1278 5.8493ZM12.9679 5.91328L12.7303 6.10132L12.8706 6.27862L13.0805 6.19462L12.9679 5.91328ZM12.7455 5.74641L12.8356 5.45709L12.8355 5.45705L12.7455 5.74641ZM12.4767 5.76305L12.3735 5.47815L12.0789 5.58488L12.1954 5.87575L12.4767 5.76305ZM12.788 6.54013L12.5067 6.65282L12.5777 6.82994L12.7681 6.8425L12.788 6.54013ZM13.2049 6.59826L13.285 6.30604L13.2849 6.306L13.2049 6.59826ZM13.4541 6.71975L13.6429 6.48277L13.6428 6.48267L13.4541 6.71975ZM13.6129 6.94302L13.8942 6.83034L13.8942 6.83032L13.6129 6.94302ZM13.6286 7.40814L13.9055 7.53125L13.9056 7.53122L13.6286 7.40814ZM13.2605 7.74758L13.1262 7.47593L12.875 7.60012L12.9792 7.86028L13.2605 7.74758ZM13.3809 8.04807L13.4935 8.32941L13.7749 8.21678L13.6622 7.93538L13.3809 8.04807ZM13.2129 8.11529L12.9316 8.22799L13.0443 8.50917L13.3255 8.39663L13.2129 8.11529ZM13.0938 7.81803L13.3751 7.70534L13.2649 7.43038L12.9875 7.53424L13.0938 7.81803ZM12.7741 7.90658L12.7158 7.60922L12.7158 7.60923L12.7741 7.90658ZM12.4657 7.94375L12.1844 8.05645L12.2625 8.25129L12.4723 8.24671L12.4657 7.94375ZM12.3233 7.58833L12.2107 7.30699L11.9293 7.41961L12.042 7.70103L12.3233 7.58833ZM12.4848 7.5237L12.7332 7.35013L12.5955 7.15304L12.3723 7.24236L12.4848 7.5237ZM12.7204 7.71158L12.8033 7.42011L12.8032 7.4201L12.7204 7.71158ZM13.0388 7.68071L13.1416 7.96578L13.4368 7.85933L13.3201 7.56802L13.0388 7.68071ZM12.7035 6.84386L12.9848 6.73116L12.9139 6.55425L12.7238 6.54151L12.7035 6.84386ZM12.6554 6.84063L12.6349 7.14297L12.6351 7.14298L12.6554 6.84063ZM12.2705 6.78749L12.35 6.49509L12.35 6.49507L12.2705 6.78749ZM12.0449 6.67813L12.2325 6.44015L12.2323 6.44002L12.0449 6.67813ZM11.9007 6.47717L12.1819 6.36448L12.1819 6.36447L11.9007 6.47717ZM11.8579 6.23935L12.1604 6.25623L12.1604 6.25608L11.8579 6.23935ZM11.9148 6.02351L12.1857 6.15928L12.1857 6.15924L11.9148 6.02351ZM12.0537 5.8395L11.8462 5.61873L11.8462 5.61874L12.0537 5.8395ZM12.2556 5.69781L12.3946 5.96711L12.6394 5.84081L12.5369 5.58512L12.2556 5.69781ZM12.132 5.38925L12.0194 5.10791L11.738 5.22053L11.8507 5.50194L12.132 5.38925ZM12.3 5.32203L12.5813 5.20933L12.4686 4.92815L12.1874 5.04068L12.3 5.32203ZM12.8967 6.83965L12.9207 6.53757L12.4338 6.49889L12.6154 6.95235L12.8967 6.83965ZM13.2048 7.60865L12.9235 7.72134L13.0489 8.03433L13.3468 7.87636L13.2048 7.60865ZM13.3921 7.40718L13.1059 7.30762L13.1059 7.30766L13.3921 7.40718ZM13.3729 7.12527L13.0916 7.23797L13.0916 7.23799L13.3729 7.12527ZM13.2047 6.92074L13.3575 6.659L13.3573 6.65893L13.2047 6.92074ZM12.5941 6.54272L12.5738 6.84507L13.0547 6.87742L12.8754 6.43002L12.5941 6.54272ZM12.3106 5.83512L12.5919 5.72242L12.4639 5.40292L12.1632 5.57037L12.3106 5.83512ZM12.1293 6.03044L11.8486 5.91642L11.8485 5.91648L12.1293 6.03044ZM12.2911 6.47182L12.4355 6.20537L12.4354 6.20532L12.2911 6.47182ZM12.5307 5.90288C12.6894 5.84042 12.8447 5.8081 12.9977 5.80323L12.9784 5.19747C12.7514 5.2047 12.5278 5.25274 12.3088 5.3389L12.5307 5.90288ZM12.7067 5.61305L12.8465 5.96199L13.4091 5.7366L13.2693 5.38765L12.7067 5.61305ZM13.0152 5.56795L12.8553 5.63194L13.0805 6.19462L13.2404 6.13064L13.0152 5.56795ZM13.2055 5.72524C13.1111 5.60593 12.9896 5.50506 12.8356 5.45709L12.6554 6.03572C12.6613 6.03756 12.688 6.04794 12.7303 6.10132L13.2055 5.72524ZM12.8355 5.45705C12.6775 5.40791 12.5185 5.42561 12.3735 5.47815L12.5799 6.04796C12.6334 6.02857 12.6536 6.03517 12.6555 6.03576L12.8355 5.45705ZM12.1954 5.87575L12.5067 6.65282L13.0693 6.42743L12.758 5.65036L12.1954 5.87575ZM12.7681 6.8425C12.9403 6.85386 13.0557 6.87159 13.1248 6.89053L13.2849 6.306C13.1576 6.27112 12.995 6.25009 12.8079 6.23775L12.7681 6.8425ZM13.1247 6.89049C13.1902 6.90848 13.2346 6.93239 13.2653 6.95683L13.6428 6.48267C13.5377 6.399 13.416 6.34196 13.285 6.30604L13.1247 6.89049ZM13.2652 6.95673C13.2854 6.9728 13.3097 7.00113 13.3316 7.05572L13.8942 6.83032C13.8401 6.69538 13.7585 6.57488 13.6429 6.48277L13.2652 6.95673ZM13.3316 7.05571C13.3806 7.17802 13.3695 7.24505 13.3517 7.28506L13.9056 7.53122C14.0074 7.3022 13.9858 7.05916 13.8942 6.83034L13.3316 7.05571ZM13.3518 7.28503C13.3304 7.33303 13.2738 7.40296 13.1262 7.47593L13.3948 8.01923C13.6184 7.9087 13.8073 7.75231 13.9055 7.53125L13.3518 7.28503ZM12.9792 7.86028L13.0996 8.16077L13.6622 7.93538L13.5418 7.63489L12.9792 7.86028ZM13.2683 7.76673L13.1003 7.83395L13.3255 8.39663L13.4935 8.32941L13.2683 7.76673ZM13.4942 8.00259L13.3751 7.70534L12.8125 7.93073L12.9316 8.22799L13.4942 8.00259ZM12.9875 7.53424C12.9085 7.56383 12.8183 7.58911 12.7158 7.60922L12.8325 8.20394C12.9628 8.17837 13.0856 8.14466 13.2001 8.10183L12.9875 7.53424ZM12.7158 7.60923C12.6112 7.62974 12.5264 7.63933 12.4591 7.64079L12.4723 8.24671C12.5835 8.24429 12.7042 8.22913 12.8325 8.20394L12.7158 7.60923ZM12.747 7.83106L12.6046 7.47564L12.042 7.70103L12.1844 8.05645L12.747 7.83106ZM12.4359 7.86968L12.5974 7.80505L12.3723 7.24236L12.2107 7.30699L12.4359 7.86968ZM12.2365 7.69728C12.3323 7.83445 12.4629 7.95344 12.6375 8.00307L12.8032 7.4201C12.8027 7.41995 12.7969 7.41836 12.7854 7.40924C12.7733 7.39956 12.7553 7.38166 12.7332 7.35013L12.2365 7.69728ZM12.6375 8.00305C12.8081 8.05159 12.9835 8.02276 13.1416 7.96578L12.936 7.39564C12.8429 7.42919 12.806 7.4209 12.8033 7.42011L12.6375 8.00305ZM13.3201 7.56802L12.9848 6.73116L12.4222 6.95655L12.7575 7.7934L13.3201 7.56802ZM12.7238 6.54151L12.6756 6.53828L12.6351 7.14298L12.6833 7.14621L12.7238 6.54151ZM12.6758 6.53829C12.5139 6.52732 12.4092 6.51119 12.35 6.49509L12.191 7.0799C12.3084 7.11185 12.4603 7.13114 12.6349 7.14297L12.6758 6.53829ZM12.35 6.49507C12.2947 6.48006 12.2578 6.46012 12.2325 6.44015L11.8573 6.9161C11.9561 6.99398 12.0696 7.04692 12.191 7.07992L12.35 6.49507ZM12.2323 6.44002C12.2183 6.42898 12.1995 6.4083 12.1819 6.36448L11.6194 6.58987C11.67 6.71621 11.7473 6.82953 11.8574 6.91623L12.2323 6.44002ZM12.1819 6.36447C12.1632 6.31761 12.1589 6.28254 12.1604 6.25623L11.5553 6.22248C11.5482 6.34956 11.5726 6.47304 11.6194 6.58987L12.1819 6.36447ZM12.1604 6.25608C12.1624 6.21996 12.171 6.18864 12.1857 6.15928L11.6438 5.88774C11.5912 5.99283 11.5618 6.10538 11.5553 6.22262L12.1604 6.25608ZM12.1857 6.15924C12.2022 6.12626 12.2263 6.09323 12.2613 6.06027L11.8462 5.61874C11.7632 5.69673 11.6946 5.78637 11.6438 5.88779L12.1857 6.15924ZM12.2613 6.06027C12.2988 6.02506 12.3427 5.99387 12.3946 5.96711L12.1167 5.42851C12.0174 5.47976 11.9267 5.54301 11.8462 5.61873L12.2613 6.06027ZM12.5369 5.58512L12.4133 5.27655L11.8507 5.50194L11.9743 5.81051L12.5369 5.58512ZM12.2446 5.67059L12.4126 5.60337L12.1874 5.04068L12.0194 5.10791L12.2446 5.67059ZM12.0187 5.43472L12.1384 5.73358L12.701 5.5082L12.5813 5.20933L12.0187 5.43472ZM12.6154 6.95235L12.9235 7.72134L13.4861 7.49595L13.178 6.72696L12.6154 6.95235ZM13.3468 7.87636C13.4941 7.79824 13.6188 7.67803 13.6783 7.50669L13.1059 7.30766C13.1057 7.30826 13.1053 7.30987 13.1016 7.31385C13.0972 7.31857 13.0862 7.32854 13.0629 7.34093L13.3468 7.87636ZM13.6783 7.50673C13.7373 7.33706 13.7156 7.16583 13.6542 7.01254L13.0916 7.23799C13.103 7.26636 13.1061 7.28479 13.1068 7.29471C13.1074 7.30368 13.1061 7.30694 13.1059 7.30762L13.6783 7.50673ZM13.6542 7.01257C13.5959 6.86708 13.4991 6.74167 13.3575 6.659L13.052 7.18247C13.0603 7.18731 13.0757 7.19823 13.0916 7.23797L13.6542 7.01257ZM13.3573 6.65893C13.2282 6.58367 13.0755 6.54986 12.9207 6.53757L12.8727 7.14173C12.9787 7.15015 13.0313 7.17038 13.0521 7.18254L13.3573 6.65893ZM12.8754 6.43002L12.5919 5.72242L12.0293 5.94782L12.3128 6.65542L12.8754 6.43002ZM12.1632 5.57037C12.0243 5.64772 11.9113 5.76196 11.8486 5.91642L12.4101 6.14446C12.4134 6.13631 12.4212 6.12038 12.4581 6.09987L12.1632 5.57037ZM11.8485 5.91648C11.7838 6.07589 11.7891 6.2416 11.8509 6.39599L12.4135 6.17059C12.4084 6.15774 12.4083 6.15182 12.4083 6.15119C12.4083 6.15062 12.4083 6.15018 12.4084 6.14958C12.4086 6.14894 12.4089 6.14728 12.4101 6.14441L11.8485 5.91648ZM11.8509 6.39599C11.9076 6.53753 12.0037 6.66079 12.1469 6.73832L12.4354 6.20532C12.4339 6.2045 12.4324 6.20353 12.4299 6.20056C12.427 6.19711 12.4207 6.18844 12.4135 6.17059L11.8509 6.39599ZM12.1468 6.73826C12.2727 6.80646 12.4234 6.83495 12.5738 6.84507L12.6145 6.24038C12.503 6.23287 12.4516 6.21409 12.4355 6.20537L12.1468 6.73826Z" fill="#E1251B" mask="url(#path-26-inside-1_9571_91159)"/>
<path d="M77.3676 24.0693C79.2061 24.2723 80.8612 22.9456 81.0644 21.1061C81.2675 19.2666 79.9418 17.6107 78.1033 17.4077C76.2648 17.2046 74.6097 18.5313 74.4066 20.3708C74.2034 22.2104 75.5291 23.8662 77.3676 24.0693Z" fill="white"/>
<path d="M77.3639 24.1048C77.3167 24.0996 77.2695 24.0934 77.2222 24.0861C76.7744 24.0176 76.3501 23.8613 75.9611 23.6216C75.5721 23.3819 75.2417 23.0731 74.979 22.7038C74.7252 22.3472 74.545 21.9494 74.4434 21.5215C74.3418 21.0937 74.3238 20.6573 74.3901 20.2245C74.4586 19.7764 74.6149 19.3518 74.8545 18.9626C75.0941 18.5734 75.4028 18.2427 75.7719 17.9798C76.1284 17.7259 76.526 17.5455 76.9536 17.4438C77.3812 17.3421 77.8174 17.3241 78.2499 17.3903C78.6977 17.4588 79.1221 17.6151 79.511 17.8548C79.9 18.0945 80.2305 18.4033 80.4932 18.7726C80.7469 19.1292 80.9271 19.527 81.0287 19.9549C81.1304 20.3827 81.1483 20.8191 81.0821 21.2519C81.0135 21.7 80.8572 22.1246 80.6176 22.5138L80.5877 22.4953L80.6176 22.5138C80.378 22.903 80.0694 23.2337 79.7003 23.4966C79.3438 23.7505 78.9462 23.9309 78.5186 24.0326C78.1376 24.1232 77.7499 24.1474 77.3639 24.1048L77.3639 24.1048ZM78.1025 17.4409C77.7287 17.3996 77.3466 17.4227 76.9699 17.5123C76.1087 17.7172 75.3787 18.2454 74.9144 18.9995C73.9561 20.5564 74.4422 22.6029 75.998 23.5616C76.7517 24.026 77.6411 24.169 78.5023 23.9641C79.3635 23.7592 80.0935 23.231 80.5577 22.4769C81.0219 21.7227 81.1649 20.8328 80.9602 19.9712C80.7556 19.1095 80.2278 18.3792 79.4741 17.9148C79.0501 17.6535 78.5832 17.494 78.1025 17.4409L78.1025 17.4409Z" fill="#E1251B"/>
<path d="M77.3837 23.7139C76.9492 23.6659 76.5273 23.5218 76.144 23.2856C75.4629 22.8659 74.9859 22.2059 74.8009 21.4272C74.6159 20.6484 74.7451 19.8442 75.1647 19.1626C75.5843 18.481 76.244 18.0037 77.0223 17.8185C77.8007 17.6333 78.6044 17.7625 79.2856 18.1822C79.9668 18.602 80.4438 19.262 80.6287 20.0407C80.8137 20.8195 80.6845 21.6237 80.2649 22.3053C79.8453 22.9869 79.1856 23.4642 78.4073 23.6494C78.0669 23.7304 77.7214 23.7512 77.3837 23.7139ZM78.0405 17.826C76.951 17.7057 75.8367 18.2053 75.2247 19.1995C74.8149 19.8651 74.6888 20.6504 74.8694 21.4109C75.05 22.1713 75.5158 22.8158 76.1809 23.2257C76.8461 23.6355 77.631 23.7617 78.391 23.5808C79.1511 23.4 79.7953 22.9339 80.205 22.2684C81.0507 20.8944 80.6218 19.0883 79.2487 18.2422C78.8692 18.0084 78.4566 17.872 78.0405 17.826Z" fill="#E1251B"/>
<path d="M78.0405 17.826C76.951 17.7057 75.8367 18.2053 75.2247 19.1995C74.8149 19.8651 74.6888 20.6504 74.8694 21.4109C75.05 22.1713 75.5158 22.8158 76.1809 23.2257C76.8461 23.6355 77.631 23.7617 78.391 23.5808C79.1511 23.4 79.7953 22.9339 80.205 22.2684C81.0507 20.8944 80.6218 19.0883 79.2487 18.2422C78.8692 18.0084 78.4566 17.872 78.0405 17.826Z" fill="#E1251B"/>
<path d="M78.4529 19.7691C78.6256 19.8769 78.7711 20.0055 78.8894 20.155L78.6918 20.476L78.5448 20.3854C78.5735 20.2788 78.574 20.1858 78.5464 20.1065C78.5186 20.0273 78.4606 19.9584 78.3724 19.8999L77.9323 20.6148C78.03 20.7667 78.0974 20.8902 78.1344 20.9854C78.1714 21.0807 78.1884 21.1718 78.1854 21.2587C78.1823 21.3457 78.154 21.4328 78.1004 21.52C78.0009 21.6816 77.8791 21.7784 77.7351 21.8106C77.591 21.8427 77.4265 21.8114 77.2417 21.7167L77.0715 21.9932L76.917 21.898L77.0854 21.6245C76.9984 21.5682 76.911 21.5 76.8231 21.4198C76.7352 21.3397 76.6638 21.2642 76.6089 21.1936L76.8102 20.8665L76.9588 20.9581C76.9197 21.0748 76.9162 21.1755 76.9481 21.26C76.98 21.3446 77.0517 21.424 77.1631 21.4981L77.6371 20.7282L77.611 20.6875C77.5196 20.5451 77.4573 20.4312 77.4239 20.3457C77.3905 20.2602 77.3749 20.1778 77.3773 20.0986C77.3795 20.0194 77.4048 19.9406 77.453 19.8624C77.4994 19.7871 77.5547 19.7282 77.619 19.6858C77.6833 19.6435 77.7526 19.6158 77.8269 19.6028C77.9012 19.5897 77.9782 19.5904 78.0582 19.6048C78.1381 19.6192 78.2163 19.6452 78.2929 19.6828L78.4677 19.3989L78.6222 19.4941L78.4529 19.7691L78.4529 19.7691ZM77.7559 20.8814L77.3204 21.5889C77.4186 21.6357 77.5099 21.6459 77.5946 21.6194C77.6791 21.593 77.751 21.5317 77.8102 21.4355C77.8626 21.3503 77.8841 21.2645 77.8745 21.1779C77.865 21.0914 77.8254 20.9925 77.7559 20.8814ZM77.8144 20.4602L78.2151 19.8092C78.1232 19.7676 78.0347 19.7578 77.9495 19.7798C77.8642 19.8017 77.7969 19.8528 77.7475 19.9331C77.6981 20.0134 77.6791 20.0936 77.6905 20.1738C77.702 20.2539 77.7433 20.3494 77.8144 20.4602L77.8144 20.4602Z" fill="white"/>
<path d="M85.6774 13.3546C84.7525 13.3546 84 12.6022 84 11.6773C84 10.7523 84.7525 10 85.6774 10C86.6022 10 87.3546 10.7524 87.3546 11.6773C87.3546 12.6021 86.6022 13.3546 85.6774 13.3546ZM85.6774 10.4026C84.9745 10.4026 84.4026 10.9745 84.4026 11.6773C84.4026 12.3801 84.9745 12.952 85.6774 12.952C86.3803 12.952 86.952 12.3802 86.952 11.6773C86.952 10.9744 86.3802 10.4026 85.6774 10.4026Z" fill="#E1251B"/>
</svg>
