<svg width="16" height="16" viewBox="0 0 16 16" fill="none" xmlns="http://www.w3.org/2000/svg">
<g clip-path="url(#clip0_11667_25187)">
<path d="M3.54424 12.9586C3.94979 12.0031 4.89666 11.333 6.00004 11.333H10C11.1034 11.333 12.0503 12.0031 12.4558 12.9586M10.6667 6.33301C10.6667 7.80577 9.4728 8.99967 8.00004 8.99967C6.52728 8.99967 5.33337 7.80577 5.33337 6.33301C5.33337 4.86025 6.52728 3.66634 8.00004 3.66634C9.4728 3.66634 10.6667 4.86025 10.6667 6.33301ZM14.6667 7.99967C14.6667 11.6816 11.6819 14.6663 8.00004 14.6663C4.31814 14.6663 1.33337 11.6816 1.33337 7.99967C1.33337 4.31778 4.31814 1.33301 8.00004 1.33301C11.6819 1.33301 14.6667 4.31778 14.6667 7.99967Z" stroke="#6C6F73" stroke-width="1.5" stroke-linecap="round" stroke-linejoin="round"/>
</g>
<defs>
<clipPath id="clip0_11667_25187">
<rect width="16" height="16" fill="white"/>
</clipPath>
</defs>
</svg>
