<svg width="20" height="20" viewBox="0 0 20 20" fill="none" xmlns="http://www.w3.org/2000/svg">
<g clip-path="url(#clip0_12568_44792)">
<path d="M3.87494 11.7509C3.87494 13.1933 4.45657 14.4998 5.39809 15.4486C5.48889 15.5402 5.53429 15.5859 5.56109 15.6299C5.58666 15.6719 5.60155 15.708 5.61297 15.7559C5.62494 15.806 5.62494 15.863 5.62494 15.977V18.0509C5.62494 18.296 5.62494 18.4185 5.67262 18.5121C5.71457 18.5944 5.7815 18.6613 5.86382 18.7032C5.9574 18.7509 6.07992 18.7509 6.32494 18.7509H7.98744C8.23246 18.7509 8.35497 18.7509 8.44856 18.7032C8.53088 18.6613 8.59781 18.5944 8.63975 18.5121C8.68744 18.4185 8.68744 18.296 8.68744 18.0509V17.7009C8.68744 17.4559 8.68744 17.3334 8.73512 17.2398C8.77707 17.1575 8.844 17.0906 8.92632 17.0486C9.0199 17.0009 9.14242 17.0009 9.38744 17.0009H10.6124C10.8575 17.0009 10.98 17.0009 11.0736 17.0486C11.1559 17.0906 11.2228 17.1575 11.2648 17.2398C11.3124 17.3334 11.3124 17.4559 11.3124 17.7009V18.0509C11.3124 18.296 11.3124 18.4185 11.3601 18.5121C11.4021 18.5944 11.469 18.6613 11.5513 18.7032C11.6449 18.7509 11.7674 18.7509 12.0124 18.7509H13.675C13.92 18.7509 14.0425 18.7509 14.1361 18.7032C14.2184 18.6613 14.2854 18.5944 14.3273 18.5121C14.375 18.4185 14.375 18.296 14.375 18.0509V17.1972C14.375 17.0204 14.375 16.932 14.4002 16.8611C14.4243 16.793 14.4547 16.7454 14.5062 16.6949C14.56 16.6422 14.6511 16.5999 14.8332 16.5153C15.6927 16.1163 16.426 15.4916 16.9572 14.7173C17.0506 14.5812 17.0973 14.5131 17.1472 14.4729C17.1949 14.4344 17.2377 14.4119 17.2964 14.3943C17.3578 14.3759 17.4307 14.3759 17.5764 14.3759H18.05C18.295 14.3759 18.4175 14.3759 18.5111 14.3282C18.5934 14.2863 18.6604 14.2194 18.7023 14.1371C18.75 14.0435 18.75 13.921 18.75 13.6759V10.6885C18.75 10.4552 18.75 10.3386 18.7067 10.2486C18.6637 10.1593 18.5916 10.0873 18.5023 10.0443C18.4124 10.0009 18.2957 10.0009 18.0625 10.0009C17.8936 10.0009 17.8092 10.0009 17.7412 9.97801C17.6679 9.95329 17.6165 9.92042 17.5633 9.86423C17.5139 9.81213 17.4737 9.72499 17.3931 9.55072C17.1346 8.99138 16.7805 8.48523 16.3518 8.05321C16.261 7.9617 16.2156 7.91595 16.1888 7.87195C16.1633 7.82996 16.1484 7.79382 16.137 7.74601C16.125 7.69589 16.125 7.63888 16.125 7.52484V6.55394C16.125 6.2389 16.125 6.08138 16.0594 5.9755C16.0019 5.88275 15.9119 5.81482 15.8069 5.78505C15.6871 5.75105 15.5356 5.79432 15.2327 5.88087L13.1567 6.474M3.87494 11.7509C3.87494 9.73488 4.58284 8.38057 6.25 7.50094M3.87494 11.7509H3C2.0335 11.7509 1.25 10.9674 1.25 10.0009C1.25 9.35319 1.60192 8.78763 2.125 8.48505M13.1567 6.474L12.9644 6.50093C13.0011 6.50093 13.0194 6.50093 13.0376 6.49941C13.0538 6.49805 13.0699 6.4958 13.0859 6.49266C13.1038 6.48912 13.1214 6.48408 13.1567 6.474Z" stroke="currentColor" stroke-width="1.2" stroke-linecap="round" stroke-linejoin="round"/>
<circle cx="13.9369" cy="9.56152" r="0.5875" fill="currentColor" stroke="currentColor" stroke-width="0.3"/>
<circle cx="9.375" cy="4.58301" r="3.75" stroke="currentColor"/>
<path d="M8.16736 5.43803C8.16736 5.85107 8.54045 6.1859 9.00069 6.1859H9.7745C10.2676 6.1859 10.6674 5.82715 10.6674 5.38462C10.6674 4.94208 10.2676 4.58333 9.7745 4.58333H9.06022C8.5671 4.58333 8.16736 4.22459 8.16736 3.78205C8.16736 3.33952 8.5671 2.98077 9.06022 2.98077H9.83402C10.2943 2.98077 10.6674 3.3156 10.6674 3.72863M9.41736 2.5V2.98077M9.41736 6.1859V6.66667" stroke="currentColor" stroke-width="0.8" stroke-linecap="round" stroke-linejoin="round"/>
</g>
<defs>
<clipPath id="clip0_12568_44792">
<rect width="20" height="20" fill="white"/>
</clipPath>
</defs>
</svg>
