<svg width="33" height="32" viewBox="0 0 33 32" fill="none" xmlns="http://www.w3.org/2000/svg">
<path d="M6.43103 19.1592C6.43103 21.5303 7.38716 23.678 8.93489 25.2378C9.08416 25.3882 9.15879 25.4635 9.20285 25.5358C9.24488 25.6048 9.26936 25.6642 9.28813 25.7428C9.30781 25.8252 9.3078 25.9189 9.3078 26.1064V29.5156C9.3078 29.9184 9.3078 30.1198 9.38619 30.2737C9.45514 30.409 9.56517 30.519 9.70049 30.588C9.85434 30.6663 10.0557 30.6663 10.4585 30.6663H13.1915C13.5942 30.6663 13.7956 30.6663 13.9495 30.588C14.0848 30.519 14.1948 30.409 14.2638 30.2737C14.3422 30.1198 14.3422 29.9184 14.3422 29.5156V28.9403C14.3422 28.5375 14.3422 28.3361 14.4205 28.1823C14.4895 28.0469 14.5995 27.9369 14.7348 27.868C14.8887 27.7896 15.0901 27.7896 15.4929 27.7896H17.5066C17.9094 27.7896 18.1108 27.7896 18.2646 27.868C18.4 27.9369 18.51 28.0469 18.5789 28.1823C18.6573 28.3361 18.6573 28.5375 18.6573 28.9403V29.5156C18.6573 29.9184 18.6573 30.1198 18.7357 30.2737C18.8047 30.409 18.9147 30.519 19.05 30.588C19.2039 30.6663 19.4052 30.6663 19.808 30.6663H22.5411C22.9439 30.6663 23.1453 30.6663 23.2991 30.588C23.4344 30.519 23.5444 30.409 23.6134 30.2737C23.6918 30.1198 23.6918 29.9184 23.6918 29.5156V28.1122C23.6918 27.8216 23.6918 27.6763 23.7332 27.5596C23.7728 27.4478 23.8228 27.3695 23.9075 27.2865C23.9959 27.1998 24.1456 27.1303 24.445 26.9913C25.8578 26.3354 27.0634 25.3084 27.9366 24.0356C28.0902 23.8118 28.167 23.6999 28.249 23.6338C28.3273 23.5705 28.3977 23.5335 28.4942 23.5046C28.5951 23.4744 28.7149 23.4744 28.9545 23.4744H29.733C30.1358 23.4744 30.3372 23.4744 30.491 23.396C30.6264 23.3271 30.7364 23.217 30.8053 23.0817C30.8837 22.9279 30.8837 22.7265 30.8837 22.3237V17.4127C30.8837 17.0292 30.8837 16.8375 30.8125 16.6896C30.7418 16.5428 30.6234 16.4244 30.4766 16.3537C30.3287 16.2825 30.137 16.2825 29.7535 16.2825C29.4759 16.2825 29.3372 16.2825 29.2254 16.2448C29.1049 16.2042 29.0203 16.1501 28.9329 16.0577C28.8518 15.9721 28.7856 15.8289 28.6532 15.5424C28.2282 14.6229 27.6461 13.7909 26.9415 13.0807C26.7922 12.9302 26.7176 12.855 26.6735 12.7827C26.6315 12.7137 26.607 12.6543 26.5882 12.5757C26.5686 12.4933 26.5686 12.3995 26.5686 12.2121V10.6161C26.5686 10.0982 26.5686 9.83922 26.4607 9.66517C26.3662 9.51271 26.2182 9.40104 26.0456 9.35209C25.8487 9.29621 25.5997 9.36734 25.1017 9.50961L21.6891 10.4846C21.6311 10.5012 21.6021 10.5095 21.5726 10.5153C21.5464 10.5205 21.52 10.5242 21.4933 10.5264C21.4634 10.5289 21.4333 10.5289 21.3729 10.5289H20.7561M6.43103 19.1592C6.43103 15.8451 8.29908 12.9673 11.0397 11.5213M6.43103 19.1592H4.99274C3.40394 19.1592 2.11597 17.8713 2.11597 16.2825C2.11597 15.2177 2.69448 14.288 3.55435 13.7906" stroke="currentColor" stroke-width="2" stroke-linecap="round" stroke-linejoin="round"/>
<g clip-path="url(#clip0_13136_102338)">
<path d="M9.83333 6.66732L10.9723 7.78955L12.112 6.66732M10.833 7.50899C10.8123 7.32476 10.8017 7.13754 10.8017 6.94788C10.9723 4.66732 12.7524 2.61719 15.584 2.61719C18.4155 2.61719 20.7109 4.87817 20.7109 7.66724C20.7109 10.4563 18.4155 12.7173 15.584 12.7173C13.9734 12.7173 12.5362 11.9858 11.5963 10.8417M15.584 6.0867L15.584 8.22835H17.3369" stroke="currentColor" stroke-width="1.8" stroke-linecap="round" stroke-linejoin="round"/>
</g>
<path d="M22.9724 16.5331C23.5076 16.5331 23.9416 16.0992 23.9416 15.5639C23.9416 15.0286 23.5076 14.5947 22.9724 14.5947C22.4371 14.5947 22.0032 15.0286 22.0032 15.5639C22.0032 16.0992 22.4371 16.5331 22.9724 16.5331Z" fill="currentColor" stroke="currentColor" stroke-width="0.5"/>
<defs>
<clipPath id="clip0_13136_102338">
<rect width="13.4668" height="13.4668" fill="white" transform="translate(8.36646 0.933594)"/>
</clipPath>
</defs>
</svg>
