<svg width="21" height="20" viewBox="0 0 21 20" fill="none" xmlns="http://www.w3.org/2000/svg">
<g clip-path="url(#clip0_12529_90412)">
<path d="M3.96755 10.8793C3.96755 7.96447 6.33049 5.60153 9.24533 5.60153M3.96755 10.8793C3.96755 12.3293 4.55226 13.6427 5.49876 14.5966C5.59004 14.6886 5.63568 14.7346 5.66262 14.7788C5.68833 14.821 5.70329 14.8574 5.71477 14.9054C5.72681 14.9558 5.72681 15.0131 5.72681 15.1278V17.2126C5.72681 17.459 5.72681 17.5821 5.77474 17.6762C5.81691 17.759 5.88419 17.8262 5.96695 17.8684C6.06103 17.9163 6.18419 17.9163 6.43051 17.9163H8.10181C8.34813 17.9163 8.47129 17.9163 8.56537 17.8684C8.64812 17.8262 8.71541 17.759 8.75757 17.6762C8.80551 17.5821 8.80551 17.459 8.80551 17.2126V16.8608C8.80551 16.6145 8.80551 16.4913 8.85345 16.3972C8.89561 16.3145 8.9629 16.2472 9.04565 16.205C9.13974 16.1571 9.26289 16.1571 9.50921 16.1571H10.7407C10.987 16.1571 11.1102 16.1571 11.2043 16.205C11.287 16.2472 11.3543 16.3145 11.3965 16.3972C11.4444 16.4913 11.4444 16.6145 11.4444 16.8608V17.2126C11.4444 17.459 11.4444 17.5821 11.4923 17.6762C11.5345 17.759 11.6018 17.8262 11.6845 17.8684C11.7786 17.9163 11.9018 17.9163 12.1481 17.9163H13.8195C14.0658 17.9163 14.1889 17.9163 14.283 17.8684C14.3658 17.8262 14.4331 17.759 14.4752 17.6762C14.5232 17.5821 14.5232 17.459 14.5232 17.2126V16.3544C14.5232 16.1767 14.5232 16.0878 14.5485 16.0165C14.5727 15.9481 14.6033 15.9002 14.6551 15.8494C14.7091 15.7964 14.8007 15.7539 14.9838 15.6689C15.8478 15.2678 16.5851 14.6398 17.1191 13.8614C17.213 13.7245 17.2599 13.6561 17.3101 13.6156C17.358 13.577 17.401 13.5543 17.46 13.5367C17.5217 13.5182 17.595 13.5182 17.7415 13.5182H18.2176C18.4639 13.5182 18.5871 13.5182 18.6812 13.4703C18.7639 13.4281 18.8312 13.3608 18.8734 13.278C18.9213 13.184 18.9213 13.0608 18.9213 12.8145V9.81121C18.9213 9.57671 18.9213 9.45946 18.8777 9.36901C18.8345 9.27926 18.7621 9.20684 18.6723 9.16361C18.5819 9.12004 18.4646 9.12004 18.2301 9.12004C18.0604 9.12004 17.9755 9.12004 17.9072 9.097C17.8335 9.07215 17.7818 9.03911 17.7283 8.98262C17.6787 8.93024 17.6382 8.84264 17.5572 8.66745C17.2973 8.10515 16.9414 7.59633 16.5105 7.16202C16.4192 7.07003 16.3736 7.02403 16.3466 6.97979C16.3209 6.93759 16.3059 6.90126 16.2945 6.85319C16.2824 6.80281 16.2824 6.74549 16.2824 6.63085V5.65481C16.2824 5.33811 16.2824 5.17975 16.2165 5.07331C16.1587 4.98007 16.0682 4.91179 15.9626 4.88185C15.8422 4.84768 15.6899 4.89118 15.3854 4.97818L13.2984 5.57445C13.263 5.58458 13.2452 5.58965 13.2272 5.59321C13.2112 5.59637 13.195 5.59863 13.1787 5.59999C13.1604 5.60153 13.1418 5.60153 13.1047 5.60153H9.24533M3.96755 10.8793H3.08798C2.11637 10.8793 1.32872 10.0917 1.32872 9.12004C1.32872 8.46887 1.68251 7.90033 2.20835 7.59614M9.24533 5.60153H12.7327C12.7533 5.45788 12.7639 5.31104 12.7639 5.16171C12.7639 3.46139 11.3855 2.08301 9.6852 2.08301C7.98488 2.08301 6.6065 3.46139 6.6065 5.16171C6.6065 5.5287 6.67071 5.88068 6.78851 6.20705C7.52232 5.82039 8.35823 5.60153 9.24533 5.60153Z" stroke="currentColor" stroke-width="1.25" stroke-linecap="round" stroke-linejoin="round"/>
<circle cx="14.0834" cy="8.68005" r="0.539815" fill="currentColor" stroke="currentColor" stroke-width="0.2"/>
</g>
<defs>
<clipPath id="clip0_12529_90412">
<rect width="20" height="20" fill="white" transform="translate(0.125)"/>
</clipPath>
</defs>
</svg>
