<svg width="23" height="20" viewBox="0 0 23 20" fill="none" xmlns="http://www.w3.org/2000/svg">
<path d="M18.6858 16.4562C18.4476 16.5937 18.1322 16.5641 17.9256 16.3562C17.6868 16.1092 17.6819 15.7175 17.9248 15.4714C20.409 13.0076 20.918 9.17258 19.168 6.14149C17.043 2.46088 12.3188 1.19504 8.63824 3.32004C5.51333 5.12421 4.51791 8.13341 4.19556 9.79176L6.31732 8.56676C6.61321 8.39593 7.00025 8.49963 7.17109 8.79553C7.34192 9.09142 7.25681 9.47734 6.95371 9.65234L3.75663 11.4982C3.70611 11.5273 3.65143 11.5493 3.59257 11.564C3.51512 11.5799 3.44072 11.5843 3.36937 11.5774C3.27942 11.5716 3.19557 11.5431 3.12198 11.4989C3.04423 11.4476 2.9737 11.3921 2.92065 11.3169C2.90815 11.2952 2.89981 11.2808 2.88731 11.2591L0.995646 7.98268C0.824813 7.68679 0.92852 7.29975 1.22441 7.12891C1.5203 6.95808 1.90734 7.06179 2.07818 7.35768L3.07401 9.08251C3.5212 7.14039 4.74094 4.13639 8.02462 2.24056C12.3042 -0.230273 17.7911 1.23993 20.2619 5.51954C22.2953 9.04137 21.7042 13.501 18.8145 16.3626C18.7754 16.3948 18.7291 16.4312 18.6858 16.4562Z" fill="#E1251B"/>
<path d="M16.4623 18.0382C16.4479 18.0465 16.4262 18.059 16.4076 18.0601C15.6062 18.4554 14.7485 18.7197 13.8643 18.8549C13.6092 18.8964 13.3512 18.7663 13.222 18.5425C13.1845 18.4776 13.1615 18.4043 13.1498 18.3341C13.0997 17.9973 13.3339 17.6697 13.6707 17.6196C14.433 17.5066 15.1731 17.2718 15.8662 16.939L15.8734 16.9348C16.1704 16.7826 16.5286 16.9029 16.6952 17.1916C16.6994 17.1988 16.7077 17.2133 16.7119 17.2205C16.8528 17.5144 16.7438 17.8757 16.4623 18.0382ZM11.59 18.7824C11.4673 18.8532 11.331 18.8838 11.1841 18.8627C10.2987 18.7292 9.44273 18.4632 8.63167 18.0751C8.51255 18.0188 8.41813 17.9386 8.35563 17.8303C8.25146 17.6499 8.24223 17.4339 8.33545 17.2454C8.47778 16.9419 8.8689 16.8027 9.16518 16.9492C9.8685 17.284 10.6065 17.5123 11.3708 17.6195C11.5519 17.6497 11.7187 17.7554 11.8146 17.9214C11.8854 18.0441 11.9202 18.1876 11.8991 18.3345C11.8731 18.5227 11.756 18.6865 11.59 18.7824ZM7.1462 16.6522C6.90805 16.7897 6.61126 16.759 6.41714 16.5728C5.75703 15.9628 5.19573 15.2572 4.74573 14.4778C4.57489 14.1819 4.6786 13.7949 4.97449 13.624C5.27039 13.4532 5.65743 13.5569 5.82826 13.8528C6.21576 14.524 6.70013 15.1296 7.26165 15.6522C7.30525 15.6943 7.3458 15.7479 7.37914 15.8057C7.51664 16.0438 7.48175 16.3334 7.29969 16.5347C7.25029 16.5825 7.20394 16.6189 7.1462 16.6522Z" fill="#E1251B"/>
<path opacity="0.4" d="M15.4166 9.99984C15.4166 11.6107 14.1108 12.9165 12.5 12.9165C10.8891 12.9165 9.58329 11.6107 9.58329 9.99984C9.58329 8.38901 10.8891 7.08317 12.5 7.08317C14.1108 7.08317 15.4166 8.38901 15.4166 9.99984Z" fill="#E1251B" stroke="#E1251B" stroke-width="0.833333"/>
</svg>
