<svg width="49" height="48" viewBox="0 0 49 48" fill="none" xmlns="http://www.w3.org/2000/svg">
<path fill-rule="evenodd" clip-rule="evenodd" d="M16.9793 9.75188C16.8649 9.06982 16.299 8.55438 15.6092 8.50402C14.9195 8.45366 14.2847 8.8814 14.0724 9.53962L9.89254 22.5H4.5C3.67158 22.5 3 23.1716 3 24C3 24.8284 3.67158 25.5 4.5 25.5H10.9848C11.6359 25.5 12.2126 25.08 12.4124 24.4604L15.0387 16.3172L18.7176 38.2482C18.8336 38.9394 19.4127 39.4582 20.1124 39.4976C20.8122 39.5372 21.446 39.0868 21.639 38.4132L26.498 21.4532L29.0578 30.4122C29.2226 30.9894 29.716 31.4128 30.3118 31.4882C30.9074 31.5636 31.4908 31.2764 31.7942 30.7582L34.8748 25.5H37.207C37.86 27.8086 39.9824 29.5 42.5 29.5C45.5376 29.5 48 27.0376 48 24C48 20.9624 45.5376 18.5 42.5 18.5C39.9824 18.5 37.86 20.1916 37.207 22.5H34.0152C33.4826 22.5 32.99 22.7824 32.721 23.2418L30.9788 26.2156L27.9422 15.588C27.7584 14.9442 27.17 14.5003 26.5006 14.5C25.831 14.4998 25.2424 14.9433 25.058 15.5869L20.58 31.2168L16.9793 9.75188ZM40 24C40 22.6194 41.1192 21.5 42.5 21.5C43.8808 21.5 45 22.6194 45 24C45 25.3808 43.8808 26.5 42.5 26.5C41.1192 26.5 40 25.3808 40 24Z" fill="#E1251B"/>
</svg>
