<svg width="18" height="17" viewBox="0 0 18 17" fill="none" xmlns="http://www.w3.org/2000/svg">
<path d="M7.74985 6.50186C7.89668 6.08447 8.18649 5.7325 8.56796 5.50831C8.94943 5.28412 9.39793 5.20217 9.83403 5.27697C10.2701 5.35177 10.6657 5.57851 10.9506 5.917C11.2356 6.2555 11.3915 6.68393 11.3909 7.1264C11.3909 8.37547 9.51728 9 9.51728 9M9.54144 11.5H9.54977M9.41652 15.6667C13.3285 15.6667 16.4999 12.4953 16.4999 8.58333C16.4999 4.67132 13.3285 1.5 9.41652 1.5C5.5045 1.5 2.33318 4.67132 2.33318 8.58333C2.33318 9.375 2.46306 10.1363 2.70266 10.8472C2.79283 11.1147 2.83791 11.2484 2.84604 11.3512C2.85407 11.4527 2.848 11.5238 2.82289 11.6225C2.79747 11.7223 2.74135 11.8262 2.62909 12.034L1.26605 14.557C1.07162 14.9168 0.974408 15.0968 0.996165 15.2356C1.01512 15.3566 1.08631 15.4631 1.19083 15.5269C1.31083 15.6001 1.51427 15.579 1.92113 15.537L6.18865 15.0958C6.31789 15.0825 6.3825 15.0758 6.4414 15.0781C6.49933 15.0803 6.54022 15.0857 6.59671 15.0987C6.65415 15.112 6.72637 15.1398 6.87081 15.1954C7.66086 15.4998 8.5192 15.6667 9.41652 15.6667Z" stroke="#E1251B" stroke-width="1.5" stroke-linecap="round" stroke-linejoin="round"/>
</svg>
