<svg width="33" height="32" viewBox="0 0 33 32" fill="none" xmlns="http://www.w3.org/2000/svg">
<path d="M28.5 7.97331C24.06 7.53331 19.5933 7.30664 15.14 7.30664C12.5 7.30664 9.86 7.43997 7.22 7.70664L4.5 7.97331" stroke="#E1251B" stroke-width="1.5" stroke-linecap="round" stroke-linejoin="round"/>
<path d="M11.833 6.62669L12.1263 4.88002C12.3397 3.61335 12.4997 2.66669 14.753 2.66669H18.2463C20.4997 2.66669 20.673 3.66669 20.873 4.89335L21.1663 6.62669" stroke="#E1251B" stroke-width="1.5" stroke-linecap="round" stroke-linejoin="round"/>
<path d="M25.6329 12.1866L24.7662 25.6133C24.6195 27.7066 24.4995 29.3333 20.7795 29.3333H12.2195C8.49954 29.3333 8.37954 27.7066 8.23288 25.6133L7.36621 12.1866" stroke="#E1251B" stroke-width="1.5" stroke-linecap="round" stroke-linejoin="round"/>
<path d="M14.2734 22H18.7134" stroke="#E1251B" stroke-width="1.5" stroke-linecap="round" stroke-linejoin="round"/>
<path d="M13.167 16.6667H19.8337" stroke="#E1251B" stroke-width="1.5" stroke-linecap="round" stroke-linejoin="round"/>
</svg>
