<svg width="17" height="16" viewBox="0 0 17 16" fill="none" xmlns="http://www.w3.org/2000/svg">
<path d="M14.5472 3.48674C13.4739 3.38007 12.4006 3.30008 11.3205 3.24008V3.23341L11.1739 2.36676C11.0739 1.75343 10.9272 0.83345 9.36719 0.83345H7.6205C6.06715 0.83345 5.92048 1.71344 5.81381 2.36009L5.67381 3.21341C5.0538 3.25341 4.43379 3.29341 3.81379 3.35341L2.45377 3.48674C2.17377 3.51341 1.97376 3.76007 2.00043 4.0334C2.0271 4.30673 2.2671 4.50672 2.5471 4.48006L3.90712 4.34672C7.4005 4.00006 10.9205 4.13339 14.4539 4.48672C14.4739 4.48672 14.4872 4.48672 14.5072 4.48672C14.7606 4.48672 14.9806 4.29339 15.0073 4.0334C15.0273 3.76007 14.8273 3.51341 14.5472 3.48674Z" fill="#E1251B"/>
<path d="M13.3203 5.42671C13.1603 5.26005 12.9403 5.16672 12.7136 5.16672H4.28684C4.06017 5.16672 3.8335 5.26005 3.68016 5.42671C3.52683 5.59338 3.44016 5.82004 3.45349 6.05337L3.86683 12.8933C3.94016 13.9066 4.0335 15.1732 6.36019 15.1732H10.6402C12.9669 15.1732 13.0603 13.9132 13.1336 12.8933L13.5469 6.06004C13.5603 5.82004 13.4736 5.59338 13.3203 5.42671ZM9.6069 11.8333H7.38687C7.11354 11.8333 6.88687 11.6066 6.88687 11.3333C6.88687 11.06 7.11354 10.8333 7.38687 10.8333H9.6069C9.88023 10.8333 10.1069 11.06 10.1069 11.3333C10.1069 11.6066 9.88023 11.8333 9.6069 11.8333ZM10.1669 9.16665H6.83353C6.5602 9.16665 6.33353 8.93999 6.33353 8.66666C6.33353 8.39333 6.5602 8.16667 6.83353 8.16667H10.1669C10.4402 8.16667 10.6669 8.39333 10.6669 8.66666C10.6669 8.93999 10.4402 9.16665 10.1669 9.16665Z" fill="#E1251B"/>
</svg>
