<svg width="32" height="32" viewBox="0 0 32 32" fill="none" xmlns="http://www.w3.org/2000/svg">
<path d="M17.1867 7.83997H6.8133C4.5333 7.83997 2.66666 9.70661 2.66666 11.9866V27.1333C2.66666 29.0666 4.05332 29.8933 5.74665 28.9466L10.9866 26.0266C11.5466 25.7199 12.4533 25.7199 13 26.0266L18.24 28.9466C19.9333 29.8933 21.32 29.0666 21.32 27.1333V11.9866C21.3333 9.70661 19.4667 7.83997 17.1867 7.83997Z" stroke="#E1251B" stroke-width="1.5" stroke-linecap="round" stroke-linejoin="round"/>
<path d="M21.3333 11.9866V27.1333C21.3333 29.0666 19.9467 29.8799 18.2533 28.9466L13.0133 26.0266C12.4533 25.7199 11.5466 25.7199 10.9866 26.0266L5.74665 28.9466C4.05332 29.8799 2.66666 29.0666 2.66666 27.1333V11.9866C2.66666 9.70661 4.5333 7.83997 6.8133 7.83997H17.1867C19.4667 7.83997 21.3333 9.70661 21.3333 11.9866Z" stroke="#E1251B" stroke-width="1.5" stroke-linecap="round" stroke-linejoin="round"/>
<path d="M29.3333 6.81327V21.96C29.3333 23.8933 27.9467 24.7066 26.2533 23.7733L21.3333 21.0266V11.9866C21.3333 9.70661 19.4667 7.83997 17.1867 7.83997H10.6667V6.81327C10.6667 4.53327 12.5333 2.66663 14.8133 2.66663H25.1867C27.4667 2.66663 29.3333 4.53327 29.3333 6.81327Z" stroke="#E1251B" stroke-width="1.5" stroke-linecap="round" stroke-linejoin="round"/>
</svg>
