<svg width="28" height="28" viewBox="0 0 28 28" fill="none" xmlns="http://www.w3.org/2000/svg">
<g clip-path="url(#clip0_8209_1318)">
<path d="M19.8335 8.1665H16.3335C15.6918 8.1665 15.1668 8.69149 15.1668 9.33314C15.1668 9.97479 15.6918 10.4998 16.3335 10.4998H19.8335C21.7585 10.4998 23.3335 12.0747 23.3335 13.9997C23.3335 15.9246 21.7585 17.4996 19.8335 17.4996H16.3335C15.6918 17.4996 15.1668 18.0246 15.1668 18.6662C15.1668 19.3078 15.6918 19.8328 16.3335 19.8328H19.8335C23.0535 19.8328 25.6668 17.2196 25.6668 13.9997C25.6668 10.7798 23.0535 8.1665 19.8335 8.1665ZM9.3335 13.9997C9.3335 14.6413 9.8585 15.1663 10.5002 15.1663H17.5002C18.1418 15.1663 18.6668 14.6413 18.6668 13.9997C18.6668 13.358 18.1418 12.833 17.5002 12.833H10.5002C9.8585 12.833 9.3335 13.358 9.3335 13.9997ZM11.6668 17.4996H8.16683C6.24183 17.4996 4.66683 15.9246 4.66683 13.9997C4.66683 12.0747 6.24183 10.4998 8.16683 10.4998H11.6668C12.3085 10.4998 12.8335 9.97479 12.8335 9.33314C12.8335 8.69149 12.3085 8.1665 11.6668 8.1665H8.16683C4.94683 8.1665 2.3335 10.7798 2.3335 13.9997C2.3335 17.2196 4.94683 19.8328 8.16683 19.8328H11.6668C12.3085 19.8328 12.8335 19.3078 12.8335 18.6662C12.8335 18.0246 12.3085 17.4996 11.6668 17.4996Z" fill="currentColor"/>
</g>
<defs>
<clipPath id="clip0_8209_1318">
<rect width="28" height="27.9992" fill="white"/>
</clipPath>
</defs>
</svg>
