<svg width="16" height="16" viewBox="0 0 16 16" fill="none" xmlns="http://www.w3.org/2000/svg">
<path d="M8 12.3332C10.3932 12.3332 12.3333 10.3931 12.3333 7.99984C12.3333 5.6066 10.3932 3.6665 8 3.6665C5.60677 3.6665 3.66667 5.6066 3.66667 7.99984C3.66667 10.3931 5.60677 12.3332 8 12.3332Z" stroke="currentColor" stroke-width="1.5" stroke-linecap="round" stroke-linejoin="round"/>
<path d="M12.6733 3.32683L12.76 3.24016L12.6733 3.32683ZM3.24 12.7602L3.32667 12.6735L3.24 12.7602ZM8 1.38683V1.3335V1.38683ZM8 14.6668V14.6135V14.6668ZM1.38667 8.00016H1.33333H1.38667ZM14.6667 8.00016H14.6133H14.6667ZM3.32667 3.32683L3.24 3.24016L3.32667 3.32683ZM12.76 12.7602L12.6733 12.6735L12.76 12.7602Z" fill="currentColor"/>
<path d="M12.76 12.7602L12.6733 12.6735M12.6733 3.32683L12.76 3.24016L12.6733 3.32683ZM3.24 12.7602L3.32667 12.6735L3.24 12.7602ZM8 1.38683V1.3335V1.38683ZM8 14.6668V14.6135V14.6668ZM1.38667 8.00016H1.33333H1.38667ZM14.6667 8.00016H14.6133H14.6667ZM3.32667 3.32683L3.24 3.24016L3.32667 3.32683Z" stroke="currentColor" stroke-width="2" stroke-linecap="round" stroke-linejoin="round"/>
</svg>
