<svg width="14" height="14" viewBox="0 0 14 14" fill="none" xmlns="http://www.w3.org/2000/svg">
<path d="M12.577 6.26483L11.7837 5.34316C11.632 5.16816 11.5095 4.8415 11.5095 4.60816V3.6165C11.5095 2.99816 11.002 2.49066 10.3837 2.49066H9.392C9.16451 2.49066 8.83201 2.36816 8.657 2.2165L7.73534 1.42316C7.33284 1.079 6.67367 1.079 6.26534 1.42316L5.3495 2.22233C5.17451 2.36816 4.84201 2.49066 4.61451 2.49066H3.60534C2.987 2.49066 2.47951 2.99816 2.47951 3.6165V4.614C2.47951 4.8415 2.35701 5.16816 2.21117 5.34316L1.42367 6.27066C1.08534 6.67316 1.08534 7.3265 1.42367 7.729L2.21117 8.6565C2.35701 8.8315 2.47951 9.15816 2.47951 9.38566V10.3832C2.47951 11.0015 2.987 11.509 3.60534 11.509H4.61451C4.84201 11.509 5.17451 11.6315 5.3495 11.7832L6.27117 12.5765C6.67367 12.9207 7.33284 12.9207 7.74117 12.5765L8.66284 11.7832C8.83784 11.6315 9.16451 11.509 9.39784 11.509H10.3895C11.0078 11.509 11.5153 11.0015 11.5153 10.3832V9.3915C11.5153 9.164 11.6378 8.8315 11.7895 8.6565L12.5828 7.73483C12.9212 7.33233 12.9212 6.66733 12.577 6.26483ZM9.427 5.89733L6.6095 8.71483C6.52784 8.7965 6.41701 8.84316 6.30034 8.84316C6.18367 8.84316 6.07284 8.7965 5.99117 8.71483L4.5795 7.30316C4.41034 7.134 4.41034 6.854 4.5795 6.68483C4.74867 6.51566 5.02867 6.51566 5.19784 6.68483L6.30034 7.78733L8.80867 5.279C8.97784 5.10983 9.25784 5.10983 9.427 5.279C9.59617 5.44816 9.59617 5.72816 9.427 5.89733Z" fill="white"/>
</svg>
