<svg width="29" height="30" viewBox="0 0 29 30" fill="none" xmlns="http://www.w3.org/2000/svg">
    <path
        d="M14.5001 20.3334V15M14.5001 9.66669H14.5134M1.16675 10.3637V19.6364C1.16675 19.9625 1.16675 20.1255 1.20359 20.279C1.23625 20.415 1.29012 20.5451 1.36323 20.6644C1.44568 20.799 1.56098 20.9143 1.79159 21.1449L8.35524 27.7085C8.58584 27.9391 8.70115 28.0544 8.8357 28.1369C8.955 28.21 9.08506 28.2639 9.22111 28.2965C9.37456 28.3334 9.53762 28.3334 9.86374 28.3334H19.1364C19.4625 28.3334 19.6256 28.3334 19.7791 28.2965C19.9151 28.2639 20.0452 28.21 20.1645 28.1369C20.299 28.0544 20.4143 27.9391 20.6449 27.7085L27.2086 21.1449C27.4392 20.9143 27.5545 20.799 27.6369 20.6644C27.71 20.5451 27.7639 20.415 27.7966 20.279C27.8334 20.1255 27.8334 19.9625 27.8334 19.6364V10.3637C27.8334 10.0376 27.8334 9.87449 27.7966 9.72104C27.7639 9.585 27.71 9.45494 27.6369 9.33564C27.5545 9.20109 27.4392 9.08578 27.2086 8.85518L20.6449 2.29153C20.4143 2.06092 20.299 1.94562 20.1645 1.86317C20.0452 1.79006 19.9151 1.73619 19.7791 1.70353C19.6256 1.66669 19.4625 1.66669 19.1364 1.66669H9.86374C9.53762 1.66669 9.37456 1.66669 9.22111 1.70353C9.08506 1.73619 8.955 1.79006 8.8357 1.86317C8.70115 1.94562 8.58585 2.06092 8.35524 2.29153L1.79159 8.85518C1.56098 9.08578 1.44568 9.20109 1.36323 9.33564C1.29012 9.45494 1.23625 9.585 1.20359 9.72104C1.16675 9.87449 1.16675 10.0376 1.16675 10.3637Z"
        stroke="#E1251B" stroke-width="1" stroke-linecap="round" stroke-linejoin="round" />
</svg>