<svg width="33" height="32" viewBox="0 0 33 32" fill="none" xmlns="http://www.w3.org/2000/svg">
<path d="M14.8338 3.26676C15.7672 2.48009 17.2738 2.48009 18.1805 3.26676L20.2872 5.06676C20.6872 5.40009 21.4472 5.68009 21.9805 5.68009H24.2472C25.6605 5.68009 26.8205 6.84009 26.8205 8.25342V10.5201C26.8205 11.0534 27.1005 11.8001 27.4338 12.2001L29.2338 14.3068C30.0205 15.2401 30.0205 16.7468 29.2338 17.6534L27.4338 19.7601C27.1005 20.1601 26.8205 20.9068 26.8205 21.4401V23.7068C26.8205 25.1201 25.6605 26.2801 24.2472 26.2801H21.9805C21.4472 26.2801 20.7005 26.5601 20.3005 26.8934L18.1938 28.6934C17.2605 29.4801 15.7538 29.4801 14.8472 28.6934L12.7405 26.8934C12.3405 26.5601 11.5805 26.2801 11.0605 26.2801H8.72716C7.31383 26.2801 6.15383 25.1201 6.15383 23.7068V21.4268C6.15383 20.9068 5.88716 20.1468 5.55383 19.7601L3.75383 17.6401C2.98049 16.7201 2.98049 15.2268 3.75383 14.3068L5.55383 12.1868C5.88716 11.7868 6.15383 11.0401 6.15383 10.5201V8.26676C6.15383 6.85342 7.31383 5.69342 8.72716 5.69342H11.0338C11.5672 5.69342 12.3138 5.41342 12.7138 5.08009L14.8338 3.26676Z" stroke="#E6382E" stroke-width="2" stroke-linecap="round" stroke-linejoin="round"/>
<path d="M16.5 10.8401V17.2801" stroke="#E6382E" stroke-width="2" stroke-linecap="round" stroke-linejoin="round"/>
<path d="M16.4922 21.3333H16.5042" stroke="#E6382E" stroke-width="2" stroke-linecap="round" stroke-linejoin="round"/>
</svg>
